999
"DXF R12 Output" (www.mydxf.blogspot.com)
 0 
SECTION
 2 
HEADER
 9 
$ACADVER
 1 
AC1009
 9 
$EXTMIN
 10 
 0 
 20 
 0 
 9 
$EXTMAX
 10 
 8.5 
 20 
 11 
 0 
ENDSEC
 0 
SECTION
 2 
ENTITIES
0
LINE
8
Layer 1
10
0.793749
20
297.794000
11
-0.793749
21
296.206000
0
LINE
8
Layer 1
10
0.000000
20
298.323000
11
0.000000
21
295.677000
0
LINE
8
Layer 1
10
2.116660
20
295.942000
11
1.058330
21
294.883670
0
LINE
8
Layer 1
10
1.587500
20
296.471000
11
0.529170
21
295.412670
0
LINE
8
Layer 1
10
1.058330
20
297.000000
11
0.000000
21
295.941670
0
LINE
8
Layer 1
10
165.824000
20
253.328000
11
165.823735
21
262.843860
0
LINE
8
Layer 1
10
165.823735
20
262.843860
11
165.515559
21
263.759987
0
LINE
8
Layer 1
10
165.515559
20
263.759987
11
165.069000
21
264.594690
0
LINE
8
Layer 1
10
165.069000
20
264.594690
11
164.499059
21
265.336023
0
LINE
8
Layer 1
10
164.499059
20
265.336023
11
163.820734
21
265.972041
0
LINE
8
Layer 1
10
163.820734
20
265.972041
11
163.049026
21
266.490800
0
LINE
8
Layer 1
10
163.049026
20
266.490800
11
162.198934
21
266.880353
0
LINE
8
Layer 1
10
162.198934
20
266.880353
11
161.285457
21
267.128754
0
LINE
8
Layer 1
10
161.285457
20
267.128754
11
160.323595
21
267.224060
0
LINE
8
Layer 1
10
160.323595
20
267.224060
11
135.839000
21
267.224000
0
LINE
8
Layer 1
10
135.839000
20
267.224000
11
134.740615
21
267.338952
0
LINE
8
Layer 1
10
134.740615
20
267.338952
11
133.700471
21
267.674250
0
LINE
8
Layer 1
10
133.700471
20
267.674250
11
132.751099
21
268.215561
0
LINE
8
Layer 1
10
132.751099
20
268.215561
11
131.925030
21
268.948550
0
LINE
8
Layer 1
10
131.925030
20
268.948550
11
130.555080
21
270.281652
0
LINE
8
Layer 1
10
130.555080
20
270.281652
11
129.026824
21
271.415831
0
LINE
8
Layer 1
10
129.026824
20
271.415831
11
127.361653
21
272.337318
0
LINE
8
Layer 1
10
127.361653
20
272.337318
11
125.580960
21
273.032340
0
LINE
8
Layer 1
10
125.580960
20
273.032340
11
120.414024
21
274.353585
0
LINE
8
Layer 1
10
120.414024
20
274.353585
11
115.208112
21
275.487949
0
LINE
8
Layer 1
10
115.208112
20
275.487949
11
109.968301
21
276.434795
0
LINE
8
Layer 1
10
109.968301
20
276.434795
11
104.699665
21
277.193484
0
LINE
8
Layer 1
10
104.699665
20
277.193484
11
99.407277
21
277.763377
0
LINE
8
Layer 1
10
99.407277
20
277.763377
11
94.096214
21
278.143836
0
LINE
8
Layer 1
10
94.096214
20
278.143836
11
88.771550
21
278.334224
0
LINE
8
Layer 1
10
88.771550
20
278.334224
11
83.438360
21
278.333900
0
LINE
8
Layer 1
10
83.438360
20
278.333900
11
77.022324
21
278.094255
0
LINE
8
Layer 1
10
77.022324
20
278.094255
11
70.681464
21
277.325925
0
LINE
8
Layer 1
10
70.681464
20
277.325925
11
64.446983
21
276.039508
0
LINE
8
Layer 1
10
64.446983
20
276.039508
11
58.350084
21
274.245605
0
LINE
8
Layer 1
10
58.350084
20
274.245605
11
52.421969
21
271.954813
0
LINE
8
Layer 1
10
52.421969
20
271.954813
11
46.693841
21
269.177732
0
LINE
8
Layer 1
10
46.693841
20
269.177732
11
41.196904
21
265.924961
0
LINE
8
Layer 1
10
41.196904
20
265.924961
11
35.962360
21
262.207100
0
LINE
8
Layer 1
10
35.962360
20
262.207100
11
34.550670
21
260.991080
0
LINE
8
Layer 1
10
34.550670
20
260.991080
11
32.398751
21
258.594882
0
LINE
8
Layer 1
10
32.398751
20
258.594882
11
30.635590
21
255.899740
0
LINE
8
Layer 1
10
30.635590
20
255.899740
11
29.884512
21
254.304803
0
LINE
8
Layer 1
10
29.884512
20
254.304803
11
29.341557
21
252.634807
0
LINE
8
Layer 1
10
29.341557
20
252.634807
11
29.011923
21
250.909981
0
LINE
8
Layer 1
10
29.011923
20
250.909981
11
28.900810
21
249.150550
0
LINE
8
Layer 1
10
28.900810
20
249.150550
11
28.896656
21
188.939950
0
LINE
8
Layer 1
10
28.896656
20
188.939950
11
28.991216
21
187.978982
0
LINE
8
Layer 1
10
28.991216
20
187.978982
11
29.263021
21
187.080947
0
LINE
8
Layer 1
10
29.263021
20
187.080947
11
29.694059
21
186.264507
0
LINE
8
Layer 1
10
29.694059
20
186.264507
11
30.266317
21
185.548324
0
LINE
8
Layer 1
10
30.266317
20
185.548324
11
30.961783
21
184.951059
0
LINE
8
Layer 1
10
30.961783
20
184.951059
11
31.762445
21
184.491376
0
LINE
8
Layer 1
10
31.762445
20
184.491376
11
32.650290
21
184.187935
0
LINE
8
Layer 1
10
32.650290
20
184.187935
11
33.607306
21
184.059400
0
LINE
8
Layer 1
10
33.607306
20
184.059400
11
111.845306
21
184.055960
0
LINE
8
Layer 1
10
111.845306
20
184.055960
11
130.886106
21
180.698030
0
LINE
8
Layer 1
10
130.886106
20
180.698030
11
150.618906
21
173.513650
0
LINE
8
Layer 1
10
150.618906
20
173.513650
11
151.525671
21
173.315077
0
LINE
8
Layer 1
10
151.525671
20
173.315077
11
152.427497
21
173.297119
0
LINE
8
Layer 1
10
152.427497
20
173.297119
11
153.302003
21
173.448866
0
LINE
8
Layer 1
10
153.302003
20
173.448866
11
154.126805
21
173.759408
0
LINE
8
Layer 1
10
154.126805
20
173.759408
11
154.879520
21
174.217835
0
LINE
8
Layer 1
10
154.879520
20
174.217835
11
155.537766
21
174.813234
0
LINE
8
Layer 1
10
155.537766
20
174.813234
11
156.079159
21
175.534696
0
LINE
8
Layer 1
10
156.079159
20
175.534696
11
156.481316
21
176.371310
0
LINE
8
Layer 1
10
156.481316
20
176.371310
11
165.112126
21
200.015610
0
LINE
8
Layer 1
10
165.112126
20
200.015610
11
165.579763
21
201.650490
0
LINE
8
Layer 1
10
165.579763
20
201.650490
11
167.801724
21
202.246726
0
LINE
8
Layer 1
10
167.801724
20
202.246726
11
169.935008
21
203.021104
0
LINE
8
Layer 1
10
169.935008
20
203.021104
11
171.972169
21
203.964383
0
LINE
8
Layer 1
10
171.972169
20
203.964383
11
173.905758
21
205.067320
0
LINE
8
Layer 1
10
173.905758
20
205.067320
11
175.728331
21
206.320673
0
LINE
8
Layer 1
10
175.728331
20
206.320673
11
177.432441
21
207.715200
0
LINE
8
Layer 1
10
177.432441
20
207.715200
11
179.010640
21
209.241658
0
LINE
8
Layer 1
10
179.010640
20
209.241658
11
180.455482
21
210.890805
0
LINE
8
Layer 1
10
180.455482
20
210.890805
11
181.759521
21
212.653400
0
LINE
8
Layer 1
10
181.759521
20
212.653400
11
182.915309
21
214.520199
0
LINE
8
Layer 1
10
182.915309
20
214.520199
11
183.915402
21
216.481961
0
LINE
8
Layer 1
10
183.915402
20
216.481961
11
184.752351
21
218.529443
0
LINE
8
Layer 1
10
184.752351
20
218.529443
11
185.418710
21
220.653402
0
LINE
8
Layer 1
10
185.418710
20
220.653402
11
185.907033
21
222.844598
0
LINE
8
Layer 1
10
185.907033
20
222.844598
11
186.209873
21
225.093787
0
LINE
8
Layer 1
10
186.209873
20
225.093787
11
186.319783
21
227.391727
0
LINE
8
Layer 1
10
186.319783
20
227.391727
11
186.231603
21
229.690603
0
LINE
8
Layer 1
10
186.231603
20
229.690603
11
185.950040
21
231.942554
0
LINE
8
Layer 1
10
185.950040
20
231.942554
11
185.482455
21
234.138269
0
LINE
8
Layer 1
10
185.482455
20
234.138269
11
184.836206
21
236.268433
0
LINE
8
Layer 1
10
184.836206
20
236.268433
11
184.018651
21
238.323736
0
LINE
8
Layer 1
10
184.018651
20
238.323736
11
183.037150
21
240.294865
0
LINE
8
Layer 1
10
183.037150
20
240.294865
11
181.899062
21
242.172508
0
LINE
8
Layer 1
10
181.899062
20
242.172508
11
180.611745
21
243.947352
0
LINE
8
Layer 1
10
180.611745
20
243.947352
11
179.182559
21
245.610085
0
LINE
8
Layer 1
10
179.182559
20
245.610085
11
177.618861
21
247.151396
0
LINE
8
Layer 1
10
177.618861
20
247.151396
11
175.928012
21
248.561971
0
LINE
8
Layer 1
10
175.928012
20
248.561971
11
174.117370
21
249.832499
0
LINE
8
Layer 1
10
174.117370
20
249.832499
11
172.194294
21
250.953667
0
LINE
8
Layer 1
10
172.194294
20
250.953667
11
170.166143
21
251.916163
0
LINE
8
Layer 1
10
170.166143
20
251.916163
11
168.040275
21
252.710675
0
LINE
8
Layer 1
10
168.040275
20
252.710675
11
165.824050
21
253.327890
0
LINE
8
Layer 1
10
165.824050
20
253.327890
11
165.824000
21
253.328000
0
LINE
8
Layer 1
10
96.543800
20
270.932000
11
96.643047
21
270.446579
0
LINE
8
Layer 1
10
96.643047
20
270.446579
11
96.911162
21
270.050403
0
LINE
8
Layer 1
10
96.911162
20
270.050403
11
97.308096
21
269.783409
0
LINE
8
Layer 1
10
97.308096
20
269.783409
11
97.793795
21
269.685536
0
LINE
8
Layer 1
10
97.793795
20
269.685536
11
98.279494
21
269.783409
0
LINE
8
Layer 1
10
98.279494
20
269.783409
11
98.676428
21
270.050403
0
LINE
8
Layer 1
10
98.676428
20
270.050403
11
98.944543
21
270.446579
0
LINE
8
Layer 1
10
98.944543
20
270.446579
11
99.043790
21
270.932000
0
LINE
8
Layer 1
10
99.043790
20
270.932000
11
98.944543
21
271.417421
0
LINE
8
Layer 1
10
98.944543
20
271.417421
11
98.676428
21
271.813597
0
LINE
8
Layer 1
10
98.676428
20
271.813597
11
98.279494
21
272.080591
0
LINE
8
Layer 1
10
98.279494
20
272.080591
11
97.793795
21
272.178464
0
LINE
8
Layer 1
10
97.793795
20
272.178464
11
97.308096
21
272.080591
0
LINE
8
Layer 1
10
97.308096
20
272.080591
11
96.911162
21
271.813597
0
LINE
8
Layer 1
10
96.911162
20
271.813597
11
96.643047
21
271.417421
0
LINE
8
Layer 1
10
96.643047
20
271.417421
11
96.543800
21
270.932000
0
LINE
8
Layer 1
10
96.543800
20
270.932000
11
96.543800
21
270.932000
0
LINE
8
Layer 1
10
31.210100
20
188.695000
11
31.309347
21
188.209579
0
LINE
8
Layer 1
10
31.309347
20
188.209579
11
31.577462
21
187.813403
0
LINE
8
Layer 1
10
31.577462
20
187.813403
11
31.974396
21
187.546409
0
LINE
8
Layer 1
10
31.974396
20
187.546409
11
32.460095
21
187.448536
0
LINE
8
Layer 1
10
32.460095
20
187.448536
11
32.945794
21
187.546409
0
LINE
8
Layer 1
10
32.945794
20
187.546409
11
33.342728
21
187.813403
0
LINE
8
Layer 1
10
33.342728
20
187.813403
11
33.610843
21
188.209579
0
LINE
8
Layer 1
10
33.610843
20
188.209579
11
33.710090
21
188.695000
0
LINE
8
Layer 1
10
33.710090
20
188.695000
11
33.610843
21
189.180421
0
LINE
8
Layer 1
10
33.610843
20
189.180421
11
33.342728
21
189.576597
0
LINE
8
Layer 1
10
33.342728
20
189.576597
11
32.945794
21
189.843591
0
LINE
8
Layer 1
10
32.945794
20
189.843591
11
32.460095
21
189.941464
0
LINE
8
Layer 1
10
32.460095
20
189.941464
11
31.974396
21
189.843591
0
LINE
8
Layer 1
10
31.974396
20
189.843591
11
31.577462
21
189.576597
0
LINE
8
Layer 1
10
31.577462
20
189.576597
11
31.309347
21
189.180421
0
LINE
8
Layer 1
10
31.309347
20
189.180421
11
31.210100
21
188.695000
0
LINE
8
Layer 1
10
31.210100
20
188.695000
11
31.210100
21
188.695000
0
LINE
8
Layer 1
10
152.720000
20
178.425000
11
152.887468
21
177.800000
0
LINE
8
Layer 1
10
152.887468
20
177.800000
11
153.345000
21
177.342468
0
LINE
8
Layer 1
10
153.345000
20
177.342468
11
153.970000
21
177.175000
0
LINE
8
Layer 1
10
153.970000
20
177.175000
11
154.595000
21
177.342468
0
LINE
8
Layer 1
10
154.595000
20
177.342468
11
155.052532
21
177.800000
0
LINE
8
Layer 1
10
155.052532
20
177.800000
11
155.220000
21
178.425000
0
LINE
8
Layer 1
10
155.220000
20
178.425000
11
155.052532
21
179.050000
0
LINE
8
Layer 1
10
155.052532
20
179.050000
11
154.595000
21
179.507532
0
LINE
8
Layer 1
10
154.595000
20
179.507532
11
153.970000
21
179.675000
0
LINE
8
Layer 1
10
153.970000
20
179.675000
11
153.345000
21
179.507532
0
LINE
8
Layer 1
10
153.345000
20
179.507532
11
152.887468
21
179.050000
0
LINE
8
Layer 1
10
152.887468
20
179.050000
11
152.720000
21
178.425000
0
LINE
8
Layer 1
10
152.720000
20
178.425000
11
152.720000
21
178.425000
0
LINE
8
Layer 1
10
161.037000
20
262.599000
11
161.204468
21
261.974000
0
LINE
8
Layer 1
10
161.204468
20
261.974000
11
161.662000
21
261.516468
0
LINE
8
Layer 1
10
161.662000
20
261.516468
11
162.287000
21
261.349000
0
LINE
8
Layer 1
10
162.287000
20
261.349000
11
162.912000
21
261.516468
0
LINE
8
Layer 1
10
162.912000
20
261.516468
11
163.369532
21
261.974000
0
LINE
8
Layer 1
10
163.369532
20
261.974000
11
163.537000
21
262.599000
0
LINE
8
Layer 1
10
163.537000
20
262.599000
11
163.369532
21
263.224000
0
LINE
8
Layer 1
10
163.369532
20
263.224000
11
162.912000
21
263.681532
0
LINE
8
Layer 1
10
162.912000
20
263.681532
11
162.287000
21
263.849000
0
LINE
8
Layer 1
10
162.287000
20
263.849000
11
161.662000
21
263.681532
0
LINE
8
Layer 1
10
161.662000
20
263.681532
11
161.204468
21
263.224000
0
LINE
8
Layer 1
10
161.204468
20
263.224000
11
161.037000
21
262.599000
0
LINE
8
Layer 1
10
161.037000
20
262.599000
11
161.037000
21
262.599000
0
LINE
8
Layer 1
10
38.706500
20
258.585000
11
38.873968
21
257.960000
0
LINE
8
Layer 1
10
38.873968
20
257.960000
11
39.331500
21
257.502468
0
LINE
8
Layer 1
10
39.331500
20
257.502468
11
39.956500
21
257.335000
0
LINE
8
Layer 1
10
39.956500
20
257.335000
11
40.581500
21
257.502468
0
LINE
8
Layer 1
10
40.581500
20
257.502468
11
41.039032
21
257.960000
0
LINE
8
Layer 1
10
41.039032
20
257.960000
11
41.206500
21
258.585000
0
LINE
8
Layer 1
10
41.206500
20
258.585000
11
41.039032
21
259.210000
0
LINE
8
Layer 1
10
41.039032
20
259.210000
11
40.581500
21
259.667532
0
LINE
8
Layer 1
10
40.581500
20
259.667532
11
39.956500
21
259.835000
0
LINE
8
Layer 1
10
39.956500
20
259.835000
11
39.331500
21
259.667532
0
LINE
8
Layer 1
10
39.331500
20
259.667532
11
38.873968
21
259.210000
0
LINE
8
Layer 1
10
38.873968
20
259.210000
11
38.706500
21
258.585000
0
LINE
8
Layer 1
10
38.706500
20
258.585000
11
38.706500
21
258.585000
 0 
ENDSEC
 0 
EOF