999
"DXF R12 Output" (www.mydxf.blogspot.com)
 0 
SECTION
 2 
HEADER
 9 
$ACADVER
 1 
AC1009
 9 
$EXTMIN
 10 
 0 
 20 
 0 
 9 
$EXTMAX
 10 
 8.5 
 20 
 11 
 0 
ENDSEC
 0 
SECTION
 2 
ENTITIES
0
LINE
8
Layer 1
10
0.793749
20
297.794000
11
-0.793749
21
296.206000
0
LINE
8
Layer 1
10
0.000000
20
298.323000
11
0.000000
21
295.677000
0
LINE
8
Layer 1
10
2.116660
20
295.942000
11
1.058330
21
294.883670
0
LINE
8
Layer 1
10
1.587500
20
296.471000
11
0.529170
21
295.412670
0
LINE
8
Layer 1
10
1.058330
20
297.000000
11
0.000000
21
295.941670
0
LINE
8
Layer 1
10
158.358000
20
171.800000
11
158.525470
21
171.174995
0
LINE
8
Layer 1
10
158.525470
20
171.174995
11
158.983005
21
170.717460
0
LINE
8
Layer 1
10
158.983005
20
170.717460
11
159.608010
21
170.549990
0
LINE
8
Layer 1
10
159.608010
20
170.549990
11
160.233015
21
170.717460
0
LINE
8
Layer 1
10
160.233015
20
170.717460
11
160.690550
21
171.174995
0
LINE
8
Layer 1
10
160.690550
20
171.174995
11
160.858020
21
171.800000
0
LINE
8
Layer 1
10
160.858020
20
171.800000
11
160.690550
21
172.425005
0
LINE
8
Layer 1
10
160.690550
20
172.425005
11
160.233015
21
172.882540
0
LINE
8
Layer 1
10
160.233015
20
172.882540
11
159.608010
21
173.050010
0
LINE
8
Layer 1
10
159.608010
20
173.050010
11
158.983005
21
172.882540
0
LINE
8
Layer 1
10
158.983005
20
172.882540
11
158.525470
21
172.425005
0
LINE
8
Layer 1
10
158.525470
20
172.425005
11
158.358000
21
171.800000
0
LINE
8
Layer 1
10
158.358000
20
171.800000
11
158.358000
21
171.800000
0
LINE
8
Layer 1
10
36.848400
20
182.070000
11
36.947647
21
181.584579
0
LINE
8
Layer 1
10
36.947647
20
181.584579
11
37.215762
21
181.188403
0
LINE
8
Layer 1
10
37.215762
20
181.188403
11
37.612696
21
180.921409
0
LINE
8
Layer 1
10
37.612696
20
180.921409
11
38.098395
21
180.823536
0
LINE
8
Layer 1
10
38.098395
20
180.823536
11
38.584094
21
180.921409
0
LINE
8
Layer 1
10
38.584094
20
180.921409
11
38.981028
21
181.188403
0
LINE
8
Layer 1
10
38.981028
20
181.188403
11
39.249143
21
181.584579
0
LINE
8
Layer 1
10
39.249143
20
181.584579
11
39.348390
21
182.070000
0
LINE
8
Layer 1
10
39.348390
20
182.070000
11
39.249143
21
182.555421
0
LINE
8
Layer 1
10
39.249143
20
182.555421
11
38.981028
21
182.951597
0
LINE
8
Layer 1
10
38.981028
20
182.951597
11
38.584094
21
183.218591
0
LINE
8
Layer 1
10
38.584094
20
183.218591
11
38.098395
21
183.316464
0
LINE
8
Layer 1
10
38.098395
20
183.316464
11
37.612696
21
183.218591
0
LINE
8
Layer 1
10
37.612696
20
183.218591
11
37.215762
21
182.951597
0
LINE
8
Layer 1
10
37.215762
20
182.951597
11
36.947647
21
182.555421
0
LINE
8
Layer 1
10
36.947647
20
182.555421
11
36.848400
21
182.070000
0
LINE
8
Layer 1
10
36.848400
20
182.070000
11
36.848400
21
182.070000
0
LINE
8
Layer 1
10
102.182000
20
264.307000
11
102.349470
21
263.681995
0
LINE
8
Layer 1
10
102.349470
20
263.681995
11
102.807005
21
263.224460
0
LINE
8
Layer 1
10
102.807005
20
263.224460
11
103.432010
21
263.056990
0
LINE
8
Layer 1
10
103.432010
20
263.056990
11
104.057015
21
263.224460
0
LINE
8
Layer 1
10
104.057015
20
263.224460
11
104.514550
21
263.681995
0
LINE
8
Layer 1
10
104.514550
20
263.681995
11
104.682020
21
264.307000
0
LINE
8
Layer 1
10
104.682020
20
264.307000
11
104.514550
21
264.932005
0
LINE
8
Layer 1
10
104.514550
20
264.932005
11
104.057015
21
265.389540
0
LINE
8
Layer 1
10
104.057015
20
265.389540
11
103.432010
21
265.557010
0
LINE
8
Layer 1
10
103.432010
20
265.557010
11
102.807005
21
265.389540
0
LINE
8
Layer 1
10
102.807005
20
265.389540
11
102.349470
21
264.932005
0
LINE
8
Layer 1
10
102.349470
20
264.932005
11
102.182000
21
264.307000
0
LINE
8
Layer 1
10
102.182000
20
264.307000
11
102.182000
21
264.307000
0
LINE
8
Layer 1
10
166.676000
20
255.974000
11
166.843470
21
255.348995
0
LINE
8
Layer 1
10
166.843470
20
255.348995
11
167.301005
21
254.891460
0
LINE
8
Layer 1
10
167.301005
20
254.891460
11
167.926010
21
254.723990
0
LINE
8
Layer 1
10
167.926010
20
254.723990
11
168.551015
21
254.891460
0
LINE
8
Layer 1
10
168.551015
20
254.891460
11
169.008550
21
255.348995
0
LINE
8
Layer 1
10
169.008550
20
255.348995
11
169.176020
21
255.974000
0
LINE
8
Layer 1
10
169.176020
20
255.974000
11
169.008550
21
256.599005
0
LINE
8
Layer 1
10
169.008550
20
256.599005
11
168.551015
21
257.056540
0
LINE
8
Layer 1
10
168.551015
20
257.056540
11
167.926010
21
257.224010
0
LINE
8
Layer 1
10
167.926010
20
257.224010
11
167.301005
21
257.056540
0
LINE
8
Layer 1
10
167.301005
20
257.056540
11
166.843470
21
256.599005
0
LINE
8
Layer 1
10
166.843470
20
256.599005
11
166.676000
21
255.974000
0
LINE
8
Layer 1
10
166.676000
20
255.974000
11
166.676000
21
255.974000
0
LINE
8
Layer 1
10
44.344800
20
251.960000
11
44.444047
21
251.474579
0
LINE
8
Layer 1
10
44.444047
20
251.474579
11
44.712162
21
251.078403
0
LINE
8
Layer 1
10
44.712162
20
251.078403
11
45.109096
21
250.811409
0
LINE
8
Layer 1
10
45.109096
20
250.811409
11
45.594795
21
250.713536
0
LINE
8
Layer 1
10
45.594795
20
250.713536
11
46.080494
21
250.811409
0
LINE
8
Layer 1
10
46.080494
20
250.811409
11
46.477428
21
251.078403
0
LINE
8
Layer 1
10
46.477428
20
251.078403
11
46.745543
21
251.474579
0
LINE
8
Layer 1
10
46.745543
20
251.474579
11
46.844790
21
251.960000
0
LINE
8
Layer 1
10
46.844790
20
251.960000
11
46.745543
21
252.445421
0
LINE
8
Layer 1
10
46.745543
20
252.445421
11
46.477428
21
252.841597
0
LINE
8
Layer 1
10
46.477428
20
252.841597
11
46.080494
21
253.108591
0
LINE
8
Layer 1
10
46.080494
20
253.108591
11
45.594795
21
253.206464
0
LINE
8
Layer 1
10
45.594795
20
253.206464
11
45.109096
21
253.108591
0
LINE
8
Layer 1
10
45.109096
20
253.108591
11
44.712162
21
252.841597
0
LINE
8
Layer 1
10
44.712162
20
252.841597
11
44.444047
21
252.445421
0
LINE
8
Layer 1
10
44.444047
20
252.445421
11
44.344800
21
251.960000
0
LINE
8
Layer 1
10
44.344800
20
251.960000
11
44.344800
21
251.960000
0
LINE
8
Layer 1
10
136.525000
20
174.073000
11
156.257800
21
166.888620
0
LINE
8
Layer 1
10
156.257800
20
166.888620
11
157.164566
21
166.690044
0
LINE
8
Layer 1
10
157.164566
20
166.690044
11
158.066394
21
166.672085
0
LINE
8
Layer 1
10
158.066394
20
166.672085
11
158.940902
21
166.823832
0
LINE
8
Layer 1
10
158.940902
20
166.823832
11
159.765705
21
167.134374
0
LINE
8
Layer 1
10
159.765705
20
167.134374
11
160.518422
21
167.592800
0
LINE
8
Layer 1
10
160.518422
20
167.592800
11
161.176669
21
168.188201
0
LINE
8
Layer 1
10
161.176669
20
168.188201
11
161.718062
21
168.909664
0
LINE
8
Layer 1
10
161.718062
20
168.909664
11
162.120220
21
169.746280
0
LINE
8
Layer 1
10
162.120220
20
169.746280
11
170.751020
21
193.390580
0
LINE
8
Layer 1
10
170.751020
20
193.390580
11
171.284874
21
195.368450
0
LINE
8
Layer 1
10
171.284874
20
195.368450
11
171.464627
21
197.409200
0
LINE
8
Layer 1
10
171.464627
20
197.409200
11
171.461981
21
256.218700
0
LINE
8
Layer 1
10
171.461981
20
256.218700
11
171.153806
21
257.134825
0
LINE
8
Layer 1
10
171.153806
20
257.134825
11
170.707249
21
257.969525
0
LINE
8
Layer 1
10
170.707249
20
257.969525
11
170.137310
21
258.710858
0
LINE
8
Layer 1
10
170.137310
20
258.710858
11
169.458988
21
259.346875
0
LINE
8
Layer 1
10
169.458988
20
259.346875
11
168.687283
21
259.865634
0
LINE
8
Layer 1
10
168.687283
20
259.865634
11
167.837194
21
260.255188
0
LINE
8
Layer 1
10
167.837194
20
260.255188
11
166.923720
21
260.503591
0
LINE
8
Layer 1
10
166.923720
20
260.503591
11
165.961861
21
260.598900
0
LINE
8
Layer 1
10
165.961861
20
260.598900
11
141.477000
21
260.599000
0
LINE
8
Layer 1
10
141.477000
20
260.599000
11
140.378620
21
260.713956
0
LINE
8
Layer 1
10
140.378620
20
260.713956
11
139.338482
21
261.049255
0
LINE
8
Layer 1
10
139.338482
20
261.049255
11
138.389115
21
261.590564
0
LINE
8
Layer 1
10
138.389115
20
261.590564
11
137.563050
21
262.323550
0
LINE
8
Layer 1
10
137.563050
20
262.323550
11
136.193096
21
263.656654
0
LINE
8
Layer 1
10
136.193096
20
263.656654
11
134.664834
21
264.790834
0
LINE
8
Layer 1
10
134.664834
20
264.790834
11
132.999658
21
265.712319
0
LINE
8
Layer 1
10
132.999658
20
265.712319
11
131.218960
21
266.407340
0
LINE
8
Layer 1
10
131.218960
20
266.407340
11
126.052024
21
267.728585
0
LINE
8
Layer 1
10
126.052024
20
267.728585
11
120.846112
21
268.862949
0
LINE
8
Layer 1
10
120.846112
20
268.862949
11
115.606301
21
269.809795
0
LINE
8
Layer 1
10
115.606301
20
269.809795
11
110.337665
21
270.568484
0
LINE
8
Layer 1
10
110.337665
20
270.568484
11
105.045277
21
271.138377
0
LINE
8
Layer 1
10
105.045277
20
271.138377
11
99.734214
21
271.518836
0
LINE
8
Layer 1
10
99.734214
20
271.518836
11
94.409550
21
271.709224
0
LINE
8
Layer 1
10
94.409550
20
271.709224
11
89.076360
21
271.708900
0
LINE
8
Layer 1
10
89.076360
20
271.708900
11
82.660324
21
271.469255
0
LINE
8
Layer 1
10
82.660324
20
271.469255
11
76.319464
21
270.700925
0
LINE
8
Layer 1
10
76.319464
20
270.700925
11
70.084983
21
269.414508
0
LINE
8
Layer 1
10
70.084983
20
269.414508
11
63.988084
21
267.620605
0
LINE
8
Layer 1
10
63.988084
20
267.620605
11
58.059969
21
265.329813
0
LINE
8
Layer 1
10
58.059969
20
265.329813
11
52.331841
21
262.552732
0
LINE
8
Layer 1
10
52.331841
20
262.552732
11
46.834904
21
259.299961
0
LINE
8
Layer 1
10
46.834904
20
259.299961
11
41.600360
21
255.582100
0
LINE
8
Layer 1
10
41.600360
20
255.582100
11
40.188680
21
254.366080
0
LINE
8
Layer 1
10
40.188680
20
254.366080
11
38.036756
21
251.969882
0
LINE
8
Layer 1
10
38.036756
20
251.969882
11
36.273590
21
249.274740
0
LINE
8
Layer 1
10
36.273590
20
249.274740
11
35.522518
21
247.679802
0
LINE
8
Layer 1
10
35.522518
20
247.679802
11
34.979568
21
246.009806
0
LINE
8
Layer 1
10
34.979568
20
246.009806
11
34.649939
21
244.284980
0
LINE
8
Layer 1
10
34.649939
20
244.284980
11
34.538830
21
242.525550
0
LINE
8
Layer 1
10
34.538830
20
242.525550
11
34.534597
21
182.314950
0
LINE
8
Layer 1
10
34.534597
20
182.314950
11
34.629156
21
181.353984
0
LINE
8
Layer 1
10
34.629156
20
181.353984
11
34.900960
21
180.455950
0
LINE
8
Layer 1
10
34.900960
20
180.455950
11
35.331997
21
179.639510
0
LINE
8
Layer 1
10
35.331997
20
179.639510
11
35.904254
21
178.923327
0
LINE
8
Layer 1
10
35.904254
20
178.923327
11
36.599719
21
178.326062
0
LINE
8
Layer 1
10
36.599719
20
178.326062
11
37.400379
21
177.866378
0
LINE
8
Layer 1
10
37.400379
20
177.866378
11
38.288222
21
177.562937
0
LINE
8
Layer 1
10
38.288222
20
177.562937
11
39.245237
21
177.434400
0
LINE
8
Layer 1
10
39.245237
20
177.434400
11
117.483237
21
177.430960
0
LINE
8
Layer 1
10
117.483237
20
177.430960
11
136.525000
21
174.073000
 0 
ENDSEC
 0 
EOF