999
"DXF R12 Output" (www.mydxf.blogspot.com)
 0 
SECTION
 2 
HEADER
 9 
$ACADVER
 1 
AC1009
 9 
$EXTMIN
 10 
 0 
 20 
 0 
 9 
$EXTMAX
 10 
 8.5 
 20 
 11 
 0 
ENDSEC
 0 
SECTION
 2 
ENTITIES
0
LINE
8
Layer 1
10
0.793749
20
297.794000
11
-0.793749
21
296.206000
0
LINE
8
Layer 1
10
0.000000
20
298.323000
11
0.000000
21
295.677000
0
LINE
8
Layer 1
10
2.116660
20
295.942000
11
1.058330
21
294.883670
0
LINE
8
Layer 1
10
1.587500
20
296.471000
11
0.529170
21
295.412670
0
LINE
8
Layer 1
10
1.058330
20
297.000000
11
0.000000
21
295.941670
0
LINE
8
Layer 1
10
34.688500
20
248.282000
11
34.855968
21
247.657000
0
LINE
8
Layer 1
10
34.855968
20
247.657000
11
35.313500
21
247.199468
0
LINE
8
Layer 1
10
35.313500
20
247.199468
11
35.938500
21
247.032000
0
LINE
8
Layer 1
10
35.938500
20
247.032000
11
36.563500
21
247.199468
0
LINE
8
Layer 1
10
36.563500
20
247.199468
11
37.021032
21
247.657000
0
LINE
8
Layer 1
10
37.021032
20
247.657000
11
37.188500
21
248.282000
0
LINE
8
Layer 1
10
37.188500
20
248.282000
11
37.021032
21
248.907000
0
LINE
8
Layer 1
10
37.021032
20
248.907000
11
36.563500
21
249.364532
0
LINE
8
Layer 1
10
36.563500
20
249.364532
11
35.938500
21
249.532000
0
LINE
8
Layer 1
10
35.938500
20
249.532000
11
35.313500
21
249.364532
0
LINE
8
Layer 1
10
35.313500
20
249.364532
11
34.855968
21
248.907000
0
LINE
8
Layer 1
10
34.855968
20
248.907000
11
34.688500
21
248.282000
0
LINE
8
Layer 1
10
34.688500
20
248.282000
11
34.688500
21
248.282000
0
LINE
8
Layer 1
10
149.383000
20
264.188000
11
148.013050
21
265.521102
0
LINE
8
Layer 1
10
148.013050
20
265.521102
11
146.484794
21
266.655281
0
LINE
8
Layer 1
10
146.484794
20
266.655281
11
144.819623
21
267.576768
0
LINE
8
Layer 1
10
144.819623
20
267.576768
11
143.038930
21
268.271790
0
LINE
8
Layer 1
10
143.038930
20
268.271790
11
137.934287
21
269.954078
0
LINE
8
Layer 1
10
137.934287
20
269.954078
11
132.766926
21
271.402539
0
LINE
8
Layer 1
10
132.766926
20
271.402539
11
127.544895
21
272.615868
0
LINE
8
Layer 1
10
127.544895
20
272.615868
11
122.276240
21
273.592758
0
LINE
8
Layer 1
10
122.276240
20
273.592758
11
116.969008
21
274.331904
0
LINE
8
Layer 1
10
116.969008
20
274.331904
11
111.631248
21
274.832000
0
LINE
8
Layer 1
10
111.631248
20
274.832000
11
106.271006
21
275.091741
0
LINE
8
Layer 1
10
106.271006
20
275.091741
11
100.896330
21
275.109820
0
LINE
8
Layer 1
10
100.896330
20
275.109820
11
92.023482
21
274.340557
0
LINE
8
Layer 1
10
92.023482
20
274.340557
11
83.249918
21
272.990135
0
LINE
8
Layer 1
10
83.249918
20
272.990135
11
74.603257
21
271.067635
0
LINE
8
Layer 1
10
74.603257
20
271.067635
11
66.111117
21
268.582139
0
LINE
8
Layer 1
10
66.111117
20
268.582139
11
57.801115
21
265.542728
0
LINE
8
Layer 1
10
57.801115
20
265.542728
11
49.700872
21
261.958483
0
LINE
8
Layer 1
10
49.700872
20
261.958483
11
41.838004
21
257.838487
0
LINE
8
Layer 1
10
41.838004
20
257.838487
11
34.240130
21
253.191820
0
LINE
8
Layer 1
10
34.240130
20
253.191820
11
32.758287
21
252.081084
0
LINE
8
Layer 1
10
32.758287
20
252.081084
11
31.437281
21
250.812614
0
LINE
8
Layer 1
10
31.437281
20
250.812614
11
30.286828
21
249.403991
0
LINE
8
Layer 1
10
30.286828
20
249.403991
11
29.316642
21
247.872796
0
LINE
8
Layer 1
10
29.316642
20
247.872796
11
28.536441
21
246.236610
0
LINE
8
Layer 1
10
28.536441
20
246.236610
11
27.955939
21
244.513015
0
LINE
8
Layer 1
10
27.955939
20
244.513015
11
27.584854
21
242.719591
0
LINE
8
Layer 1
10
27.584854
20
242.719591
11
27.432900
21
240.873920
0
LINE
8
Layer 1
10
27.432900
20
240.873920
11
27.429011
21
184.333720
0
LINE
8
Layer 1
10
27.429011
20
184.333720
11
27.496564
21
183.356024
0
LINE
8
Layer 1
10
27.496564
20
183.356024
11
27.754789
21
182.420536
0
LINE
8
Layer 1
10
27.754789
20
182.420536
11
28.193082
21
181.554675
0
LINE
8
Layer 1
10
28.193082
20
181.554675
11
28.800843
21
180.785858
0
LINE
8
Layer 1
10
28.800843
20
180.785858
11
29.550010
21
180.154033
0
LINE
8
Layer 1
10
29.550010
20
180.154033
11
30.401544
21
179.688515
0
LINE
8
Layer 1
10
30.401544
20
179.688515
11
31.328377
21
179.400769
0
LINE
8
Layer 1
10
31.328377
20
179.400769
11
32.303441
21
179.302260
0
LINE
8
Layer 1
10
32.303441
20
179.302260
11
129.303341
21
179.295566
0
LINE
8
Layer 1
10
129.303341
20
179.295566
11
148.344141
21
175.937616
0
LINE
8
Layer 1
10
148.344141
20
175.937616
11
168.076941
21
168.753246
0
LINE
8
Layer 1
10
168.076941
20
168.753246
11
168.983705
21
168.554672
0
LINE
8
Layer 1
10
168.983705
20
168.554672
11
169.885532
21
168.536714
0
LINE
8
Layer 1
10
169.885532
20
168.536714
11
170.760038
21
168.688462
0
LINE
8
Layer 1
10
170.760038
20
168.688462
11
171.584840
21
168.999004
0
LINE
8
Layer 1
10
171.584840
20
168.999004
11
172.337555
21
169.457430
0
LINE
8
Layer 1
10
172.337555
20
169.457430
11
172.995801
21
170.052830
0
LINE
8
Layer 1
10
172.995801
20
170.052830
11
173.537193
21
170.774292
0
LINE
8
Layer 1
10
173.537193
20
170.774292
11
173.939351
21
171.610906
0
LINE
8
Layer 1
10
173.939351
20
171.610906
11
182.570161
21
195.255206
0
LINE
8
Layer 1
10
182.570161
20
195.255206
11
183.104012
21
197.233077
0
LINE
8
Layer 1
10
183.104012
20
197.233077
11
183.283763
21
199.273826
0
LINE
8
Layer 1
10
183.283763
20
199.273826
11
183.283620
21
203.461206
0
LINE
8
Layer 1
10
183.283620
20
203.461206
11
185.389477
21
204.997290
0
LINE
8
Layer 1
10
185.389477
20
204.997290
11
187.262021
21
206.765526
0
LINE
8
Layer 1
10
187.262021
20
206.765526
11
188.886620
21
208.739255
0
LINE
8
Layer 1
10
188.886620
20
208.739255
11
190.248638
21
210.891818
0
LINE
8
Layer 1
10
190.248638
20
210.891818
11
191.333442
21
213.196558
0
LINE
8
Layer 1
10
191.333442
20
213.196558
11
192.126398
21
215.626815
0
LINE
8
Layer 1
10
192.126398
20
215.626815
11
192.612871
21
218.155930
0
LINE
8
Layer 1
10
192.612871
20
218.155930
11
192.778227
21
220.757247
0
LINE
8
Layer 1
10
192.778227
20
220.757247
11
192.612711
21
223.358553
0
LINE
8
Layer 1
10
192.612711
20
223.358553
11
192.126084
21
225.887639
0
LINE
8
Layer 1
10
192.126084
20
225.887639
11
191.332980
21
228.317847
0
LINE
8
Layer 1
10
191.332980
20
228.317847
11
190.248035
21
230.622520
0
LINE
8
Layer 1
10
190.248035
20
230.622520
11
188.885885
21
232.775000
0
LINE
8
Layer 1
10
188.885885
20
232.775000
11
187.261165
21
234.748629
0
LINE
8
Layer 1
10
187.261165
20
234.748629
11
185.388512
21
236.516751
0
LINE
8
Layer 1
10
185.388512
20
236.516751
11
183.282561
21
238.052706
0
LINE
8
Layer 1
10
183.282561
20
238.052706
11
183.281768
21
258.083306
0
LINE
8
Layer 1
10
183.281768
20
258.083306
11
182.973591
21
258.999433
0
LINE
8
Layer 1
10
182.973591
20
258.999433
11
182.527033
21
259.834136
0
LINE
8
Layer 1
10
182.527033
20
259.834136
11
181.957091
21
260.575469
0
LINE
8
Layer 1
10
181.957091
20
260.575469
11
181.278767
21
261.211488
0
LINE
8
Layer 1
10
181.278767
20
261.211488
11
180.507059
21
261.730246
0
LINE
8
Layer 1
10
180.507059
20
261.730246
11
179.656966
21
262.119799
0
LINE
8
Layer 1
10
179.656966
20
262.119799
11
178.743489
21
262.368200
0
LINE
8
Layer 1
10
178.743489
20
262.368200
11
177.781628
21
262.463506
0
LINE
8
Layer 1
10
177.781628
20
262.463506
11
153.297000
21
262.464000
0
LINE
8
Layer 1
10
153.297000
20
262.464000
11
152.198616
21
262.578950
0
LINE
8
Layer 1
10
152.198616
20
262.578950
11
151.158472
21
262.914246
0
LINE
8
Layer 1
10
151.158472
20
262.914246
11
150.209100
21
263.455554
0
LINE
8
Layer 1
10
150.209100
20
263.455554
11
149.383030
21
264.188540
0
LINE
8
Layer 1
10
149.383030
20
264.188540
11
149.383000
21
264.188000
0
LINE
8
Layer 1
10
170.178000
20
173.665000
11
170.345468
21
173.040000
0
LINE
8
Layer 1
10
170.345468
20
173.040000
11
170.803000
21
172.582468
0
LINE
8
Layer 1
10
170.803000
20
172.582468
11
171.428000
21
172.415000
0
LINE
8
Layer 1
10
171.428000
20
172.415000
11
172.053000
21
172.582468
0
LINE
8
Layer 1
10
172.053000
20
172.582468
11
172.510532
21
173.040000
0
LINE
8
Layer 1
10
172.510532
20
173.040000
11
172.678000
21
173.665000
0
LINE
8
Layer 1
10
172.678000
20
173.665000
11
172.510532
21
174.290000
0
LINE
8
Layer 1
10
172.510532
20
174.290000
11
172.053000
21
174.747532
0
LINE
8
Layer 1
10
172.053000
20
174.747532
11
171.428000
21
174.915000
0
LINE
8
Layer 1
10
171.428000
20
174.915000
11
170.803000
21
174.747532
0
LINE
8
Layer 1
10
170.803000
20
174.747532
11
170.345468
21
174.290000
0
LINE
8
Layer 1
10
170.345468
20
174.290000
11
170.178000
21
173.665000
0
LINE
8
Layer 1
10
170.178000
20
173.665000
11
170.178000
21
173.665000
0
LINE
8
Layer 1
10
29.332600
20
184.334000
11
29.500068
21
183.709000
0
LINE
8
Layer 1
10
29.500068
20
183.709000
11
29.957600
21
183.251468
0
LINE
8
Layer 1
10
29.957600
20
183.251468
11
30.582600
21
183.084000
0
LINE
8
Layer 1
10
30.582600
20
183.084000
11
31.207600
21
183.251468
0
LINE
8
Layer 1
10
31.207600
20
183.251468
11
31.665132
21
183.709000
0
LINE
8
Layer 1
10
31.665132
20
183.709000
11
31.832600
21
184.334000
0
LINE
8
Layer 1
10
31.832600
20
184.334000
11
31.665132
21
184.959000
0
LINE
8
Layer 1
10
31.665132
20
184.959000
11
31.207600
21
185.416532
0
LINE
8
Layer 1
10
31.207600
20
185.416532
11
30.582600
21
185.584000
0
LINE
8
Layer 1
10
30.582600
20
185.584000
11
29.957600
21
185.416532
0
LINE
8
Layer 1
10
29.957600
20
185.416532
11
29.500068
21
184.959000
0
LINE
8
Layer 1
10
29.500068
20
184.959000
11
29.332600
21
184.334000
0
LINE
8
Layer 1
10
29.332600
20
184.334000
11
29.332600
21
184.334000
0
LINE
8
Layer 1
10
178.495000
20
257.839000
11
178.662468
21
257.214000
0
LINE
8
Layer 1
10
178.662468
20
257.214000
11
179.120000
21
256.756468
0
LINE
8
Layer 1
10
179.120000
20
256.756468
11
179.745000
21
256.589000
0
LINE
8
Layer 1
10
179.745000
20
256.589000
11
180.370000
21
256.756468
0
LINE
8
Layer 1
10
180.370000
20
256.756468
11
180.827532
21
257.214000
0
LINE
8
Layer 1
10
180.827532
20
257.214000
11
180.995000
21
257.839000
0
LINE
8
Layer 1
10
180.995000
20
257.839000
11
180.827532
21
258.464000
0
LINE
8
Layer 1
10
180.827532
20
258.464000
11
180.370000
21
258.921532
0
LINE
8
Layer 1
10
180.370000
20
258.921532
11
179.745000
21
259.089000
0
LINE
8
Layer 1
10
179.745000
20
259.089000
11
179.120000
21
258.921532
0
LINE
8
Layer 1
10
179.120000
20
258.921532
11
178.662468
21
258.464000
0
LINE
8
Layer 1
10
178.662468
20
258.464000
11
178.495000
21
257.839000
0
LINE
8
Layer 1
10
178.495000
20
257.839000
11
178.495000
21
257.839000
0
LINE
8
Layer 1
10
109.807000
20
270.769000
11
109.974468
21
270.144000
0
LINE
8
Layer 1
10
109.974468
20
270.144000
11
110.432000
21
269.686468
0
LINE
8
Layer 1
10
110.432000
20
269.686468
11
111.057000
21
269.519000
0
LINE
8
Layer 1
10
111.057000
20
269.519000
11
111.682000
21
269.686468
0
LINE
8
Layer 1
10
111.682000
20
269.686468
11
112.139532
21
270.144000
0
LINE
8
Layer 1
10
112.139532
20
270.144000
11
112.307000
21
270.769000
0
LINE
8
Layer 1
10
112.307000
20
270.769000
11
112.139532
21
271.394000
0
LINE
8
Layer 1
10
112.139532
20
271.394000
11
111.682000
21
271.851532
0
LINE
8
Layer 1
10
111.682000
20
271.851532
11
111.057000
21
272.019000
0
LINE
8
Layer 1
10
111.057000
20
272.019000
11
110.432000
21
271.851532
0
LINE
8
Layer 1
10
110.432000
20
271.851532
11
109.974468
21
271.394000
0
LINE
8
Layer 1
10
109.974468
20
271.394000
11
109.807000
21
270.769000
0
LINE
8
Layer 1
10
109.807000
20
270.769000
11
109.807000
21
270.769000
 0 
ENDSEC
 0 
EOF