<?xml version="1.0" encoding="UTF-8" standalone="no"?>
<svg
   viewBox="0 0 793.7007874015749 1122.5196850393702"
   width="793.7007874015749"
   height="1122.5196850393702"
   version="1.1"
   id="svg32"
   sodipodi:docname="xi-6-bottom-no-pointing.svg"
   inkscape:version="1.2.2 (732a01da63, 2022-12-09)"
   xmlns:inkscape="http://www.inkscape.org/namespaces/inkscape"
   xmlns:sodipodi="http://sodipodi.sourceforge.net/DTD/sodipodi-0.dtd"
   xmlns="http://www.w3.org/2000/svg"
   xmlns:svg="http://www.w3.org/2000/svg">
  <sodipodi:namedview
     id="namedview34"
     pagecolor="#ffffff"
     bordercolor="#000000"
     borderopacity="0.25"
     inkscape:showpageshadow="2"
     inkscape:pageopacity="0.0"
     inkscape:pagecheckerboard="0"
     inkscape:deskcolor="#d1d1d1"
     showgrid="false"
     inkscape:zoom="0.91490603"
     inkscape:cx="396.76206"
     inkscape:cy="561.80633"
     inkscape:window-width="3440"
     inkscape:window-height="1369"
     inkscape:window-x="-8"
     inkscape:window-y="-8"
     inkscape:window-maximized="1"
     inkscape:current-layer="g30" />
  <desc
     id="desc2">xi-6-bottom-no-pointing.dxf - scale = 1.000000, origin = (0.000000, 0.000000), method = manual</desc>
  <defs
     id="defs16">
    <marker
       id="DistanceX"
       orient="auto"
       refX="0.0"
       refY="0.0"
       style="overflow:visible">
      <path
         d="M 3,-3 L -3,3 M 0,-5 L  0,5"
         style="stroke:#000000; stroke-width:0.5"
         id="path4" />
    </marker>
    <pattern
       id="Hatch"
       patternUnits="userSpaceOnUse"
       width="8"
       height="8"
       x="0"
       y="0">
      <path
         d="M8 4 l-4,4"
         stroke="#000000"
         stroke-width="0.25"
         linecap="square"
         id="path7" />
      <path
         d="M6 2 l-4,4"
         stroke="#000000"
         stroke-width="0.25"
         linecap="square"
         id="path9" />
      <path
         d="M4 0 l-4,4"
         stroke="#000000"
         stroke-width="0.25"
         linecap="square"
         id="path11" />
    </pattern>
    <symbol
       id="*MODEL_SPACE" />
    <symbol
       id="*PAPER_SPACE" />
  </defs>
  <g
     inkscape:groupmode="layer"
     inkscape:label="0"
     id="g30">
    <g
       id="g146"
       transform="rotate(180,872.00698,437.68229)">
      <path
         d="m 1072.6703,718.60913 a 4.7244095,4.7244095 0 0 0 -9.4488,0 4.7244095,4.7244095 0 0 0 9.4488,0 z"
         style="fill:none;stroke:#000000"
         id="path18" />
      <path
         d="m 1636.436,440.79499 a 4.7244095,4.7244095 0 0 0 -9.4488,0 4.7244095,4.7244095 0 0 0 9.4488,0 z"
         style="fill:none;stroke:#000000"
         id="path20" />
      <path
         d="m 1332.2819,767.48076 a 4.7244095,4.7244095 0 0 0 -9.4488,0 4.7244095,4.7244095 0 0 0 9.4488,0 z"
         style="fill:none;stroke:#000000"
         id="path22" />
      <path
         d="m 1104.1067,400.47118 a 4.7244095,4.7244095 0 0 0 -9.4488,0 4.7244095,4.7244095 0 0 0 9.4488,0 z"
         style="fill:none;stroke:#000000"
         id="path24" />
      <path
         d="m 1616.193,682.48875 a 4.7244095,4.7244095 0 0 0 -9.4488,0 4.7244095,4.7244095 0 0 0 9.4488,0 z"
         style="fill:none;stroke:#000000"
         id="path26" />
      <path
         d="m 1182.7002,742.60742 a 54.115649,54.115649 0 0 0 23.9776,15.43482 450.56477,450.56477 0 0 0 159.2793,25.84457 507.45775,507.45775 0 0 0 251.9293,-82.83983 57.168836,57.168836 0 0 0 25.7281,-46.55598 l 0.015,-213.69563 a 18.433556,18.433556 0 0 0 -18.423,-19.01658 l -366.6142,-0.0253 -71.9652,-12.69148 -74.5808,-27.15357 a 17.755169,17.755169 0 0 0 -22.1571,10.80063 l -32.6205,89.36426 a 44.106901,44.106901 0 0 0 -2.6971,15.18852 l 0.01,222.27249 a 21.742718,21.742718 0 0 0 20.788,16.55509 h 92.5403 a 20.04585,20.04585 0 0 1 14.793,6.51797 z"
         style="fill:none;stroke:#000000"
         id="path28" />
    </g>
  </g>
</svg>
