999
"DXF R12 Output" (www.mydxf.blogspot.com)
 0 
SECTION
 2 
HEADER
 9 
$ACADVER
 1 
AC1009
 9 
$EXTMIN
 10 
 0 
 20 
 0 
 9 
$EXTMAX
 10 
 8.5 
 20 
 11 
 0 
ENDSEC
 0 
SECTION
 2 
ENTITIES
0
LINE
8
Layer 1
10
0.793749
20
297.794000
11
-0.793749
21
296.206000
0
LINE
8
Layer 1
10
0.000000
20
298.323000
11
0.000000
21
295.677000
0
LINE
8
Layer 1
10
2.116660
20
295.942000
11
1.058330
21
294.883670
0
LINE
8
Layer 1
10
1.587500
20
296.471000
11
0.529170
21
295.412670
0
LINE
8
Layer 1
10
1.058330
20
297.000000
11
0.000000
21
295.941670
0
LINE
8
Layer 1
10
177.626000
20
255.525000
11
177.725247
21
255.039579
0
LINE
8
Layer 1
10
177.725247
20
255.039579
11
177.993362
21
254.643403
0
LINE
8
Layer 1
10
177.993362
20
254.643403
11
178.390296
21
254.376409
0
LINE
8
Layer 1
10
178.390296
20
254.376409
11
178.875995
21
254.278536
0
LINE
8
Layer 1
10
178.875995
20
254.278536
11
179.361694
21
254.376409
0
LINE
8
Layer 1
10
179.361694
20
254.376409
11
179.758628
21
254.643403
0
LINE
8
Layer 1
10
179.758628
20
254.643403
11
180.026743
21
255.039579
0
LINE
8
Layer 1
10
180.026743
20
255.039579
11
180.125990
21
255.525000
0
LINE
8
Layer 1
10
180.125990
20
255.525000
11
180.026743
21
256.010421
0
LINE
8
Layer 1
10
180.026743
20
256.010421
11
179.758628
21
256.406597
0
LINE
8
Layer 1
10
179.758628
20
256.406597
11
179.361694
21
256.673591
0
LINE
8
Layer 1
10
179.361694
20
256.673591
11
178.875995
21
256.771464
0
LINE
8
Layer 1
10
178.875995
20
256.771464
11
178.390296
21
256.673591
0
LINE
8
Layer 1
10
178.390296
20
256.673591
11
177.993362
21
256.406597
0
LINE
8
Layer 1
10
177.993362
20
256.406597
11
177.725247
21
256.010421
0
LINE
8
Layer 1
10
177.725247
20
256.010421
11
177.626000
21
255.525000
0
LINE
8
Layer 1
10
177.626000
20
255.525000
11
177.626000
21
255.525000
0
LINE
8
Layer 1
10
28.462900
20
182.020000
11
28.562147
21
181.534579
0
LINE
8
Layer 1
10
28.562147
20
181.534579
11
28.830262
21
181.138403
0
LINE
8
Layer 1
10
28.830262
20
181.138403
11
29.227196
21
180.871409
0
LINE
8
Layer 1
10
29.227196
20
180.871409
11
29.712895
21
180.773536
0
LINE
8
Layer 1
10
29.712895
20
180.773536
11
30.198594
21
180.871409
0
LINE
8
Layer 1
10
30.198594
20
180.871409
11
30.595528
21
181.138403
0
LINE
8
Layer 1
10
30.595528
20
181.138403
11
30.863643
21
181.534579
0
LINE
8
Layer 1
10
30.863643
20
181.534579
11
30.962890
21
182.020000
0
LINE
8
Layer 1
10
30.962890
20
182.020000
11
30.863643
21
182.505421
0
LINE
8
Layer 1
10
30.863643
20
182.505421
11
30.595528
21
182.901597
0
LINE
8
Layer 1
10
30.595528
20
182.901597
11
30.198594
21
183.168591
0
LINE
8
Layer 1
10
30.198594
20
183.168591
11
29.712895
21
183.266464
0
LINE
8
Layer 1
10
29.712895
20
183.266464
11
29.227196
21
183.168591
0
LINE
8
Layer 1
10
29.227196
20
183.168591
11
28.830262
21
182.901597
0
LINE
8
Layer 1
10
28.830262
20
182.901597
11
28.562147
21
182.505421
0
LINE
8
Layer 1
10
28.562147
20
182.505421
11
28.462900
21
182.020000
0
LINE
8
Layer 1
10
28.462900
20
182.020000
11
28.462900
21
182.020000
0
LINE
8
Layer 1
10
108.937000
20
268.455000
11
109.036247
21
267.969579
0
LINE
8
Layer 1
10
109.036247
20
267.969579
11
109.304362
21
267.573403
0
LINE
8
Layer 1
10
109.304362
20
267.573403
11
109.701296
21
267.306409
0
LINE
8
Layer 1
10
109.701296
20
267.306409
11
110.186995
21
267.208536
0
LINE
8
Layer 1
10
110.186995
20
267.208536
11
110.672694
21
267.306409
0
LINE
8
Layer 1
10
110.672694
20
267.306409
11
111.069628
21
267.573403
0
LINE
8
Layer 1
10
111.069628
20
267.573403
11
111.337743
21
267.969579
0
LINE
8
Layer 1
10
111.337743
20
267.969579
11
111.436990
21
268.455000
0
LINE
8
Layer 1
10
111.436990
20
268.455000
11
111.337743
21
268.940421
0
LINE
8
Layer 1
10
111.337743
20
268.940421
11
111.069628
21
269.336597
0
LINE
8
Layer 1
10
111.069628
20
269.336597
11
110.672694
21
269.603591
0
LINE
8
Layer 1
10
110.672694
20
269.603591
11
110.186995
21
269.701464
0
LINE
8
Layer 1
10
110.186995
20
269.701464
11
109.701296
21
269.603591
0
LINE
8
Layer 1
10
109.701296
20
269.603591
11
109.304362
21
269.336597
0
LINE
8
Layer 1
10
109.304362
20
269.336597
11
109.036247
21
268.940421
0
LINE
8
Layer 1
10
109.036247
20
268.940421
11
108.937000
21
268.455000
0
LINE
8
Layer 1
10
108.937000
20
268.455000
11
108.937000
21
268.455000
0
LINE
8
Layer 1
10
169.308000
20
171.351000
11
169.407247
21
170.865579
0
LINE
8
Layer 1
10
169.407247
20
170.865579
11
169.675362
21
170.469403
0
LINE
8
Layer 1
10
169.675362
20
170.469403
11
170.072296
21
170.202409
0
LINE
8
Layer 1
10
170.072296
20
170.202409
11
170.557995
21
170.104536
0
LINE
8
Layer 1
10
170.557995
20
170.104536
11
171.043694
21
170.202409
0
LINE
8
Layer 1
10
171.043694
20
170.202409
11
171.440628
21
170.469403
0
LINE
8
Layer 1
10
171.440628
20
170.469403
11
171.708743
21
170.865579
0
LINE
8
Layer 1
10
171.708743
20
170.865579
11
171.807990
21
171.351000
0
LINE
8
Layer 1
10
171.807990
20
171.351000
11
171.708743
21
171.836421
0
LINE
8
Layer 1
10
171.708743
20
171.836421
11
171.440628
21
172.232597
0
LINE
8
Layer 1
10
171.440628
20
172.232597
11
171.043694
21
172.499591
0
LINE
8
Layer 1
10
171.043694
20
172.499591
11
170.557995
21
172.597464
0
LINE
8
Layer 1
10
170.557995
20
172.597464
11
170.072296
21
172.499591
0
LINE
8
Layer 1
10
170.072296
20
172.499591
11
169.675362
21
172.232597
0
LINE
8
Layer 1
10
169.675362
20
172.232597
11
169.407247
21
171.836421
0
LINE
8
Layer 1
10
169.407247
20
171.836421
11
169.308000
21
171.351000
0
LINE
8
Layer 1
10
169.308000
20
171.351000
11
169.308000
21
171.351000
0
LINE
8
Layer 1
10
33.818800
20
245.968000
11
33.918047
21
245.482579
0
LINE
8
Layer 1
10
33.918047
20
245.482579
11
34.186162
21
245.086403
0
LINE
8
Layer 1
10
34.186162
20
245.086403
11
34.583096
21
244.819409
0
LINE
8
Layer 1
10
34.583096
20
244.819409
11
35.068795
21
244.721536
0
LINE
8
Layer 1
10
35.068795
20
244.721536
11
35.554494
21
244.819409
0
LINE
8
Layer 1
10
35.554494
20
244.819409
11
35.951428
21
245.086403
0
LINE
8
Layer 1
10
35.951428
20
245.086403
11
36.219543
21
245.482579
0
LINE
8
Layer 1
10
36.219543
20
245.482579
11
36.318790
21
245.968000
0
LINE
8
Layer 1
10
36.318790
20
245.968000
11
36.219543
21
246.453421
0
LINE
8
Layer 1
10
36.219543
20
246.453421
11
35.951428
21
246.849597
0
LINE
8
Layer 1
10
35.951428
20
246.849597
11
35.554494
21
247.116591
0
LINE
8
Layer 1
10
35.554494
20
247.116591
11
35.068795
21
247.214464
0
LINE
8
Layer 1
10
35.068795
20
247.214464
11
34.583096
21
247.116591
0
LINE
8
Layer 1
10
34.583096
20
247.116591
11
34.186162
21
246.849597
0
LINE
8
Layer 1
10
34.186162
20
246.849597
11
33.918047
21
246.453421
0
LINE
8
Layer 1
10
33.918047
20
246.453421
11
33.818800
21
245.968000
0
LINE
8
Layer 1
10
33.818800
20
245.968000
11
33.818800
21
245.968000
0
LINE
8
Layer 1
10
148.514000
20
261.874000
11
147.144050
21
263.207102
0
LINE
8
Layer 1
10
147.144050
20
263.207102
11
145.615794
21
264.341281
0
LINE
8
Layer 1
10
145.615794
20
264.341281
11
143.950623
21
265.262768
0
LINE
8
Layer 1
10
143.950623
20
265.262768
11
142.169930
21
265.957790
0
LINE
8
Layer 1
10
142.169930
20
265.957790
11
137.065287
21
267.640078
0
LINE
8
Layer 1
10
137.065287
20
267.640078
11
131.897926
21
269.088539
0
LINE
8
Layer 1
10
131.897926
20
269.088539
11
126.675895
21
270.301868
0
LINE
8
Layer 1
10
126.675895
20
270.301868
11
121.407240
21
271.278758
0
LINE
8
Layer 1
10
121.407240
20
271.278758
11
116.100008
21
272.017904
0
LINE
8
Layer 1
10
116.100008
20
272.017904
11
110.762248
21
272.518000
0
LINE
8
Layer 1
10
110.762248
20
272.518000
11
105.402006
21
272.777741
0
LINE
8
Layer 1
10
105.402006
20
272.777741
11
100.027330
21
272.795820
0
LINE
8
Layer 1
10
100.027330
20
272.795820
11
91.154482
21
272.026557
0
LINE
8
Layer 1
10
91.154482
20
272.026557
11
82.380918
21
270.676135
0
LINE
8
Layer 1
10
82.380918
20
270.676135
11
73.734257
21
268.753635
0
LINE
8
Layer 1
10
73.734257
20
268.753635
11
65.242117
21
266.268139
0
LINE
8
Layer 1
10
65.242117
20
266.268139
11
56.932115
21
263.228728
0
LINE
8
Layer 1
10
56.932115
20
263.228728
11
48.831872
21
259.644483
0
LINE
8
Layer 1
10
48.831872
20
259.644483
11
40.969004
21
255.524487
0
LINE
8
Layer 1
10
40.969004
20
255.524487
11
33.371130
21
250.877820
0
LINE
8
Layer 1
10
33.371130
20
250.877820
11
31.889289
21
249.767084
0
LINE
8
Layer 1
10
31.889289
20
249.767084
11
30.568284
21
248.498613
0
LINE
8
Layer 1
10
30.568284
20
248.498613
11
29.417832
21
247.089990
0
LINE
8
Layer 1
10
29.417832
20
247.089990
11
28.447648
21
245.558794
0
LINE
8
Layer 1
10
28.447648
20
245.558794
11
27.667447
21
243.922609
0
LINE
8
Layer 1
10
27.667447
20
243.922609
11
27.086947
21
242.199013
0
LINE
8
Layer 1
10
27.086947
20
242.199013
11
26.715863
21
240.405590
0
LINE
8
Layer 1
10
26.715863
20
240.405590
11
26.563910
21
238.559920
0
LINE
8
Layer 1
10
26.563910
20
238.559920
11
26.559941
21
182.019720
0
LINE
8
Layer 1
10
26.559941
20
182.019720
11
26.627495
21
181.042026
0
LINE
8
Layer 1
10
26.627495
20
181.042026
11
26.885718
21
180.106541
0
LINE
8
Layer 1
10
26.885718
20
180.106541
11
27.324009
21
179.240681
0
LINE
8
Layer 1
10
27.324009
20
179.240681
11
27.931767
21
178.471865
0
LINE
8
Layer 1
10
27.931767
20
178.471865
11
28.680930
21
177.840040
0
LINE
8
Layer 1
10
28.680930
20
177.840040
11
29.532461
21
177.374521
0
LINE
8
Layer 1
10
29.532461
20
177.374521
11
30.459290
21
177.086773
0
LINE
8
Layer 1
10
30.459290
20
177.086773
11
31.434351
21
176.988260
0
LINE
8
Layer 1
10
31.434351
20
176.988260
11
128.434251
21
176.981566
0
LINE
8
Layer 1
10
128.434251
20
176.981566
11
147.475051
21
173.623616
0
LINE
8
Layer 1
10
147.475051
20
173.623616
11
167.207851
21
166.439246
0
LINE
8
Layer 1
10
167.207851
20
166.439246
11
168.114613
21
166.240676
0
LINE
8
Layer 1
10
168.114613
20
166.240676
11
169.016437
21
166.222721
0
LINE
8
Layer 1
10
169.016437
20
166.222721
11
169.890939
21
166.374470
0
LINE
8
Layer 1
10
169.890939
20
166.374470
11
170.715738
21
166.685013
0
LINE
8
Layer 1
10
170.715738
20
166.685013
11
171.468450
21
167.143438
0
LINE
8
Layer 1
10
171.468450
20
167.143438
11
172.126694
21
167.738836
0
LINE
8
Layer 1
10
172.126694
20
167.738836
11
172.668085
21
168.460295
0
LINE
8
Layer 1
10
172.668085
20
168.460295
11
173.070241
21
169.296906
0
LINE
8
Layer 1
10
173.070241
20
169.296906
11
181.701071
21
192.941206
0
LINE
8
Layer 1
10
181.701071
20
192.941206
11
182.234925
21
194.919076
0
LINE
8
Layer 1
10
182.234925
20
194.919076
11
182.414678
21
196.959826
0
LINE
8
Layer 1
10
182.414678
20
196.959826
11
182.412032
21
255.769326
0
LINE
8
Layer 1
10
182.412032
20
255.769326
11
182.103856
21
256.685454
0
LINE
8
Layer 1
10
182.103856
20
256.685454
11
181.657296
21
257.520158
0
LINE
8
Layer 1
10
181.657296
20
257.520158
11
181.087354
21
258.261492
0
LINE
8
Layer 1
10
181.087354
20
258.261492
11
180.409028
21
258.897511
0
LINE
8
Layer 1
10
180.409028
20
258.897511
11
179.637318
21
259.416269
0
LINE
8
Layer 1
10
179.637318
20
259.416269
11
178.787224
21
259.805821
0
LINE
8
Layer 1
10
178.787224
20
259.805821
11
177.873746
21
260.054222
0
LINE
8
Layer 1
10
177.873746
20
260.054222
11
176.911882
21
260.149526
0
LINE
8
Layer 1
10
176.911882
20
260.149526
11
152.427000
21
260.150000
0
LINE
8
Layer 1
10
152.427000
20
260.150000
11
151.328613
21
260.264949
0
LINE
8
Layer 1
10
151.328613
20
260.264949
11
150.288467
21
260.600244
0
LINE
8
Layer 1
10
150.288467
20
260.600244
11
149.339092
21
261.141552
0
LINE
8
Layer 1
10
149.339092
20
261.141552
11
148.513020
21
261.874540
0
LINE
8
Layer 1
10
148.513020
20
261.874540
11
148.514000
21
261.874000
 0 
ENDSEC
 0 
EOF