999
"DXF R12 Output" (www.mydxf.blogspot.com)
 0 
SECTION
 2 
HEADER
 9 
$ACADVER
 1 
AC1009
 9 
$EXTMIN
 10 
 0 
 20 
 0 
 9 
$EXTMAX
 10 
 8.5 
 20 
 11 
 0 
ENDSEC
 0 
SECTION
 2 
ENTITIES
0
LINE
8
Layer 1
10
0.793749
20
297.794000
11
-0.793749
21
296.206000
0
LINE
8
Layer 1
10
0.000000
20
298.323000
11
0.000000
21
295.677000
0
LINE
8
Layer 1
10
2.116660
20
295.942000
11
1.058330
21
294.883670
0
LINE
8
Layer 1
10
1.587500
20
296.471000
11
0.529170
21
295.412670
0
LINE
8
Layer 1
10
1.058330
20
297.000000
11
0.000000
21
295.941670
0
LINE
8
Layer 1
10
26.002500
20
236.136000
11
26.169968
21
235.511000
0
LINE
8
Layer 1
10
26.169968
20
235.511000
11
26.627500
21
235.053468
0
LINE
8
Layer 1
10
26.627500
20
235.053468
11
27.252500
21
234.886000
0
LINE
8
Layer 1
10
27.252500
20
234.886000
11
27.877500
21
235.053468
0
LINE
8
Layer 1
10
27.877500
20
235.053468
11
28.335032
21
235.511000
0
LINE
8
Layer 1
10
28.335032
20
235.511000
11
28.502500
21
236.136000
0
LINE
8
Layer 1
10
28.502500
20
236.136000
11
28.335032
21
236.761000
0
LINE
8
Layer 1
10
28.335032
20
236.761000
11
27.877500
21
237.218532
0
LINE
8
Layer 1
10
27.877500
20
237.218532
11
27.252500
21
237.386000
0
LINE
8
Layer 1
10
27.252500
20
237.386000
11
26.627500
21
237.218532
0
LINE
8
Layer 1
10
26.627500
20
237.218532
11
26.169968
21
236.761000
0
LINE
8
Layer 1
10
26.169968
20
236.761000
11
26.002500
21
236.136000
0
LINE
8
Layer 1
10
26.002500
20
236.136000
11
26.002500
21
236.136000
0
LINE
8
Layer 1
10
173.884000
20
183.109000
11
174.351637
21
184.743900
0
LINE
8
Layer 1
10
174.351637
20
184.743900
11
176.573598
21
185.340135
0
LINE
8
Layer 1
10
176.573598
20
185.340135
11
178.706882
21
186.114514
0
LINE
8
Layer 1
10
178.706882
20
186.114514
11
180.744043
21
187.057792
0
LINE
8
Layer 1
10
180.744043
20
187.057792
11
182.677632
21
188.160729
0
LINE
8
Layer 1
10
182.677632
20
188.160729
11
184.500205
21
189.414083
0
LINE
8
Layer 1
10
184.500205
20
189.414083
11
186.204314
21
190.808609
0
LINE
8
Layer 1
10
186.204314
20
190.808609
11
187.782514
21
192.335068
0
LINE
8
Layer 1
10
187.782514
20
192.335068
11
189.227356
21
193.984215
0
LINE
8
Layer 1
10
189.227356
20
193.984215
11
190.531395
21
195.746809
0
LINE
8
Layer 1
10
190.531395
20
195.746809
11
191.687183
21
197.613609
0
LINE
8
Layer 1
10
191.687183
20
197.613609
11
192.687276
21
199.575370
0
LINE
8
Layer 1
10
192.687276
20
199.575370
11
193.524225
21
201.622852
0
LINE
8
Layer 1
10
193.524225
20
201.622852
11
194.190584
21
203.746812
0
LINE
8
Layer 1
10
194.190584
20
203.746812
11
194.678907
21
205.938007
0
LINE
8
Layer 1
10
194.678907
20
205.938007
11
194.981747
21
208.187196
0
LINE
8
Layer 1
10
194.981747
20
208.187196
11
195.091657
21
210.485136
0
LINE
8
Layer 1
10
195.091657
20
210.485136
11
195.003477
21
212.784013
0
LINE
8
Layer 1
10
195.003477
20
212.784013
11
194.721914
21
215.035964
0
LINE
8
Layer 1
10
194.721914
20
215.035964
11
194.254329
21
217.231678
0
LINE
8
Layer 1
10
194.254329
20
217.231678
11
193.608080
21
219.361843
0
LINE
8
Layer 1
10
193.608080
20
219.361843
11
192.790525
21
221.417146
0
LINE
8
Layer 1
10
192.790525
20
221.417146
11
191.809024
21
223.388275
0
LINE
8
Layer 1
10
191.809024
20
223.388275
11
190.670936
21
225.265917
0
LINE
8
Layer 1
10
190.670936
20
225.265917
11
189.383619
21
227.040761
0
LINE
8
Layer 1
10
189.383619
20
227.040761
11
187.954433
21
228.703495
0
LINE
8
Layer 1
10
187.954433
20
228.703495
11
186.390735
21
230.244805
0
LINE
8
Layer 1
10
186.390735
20
230.244805
11
184.699886
21
231.655381
0
LINE
8
Layer 1
10
184.699886
20
231.655381
11
182.889244
21
232.925908
0
LINE
8
Layer 1
10
182.889244
20
232.925908
11
180.966168
21
234.047077
0
LINE
8
Layer 1
10
180.966168
20
234.047077
11
178.938017
21
235.009573
0
LINE
8
Layer 1
10
178.938017
20
235.009573
11
176.812149
21
235.804085
0
LINE
8
Layer 1
10
176.812149
20
235.804085
11
174.595924
21
236.421300
0
LINE
8
Layer 1
10
174.595924
20
236.421300
11
174.595659
21
245.937170
0
LINE
8
Layer 1
10
174.595659
20
245.937170
11
174.287483
21
246.853297
0
LINE
8
Layer 1
10
174.287483
20
246.853297
11
173.840924
21
247.688000
0
LINE
8
Layer 1
10
173.840924
20
247.688000
11
173.270983
21
248.429333
0
LINE
8
Layer 1
10
173.270983
20
248.429333
11
172.592658
21
249.065351
0
LINE
8
Layer 1
10
172.592658
20
249.065351
11
171.820950
21
249.584110
0
LINE
8
Layer 1
10
171.820950
20
249.584110
11
170.970858
21
249.973663
0
LINE
8
Layer 1
10
170.970858
20
249.973663
11
170.057381
21
250.222064
0
LINE
8
Layer 1
10
170.057381
20
250.222064
11
169.095519
21
250.317370
0
LINE
8
Layer 1
10
169.095519
20
250.317370
11
144.611000
21
250.317000
0
LINE
8
Layer 1
10
144.611000
20
250.317000
11
143.512616
21
250.431950
0
LINE
8
Layer 1
10
143.512616
20
250.431950
11
142.472472
21
250.767246
0
LINE
8
Layer 1
10
142.472472
20
250.767246
11
141.523100
21
251.308554
0
LINE
8
Layer 1
10
141.523100
20
251.308554
11
140.697030
21
252.041540
0
LINE
8
Layer 1
10
140.697030
20
252.041540
11
139.327080
21
253.374642
0
LINE
8
Layer 1
10
139.327080
20
253.374642
11
137.798824
21
254.508821
0
LINE
8
Layer 1
10
137.798824
20
254.508821
11
136.133653
21
255.430308
0
LINE
8
Layer 1
10
136.133653
20
255.430308
11
134.352960
21
256.125330
0
LINE
8
Layer 1
10
134.352960
20
256.125330
11
129.248317
21
257.807618
0
LINE
8
Layer 1
10
129.248317
20
257.807618
11
124.080956
21
259.256079
0
LINE
8
Layer 1
10
124.080956
20
259.256079
11
118.858925
21
260.469408
0
LINE
8
Layer 1
10
118.858925
20
260.469408
11
113.590270
21
261.446298
0
LINE
8
Layer 1
10
113.590270
20
261.446298
11
108.283038
21
262.185444
0
LINE
8
Layer 1
10
108.283038
20
262.185444
11
102.945278
21
262.685540
0
LINE
8
Layer 1
10
102.945278
20
262.685540
11
97.585036
21
262.945281
0
LINE
8
Layer 1
10
97.585036
20
262.945281
11
92.210360
21
262.963360
0
LINE
8
Layer 1
10
92.210360
20
262.963360
11
83.337512
21
262.194097
0
LINE
8
Layer 1
10
83.337512
20
262.194097
11
74.563948
21
260.843675
0
LINE
8
Layer 1
10
74.563948
20
260.843675
11
65.917287
21
258.921175
0
LINE
8
Layer 1
10
65.917287
20
258.921175
11
57.425147
21
256.435679
0
LINE
8
Layer 1
10
57.425147
20
256.435679
11
49.115145
21
253.396268
0
LINE
8
Layer 1
10
49.115145
20
253.396268
11
41.014902
21
249.812023
0
LINE
8
Layer 1
10
41.014902
20
249.812023
11
33.152034
21
245.692027
0
LINE
8
Layer 1
10
33.152034
20
245.692027
11
25.554160
21
241.045360
0
LINE
8
Layer 1
10
25.554160
20
241.045360
11
24.072317
21
239.934624
0
LINE
8
Layer 1
10
24.072317
20
239.934624
11
22.751311
21
238.666154
0
LINE
8
Layer 1
10
22.751311
20
238.666154
11
21.600858
21
237.257531
0
LINE
8
Layer 1
10
21.600858
20
237.257531
11
20.630672
21
235.726336
0
LINE
8
Layer 1
10
20.630672
20
235.726336
11
19.850471
21
234.090150
0
LINE
8
Layer 1
10
19.850471
20
234.090150
11
19.269969
21
232.366555
0
LINE
8
Layer 1
10
19.269969
20
232.366555
11
18.898884
21
230.573131
0
LINE
8
Layer 1
10
18.898884
20
230.573131
11
18.746930
21
228.727460
0
LINE
8
Layer 1
10
18.746930
20
228.727460
11
18.743041
21
172.187260
0
LINE
8
Layer 1
10
18.743041
20
172.187260
11
18.810594
21
171.209564
0
LINE
8
Layer 1
10
18.810594
20
171.209564
11
19.068819
21
170.274076
0
LINE
8
Layer 1
10
19.068819
20
170.274076
11
19.507112
21
169.408215
0
LINE
8
Layer 1
10
19.507112
20
169.408215
11
20.114873
21
168.639398
0
LINE
8
Layer 1
10
20.114873
20
168.639398
11
20.864040
21
168.007573
0
LINE
8
Layer 1
10
20.864040
20
168.007573
11
21.715574
21
167.542055
0
LINE
8
Layer 1
10
21.715574
20
167.542055
11
22.642407
21
167.254309
0
LINE
8
Layer 1
10
22.642407
20
167.254309
11
23.617471
21
167.155800
0
LINE
8
Layer 1
10
23.617471
20
167.155800
11
120.617371
21
167.149106
0
LINE
8
Layer 1
10
120.617371
20
167.149106
11
139.658171
21
163.791156
0
LINE
8
Layer 1
10
139.658171
20
163.791156
11
159.390971
21
156.606786
0
LINE
8
Layer 1
10
159.390971
20
156.606786
11
160.297735
21
156.408212
0
LINE
8
Layer 1
10
160.297735
20
156.408212
11
161.199562
21
156.390254
0
LINE
8
Layer 1
10
161.199562
20
156.390254
11
162.074068
21
156.542002
0
LINE
8
Layer 1
10
162.074068
20
156.542002
11
162.898870
21
156.852544
0
LINE
8
Layer 1
10
162.898870
20
156.852544
11
163.651585
21
157.310970
0
LINE
8
Layer 1
10
163.651585
20
157.310970
11
164.309831
21
157.906370
0
LINE
8
Layer 1
10
164.309831
20
157.906370
11
164.851223
21
158.627832
0
LINE
8
Layer 1
10
164.851223
20
158.627832
11
165.253381
21
159.464446
0
LINE
8
Layer 1
10
165.253381
20
159.464446
11
173.884000
21
183.109000
0
LINE
8
Layer 1
10
161.492000
20
161.518000
11
161.659468
21
160.893000
0
LINE
8
Layer 1
10
161.659468
20
160.893000
11
162.117000
21
160.435468
0
LINE
8
Layer 1
10
162.117000
20
160.435468
11
162.742000
21
160.268000
0
LINE
8
Layer 1
10
162.742000
20
160.268000
11
163.367000
21
160.435468
0
LINE
8
Layer 1
10
163.367000
20
160.435468
11
163.824532
21
160.893000
0
LINE
8
Layer 1
10
163.824532
20
160.893000
11
163.992000
21
161.518000
0
LINE
8
Layer 1
10
163.992000
20
161.518000
11
163.824532
21
162.143000
0
LINE
8
Layer 1
10
163.824532
20
162.143000
11
163.367000
21
162.600532
0
LINE
8
Layer 1
10
163.367000
20
162.600532
11
162.742000
21
162.768000
0
LINE
8
Layer 1
10
162.742000
20
162.768000
11
162.117000
21
162.600532
0
LINE
8
Layer 1
10
162.117000
20
162.600532
11
161.659468
21
162.143000
0
LINE
8
Layer 1
10
161.659468
20
162.143000
11
161.492000
21
161.518000
0
LINE
8
Layer 1
10
161.492000
20
161.518000
11
161.492000
21
161.518000
0
LINE
8
Layer 1
10
20.646600
20
172.187000
11
20.814068
21
171.562000
0
LINE
8
Layer 1
10
20.814068
20
171.562000
11
21.271600
21
171.104468
0
LINE
8
Layer 1
10
21.271600
20
171.104468
11
21.896600
21
170.937000
0
LINE
8
Layer 1
10
21.896600
20
170.937000
11
22.521600
21
171.104468
0
LINE
8
Layer 1
10
22.521600
20
171.104468
11
22.979132
21
171.562000
0
LINE
8
Layer 1
10
22.979132
20
171.562000
11
23.146600
21
172.187000
0
LINE
8
Layer 1
10
23.146600
20
172.187000
11
22.979132
21
172.812000
0
LINE
8
Layer 1
10
22.979132
20
172.812000
11
22.521600
21
173.269532
0
LINE
8
Layer 1
10
22.521600
20
173.269532
11
21.896600
21
173.437000
0
LINE
8
Layer 1
10
21.896600
20
173.437000
11
21.271600
21
173.269532
0
LINE
8
Layer 1
10
21.271600
20
173.269532
11
20.814068
21
172.812000
0
LINE
8
Layer 1
10
20.814068
20
172.812000
11
20.646600
21
172.187000
0
LINE
8
Layer 1
10
20.646600
20
172.187000
11
20.646600
21
172.187000
0
LINE
8
Layer 1
10
169.809000
20
245.692000
11
169.976468
21
245.067000
0
LINE
8
Layer 1
10
169.976468
20
245.067000
11
170.434000
21
244.609468
0
LINE
8
Layer 1
10
170.434000
20
244.609468
11
171.059000
21
244.442000
0
LINE
8
Layer 1
10
171.059000
20
244.442000
11
171.684000
21
244.609468
0
LINE
8
Layer 1
10
171.684000
20
244.609468
11
172.141532
21
245.067000
0
LINE
8
Layer 1
10
172.141532
20
245.067000
11
172.309000
21
245.692000
0
LINE
8
Layer 1
10
172.309000
20
245.692000
11
172.141532
21
246.317000
0
LINE
8
Layer 1
10
172.141532
20
246.317000
11
171.684000
21
246.774532
0
LINE
8
Layer 1
10
171.684000
20
246.774532
11
171.059000
21
246.942000
0
LINE
8
Layer 1
10
171.059000
20
246.942000
11
170.434000
21
246.774532
0
LINE
8
Layer 1
10
170.434000
20
246.774532
11
169.976468
21
246.317000
0
LINE
8
Layer 1
10
169.976468
20
246.317000
11
169.809000
21
245.692000
0
LINE
8
Layer 1
10
169.809000
20
245.692000
11
169.809000
21
245.692000
0
LINE
8
Layer 1
10
101.121000
20
258.623000
11
101.288468
21
257.998000
0
LINE
8
Layer 1
10
101.288468
20
257.998000
11
101.746000
21
257.540468
0
LINE
8
Layer 1
10
101.746000
20
257.540468
11
102.371000
21
257.373000
0
LINE
8
Layer 1
10
102.371000
20
257.373000
11
102.996000
21
257.540468
0
LINE
8
Layer 1
10
102.996000
20
257.540468
11
103.453532
21
257.998000
0
LINE
8
Layer 1
10
103.453532
20
257.998000
11
103.621000
21
258.623000
0
LINE
8
Layer 1
10
103.621000
20
258.623000
11
103.453532
21
259.248000
0
LINE
8
Layer 1
10
103.453532
20
259.248000
11
102.996000
21
259.705532
0
LINE
8
Layer 1
10
102.996000
20
259.705532
11
102.371000
21
259.873000
0
LINE
8
Layer 1
10
102.371000
20
259.873000
11
101.746000
21
259.705532
0
LINE
8
Layer 1
10
101.746000
20
259.705532
11
101.288468
21
259.248000
0
LINE
8
Layer 1
10
101.288468
20
259.248000
11
101.121000
21
258.623000
0
LINE
8
Layer 1
10
101.121000
20
258.623000
11
101.121000
21
258.623000
 0 
ENDSEC
 0 
EOF