<?xml version="1.0" encoding="UTF-8" standalone="no"?>
<svg
   viewBox="0 0 793.7007874015749 1122.5196850393702"
   width="793.7007874015749"
   height="1122.5196850393702"
   version="1.1"
   id="svg32"
   sodipodi:docname="xi-6-bottom-cirque.svg"
   inkscape:version="1.2.2 (732a01da63, 2022-12-09)"
   xmlns:inkscape="http://www.inkscape.org/namespaces/inkscape"
   xmlns:sodipodi="http://sodipodi.sourceforge.net/DTD/sodipodi-0.dtd"
   xmlns="http://www.w3.org/2000/svg"
   xmlns:svg="http://www.w3.org/2000/svg">
  <sodipodi:namedview
     id="namedview34"
     pagecolor="#ffffff"
     bordercolor="#000000"
     borderopacity="0.25"
     inkscape:showpageshadow="2"
     inkscape:pageopacity="0.0"
     inkscape:pagecheckerboard="0"
     inkscape:deskcolor="#d1d1d1"
     showgrid="false"
     inkscape:zoom="0.91490603"
     inkscape:cx="396.76206"
     inkscape:cy="561.80633"
     inkscape:window-width="3440"
     inkscape:window-height="1369"
     inkscape:window-x="-8"
     inkscape:window-y="-8"
     inkscape:window-maximized="1"
     inkscape:current-layer="g30" />
  <desc
     id="desc2">xi-6-bottom-cirque.dxf - scale = 1.000000, origin = (0.000000, 0.000000), method = manual</desc>
  <defs
     id="defs16">
    <marker
       id="DistanceX"
       orient="auto"
       refX="0.0"
       refY="0.0"
       style="overflow:visible">
      <path
         d="M 3,-3 L -3,3 M 0,-5 L  0,5"
         style="stroke:#000000; stroke-width:0.5"
         id="path4" />
    </marker>
    <pattern
       id="Hatch"
       patternUnits="userSpaceOnUse"
       width="8"
       height="8"
       x="0"
       y="0">
      <path
         d="M8 4 l-4,4"
         stroke="#000000"
         stroke-width="0.25"
         linecap="square"
         id="path7" />
      <path
         d="M6 2 l-4,4"
         stroke="#000000"
         stroke-width="0.25"
         linecap="square"
         id="path9" />
      <path
         d="M4 0 l-4,4"
         stroke="#000000"
         stroke-width="0.25"
         linecap="square"
         id="path11" />
    </pattern>
    <symbol
       id="*MODEL_SPACE" />
    <symbol
       id="*PAPER_SPACE" />
  </defs>
  <g
     inkscape:groupmode="layer"
     inkscape:label="0"
     id="g30">
    <g
       id="g146"
       transform="rotate(180,476.79969,433.31024)">
      <path
         d="m 822.49226,682.48875 a 4.72441,4.72441 0 0 0 -9.44882,0 4.72441,4.72441 0 0 0 9.44882,0 z"
         style="fill:none;stroke:#000000"
         id="path18" />
      <path
         d="m 388.99938,742.60742 a 54.115649,54.115649 0 0 0 23.97761,15.43482 450.56477,450.56477 0 0 0 159.27932,25.84457 507.45775,507.45775 0 0 0 251.92925,-82.83983 57.168836,57.168836 0 0 0 25.72814,-46.55598 l 0.0147,-213.69563 a 18.433556,18.433556 0 0 0 -18.42306,-19.01658 l -366.61417,-0.0253 -71.96519,-12.69148 -74.58078,-27.15357 a 17.755169,17.755169 0 0 0 -22.15718,10.80063 l -32.62043,89.36426 a 44.106901,44.106901 0 0 0 -2.69708,15.18852 l 5.4e-4,15.82633 a 77.480315,77.480315 0 0 0 0.004,130.73981 l 0.003,75.70635 a 21.742718,21.742718 0 0 0 20.78796,16.55509 h 92.54032 a 20.04585,20.04585 0 0 1 14.79299,6.51797 z"
         style="fill:none;stroke:#000000"
         id="path20" />
      <path
         d="m 310.40589,400.47118 a 4.72441,4.72441 0 0 0 -9.44882,0 4.72441,4.72441 0 0 0 9.44882,0 z"
         style="fill:none;stroke:#000000"
         id="path22" />
      <path
         d="m 842.73523,440.79499 a 4.72441,4.72441 0 0 0 -9.44882,0 4.72441,4.72441 0 0 0 9.44882,0 z"
         style="fill:none;stroke:#000000"
         id="path24" />
      <path
         d="m 278.96949,718.60913 a 4.72441,4.72441 0 0 0 -9.44882,0 4.72441,4.72441 0 0 0 9.44882,0 z"
         style="fill:none;stroke:#000000"
         id="path26" />
      <path
         d="m 538.58114,767.48076 a 4.72441,4.72441 0 0 0 -9.44882,0 4.72441,4.72441 0 0 0 9.44882,0 z"
         style="fill:none;stroke:#000000"
         id="path28" />
    </g>
  </g>
</svg>
