%TF.GenerationSoftware,KiCad,Pcbnew,(6.0.5)*%
%TF.CreationDate,2022-11-14T00:39:22-08:00*%
%TF.ProjectId,po-bottom-plate,706f2d62-6f74-4746-9f6d-2d706c617465,rev?*%
%TF.SameCoordinates,Original*%
%TF.FileFunction,Copper,L1,Top*%
%TF.FilePolarity,Positive*%
%FSLAX46Y46*%
G04 Gerber Fmt 4.6, Leading zero omitted, Abs format (unit mm)*
G04 Created by KiCad (PCBNEW (6.0.5)) date 2022-11-14 00:39:22*
%MOMM*%
%LPD*%
G01*
G04 APERTURE LIST*
%TA.AperFunction,WasherPad*%
%ADD10C,2.900000*%
%TD*%
G04 APERTURE END LIST*
D10*
%TO.P,H11,*%
%TO.N,*%
X266542584Y-182865693D03*
%TD*%
%TO.P,H13,*%
%TO.N,*%
X362532581Y-157895694D03*
%TD*%
%TO.P,H1,*%
%TO.N,*%
X101912586Y-102055688D03*
%TD*%
%TO.P,H8,*%
%TO.N,*%
X259592582Y-121455690D03*
%TD*%
%TO.P,H2,*%
%TO.N,*%
X195142587Y-120455688D03*
%TD*%
%TO.P,H5,*%
%TO.N,*%
X186532582Y-182815691D03*
%TD*%
%TO.P,H6,*%
%TO.N,*%
X145762583Y-188035688D03*
%TD*%
%TO.P,H10,*%
%TO.N,*%
X302342582Y-144515691D03*
%TD*%
%TO.P,H9,*%
%TO.N,*%
X352652583Y-101935691D03*
%TD*%
%TO.P,H3,*%
%TO.N,*%
X152452584Y-143265692D03*
%TD*%
%TO.P,H7,*%
%TO.N,*%
X227262585Y-219925692D03*
%TD*%
%TO.P,H4,*%
%TO.N,*%
X92612583Y-156245688D03*
%TD*%
%TO.P,H12,*%
%TO.N,*%
X308812583Y-188285693D03*
%TD*%
%TA.AperFunction,NonConductor*%
G36*
X368597744Y-88537633D02*
G01*
X368928611Y-88562894D01*
X368940879Y-88564439D01*
X369267686Y-88622011D01*
X369279744Y-88624751D01*
X369599334Y-88714080D01*
X369611066Y-88717989D01*
X369920360Y-88838215D01*
X369931652Y-88843255D01*
X370227679Y-88993222D01*
X370238421Y-88999345D01*
X370518323Y-89177608D01*
X370528401Y-89184745D01*
X370789480Y-89389587D01*
X370798822Y-89397688D01*
X371038562Y-89627131D01*
X371047065Y-89636109D01*
X371263156Y-89887942D01*
X371270738Y-89897710D01*
X371306656Y-89948993D01*
X371461106Y-90169517D01*
X371467694Y-90179981D01*
X371630501Y-90469137D01*
X371636032Y-90480197D01*
X371682269Y-90585247D01*
X371769716Y-90783930D01*
X371774129Y-90795462D01*
X371799859Y-90874040D01*
X371877395Y-91110833D01*
X371880662Y-91122759D01*
X371944528Y-91410713D01*
X371947503Y-91436137D01*
X371947670Y-91447460D01*
X371954836Y-91470689D01*
X371957583Y-91479596D01*
X371961261Y-91494826D01*
X381650650Y-146373332D01*
X384607924Y-163122660D01*
X384625845Y-163224163D01*
X384627750Y-163244213D01*
X384628077Y-163266403D01*
X384630724Y-163274983D01*
X384633831Y-163285056D01*
X384638522Y-163307100D01*
X384674757Y-163607304D01*
X384675635Y-163619638D01*
X384682916Y-163951406D01*
X384682580Y-163963766D01*
X384658341Y-164281140D01*
X384657310Y-164294633D01*
X384655765Y-164306902D01*
X384598182Y-164633719D01*
X384595441Y-164645776D01*
X384506107Y-164965362D01*
X384502202Y-164977080D01*
X384436192Y-165146894D01*
X384381970Y-165286380D01*
X384376930Y-165297671D01*
X384226958Y-165593701D01*
X384220844Y-165604428D01*
X384042571Y-165884344D01*
X384035438Y-165894416D01*
X383830596Y-166155499D01*
X383822496Y-166164841D01*
X383593056Y-166404584D01*
X383584078Y-166413087D01*
X383332251Y-166629179D01*
X383322484Y-166636761D01*
X383050683Y-166827136D01*
X383040220Y-166833724D01*
X382751064Y-166996543D01*
X382740006Y-167002073D01*
X382436282Y-167135766D01*
X382424743Y-167140183D01*
X382109380Y-167243462D01*
X382097454Y-167246729D01*
X381809545Y-167310601D01*
X381784119Y-167313578D01*
X381781732Y-167313613D01*
X381781729Y-167313613D01*
X381772759Y-167313746D01*
X381764190Y-167316390D01*
X381764181Y-167316391D01*
X381741336Y-167323439D01*
X381725819Y-167327168D01*
X364644684Y-170302936D01*
X348104448Y-173184471D01*
X348102703Y-173184655D01*
X348100888Y-173184466D01*
X348095930Y-173185371D01*
X348095924Y-173185372D01*
X348026851Y-173197985D01*
X348025843Y-173198164D01*
X348001203Y-173202457D01*
X348001192Y-173202459D01*
X347997348Y-173203129D01*
X347995918Y-173203595D01*
X347994730Y-173203850D01*
X347957600Y-173210630D01*
X347949577Y-173214656D01*
X347949574Y-173214657D01*
X347935228Y-173221856D01*
X347917720Y-173229051D01*
X347902456Y-173234020D01*
X347902454Y-173234021D01*
X347893918Y-173236800D01*
X347882045Y-173244909D01*
X347868970Y-173253839D01*
X347854422Y-173262405D01*
X347835437Y-173271932D01*
X347835432Y-173271935D01*
X347827414Y-173275959D01*
X347809088Y-173293018D01*
X347794310Y-173304831D01*
X347781051Y-173313887D01*
X347773637Y-173318951D01*
X347756983Y-173339249D01*
X347754475Y-173342306D01*
X347742914Y-173354613D01*
X347727367Y-173369084D01*
X347727362Y-173369090D01*
X347720797Y-173375201D01*
X347716210Y-173382910D01*
X347716207Y-173382914D01*
X347707998Y-173396711D01*
X347697127Y-173412203D01*
X347681248Y-173431557D01*
X347675109Y-173445972D01*
X347669407Y-173459361D01*
X347661767Y-173474412D01*
X347646319Y-173500377D01*
X347640071Y-173524619D01*
X347633987Y-173542532D01*
X347624176Y-173565569D01*
X347623118Y-173574486D01*
X347620615Y-173595579D01*
X347617506Y-173612175D01*
X347612209Y-173632728D01*
X347612209Y-173632732D01*
X347609968Y-173641426D01*
X347610258Y-173650403D01*
X347610775Y-173666441D01*
X347609963Y-173685349D01*
X347607013Y-173710212D01*
X347608499Y-173719061D01*
X347608499Y-173719065D01*
X347612808Y-173744724D01*
X347613450Y-173749348D01*
X347613577Y-173753286D01*
X347619374Y-173783969D01*
X347619807Y-173786402D01*
X347631134Y-173853858D01*
X347633032Y-173857778D01*
X347634159Y-173862236D01*
X350546047Y-189275825D01*
X350548223Y-189297355D01*
X350548361Y-189306735D01*
X350548362Y-189306739D01*
X350548494Y-189315716D01*
X350554248Y-189334369D01*
X350558936Y-189356402D01*
X350594217Y-189648707D01*
X350595172Y-189656617D01*
X350596050Y-189668945D01*
X350599676Y-189834191D01*
X350603330Y-190000719D01*
X350602994Y-190013079D01*
X350589048Y-190195675D01*
X350579513Y-190320515D01*
X350577723Y-190343946D01*
X350576178Y-190356214D01*
X350518594Y-190683030D01*
X350515853Y-190695087D01*
X350432686Y-190992611D01*
X350426520Y-191014668D01*
X350422611Y-191026399D01*
X350302380Y-191335692D01*
X350297340Y-191346983D01*
X350157276Y-191623456D01*
X350147373Y-191643003D01*
X350141250Y-191653745D01*
X349962990Y-191933640D01*
X349955845Y-191943731D01*
X349751002Y-192204816D01*
X349742915Y-192214142D01*
X349513474Y-192453886D01*
X349504497Y-192462389D01*
X349252660Y-192678491D01*
X349242892Y-192686073D01*
X348971096Y-192876444D01*
X348960633Y-192883032D01*
X348671482Y-193045849D01*
X348660423Y-193051380D01*
X348479227Y-193131140D01*
X348356696Y-193185076D01*
X348345160Y-193189492D01*
X348029793Y-193292774D01*
X348017881Y-193296037D01*
X347797043Y-193345030D01*
X347729976Y-193359909D01*
X347704547Y-193362886D01*
X347702153Y-193362921D01*
X347702150Y-193362921D01*
X347693176Y-193363054D01*
X347664409Y-193371929D01*
X347647829Y-193375838D01*
X317940593Y-198286322D01*
X311736182Y-199311886D01*
X311727999Y-199312782D01*
X311721193Y-199312182D01*
X311658768Y-199324614D01*
X311654724Y-199325350D01*
X311634554Y-199328684D01*
X311634545Y-199328686D01*
X311630135Y-199329415D01*
X311625870Y-199330763D01*
X311621503Y-199331808D01*
X311621478Y-199331704D01*
X311617513Y-199332722D01*
X311616208Y-199333089D01*
X311611430Y-199334040D01*
X311606861Y-199335713D01*
X311606858Y-199335714D01*
X311588472Y-199342447D01*
X311583111Y-199344274D01*
X311534979Y-199359483D01*
X311534976Y-199359484D01*
X311526417Y-199362189D01*
X311518958Y-199367189D01*
X311518257Y-199367526D01*
X311506976Y-199372290D01*
X308921563Y-200319061D01*
X293606874Y-205927254D01*
X293599741Y-205929422D01*
X293593417Y-205930037D01*
X293585087Y-205933377D01*
X293575335Y-205937287D01*
X293533495Y-205954064D01*
X293529947Y-205955424D01*
X293510161Y-205962670D01*
X293510157Y-205962672D01*
X293505943Y-205964215D01*
X293501989Y-205966341D01*
X293497910Y-205968173D01*
X293497844Y-205968026D01*
X293497178Y-205968338D01*
X293494064Y-205969875D01*
X293489538Y-205971690D01*
X293467915Y-205984529D01*
X293463252Y-205987166D01*
X293410137Y-206015720D01*
X293403927Y-206021836D01*
X293394078Y-206028369D01*
X282143796Y-212708228D01*
X277262073Y-215606753D01*
X277261481Y-215607051D01*
X277260850Y-215607214D01*
X277249383Y-215614063D01*
X277185868Y-215651999D01*
X277185585Y-215652167D01*
X277169480Y-215661729D01*
X277169475Y-215661732D01*
X277168088Y-215662556D01*
X277167789Y-215662797D01*
X277164765Y-215664603D01*
X277139957Y-215685198D01*
X277138684Y-215686239D01*
X277083377Y-215730787D01*
X277081535Y-215733433D01*
X277079186Y-215735650D01*
X267564015Y-223635037D01*
X263697491Y-226844981D01*
X263687208Y-226852667D01*
X263660736Y-226870427D01*
X263660731Y-226870432D01*
X263653281Y-226875430D01*
X263646181Y-226883940D01*
X263640455Y-226890802D01*
X263624768Y-226906543D01*
X263372495Y-227118522D01*
X263363168Y-227125645D01*
X263067659Y-227330272D01*
X263057714Y-227336494D01*
X262853096Y-227451614D01*
X262744430Y-227512750D01*
X262733944Y-227518022D01*
X262405631Y-227664359D01*
X262394701Y-227668632D01*
X262054199Y-227783786D01*
X262042917Y-227787024D01*
X261693163Y-227870001D01*
X261681651Y-227872171D01*
X261325692Y-227922248D01*
X261314025Y-227923338D01*
X261044126Y-227935920D01*
X260992158Y-227938343D01*
X260966907Y-227936980D01*
X260964238Y-227936564D01*
X260964233Y-227936564D01*
X260955364Y-227935183D01*
X260946462Y-227936347D01*
X260946459Y-227936347D01*
X260923788Y-227939312D01*
X260907451Y-227940376D01*
X230089281Y-227940374D01*
X193434449Y-227940372D01*
X193415064Y-227938872D01*
X193400243Y-227936564D01*
X193400240Y-227936564D01*
X193391371Y-227935183D01*
X193382469Y-227936347D01*
X193382468Y-227936347D01*
X193371513Y-227937779D01*
X193349311Y-227938705D01*
X193220979Y-227932722D01*
X193020153Y-227923359D01*
X193008488Y-227922269D01*
X192652525Y-227872192D01*
X192641013Y-227870022D01*
X192291254Y-227787044D01*
X192279974Y-227783806D01*
X191939469Y-227668652D01*
X191928539Y-227664379D01*
X191600216Y-227518039D01*
X191589731Y-227512767D01*
X191433094Y-227424644D01*
X191276452Y-227336518D01*
X191266515Y-227330302D01*
X190970987Y-227125665D01*
X190961660Y-227118541D01*
X190715189Y-226911441D01*
X190697560Y-226893315D01*
X190695699Y-226890970D01*
X190695696Y-226890967D01*
X190690118Y-226883940D01*
X190682792Y-226878761D01*
X190682789Y-226878758D01*
X190650340Y-226855818D01*
X190642594Y-226849879D01*
X182227799Y-219864017D01*
X225300051Y-219864017D01*
X225310940Y-220141156D01*
X225360769Y-220413995D01*
X225448545Y-220677092D01*
X225450537Y-220681079D01*
X225450538Y-220681081D01*
X225532181Y-220844474D01*
X225572515Y-220925196D01*
X225730208Y-221153358D01*
X225770927Y-221197408D01*
X225915459Y-221353762D01*
X225915464Y-221353767D01*
X225918475Y-221357024D01*
X226133560Y-221532131D01*
X226371173Y-221675186D01*
X226375268Y-221676920D01*
X226375270Y-221676921D01*
X226622471Y-221781597D01*
X226622478Y-221781599D01*
X226626572Y-221783333D01*
X226725345Y-221809522D01*
X226890364Y-221853277D01*
X226890369Y-221853278D01*
X226894661Y-221854416D01*
X226899070Y-221854938D01*
X226899076Y-221854939D01*
X227079248Y-221876263D01*
X227170091Y-221887015D01*
X227447367Y-221880481D01*
X227533603Y-221866127D01*
X227716566Y-221835674D01*
X227716570Y-221835673D01*
X227720956Y-221834943D01*
X227725197Y-221833602D01*
X227725200Y-221833601D01*
X227981153Y-221752654D01*
X227981155Y-221752653D01*
X227985399Y-221751311D01*
X227989410Y-221749385D01*
X227989415Y-221749383D01*
X228231401Y-221633183D01*
X228231402Y-221633182D01*
X228235420Y-221631253D01*
X228387978Y-221529317D01*
X228462322Y-221479642D01*
X228462326Y-221479639D01*
X228466030Y-221477164D01*
X228561273Y-221391857D01*
X240350999Y-221391857D01*
X240351269Y-221395976D01*
X240369683Y-221676921D01*
X240370362Y-221687283D01*
X240371164Y-221691316D01*
X240371165Y-221691322D01*
X240427315Y-221973604D01*
X240428121Y-221977654D01*
X240523286Y-222258002D01*
X240654230Y-222523530D01*
X240818712Y-222769695D01*
X240821426Y-222772789D01*
X240821430Y-222772795D01*
X241011209Y-222989195D01*
X241013918Y-222992284D01*
X241017007Y-222994993D01*
X241233407Y-223184772D01*
X241233413Y-223184776D01*
X241236507Y-223187490D01*
X241239933Y-223189779D01*
X241239938Y-223189783D01*
X241423750Y-223312601D01*
X241482672Y-223351972D01*
X241486371Y-223353796D01*
X241486376Y-223353799D01*
X241622658Y-223421005D01*
X241748200Y-223482916D01*
X241752105Y-223484241D01*
X241752106Y-223484242D01*
X242024635Y-223576753D01*
X242024639Y-223576754D01*
X242028548Y-223578081D01*
X242032592Y-223578885D01*
X242032598Y-223578887D01*
X242314880Y-223635037D01*
X242314886Y-223635038D01*
X242318919Y-223635840D01*
X242323024Y-223636109D01*
X242323031Y-223636110D01*
X242610226Y-223654933D01*
X242614345Y-223655203D01*
X242618464Y-223654933D01*
X242905659Y-223636110D01*
X242905666Y-223636109D01*
X242909771Y-223635840D01*
X242913804Y-223635038D01*
X242913810Y-223635037D01*
X243196092Y-223578887D01*
X243196098Y-223578885D01*
X243200142Y-223578081D01*
X243204051Y-223576754D01*
X243204055Y-223576753D01*
X243476584Y-223484242D01*
X243476585Y-223484241D01*
X243480490Y-223482916D01*
X243606032Y-223421005D01*
X243742314Y-223353799D01*
X243742319Y-223353796D01*
X243746018Y-223351972D01*
X243804940Y-223312601D01*
X243988752Y-223189783D01*
X243988757Y-223189779D01*
X243992183Y-223187490D01*
X243995277Y-223184776D01*
X243995283Y-223184772D01*
X244211683Y-222994993D01*
X244214772Y-222992284D01*
X244217481Y-222989195D01*
X244407260Y-222772795D01*
X244407264Y-222772789D01*
X244409978Y-222769695D01*
X244574460Y-222523530D01*
X244705404Y-222258002D01*
X244800569Y-221977654D01*
X244801375Y-221973604D01*
X244857525Y-221691322D01*
X244857526Y-221691316D01*
X244858328Y-221687283D01*
X244859008Y-221676921D01*
X244877421Y-221395976D01*
X244877691Y-221391857D01*
X244863561Y-221176273D01*
X244858598Y-221100543D01*
X244858597Y-221100536D01*
X244858328Y-221096431D01*
X244823476Y-220921216D01*
X244801375Y-220810110D01*
X244801373Y-220810104D01*
X244800569Y-220806060D01*
X244758145Y-220681081D01*
X244706730Y-220529618D01*
X244706729Y-220529617D01*
X244705404Y-220525712D01*
X244574460Y-220260184D01*
X244494928Y-220141156D01*
X244412271Y-220017450D01*
X244412267Y-220017445D01*
X244409978Y-220014019D01*
X244407264Y-220010925D01*
X244407260Y-220010919D01*
X244217481Y-219794519D01*
X244214772Y-219791430D01*
X244211683Y-219788721D01*
X243995283Y-219598942D01*
X243995277Y-219598938D01*
X243992183Y-219596224D01*
X243988757Y-219593935D01*
X243988752Y-219593931D01*
X243749451Y-219434036D01*
X243746018Y-219431742D01*
X243742319Y-219429918D01*
X243742314Y-219429915D01*
X243508891Y-219314804D01*
X243480490Y-219300798D01*
X243476584Y-219299472D01*
X243204055Y-219206961D01*
X243204051Y-219206960D01*
X243200142Y-219205633D01*
X243196098Y-219204829D01*
X243196092Y-219204827D01*
X242913810Y-219148677D01*
X242913804Y-219148676D01*
X242909771Y-219147874D01*
X242905666Y-219147605D01*
X242905659Y-219147604D01*
X242618464Y-219128781D01*
X242614345Y-219128511D01*
X242610226Y-219128781D01*
X242323031Y-219147604D01*
X242323024Y-219147605D01*
X242318919Y-219147874D01*
X242314886Y-219148676D01*
X242314880Y-219148677D01*
X242032598Y-219204827D01*
X242032592Y-219204829D01*
X242028548Y-219205633D01*
X242024639Y-219206960D01*
X242024635Y-219206961D01*
X241752106Y-219299472D01*
X241748200Y-219300798D01*
X241719799Y-219314804D01*
X241486376Y-219429915D01*
X241486371Y-219429918D01*
X241482672Y-219431742D01*
X241479239Y-219434036D01*
X241239938Y-219593931D01*
X241239933Y-219593935D01*
X241236507Y-219596224D01*
X241233413Y-219598938D01*
X241233407Y-219598942D01*
X241017007Y-219788721D01*
X241013918Y-219791430D01*
X241011209Y-219794519D01*
X240821430Y-220010919D01*
X240821426Y-220010925D01*
X240818712Y-220014019D01*
X240816423Y-220017445D01*
X240816419Y-220017450D01*
X240733762Y-220141156D01*
X240654230Y-220260184D01*
X240523286Y-220525712D01*
X240521961Y-220529617D01*
X240521960Y-220529618D01*
X240470546Y-220681081D01*
X240428121Y-220806060D01*
X240427317Y-220810104D01*
X240427315Y-220810110D01*
X240405215Y-220921216D01*
X240370362Y-221096431D01*
X240370093Y-221100536D01*
X240370092Y-221100543D01*
X240365129Y-221176273D01*
X240350999Y-221391857D01*
X228561273Y-221391857D01*
X228672628Y-221292119D01*
X228851092Y-221079810D01*
X228997861Y-220844474D01*
X229110007Y-220590805D01*
X229185292Y-220323865D01*
X229198540Y-220225229D01*
X229221786Y-220052163D01*
X229221787Y-220052155D01*
X229222213Y-220048981D01*
X229226088Y-219925692D01*
X229206499Y-219649032D01*
X229159719Y-219431742D01*
X229149061Y-219382239D01*
X229149060Y-219382237D01*
X229148125Y-219377892D01*
X229052128Y-219117682D01*
X229024244Y-219066003D01*
X228922538Y-218877510D01*
X228920425Y-218873594D01*
X228755644Y-218650499D01*
X228752525Y-218647330D01*
X228752521Y-218647326D01*
X228659700Y-218553035D01*
X228561073Y-218452847D01*
X228557533Y-218450145D01*
X228344138Y-218287287D01*
X228344134Y-218287284D01*
X228340593Y-218284582D01*
X228098604Y-218149061D01*
X228094455Y-218147456D01*
X228094451Y-218147454D01*
X227939249Y-218087412D01*
X227839934Y-218048990D01*
X227835609Y-218047987D01*
X227835604Y-218047986D01*
X227727314Y-218022886D01*
X227569745Y-217986363D01*
X227293426Y-217962431D01*
X227288991Y-217962675D01*
X227288987Y-217962675D01*
X227020936Y-217977427D01*
X227020929Y-217977428D01*
X227016493Y-217977672D01*
X226881502Y-218004523D01*
X226748841Y-218030911D01*
X226748836Y-218030912D01*
X226744469Y-218031781D01*
X226740266Y-218033257D01*
X226486992Y-218122200D01*
X226486989Y-218122201D01*
X226482784Y-218123678D01*
X226478831Y-218125731D01*
X226478825Y-218125734D01*
X226339319Y-218198202D01*
X226236658Y-218251530D01*
X226233043Y-218254113D01*
X226233037Y-218254117D01*
X226090256Y-218356150D01*
X226011001Y-218412787D01*
X225810317Y-218604230D01*
X225638610Y-218822040D01*
X225636378Y-218825882D01*
X225636375Y-218825887D01*
X225501543Y-219058016D01*
X225501540Y-219058022D01*
X225499305Y-219061870D01*
X225497631Y-219066003D01*
X225396856Y-219314804D01*
X225396853Y-219314812D01*
X225395183Y-219318936D01*
X225328320Y-219588109D01*
X225300051Y-219864017D01*
X182227799Y-219864017D01*
X177255896Y-215736403D01*
X177255416Y-215735944D01*
X177255050Y-215735405D01*
X177187357Y-215679503D01*
X177171795Y-215666584D01*
X177171473Y-215666387D01*
X177168753Y-215664140D01*
X177141052Y-215647693D01*
X177139478Y-215646742D01*
X177086253Y-215614063D01*
X177079100Y-215609671D01*
X177075991Y-215608824D01*
X177073118Y-215607357D01*
X162391997Y-206890439D01*
X160939710Y-206028143D01*
X160933533Y-206023991D01*
X160929061Y-206019478D01*
X160921211Y-206015133D01*
X160921204Y-206015128D01*
X160872574Y-205988213D01*
X160869262Y-205986314D01*
X160851160Y-205975566D01*
X160851155Y-205975563D01*
X160847299Y-205973274D01*
X160843157Y-205971554D01*
X160839151Y-205969546D01*
X160839224Y-205969400D01*
X160838666Y-205969131D01*
X160835398Y-205967639D01*
X160831140Y-205965282D01*
X160826580Y-205963612D01*
X160826571Y-205963608D01*
X160807504Y-205956626D01*
X160802513Y-205954677D01*
X160755131Y-205935002D01*
X160755128Y-205935001D01*
X160746843Y-205931561D01*
X160738177Y-205930612D01*
X160726886Y-205927104D01*
X142826589Y-199372068D01*
X142819024Y-199368818D01*
X142813396Y-199364945D01*
X142752954Y-199345030D01*
X142749061Y-199343677D01*
X142729865Y-199336648D01*
X142729866Y-199336648D01*
X142725657Y-199335107D01*
X142721269Y-199334178D01*
X142716963Y-199332940D01*
X142716993Y-199332836D01*
X142713067Y-199331777D01*
X142711734Y-199331449D01*
X142707099Y-199329922D01*
X142682981Y-199325935D01*
X142677440Y-199324891D01*
X142619247Y-199312562D01*
X142610299Y-199313241D01*
X142609521Y-199313189D01*
X142597350Y-199311781D01*
X125186394Y-196433822D01*
X106697331Y-193377655D01*
X106676550Y-193372371D01*
X106658712Y-193366175D01*
X106649745Y-193365728D01*
X106649744Y-193365728D01*
X106639224Y-193365204D01*
X106616903Y-193362073D01*
X106333481Y-193296039D01*
X106322400Y-193293457D01*
X106310512Y-193290065D01*
X106001051Y-193185074D01*
X105996254Y-193183446D01*
X105984761Y-193178907D01*
X105682476Y-193042002D01*
X105671478Y-193036355D01*
X105384068Y-192870477D01*
X105373683Y-192863784D01*
X105103909Y-192670526D01*
X105094234Y-192662850D01*
X104844705Y-192444082D01*
X104835818Y-192435483D01*
X104608944Y-192193320D01*
X104600943Y-192183892D01*
X104398900Y-191920657D01*
X104391861Y-191910490D01*
X104216589Y-191628711D01*
X104210581Y-191617903D01*
X104063777Y-191320306D01*
X104058857Y-191308961D01*
X103952470Y-191026399D01*
X103941927Y-190998396D01*
X103938146Y-190986633D01*
X103856760Y-190683030D01*
X103852224Y-190666110D01*
X103849612Y-190654024D01*
X103800411Y-190356214D01*
X103795520Y-190326612D01*
X103794107Y-190314333D01*
X103772371Y-189983216D01*
X103772167Y-189970852D01*
X103782993Y-189639189D01*
X103784002Y-189626865D01*
X103814019Y-189398702D01*
X103822498Y-189334250D01*
X103828400Y-189309337D01*
X103829108Y-189307299D01*
X103832054Y-189298820D01*
X103833532Y-189269213D01*
X103835564Y-189252107D01*
X103843849Y-189208256D01*
X104077018Y-187974013D01*
X143800049Y-187974013D01*
X143810938Y-188251152D01*
X143860767Y-188523991D01*
X143948543Y-188787088D01*
X143950535Y-188791075D01*
X143950536Y-188791077D01*
X144032388Y-188954888D01*
X144072513Y-189035192D01*
X144230206Y-189263354D01*
X144261636Y-189297355D01*
X144415457Y-189463758D01*
X144415462Y-189463763D01*
X144418473Y-189467020D01*
X144633558Y-189642127D01*
X144637376Y-189644426D01*
X144637378Y-189644427D01*
X144794086Y-189738773D01*
X144871171Y-189785182D01*
X144875266Y-189786916D01*
X144875268Y-189786917D01*
X145122469Y-189891593D01*
X145122476Y-189891595D01*
X145126570Y-189893329D01*
X145225343Y-189919518D01*
X145390362Y-189963273D01*
X145390367Y-189963274D01*
X145394659Y-189964412D01*
X145399068Y-189964934D01*
X145399074Y-189964935D01*
X145579246Y-189986259D01*
X145670089Y-189997011D01*
X145947365Y-189990477D01*
X146065271Y-189970852D01*
X146216564Y-189945670D01*
X146216568Y-189945669D01*
X146220954Y-189944939D01*
X146225195Y-189943598D01*
X146225198Y-189943597D01*
X146481151Y-189862650D01*
X146481153Y-189862649D01*
X146485397Y-189861307D01*
X146489408Y-189859381D01*
X146489413Y-189859379D01*
X146731399Y-189743179D01*
X146731400Y-189743178D01*
X146735418Y-189741249D01*
X146852874Y-189662767D01*
X146962320Y-189589638D01*
X146962324Y-189589635D01*
X146966028Y-189587160D01*
X147172626Y-189402115D01*
X147351090Y-189189806D01*
X147497859Y-188954470D01*
X147610005Y-188700801D01*
X147616025Y-188679458D01*
X147635193Y-188611491D01*
X147685290Y-188433861D01*
X147690658Y-188393899D01*
X147713475Y-188224018D01*
X306850049Y-188224018D01*
X306860938Y-188501157D01*
X306910767Y-188773996D01*
X306998543Y-189037093D01*
X307000535Y-189041080D01*
X307000536Y-189041082D01*
X307114529Y-189269218D01*
X307122513Y-189285197D01*
X307280206Y-189513359D01*
X307283228Y-189516628D01*
X307465457Y-189713763D01*
X307465462Y-189713768D01*
X307468473Y-189717025D01*
X307683558Y-189892132D01*
X307687376Y-189894431D01*
X307687378Y-189894432D01*
X307884450Y-190013079D01*
X307921171Y-190035187D01*
X307925266Y-190036921D01*
X307925268Y-190036922D01*
X308172469Y-190141598D01*
X308172476Y-190141600D01*
X308176570Y-190143334D01*
X308275343Y-190169523D01*
X308440362Y-190213278D01*
X308440367Y-190213279D01*
X308444659Y-190214417D01*
X308449068Y-190214939D01*
X308449074Y-190214940D01*
X308629246Y-190236264D01*
X308720089Y-190247016D01*
X308997365Y-190240482D01*
X309083601Y-190226128D01*
X309266564Y-190195675D01*
X309266568Y-190195674D01*
X309270954Y-190194944D01*
X309275195Y-190193603D01*
X309275198Y-190193602D01*
X309531151Y-190112655D01*
X309531153Y-190112654D01*
X309535397Y-190111312D01*
X309539408Y-190109386D01*
X309539413Y-190109384D01*
X309781399Y-189993184D01*
X309781400Y-189993183D01*
X309785418Y-189991254D01*
X309979897Y-189861307D01*
X310012320Y-189839643D01*
X310012324Y-189839640D01*
X310016028Y-189837165D01*
X310222626Y-189652120D01*
X310401090Y-189439811D01*
X310547859Y-189204475D01*
X310660005Y-188950806D01*
X310735290Y-188683866D01*
X310740658Y-188643904D01*
X310771784Y-188412164D01*
X310771785Y-188412156D01*
X310772211Y-188408982D01*
X310776086Y-188285693D01*
X310756497Y-188009033D01*
X310748004Y-187969581D01*
X310699059Y-187742240D01*
X310699058Y-187742238D01*
X310698123Y-187737893D01*
X310602126Y-187477683D01*
X310574242Y-187426004D01*
X310472536Y-187237511D01*
X310470423Y-187233595D01*
X310305642Y-187010500D01*
X310302523Y-187007331D01*
X310302519Y-187007327D01*
X310209698Y-186913036D01*
X310111071Y-186812848D01*
X310107531Y-186810146D01*
X309894136Y-186647288D01*
X309894132Y-186647285D01*
X309890591Y-186644583D01*
X309648602Y-186509062D01*
X309644453Y-186507457D01*
X309644449Y-186507455D01*
X309489247Y-186447413D01*
X309389932Y-186408991D01*
X309385607Y-186407988D01*
X309385602Y-186407987D01*
X309277312Y-186382887D01*
X309119743Y-186346364D01*
X308843424Y-186322432D01*
X308838989Y-186322676D01*
X308838985Y-186322676D01*
X308570934Y-186337428D01*
X308570927Y-186337429D01*
X308566491Y-186337673D01*
X308456890Y-186359474D01*
X308298839Y-186390912D01*
X308298834Y-186390913D01*
X308294467Y-186391782D01*
X308290264Y-186393258D01*
X308036990Y-186482201D01*
X308036987Y-186482202D01*
X308032782Y-186483679D01*
X308028829Y-186485732D01*
X308028823Y-186485735D01*
X307889317Y-186558203D01*
X307786656Y-186611531D01*
X307783041Y-186614114D01*
X307783035Y-186614118D01*
X307647247Y-186711154D01*
X307560999Y-186772788D01*
X307360315Y-186964231D01*
X307323840Y-187010500D01*
X307199668Y-187168012D01*
X307188608Y-187182041D01*
X307186376Y-187185883D01*
X307186373Y-187185888D01*
X307051541Y-187418017D01*
X307051538Y-187418023D01*
X307049303Y-187421871D01*
X307047629Y-187426004D01*
X306946854Y-187674805D01*
X306946851Y-187674813D01*
X306945181Y-187678937D01*
X306878318Y-187948110D01*
X306850049Y-188224018D01*
X147713475Y-188224018D01*
X147721784Y-188162159D01*
X147721785Y-188162151D01*
X147722211Y-188158977D01*
X147726086Y-188035688D01*
X147706497Y-187759028D01*
X147690186Y-187683263D01*
X147649059Y-187492235D01*
X147649058Y-187492233D01*
X147648123Y-187487888D01*
X147552126Y-187227678D01*
X147524242Y-187175999D01*
X147422536Y-186987506D01*
X147420423Y-186983590D01*
X147264722Y-186772788D01*
X147258291Y-186764081D01*
X147258289Y-186764078D01*
X147255642Y-186760495D01*
X147252523Y-186757326D01*
X147252519Y-186757322D01*
X147139392Y-186642404D01*
X147061071Y-186562843D01*
X147057531Y-186560141D01*
X146844136Y-186397283D01*
X146844132Y-186397280D01*
X146840591Y-186394578D01*
X146598602Y-186259057D01*
X146594453Y-186257452D01*
X146594449Y-186257450D01*
X146439247Y-186197408D01*
X146339932Y-186158986D01*
X146335607Y-186157983D01*
X146335602Y-186157982D01*
X146227312Y-186132882D01*
X146069743Y-186096359D01*
X145793424Y-186072427D01*
X145788989Y-186072671D01*
X145788985Y-186072671D01*
X145520934Y-186087423D01*
X145520927Y-186087424D01*
X145516491Y-186087668D01*
X145381500Y-186114519D01*
X145248839Y-186140907D01*
X145248834Y-186140908D01*
X145244467Y-186141777D01*
X145240264Y-186143253D01*
X144986990Y-186232196D01*
X144986987Y-186232197D01*
X144982782Y-186233674D01*
X144978829Y-186235727D01*
X144978823Y-186235730D01*
X144839317Y-186308198D01*
X144736656Y-186361526D01*
X144733041Y-186364109D01*
X144733035Y-186364113D01*
X144671640Y-186407987D01*
X144510999Y-186522783D01*
X144310315Y-186714226D01*
X144138608Y-186932036D01*
X144136376Y-186935878D01*
X144136373Y-186935883D01*
X144001541Y-187168012D01*
X144001538Y-187168018D01*
X143999303Y-187171866D01*
X143997629Y-187175999D01*
X143896854Y-187424800D01*
X143896851Y-187424808D01*
X143895181Y-187428932D01*
X143853033Y-187598609D01*
X143832005Y-187683263D01*
X143828318Y-187698105D01*
X143800049Y-187974013D01*
X104077018Y-187974013D01*
X105063164Y-182754016D01*
X184570048Y-182754016D01*
X184580937Y-183031155D01*
X184630766Y-183303994D01*
X184718542Y-183567091D01*
X184720534Y-183571078D01*
X184720535Y-183571080D01*
X184802178Y-183734473D01*
X184842512Y-183815195D01*
X185000205Y-184043357D01*
X185003227Y-184046626D01*
X185185456Y-184243761D01*
X185185461Y-184243766D01*
X185188472Y-184247023D01*
X185403557Y-184422130D01*
X185641170Y-184565185D01*
X185645265Y-184566919D01*
X185645267Y-184566920D01*
X185892468Y-184671596D01*
X185892475Y-184671598D01*
X185896569Y-184673332D01*
X185969446Y-184692655D01*
X186160361Y-184743276D01*
X186160366Y-184743277D01*
X186164658Y-184744415D01*
X186169067Y-184744937D01*
X186169073Y-184744938D01*
X186349245Y-184766262D01*
X186440088Y-184777014D01*
X186717364Y-184770480D01*
X186803600Y-184756126D01*
X186986563Y-184725673D01*
X186986567Y-184725672D01*
X186990953Y-184724942D01*
X186995194Y-184723601D01*
X186995197Y-184723600D01*
X187251150Y-184642653D01*
X187251152Y-184642652D01*
X187255396Y-184641310D01*
X187259407Y-184639384D01*
X187259412Y-184639382D01*
X187501398Y-184523182D01*
X187501399Y-184523181D01*
X187505417Y-184521252D01*
X187665645Y-184414191D01*
X187732319Y-184369641D01*
X187732323Y-184369638D01*
X187736027Y-184367163D01*
X187942625Y-184182118D01*
X188121089Y-183969809D01*
X188267858Y-183734473D01*
X188380004Y-183480804D01*
X188455289Y-183213864D01*
X188485494Y-182988982D01*
X188491783Y-182942162D01*
X188491784Y-182942154D01*
X188492210Y-182938980D01*
X188494412Y-182868915D01*
X188495984Y-182818913D01*
X188495984Y-182818908D01*
X188496085Y-182815691D01*
X188495259Y-182804018D01*
X264580050Y-182804018D01*
X264580225Y-182808470D01*
X264588800Y-183026706D01*
X264590939Y-183081157D01*
X264640768Y-183353996D01*
X264728544Y-183617093D01*
X264730536Y-183621080D01*
X264730537Y-183621082D01*
X264827530Y-183815195D01*
X264852514Y-183865197D01*
X265010207Y-184093359D01*
X265013229Y-184096628D01*
X265195458Y-184293763D01*
X265195463Y-184293768D01*
X265198474Y-184297025D01*
X265413559Y-184472132D01*
X265417377Y-184474431D01*
X265417379Y-184474432D01*
X265564302Y-184562887D01*
X265651172Y-184615187D01*
X265655267Y-184616921D01*
X265655269Y-184616922D01*
X265902470Y-184721598D01*
X265902477Y-184721600D01*
X265906571Y-184723334D01*
X265912636Y-184724942D01*
X266170363Y-184793278D01*
X266170368Y-184793279D01*
X266174660Y-184794417D01*
X266179069Y-184794939D01*
X266179075Y-184794940D01*
X266359247Y-184816264D01*
X266450090Y-184827016D01*
X266727366Y-184820482D01*
X266813602Y-184806128D01*
X266996565Y-184775675D01*
X266996569Y-184775674D01*
X267000955Y-184774944D01*
X267005196Y-184773603D01*
X267005199Y-184773602D01*
X267261152Y-184692655D01*
X267261154Y-184692654D01*
X267265398Y-184691312D01*
X267269409Y-184689386D01*
X267269414Y-184689384D01*
X267511400Y-184573184D01*
X267511401Y-184573183D01*
X267515419Y-184571254D01*
X267667977Y-184469318D01*
X267742321Y-184419643D01*
X267742325Y-184419640D01*
X267746029Y-184417165D01*
X267952627Y-184232120D01*
X268131091Y-184019811D01*
X268277860Y-183784475D01*
X268390006Y-183530806D01*
X268465291Y-183263866D01*
X268490429Y-183076708D01*
X268501785Y-182992164D01*
X268501786Y-182992156D01*
X268502212Y-182988982D01*
X268503784Y-182938980D01*
X268505986Y-182868915D01*
X268505986Y-182868910D01*
X268506087Y-182865693D01*
X268486498Y-182589033D01*
X268476692Y-182543483D01*
X268429060Y-182322240D01*
X268429059Y-182322238D01*
X268428124Y-182317893D01*
X268332127Y-182057683D01*
X268304243Y-182006004D01*
X268202537Y-181817511D01*
X268200424Y-181813595D01*
X268035643Y-181590500D01*
X268032524Y-181587331D01*
X268032520Y-181587327D01*
X267937849Y-181491157D01*
X267841072Y-181392848D01*
X267837532Y-181390146D01*
X267624137Y-181227288D01*
X267624133Y-181227285D01*
X267620592Y-181224583D01*
X267378603Y-181089062D01*
X267374454Y-181087457D01*
X267374450Y-181087455D01*
X267183743Y-181013677D01*
X267119933Y-180988991D01*
X267115608Y-180987988D01*
X267115603Y-180987987D01*
X267007313Y-180962887D01*
X266849744Y-180926364D01*
X266573425Y-180902432D01*
X266568990Y-180902676D01*
X266568986Y-180902676D01*
X266300935Y-180917428D01*
X266300928Y-180917429D01*
X266296492Y-180917673D01*
X266181271Y-180940592D01*
X266028840Y-180970912D01*
X266028835Y-180970913D01*
X266024468Y-180971782D01*
X266020265Y-180973258D01*
X265766991Y-181062201D01*
X265766988Y-181062202D01*
X265762783Y-181063679D01*
X265758830Y-181065732D01*
X265758824Y-181065735D01*
X265619318Y-181138203D01*
X265516657Y-181191531D01*
X265513042Y-181194114D01*
X265513036Y-181194118D01*
X265370255Y-181296151D01*
X265291000Y-181352788D01*
X265287780Y-181355860D01*
X265142732Y-181494229D01*
X265090316Y-181544231D01*
X264918609Y-181762041D01*
X264916377Y-181765883D01*
X264916374Y-181765888D01*
X264781542Y-181998017D01*
X264781539Y-181998023D01*
X264779304Y-182001871D01*
X264777630Y-182006004D01*
X264676855Y-182254805D01*
X264676852Y-182254813D01*
X264675182Y-182258937D01*
X264633034Y-182428614D01*
X264620740Y-182478108D01*
X264608319Y-182528110D01*
X264580050Y-182804018D01*
X188495259Y-182804018D01*
X188491404Y-182749584D01*
X188476496Y-182539031D01*
X188427989Y-182313719D01*
X188419058Y-182272238D01*
X188419057Y-182272236D01*
X188418122Y-182267891D01*
X188322125Y-182007681D01*
X188294241Y-181956002D01*
X188192535Y-181767509D01*
X188190422Y-181763593D01*
X188030981Y-181547728D01*
X188028290Y-181544084D01*
X188028288Y-181544081D01*
X188025641Y-181540498D01*
X188022522Y-181537329D01*
X188022518Y-181537325D01*
X187883415Y-181396020D01*
X187831070Y-181342846D01*
X187827530Y-181340144D01*
X187614135Y-181177286D01*
X187614131Y-181177283D01*
X187610590Y-181174581D01*
X187368601Y-181039060D01*
X187364452Y-181037455D01*
X187364448Y-181037453D01*
X187192448Y-180970912D01*
X187109931Y-180938989D01*
X187105606Y-180937986D01*
X187105601Y-180937985D01*
X186953267Y-180902676D01*
X186839742Y-180876362D01*
X186563423Y-180852430D01*
X186558988Y-180852674D01*
X186558984Y-180852674D01*
X186290933Y-180867426D01*
X186290926Y-180867427D01*
X186286490Y-180867671D01*
X186151499Y-180894522D01*
X186018838Y-180920910D01*
X186018833Y-180920911D01*
X186014466Y-180921780D01*
X186010263Y-180923256D01*
X185756989Y-181012199D01*
X185756986Y-181012200D01*
X185752781Y-181013677D01*
X185748828Y-181015730D01*
X185748822Y-181015733D01*
X185659368Y-181062201D01*
X185506655Y-181141529D01*
X185503040Y-181144112D01*
X185503034Y-181144116D01*
X185390432Y-181224583D01*
X185280998Y-181302786D01*
X185080314Y-181494229D01*
X184908607Y-181712039D01*
X184906375Y-181715881D01*
X184906372Y-181715886D01*
X184771540Y-181948015D01*
X184771537Y-181948021D01*
X184769302Y-181951869D01*
X184767628Y-181956002D01*
X184666853Y-182204803D01*
X184666850Y-182204811D01*
X184665180Y-182208935D01*
X184598317Y-182478108D01*
X184570048Y-182754016D01*
X105063164Y-182754016D01*
X106749305Y-173828711D01*
X106749633Y-173827453D01*
X106750241Y-173826242D01*
X106762706Y-173758059D01*
X106764233Y-173749706D01*
X106764368Y-173748978D01*
X106764486Y-173748355D01*
X106769527Y-173721670D01*
X106769574Y-173720617D01*
X106769682Y-173719896D01*
X106771452Y-173710212D01*
X106776434Y-173682959D01*
X106773770Y-173657355D01*
X106773218Y-173638732D01*
X106774363Y-173613005D01*
X106767346Y-173584330D01*
X106764412Y-173567427D01*
X106762287Y-173547009D01*
X106762287Y-173547008D01*
X106761358Y-173538084D01*
X106751619Y-173514266D01*
X106745860Y-173496538D01*
X106741873Y-173480248D01*
X106741871Y-173480243D01*
X106739737Y-173471524D01*
X106735242Y-173463756D01*
X106735239Y-173463747D01*
X106724955Y-173445972D01*
X106717391Y-173430565D01*
X106714960Y-173424620D01*
X106706227Y-173403262D01*
X106690190Y-173383129D01*
X106679685Y-173367727D01*
X106671290Y-173353218D01*
X106666794Y-173345447D01*
X106645442Y-173325079D01*
X106633856Y-173312411D01*
X106621066Y-173296355D01*
X106615473Y-173289334D01*
X106594432Y-173274514D01*
X106580018Y-173262672D01*
X106567891Y-173251103D01*
X106567888Y-173251101D01*
X106561397Y-173244909D01*
X106553431Y-173240789D01*
X106553428Y-173240787D01*
X106535186Y-173231353D01*
X106520511Y-173222447D01*
X106503734Y-173210630D01*
X106496390Y-173205457D01*
X106472032Y-173197136D01*
X106454890Y-173189823D01*
X106432019Y-173177995D01*
X106423205Y-173176274D01*
X106423202Y-173176273D01*
X106397629Y-173171279D01*
X106393806Y-173170415D01*
X106390480Y-173169279D01*
X106359364Y-173163787D01*
X106357117Y-173163370D01*
X106297871Y-173151802D01*
X106297870Y-173151802D01*
X106289061Y-173150082D01*
X106285174Y-173150439D01*
X106281172Y-173149986D01*
X72663242Y-167216561D01*
X72643796Y-167211501D01*
X72631233Y-167207136D01*
X72631228Y-167207135D01*
X72622751Y-167204190D01*
X72613788Y-167203743D01*
X72613785Y-167203742D01*
X72603261Y-167203217D01*
X72580944Y-167200085D01*
X72323931Y-167140183D01*
X72286445Y-167131446D01*
X72274556Y-167128052D01*
X71960315Y-167021415D01*
X71948816Y-167016872D01*
X71784489Y-166942437D01*
X71646542Y-166879951D01*
X71635547Y-166874305D01*
X71559982Y-166830688D01*
X71348151Y-166708418D01*
X71337758Y-166701719D01*
X71067999Y-166508458D01*
X71058314Y-166500773D01*
X70808799Y-166282008D01*
X70799913Y-166273410D01*
X70573046Y-166031246D01*
X70565046Y-166021819D01*
X70362993Y-165758570D01*
X70355955Y-165748404D01*
X70180692Y-165466643D01*
X70174684Y-165455837D01*
X70027870Y-165158238D01*
X70022950Y-165146894D01*
X69989420Y-165057845D01*
X69906014Y-164836341D01*
X69902230Y-164824570D01*
X69816294Y-164504052D01*
X69813682Y-164491967D01*
X69759574Y-164164570D01*
X69758159Y-164152287D01*
X69736401Y-163821160D01*
X69736197Y-163808797D01*
X69746996Y-163477142D01*
X69748003Y-163464830D01*
X69774091Y-163266403D01*
X69786453Y-163172380D01*
X69792350Y-163147474D01*
X69793118Y-163145261D01*
X69793119Y-163145257D01*
X69796063Y-163136779D01*
X69797717Y-163103596D01*
X69799495Y-163087873D01*
X69803890Y-163063089D01*
X71023584Y-156184013D01*
X90650049Y-156184013D01*
X90660938Y-156461152D01*
X90710767Y-156733991D01*
X90798543Y-156997088D01*
X90800535Y-157001075D01*
X90800536Y-157001077D01*
X90882179Y-157164470D01*
X90922513Y-157245192D01*
X91080206Y-157473354D01*
X91083228Y-157476623D01*
X91265457Y-157673758D01*
X91265462Y-157673763D01*
X91268473Y-157677020D01*
X91483558Y-157852127D01*
X91721171Y-157995182D01*
X91725266Y-157996916D01*
X91725268Y-157996917D01*
X91972469Y-158101593D01*
X91972476Y-158101595D01*
X91976570Y-158103329D01*
X92075343Y-158129518D01*
X92240362Y-158173273D01*
X92240367Y-158173274D01*
X92244659Y-158174412D01*
X92249068Y-158174934D01*
X92249074Y-158174935D01*
X92429246Y-158196259D01*
X92520089Y-158207011D01*
X92797365Y-158200477D01*
X92883601Y-158186123D01*
X93066564Y-158155670D01*
X93066568Y-158155669D01*
X93070954Y-158154939D01*
X93075195Y-158153598D01*
X93075198Y-158153597D01*
X93331151Y-158072650D01*
X93331153Y-158072649D01*
X93335397Y-158071307D01*
X93339408Y-158069381D01*
X93339413Y-158069379D01*
X93581399Y-157953179D01*
X93581400Y-157953178D01*
X93585418Y-157951249D01*
X93760865Y-157834019D01*
X360570047Y-157834019D01*
X360580936Y-158111158D01*
X360630765Y-158383997D01*
X360718541Y-158647094D01*
X360720533Y-158651081D01*
X360720534Y-158651083D01*
X360802177Y-158814476D01*
X360842511Y-158895198D01*
X361000204Y-159123360D01*
X361003226Y-159126629D01*
X361185455Y-159323764D01*
X361185460Y-159323769D01*
X361188471Y-159327026D01*
X361403556Y-159502133D01*
X361641169Y-159645188D01*
X361645264Y-159646922D01*
X361645266Y-159646923D01*
X361892467Y-159751599D01*
X361892474Y-159751601D01*
X361896568Y-159753335D01*
X361995341Y-159779524D01*
X362160360Y-159823279D01*
X362160365Y-159823280D01*
X362164657Y-159824418D01*
X362169066Y-159824940D01*
X362169072Y-159824941D01*
X362349244Y-159846265D01*
X362440087Y-159857017D01*
X362717363Y-159850483D01*
X362803599Y-159836129D01*
X362986562Y-159805676D01*
X362986566Y-159805675D01*
X362990952Y-159804945D01*
X362995193Y-159803604D01*
X362995196Y-159803603D01*
X363251149Y-159722656D01*
X363251151Y-159722655D01*
X363255395Y-159721313D01*
X363259406Y-159719387D01*
X363259411Y-159719385D01*
X363501397Y-159603185D01*
X363501398Y-159603184D01*
X363505416Y-159601255D01*
X363657974Y-159499319D01*
X363732318Y-159449644D01*
X363732322Y-159449641D01*
X363736026Y-159447166D01*
X363942624Y-159262121D01*
X364121088Y-159049812D01*
X364267857Y-158814476D01*
X364380003Y-158560807D01*
X364455288Y-158293867D01*
X364473948Y-158154939D01*
X364491782Y-158022165D01*
X364491783Y-158022157D01*
X364492209Y-158018983D01*
X364496084Y-157895694D01*
X364476495Y-157619034D01*
X364475006Y-157612115D01*
X364419057Y-157352241D01*
X364419056Y-157352239D01*
X364418121Y-157347894D01*
X364322124Y-157087684D01*
X364294240Y-157036005D01*
X364192534Y-156847512D01*
X364190421Y-156843596D01*
X364025640Y-156620501D01*
X364022521Y-156617332D01*
X364022517Y-156617328D01*
X363929696Y-156523037D01*
X363831069Y-156422849D01*
X363827529Y-156420147D01*
X363614134Y-156257289D01*
X363614130Y-156257286D01*
X363610589Y-156254584D01*
X363368600Y-156119063D01*
X363364451Y-156117458D01*
X363364447Y-156117456D01*
X363209245Y-156057414D01*
X363109930Y-156018992D01*
X363105605Y-156017989D01*
X363105600Y-156017988D01*
X362997310Y-155992888D01*
X362839741Y-155956365D01*
X362563422Y-155932433D01*
X362558987Y-155932677D01*
X362558983Y-155932677D01*
X362290932Y-155947429D01*
X362290925Y-155947430D01*
X362286489Y-155947674D01*
X362156754Y-155973480D01*
X362018837Y-156000913D01*
X362018832Y-156000914D01*
X362014465Y-156001783D01*
X362010262Y-156003259D01*
X361756988Y-156092202D01*
X361756985Y-156092203D01*
X361752780Y-156093680D01*
X361748827Y-156095733D01*
X361748821Y-156095736D01*
X361609315Y-156168204D01*
X361506654Y-156221532D01*
X361503039Y-156224115D01*
X361503033Y-156224119D01*
X361360252Y-156326152D01*
X361280997Y-156382789D01*
X361080313Y-156574232D01*
X360908606Y-156792042D01*
X360906374Y-156795884D01*
X360906371Y-156795889D01*
X360771539Y-157028018D01*
X360771536Y-157028024D01*
X360769301Y-157031872D01*
X360767627Y-157036005D01*
X360666852Y-157284806D01*
X360666849Y-157284814D01*
X360665179Y-157288938D01*
X360598316Y-157558111D01*
X360592478Y-157615087D01*
X360573824Y-157797160D01*
X360570047Y-157834019D01*
X93760865Y-157834019D01*
X93767498Y-157829587D01*
X93812320Y-157799638D01*
X93812324Y-157799635D01*
X93816028Y-157797160D01*
X94022626Y-157612115D01*
X94201090Y-157399806D01*
X94347859Y-157164470D01*
X94460005Y-156910801D01*
X94535290Y-156643861D01*
X94565338Y-156420147D01*
X94571784Y-156372159D01*
X94571785Y-156372151D01*
X94572211Y-156368977D01*
X94572312Y-156365766D01*
X94575985Y-156248910D01*
X94575985Y-156248905D01*
X94576086Y-156245688D01*
X94556497Y-155969028D01*
X94553988Y-155957371D01*
X94499059Y-155702235D01*
X94499058Y-155702233D01*
X94498123Y-155697888D01*
X94402126Y-155437678D01*
X94374242Y-155385999D01*
X94272536Y-155197506D01*
X94270423Y-155193590D01*
X94105642Y-154970495D01*
X94102523Y-154967326D01*
X94102519Y-154967322D01*
X94009698Y-154873031D01*
X93911071Y-154772843D01*
X93907531Y-154770141D01*
X93694136Y-154607283D01*
X93694132Y-154607280D01*
X93690591Y-154604578D01*
X93448602Y-154469057D01*
X93444453Y-154467452D01*
X93444449Y-154467450D01*
X93289247Y-154407408D01*
X93189932Y-154368986D01*
X93185607Y-154367983D01*
X93185602Y-154367982D01*
X93077312Y-154342882D01*
X92919743Y-154306359D01*
X92643424Y-154282427D01*
X92638989Y-154282671D01*
X92638985Y-154282671D01*
X92370934Y-154297423D01*
X92370927Y-154297424D01*
X92366491Y-154297668D01*
X92231500Y-154324519D01*
X92098839Y-154350907D01*
X92098834Y-154350908D01*
X92094467Y-154351777D01*
X92090264Y-154353253D01*
X91836990Y-154442196D01*
X91836987Y-154442197D01*
X91832782Y-154443674D01*
X91828829Y-154445727D01*
X91828823Y-154445730D01*
X91689317Y-154518198D01*
X91586656Y-154571526D01*
X91583041Y-154574109D01*
X91583035Y-154574113D01*
X91440254Y-154676146D01*
X91360999Y-154732783D01*
X91160315Y-154924226D01*
X90988608Y-155142036D01*
X90986376Y-155145878D01*
X90986373Y-155145883D01*
X90851541Y-155378012D01*
X90851538Y-155378018D01*
X90849303Y-155381866D01*
X90847629Y-155385999D01*
X90746854Y-155634800D01*
X90746851Y-155634808D01*
X90745181Y-155638932D01*
X90678318Y-155908105D01*
X90650049Y-156184013D01*
X71023584Y-156184013D01*
X73325002Y-143204017D01*
X150490050Y-143204017D01*
X150500939Y-143481156D01*
X150550768Y-143753995D01*
X150552177Y-143758218D01*
X150623580Y-143972238D01*
X150638544Y-144017092D01*
X150640536Y-144021079D01*
X150640537Y-144021081D01*
X150751665Y-144243483D01*
X150762514Y-144265196D01*
X150920207Y-144493358D01*
X150943830Y-144518913D01*
X151105458Y-144693762D01*
X151105463Y-144693767D01*
X151108474Y-144697024D01*
X151323559Y-144872131D01*
X151561172Y-145015186D01*
X151565267Y-145016920D01*
X151565269Y-145016921D01*
X151812470Y-145121597D01*
X151812477Y-145121599D01*
X151816571Y-145123333D01*
X151915344Y-145149522D01*
X152080363Y-145193277D01*
X152080368Y-145193278D01*
X152084660Y-145194416D01*
X152089069Y-145194938D01*
X152089075Y-145194939D01*
X152269247Y-145216263D01*
X152360090Y-145227015D01*
X152637366Y-145220481D01*
X152723602Y-145206127D01*
X152906565Y-145175674D01*
X152906569Y-145175673D01*
X152910955Y-145174943D01*
X152915196Y-145173602D01*
X152915199Y-145173601D01*
X153171152Y-145092654D01*
X153171154Y-145092653D01*
X153175398Y-145091311D01*
X153179409Y-145089385D01*
X153179414Y-145089383D01*
X153421400Y-144973183D01*
X153421401Y-144973182D01*
X153425419Y-144971253D01*
X153577977Y-144869317D01*
X153652321Y-144819642D01*
X153652325Y-144819639D01*
X153656029Y-144817164D01*
X153862627Y-144632119D01*
X154012338Y-144454016D01*
X300380048Y-144454016D01*
X300380223Y-144458468D01*
X300387163Y-144635091D01*
X300390937Y-144731155D01*
X300440766Y-145003994D01*
X300528542Y-145267091D01*
X300530534Y-145271078D01*
X300530535Y-145271080D01*
X300612178Y-145434473D01*
X300652512Y-145515195D01*
X300810205Y-145743357D01*
X300813227Y-145746626D01*
X300995456Y-145943761D01*
X300995461Y-145943766D01*
X300998472Y-145947023D01*
X301213557Y-146122130D01*
X301451170Y-146265185D01*
X301455265Y-146266919D01*
X301455267Y-146266920D01*
X301702468Y-146371596D01*
X301702475Y-146371598D01*
X301706569Y-146373332D01*
X301805342Y-146399521D01*
X301970361Y-146443276D01*
X301970366Y-146443277D01*
X301974658Y-146444415D01*
X301979067Y-146444937D01*
X301979073Y-146444938D01*
X302159245Y-146466262D01*
X302250088Y-146477014D01*
X302527364Y-146470480D01*
X302613600Y-146456126D01*
X302796563Y-146425673D01*
X302796567Y-146425672D01*
X302800953Y-146424942D01*
X302805194Y-146423601D01*
X302805197Y-146423600D01*
X303061150Y-146342653D01*
X303061152Y-146342652D01*
X303065396Y-146341310D01*
X303069407Y-146339384D01*
X303069412Y-146339382D01*
X303311398Y-146223182D01*
X303311399Y-146223181D01*
X303315417Y-146221252D01*
X303467975Y-146119316D01*
X303542319Y-146069641D01*
X303542323Y-146069638D01*
X303546027Y-146067163D01*
X303752625Y-145882118D01*
X303931089Y-145669809D01*
X304077858Y-145434473D01*
X304190004Y-145180804D01*
X304192036Y-145173601D01*
X304237361Y-145012888D01*
X304265289Y-144913864D01*
X304271272Y-144869317D01*
X304301783Y-144642162D01*
X304301784Y-144642154D01*
X304302210Y-144638980D01*
X304306085Y-144515691D01*
X304286496Y-144239031D01*
X304275565Y-144188255D01*
X304229058Y-143972238D01*
X304229057Y-143972236D01*
X304228122Y-143967891D01*
X304132125Y-143707681D01*
X304104241Y-143656002D01*
X304002535Y-143467509D01*
X304000422Y-143463593D01*
X303923912Y-143360007D01*
X303838290Y-143244084D01*
X303838288Y-143244081D01*
X303835641Y-143240498D01*
X303832522Y-143237329D01*
X303832518Y-143237325D01*
X303739697Y-143143034D01*
X303641070Y-143042846D01*
X303637530Y-143040144D01*
X303424135Y-142877286D01*
X303424131Y-142877283D01*
X303420590Y-142874581D01*
X303178601Y-142739060D01*
X303174452Y-142737455D01*
X303174448Y-142737453D01*
X302971491Y-142658936D01*
X302919931Y-142638989D01*
X302915606Y-142637986D01*
X302915601Y-142637985D01*
X302807311Y-142612885D01*
X302649742Y-142576362D01*
X302373423Y-142552430D01*
X302368988Y-142552674D01*
X302368984Y-142552674D01*
X302100933Y-142567426D01*
X302100926Y-142567427D01*
X302096490Y-142567671D01*
X301961499Y-142594522D01*
X301828838Y-142620910D01*
X301828833Y-142620911D01*
X301824466Y-142621780D01*
X301820263Y-142623256D01*
X301566989Y-142712199D01*
X301566986Y-142712200D01*
X301562781Y-142713677D01*
X301558828Y-142715730D01*
X301558822Y-142715733D01*
X301419316Y-142788201D01*
X301316655Y-142841529D01*
X301313040Y-142844112D01*
X301313034Y-142844116D01*
X301201550Y-142923784D01*
X301090998Y-143002786D01*
X300890314Y-143194229D01*
X300718607Y-143412039D01*
X300716375Y-143415881D01*
X300716372Y-143415886D01*
X300581540Y-143648015D01*
X300581537Y-143648021D01*
X300579302Y-143651869D01*
X300577628Y-143656002D01*
X300476853Y-143904803D01*
X300476850Y-143904811D01*
X300475180Y-143908935D01*
X300408317Y-144178108D01*
X300402075Y-144239031D01*
X300383204Y-144423218D01*
X300380048Y-144454016D01*
X154012338Y-144454016D01*
X154041091Y-144419810D01*
X154187860Y-144184474D01*
X154300006Y-143930805D01*
X154307340Y-143904803D01*
X154325194Y-143841495D01*
X154375291Y-143663865D01*
X154402672Y-143460011D01*
X154411785Y-143392163D01*
X154411786Y-143392155D01*
X154412212Y-143388981D01*
X154416087Y-143265692D01*
X154414079Y-143237325D01*
X154397472Y-143002786D01*
X154396498Y-142989032D01*
X154338124Y-142717892D01*
X154242127Y-142457682D01*
X154214243Y-142406003D01*
X154112537Y-142217510D01*
X154110424Y-142213594D01*
X153945643Y-141990499D01*
X153942524Y-141987330D01*
X153942520Y-141987326D01*
X153849699Y-141893035D01*
X153751072Y-141792847D01*
X153747532Y-141790145D01*
X153534137Y-141627287D01*
X153534133Y-141627284D01*
X153530592Y-141624582D01*
X153288603Y-141489061D01*
X153284454Y-141487456D01*
X153284450Y-141487454D01*
X153129248Y-141427412D01*
X153029933Y-141388990D01*
X153025608Y-141387987D01*
X153025603Y-141387986D01*
X152917313Y-141362886D01*
X152759744Y-141326363D01*
X152483425Y-141302431D01*
X152478990Y-141302675D01*
X152478986Y-141302675D01*
X152210935Y-141317427D01*
X152210928Y-141317428D01*
X152206492Y-141317672D01*
X152071501Y-141344523D01*
X151938840Y-141370911D01*
X151938835Y-141370912D01*
X151934468Y-141371781D01*
X151930265Y-141373257D01*
X151676991Y-141462200D01*
X151676988Y-141462201D01*
X151672783Y-141463678D01*
X151668830Y-141465731D01*
X151668824Y-141465734D01*
X151529318Y-141538202D01*
X151426657Y-141591530D01*
X151423042Y-141594113D01*
X151423036Y-141594117D01*
X151280255Y-141696150D01*
X151201000Y-141752787D01*
X151000316Y-141944230D01*
X150828609Y-142162040D01*
X150826377Y-142165882D01*
X150826374Y-142165887D01*
X150691542Y-142398016D01*
X150691539Y-142398022D01*
X150689304Y-142401870D01*
X150687630Y-142406003D01*
X150586855Y-142654804D01*
X150586852Y-142654812D01*
X150585182Y-142658936D01*
X150565279Y-142739060D01*
X150530944Y-142877286D01*
X150518319Y-142928109D01*
X150512077Y-142989032D01*
X150490695Y-143197726D01*
X150490050Y-143204017D01*
X73325002Y-143204017D01*
X77369330Y-120394013D01*
X193180053Y-120394013D01*
X193190942Y-120671152D01*
X193191742Y-120675532D01*
X193233416Y-120903716D01*
X193240771Y-120943991D01*
X193328547Y-121207088D01*
X193330539Y-121211075D01*
X193330540Y-121211077D01*
X193421949Y-121394015D01*
X193452517Y-121455192D01*
X193610210Y-121683354D01*
X193613232Y-121686623D01*
X193795461Y-121883758D01*
X193795466Y-121883763D01*
X193798477Y-121887020D01*
X194013562Y-122062127D01*
X194017380Y-122064426D01*
X194017382Y-122064427D01*
X194111022Y-122120803D01*
X194251175Y-122205182D01*
X194255270Y-122206916D01*
X194255272Y-122206917D01*
X194502473Y-122311593D01*
X194502480Y-122311595D01*
X194506574Y-122313329D01*
X194605347Y-122339518D01*
X194770366Y-122383273D01*
X194770371Y-122383274D01*
X194774663Y-122384412D01*
X194779072Y-122384934D01*
X194779078Y-122384935D01*
X194959250Y-122406259D01*
X195050093Y-122417011D01*
X195327369Y-122410477D01*
X195413605Y-122396123D01*
X195596568Y-122365670D01*
X195596572Y-122365669D01*
X195600958Y-122364939D01*
X195605199Y-122363598D01*
X195605202Y-122363597D01*
X195861155Y-122282650D01*
X195861157Y-122282649D01*
X195865401Y-122281307D01*
X195869412Y-122279381D01*
X195869417Y-122279379D01*
X196111403Y-122163179D01*
X196111404Y-122163178D01*
X196115422Y-122161249D01*
X196267980Y-122059313D01*
X196342324Y-122009638D01*
X196342328Y-122009635D01*
X196346032Y-122007160D01*
X196552630Y-121822115D01*
X196731094Y-121609806D01*
X196865674Y-121394015D01*
X257630048Y-121394015D01*
X257630223Y-121398467D01*
X257638527Y-121609806D01*
X257640937Y-121671154D01*
X257690766Y-121943993D01*
X257778542Y-122207090D01*
X257780534Y-122211077D01*
X257780535Y-122211079D01*
X257883381Y-122416906D01*
X257902512Y-122455194D01*
X258060205Y-122683356D01*
X258063227Y-122686625D01*
X258245456Y-122883760D01*
X258245461Y-122883765D01*
X258248472Y-122887022D01*
X258463557Y-123062129D01*
X258701170Y-123205184D01*
X258705265Y-123206918D01*
X258705267Y-123206919D01*
X258952468Y-123311595D01*
X258952475Y-123311597D01*
X258956569Y-123313331D01*
X259055342Y-123339520D01*
X259220361Y-123383275D01*
X259220366Y-123383276D01*
X259224658Y-123384414D01*
X259229067Y-123384936D01*
X259229073Y-123384937D01*
X259409245Y-123406261D01*
X259500088Y-123417013D01*
X259777364Y-123410479D01*
X259863600Y-123396125D01*
X260046563Y-123365672D01*
X260046567Y-123365671D01*
X260050953Y-123364941D01*
X260055194Y-123363600D01*
X260055197Y-123363599D01*
X260311150Y-123282652D01*
X260311152Y-123282651D01*
X260315396Y-123281309D01*
X260319407Y-123279383D01*
X260319412Y-123279381D01*
X260561398Y-123163181D01*
X260561399Y-123163180D01*
X260565417Y-123161251D01*
X260717975Y-123059315D01*
X260792319Y-123009640D01*
X260792323Y-123009637D01*
X260796027Y-123007162D01*
X261002625Y-122822117D01*
X261181089Y-122609808D01*
X261327858Y-122374472D01*
X261440004Y-122120803D01*
X261515289Y-121853863D01*
X261547612Y-121613214D01*
X261551783Y-121582161D01*
X261551784Y-121582153D01*
X261552210Y-121578979D01*
X261556085Y-121455690D01*
X261536496Y-121179030D01*
X261486804Y-120948214D01*
X261479058Y-120912237D01*
X261479057Y-120912235D01*
X261478122Y-120907890D01*
X261382125Y-120647680D01*
X261354241Y-120596001D01*
X261252535Y-120407508D01*
X261250422Y-120403592D01*
X261085641Y-120180497D01*
X261082522Y-120177328D01*
X261082518Y-120177324D01*
X260989697Y-120083033D01*
X260891070Y-119982845D01*
X260887530Y-119980143D01*
X260674135Y-119817285D01*
X260674131Y-119817282D01*
X260670590Y-119814580D01*
X260428601Y-119679059D01*
X260424452Y-119677454D01*
X260424448Y-119677452D01*
X260203219Y-119591866D01*
X260169931Y-119578988D01*
X260165606Y-119577985D01*
X260165601Y-119577984D01*
X260057311Y-119552884D01*
X259899742Y-119516361D01*
X259623423Y-119492429D01*
X259618988Y-119492673D01*
X259618984Y-119492673D01*
X259350933Y-119507425D01*
X259350926Y-119507426D01*
X259346490Y-119507670D01*
X259211499Y-119534521D01*
X259078838Y-119560909D01*
X259078833Y-119560910D01*
X259074466Y-119561779D01*
X259070263Y-119563255D01*
X258816989Y-119652198D01*
X258816986Y-119652199D01*
X258812781Y-119653676D01*
X258808828Y-119655729D01*
X258808822Y-119655732D01*
X258669316Y-119728200D01*
X258566655Y-119781528D01*
X258563040Y-119784111D01*
X258563034Y-119784115D01*
X258420253Y-119886148D01*
X258340998Y-119942785D01*
X258140314Y-120134228D01*
X257968607Y-120352038D01*
X257966375Y-120355880D01*
X257966372Y-120355885D01*
X257831540Y-120588014D01*
X257831537Y-120588020D01*
X257829302Y-120591868D01*
X257827628Y-120596001D01*
X257726853Y-120844802D01*
X257726850Y-120844810D01*
X257725180Y-120848934D01*
X257658317Y-121118107D01*
X257639362Y-121303113D01*
X257632051Y-121374470D01*
X257630048Y-121394015D01*
X196865674Y-121394015D01*
X196877863Y-121374470D01*
X196990009Y-121120801D01*
X197065294Y-120853861D01*
X197092987Y-120647680D01*
X197101788Y-120582159D01*
X197101789Y-120582151D01*
X197102215Y-120578977D01*
X197106090Y-120455688D01*
X197086501Y-120179028D01*
X197044948Y-119986017D01*
X197029063Y-119912235D01*
X197029062Y-119912233D01*
X197028127Y-119907888D01*
X196932130Y-119647678D01*
X196904246Y-119595999D01*
X196802540Y-119407506D01*
X196800427Y-119403590D01*
X196635646Y-119180495D01*
X196632527Y-119177326D01*
X196632523Y-119177322D01*
X196539702Y-119083031D01*
X196441075Y-118982843D01*
X196437535Y-118980141D01*
X196224140Y-118817283D01*
X196224136Y-118817280D01*
X196220595Y-118814578D01*
X195978606Y-118679057D01*
X195974457Y-118677452D01*
X195974453Y-118677450D01*
X195819251Y-118617408D01*
X195719936Y-118578986D01*
X195715611Y-118577983D01*
X195715606Y-118577982D01*
X195607316Y-118552882D01*
X195449747Y-118516359D01*
X195173428Y-118492427D01*
X195168993Y-118492671D01*
X195168989Y-118492671D01*
X194900938Y-118507423D01*
X194900931Y-118507424D01*
X194896495Y-118507668D01*
X194761504Y-118534519D01*
X194628843Y-118560907D01*
X194628838Y-118560908D01*
X194624471Y-118561777D01*
X194620268Y-118563253D01*
X194366994Y-118652196D01*
X194366991Y-118652197D01*
X194362786Y-118653674D01*
X194358833Y-118655727D01*
X194358827Y-118655730D01*
X194219321Y-118728198D01*
X194116660Y-118781526D01*
X194113045Y-118784109D01*
X194113039Y-118784113D01*
X193970258Y-118886146D01*
X193891003Y-118942783D01*
X193690319Y-119134226D01*
X193518612Y-119352036D01*
X193516380Y-119355878D01*
X193516377Y-119355883D01*
X193381545Y-119588012D01*
X193381542Y-119588018D01*
X193379307Y-119591866D01*
X193377633Y-119595999D01*
X193276858Y-119844800D01*
X193276855Y-119844808D01*
X193275185Y-119848932D01*
X193208322Y-120118105D01*
X193201624Y-120183480D01*
X193183960Y-120355885D01*
X193180053Y-120394013D01*
X77369330Y-120394013D01*
X80631742Y-101994013D01*
X99950052Y-101994013D01*
X99960941Y-102271152D01*
X99961741Y-102275532D01*
X99996927Y-102468191D01*
X100010770Y-102543991D01*
X100098546Y-102807088D01*
X100100538Y-102811075D01*
X100100539Y-102811077D01*
X100182182Y-102974470D01*
X100222516Y-103055192D01*
X100380209Y-103283354D01*
X100383231Y-103286623D01*
X100565460Y-103483758D01*
X100565465Y-103483763D01*
X100568476Y-103487020D01*
X100783561Y-103662127D01*
X101021174Y-103805182D01*
X101025269Y-103806916D01*
X101025271Y-103806917D01*
X101272472Y-103911593D01*
X101272479Y-103911595D01*
X101276573Y-103913329D01*
X101375346Y-103939518D01*
X101540365Y-103983273D01*
X101540370Y-103983274D01*
X101544662Y-103984412D01*
X101549071Y-103984934D01*
X101549077Y-103984935D01*
X101729249Y-104006259D01*
X101820092Y-104017011D01*
X102097368Y-104010477D01*
X102190371Y-103994997D01*
X102366567Y-103965670D01*
X102366571Y-103965669D01*
X102370957Y-103964939D01*
X102375198Y-103963598D01*
X102375201Y-103963597D01*
X102631154Y-103882650D01*
X102631156Y-103882649D01*
X102635400Y-103881307D01*
X102639411Y-103879381D01*
X102639416Y-103879379D01*
X102881402Y-103763179D01*
X102881403Y-103763178D01*
X102885421Y-103761249D01*
X103058632Y-103645513D01*
X103112323Y-103609638D01*
X103112327Y-103609635D01*
X103116031Y-103607160D01*
X103322629Y-103422115D01*
X103501093Y-103209806D01*
X103647862Y-102974470D01*
X103760008Y-102720801D01*
X103762665Y-102711382D01*
X103785196Y-102631491D01*
X103835293Y-102453861D01*
X103850835Y-102338149D01*
X103871787Y-102182159D01*
X103871788Y-102182151D01*
X103872214Y-102178977D01*
X103872951Y-102155535D01*
X103875988Y-102058910D01*
X103875988Y-102058905D01*
X103876089Y-102055688D01*
X103856500Y-101779028D01*
X103832353Y-101666865D01*
X103799062Y-101512235D01*
X103799061Y-101512233D01*
X103798126Y-101507888D01*
X103702129Y-101247678D01*
X103674245Y-101195999D01*
X103572539Y-101007506D01*
X103570426Y-101003590D01*
X103405645Y-100780495D01*
X103402526Y-100777326D01*
X103402522Y-100777322D01*
X103291049Y-100664084D01*
X103211074Y-100582843D01*
X103207534Y-100580141D01*
X102994139Y-100417283D01*
X102994135Y-100417280D01*
X102990594Y-100414578D01*
X102748605Y-100279057D01*
X102744456Y-100277452D01*
X102744452Y-100277450D01*
X102589250Y-100217408D01*
X102489935Y-100178986D01*
X102485610Y-100177983D01*
X102485605Y-100177982D01*
X102377315Y-100152882D01*
X102219746Y-100116359D01*
X101943427Y-100092427D01*
X101938992Y-100092671D01*
X101938988Y-100092671D01*
X101670937Y-100107423D01*
X101670930Y-100107424D01*
X101666494Y-100107668D01*
X101535738Y-100133677D01*
X101398842Y-100160907D01*
X101398837Y-100160908D01*
X101394470Y-100161777D01*
X101390267Y-100163253D01*
X101136993Y-100252196D01*
X101136990Y-100252197D01*
X101132785Y-100253674D01*
X101128832Y-100255727D01*
X101128826Y-100255730D01*
X101048828Y-100297286D01*
X100886659Y-100381526D01*
X100883044Y-100384109D01*
X100883038Y-100384113D01*
X100828921Y-100422786D01*
X100661002Y-100542783D01*
X100460318Y-100734226D01*
X100288611Y-100952036D01*
X100286379Y-100955878D01*
X100286376Y-100955883D01*
X100151544Y-101188012D01*
X100151541Y-101188018D01*
X100149306Y-101191866D01*
X100147632Y-101195999D01*
X100046857Y-101444800D01*
X100046854Y-101444808D01*
X100045184Y-101448932D01*
X100007027Y-101602541D01*
X99994078Y-101654673D01*
X99978321Y-101718105D01*
X99950052Y-101994013D01*
X80631742Y-101994013D01*
X80936097Y-100277450D01*
X82483606Y-91549503D01*
X82488647Y-91530157D01*
X82493117Y-91517287D01*
X82496063Y-91508806D01*
X82497035Y-91489309D01*
X82500167Y-91466988D01*
X82568790Y-91172499D01*
X82572183Y-91160609D01*
X82662430Y-90894627D01*
X82678811Y-90846350D01*
X82683345Y-90834871D01*
X82820264Y-90532575D01*
X82825908Y-90521584D01*
X82991789Y-90234179D01*
X82998488Y-90223786D01*
X83191739Y-89954025D01*
X83199425Y-89944338D01*
X83418190Y-89694817D01*
X83426788Y-89685931D01*
X83668953Y-89459057D01*
X83678381Y-89451056D01*
X83941618Y-89249011D01*
X83951784Y-89241973D01*
X84233556Y-89066703D01*
X84244363Y-89060695D01*
X84395700Y-88986038D01*
X84541969Y-88913881D01*
X84553301Y-88908967D01*
X84741209Y-88838215D01*
X84863860Y-88792034D01*
X84875631Y-88788250D01*
X85035892Y-88745285D01*
X85196162Y-88702317D01*
X85208233Y-88699709D01*
X85372698Y-88672533D01*
X85535635Y-88645610D01*
X85547918Y-88644195D01*
X85879047Y-88622447D01*
X85891411Y-88622243D01*
X86039811Y-88627081D01*
X86223081Y-88633057D01*
X86235390Y-88634064D01*
X86445581Y-88661708D01*
X86527890Y-88672533D01*
X86552803Y-88678433D01*
X86554953Y-88679180D01*
X86554957Y-88679181D01*
X86563436Y-88682126D01*
X86597155Y-88683808D01*
X86612665Y-88685550D01*
X119335376Y-94433318D01*
X119428684Y-94449904D01*
X119437612Y-94448931D01*
X119437614Y-94448931D01*
X119456810Y-94446839D01*
X119474444Y-94446160D01*
X119492747Y-94446739D01*
X119502705Y-94447054D01*
X119528817Y-94440307D01*
X119546681Y-94437043D01*
X119552569Y-94436402D01*
X119564560Y-94435095D01*
X119564562Y-94435094D01*
X119573484Y-94434122D01*
X119599607Y-94423291D01*
X119616338Y-94417692D01*
X119643731Y-94410614D01*
X119651445Y-94406018D01*
X119666920Y-94396798D01*
X119683155Y-94388649D01*
X119699745Y-94381771D01*
X119699746Y-94381770D01*
X119708034Y-94378334D01*
X119730046Y-94360623D01*
X119744527Y-94350557D01*
X119768861Y-94336059D01*
X119777119Y-94327177D01*
X119787252Y-94316277D01*
X119800546Y-94303900D01*
X119814526Y-94292652D01*
X119814528Y-94292650D01*
X119821519Y-94287025D01*
X119837663Y-94263867D01*
X119848744Y-94250133D01*
X119851569Y-94247094D01*
X119868037Y-94229380D01*
X119880146Y-94205213D01*
X119889430Y-94189605D01*
X119899683Y-94174896D01*
X119904815Y-94167534D01*
X119907676Y-94159024D01*
X119911023Y-94149068D01*
X119920095Y-94128414D01*
X119938614Y-94094800D01*
X120065070Y-93865260D01*
X120071580Y-93854709D01*
X120088105Y-93830660D01*
X120258374Y-93582853D01*
X120265892Y-93572989D01*
X120478517Y-93320805D01*
X120486969Y-93311728D01*
X120723353Y-93081675D01*
X120732640Y-93073486D01*
X120990516Y-92867773D01*
X121000576Y-92860528D01*
X121079582Y-92809343D01*
X121277407Y-92681179D01*
X121288135Y-92674956D01*
X121581264Y-92523689D01*
X121592552Y-92518551D01*
X121810521Y-92432015D01*
X121899124Y-92396839D01*
X121910852Y-92392839D01*
X122044114Y-92354598D01*
X122227915Y-92301855D01*
X122239990Y-92299025D01*
X122564458Y-92239654D01*
X122576752Y-92238025D01*
X122905477Y-92210844D01*
X122917869Y-92210431D01*
X123210835Y-92215112D01*
X123236269Y-92218123D01*
X123247292Y-92220584D01*
X123256246Y-92220003D01*
X123258216Y-92220156D01*
X123270167Y-92221661D01*
X138750705Y-94928524D01*
X138884032Y-94951837D01*
X138885596Y-94952121D01*
X138956788Y-94965517D01*
X138965725Y-94964634D01*
X138965727Y-94964634D01*
X138988397Y-94962394D01*
X139004672Y-94961843D01*
X139023268Y-94962417D01*
X139036370Y-94962821D01*
X139059121Y-94956924D01*
X139078337Y-94953505D01*
X139081242Y-94953218D01*
X139092810Y-94952075D01*
X139092812Y-94952074D01*
X139101740Y-94951192D01*
X139110064Y-94947839D01*
X139110066Y-94947838D01*
X139131174Y-94939334D01*
X139146642Y-94934237D01*
X139177367Y-94926272D01*
X139185070Y-94921674D01*
X139185076Y-94921672D01*
X139197568Y-94914216D01*
X139215052Y-94905542D01*
X139228517Y-94900117D01*
X139228521Y-94900115D01*
X139236845Y-94896761D01*
X139261741Y-94877139D01*
X139275150Y-94867909D01*
X139302440Y-94851621D01*
X139308551Y-94845038D01*
X139318461Y-94834362D01*
X139332815Y-94821122D01*
X139344190Y-94812156D01*
X139351242Y-94806598D01*
X139369615Y-94780798D01*
X139379893Y-94768179D01*
X139401534Y-94744865D01*
X139412077Y-94723780D01*
X139422140Y-94707042D01*
X139430530Y-94695261D01*
X139435736Y-94687951D01*
X139438679Y-94679478D01*
X139438682Y-94679473D01*
X139446121Y-94658057D01*
X139452449Y-94643048D01*
X139462665Y-94622619D01*
X139466681Y-94614588D01*
X139468334Y-94605466D01*
X139470884Y-94591385D01*
X139475844Y-94572496D01*
X139480588Y-94558841D01*
X139480589Y-94558836D01*
X139483534Y-94550359D01*
X139484484Y-94531327D01*
X139487682Y-94508728D01*
X139555802Y-94219464D01*
X139559414Y-94207029D01*
X139579579Y-94148933D01*
X139666368Y-93898895D01*
X139671229Y-93886914D01*
X139809249Y-93591365D01*
X139815320Y-93579937D01*
X139982933Y-93300126D01*
X139990149Y-93289375D01*
X140002635Y-93272692D01*
X140185593Y-93028244D01*
X140193863Y-93018303D01*
X140415080Y-92778601D01*
X140424334Y-92769555D01*
X140668979Y-92553825D01*
X140679117Y-92545772D01*
X140944591Y-92356301D01*
X140955502Y-92349331D01*
X141239038Y-92188092D01*
X141250602Y-92182280D01*
X141549195Y-92050989D01*
X141561298Y-92046395D01*
X141871771Y-91946446D01*
X141884260Y-91943122D01*
X142203376Y-91875558D01*
X142216156Y-91873532D01*
X142378331Y-91856303D01*
X142540513Y-91839074D01*
X142553428Y-91838370D01*
X142714337Y-91837883D01*
X142879594Y-91837382D01*
X142892527Y-91838008D01*
X143024265Y-91851196D01*
X143180786Y-91866866D01*
X143206145Y-91872078D01*
X143216534Y-91875356D01*
X143226431Y-91875566D01*
X143241039Y-91875875D01*
X143260184Y-91877749D01*
X159732995Y-94773174D01*
X159752531Y-94778250D01*
X159773374Y-94785491D01*
X159792674Y-94786454D01*
X159815111Y-94789613D01*
X160117127Y-94860304D01*
X160129240Y-94863787D01*
X160141257Y-94867903D01*
X160450357Y-94973777D01*
X160462048Y-94978446D01*
X160702769Y-95088867D01*
X160770588Y-95119976D01*
X160781765Y-95125797D01*
X160863874Y-95173922D01*
X161074600Y-95297432D01*
X161085142Y-95304341D01*
X161142950Y-95346509D01*
X161310711Y-95468883D01*
X161359377Y-95504383D01*
X161369173Y-95512309D01*
X161474373Y-95606511D01*
X161622038Y-95738738D01*
X161630996Y-95747605D01*
X161859982Y-95998173D01*
X161868009Y-96007891D01*
X162070816Y-96280083D01*
X162077831Y-96290554D01*
X162252423Y-96581634D01*
X162258355Y-96592749D01*
X162305141Y-96692075D01*
X162402997Y-96899827D01*
X162407791Y-96911483D01*
X162521032Y-97231480D01*
X162524637Y-97243558D01*
X162592053Y-97518981D01*
X162605336Y-97573250D01*
X162607717Y-97585627D01*
X162655076Y-97921747D01*
X162656208Y-97934301D01*
X162669748Y-98273466D01*
X162669620Y-98286069D01*
X162654762Y-98532712D01*
X162649209Y-98624883D01*
X162647824Y-98637405D01*
X162599489Y-98936445D01*
X162592814Y-98961286D01*
X162588910Y-98971511D01*
X162588190Y-98980461D01*
X162588190Y-98980462D01*
X162585771Y-99010539D01*
X162583998Y-99023765D01*
X162576744Y-99062251D01*
X162578319Y-99078232D01*
X162578520Y-99100690D01*
X162577232Y-99116700D01*
X162579053Y-99125491D01*
X162579053Y-99125494D01*
X162585173Y-99155042D01*
X162587185Y-99168241D01*
X162590144Y-99198276D01*
X162591024Y-99207207D01*
X162597022Y-99222108D01*
X162603517Y-99243602D01*
X162604954Y-99250542D01*
X162604955Y-99250546D01*
X162606775Y-99259331D01*
X162610988Y-99267254D01*
X162610989Y-99267257D01*
X162625157Y-99293903D01*
X162630791Y-99306006D01*
X162642060Y-99334001D01*
X162642062Y-99334005D01*
X162645413Y-99342329D01*
X162650967Y-99349381D01*
X162650968Y-99349382D01*
X162655353Y-99354950D01*
X162667618Y-99373754D01*
X162675160Y-99387937D01*
X162681428Y-99394360D01*
X162681429Y-99394361D01*
X162702506Y-99415958D01*
X162711314Y-99425997D01*
X162729984Y-99449701D01*
X162729987Y-99449704D01*
X162735540Y-99456754D01*
X162742850Y-99461963D01*
X162742852Y-99461965D01*
X162748628Y-99466081D01*
X162765674Y-99480684D01*
X162776893Y-99492180D01*
X162784713Y-99496586D01*
X162811010Y-99511403D01*
X162822282Y-99518566D01*
X162854161Y-99541284D01*
X162862640Y-99544232D01*
X162862643Y-99544234D01*
X162869326Y-99546558D01*
X162889790Y-99555792D01*
X162895971Y-99559274D01*
X162895973Y-99559275D01*
X162903793Y-99563681D01*
X162912533Y-99565715D01*
X162912534Y-99565715D01*
X162941927Y-99572554D01*
X162954765Y-99576269D01*
X162955268Y-99576444D01*
X162955272Y-99576445D01*
X162959870Y-99578044D01*
X162964656Y-99578916D01*
X162964660Y-99578917D01*
X162982912Y-99582242D01*
X162988882Y-99583480D01*
X163036922Y-99594658D01*
X163036926Y-99594658D01*
X163045662Y-99596691D01*
X163054620Y-99596190D01*
X163057982Y-99596481D01*
X163069694Y-99598051D01*
X174407809Y-101663483D01*
X177751497Y-102272593D01*
X177770257Y-102277529D01*
X177793014Y-102285434D01*
X177812511Y-102286407D01*
X177834817Y-102289537D01*
X177911222Y-102307342D01*
X178129325Y-102358170D01*
X178141215Y-102361564D01*
X178455455Y-102468191D01*
X178466955Y-102472734D01*
X178614604Y-102539611D01*
X178769235Y-102609650D01*
X178780225Y-102615294D01*
X178970094Y-102724883D01*
X179067628Y-102781178D01*
X179078018Y-102787875D01*
X179170980Y-102854473D01*
X179347784Y-102981135D01*
X179357470Y-102988821D01*
X179606979Y-103207578D01*
X179615866Y-103216176D01*
X179842744Y-103458349D01*
X179850744Y-103467776D01*
X180052782Y-103731005D01*
X180059821Y-103741171D01*
X180235099Y-104022959D01*
X180241106Y-104033766D01*
X180387912Y-104331356D01*
X180392832Y-104342701D01*
X180509762Y-104653252D01*
X180513546Y-104665023D01*
X180599477Y-104985544D01*
X180602089Y-104997630D01*
X180656190Y-105325026D01*
X180657604Y-105337303D01*
X180667392Y-105486319D01*
X180679354Y-105668436D01*
X180679558Y-105680798D01*
X180668749Y-106012463D01*
X180667740Y-106024787D01*
X180629270Y-106317319D01*
X180623370Y-106342233D01*
X180622638Y-106344339D01*
X180622636Y-106344348D01*
X180619692Y-106352824D01*
X180619245Y-106361789D01*
X180618273Y-106381277D01*
X180616178Y-106398713D01*
X180610817Y-106426681D01*
X180613359Y-106453323D01*
X180613772Y-106471563D01*
X180612439Y-106498301D01*
X180614526Y-106507030D01*
X180619063Y-106526007D01*
X180621946Y-106543333D01*
X180624651Y-106571680D01*
X180627977Y-106580017D01*
X180634569Y-106596540D01*
X180640082Y-106613923D01*
X180646309Y-106639966D01*
X180650762Y-106647758D01*
X180660439Y-106664693D01*
X180668069Y-106680514D01*
X180678624Y-106706969D01*
X180695126Y-106728053D01*
X180705294Y-106743187D01*
X180718578Y-106766432D01*
X180739082Y-106786200D01*
X180750845Y-106799242D01*
X180768399Y-106821671D01*
X180775692Y-106826902D01*
X180775693Y-106826903D01*
X180790151Y-106837273D01*
X180804167Y-106848952D01*
X180823436Y-106867530D01*
X180848665Y-106880750D01*
X180863616Y-106889967D01*
X180886758Y-106906566D01*
X180895226Y-106909540D01*
X180895230Y-106909542D01*
X180912015Y-106915437D01*
X180928742Y-106922711D01*
X180944497Y-106930966D01*
X180944499Y-106930967D01*
X180952454Y-106935135D01*
X180961259Y-106936903D01*
X180986763Y-106942024D01*
X180989632Y-106942694D01*
X180992354Y-106943650D01*
X181023973Y-106949510D01*
X181025787Y-106949860D01*
X181095262Y-106963811D01*
X181098490Y-106963532D01*
X181101706Y-106963918D01*
X195531007Y-109638358D01*
X195549369Y-109643219D01*
X195573040Y-109651440D01*
X195582002Y-109651887D01*
X195582003Y-109651887D01*
X195592536Y-109652412D01*
X195614854Y-109655543D01*
X195909349Y-109724160D01*
X195921239Y-109727553D01*
X196235498Y-109834174D01*
X196246999Y-109838717D01*
X196549272Y-109975619D01*
X196560272Y-109981267D01*
X196847685Y-110147147D01*
X196858079Y-110153847D01*
X197127843Y-110347097D01*
X197137530Y-110354782D01*
X197370741Y-110559243D01*
X197387049Y-110573541D01*
X197395936Y-110582139D01*
X197622819Y-110824310D01*
X197630820Y-110833738D01*
X197832870Y-111096980D01*
X197839908Y-111107147D01*
X198015174Y-111388911D01*
X198021183Y-111399719D01*
X198167996Y-111697330D01*
X198172915Y-111708674D01*
X198289845Y-112019227D01*
X198293627Y-112030989D01*
X198379556Y-112351522D01*
X198382168Y-112363608D01*
X198436264Y-112691015D01*
X198437678Y-112703299D01*
X198459421Y-113034418D01*
X198459625Y-113046782D01*
X198448806Y-113378447D01*
X198447797Y-113390771D01*
X198409339Y-113683143D01*
X198403439Y-113708054D01*
X198402651Y-113710323D01*
X198402650Y-113710327D01*
X198399704Y-113718808D01*
X198398760Y-113737738D01*
X198398014Y-113752677D01*
X198396305Y-113768003D01*
X198392026Y-113792587D01*
X198390487Y-113801431D01*
X198391492Y-113810353D01*
X198392873Y-113822616D01*
X198393509Y-113842986D01*
X198392446Y-113864285D01*
X198394534Y-113873019D01*
X198394534Y-113873020D01*
X198400333Y-113897278D01*
X198402994Y-113912471D01*
X198406790Y-113946174D01*
X198410257Y-113954451D01*
X198410257Y-113954452D01*
X198415026Y-113965837D01*
X198421354Y-113985215D01*
X198426311Y-114005951D01*
X198430765Y-114013746D01*
X198443137Y-114035398D01*
X198449954Y-114049230D01*
X198463061Y-114080523D01*
X198476488Y-114097089D01*
X198487999Y-114113911D01*
X198498575Y-114132419D01*
X198505035Y-114138648D01*
X198505036Y-114138649D01*
X198522998Y-114155968D01*
X198533418Y-114167326D01*
X198554778Y-114193678D01*
X198562162Y-114198786D01*
X198572311Y-114205807D01*
X198588081Y-114218722D01*
X198596964Y-114227287D01*
X198596966Y-114227289D01*
X198603430Y-114233521D01*
X198633479Y-114249267D01*
X198646665Y-114257242D01*
X198674567Y-114276544D01*
X198694804Y-114283266D01*
X198713563Y-114291235D01*
X198724493Y-114296963D01*
X198724497Y-114296964D01*
X198732446Y-114301130D01*
X198741247Y-114302898D01*
X198741248Y-114302898D01*
X198765700Y-114307809D01*
X198771387Y-114309317D01*
X198771437Y-114309116D01*
X198776168Y-114310291D01*
X198780780Y-114311823D01*
X198785567Y-114312626D01*
X198785583Y-114312630D01*
X198808617Y-114316494D01*
X198812580Y-114317224D01*
X198853081Y-114325358D01*
X198875253Y-114329811D01*
X198881907Y-114329236D01*
X198889842Y-114330121D01*
X214820082Y-117002762D01*
X214822548Y-117003343D01*
X214824885Y-117004440D01*
X214836227Y-117006206D01*
X214896526Y-117015595D01*
X214897989Y-117015832D01*
X214922522Y-117019948D01*
X214922526Y-117019948D01*
X214926958Y-117020692D01*
X214929198Y-117020745D01*
X214930270Y-117020880D01*
X214930667Y-117020911D01*
X214935471Y-117021659D01*
X214965757Y-117021659D01*
X214968778Y-117021695D01*
X215026727Y-117023085D01*
X215026728Y-117023085D01*
X215035700Y-117023300D01*
X215040620Y-117021989D01*
X215046187Y-117021659D01*
X231790677Y-117021656D01*
X239287229Y-117021654D01*
X239289759Y-117021819D01*
X239292254Y-117022517D01*
X239364767Y-117021663D01*
X239366251Y-117021654D01*
X239395599Y-117021654D01*
X239397815Y-117021336D01*
X239398886Y-117021292D01*
X239399286Y-117021256D01*
X239404165Y-117021199D01*
X239434115Y-117016174D01*
X239437050Y-117015718D01*
X239503273Y-117006234D01*
X239507911Y-117004126D01*
X239513344Y-117002880D01*
X255704526Y-114286103D01*
X255704918Y-114286038D01*
X255762610Y-114276544D01*
X255789130Y-114272180D01*
X255814966Y-114259777D01*
X255831220Y-114253322D01*
X255858480Y-114244635D01*
X255880531Y-114229775D01*
X255896416Y-114220674D01*
X255912346Y-114213027D01*
X255912350Y-114213024D01*
X255920439Y-114209141D01*
X255937646Y-114193678D01*
X255941758Y-114189983D01*
X255955562Y-114179214D01*
X255971830Y-114168251D01*
X255971833Y-114168249D01*
X255979271Y-114163236D01*
X255985004Y-114156337D01*
X255985007Y-114156334D01*
X255996262Y-114142789D01*
X256008945Y-114129605D01*
X256028778Y-114111781D01*
X256043874Y-114087392D01*
X256054095Y-114073190D01*
X256054878Y-114072248D01*
X256072361Y-114051208D01*
X256082925Y-114026826D01*
X256091403Y-114010603D01*
X256100710Y-113995566D01*
X256105437Y-113987929D01*
X256113078Y-113960291D01*
X256118907Y-113943776D01*
X256126697Y-113925796D01*
X256126698Y-113925792D01*
X256130267Y-113917555D01*
X256133563Y-113891188D01*
X256137146Y-113873240D01*
X256141861Y-113856187D01*
X256141861Y-113856186D01*
X256144252Y-113847538D01*
X256144035Y-113832779D01*
X256144009Y-113831038D01*
X256143829Y-113818860D01*
X256144788Y-113801386D01*
X256148333Y-113773022D01*
X256146902Y-113764163D01*
X256146902Y-113764158D01*
X256144097Y-113746794D01*
X256142499Y-113728561D01*
X256142238Y-113710875D01*
X256142106Y-113701896D01*
X256136353Y-113683247D01*
X256131663Y-113661207D01*
X256099021Y-113390771D01*
X256095427Y-113360988D01*
X256094549Y-113348660D01*
X256087268Y-113016892D01*
X256087604Y-113004532D01*
X256111549Y-112691015D01*
X256112874Y-112673662D01*
X256114419Y-112661396D01*
X256172002Y-112334579D01*
X256174743Y-112322522D01*
X256185260Y-112284898D01*
X256264079Y-112002931D01*
X256267986Y-111991206D01*
X256284166Y-111949583D01*
X256388219Y-111681906D01*
X256393248Y-111670639D01*
X256543223Y-111374600D01*
X256549341Y-111363866D01*
X256727603Y-111083965D01*
X256734749Y-111073874D01*
X256760581Y-111040949D01*
X256939591Y-110812789D01*
X256947678Y-110803463D01*
X257062403Y-110683586D01*
X257177121Y-110563717D01*
X257186098Y-110555215D01*
X257437933Y-110339111D01*
X257447691Y-110331536D01*
X257701379Y-110153847D01*
X257719497Y-110141157D01*
X257729960Y-110134569D01*
X258019112Y-109971752D01*
X258030171Y-109966221D01*
X258319828Y-109838717D01*
X258333898Y-109832524D01*
X258345434Y-109828108D01*
X258660803Y-109724825D01*
X258672714Y-109721562D01*
X258960542Y-109657707D01*
X258985971Y-109654730D01*
X258997421Y-109654561D01*
X259028298Y-109645035D01*
X259044035Y-109641267D01*
X263627746Y-108850973D01*
X273727475Y-107109643D01*
X273728233Y-107109515D01*
X273755306Y-107105059D01*
X273794680Y-107098578D01*
X273794683Y-107098577D01*
X273803541Y-107097119D01*
X273811635Y-107093233D01*
X273811637Y-107093232D01*
X273830639Y-107084108D01*
X273846379Y-107077815D01*
X273874957Y-107068567D01*
X273882375Y-107063519D01*
X273882378Y-107063518D01*
X273895785Y-107054395D01*
X273912132Y-107044980D01*
X273926759Y-107037957D01*
X273926760Y-107037956D01*
X273934848Y-107034073D01*
X273957195Y-107013989D01*
X273970530Y-107003536D01*
X273995381Y-106986627D01*
X274011406Y-106967165D01*
X274024450Y-106953544D01*
X274036503Y-106942712D01*
X274036504Y-106942711D01*
X274043182Y-106936709D01*
X274047907Y-106929075D01*
X274047909Y-106929072D01*
X274058982Y-106911179D01*
X274068853Y-106897396D01*
X274082261Y-106881112D01*
X274087967Y-106874182D01*
X274097894Y-106850985D01*
X274106587Y-106834259D01*
X274115110Y-106820488D01*
X274115114Y-106820479D01*
X274119834Y-106812852D01*
X274127830Y-106783928D01*
X274133436Y-106767930D01*
X274141740Y-106748524D01*
X274145272Y-106740271D01*
X274148291Y-106715208D01*
X274151941Y-106696707D01*
X274158644Y-106672460D01*
X274158201Y-106642464D01*
X274159091Y-106625539D01*
X274161616Y-106604568D01*
X274162689Y-106595658D01*
X274158551Y-106570749D01*
X274156862Y-106551964D01*
X274156623Y-106535796D01*
X274156623Y-106535795D01*
X274156490Y-106526817D01*
X274150734Y-106508162D01*
X274146043Y-106486120D01*
X274144286Y-106471563D01*
X274109797Y-106185920D01*
X274108918Y-106173588D01*
X274101624Y-105841812D01*
X274101960Y-105829451D01*
X274127220Y-105498587D01*
X274128765Y-105486319D01*
X274186337Y-105159514D01*
X274189077Y-105147455D01*
X274278409Y-104827863D01*
X274282318Y-104816132D01*
X274402546Y-104506832D01*
X274407583Y-104495548D01*
X274557553Y-104199520D01*
X274563667Y-104188792D01*
X274741933Y-103908887D01*
X274749077Y-103898799D01*
X274756179Y-103889748D01*
X274953916Y-103637726D01*
X274962018Y-103628383D01*
X275191456Y-103388652D01*
X275200433Y-103380149D01*
X275452278Y-103164049D01*
X275462047Y-103156467D01*
X275601424Y-103058851D01*
X275733854Y-102966101D01*
X275744311Y-102959518D01*
X276033466Y-102796714D01*
X276044525Y-102791183D01*
X276348256Y-102657502D01*
X276359792Y-102653087D01*
X276675158Y-102549824D01*
X276687086Y-102546557D01*
X276975299Y-102482636D01*
X277000723Y-102479661D01*
X277002210Y-102479639D01*
X277011778Y-102479498D01*
X277045111Y-102469216D01*
X277059854Y-102465625D01*
X280335425Y-101874016D01*
X350690049Y-101874016D01*
X350700938Y-102151155D01*
X350750767Y-102423994D01*
X350838543Y-102687091D01*
X350840535Y-102691078D01*
X350840536Y-102691080D01*
X350922179Y-102854473D01*
X350962513Y-102935195D01*
X351120206Y-103163357D01*
X351123228Y-103166626D01*
X351305457Y-103363761D01*
X351305462Y-103363766D01*
X351308473Y-103367023D01*
X351523558Y-103542130D01*
X351761171Y-103685185D01*
X351765266Y-103686919D01*
X351765268Y-103686920D01*
X352012469Y-103791596D01*
X352012476Y-103791598D01*
X352016570Y-103793332D01*
X352067806Y-103806917D01*
X352280362Y-103863276D01*
X352280367Y-103863277D01*
X352284659Y-103864415D01*
X352289068Y-103864937D01*
X352289074Y-103864938D01*
X352469246Y-103886262D01*
X352560089Y-103897014D01*
X352837365Y-103890480D01*
X352923601Y-103876126D01*
X353106564Y-103845673D01*
X353106568Y-103845672D01*
X353110954Y-103844942D01*
X353115195Y-103843601D01*
X353115198Y-103843600D01*
X353371151Y-103762653D01*
X353371153Y-103762652D01*
X353375397Y-103761310D01*
X353379408Y-103759384D01*
X353379413Y-103759382D01*
X353621399Y-103643182D01*
X353621400Y-103643181D01*
X353625418Y-103641252D01*
X353852043Y-103489826D01*
X353852320Y-103489641D01*
X353852324Y-103489638D01*
X353856028Y-103487163D01*
X354062626Y-103302118D01*
X354241090Y-103089809D01*
X354387859Y-102854473D01*
X354500005Y-102600804D01*
X354575290Y-102333864D01*
X354582702Y-102278680D01*
X354611784Y-102062162D01*
X354611785Y-102062154D01*
X354612211Y-102058980D01*
X354612312Y-102055769D01*
X354615985Y-101938913D01*
X354615985Y-101938908D01*
X354616086Y-101935691D01*
X354596497Y-101659031D01*
X354592000Y-101638140D01*
X354539059Y-101392238D01*
X354539058Y-101392236D01*
X354538123Y-101387891D01*
X354442126Y-101127681D01*
X354414242Y-101076002D01*
X354312536Y-100887509D01*
X354310423Y-100883593D01*
X354231930Y-100777322D01*
X354148291Y-100664084D01*
X354148289Y-100664081D01*
X354145642Y-100660498D01*
X354142523Y-100657329D01*
X354142519Y-100657325D01*
X354027214Y-100540195D01*
X353951071Y-100462846D01*
X353947531Y-100460144D01*
X353734136Y-100297286D01*
X353734132Y-100297283D01*
X353730591Y-100294581D01*
X353488602Y-100159060D01*
X353484453Y-100157455D01*
X353484449Y-100157453D01*
X353316365Y-100092427D01*
X353229932Y-100058989D01*
X353225607Y-100057986D01*
X353225602Y-100057985D01*
X353117312Y-100032885D01*
X352959743Y-99996362D01*
X352683424Y-99972430D01*
X352678989Y-99972674D01*
X352678985Y-99972674D01*
X352410934Y-99987426D01*
X352410927Y-99987427D01*
X352406491Y-99987671D01*
X352271500Y-100014522D01*
X352138839Y-100040910D01*
X352138834Y-100040911D01*
X352134467Y-100041780D01*
X352130264Y-100043256D01*
X351876990Y-100132199D01*
X351876987Y-100132200D01*
X351872782Y-100133677D01*
X351868829Y-100135730D01*
X351868823Y-100135733D01*
X351787491Y-100177982D01*
X351626656Y-100261529D01*
X351623041Y-100264112D01*
X351623035Y-100264116D01*
X351480254Y-100366149D01*
X351400999Y-100422786D01*
X351200315Y-100614229D01*
X351028608Y-100832039D01*
X351026376Y-100835881D01*
X351026373Y-100835886D01*
X350891541Y-101068015D01*
X350891538Y-101068021D01*
X350889303Y-101071869D01*
X350887629Y-101076002D01*
X350786854Y-101324803D01*
X350786851Y-101324811D01*
X350785181Y-101328935D01*
X350718318Y-101598108D01*
X350690049Y-101874016D01*
X280335425Y-101874016D01*
X287499244Y-100580141D01*
X291785544Y-99805982D01*
X291787456Y-99805652D01*
X291848276Y-99795644D01*
X291848280Y-99795643D01*
X291857132Y-99794186D01*
X291886526Y-99780074D01*
X291901312Y-99774095D01*
X291907993Y-99771874D01*
X291932218Y-99763821D01*
X291939599Y-99758712D01*
X291939602Y-99758711D01*
X291950829Y-99750941D01*
X291968001Y-99740960D01*
X291980348Y-99735032D01*
X291980351Y-99735030D01*
X291988441Y-99731146D01*
X291995116Y-99725148D01*
X291995120Y-99725145D01*
X292012709Y-99709339D01*
X292025218Y-99699454D01*
X292044607Y-99686034D01*
X292051987Y-99680926D01*
X292057637Y-99673952D01*
X292057639Y-99673950D01*
X292066224Y-99663353D01*
X292079908Y-99648949D01*
X292090104Y-99639787D01*
X292090106Y-99639785D01*
X292096780Y-99633787D01*
X292113954Y-99606040D01*
X292123190Y-99593035D01*
X292138028Y-99574720D01*
X292138029Y-99574719D01*
X292143676Y-99567748D01*
X292152407Y-99546889D01*
X292161497Y-99529227D01*
X292168716Y-99517564D01*
X292168717Y-99517562D01*
X292173438Y-99509934D01*
X292182138Y-99478467D01*
X292187349Y-99463408D01*
X292196450Y-99441665D01*
X292196451Y-99441661D01*
X292199915Y-99433385D01*
X292202440Y-99410914D01*
X292206209Y-99391406D01*
X292209863Y-99378192D01*
X292209863Y-99378190D01*
X292212254Y-99369543D01*
X292211773Y-99336905D01*
X292212547Y-99320978D01*
X292215179Y-99297559D01*
X292215179Y-99297555D01*
X292216181Y-99288638D01*
X292212298Y-99266365D01*
X292210441Y-99246587D01*
X292210239Y-99232880D01*
X292210107Y-99223901D01*
X292204353Y-99205248D01*
X292199664Y-99183213D01*
X292197055Y-99161591D01*
X292163427Y-98882994D01*
X292162549Y-98870664D01*
X292155268Y-98538896D01*
X292155604Y-98526536D01*
X292174450Y-98279768D01*
X292180873Y-98195666D01*
X292182418Y-98183400D01*
X292240002Y-97856580D01*
X292242743Y-97844524D01*
X292332074Y-97524944D01*
X292335983Y-97513213D01*
X292456212Y-97203922D01*
X292461252Y-97192630D01*
X292611221Y-96896606D01*
X292617343Y-96885864D01*
X292795602Y-96605967D01*
X292802748Y-96595876D01*
X293007584Y-96334798D01*
X293015685Y-96325456D01*
X293245119Y-96085718D01*
X293254096Y-96077215D01*
X293505928Y-95861116D01*
X293515695Y-95853534D01*
X293666931Y-95747605D01*
X293787501Y-95663154D01*
X293797964Y-95656567D01*
X293798793Y-95656100D01*
X294087116Y-95493749D01*
X294098164Y-95488223D01*
X294401897Y-95354524D01*
X294413433Y-95350108D01*
X294728801Y-95246826D01*
X294740714Y-95243563D01*
X295028514Y-95179713D01*
X295053945Y-95176736D01*
X295065422Y-95176567D01*
X295096801Y-95166886D01*
X295112313Y-95163159D01*
X310961554Y-92404364D01*
X310981286Y-92402513D01*
X310983229Y-92402484D01*
X310995391Y-92402305D01*
X310995393Y-92402305D01*
X311004369Y-92402172D01*
X311023024Y-92396416D01*
X311045064Y-92391725D01*
X311345267Y-92355477D01*
X311357597Y-92354598D01*
X311523488Y-92350950D01*
X311689376Y-92347303D01*
X311701738Y-92347639D01*
X312032603Y-92372899D01*
X312044871Y-92374444D01*
X312371678Y-92432015D01*
X312383736Y-92434755D01*
X312703326Y-92524084D01*
X312715058Y-92527993D01*
X313024361Y-92648221D01*
X313035653Y-92653262D01*
X313331663Y-92803221D01*
X313342406Y-92809343D01*
X313622312Y-92987609D01*
X313632403Y-92994756D01*
X313893467Y-93199583D01*
X313902810Y-93207684D01*
X314142554Y-93437131D01*
X314151057Y-93446109D01*
X314367144Y-93697938D01*
X314374727Y-93707706D01*
X314565101Y-93979520D01*
X314571689Y-93989985D01*
X314734493Y-94279135D01*
X314740023Y-94290193D01*
X314873709Y-94593928D01*
X314878124Y-94605466D01*
X314981388Y-94920830D01*
X314984655Y-94932756D01*
X315048528Y-95220736D01*
X315051503Y-95246166D01*
X315051669Y-95257455D01*
X315054314Y-95266030D01*
X315061711Y-95290010D01*
X315065335Y-95304938D01*
X315071340Y-95338474D01*
X315080770Y-95357427D01*
X315088361Y-95376410D01*
X315094602Y-95396642D01*
X315099551Y-95404135D01*
X315113379Y-95425072D01*
X315121049Y-95438383D01*
X315136223Y-95468883D01*
X315150594Y-95484428D01*
X315163203Y-95500510D01*
X315174875Y-95518183D01*
X315181727Y-95523985D01*
X315200882Y-95540206D01*
X315211976Y-95550827D01*
X315235099Y-95575840D01*
X315251941Y-95585939D01*
X315253247Y-95586722D01*
X315269873Y-95598626D01*
X315286034Y-95612311D01*
X315317183Y-95626151D01*
X315330807Y-95633230D01*
X315360019Y-95650746D01*
X315368698Y-95653015D01*
X315368704Y-95653017D01*
X315380499Y-95656100D01*
X315399793Y-95662858D01*
X315410933Y-95667808D01*
X315410939Y-95667810D01*
X315419143Y-95671455D01*
X315452931Y-95675998D01*
X315467981Y-95678965D01*
X315500942Y-95687581D01*
X315522100Y-95686971D01*
X315542517Y-95688043D01*
X315554607Y-95689669D01*
X315554613Y-95689669D01*
X315563502Y-95690864D01*
X315597190Y-95685743D01*
X315603128Y-95685212D01*
X315603107Y-95685012D01*
X315607956Y-95684496D01*
X315612814Y-95684356D01*
X315617591Y-95683471D01*
X315617596Y-95683470D01*
X315640428Y-95679238D01*
X315644454Y-95678559D01*
X315698633Y-95670323D01*
X315698634Y-95670323D01*
X315707506Y-95668974D01*
X315713644Y-95666119D01*
X315721552Y-95664199D01*
X318417086Y-95164529D01*
X330276920Y-92966077D01*
X330298026Y-92963980D01*
X330317474Y-92963694D01*
X330326052Y-92961048D01*
X330326057Y-92961047D01*
X330335743Y-92958059D01*
X330358037Y-92953339D01*
X330666717Y-92916716D01*
X330679560Y-92915854D01*
X330835237Y-92913380D01*
X331019431Y-92910452D01*
X331032278Y-92910905D01*
X331370926Y-92940206D01*
X331383668Y-92941967D01*
X331717568Y-93005667D01*
X331730058Y-93008718D01*
X331795341Y-93028250D01*
X332055696Y-93106144D01*
X332067823Y-93110458D01*
X332381830Y-93240600D01*
X332393451Y-93246128D01*
X332692546Y-93407628D01*
X332703534Y-93414307D01*
X332984587Y-93605477D01*
X332994842Y-93613247D01*
X333254935Y-93832100D01*
X333264335Y-93840867D01*
X333500737Y-94085106D01*
X333509201Y-94094796D01*
X333719456Y-94361884D01*
X333726884Y-94372382D01*
X333889188Y-94628584D01*
X333900708Y-94651723D01*
X333901434Y-94653658D01*
X333901440Y-94653668D01*
X333904593Y-94662068D01*
X333914268Y-94674965D01*
X333926075Y-94694029D01*
X333933306Y-94708431D01*
X333959956Y-94737048D01*
X333968530Y-94747296D01*
X333986614Y-94771403D01*
X333986617Y-94771406D01*
X333992001Y-94778583D01*
X334003271Y-94787021D01*
X334004908Y-94788247D01*
X334021594Y-94803236D01*
X334032573Y-94815024D01*
X334066185Y-94835012D01*
X334077293Y-94842443D01*
X334108599Y-94865882D01*
X334117003Y-94869028D01*
X334123691Y-94871532D01*
X334143914Y-94881235D01*
X334150052Y-94884885D01*
X334150056Y-94884887D01*
X334157767Y-94889472D01*
X334166454Y-94891709D01*
X334166455Y-94891709D01*
X334195632Y-94899221D01*
X334208391Y-94903240D01*
X334234637Y-94913065D01*
X334245012Y-94916949D01*
X334253964Y-94917610D01*
X334261087Y-94918136D01*
X334283221Y-94921772D01*
X334298824Y-94925790D01*
X334321015Y-94925069D01*
X334337898Y-94924520D01*
X334351269Y-94924795D01*
X334381322Y-94927014D01*
X334390274Y-94927675D01*
X334399051Y-94925797D01*
X334399053Y-94925797D01*
X334440406Y-94916949D01*
X334455805Y-94913654D01*
X334458712Y-94913069D01*
X367860504Y-88594618D01*
X367882058Y-88592436D01*
X367886322Y-88592373D01*
X367891397Y-88592298D01*
X367891398Y-88592298D01*
X367900375Y-88592165D01*
X367919026Y-88586410D01*
X367941073Y-88581718D01*
X367990398Y-88575762D01*
X368241274Y-88545471D01*
X368253601Y-88544592D01*
X368451923Y-88540231D01*
X368585382Y-88537297D01*
X368597744Y-88537633D01*
G37*
%TD.AperFunction*%
M02*
