%TF.GenerationSoftware,KiCad,Pcbnew,(6.0.5)*%
%TF.CreationDate,2022-11-14T00:40:42-08:00*%
%TF.ProjectId,po-modular-evq,706f2d6d-6f64-4756-9c61-722d6576712e,rev?*%
%TF.SameCoordinates,Original*%
%TF.FileFunction,Profile,NP*%
%FSLAX46Y46*%
G04 Gerber Fmt 4.6, Leading zero omitted, Abs format (unit mm)*
G04 Created by KiCad (PCBNEW (6.0.5)) date 2022-11-14 00:40:42*
%MOMM*%
%LPD*%
G01*
G04 APERTURE LIST*
%TA.AperFunction,Profile*%
%ADD10C,0.124256*%
%TD*%
%TA.AperFunction,Profile*%
%ADD11C,0.150000*%
%TD*%
G04 APERTURE END LIST*
D10*
X143300106Y-91368442D02*
G75*
G03*
X138979254Y-94452279I-573606J-3765258D01*
G01*
X86661503Y-88177844D02*
X119445996Y-93936464D01*
X123287031Y-91708394D02*
X138979267Y-94452275D01*
X258917083Y-109147111D02*
G75*
G03*
X255634694Y-113782214I676417J-3958789D01*
G01*
X143300102Y-91368469D02*
X159871459Y-94281217D01*
X347773511Y-193870487D02*
G75*
G03*
X351055906Y-189235399I-676411J3958787D01*
G01*
X103327799Y-189200735D02*
G75*
G03*
X106560665Y-193870461I3951101J-718565D01*
G01*
X81991781Y-91410727D02*
X69291776Y-163038736D01*
X106263087Y-173663154D02*
X103327776Y-189200731D01*
X293715085Y-206429150D02*
X277459093Y-216081151D01*
X347773507Y-193870464D02*
X311749087Y-199825153D01*
X277459093Y-216081151D02*
X263997092Y-227257152D01*
X311749087Y-199825153D02*
X293715085Y-206429150D01*
X260949087Y-228448852D02*
G75*
G03*
X263997092Y-227257152I13J4493752D01*
G01*
X193385088Y-228448872D02*
X260949087Y-228448876D01*
X348120592Y-173697817D02*
X351055905Y-189235397D01*
X381853088Y-167821156D02*
X348120592Y-173697817D01*
X385135487Y-163186086D02*
X372455085Y-91367158D01*
X367820017Y-88084758D02*
X334355093Y-94415152D01*
X330237170Y-92456283D02*
X315559083Y-95177153D01*
X310924023Y-91894751D02*
X294985091Y-94669157D01*
X291702689Y-99304219D02*
X276931480Y-101972083D01*
X273649089Y-106607155D02*
X258917090Y-109147151D01*
X214975085Y-116513159D02*
X198903984Y-113816886D01*
X195671091Y-109147161D02*
X181123976Y-106450885D01*
X177891085Y-101781153D02*
X163089975Y-99084876D01*
X276931487Y-101972123D02*
G75*
G03*
X273649082Y-106607160I676113J-3958577D01*
G01*
X142585088Y-199825154D02*
X160619086Y-206429151D01*
X315559092Y-95177151D02*
G75*
G03*
X310924025Y-91894764I-3958592J-676149D01*
G01*
X217020005Y-150800000D02*
X217020000Y-116510000D01*
X160619086Y-206429151D02*
X176875082Y-216081152D01*
X123287032Y-91708380D02*
G75*
G03*
X119445984Y-93936467I-259732J-3977120D01*
G01*
X190337064Y-227257178D02*
G75*
G03*
X193385094Y-228448874I3048036J3302178D01*
G01*
X198904009Y-113816891D02*
G75*
G03*
X195671092Y-109147155I-3951209J718491D01*
G01*
X239359086Y-116513154D02*
X237314171Y-116516313D01*
X72524664Y-167708462D02*
X106263087Y-173663154D01*
X69291764Y-163038734D02*
G75*
G03*
X72524661Y-167708468I3951536J-718266D01*
G01*
X106560660Y-193870464D02*
X142585088Y-199825154D01*
X217020000Y-116510000D02*
X214975085Y-116513159D01*
X294985083Y-94669111D02*
G75*
G03*
X291702695Y-99304220I676417J-3958789D01*
G01*
X334355132Y-94415130D02*
G75*
G03*
X330237163Y-92456281I-3450832J-1946570D01*
G01*
X381853091Y-167821176D02*
G75*
G03*
X385135489Y-163186084I-676391J3958776D01*
G01*
X237314176Y-150760000D02*
X237314171Y-116516313D01*
X176875082Y-216081152D02*
X190337090Y-227257150D01*
X255634686Y-113782213D02*
X239359086Y-116513154D01*
X86661503Y-88177845D02*
G75*
G03*
X81991780Y-91410742I-718423J-3951295D01*
G01*
X163089953Y-99084871D02*
G75*
G03*
X159871457Y-94281212I-3939153J840771D01*
G01*
X181123966Y-106450883D02*
G75*
G03*
X177891088Y-101781153I-3951366J718383D01*
G01*
X372455098Y-91367156D02*
G75*
G03*
X367820032Y-88084757I-3958598J-676144D01*
G01*
X247200000Y-168010000D02*
G75*
G03*
X247200000Y-168010000I-20000000J0D01*
G01*
D11*
%TO.C,SW2*%
X134883344Y-118949480D02*
X121096035Y-116518405D01*
X118664960Y-130305714D02*
X121096035Y-116518405D01*
X134883344Y-118949480D02*
X132452269Y-132736789D01*
X118664960Y-130305714D02*
X132452269Y-132736789D01*
%TO.C,SW3*%
X154289282Y-118309566D02*
X151858207Y-132096875D01*
X138070898Y-129665800D02*
X151858207Y-132096875D01*
X154289282Y-118309566D02*
X140501973Y-115878491D01*
X138070898Y-129665800D02*
X140501973Y-115878491D01*
%TO.C,SW4*%
X156087650Y-136904341D02*
X169874959Y-139335416D01*
X172306034Y-125548107D02*
X158518725Y-123117032D01*
X156087650Y-136904341D02*
X158518725Y-123117032D01*
X172306034Y-125548107D02*
X169874959Y-139335416D01*
%TO.C,SW5*%
X174104405Y-144142886D02*
X187891714Y-146573961D01*
X190322789Y-132786652D02*
X176535480Y-130355577D01*
X190322789Y-132786652D02*
X187891714Y-146573961D01*
X174104405Y-144142886D02*
X176535480Y-130355577D01*
%TO.C,SW6*%
X266539827Y-146569757D02*
X280327136Y-144138682D01*
X277896061Y-130351373D02*
X280327136Y-144138682D01*
X266539827Y-146569757D02*
X264108752Y-132782448D01*
X277896061Y-130351373D02*
X264108752Y-132782448D01*
%TO.C,SW7*%
X284556590Y-139331217D02*
X298343899Y-136900142D01*
X295912824Y-123112833D02*
X298343899Y-136900142D01*
X284556590Y-139331217D02*
X282125515Y-125543908D01*
X295912824Y-123112833D02*
X282125515Y-125543908D01*
%TO.C,SW8*%
X313929583Y-115874286D02*
X300142274Y-118305361D01*
X302573349Y-132092670D02*
X300142274Y-118305361D01*
X313929583Y-115874286D02*
X316360658Y-129661595D01*
X302573349Y-132092670D02*
X316360658Y-129661595D01*
%TO.C,SW9*%
X321979281Y-132732587D02*
X335766590Y-130301512D01*
X321979281Y-132732587D02*
X319548206Y-118945278D01*
X333335515Y-116514203D02*
X335766590Y-130301512D01*
X333335515Y-116514203D02*
X319548206Y-118945278D01*
%TO.C,SW10*%
X341037927Y-131402889D02*
X354825236Y-128971814D01*
X352394161Y-115184505D02*
X338606852Y-117615580D01*
X341037927Y-131402889D02*
X338606852Y-117615580D01*
X352394161Y-115184505D02*
X354825236Y-128971814D01*
%TO.C,SW11*%
X112525384Y-136331119D02*
X110094309Y-150118428D01*
X96307000Y-147687353D02*
X110094309Y-150118428D01*
X112525384Y-136331119D02*
X98738075Y-133900044D01*
X96307000Y-147687353D02*
X98738075Y-133900044D01*
%TO.C,SW12*%
X115365642Y-149017053D02*
X117796717Y-135229744D01*
X131584026Y-137660819D02*
X129152951Y-151448128D01*
X115365642Y-149017053D02*
X129152951Y-151448128D01*
X131584026Y-137660819D02*
X117796717Y-135229744D01*
%TO.C,SW13*%
X150989969Y-137020906D02*
X148558894Y-150808215D01*
X134771585Y-148377140D02*
X148558894Y-150808215D01*
X150989969Y-137020906D02*
X137202660Y-134589831D01*
X134771585Y-148377140D02*
X137202660Y-134589831D01*
%TO.C,SW14*%
X152788336Y-155615691D02*
X155219411Y-141828382D01*
X152788336Y-155615691D02*
X166575645Y-158046766D01*
X169006720Y-144259457D02*
X155219411Y-141828382D01*
X169006720Y-144259457D02*
X166575645Y-158046766D01*
%TO.C,SW15*%
X187023478Y-151498009D02*
X173236169Y-149066934D01*
X170805094Y-162854243D02*
X173236169Y-149066934D01*
X187023478Y-151498009D02*
X184592403Y-165285318D01*
X170805094Y-162854243D02*
X184592403Y-165285318D01*
%TO.C,SW16*%
X281195380Y-149062725D02*
X283626455Y-162850034D01*
X269839146Y-165281109D02*
X267408071Y-151493800D01*
X269839146Y-165281109D02*
X283626455Y-162850034D01*
X281195380Y-149062725D02*
X267408071Y-151493800D01*
%TO.C,SW17*%
X287855906Y-158042566D02*
X285424831Y-144255257D01*
X287855906Y-158042566D02*
X301643215Y-155611491D01*
X299212140Y-141824182D02*
X285424831Y-144255257D01*
X299212140Y-141824182D02*
X301643215Y-155611491D01*
%TO.C,SW18*%
X305872656Y-150804013D02*
X319659965Y-148372938D01*
X305872656Y-150804013D02*
X303441581Y-137016704D01*
X317228890Y-134585629D02*
X303441581Y-137016704D01*
X317228890Y-134585629D02*
X319659965Y-148372938D01*
%TO.C,SW19*%
X325278605Y-151443932D02*
X339065914Y-149012857D01*
X325278605Y-151443932D02*
X322847530Y-137656623D01*
X336634839Y-135225548D02*
X339065914Y-149012857D01*
X336634839Y-135225548D02*
X322847530Y-137656623D01*
%TO.C,SW20*%
X355693473Y-133895848D02*
X358124548Y-147683157D01*
X344337239Y-150114232D02*
X341906164Y-136326923D01*
X344337239Y-150114232D02*
X358124548Y-147683157D01*
X355693473Y-133895848D02*
X341906164Y-136326923D01*
%TO.C,SW21*%
X93007680Y-166398704D02*
X95438755Y-152611395D01*
X109226064Y-155042470D02*
X95438755Y-152611395D01*
X109226064Y-155042470D02*
X106794989Y-168829779D01*
X93007680Y-166398704D02*
X106794989Y-168829779D01*
%TO.C,SW22*%
X128284714Y-156372170D02*
X114497405Y-153941095D01*
X128284714Y-156372170D02*
X125853639Y-170159479D01*
X112066330Y-167728404D02*
X114497405Y-153941095D01*
X112066330Y-167728404D02*
X125853639Y-170159479D01*
%TO.C,SW23*%
X131472268Y-167088483D02*
X133903343Y-153301174D01*
X131472268Y-167088483D02*
X145259577Y-169519558D01*
X147690652Y-155732249D02*
X133903343Y-153301174D01*
X147690652Y-155732249D02*
X145259577Y-169519558D01*
%TO.C,SW24*%
X165707404Y-162970795D02*
X163276329Y-176758104D01*
X149489020Y-174327029D02*
X151920095Y-160539720D01*
X149489020Y-174327029D02*
X163276329Y-176758104D01*
X165707404Y-162970795D02*
X151920095Y-160539720D01*
%TO.C,SW25*%
X183724164Y-170209346D02*
X181293089Y-183996655D01*
X167505780Y-181565580D02*
X169936855Y-167778271D01*
X183724164Y-170209346D02*
X169936855Y-167778271D01*
X167505780Y-181565580D02*
X181293089Y-183996655D01*
%TO.C,SW26*%
X273138472Y-183992459D02*
X270707397Y-170205150D01*
X273138472Y-183992459D02*
X286925781Y-181561384D01*
X284494706Y-167774075D02*
X286925781Y-181561384D01*
X284494706Y-167774075D02*
X270707397Y-170205150D01*
%TO.C,SW27*%
X302511450Y-160535526D02*
X304942525Y-174322835D01*
X291155216Y-176753910D02*
X288724141Y-162966601D01*
X302511450Y-160535526D02*
X288724141Y-162966601D01*
X291155216Y-176753910D02*
X304942525Y-174322835D01*
%TO.C,SW28*%
X309171971Y-169515368D02*
X322959280Y-167084293D01*
X320528205Y-153296984D02*
X322959280Y-167084293D01*
X320528205Y-153296984D02*
X306740896Y-155728059D01*
X309171971Y-169515368D02*
X306740896Y-155728059D01*
%TO.C,SW29*%
X328577915Y-170155280D02*
X342365224Y-167724205D01*
X339934149Y-153936896D02*
X342365224Y-167724205D01*
X339934149Y-153936896D02*
X326146840Y-156367971D01*
X328577915Y-170155280D02*
X326146840Y-156367971D01*
%TO.C,SW30*%
X358992786Y-152607194D02*
X345205477Y-155038269D01*
X347636552Y-168825578D02*
X361423861Y-166394503D01*
X358992786Y-152607194D02*
X361423861Y-166394503D01*
X347636552Y-168825578D02*
X345205477Y-155038269D01*
%TO.C,SW31*%
X108305109Y-189059341D02*
X122092418Y-191490416D01*
X108305109Y-189059341D02*
X110736184Y-175272032D01*
X124523493Y-177703107D02*
X110736184Y-175272032D01*
X124523493Y-177703107D02*
X122092418Y-191490416D01*
%TO.C,SW32*%
X127016454Y-192358655D02*
X140803763Y-194789730D01*
X143234838Y-181002421D02*
X140803763Y-194789730D01*
X127016454Y-192358655D02*
X129447529Y-178571346D01*
X143234838Y-181002421D02*
X129447529Y-178571346D01*
%TO.C,SW33*%
X164539894Y-187929110D02*
X159751612Y-201084806D01*
X146595916Y-196296524D02*
X151384198Y-183140828D01*
X164539894Y-187929110D02*
X151384198Y-183140828D01*
X146595916Y-196296524D02*
X159751612Y-201084806D01*
%TO.C,SW36*%
X261557141Y-222991747D02*
X272281763Y-213992721D01*
X263282737Y-203268099D02*
X252558115Y-212267125D01*
X263282737Y-203268099D02*
X272281763Y-213992721D01*
X261557141Y-222991747D02*
X252558115Y-212267125D01*
%TO.C,SW37*%
X277059957Y-210646997D02*
X289184313Y-203646997D01*
X282184313Y-191522641D02*
X289184313Y-203646997D01*
X282184313Y-191522641D02*
X270059957Y-198522641D01*
X277059957Y-210646997D02*
X270059957Y-198522641D01*
%TO.C,SW38*%
X294484349Y-201178222D02*
X289696067Y-188022526D01*
X302851763Y-183234244D02*
X289696067Y-188022526D01*
X294484349Y-201178222D02*
X307640045Y-196389940D01*
X302851763Y-183234244D02*
X307640045Y-196389940D01*
%TO.C,SW39*%
X324984019Y-178567152D02*
X311196710Y-180998227D01*
X324984019Y-178567152D02*
X327415094Y-192354461D01*
X313627785Y-194785536D02*
X327415094Y-192354461D01*
X313627785Y-194785536D02*
X311196710Y-180998227D01*
%TO.C,SW40*%
X332339135Y-191486217D02*
X329908060Y-177698908D01*
X343695369Y-175267833D02*
X329908060Y-177698908D01*
X343695369Y-175267833D02*
X346126444Y-189055142D01*
X332339135Y-191486217D02*
X346126444Y-189055142D01*
%TO.C,SW1*%
X115824698Y-117619769D02*
X113393623Y-131407078D01*
X115824698Y-117619769D02*
X102037389Y-115188694D01*
X99606314Y-128976003D02*
X102037389Y-115188694D01*
X99606314Y-128976003D02*
X113393623Y-131407078D01*
%TO.C,SW43*%
X119124014Y-98908427D02*
X105336705Y-96477352D01*
X119124014Y-98908427D02*
X116692939Y-112695736D01*
X102905630Y-110264661D02*
X105336705Y-96477352D01*
X102905630Y-110264661D02*
X116692939Y-112695736D01*
%TO.C,SW45*%
X121964275Y-111594367D02*
X124395350Y-97807058D01*
X138182659Y-100238133D02*
X124395350Y-97807058D01*
X138182659Y-100238133D02*
X135751584Y-114025442D01*
X121964275Y-111594367D02*
X135751584Y-114025442D01*
%TO.C,SW47*%
X141370214Y-110954448D02*
X143801289Y-97167139D01*
X157588598Y-99598214D02*
X143801289Y-97167139D01*
X157588598Y-99598214D02*
X155157523Y-113385523D01*
X141370214Y-110954448D02*
X155157523Y-113385523D01*
%TO.C,SW48*%
X256620181Y-199736038D02*
X268088309Y-191705968D01*
X260058239Y-180237840D02*
X248590111Y-188267910D01*
X256620181Y-199736038D02*
X248590111Y-188267910D01*
X260058239Y-180237840D02*
X268088309Y-191705968D01*
%TO.C,SW49*%
X159386960Y-118192995D02*
X173174269Y-120624070D01*
X175605344Y-106836761D02*
X173174269Y-120624070D01*
X159386960Y-118192995D02*
X161818035Y-104405686D01*
X175605344Y-106836761D02*
X161818035Y-104405686D01*
%TO.C,SW50*%
X337738614Y-112691539D02*
X335307539Y-98904230D01*
X337738614Y-112691539D02*
X351525923Y-110260464D01*
X349094848Y-96473155D02*
X335307539Y-98904230D01*
X349094848Y-96473155D02*
X351525923Y-110260464D01*
%TO.C,SW52*%
X274596758Y-111640027D02*
X260809449Y-114071102D01*
X263240524Y-127858411D02*
X277027833Y-125427336D01*
X274596758Y-111640027D02*
X277027833Y-125427336D01*
X263240524Y-127858411D02*
X260809449Y-114071102D01*
%TO.C,SW53*%
X292613516Y-104401488D02*
X295044591Y-118188797D01*
X281257282Y-120619872D02*
X278826207Y-106832563D01*
X292613516Y-104401488D02*
X278826207Y-106832563D01*
X281257282Y-120619872D02*
X295044591Y-118188797D01*
%TO.C,SW54*%
X310630260Y-97162947D02*
X296842951Y-99594022D01*
X299274026Y-113381331D02*
X296842951Y-99594022D01*
X310630260Y-97162947D02*
X313061335Y-110950256D01*
X299274026Y-113381331D02*
X313061335Y-110950256D01*
%TO.C,SW55*%
X330036203Y-97802862D02*
X316248894Y-100233937D01*
X330036203Y-97802862D02*
X332467278Y-111590171D01*
X318679969Y-114021246D02*
X332467278Y-111590171D01*
X318679969Y-114021246D02*
X316248894Y-100233937D01*
%TO.C,SW51*%
X177403721Y-125431540D02*
X179834796Y-111644231D01*
X193622105Y-114075306D02*
X179834796Y-111644231D01*
X177403721Y-125431540D02*
X191191030Y-127862615D01*
X193622105Y-114075306D02*
X191191030Y-127862615D01*
%TO.C,SW42*%
X84194285Y-106965349D02*
X97981594Y-109396424D01*
X100412669Y-95609115D02*
X86625360Y-93178040D01*
X100412669Y-95609115D02*
X97981594Y-109396424D01*
X84194285Y-106965349D02*
X86625360Y-93178040D01*
%TO.C,SW44*%
X80894968Y-125676686D02*
X94682277Y-128107761D01*
X97113352Y-114320452D02*
X94682277Y-128107761D01*
X80894968Y-125676686D02*
X83326043Y-111889377D01*
X97113352Y-114320452D02*
X83326043Y-111889377D01*
%TO.C,SW57*%
X77595660Y-144388041D02*
X80026735Y-130600732D01*
X93814044Y-133031807D02*
X80026735Y-130600732D01*
X77595660Y-144388041D02*
X91382969Y-146819116D01*
X93814044Y-133031807D02*
X91382969Y-146819116D01*
%TO.C,SW58*%
X74296330Y-163099385D02*
X76727405Y-149312076D01*
X90514714Y-151743151D02*
X76727405Y-149312076D01*
X90514714Y-151743151D02*
X88083639Y-165530460D01*
X74296330Y-163099385D02*
X88083639Y-165530460D01*
%TO.C,SW59*%
X195420464Y-132670099D02*
X209207773Y-135101174D01*
X211638848Y-121313865D02*
X209207773Y-135101174D01*
X211638848Y-121313865D02*
X197851539Y-118882790D01*
X195420464Y-132670099D02*
X197851539Y-118882790D01*
%TO.C,SW60*%
X192121157Y-151381435D02*
X205908466Y-153812510D01*
X208339541Y-140025201D02*
X205908466Y-153812510D01*
X208339541Y-140025201D02*
X194552232Y-137594126D01*
X192121157Y-151381435D02*
X194552232Y-137594126D01*
%TO.C,SW61*%
X205040240Y-158736549D02*
X202609165Y-172523858D01*
X188821856Y-170092783D02*
X191252931Y-156305474D01*
X188821856Y-170092783D02*
X202609165Y-172523858D01*
X205040240Y-158736549D02*
X191252931Y-156305474D01*
%TO.C,SW65*%
X245223767Y-135096963D02*
X242792692Y-121309654D01*
X245223767Y-135096963D02*
X259011076Y-132665888D01*
X256580001Y-118878579D02*
X259011076Y-132665888D01*
X256580001Y-118878579D02*
X242792692Y-121309654D01*
%TO.C,SW66*%
X248523083Y-153808310D02*
X262310392Y-151377235D01*
X248523083Y-153808310D02*
X246092008Y-140021001D01*
X259879317Y-137589926D02*
X262310392Y-151377235D01*
X259879317Y-137589926D02*
X246092008Y-140021001D01*
%TO.C,SW67*%
X263178627Y-156301275D02*
X265609702Y-170088584D01*
X251822393Y-172519659D02*
X249391318Y-158732350D01*
X263178627Y-156301275D02*
X249391318Y-158732350D01*
X251822393Y-172519659D02*
X265609702Y-170088584D01*
%TO.C,SW69*%
X374404820Y-130596534D02*
X360617511Y-133027609D01*
X363048586Y-146814918D02*
X360617511Y-133027609D01*
X374404820Y-130596534D02*
X376835895Y-144383843D01*
X363048586Y-146814918D02*
X376835895Y-144383843D01*
%TO.C,SW70*%
X366347899Y-165526262D02*
X380135208Y-163095187D01*
X377704133Y-149307878D02*
X363916824Y-151738953D01*
X377704133Y-149307878D02*
X380135208Y-163095187D01*
X366347899Y-165526262D02*
X363916824Y-151738953D01*
%TO.C,SW71*%
X356449963Y-109392223D02*
X370237272Y-106961148D01*
X367806197Y-93173839D02*
X370237272Y-106961148D01*
X367806197Y-93173839D02*
X354018888Y-95604914D01*
X356449963Y-109392223D02*
X354018888Y-95604914D01*
%TO.C,SW72*%
X359749270Y-128103569D02*
X357318195Y-114316260D01*
X371105504Y-111885185D02*
X357318195Y-114316260D01*
X359749270Y-128103569D02*
X373536579Y-125672494D01*
X371105504Y-111885185D02*
X373536579Y-125672494D01*
%TO.C,SW34*%
X165051460Y-203545444D02*
X177175816Y-210545444D01*
X184175816Y-198421088D02*
X172051460Y-191421088D01*
X165051460Y-203545444D02*
X172051460Y-191421088D01*
X184175816Y-198421088D02*
X177175816Y-210545444D01*
%TO.C,SW35*%
X201705060Y-212183617D02*
X192706034Y-222908239D01*
X201705060Y-212183617D02*
X190980438Y-203184591D01*
X181981412Y-213909213D02*
X190980438Y-203184591D01*
X181981412Y-213909213D02*
X192706034Y-222908239D01*
%TO.C,SW56*%
X205673062Y-188184402D02*
X194204934Y-180154332D01*
X186174864Y-191622460D02*
X197642992Y-199652530D01*
X186174864Y-191622460D02*
X194204934Y-180154332D01*
X205673062Y-188184402D02*
X197642992Y-199652530D01*
%TO.C,SW62*%
X244819940Y-215269924D02*
X230619940Y-215269924D01*
X230619940Y-215269924D02*
X230619940Y-198069924D01*
X244819940Y-215269924D02*
X244819940Y-198069924D01*
X244819940Y-198069924D02*
X230619940Y-198069924D01*
%TO.C,SW64*%
X210033235Y-215196416D02*
X210033235Y-197996416D01*
X224233235Y-215196416D02*
X210033235Y-215196416D01*
X224233235Y-215196416D02*
X224233235Y-197996416D01*
X224233235Y-197996416D02*
X210033235Y-197996416D01*
%TD*%
M02*
