0
SECTION
2
HEADER
9
$INSUNITS
70
4
9
$ACADVER
1
AC1014
9
$HANDSEED
5
FFFF
0
ENDSEC
0
SECTION
2
TABLES
0
TABLE
2
VPORT
5
8
100
AcDbSymbolTable
0
ENDTAB
0
TABLE
2
LTYPE
5
5
100
AcDbSymbolTable
0
LTYPE
5
14
100
AcDbSymbolTableRecord
100
AcDbLinetypeTableRecord
2
BYBLOCK
70
0
0
LTYPE
5
15
100
AcDbSymbolTableRecord
100
AcDbLinetypeTableRecord
2
BYLAYER
70
0
0
ENDTAB
0
TABLE
2
LAYER
5
2
100
AcDbSymbolTable
70
2
0
LAYER
5
50
100
AcDbSymbolTableRecord
100
AcDbLayerTableRecord
2
0
70
0
6
CONTINUOUS
0
ENDTAB
0
TABLE
2
STYLE
5
3
100
AcDbSymbolTable
70
1
0
STYLE
5
11
100
AcDbSymbolTableRecord
100
AcDbTextStyleTableRecord
2
STANDARD
70
0
0
ENDTAB
0
TABLE
2
VIEW
5
6
100
AcDbSymbolTable
70
0
0
ENDTAB
0
TABLE
2
UCS
5
7
100
AcDbSymbolTable
70
0
0
ENDTAB
0
TABLE
2
APPID
5
9
100
AcDbSymbolTable
70
2
0
APPID
5
12
100
AcDbSymbolTableRecord
100
AcDbRegAppTableRecord
2
ACAD
70
0
0
ENDTAB
0
TABLE
2
DIMSTYLE
5
A
100
AcDbSymbolTable
70
1
0
ENDTAB
0
TABLE
2
BLOCK_RECORD
5
1
100
AcDbSymbolTable
70
1
0
BLOCK_RECORD
5
1F
100
AcDbSymbolTableRecord
100
AcDbBlockTableRecord
2
*MODEL_SPACE
0
BLOCK_RECORD
5
1B
100
AcDbSymbolTableRecord
100
AcDbBlockTableRecord
2
*PAPER_SPACE
0
ENDTAB
0
ENDSEC
0
SECTION
2
BLOCKS
0
BLOCK
5
20
100
AcDbEntity
100
AcDbBlockBegin
2
*MODEL_SPACE
0
ENDBLK
5
21
100
AcDbEntity
100
AcDbBlockEnd
0
BLOCK
5
1C
100
AcDbEntity
100
AcDbBlockBegin
2
*PAPER_SPACE
0
ENDBLK
5
1D
100
AcDbEntity
100
AcDbBlockEnd
0
ENDSEC
0
SECTION
2
ENTITIES
0
CIRCLE
5
100
100
AcDbEntity
8
0
100
AcDbCircle
10
-2.4247975343148407
20
-114.70382161920691
30
0
40
1.0999999999999999
210
0
220
0
230
1
0
CIRCLE
5
101
100
AcDbEntity
8
0
100
AcDbCircle
10
91.331627727005312
20
-134.71441800653312
30
0
40
1.0999999999999943
210
0
220
0
230
1
0
CIRCLE
5
102
100
AcDbEntity
8
0
100
AcDbCircle
10
148.62372960439279
20
-8.7611336223727534
30
0
40
1.1000000000000119
210
0
220
0
230
1
0
CIRCLE
5
103
100
AcDbEntity
8
0
100
AcDbCircle
10
148.08556463264046
20
-66.014444837588769
30
0
40
2.0000000000000107
210
0
220
0
230
1
0
CIRCLE
5
104
100
AcDbEntity
8
0
100
AcDbCircle
10
160.62144827341092
20
-75.791447900408826
30
0
40
1.0999999999999943
210
0
220
0
230
1
0
CIRCLE
5
105
100
AcDbEntity
8
0
100
AcDbCircle
10
61.879472619555514
20
-7.4846599967855623
30
0
40
1.1000000000000032
210
0
220
0
230
1
0
CIRCLE
5
106
100
AcDbEntity
8
0
100
AcDbCircle
10
-0.79023979677766976
20
0.80840384415612276
30
0
40
1.1000000000000001
210
0
220
0
230
1
0
LWPOLYLINE
5
107
100
AcDbEntity
8
0
100
AcDbPolyline
90
27
70
1
43
0.0
10
164.48509999999999
20
-103.39155846182712
10
164.48509999999999
20
-76.329398948734934
42
0.043749261550498429
10
164.33256463264047
20
-74.589444837588772
10
152.89175554755687
20
-9.83890796283303
42
0.38414391302103901
10
142.33347669809214
20
-1.6041569079524627
10
128.09045531542876
20
-4.0621015780935821
10
108.14816650022553
20
-7.579583105717786
42
-0.043674560943269859
10
106.41114930126145
20
-7.7315999999999985
10
70.797299946805452
20
-7.7315999999999994
42
-0.2005811246262667
10
63.680989495345017
20
-4.7571338272927699
10
55.119895322017491
20
3.9145778802094533
42
0.20056760473521165
10
48.004104751355129
20
6.8890440394028687
10
3.9303140136387071
20
6.8913353511561777
42
0.1990172738509155
10
-3.1437598438614107
20
3.9599161372637584
10
-3.9453899388379652
20
3.1577220436274978
42
0.19881345107608658
10
-6.8718359579440369
20
-3.9105691823240507
10
-6.8749482996336191
20
-111.40073602999743
42
0.27506241349215105
10
-1.64398277141236
20
-120.19058246234032
10
30.287504638709891
20
-137.51595688570069
42
0.12492595197521711
10
35.056539106296768
20
-138.72640000000001
10
89.108486480700364
20
-138.72640000000001
42
0.15790805390105511
10
94.971288821697129
20
-136.82748318130379
10
119.61122114345656
20
-118.99541681869624
42
-0.15790805390104992
10
125.4740234844533
20
-117.09650000000002
10
150.7826186784651
20
-117.09650000000002
42
0.19899868620102937
10
157.85603460372118
20
-114.1652189184699
10
161.55851592525605
20
-110.460277380297
42
0.19882605140954382
0
ENDSEC
0
SECTION
2
OBJECTS
0
DICTIONARY
5
C
100
AcDbDictionary
3
ACAD_GROUP
350
D
3
ACAD_MLINESTYLE
350
17
0
DICTIONARY
5
D
100
AcDbDictionary
0
DICTIONARY
5
1A
330
C
100
AcDbDictionary
0
DICTIONARY
5
17
100
AcDbDictionary
0
ENDSEC
0
EOF
