0
SECTION
2
HEADER
9
$INSUNITS
70
4
9
$ACADVER
1
AC1014
9
$HANDSEED
5
FFFF
0
ENDSEC
0
SECTION
2
TABLES
0
TABLE
2
VPORT
5
8
100
AcDbSymbolTable
0
ENDTAB
0
TABLE
2
LTYPE
5
5
100
AcDbSymbolTable
0
LTYPE
5
14
100
AcDbSymbolTableRecord
100
AcDbLinetypeTableRecord
2
BYBLOCK
70
0
0
LTYPE
5
15
100
AcDbSymbolTableRecord
100
AcDbLinetypeTableRecord
2
BYLAYER
70
0
0
ENDTAB
0
TABLE
2
LAYER
5
2
100
AcDbSymbolTable
70
2
0
LAYER
5
50
100
AcDbSymbolTableRecord
100
AcDbLayerTableRecord
2
0
70
0
6
CONTINUOUS
0
ENDTAB
0
TABLE
2
STYLE
5
3
100
AcDbSymbolTable
70
1
0
STYLE
5
11
100
AcDbSymbolTableRecord
100
AcDbTextStyleTableRecord
2
STANDARD
70
0
0
ENDTAB
0
TABLE
2
VIEW
5
6
100
AcDbSymbolTable
70
0
0
ENDTAB
0
TABLE
2
UCS
5
7
100
AcDbSymbolTable
70
0
0
ENDTAB
0
TABLE
2
APPID
5
9
100
AcDbSymbolTable
70
2
0
APPID
5
12
100
AcDbSymbolTableRecord
100
AcDbRegAppTableRecord
2
ACAD
70
0
0
ENDTAB
0
TABLE
2
DIMSTYLE
5
A
100
AcDbSymbolTable
70
1
0
ENDTAB
0
TABLE
2
BLOCK_RECORD
5
1
100
AcDbSymbolTable
70
1
0
BLOCK_RECORD
5
1F
100
AcDbSymbolTableRecord
100
AcDbBlockTableRecord
2
*MODEL_SPACE
0
BLOCK_RECORD
5
1B
100
AcDbSymbolTableRecord
100
AcDbBlockTableRecord
2
*PAPER_SPACE
0
ENDTAB
0
ENDSEC
0
SECTION
2
BLOCKS
0
BLOCK
5
20
100
AcDbEntity
100
AcDbBlockBegin
2
*MODEL_SPACE
0
ENDBLK
5
21
100
AcDbEntity
100
AcDbBlockEnd
0
BLOCK
5
1C
100
AcDbEntity
100
AcDbBlockBegin
2
*PAPER_SPACE
0
ENDBLK
5
1D
100
AcDbEntity
100
AcDbBlockEnd
0
ENDSEC
0
SECTION
2
ENTITIES
0
CIRCLE
5
100
100
AcDbEntity
8
0
100
AcDbCircle
10
90.475793925334841
20
167.31708408048902
30
0
40
1.25
210
0
220
-0
230
1
0
CIRCLE
5
101
100
AcDbEntity
8
0
100
AcDbCircle
10
144.82152479450068
20
186.8695749965654
30
0
40
1.25
210
0
220
-0
230
1
0
CIRCLE
5
102
100
AcDbEntity
8
0
100
AcDbCircle
10
173.60664235580683
20
85.65780032725165
30
0
40
1.7500000000000071
210
0
220
-0
230
1
0
CIRCLE
5
103
100
AcDbEntity
8
0
100
AcDbCircle
10
153.75662400000002
20
177.45939126901177
30
0
40
1.9999999999999929
210
0
220
-0
230
1
0
CIRCLE
5
104
100
AcDbEntity
8
0
100
AcDbCircle
10
-2.9235318318784298
20
140.59763332305619
30
0
40
1.25
210
0
220
-0
230
1
0
CIRCLE
5
105
100
AcDbEntity
8
0
100
AcDbCircle
10
292.88426090539889
20
140.35406448178986
30
0
40
1.25
210
0
220
-0
230
1
0
CIRCLE
5
106
100
AcDbEntity
8
0
100
AcDbCircle
10
199.16779425858013
20
167.31961200075284
30
0
40
1.25
210
0
220
-0
230
1
0
CIRCLE
5
107
100
AcDbEntity
8
0
100
AcDbCircle
10
116.01565369809776
20
85.698215939993077
30
0
40
1.25
210
0
220
-0
230
1
0
CIRCLE
5
108
100
AcDbEntity
8
0
100
AcDbCircle
10
221.38737604373665
20
70.764183097178801
30
0
40
1.25
210
0
220
-0
230
1
0
CIRCLE
5
109
100
AcDbEntity
8
0
100
AcDbCircle
10
26.589887235231132
20
77.911669214167006
30
0
40
1.25
210
0
220
-0
230
1
0
CIRCLE
5
110
100
AcDbEntity
8
0
100
AcDbCircle
10
68.285937355593049
20
70.768989599264046
30
0
40
1.25
210
0
220
-0
230
1
0
CIRCLE
5
111
100
AcDbEntity
8
0
100
AcDbCircle
10
263.07566344598428
20
77.951072194732646
30
0
40
1.25
210
0
220
-0
230
1
0
LINE
5
112
100
AcDbEntity
8
0
100
AcDbLine
10
120.63034238046457
20
187.6780380849205
30
0
11
109.54522541204975
21
179.91503027166385
31
0
0
ARC
5
113
100
AcDbEntity
8
0
100
AcDbCircle
10
86.599936083223355
20
212.67954915438389
30
0
40
39.9999999999959
210
0
220
0
230
1
100
AcDbArc
50
295.00133061881138
51
305.0039028180534
0
LINE
5
114
100
AcDbEntity
8
0
100
AcDbLine
10
103.50550846034828
20
176.42763027273759
30
0
11
92.8868812876958
21
171.47578287400955
31
0
0
ARC
5
115
100
AcDbEntity
8
0
100
AcDbCircle
10
75.981308910569638
20
207.72770175565842
30
0
40
39.999999999998785
210
0
220
0
230
1
100
AcDbArc
50
284.98666516148182
51
295.00133061881138
0
LINE
5
116
100
AcDbEntity
8
0
100
AcDbLine
10
86.325078173487682
20
169.08826028149352
30
0
11
-0.13979070228950619
21
145.94163551473773
31
0
0
SPLINE
5
117
100
AcDbEntity
8
0
100
AcDbSpline
70
0
71
3
72
14
73
10
74
0
42
0.000000001
43
0.0000000001
44
0.0000000001
40
0
40
0
40
0
40
0
40
0.44696018219743328
40
0.44696018219743328
40
0.44696018219743328
40
0.91670342641956482
40
0.91670342641956482
40
0.91670342641956482
40
1
40
1
40
1
40
1
10
-0.13979070228827079
20
145.94163551473804
30
0
10
-2.1490793364384073
20
145.40193978382513
30
0
10
-3.8544181661861776
20
144.14469019578124
30
0
10
-4.9630415485141368
20
142.53877093751362
30
0
10
-6.1281751889984974
20
140.85099257965484
30
0
10
-6.6847729541110867
20
138.73531816116684
30
0
10
-6.4108484019857812
20
136.59247232517657
30
0
10
-6.3622751081870019
20
136.21249513967248
30
0
10
-6.287772937557242
20
135.83312835507732
30
0
10
-6.187391476952544
20
135.45861488963286
30
0
0
LINE
5
118
100
AcDbEntity
8
0
100
AcDbLine
10
-6.187391476952544
20
135.45861488963286
30
0
11
6.6774276154085115
21
87.459863464172884
31
0
0
ARC
5
119
100
AcDbEntity
8
0
100
AcDbCircle
10
21.166043878550994
20
91.34316087480309
30
0
40
15.000000000000139
210
0
220
0
230
1
100
AcDbArc
50
195.00400090319323
51
245.96073190566111
0
ARC
5
120
100
AcDbEntity
8
0
100
AcDbCircle
10
62.072620675452832
20
183.0516306442633
30
0
40
115.41808329527534
210
0
220
0
230
1
100
AcDbArc
50
245.96073190566131
51
303.12784820638427
0
ARC
5
121
100
AcDbEntity
8
0
100
AcDbCircle
10
141.54492122530354
20
61.270793093415833
30
0
40
30.00000000000027
210
0
220
0
230
1
100
AcDbArc
50
90.011304241013818
51
123.12784820638421
0
LINE
5
122
100
AcDbEntity
8
0
100
AcDbLine
10
141.53900233858803
20
91.270792509529102
30
0
11
148.07927988014347
21
91.2720828816161
31
0
0
ARC
5
123
100
AcDbEntity
8
0
100
AcDbCircle
10
148.08519876685904
20
61.272083465503336
30
0
40
29.999999999999755
210
0
220
-0
230
1
100
AcDbArc
50
56.824233331089857
51
90.011304241013931
0
ARC
5
124
100
AcDbEntity
8
0
100
AcDbCircle
10
227.58177143433983
20
182.86779522312276
30
0
40
115.27636484892575
210
0
220
0
230
1
100
AcDbArc
50
236.82423333109003
51
294.0333356702144
0
ARC
5
125
100
AcDbEntity
8
0
100
AcDbCircle
10
268.4211350853767
20
91.284523148506338
30
0
40
15.00000000000014
210
0
220
0
230
1
100
AcDbArc
50
294.0333356702148
51
344.98866015434749
0
LINE
5
126
100
AcDbEntity
8
0
100
AcDbLine
10
282.9092538231111
20
87.399369941577319
30
0
11
295.94117417225942
21
135.99668370064057
31
0
0
SPLINE
5
127
100
AcDbEntity
8
0
100
AcDbSpline
70
0
71
3
72
17
73
13
74
0
42
0.000000001
43
0.0000000001
44
0.0000000001
40
-3.220868196786937e-06
40
-3.220868196786937e-06
40
-3.220868196786937e-06
40
-3.220868196786937e-06
40
0
40
0
40
0
40
0.44702155569946561
40
0.44702155569946561
40
0.44702155569946561
40
0.91680802123133298
40
0.91680802123133298
40
0.91680802123133298
40
1
40
1
40
1
40
1
10
295.94117417225942
20
135.99668370064057
30
0
10
295.94117510051586
20
135.99668716224863
30
0
10
295.94117601891418
20
135.99669058709441
30
0
10
295.94117692745448
20
135.99669397517795
30
0
10
296.44391406001893
20
137.87147645104852
30
0
10
296.22516080922594
20
139.84072962118913
30
0
10
295.4454292938936
20
141.48751941779418
30
0
10
294.62598936313094
20
143.21817322667036
30
0
10
293.17525196077048
20
144.65786595271638
30
0
10
291.31477875922633
20
145.43839383891125
30
0
10
290.98531748599163
20
145.57661335799247
30
0
10
290.64436515008225
20
145.69359151281176
30
0
10
290.2955253437629
20
145.78739179822338
30
0
0
LINE
5
128
100
AcDbEntity
8
0
100
AcDbLine
10
290.2955253437629
20
145.78739179822338
30
0
11
203.31593191586765
21
169.09067495474807
31
0
0
ARC
5
129
100
AcDbEntity
8
0
100
AcDbCircle
10
213.66752136247118
20
207.72802211952413
30
0
40
40.000000000030767
210
0
220
0
230
1
100
AcDbArc
50
244.99554424413466
51
255.00173850989006
0
LINE
5
130
100
AcDbEntity
8
0
100
AcDbLine
10
196.75997168831171
20
171.47702538814735
30
0
11
186.13783119024762
21
176.43121656384793
31
0
0
ARC
5
131
100
AcDbEntity
8
0
100
AcDbCircle
10
203.04538086438654
20
212.68221329518167
30
0
40
39.999999999983054
210
0
220
0
230
1
100
AcDbArc
50
235.00047953365822
51
244.99554424413529
0
LINE
5
132
100
AcDbEntity
8
0
100
AcDbLine
10
180.10259764495302
20
179.91593950421293
30
0
11
169.01274223983336
21
187.68100153469132
31
0
0
SPLINE
5
133
100
AcDbEntity
8
0
100
AcDbSpline
70
0
71
3
72
8
73
4
74
0
42
0.000000001
43
0.0000000001
44
0.0000000001
40
0
40
0
40
0
40
0
40
1
40
1
40
1
40
1
10
169.01274223983336
20
187.68100153469132
30
0
10
167.20987711527624
20
188.94337014531442
30
0
10
165.06049439587545
20
189.62093111467553
30
0
10
162.85974287419452
20
189.62079498852211
30
0
0
LINE
5
134
100
AcDbEntity
8
0
100
AcDbLine
10
162.85974287419452
20
189.62079498852211
30
0
11
126.78293473121488
21
189.61835499202942
31
0
0
SPLINE
5
135
100
AcDbEntity
8
0
100
AcDbSpline
70
0
71
3
72
8
73
4
74
0
42
0.000000001
43
0.0000000001
44
0.0000000001
40
0
40
0
40
0
40
0
40
0.99999947776752762
40
0.99999947776752762
40
0.99999947776752762
40
0.99999947776752762
10
126.78293473121488
20
189.61835499202942
30
0
10
124.58213483175956
20
189.61824155224406
30
0
10
122.43292759395332
20
188.94039361012238
30
0
10
120.63034238046457
20
187.6780380849205
30
0
0
ENDSEC
0
SECTION
2
OBJECTS
0
DICTIONARY
5
C
100
AcDbDictionary
3
ACAD_GROUP
350
D
3
ACAD_MLINESTYLE
350
17
0
DICTIONARY
5
D
100
AcDbDictionary
0
DICTIONARY
5
1A
330
C
100
AcDbDictionary
0
DICTIONARY
5
17
100
AcDbDictionary
0
ENDSEC
0
EOF
