0
SECTION
2
HEADER
9
$INSUNITS
70
4
9
$ACADVER
1
AC1014
9
$HANDSEED
5
FFFF
0
ENDSEC
0
SECTION
2
TABLES
0
TABLE
2
VPORT
5
8
100
AcDbSymbolTable
0
ENDTAB
0
TABLE
2
LTYPE
5
5
100
AcDbSymbolTable
0
LTYPE
5
14
100
AcDbSymbolTableRecord
100
AcDbLinetypeTableRecord
2
BYBLOCK
70
0
0
LTYPE
5
15
100
AcDbSymbolTableRecord
100
AcDbLinetypeTableRecord
2
BYLAYER
70
0
0
ENDTAB
0
TABLE
2
LAYER
5
2
100
AcDbSymbolTable
70
2
0
LAYER
5
50
100
AcDbSymbolTableRecord
100
AcDbLayerTableRecord
2
0
70
0
6
CONTINUOUS
0
ENDTAB
0
TABLE
2
STYLE
5
3
100
AcDbSymbolTable
70
1
0
STYLE
5
11
100
AcDbSymbolTableRecord
100
AcDbTextStyleTableRecord
2
STANDARD
70
0
0
ENDTAB
0
TABLE
2
VIEW
5
6
100
AcDbSymbolTable
70
0
0
ENDTAB
0
TABLE
2
UCS
5
7
100
AcDbSymbolTable
70
0
0
ENDTAB
0
TABLE
2
APPID
5
9
100
AcDbSymbolTable
70
2
0
APPID
5
12
100
AcDbSymbolTableRecord
100
AcDbRegAppTableRecord
2
ACAD
70
0
0
ENDTAB
0
TABLE
2
DIMSTYLE
5
A
100
AcDbSymbolTable
70
1
0
ENDTAB
0
TABLE
2
BLOCK_RECORD
5
1
100
AcDbSymbolTable
70
1
0
BLOCK_RECORD
5
1F
100
AcDbSymbolTableRecord
100
AcDbBlockTableRecord
2
*MODEL_SPACE
0
BLOCK_RECORD
5
1B
100
AcDbSymbolTableRecord
100
AcDbBlockTableRecord
2
*PAPER_SPACE
0
ENDTAB
0
ENDSEC
0
SECTION
2
BLOCKS
0
BLOCK
5
20
100
AcDbEntity
100
AcDbBlockBegin
2
*MODEL_SPACE
0
ENDBLK
5
21
100
AcDbEntity
100
AcDbBlockEnd
0
BLOCK
5
1C
100
AcDbEntity
100
AcDbBlockBegin
2
*PAPER_SPACE
0
ENDBLK
5
1D
100
AcDbEntity
100
AcDbBlockEnd
0
ENDSEC
0
SECTION
2
ENTITIES
0
LWPOLYLINE
5
100
100
AcDbEntity
8
0
100
AcDbPolyline
90
4
70
1
43
0.0
10
82.889227000000005
20
-7.3337699999999995
10
96.508780999999999
20
-10.983118000000001
10
92.885314000000022
20
-24.506079999999997
10
79.26576
20
-20.856731000000003
0
LWPOLYLINE
5
101
100
AcDbEntity
8
0
100
AcDbPolyline
90
4
70
1
43
0.0
10
274.49575900000002
20
-30.570181999999999
10
270.87229200000002
20
-17.047220000000003
10
284.49184600000001
20
-13.397870999999999
10
288.11531300000001
20
-26.920834000000006
0
LWPOLYLINE
5
102
100
AcDbEntity
8
0
100
AcDbPolyline
90
4
70
1
43
0.0
10
55.533087000000009
20
-17.085768999999999
10
51.909620000000004
20
-30.608731000000002
10
38.290065999999996
20
-26.959382000000005
10
41.913533000000001
20
-13.436421000000001
0
LWPOLYLINE
5
103
100
AcDbEntity
8
0
100
AcDbPolyline
90
4
70
1
43
0.0
10
195.26196900000002
20
-28.507090999999999
10
208.88152300000002
20
-24.857742000000002
10
212.50499000000002
20
-38.380704999999999
10
198.88543600000003
20
-42.030053000000002
0
LWPOLYLINE
5
104
100
AcDbEntity
8
0
100
AcDbPolyline
90
4
70
1
43
0.0
10
63.501367000000002
20
-6.2799190000000005
10
77.120920999999996
20
-9.9292669999999994
10
73.497454000000005
20
-23.452228999999999
10
59.877900000000004
20
-19.802879999999998
0
LWPOLYLINE
5
105
100
AcDbEntity
8
0
100
AcDbPolyline
90
4
70
1
43
0.0
10
22.427816000000004
20
-67.225979000000009
10
18.804349000000002
20
-80.748941000000002
10
5.1847949999999994
20
-77.099592000000001
10
8.8082619999999991
20
-63.576631000000006
0
LWPOLYLINE
5
106
100
AcDbEntity
8
0
100
AcDbPolyline
90
4
70
1
43
0.0
10
189.55580700000002
20
-103.48654100000002
10
200.357033
20
-94.423236000000003
10
209.35606000000004
20
-105.14785800000001
10
198.55483300000003
20
-114.211163
0
LWPOLYLINE
5
107
100
AcDbEntity
8
0
100
AcDbPolyline
90
4
70
1
43
0.0
10
262.90401700000007
20
-6.2413600000000002
10
266.52748399999996
20
-19.764323000000001
10
252.90793000000002
20
-23.413671000000001
10
249.28446300000002
20
-9.8907089999999993
0
LWPOLYLINE
5
108
100
AcDbEntity
8
0
100
AcDbPolyline
90
4
70
1
43
0.0
10
121.38258999999999
20
-83.905711999999994
10
125.00605700000001
20
-70.382750999999999
10
138.62561100000002
20
-74.032099000000002
10
135.00214399999999
20
-87.555060999999995
0
LWPOLYLINE
5
109
100
AcDbEntity
8
0
100
AcDbPolyline
90
4
70
1
43
0.0
10
229.89659200000003
20
-10.944572000000001
10
243.51614600000002
20
-7.2952230000000009
10
247.139613
20
-20.818185999999997
10
233.52005899999997
20
-24.467534000000004
0
LWPOLYLINE
5
110
100
AcDbEntity
8
0
100
AcDbPolyline
90
4
70
1
43
0.0
10
201.39932700000003
20
-70.344193999999987
10
205.02279400000003
20
-83.867156999999992
10
191.40323999999998
20
-87.516505000000024
10
187.77977300000001
20
-73.993543000000003
0
LWPOLYLINE
5
111
100
AcDbEntity
8
0
100
AcDbPolyline
90
4
70
1
43
0.0
10
200.105234
20
-65.514566000000002
10
186.48568
20
-69.163914000000005
10
182.862213
20
-55.640952000000006
10
196.48176699999999
20
-51.991603000000012
0
LWPOLYLINE
5
112
100
AcDbEntity
8
0
100
AcDbPolyline
90
4
70
1
43
0.0
10
32.26294
20
-30.520796000000004
10
28.639472999999999
20
-44.043758000000004
10
15.019919000000002
20
-40.39440900000001
10
18.643386
20
-26.871448000000001
0
LWPOLYLINE
5
113
100
AcDbEntity
8
0
100
AcDbPolyline
90
4
70
1
43
0.0
10
19.937479
20
-22.041824000000002
10
23.560946000000001
20
-8.5188629999999996
10
37.180500000000002
20
-12.168210999999999
10
33.557033000000004
20
-25.691173000000003
0
LWPOLYLINE
5
114
100
AcDbEntity
8
0
100
AcDbPolyline
90
4
70
1
43
0.0
10
126.30014500000001
20
-65.553117000000015
10
129.92361200000002
20
-52.030156000000005
10
143.54316599999999
20
-55.679504000000009
10
139.91969900000001
20
-69.202466000000001
0
LWPOLYLINE
5
115
100
AcDbEntity
8
0
100
AcDbPolyline
90
4
70
1
43
0.0
10
27.345383000000005
20
-48.873389000000003
10
23.721916000000004
20
-62.39635100000001
10
10.102361999999999
20
-58.747002000000002
10
13.725829000000003
20
-45.224041
0
LWPOLYLINE
5
116
100
AcDbEntity
8
0
100
AcDbPolyline
90
4
70
1
43
0.0
10
302.68347
20
-62.357796
10
299.06000300000005
20
-48.834834000000001
10
312.67955700000005
20
-45.185485000000007
10
316.30302400000005
20
-58.708448000000004
0
LWPOLYLINE
5
117
100
AcDbEntity
8
0
100
AcDbPolyline
90
4
70
1
43
0.0
10
191.564211
20
-33.639008000000004
10
195.18767800000003
20
-47.161971000000008
10
181.56812400000004
20
-50.811318999999997
10
177.94465700000001
20
-37.288356999999998
0
LWPOLYLINE
5
118
100
AcDbEntity
8
0
100
AcDbPolyline
90
4
70
1
43
0.0
10
134.84116900000001
20
-33.677574999999997
10
148.460723
20
-37.326923000000001
10
144.837256
20
-50.849885000000008
10
131.217702
20
-47.200536
0
LWPOLYLINE
5
119
100
AcDbEntity
8
0
100
AcDbPolyline
90
4
70
1
43
0.0
10
212.579286
20
-19.725832999999998
10
226.19883999999999
20
-16.076484000000001
10
229.82230700000002
20
-29.599446999999998
10
216.202753
20
-33.248795000000001
0
LWPOLYLINE
5
120
100
AcDbEntity
8
0
100
AcDbPolyline
90
4
70
1
43
0.0
10
125.86826200000003
20
-94.398142000000007
10
136.669489
20
-103.46144699999999
10
127.67046200000003
20
-114.186069
10
116.86923600000001
20
-105.12276399999999
0
LWPOLYLINE
5
121
100
AcDbEntity
8
0
100
AcDbPolyline
90
4
70
1
43
0.0
10
292.84835099999998
20
-25.652616000000002
10
289.22488399999997
20
-12.129653999999999
10
302.84443799999997
20
-8.4803049999999995
10
306.46790499999997
20
-22.003267999999998
0
LWPOLYLINE
5
122
100
AcDbEntity
8
0
100
AcDbPolyline
90
4
70
1
43
0.0
10
297.76590699999997
20
-44.005202000000011
10
294.14243999999997
20
-30.482240000000004
10
307.76199400000002
20
-26.832890999999996
10
311.38546099999996
20
-40.355854000000008
0
LWPOLYLINE
5
123
100
AcDbEntity
8
0
100
AcDbPolyline
90
4
70
1
43
0.0
10
303.97755799999999
20
-67.187422999999995
10
317.59711200000004
20
-63.538074000000009
10
321.22057900000004
20
-77.061036999999999
10
307.60102500000005
20
-80.710385000000002
0
LWPOLYLINE
5
124
100
AcDbEntity
8
0
100
AcDbPolyline
90
4
70
1
43
0.0
10
106.33710600000001
20
-123.246775
10
94.787063000000003
20
-115.15934700000001
10
102.817133
20
-103.69121899999999
10
114.36717700000001
20
-111.77864599999999
0
SPLINE
5
125
100
AcDbEntity
8
0
100
AcDbSpline
70
0
71
3
72
8
73
4
74
0
42
0.000000001
43
0.0000000001
44
0.0000000001
40
0
40
0
40
0
40
0
40
1
40
1
40
1
40
1
10
291.26560499999999
20
-98.512065000000021
30
0
10
291.76886100000002
20
-97.565859000000017
30
0
10
291.85389600000002
20
-96.452419999999989
30
0
10
291.50016299999999
20
-95.440765000000013
30
0
0
LWPOLYLINE
5
126
100
AcDbEntity
8
0
100
AcDbPolyline
90
4
70
1
43
0.0
10
130.61902400000002
20
-127.029931
10
120.71952900000001
20
-136.92942600000003
10
110.749323
20
-126.95922000000002
10
120.64881800000001
20
-117.05972500000001
0
SPLINE
5
127
100
AcDbEntity
8
0
100
AcDbSpline
70
0
71
3
72
8
73
4
74
0
42
0.000000001
43
0.0000000001
44
0.0000000001
40
0
40
0
40
0
40
0
40
1
40
1
40
1
40
1
10
205.36975600000002
20
-142.43745000000001
30
0
10
206.495135
20
-142.33899500000001
30
0
10
207.54214700000003
20
-141.82028600000001
30
0
10
208.30229599999998
20
-140.98461600000002
30
0
0
SPLINE
5
128
100
AcDbEntity
8
0
100
AcDbSpline
70
0
71
3
72
8
73
4
74
0
42
0.000000001
43
0.0000000001
44
0.0000000001
40
0
40
0
40
0
40
0
40
1
40
1
40
1
40
1
10
34.856724999999997
20
-95.57224699999999
30
0
10
34.575575000000001
20
-96.599604000000014
30
0
10
34.714058000000001
20
-97.696570000000008
30
0
10
35.241709
20
-98.621821999999995
30
0
0
SPLINE
5
129
100
AcDbEntity
8
0
100
AcDbSpline
70
0
71
3
72
8
73
4
74
0
42
0.000000001
43
0.0000000001
44
0.0000000001
40
0
40
0
40
0
40
0
40
1
40
1
40
1
40
1
10
136.33112
20
-28.722677000000001
30
0
10
136.91657700000002
20
-26.583313000000004
30
0
10
135.65688700000004
20
-24.374410000000001
30
0
10
133.51752400000004
20
-23.788952000000002
30
0
0
SPLINE
5
130
100
AcDbEntity
8
0
100
AcDbSpline
70
0
71
3
72
8
73
4
74
0
42
0.000000001
43
0.0000000001
44
0.0000000001
40
0
40
0
40
0
40
0
40
1
40
1
40
1
40
1
10
35.241709
20
-98.621821999999995
30
0
10
35.769359999999999
20
-99.547075000000007
30
0
10
36.642955999999998
20
-100.224822
30
0
10
37.670315000000002
20
-100.505966
30
0
0
SPLINE
5
131
100
AcDbEntity
8
0
100
AcDbSpline
70
0
71
3
72
8
73
4
74
0
42
0.000000001
43
0.0000000001
44
0.0000000001
40
0
40
0
40
0
40
0
40
1
40
1
40
1
40
1
10
192.94766100000004
20
-23.766805999999999
30
0
10
190.80219299999999
20
-24.329473000000004
30
0
10
189.51907399999999
20
-26.524845000000003
30
0
10
190.08172999999999
20
-28.670316
30
0
0
SPLINE
5
132
100
AcDbEntity
8
0
100
AcDbSpline
70
0
71
3
72
8
73
4
74
0
42
0.000000001
43
0.0000000001
44
0.0000000001
40
0
40
0
40
0
40
0
40
1
40
1
40
1
40
1
10
82.895333999999991
20
-1.5134829999999999
30
0
10
80.892724000000001
20
-1.026635
30
0
10
78.866156000000004
20
-2.2211189999999998
30
0
10
78.322160999999994
20
-4.2089660000000002
30
0
0
SPLINE
5
133
100
AcDbEntity
8
0
100
AcDbSpline
70
0
71
3
72
8
73
4
74
0
42
0.000000001
43
0.0000000001
44
0.0000000001
40
0
40
0
40
0
40
0
40
1
40
1
40
1
40
1
10
288.850076
20
-100.42337700000002
30
0
10
289.88664700000004
20
-100.151179
30
0
10
290.76235000000003
20
-99.458271000000011
30
0
10
291.26560499999999
20
-98.512065000000021
30
0
0
LWPOLYLINE
5
134
100
AcDbEntity
8
0
100
AcDbPolyline
90
4
70
1
43
0.0
10
68.579886999999999
20
-41.804814000000007
10
54.960333000000006
20
-38.155465
10
58.583800000000004
20
-24.632504000000001
10
72.203354000000004
20
-28.281852000000001
0
LWPOLYLINE
5
135
100
AcDbEntity
8
0
100
AcDbPolyline
90
4
70
1
43
0.0
10
234.73986499999998
20
-47.952037000000004
10
221.12031099999999
20
-51.601385000000008
10
217.49684400000001
20
-38.078423000000001
10
231.11639800000003
20
-34.429074
0
SPLINE
5
136
100
AcDbEntity
8
0
100
AcDbSpline
70
0
71
3
72
8
73
4
74
0
42
0.000000001
43
0.0000000001
44
0.0000000001
40
0
40
0
40
0
40
0
40
1
40
1
40
1
40
1
10
210.26815099999999
20
-15.048987
30
0
10
209.23785600000002
20
-15.319185000000001
30
0
10
208.35709500000002
20
-15.987601000000002
30
0
10
207.81962800000002
20
-16.90719
30
0
0
SPLINE
5
137
100
AcDbEntity
8
0
100
AcDbSpline
70
0
71
3
72
8
73
4
74
0
42
0.000000001
43
0.0000000001
44
0.0000000001
40
0
40
0
40
0
40
0
40
1
40
1
40
1
40
1
10
266.814617
20
-2.5160169999999997
30
0
10
265.86917900000003
20
-1.136511
30
0
10
264.15932000000004
20
-0.49925699999999995
30
0
10
262.54163399999999
20
-0.92350200000000005
30
0
0
LWPOLYLINE
5
138
100
AcDbEntity
8
0
100
AcDbPolyline
90
4
70
1
43
0.0
10
213.799081
20
-43.210332000000008
10
217.42254800000001
20
-56.733295000000005
10
203.80299399999998
20
-60.382643000000009
10
200.17952700000001
20
-46.859681000000002
0
LWPOLYLINE
5
139
100
AcDbEntity
8
0
100
AcDbPolyline
90
4
70
1
43
0.0
10
108.90853300000002
20
-38.116973000000002
10
105.285066
20
-51.639935000000001
10
91.665511999999993
20
-47.990586000000008
10
95.288979000000012
20
-34.467624999999998
0
LWPOLYLINE
5
140
100
AcDbEntity
8
0
100
AcDbPolyline
90
4
70
1
43
0.0
10
121.30828999999999
20
-65.250833
10
117.68482300000001
20
-78.773795000000007
10
104.06526900000001
20
-75.124445999999992
10
107.68873600000001
20
-61.601484999999997
0
SPLINE
5
141
100
AcDbEntity
8
0
100
AcDbSpline
70
0
71
3
72
8
73
4
74
0
42
0.000000001
43
0.0000000001
44
0.0000000001
40
0
40
0
40
0
40
0
40
1
40
1
40
1
40
1
10
62.928797000000003
20
-0.10786500000000002
30
0
10
61.330296000000004
20
0.137879
30
0
10
59.741786000000005
20
-0.60679700000000003
30
0
10
58.908177000000002
20
-1.9926869999999999
30
0
0
LWPOLYLINE
5
142
100
AcDbEntity
8
0
100
AcDbPolyline
90
4
70
1
43
0.0
10
218.71663900000001
20
-61.562927000000009
10
222.34010600000002
20
-75.085890000000006
10
208.72055200000003
20
-78.735237999999995
10
205.09708500000002
20
-65.212276000000003
0
LWPOLYLINE
5
143
100
AcDbEntity
8
0
100
AcDbPolyline
90
4
70
1
43
0.0
10
239.65742599999999
20
-66.304628000000008
10
226.03787200000002
20
-69.953976000000011
10
222.41440499999999
20
-56.431014000000005
10
236.03395899999998
20
-52.781665000000011
0
SPLINE
5
144
100
AcDbEntity
8
0
100
AcDbSpline
70
0
71
3
72
8
73
4
74
0
42
0.000000001
43
0.0000000001
44
0.0000000001
40
0
40
0
40
0
40
0
40
1
40
1
40
1
40
1
10
0.20456100000000002
20
-76.602990000000005
30
0
10
-0.076589000000000004
20
-77.630348999999995
30
0
10
0.061894000000000012
20
-78.727316000000002
30
0
10
0.58954499999999999
20
-79.652570999999995
30
0
0
SPLINE
5
145
100
AcDbEntity
8
0
100
AcDbSpline
70
0
71
3
72
8
73
4
74
0
42
0.000000001
43
0.0000000001
44
0.0000000001
40
0
40
0
40
0
40
0
40
1
40
1
40
1
40
1
10
0.58954499999999999
20
-79.652570999999995
30
0
10
1.1171950000000002
20
-80.577826000000016
30
0
10
1.9907910000000002
20
-81.255576000000005
30
0
10
3.0181499999999999
20
-81.536723999999992
30
0
0
SPLINE
5
146
100
AcDbEntity
8
0
100
AcDbSpline
70
0
71
3
72
8
73
4
74
0
42
0.000000001
43
0.0000000001
44
0.0000000001
40
0
40
0
40
0
40
0
40
1
40
1
40
1
40
1
10
323.24722900000006
20
-81.645184
30
0
10
324.27752400000003
20
-81.374985999999993
30
0
10
325.15828399999998
20
-80.706570999999997
30
0
10
325.69575200000003
20
-79.786982999999992
30
0
0
SPLINE
5
147
100
AcDbEntity
8
0
100
AcDbSpline
70
0
71
3
72
8
73
4
74
0
42
0.000000001
43
0.0000000001
44
0.0000000001
40
0
40
0
40
0
40
0
40
1
40
1
40
1
40
1
10
325.69575200000003
20
-79.786982999999992
30
0
10
326.23321900000002
20
-78.867395000000016
30
0
10
326.38336800000002
20
-77.771962000000002
30
0
10
326.11316600000004
20
-76.741668000000004
30
0
0
SPLINE
5
148
100
AcDbEntity
8
0
100
AcDbSpline
70
0
71
3
72
8
73
4
74
0
42
0.000000001
43
0.0000000001
44
0.0000000001
40
0
40
0
40
0
40
0
40
1
40
1
40
1
40
1
10
207.81962800000002
20
-16.90719
30
0
10
207.28216000000003
20
-17.826778000000001
30
0
10
207.13201300000003
20
-18.922211999999998
30
0
10
207.40221599999998
20
-19.952505000000002
30
0
0
LWPOLYLINE
5
149
100
AcDbEntity
8
0
100
AcDbPolyline
90
4
70
1
43
0.0
10
126.22584599999999
20
-46.898239000000004
10
122.602379
20
-60.421201000000011
10
108.98282500000001
20
-56.771852000000003
10
112.606292
20
-43.248891
0
SPLINE
5
150
100
AcDbEntity
8
0
100
AcDbSpline
70
0
71
3
72
8
73
4
74
0
42
0.000000001
43
0.0000000001
44
0.0000000001
40
0
40
0
40
0
40
0
40
1
40
1
40
1
40
1
10
305.424307
20
-4.0674349999999997
30
0
10
304.50472300000001
20
-3.5299670000000001
30
0
10
303.40929399999999
20
-3.3798160000000004
30
0
10
302.37900299999995
20
-3.6500140000000005
30
0
0
LWPOLYLINE
5
151
100
AcDbEntity
8
0
100
AcDbPolyline
90
4
70
1
43
0.0
10
91.591219000000009
20
-29.335712000000001
10
87.967752000000004
20
-42.858674000000001
10
74.348197999999996
20
-39.209325
10
77.971665000000002
20
-25.686364000000005
0
SPLINE
5
152
100
AcDbEntity
8
0
100
AcDbSpline
70
0
71
3
72
8
73
4
74
0
42
0.000000001
43
0.0000000001
44
0.0000000001
40
0
40
0
40
0
40
0
40
1
40
1
40
1
40
1
10
24.032743
20
-3.540842
30
0
10
21.893380000000001
20
-2.95539
30
0
10
19.684479999999997
20
-4.2150829999999999
30
0
10
19.099026000000002
20
-6.354445000000001
30
0
0
SPLINE
5
153
100
AcDbEntity
8
0
100
AcDbSpline
70
0
71
3
72
8
73
4
74
0
42
0.000000001
43
0.0000000001
44
0.0000000001
40
0
40
0
40
0
40
0
40
1
40
1
40
1
40
1
10
119.26076500000001
20
-19.835076999999998
30
0
10
119.846219
20
-17.695715
30
0
10
118.58653400000001
20
-15.486813000000001
30
0
10
116.447175
20
-14.901347000000001
30
0
0
LWPOLYLINE
5
154
100
AcDbEntity
8
0
100
AcDbPolyline
90
4
70
1
43
0.0
10
103.99096900000001
20
-56.469571000000002
10
100.367502
20
-69.992532999999995
10
86.747947999999994
20
-66.343183999999994
10
90.371415000000013
20
-52.820223000000006
0
SPLINE
5
155
100
AcDbEntity
8
0
100
AcDbSpline
70
0
71
3
72
8
73
4
74
0
42
0.000000001
43
0.0000000001
44
0.0000000001
40
0
40
0
40
0
40
0
40
1
40
1
40
1
40
1
10
307.28249700000003
20
-6.5159549999999999
30
0
10
307.01230199999998
20
-5.4856629999999997
30
0
10
306.3438910000001
20
-4.6049040000000012
30
0
10
305.424307
20
-4.0674349999999997
30
0
0
LWPOLYLINE
5
156
100
AcDbEntity
8
0
100
AcDbPolyline
90
4
70
1
43
0.0
10
69.430639999999997
20
-57.561913000000004
10
73.054107000000002
20
-44.038952000000002
10
86.67366100000001
20
-47.688300000000005
10
83.050193999999991
20
-61.211261999999998
0
LWPOLYLINE
5
157
100
AcDbEntity
8
0
100
AcDbPolyline
90
4
70
1
43
0.0
10
257.82548399999996
20
-41.766258000000001
10
254.20201700000001
20
-28.243296000000004
10
267.82157100000001
20
-24.593947000000004
10
271.44503800000001
20
-38.116909999999997
0
LWPOLYLINE
5
158
100
AcDbEntity
8
0
100
AcDbPolyline
90
4
70
1
43
0.0
10
279.41332
20
-48.92277
10
275.78985299999999
20
-35.399808000000007
10
289.40940699999999
20
-31.750459000000006
10
293.03287400000005
20
-45.273421999999997
0
LWPOLYLINE
5
159
100
AcDbEntity
8
0
100
AcDbPolyline
90
4
70
1
43
0.0
10
252.05718000000002
20
-39.170769
10
238.43762599999997
20
-42.820116999999996
10
234.81415900000002
20
-29.297155000000004
10
248.43371300000001
20
-25.647806000000003
0
LWPOLYLINE
5
160
100
AcDbEntity
8
0
100
AcDbPolyline
90
4
70
1
43
0.0
10
28.454944000000001
20
-63.664559999999994
10
32.078410999999996
20
-50.141598999999999
10
45.697965000000011
20
-53.790946999999996
10
42.074497999999998
20
-67.313908999999995
0
LWPOLYLINE
5
161
100
AcDbEntity
8
0
100
AcDbPolyline
90
4
70
1
43
0.0
10
27.160844000000001
20
-68.494196000000017
10
40.780397999999998
20
-72.143543999999991
10
37.156931
20
-85.666506000000012
10
23.537376999999999
20
-82.017156999999997
0
LWPOLYLINE
5
162
100
AcDbEntity
8
0
100
AcDbPolyline
90
4
70
1
43
0.0
10
99.073413000000002
20
-74.822148999999996
10
95.449946000000011
20
-88.345111000000003
10
81.830392000000018
20
-84.695762000000002
10
85.453858999999994
20
-71.172801000000007
0
LWPOLYLINE
5
163
100
AcDbEntity
8
0
100
AcDbPolyline
90
4
70
1
43
0.0
10
50.042775000000006
20
-56.508047000000005
10
53.666242000000004
20
-42.985085999999995
10
67.285796000000005
20
-46.634434000000013
10
63.662329000000007
20
-60.157395999999999
0
LWPOLYLINE
5
164
100
AcDbEntity
8
0
100
AcDbPolyline
90
4
70
1
43
0.0
10
262.74305700000002
20
-60.118848999999997
10
259.11959000000002
20
-46.595886999999998
10
272.73914400000001
20
-42.946538000000004
10
276.36261100000002
20
-56.469501000000008
0
LWPOLYLINE
5
165
100
AcDbEntity
8
0
100
AcDbPolyline
90
4
70
1
43
0.0
10
102.771171
20
-79.954071999999996
10
116.390725
20
-83.603420000000014
10
112.76725800000001
20
-97.126382000000007
10
99.147704000000019
20
-93.477032999999992
0
LWPOLYLINE
5
166
100
AcDbEntity
8
0
100
AcDbPolyline
90
4
70
1
43
0.0
10
280.70740899999998
20
-53.75239100000001
10
294.32696299999998
20
-50.103042000000002
10
297.95042999999998
20
-63.626005000000006
10
284.33087599999999
20
-67.27535300000001
0
LWPOLYLINE
5
167
100
AcDbEntity
8
0
100
AcDbPolyline
90
4
70
1
43
0.0
10
210.01465499999998
20
-83.564864
10
223.634209
20
-79.915514999999999
10
227.25767599999998
20
-93.438478000000003
10
213.63812200000001
20
-97.087826000000007
0
LWPOLYLINE
5
168
100
AcDbEntity
8
0
100
AcDbPolyline
90
4
70
1
43
0.0
10
302.86798700000008
20
-81.978599000000003
10
289.24843300000009
20
-85.627946999999992
10
285.62496600000003
20
-72.104984999999999
10
299.24452000000002
20
-68.455635999999998
0
LWPOLYLINE
5
169
100
AcDbEntity
8
0
100
AcDbPolyline
90
4
70
1
43
0.0
10
239.73170800000003
20
-47.649746999999998
10
253.35126200000005
20
-44.000398000000004
10
256.97472900000002
20
-57.523361000000008
10
243.35517500000003
20
-61.172709000000005
0
LWPOLYLINE
5
170
100
AcDbEntity
8
0
100
AcDbPolyline
90
4
70
1
43
0.0
10
62.368236000000003
20
-64.987030000000004
10
58.744768999999991
20
-78.509992000000011
10
45.125215000000011
20
-74.86064300000001
10
48.748682000000009
20
-61.337681999999994
0
LWPOLYLINE
5
171
100
AcDbEntity
8
0
100
AcDbPolyline
90
4
70
1
43
0.0
10
81.756101000000001
20
-66.040889000000007
10
78.132633999999996
20
-79.563851
10
64.513080000000002
20
-75.914501999999999
10
68.136546999999993
20
-62.391541000000004
0
LWPOLYLINE
5
172
100
AcDbEntity
8
0
100
AcDbPolyline
90
4
70
1
43
0.0
10
227.33196200000003
20
-74.783603999999997
10
240.95151600000005
20
-71.134255000000024
10
244.574983
20
-84.657218
10
230.95542900000001
20
-88.306566000000004
0
LWPOLYLINE
5
173
100
AcDbEntity
8
0
100
AcDbPolyline
90
4
70
1
43
0.0
10
264.91012799999999
20
-87.138645999999994
10
268.53359499999999
20
-100.661609
10
254.91404100000005
20
-104.310957
10
251.29057400000005
20
-90.787995000000009
0
LWPOLYLINE
5
174
100
AcDbEntity
8
0
100
AcDbPolyline
90
4
70
1
43
0.0
10
273.26663500000001
20
-99.393396999999993
10
269.643168
20
-85.870435000000001
10
283.262722
20
-82.221086
10
286.886189
20
-95.744049000000018
0
LWPOLYLINE
5
175
100
AcDbEntity
8
0
100
AcDbPolyline
90
4
70
1
43
0.0
10
248.27274000000003
20
-79.525299000000004
10
244.64927299999999
20
-66.002337000000011
10
258.26882699999999
20
-62.352988000000011
10
261.89229399999999
20
-75.875951000000001
0
LWPOLYLINE
5
176
100
AcDbEntity
8
0
100
AcDbPolyline
90
4
70
1
43
0.0
10
205.57058999999998
20
-117.07839
10
215.47008500000004
20
-126.97788500000001
10
205.49987900000002
20
-136.94809100000001
10
195.60038400000002
20
-127.04859599999999
0
LWPOLYLINE
5
177
100
AcDbEntity
8
0
100
AcDbPolyline
90
4
70
1
43
0.0
10
264.037149
20
-64.948478000000009
10
277.65670299999999
20
-61.299129000000008
10
281.28017
20
-74.822091999999998
10
267.660616
20
-78.471440000000001
0
LWPOLYLINE
5
178
100
AcDbEntity
8
0
100
AcDbPolyline
90
4
70
1
43
0.0
10
223.38775400000003
20
-103.74360500000002
10
231.41782500000002
20
-115.21173400000002
10
219.86778100000004
20
-123.29916200000001
10
211.83771100000001
20
-111.83103300000001
0
LWPOLYLINE
5
179
100
AcDbEntity
8
0
100
AcDbPolyline
90
4
70
1
43
0.0
10
46.992055000000008
20
-48.961316000000004
10
33.372501
20
-45.311966999999996
10
36.995968000000005
20
-31.789006000000004
10
50.615522000000006
20
-35.438353999999997
0
LWPOLYLINE
5
180
100
AcDbEntity
8
0
100
AcDbPolyline
90
4
70
1
43
0.0
10
61.495250000000006
20
-87.177199000000002
10
75.114804000000007
20
-90.826546999999991
10
71.491337000000001
20
-104.34950900000001
10
57.871783000000001
20
-100.70016000000001
0
LWPOLYLINE
5
181
100
AcDbEntity
8
0
100
AcDbPolyline
90
4
70
1
43
0.0
10
82.950178000000022
20
-93.641197000000005
10
95.729118
20
-99.600114000000005
10
89.812461999999996
20
-112.28842299999999
10
77.033523000000002
20
-106.32950600000001
0
LWPOLYLINE
5
182
100
AcDbEntity
8
0
100
AcDbPolyline
90
4
70
1
43
0.0
10
243.26289500000001
20
-93.700556000000006
10
249.179551
20
-106.388865
10
236.400611
20
-112.34778200000001
10
230.48395600000003
20
-99.659472999999991
0
LWPOLYLINE
5
183
100
AcDbEntity
8
0
100
AcDbPolyline
90
4
70
1
43
0.0
10
53.138743000000012
20
-99.431943000000018
10
39.519189000000011
20
-95.782593999999989
10
43.142656000000002
20
-82.259633000000008
10
56.762209999999996
20
-85.908981000000026
0
LWPOLYLINE
5
184
100
AcDbEntity
8
0
100
AcDbPolyline
90
4
70
1
43
0.0
10
96.583068999999995
20
-29.637999000000001
10
100.20653600000001
20
-16.115038000000006
10
113.82609000000001
20
-19.764385999999998
10
110.202623
20
-33.287348000000001
0
LWPOLYLINE
5
185
100
AcDbEntity
8
0
100
AcDbPolyline
90
4
70
1
43
0.0
10
113.90038400000002
20
-38.419265000000003
10
117.52385100000001
20
-24.896304000000001
10
131.143405
20
-28.545652
10
127.519938
20
-42.068614000000004
0
SPLINE
5
186
100
AcDbEntity
8
0
100
AcDbSpline
70
0
71
3
72
8
73
4
74
0
42
0.000000001
43
0.0000000001
44
0.0000000001
40
0
40
0
40
0
40
0
40
1
40
1
40
1
40
1
10
248.15654800000002
20
-4.9132910000000001
30
0
10
247.59388000000001
20
-2.7678279999999997
30
0
10
245.39851200000001
20
-1.4847140000000001
30
0
10
243.25304500000001
20
-2.0473699999999999
30
0
0
SPLINE
5
187
100
AcDbEntity
8
0
100
AcDbSpline
70
0
71
3
72
8
73
4
74
0
42
0.000000001
43
0.0000000001
44
0.0000000001
40
0
40
0
40
0
40
0
40
1
40
1
40
1
40
1
10
227.61656700000003
20
-6.2003770000000005
30
0
10
225.47110000000004
20
-6.7630380000000017
30
0
10
224.18798100000004
20
-8.9584089999999996
30
0
10
224.75064000000003
20
-11.103876
30
0
0
SPLINE
5
188
100
AcDbEntity
8
0
100
AcDbSpline
70
0
71
3
72
8
73
4
74
0
42
0.000000001
43
0.0000000001
44
0.0000000001
40
0
40
0
40
0
40
0
40
1
40
1
40
1
40
1
10
101.937377
20
-10.925333000000002
30
0
10
102.256826
20
-9.8837130000000002
30
0
10
102.14067400000002
20
-8.7571119999999993
30
0
10
101.61542500000002
20
-7.8025790000000006
30
0
0
SPLINE
5
189
100
AcDbEntity
8
0
100
AcDbSpline
70
0
71
3
72
8
73
4
74
0
42
0.000000001
43
0.0000000001
44
0.0000000001
40
0
40
0
40
0
40
0
40
1
40
1
40
1
40
1
10
101.61542500000002
20
-7.8025790000000006
30
0
10
101.090175
20
-6.848046000000001
30
0
10
100.20063700000001
20
-6.1470150000000015
30
0
10
99.149772000000013
20
-5.8594360000000005
30
0
0
SPLINE
5
190
100
AcDbEntity
8
0
100
AcDbSpline
70
0
71
3
72
8
73
4
74
0
42
0.000000001
43
0.0000000001
44
0.0000000001
40
0
40
0
40
0
40
0
40
1
40
1
40
1
40
1
10
117.90985300000001
20
-140.98461499999999
30
0
10
118.67000300000001
20
-141.82028600000001
30
0
10
119.717016
20
-142.33899600000001
30
0
10
120.84239600000001
20
-142.43745200000001
30
0
0
CIRCLE
5
191
100
AcDbEntity
8
0
100
AcDbCircle
10
38.016259000000005
20
-18.695098000000002
30
0
40
1.2500000000000004
210
0
220
0
230
1
0
CIRCLE
5
192
100
AcDbEntity
8
0
100
AcDbCircle
10
24.028677999999999
20
-71.868339000000006
30
0
40
1.2499999999999998
210
0
220
0
230
1
0
CIRCLE
5
193
100
AcDbEntity
8
0
100
AcDbCircle
10
87.489848000000009
20
-54.010916000000009
30
0
40
1.2499999999999936
210
0
220
0
230
1
0
CIRCLE
5
194
100
AcDbEntity
8
0
100
AcDbCircle
10
76.923347000000007
20
-98.027477000000005
30
0
40
1.2499999999999987
210
0
220
0
230
1
0
CIRCLE
5
195
100
AcDbEntity
8
0
100
AcDbCircle
10
117.993156
20
-96.38068100000001
30
0
40
1.2499999999999929
210
0
220
0
230
1
0
CIRCLE
5
196
100
AcDbEntity
8
0
100
AcDbCircle
10
163.208494
20
-136.157871
30
0
40
1.2499999999999969
210
0
220
0
230
1
0
CIRCLE
5
197
100
AcDbEntity
8
0
100
AcDbCircle
10
178.56025900000003
20
-137.62403999999998
30
0
40
1.7500000000000091
210
0
220
0
230
1
0
CIRCLE
5
198
100
AcDbEntity
8
0
100
AcDbCircle
10
206.96913100000003
20
-96.540216000000001
30
0
40
1.2500000000000053
210
0
220
0
230
1
0
CIRCLE
5
199
100
AcDbEntity
8
0
100
AcDbCircle
10
249.55066700000003
20
-98.255522000000013
30
0
40
1.2499999999999925
210
0
220
0
230
1
0
CIRCLE
5
200
100
AcDbEntity
8
0
100
AcDbCircle
10
239.29047600000001
20
-55.215975
30
0
40
1.25
210
0
220
0
230
1
0
CIRCLE
5
201
100
AcDbEntity
8
0
100
AcDbCircle
10
194.69334200000003
20
-35.969633000000002
30
0
40
1.25
210
0
220
0
230
1
0
CIRCLE
5
202
100
AcDbEntity
8
0
100
AcDbCircle
10
288.41554500000001
20
-18.555421000000003
30
0
40
1.25
210
0
220
0
230
1
0
CIRCLE
5
203
100
AcDbEntity
8
0
100
AcDbCircle
10
303.13518199999999
20
-73.441378999999998
30
0
40
1.25
210
0
220
0
230
1
0
LINE
5
204
100
AcDbEntity
8
0
100
AcDbLine
10
36.228400000000001
20
-90.437018000000009
30
0
11
34.856724999999997
21
-95.57224699999999
31
0
0
LINE
5
205
100
AcDbEntity
8
0
100
AcDbLine
10
37.670315000000002
20
-100.505966
30
0
11
72.73042199999999
21
-109.495144
31
0
0
LINE
5
206
100
AcDbEntity
8
0
100
AcDbLine
10
72.73042199999999
20
-109.495144
30
0
11
90.120218000000008
21
-117.64577299999999
31
0
0
LINE
5
207
100
AcDbEntity
8
0
100
AcDbLine
10
90.120218000000008
20
-117.64577299999999
30
0
11
105.47313100000002
21
-128.677852
31
0
0
LINE
5
208
100
AcDbEntity
8
0
100
AcDbLine
10
105.47313100000002
20
-128.677852
30
0
11
117.90985300000001
21
-140.98461499999999
31
0
0
LINE
5
209
100
AcDbEntity
8
0
100
AcDbLine
10
120.84239600000001
20
-142.43745200000001
30
0
11
205.36975600000002
21
-142.43745000000001
31
0
0
LINE
5
210
100
AcDbEntity
8
0
100
AcDbLine
10
208.30229599999998
20
-140.98461600000002
30
0
11
220.73901300000003
21
-128.67784800000004
31
0
0
LINE
5
211
100
AcDbEntity
8
0
100
AcDbLine
10
220.73901300000003
20
-128.67784800000004
30
0
11
236.091928
21
-117.645771
31
0
0
LINE
5
212
100
AcDbEntity
8
0
100
AcDbLine
10
236.091928
20
-117.645771
30
0
11
253.48172400000004
21
-109.49514000000001
31
0
0
LINE
5
213
100
AcDbEntity
8
0
100
AcDbLine
10
253.48172400000004
20
-109.49514000000001
30
0
11
288.850076
21
-100.42337700000002
31
0
0
LINE
5
214
100
AcDbEntity
8
0
100
AcDbLine
10
291.50016299999999
20
-95.440765000000013
30
0
11
290.155281
21
-90.439464000000015
31
0
0
LINE
5
215
100
AcDbEntity
8
0
100
AcDbLine
10
290.155281
20
-90.439464000000015
30
0
11
323.24722900000006
21
-81.645184
31
0
0
LINE
5
216
100
AcDbEntity
8
0
100
AcDbLine
10
326.11316600000004
20
-76.741668000000004
30
0
11
307.28249700000003
21
-6.5159549999999999
31
0
0
LINE
5
217
100
AcDbEntity
8
0
100
AcDbLine
10
269.53222099999999
20
-12.658236
30
0
11
302.37900299999995
21
-3.6500140000000005
31
0
0
LINE
5
218
100
AcDbEntity
8
0
100
AcDbLine
10
269.53222099999999
20
-12.658236
30
0
11
266.814617
21
-2.5160169999999997
31
0
0
LINE
5
219
100
AcDbEntity
8
0
100
AcDbLine
10
262.54163399999999
20
-0.92350200000000005
30
0
11
248.15654800000002
21
-4.9132910000000001
31
0
0
LINE
5
220
100
AcDbEntity
8
0
100
AcDbLine
10
243.25304500000001
20
-2.0473699999999999
30
0
11
227.61656700000003
21
-6.2003770000000005
31
0
0
LINE
5
221
100
AcDbEntity
8
0
100
AcDbLine
10
224.75064000000003
20
-11.103876
30
0
11
210.26815099999999
21
-15.048987
31
0
0
LINE
5
222
100
AcDbEntity
8
0
100
AcDbLine
10
207.40221599999998
20
-19.952505000000002
30
0
11
192.94766100000004
21
-23.766805999999999
31
0
0
LINE
5
223
100
AcDbEntity
8
0
100
AcDbLine
10
133.51752400000004
20
-23.788952000000002
30
0
11
119.26076500000001
21
-19.835076999999998
31
0
0
LINE
5
224
100
AcDbEntity
8
0
100
AcDbLine
10
116.447175
20
-14.901347000000001
30
0
11
101.937377
21
-10.925333000000002
31
0
0
LINE
5
225
100
AcDbEntity
8
0
100
AcDbLine
10
99.149772000000013
20
-5.8594360000000005
30
0
11
82.895333999999991
21
-1.5134829999999999
31
0
0
LINE
5
226
100
AcDbEntity
8
0
100
AcDbLine
10
78.322160999999994
20
-4.2089660000000002
30
0
11
62.928797000000003
21
-0.10786500000000002
31
0
0
LINE
5
227
100
AcDbEntity
8
0
100
AcDbLine
10
58.908177000000002
20
-1.9926869999999999
30
0
11
56.19059
21
-12.134909
31
0
0
LINE
5
228
100
AcDbEntity
8
0
100
AcDbLine
10
56.19059
20
-12.134909
30
0
11
24.032743
21
-3.540842
31
0
0
LINE
5
229
100
AcDbEntity
8
0
100
AcDbLine
10
19.099026000000002
20
-6.354445000000001
30
0
11
0.20456100000000088
21
-76.602990000000005
31
0
0
LINE
5
230
100
AcDbEntity
8
0
100
AcDbLine
10
3.0181499999999999
20
-81.536723999999992
30
0
11
36.228400000000001
21
-90.437018000000009
31
0
0
SPLINE
5
231
100
AcDbEntity
8
0
100
AcDbSpline
70
0
71
3
72
11
73
7
74
0
42
0.000000001
43
0.0000000001
44
0.0000000001
40
0.12335298049406132
40
0.12335298049406132
40
0.12335298049406132
40
0.12335298049406132
40
0.88449960801198502
40
0.88449960801198502
40
0.88449960801198502
40
1
40
1
40
1
40
1
10
120.3926974687466
20
-19.111255056894656
30
0
10
120.53017845372747
20
-17.090119796690388
30
0
10
119.42014422966781
20
-15.160191446359864
30
0
10
117.59008790181363
20
-14.267753484248065
30
0
10
117.31238553069943
20
-14.132330254712082
30
0
10
117.01843726825265
20
-14.020910990958876
30
0
10
116.71113345715725
20
-13.936812934921168
30
0
0
LINE
5
232
100
AcDbEntity
8
0
100
AcDbLine
10
116.71113345715725
20
-13.936812934921168
30
0
11
103.09325370012645
21
-10.205204720885014
31
0
0
SPLINE
5
233
100
AcDbEntity
8
0
100
AcDbSpline
70
0
71
3
72
8
73
4
74
0
42
0.000000001
43
0.0000000001
44
0.0000000001
40
0.25581687030325195
40
0.25581687030325195
40
0.25581687030325195
40
0.25581687030325195
40
1
40
1
40
1
40
1
10
103.09325370012645
20
-10.205204720885028
30
0
10
103.18458597800506
20
-9.2128039016840564
30
0
10
102.97931770269801
20
-8.2069133490985209
30
0
10
102.4915417420673
20
-7.3204799603082353
30
0
0
SPLINE
5
234
100
AcDbEntity
8
0
100
AcDbSpline
70
0
71
3
72
11
73
7
74
0
42
0.000000001
43
0.0000000001
44
0.0000000001
40
0
40
0
40
0
40
0
40
1
40
1
40
1
40
1.0008964691032192
40
1.0008964691032192
40
1.0008964691032192
40
1.0008964691032192
10
102.49154135439086
20
-7.3204792557860143
30
0
10
101.83608829985154
20
-6.1293291929424534
30
0
10
100.72508808207103
20
-5.2537671691841599
30
0
10
99.413726064154645
20
-4.8949007327243201
30
0
10
99.412783996150495
20
-4.8946429270360836
30
0
10
99.41184192814633
20
-4.894385121347848
30
0
10
99.410899860142734
20
-4.8941273156597678
30
0
0
LINE
5
235
100
AcDbEntity
8
0
100
AcDbLine
10
99.410899860142706
20
-4.8941273156597678
30
0
11
83.142627840756347
21
-0.54447551056669763
31
0
0
SPLINE
5
236
100
AcDbEntity
8
0
100
AcDbSpline
70
0
71
3
72
11
73
7
74
0
42
0.000000001
43
0.0000000001
44
0.0000000001
40
-0.0018421768292929599
40
-0.0018421768292929599
40
-0.0018421768292929599
40
-0.0018421768292929599
40
0
40
0
40
0
40
0.86898144734841731
40
0.86898144734841731
40
0.86898144734841731
40
0.86898144734841731
10
83.142627840756717
20
-0.54447551056679266
30
0
10
83.138938679016576
20
-0.5435786504617981
30
0
10
83.135249517276449
20
-0.54268179035680708
30
0
10
83.131560355536337
20
-0.5417849302518184
30
0
10
80.943541674777975
20
-0.0098628292487053411
30
0
10
78.714554451636019
20
-1.0765944204734286
30
0
10
77.719460764949517
20
-3.0135130837316293
30
0
0
LINE
5
237
100
AcDbEntity
8
0
100
AcDbLine
10
77.719460764949503
20
-3.0135130837316293
30
0
11
63.134087743360269
21
0.87232290924640965
31
0
0
SPLINE
5
238
100
AcDbEntity
8
0
100
AcDbSpline
70
0
71
3
72
14
73
10
74
0
42
0.000000001
43
0.0000000001
44
0.0000000001
40
-0.011123299832627241
40
-0.011123299832627241
40
-0.011123299832627241
40
-0.011123299832627241
40
0
40
0
40
0
40
1
40
1
40
1
40
1.0290157703113116
40
1.0290157703113116
40
1.0290157703113116
40
1.0290157703113116
10
63.134087743360269
20
0.87232290924641176
30
0
10
63.116307137454477
20
0.87505639344048436
30
0
10
63.098526531548728
20
0.87778987763455329
30
0
10
63.080745925642972
20
0.88052336182862245
30
0
10
61.084024021737577
20
1.1874874660445915
30
0
10
59.092529487613731
20
0.25389675201530737
30
0
10
58.051250617950942
20
-1.4772481524626531
30
0
10
58.027062810677499
20
-1.5174608183793925
30
0
10
58.002875003404064
20
-1.5576734842961333
30
0
10
57.978687196130622
20
-1.5978861502128705
30
0
0
LINE
5
239
100
AcDbEntity
8
0
100
AcDbLine
10
57.978687196130608
20
-1.5978861502128707
30
0
11
55.483312337073073
21
-10.910797123727441
31
0
0
LINE
5
240
100
AcDbEntity
8
0
100
AcDbLine
10
55.483312337073073
20
-10.910797123727441
30
0
11
24.293656959325077
21
-2.5754757938114015
31
0
0
SPLINE
5
241
100
AcDbEntity
8
0
100
AcDbSpline
70
0
71
3
72
14
73
10
74
0
42
0.000000001
43
0.0000000001
44
0.0000000001
40
0.00038062158003426366
40
0.00038062158003426366
40
0.00038062158003426366
40
0.00038062158003426366
40
0.88449648652519874
40
0.88449648652519874
40
0.88449648652519874
40
1
40
1
40
1
40
1.0003284138771675
40
1.0003284138771675
40
1.0003284138771675
40
1.0003284138771675
10
24.293656959325332
20
-2.5754757938104667
30
0
10
21.941272281896943
20
-1.9332890130363001
30
0
10
19.502055765611921
20
-3.0857971205793486
30
0
10
18.465437534202881
20
-5.2115127918809936
30
0
10
18.330010660184275
20
-5.4892225790467446
30
0
10
18.218589127267347
20
-5.7831791580669059
30
0
10
18.134490463271895
20
-6.0904919204746033
30
0
10
18.134298192053862
20
-6.0911945166436343
30
0
10
18.134105920835829
20
-6.0918971128126813
30
0
10
18.1339136496176
20
-6.0925997089824557
30
0
0
LINE
5
242
100
AcDbEntity
8
0
100
AcDbLine
10
18.133913649617597
20
-6.0925997089824548
30
0
11
-0.75997339819108944
21
-76.339032760075668
31
0
0
SPLINE
5
243
100
AcDbEntity
8
0
100
AcDbSpline
70
0
71
3
72
8
73
4
74
0
42
0.000000001
43
0.0000000001
44
0.0000000001
40
0
40
0
40
0
40
0
40
1
40
1
40
1
40
1
10
-0.75997339819109
20
-76.339032760075668
30
0
10
-1.1110279499740396
20
-77.621832167029879
30
0
10
-0.93797384468720879
20
-78.992647082285771
30
0
10
-0.27912900405672619
20
-80.147955198858199
30
0
0
SPLINE
5
244
100
AcDbEntity
8
0
100
AcDbSpline
70
0
71
3
72
11
73
7
74
0
42
0.000000001
43
0.0000000001
44
0.0000000001
40
2.0440433882234026e-07
40
2.0440433882234026e-07
40
2.0440433882234026e-07
40
2.0440433882234026e-07
40
1
40
1
40
1
40
1.0008254915057617
40
1.0008254915057617
40
1.0008254915057617
40
1.0008254915057617
10
-0.27912900405695951
20
-80.147955198858341
30
0
10
0.37971499756683558
20
-81.303263597387954
30
0
10
1.471395682033384
20
-82.150206981017831
30
0
10
2.7541945069482896
20
-82.501258876243526
30
0
10
2.7550425830763525
20
-82.501490961529456
30
0
10
2.7558906592043542
20
-82.501723046815357
30
0
10
2.7567387353279167
20
-82.501955132100036
30
0
0
LINE
5
245
100
AcDbEntity
8
0
100
AcDbLine
10
2.7567387353279171
20
-82.501955132100051
30
0
11
35.004422411540624
21
-91.14428289347731
31
0
0
LINE
5
246
100
AcDbEntity
8
0
100
AcDbLine
10
35.004422411540624
20
-91.14428289347731
30
0
11
33.891341148747017
21
-95.311397683828019
31
0
0
SPLINE
5
247
100
AcDbEntity
8
0
100
AcDbSpline
70
0
71
3
72
8
73
4
74
0
42
0.000000001
43
0.0000000001
44
0.0000000001
40
0.00080766821010629574
40
0.00080766821010629574
40
0.00080766821010629574
40
0.00080766821010629574
40
1
40
1
40
1
40
1
10
33.891341148746044
20
-95.311397683827749
30
0
10
33.541415084156107
20
-96.593301273127793
30
0
10
33.714722044993501
20
-97.962834512855252
30
0
10
34.373035687141346
20
-99.117207410896896
30
0
0
SPLINE
5
248
100
AcDbEntity
8
0
100
AcDbSpline
70
0
71
3
72
11
73
7
74
0
42
0.000000001
43
0.0000000001
44
0.0000000001
40
1.1656747066904324e-07
40
1.1656747066904324e-07
40
1.1656747066904324e-07
40
1.1656747066904324e-07
40
1
40
1
40
1
40
1.0025240597653005
40
1.0025240597653005
40
1.0025240597653005
40
1.0025240597653005
10
34.373035687141268
20
-99.117207410896924
30
0
10
35.031881133056586
20
-100.27251384274221
30
0
10
36.123563069802486
20
-101.11945462900385
30
0
10
37.406363000701319
20
-101.47050183234037
30
0
10
37.408956116217894
20
-101.47121145659908
30
0
10
37.411549231734433
20
-101.47192108085775
30
0
10
37.414142347247783
20
-101.47263070511556
30
0
0
LINE
5
249
100
AcDbEntity
8
0
100
AcDbLine
10
37.414142347247775
20
-101.47263070511556
30
0
11
72.391075138533111
21
-110.44048339178602
31
0
0
LINE
5
250
100
AcDbEntity
8
0
100
AcDbLine
10
72.391075138533111
20
-110.44048339178602
30
0
11
89.611923756134246
21
-118.51192644650786
31
0
0
LINE
5
251
100
AcDbEntity
8
0
100
AcDbLine
10
89.611923756134246
20
-118.51192644650786
30
0
11
104.82568570544964
21
-129.44401625331139
31
0
0
LINE
5
252
100
AcDbEntity
8
0
100
AcDbLine
10
104.82568570544964
20
-129.44401625331139
30
0
11
117.1887291456616
21
-141.677870606363
31
0
0
SPLINE
5
253
100
AcDbEntity
8
0
100
AcDbSpline
70
0
71
3
72
11
73
7
74
0
42
0.000000001
43
0.0000000001
44
0.0000000001
40
0.0066628240591330963
40
0.0066628240591330963
40
0.0066628240591330963
40
0.0066628240591330963
40
1
40
1
40
1
40
1.0128827425025568
40
1.0128827425025568
40
1.0128827425025568
40
1.0128827425025568
10
117.18872914566175
20
-141.67787060636283
30
0
10
118.11628499144982
20
-142.68735556453851
30
0
10
119.38888736065269
20
-143.31410874295449
30
0
10
120.75524200603219
20
-143.4336468660467
30
0
10
120.76973998678973
20
-143.43491524934251
30
0
10
120.78423796754726
20
-143.43618363263835
30
0
10
120.79873594830494
20
-143.43745201593418
30
0
0
LINE
5
254
100
AcDbEntity
8
0
100
AcDbLine
10
120.79873594830491
20
-143.43745201593416
30
0
11
205.41341567220204
21
-143.43745001386782
31
0
0
SPLINE
5
255
100
AcDbEntity
8
0
100
AcDbSpline
70
0
71
3
72
11
73
7
74
0
42
0.000000001
43
0.0000000001
44
0.0000000001
40
-0.012882628915019276
40
-0.012882628915019276
40
-0.012882628915019276
40
-0.012882628915019276
40
0
40
0
40
0
40
0.99333721368342809
40
0.99333721368342809
40
0.99333721368342809
40
0.99333721368342809
10
205.41341567220204
20
-143.43745001386787
30
0
10
205.42791351224764
20
-143.43618165463806
30
0
10
205.44241135229342
20
-143.43491329540822
30
0
10
205.45690919233917
20
-143.43364493617838
30
0
10
206.82326313259776
20
-143.31410798268254
30
0
10
208.09586495409005
20
-142.68735570207559
30
0
10
209.02342001586842
20
-141.67787143233056
30
0
0
LINE
5
256
100
AcDbEntity
8
0
100
AcDbLine
10
209.02342001586842
20
-141.67787143233056
30
0
11
221.38645840686542
21
-129.44401218691306
31
0
0
LINE
5
257
100
AcDbEntity
8
0
100
AcDbLine
10
221.38645840686542
20
-129.44401218691306
30
0
11
236.60022221506537
21
-118.51192445035778
31
0
0
LINE
5
258
100
AcDbEntity
8
0
100
AcDbLine
10
236.60022221506537
20
-118.51192445035778
30
0
11
253.8211139585747
21
-110.44045920187006
31
0
0
LINE
5
259
100
AcDbEntity
8
0
100
AcDbLine
10
253.8211139585747
20
-110.44045920187006
30
0
11
289.10129558269995
21
-101.3913113566155
31
0
0
SPLINE
5
260
100
AcDbEntity
8
0
100
AcDbSpline
70
0
71
3
72
11
73
7
74
0
42
0.000000001
43
0.0000000001
44
0.0000000001
40
-0.00088889046707182223
40
-0.00088889046707182223
40
-0.00088889046707182223
40
-0.00088889046707182223
40
0
40
0
40
0
40
1
40
1
40
1
40
1
10
289.10129558270245
20
-101.39131135661488
30
0
10
289.10221698078033
20
-101.39106940240819
30
0
10
289.10313837886065
20
-101.39082744820084
30
0
10
289.10405977694103
20
-101.39058549399348
30
0
10
290.41003658437603
20
-101.04764297000796
30
0
10
291.51444317166016
20
-100.17377143967474
30
0
10
292.14849522218617
20
-98.981644477160643
30
0
0
SPLINE
5
261
100
AcDbEntity
8
0
100
AcDbSpline
70
0
71
3
72
8
73
4
74
0
42
0.000000001
43
0.0000000001
44
0.0000000001
40
2.0337180681487906e-07
40
2.0337180681487906e-07
40
2.0337180681487906e-07
40
2.0337180681487906e-07
40
0.99037343323587257
40
0.99037343323587257
40
0.99037343323587257
40
0.99037343323587257
10
292.14849522218628
20
-98.981644477160842
30
0
10
292.77644378225591
20
-97.800994988585316
30
0
10
292.88768755126807
20
-96.412301571718785
30
0
10
292.456839565618
20
-95.147548529441309
30
0
0
LINE
5
262
100
AcDbEntity
8
0
100
AcDbLine
10
292.456839565618
20
-95.147548529441337
30
0
11
291.38142220590566
21
-91.148323380657843
31
0
0
LINE
5
263
100
AcDbEntity
8
0
100
AcDbLine
10
291.38142220590566
20
-91.148323380657843
30
0
11
323.50090364656364
21
-82.61247361717426
31
0
0
SPLINE
5
264
100
AcDbEntity
8
0
100
AcDbSpline
70
0
71
3
72
8
73
4
74
0
42
0.000000001
43
0.0000000001
44
0.0000000001
40
0
40
0
40
0
40
0
40
1
40
1
40
1
40
1
10
323.50090364656364
20
-82.61247361717426
30
0
10
324.78736864531606
20
-82.275094255211982
30
0
10
325.88800222181243
20
-81.439815658316775
30
0
10
326.55910496224493
20
-80.291583527531742
30
0
0
SPLINE
5
265
100
AcDbEntity
8
0
100
AcDbSpline
70
0
71
3
72
11
73
7
74
0
42
0.000000001
43
0.0000000001
44
0.0000000001
40
0
40
0
40
0
40
0
40
1
40
1
40
1
40
1.0008607458306897
40
1.0008607458306897
40
1.0008607458306897
40
1.0008607458306897
10
326.55910537125226
20
-80.291582827734587
30
0
10
327.23020682048661
20
-79.143350769769057
30
0
10
327.41783909599684
20
-77.774453756845531
30
0
10
327.08045463526605
20
-76.487989609340488
30
0
10
327.08022206002067
20
-76.487102788074196
30
0
10
327.07998948477552
20
-76.486215966808331
30
0
10
327.07975690952884
20
-76.485329145536937
30
0
0
LINE
5
266
100
AcDbEntity
8
0
100
AcDbLine
10
327.0797569095289
20
-76.485329145536937
30
0
11
308.24904912391946
21
-6.2594715013334312
31
0
0
SPLINE
5
267
100
AcDbEntity
8
0
100
AcDbSpline
70
0
71
3
72
8
73
4
74
0
42
0.000000001
43
0.0000000001
44
0.0000000001
40
0.00072837704399573197
40
0.00072837704399573197
40
0.00072837704399573197
40
0.00072837704399573197
40
1
40
1
40
1
40
1
10
308.24904912391941
20
-6.2594715013334481
30
0
10
307.91119493814091
20
-4.9742169450548896
30
0
10
307.07630105373232
20
-3.8746988070003328
30
0
10
305.92890986336249
20
-3.2040834029732275
30
0
0
SPLINE
5
268
100
AcDbEntity
8
0
100
AcDbSpline
70
0
71
3
72
11
73
7
74
0
42
0.000000001
43
0.0000000001
44
0.0000000001
40
0
40
0
40
0
40
0
40
1
40
1
40
1
40
1.0017510294513126
40
1.0017510294513126
40
1.0017510294513126
40
1.0017510294513126
10
305.92890916356572
20
-3.2040829939635613
30
0
10
304.78068136446632
20
-2.5329798661075604
30
0
10
303.41178846969603
20
-2.3453449914755238
30
0
10
302.12532743194765
20
-2.6827246244894178
30
0
10
302.12352336206311
20
-2.6831977491451315
30
0
10
302.12171929217857
20
-2.6836708738008364
30
0
10
302.11991522229567
20
-2.6841439984561282
30
0
0
LINE
5
269
100
AcDbEntity
8
0
100
AcDbLine
10
270.23780384557085
20
-11.427805313900421
30
0
11
302.11991522229567
21
-2.6841439984561291
31
0
0
LINE
5
270
100
AcDbEntity
8
0
100
AcDbLine
10
270.23780384557085
20
-11.427805313900421
30
0
11
267.73624476017073
21
-2.09187554430595
31
0
0
SPLINE
5
271
100
AcDbEntity
8
0
100
AcDbSpline
70
0
71
3
72
14
73
10
74
0
42
0.000000001
43
0.0000000001
44
0.0000000001
40
-0.03411363361740824
40
-0.03411363361740824
40
-0.03411363361740824
40
-0.03411363361740824
40
0
40
0
40
0
40
1
40
1
40
1
40
1.0014028841126728
40
1.0014028841126728
40
1.0014028841126728
40
1.0014028841126728
10
267.73624476017073
20
-2.0918755443059607
30
0
10
267.70399243463078
20
-2.0448155820489151
30
0
10
267.67174010909082
20
-1.9977556197918989
30
0
10
267.63948778355081
20
-1.9506956575348822
30
0
10
266.45739151622053
20
-0.22587722062012622
30
0
10
264.31057641041951
20
0.57422750065030548
30
0
10
262.28795827801969
20
0.043787335142329298
30
0
10
262.28568885203089
20
0.043192168571914658
30
0
10
262.28341942604209
20
0.042597002001510592
30
0
10
262.28115000005482
20
0.042001835431503542
30
0
0
LINE
5
272
100
AcDbEntity
8
0
100
AcDbLine
10
262.28115000005482
20
0.042001835431503549
30
0
11
248.76779633679098
21
-3.7060070258850111
31
0
0
SPLINE
5
273
100
AcDbEntity
8
0
100
AcDbSpline
70
0
71
3
72
14
73
10
74
0
42
0.000000001
43
0.0000000001
44
0.0000000001
40
0.12536650206718905
40
0.12536650206718905
40
0.12536650206718905
40
0.12536650206718905
40
0.88449756641007937
40
0.88449756641007937
40
0.88449756641007937
40
1
40
1
40
1
40
1.0002349085719073
40
1.0002349085719073
40
1.0002349085719073
40
1.0002349085719073
10
248.76779633679098
20
-3.7060070258850142
30
0
10
247.87319743260201
20
-1.8954299511828743
30
0
10
245.95176346610742
20
-0.78542611372458604
30
0
10
243.92605169802536
20
-0.9272026709761505
30
0
10
243.61783793895893
20
-0.94877409409098667
30
0
10
243.30755673838399
20
-0.99925745774265951
30
0
10
242.99937003773908
20
-1.0800804656183618
30
0
10
242.99886604914968
20
-1.0802126383358981
30
0
10
242.9983620605604
20
-1.0803448110534031
30
0
10
242.99785807197816
20
-1.0804769837690549
30
0
0
LINE
5
274
100
AcDbEntity
8
0
100
AcDbLine
10
242.9978580719781
20
-1.0804769837690551
30
0
11
227.36288992854162
21
-5.2330880187650184
31
0
0
SPLINE
5
275
100
AcDbEntity
8
0
100
AcDbSpline
70
0
71
3
72
8
73
4
74
0
42
0.000000001
43
0.0000000001
44
0.0000000001
40
0
40
0
40
0
40
0
40
0.87733807505349914
40
0.87733807505349914
40
0.87733807505349914
40
0.87733807505349914
10
227.36288992854162
20
-5.2330880187650184
30
0
10
225.02195144205069
20
-5.8470125348482274
30
0
10
223.49008764174391
20
-8.0348121732751778
30
0
10
223.62679287454716
20
-10.373579706303737
30
0
0
LINE
5
276
100
AcDbEntity
8
0
100
AcDbLine
10
223.62679287454716
20
-10.373579706303737
30
0
11
210.00964011658706
21
-14.08296827439508
31
0
0
SPLINE
5
277
100
AcDbEntity
8
0
100
AcDbSpline
70
0
71
3
72
8
73
4
74
0
42
0.000000001
43
0.0000000001
44
0.0000000001
40
0.0012533311856727134
40
0.0012533311856727134
40
0.0012533311856727134
40
0.0012533311856727134
40
1
40
1
40
1
40
1
10
210.00964011658712
20
-14.082968274395327
30
0
10
208.72525239732173
20
-14.421170091539707
30
0
10
207.62653520614236
20
-15.255795570725548
30
0
10
206.95627438969768
20
-16.402590581272356
30
0
0
SPLINE
5
278
100
AcDbEntity
8
0
100
AcDbSpline
70
0
71
3
72
8
73
4
74
0
42
0.000000001
43
0.0000000001
44
0.0000000001
40
3.2188681147651925e-07
40
3.2188681147651925e-07
40
3.2188681147651925e-07
40
3.2188681147651925e-07
40
0.74599021821777778
40
0.74599021821777778
40
0.74599021821777778
40
0.74599021821777778
10
206.9562743896972
20
-16.402590581271991
30
0
10
206.45563816343216
20
-17.259161272656659
30
0
10
206.22392975683016
20
-18.238410812321789
30
0
10
206.27870636072788
20
-19.214748227445714
30
0
0
LINE
5
279
100
AcDbEntity
8
0
100
AcDbLine
10
206.27870636072785
20
-19.214748227445714
30
0
11
192.68260630541249
21
-22.802514911961474
31
0
0
SPLINE
5
280
100
AcDbEntity
8
0
100
AcDbSpline
70
0
71
3
72
8
73
4
74
0
42
0.000000001
43
0.0000000001
44
0.0000000001
40
0.0014218086192522325
40
0.0014218086192522325
40
0.0014218086192522325
40
0.0014218086192522325
40
0.87591545736249454
40
0.87591545736249454
40
0.87591545736249454
40
0.87591545736249454
10
192.68260630541249
20
-22.802514911961474
30
0
10
190.35187471135143
20
-23.419535910533508
30
0
10
188.82633641434634
20
-25.597945943662946
30
0
10
188.95723177282213
20
-27.928639514301707
30
0
0
LINE
5
281
100
AcDbEntity
8
0
100
AcDbLine
10
188.95723177282213
20
-27.928639514301707
30
0
11
173.97863220160687
21
-31.80937597351349
31
0
0
LINE
5
282
100
AcDbEntity
8
0
100
AcDbLine
10
173.97863220160687
20
-31.80937597351349
30
0
11
152.23349894629467
21
-31.809373996683195
31
0
0
LINE
5
283
100
AcDbEntity
8
0
100
AcDbLine
10
152.23349894629467
20
-31.809373996683195
30
0
11
137.46409490526037
21
-27.983176426479467
31
0
0
SPLINE
5
284
100
AcDbEntity
8
0
100
AcDbSpline
70
0
71
3
72
11
73
7
74
0
42
0.000000001
43
0.0000000001
44
0.0000000001
40
0.12531486982617965
40
0.12531486982617965
40
0.12531486982617965
40
0.12531486982617965
40
0.88449410190577715
40
0.88449410190577715
40
0.88449410190577715
40
1
40
1
40
1
40
1
10
137.46409490526037
20
-27.983176426479464
30
0
10
137.59482153192408
20
-25.967725552672487
30
0
10
136.48579578272484
20
-24.045514947349304
30
0
10
134.66047499696705
20
-23.155373948841994
30
0
10
134.38276018633997
20
-23.019942773806513
30
0
10
134.08879780931977
20
-22.908517842897986
30
0
10
133.78147864250249
20
-22.824416890994776
30
0
0
LINE
5
285
100
AcDbEntity
8
0
100
AcDbLine
10
133.78147864250249
20
-22.824416890994776
30
0
11
120.3926974687466
21
-19.111255056894656
31
0
0
SPLINE
5
286
100
AcDbEntity
8
0
100
AcDbSpline
70
0
71
3
72
11
73
7
74
0
42
0.000000001
43
0.0000000001
44
0.0000000001
40
0.27604165143012133
40
0.27604165143012133
40
0.27604165143012133
40
0.27604165143012133
40
0.57206785233278779
40
0.57206785233278779
40
0.57206785233278779
40
1
40
1
40
1
40
1
10
122.29892584563692
20
-17.564426664957832
30
0
10
122.11253943582768
20
-16.502671073359629
30
0
10
121.68606921584896
20
-15.508009021129796
30
0
10
121.06174627957142
20
-14.648752144135496
30
0
10
120.1592320624363
20
-13.406620063769772
30
0
10
118.82375673196826
20
-12.441422272270286
30
0
10
117.23905035967185
20
-12.007744847881536
30
0
0
LINE
5
287
100
AcDbEntity
8
0
100
AcDbLine
10
117.23905035967184
20
-12.007744847881535
30
0
11
105.03060780901031
21
-8.6623543049374359
31
0
0
SPLINE
5
288
100
AcDbEntity
8
0
100
AcDbSpline
70
0
71
3
72
8
73
4
74
0
42
0.000000001
43
0.0000000001
44
0.0000000001
40
0.56517574929806658
40
0.56517574929806658
40
0.56517574929806658
40
0.56517574929806658
40
1
40
1
40
1
40
1
10
105.03060780901032
20
-8.6623543049373861
30
0
10
104.90579076948406
20
-7.8612632646590423
30
0
10
104.64201182189669
20
-7.0799958167970081
30
0
10
104.24377518703642
20
-6.3562819024762085
30
0
0
SPLINE
5
289
100
AcDbEntity
8
0
100
AcDbSpline
70
0
71
3
72
11
73
7
74
0
42
0.000000001
43
0.0000000001
44
0.0000000001
40
0
40
0
40
0
40
0
40
1
40
1
40
1
40
1.0026894073094241
40
1.0026894073094241
40
1.0026894073094241
40
1.0026894073094241
10
104.24377402400714
20
-6.3562797889095801
30
0
10
103.32791486620968
20
-4.6918956109565011
30
0
10
101.77399022276825
20
-3.4672715474837683
30
0
10
99.941634180664281
20
-2.9658302412910453
30
0
10
99.938807976651773
20
-2.9650568242263304
30
0
10
99.935981772639394
20
-2.9642834071616493
30
0
10
99.933155568630212
20
-2.9635099900978434
30
0
0
LINE
5
290
100
AcDbEntity
8
0
100
AcDbLine
10
99.933155568630184
20
-2.9635099900978439
30
0
11
83.637215511222465
21
1.3935394249798549
31
0
0
SPLINE
5
291
100
AcDbEntity
8
0
100
AcDbSpline
70
0
71
3
72
14
73
10
74
0
42
0.000000001
43
0.0000000001
44
0.0000000001
40
-0.0055265304067121023
40
-0.0055265304067121023
40
-0.0055265304067121023
40
-0.0055265304067121023
40
0
40
0
40
0
40
0.59505497316216305
40
0.59505497316216305
40
0.59505497316216305
40
0.70991704830621039
40
0.70991704830621039
40
0.70991704830621039
40
0.70991704830621039
10
83.637215511222266
20
1.3935394249799038
30
0
10
83.626148026164628
20
1.3962300052553194
30
0
10
83.615080541106849
20
1.3989205855307678
30
0
10
83.604013056049041
20
1.4016111658062169
30
0
10
81.492451250446734
20
1.914946084703989
30
0
10
79.32755113776048
20
1.3724002760659915
30
0
10
77.73675311395229
20
0.098103739853221683
30
0
10
77.429685077567925
20
-0.14787075174788028
30
0
10
77.14317707865861
20
-0.42083487203251024
30
0
10
76.88004695707167
20
-0.720113486905955
30
0
0
LINE
5
292
100
AcDbEntity
8
0
100
AcDbLine
10
76.88004695707167
20
-0.720113486905955
30
0
11
63.544669220904083
21
2.8326986839213433
31
0
0
SPLINE
5
293
100
AcDbEntity
8
0
100
AcDbSpline
70
0
71
3
72
14
73
10
74
0
42
0.000000001
43
0.0000000001
44
0.0000000001
40
-0.033369899000749166
40
-0.033369899000749166
40
-0.033369899000749166
40
-0.033369899000749166
40
0
40
0
40
0
40
1
40
1
40
1
40
1.0870473096368094
40
1.0870473096368094
40
1.0870473096368094
40
1.0870473096368094
10
63.544669220904019
20
2.8326986839213535
30
0
10
63.491327403981458
20
2.8408991363813878
30
0
10
63.437985587058861
20
2.8490995888414283
30
0
10
63.384643770136265
20
2.8573000413014684
30
0
10
60.59148007622192
20
3.2867043512126215
30
0
10
57.794016491865221
20
1.9752842175699143
30
0
10
56.337397892160411
20
-0.44637048042987043
30
0
10
56.264834471421388
20
-0.56700847638242136
30
0
10
56.192271050682351
20
-0.68764647233497533
30
0
10
56.119707629943335
20
-0.80828446828751366
30
0
0
LINE
5
294
100
AcDbEntity
8
0
100
AcDbLine
10
56.119707629943328
20
-0.80828446828751366
30
0
11
54.068757042836964
21
-8.4625734259043774
31
0
0
LINE
5
295
100
AcDbEntity
8
0
100
AcDbLine
10
54.068757042836964
20
-8.4625734259043774
30
0
11
24.814776150389246
21
-0.64455402285119923
31
0
0
SPLINE
5
296
100
AcDbEntity
8
0
100
AcDbSpline
70
0
71
3
72
14
73
10
74
0
42
0.000000001
43
0.0000000001
44
0.0000000001
40
0.00088412733825018954
40
0.00088412733825018954
40
0.00088412733825018954
40
0.00088412733825018954
40
0.572065013746897
40
0.572065013746897
40
0.572065013746897
40
1
40
1
40
1
40
1.000985241627717
40
1.000985241627717
40
1.000985241627717
40
1.000985241627717
10
24.814776150389449
20
-0.64455402285044872
30
0
10
22.699349560075035
20
-0.068910556769654213
30
0
10
20.504370894941797
20
-0.5352289989433533
30
0
10
18.84643710454197
20
-1.7398560530828346
30
0
10
17.60429492036582
20
-2.6423758574386182
30
0
10
16.639091499813873
20
-3.9778642744468264
30
0
10
16.205419432933773
20
-5.5625857732234323
30
0
10
16.204842619281841
20
-5.5646935617226534
30
0
10
16.20426580562992
20
-5.566801350221847
30
0
10
16.203688991978616
20
-5.5689091387187784
30
0
0
LINE
5
297
100
AcDbEntity
8
0
100
AcDbLine
10
16.203688991978616
20
-5.5689091387187775
30
0
11
-2.6910102717954087
21
-75.818325118091082
31
0
0
SPLINE
5
298
100
AcDbEntity
8
0
100
AcDbSpline
70
0
71
3
72
8
73
4
74
0
42
0.000000001
43
0.0000000001
44
0.0000000001
40
0.0013391685400715185
40
0.0013391685400715185
40
0.0013391685400715185
40
0.0013391685400715185
40
1
40
1
40
1
40
1
10
-2.6910102717983468
20
-75.818325118090272
30
0
10
-3.1792591927458256
20
-77.60993551941273
30
0
10
-2.9364758037604979
20
-79.525472547058641
30
0
10
-2.0164769733374253
20
-81.138723574429179
30
0
0
SPLINE
5
299
100
AcDbEntity
8
0
100
AcDbSpline
70
0
71
3
72
11
73
7
74
0
42
0.000000001
43
0.0000000001
44
0.0000000001
40
4.3855591337437022e-07
40
4.3855591337437022e-07
40
4.3855591337437022e-07
40
4.3855591337437022e-07
40
1
40
1
40
1
40
1.0024764743919437
40
1.0024764743919437
40
1.0024764743919437
40
1.0024764743919437
10
-2.0164769733379444
20
-81.138723574429434
30
0
10
-1.0952449731015323
20
-82.754138760688221
30
0
10
0.43260506931848719
20
-83.939468903060316
30
0
10
2.2262835326446
20
-84.430328585612557
30
0
10
2.2288277608994225
20
-84.431024841434919
30
0
10
2.2313719891542494
20
-84.431721097257252
30
0
10
2.2339162174103824
20
-84.432417353079956
30
0
0
LINE
5
300
100
AcDbEntity
8
0
100
AcDbLine
10
2.2339162174103819
20
-84.432417353079984
30
0
11
32.556467289337924
21
-92.558812648814737
31
0
0
LINE
5
301
100
AcDbEntity
8
0
100
AcDbLine
10
32.556467289337924
20
-92.558812648814737
30
0
11
31.960377373413976
21
-94.790433275318961
31
0
0
SPLINE
5
302
100
AcDbEntity
8
0
100
AcDbSpline
70
0
71
3
72
8
73
4
74
0
42
0.000000001
43
0.0000000001
44
0.0000000001
40
0.0018691635578307591
40
0.0018691635578307591
40
0.0018691635578307591
40
0.0018691635578307591
40
1
40
1
40
1
40
1
10
31.96037737341582
20
-94.790433275319458
30
0
10
31.473160901337494
20
-96.581223579602806
30
0
10
31.716175732788344
20
-98.495583687883723
30
0
10
32.635689100256762
20
-100.10797821054526
30
0
0
SPLINE
5
303
100
AcDbEntity
8
0
100
AcDbSpline
70
0
71
3
72
11
73
7
74
0
42
0.000000001
43
0.0000000001
44
0.0000000001
40
2.5009907013673252e-07
40
2.5009907013673252e-07
40
2.5009907013673252e-07
40
2.5009907013673252e-07
40
1
40
1
40
1
40
1.0075721791844852
40
1.0075721791844852
40
1.0075721791844852
40
1.0075721791844852
10
32.635689100256606
20
-100.10797821054535
30
0
10
33.55692343283976
20
-101.72339149634162
30
0
10
35.084777232626124
20
-102.90871984701835
30
0
10
36.878459013903516
20
-103.39957345390303
30
0
10
36.886238360338254
20
-103.40170232664767
30
0
10
36.894017706773013
20
-103.4038311993923
30
0
10
36.901797053209215
20
-103.40596007213732
30
0
0
LINE
5
304
100
AcDbEntity
8
0
100
AcDbLine
10
36.901797053209215
20
-103.40596007213732
30
0
11
71.712381430769327
21
-112.3311621330981
31
0
0
LINE
5
305
100
AcDbEntity
8
0
100
AcDbLine
10
71.712381430769327
20
-112.3311621330981
30
0
11
88.595335291125323
21
-120.24423330080354
31
0
0
LINE
5
306
100
AcDbEntity
8
0
100
AcDbLine
10
88.595335291125323
20
-120.24423330080354
30
0
11
103.53079514529212
21
-130.97634472568407
31
0
0
LINE
5
307
100
AcDbEntity
8
0
100
AcDbLine
10
103.53079514529212
20
-130.97634472568407
30
0
11
115.75079308770859
21
-143.06864835181699
31
0
0
SPLINE
5
308
100
AcDbEntity
8
0
100
AcDbSpline
70
0
71
3
72
11
73
7
74
0
42
0.000000001
43
0.0000000001
44
0.0000000001
40
0.015734725908318377
40
0.015734725908318377
40
0.015734725908318377
40
0.015734725908318377
40
1
40
1
40
1
40
1.0386482269318307
40
1.0386482269318307
40
1.0386482269318307
40
1.0386482269318307
10
115.75079308770883
20
-143.06864835181676
30
0
10
117.01266022302926
20
-144.42328616589262
30
0
10
118.73465073858233
20
-145.26451096495981
30
0
10
120.58093402199265
20
-145.42603655360671
30
0
10
120.62442796361725
20
-145.42984170343749
30
0
10
120.66792190524183
20
-145.4336468532683
30
0
10
120.71141584686514
20
-145.43745200309897
30
0
0
LINE
5
309
100
AcDbEntity
8
0
100
AcDbLine
10
120.71141584686512
20
-145.43745200309894
30
0
11
205.50073501464726
21
-145.43744999690065
31
0
0
SPLINE
5
310
100
AcDbEntity
8
0
100
AcDbSpline
70
0
71
3
72
11
73
7
74
0
42
0.000000001
43
0.0000000001
44
0.0000000001
40
-0.038647886171397944
40
-0.038647886171397944
40
-0.038647886171397944
40
-0.038647886171397944
40
0
40
0
40
0
40
0.98426537008240833
40
0.98426537008240833
40
0.98426537008240833
40
0.98426537008240833
10
205.50073501464567
20
-145.4374499969008
30
0
10
205.5442285341382
20
-145.43364491926775
30
0
10
205.58772205362976
20
-145.42983984163473
30
0
10
205.63121557312132
20
-145.42603476400174
30
0
10
207.47749875475338
20
-145.26451068131703
30
0
10
209.19948963040321
20
-144.42328657004066
30
0
10
210.461356419526
20
-143.06864881076112
30
0
0
LINE
5
311
100
AcDbEntity
8
0
100
AcDbLine
10
210.46135641952603
20
-143.06864881076112
30
0
11
222.68134919165311
21
-130.97634052648897
31
0
0
LINE
5
312
100
AcDbEntity
8
0
100
AcDbLine
10
222.68134919165311
20
-130.97634052648897
30
0
11
237.61681062247359
21
-120.24423131235325
31
0
0
LINE
5
313
100
AcDbEntity
8
0
100
AcDbLine
10
237.61681062247359
20
-120.24423131235325
30
0
11
254.49989386055208
21
-112.33109756335111
31
0
0
LINE
5
314
100
AcDbEntity
8
0
100
AcDbLine
10
254.49989386055208
20
-112.33109756335111
30
0
11
289.60373473741237
21
-103.32718002643405
31
0
0
SPLINE
5
315
100
AcDbEntity
8
0
100
AcDbSpline
70
0
71
3
72
11
73
7
74
0
42
0.000000001
43
0.0000000001
44
0.0000000001
40
-0.0026666711872554262
40
-0.0026666711872554262
40
-0.0026666711872554262
40
-0.0026666711872554262
40
0
40
0
40
0
40
1
40
1
40
1
40
1
10
289.60373473739804
20
-103.3271800264378
30
0
10
289.60649893143159
20
-103.32645416387021
30
0
10
289.60926312545013
20
-103.32572830130657
30
0
10
289.61202731946815
20
-103.32500243874306
30
0
10
291.45681572973058
20
-102.84057086994881
30
0
10
293.01862948135914
20
-101.60477228703886
30
0
10
293.91427562709009
20
-99.920803410490066
30
0
0
SPLINE
5
316
100
AcDbEntity
8
0
100
AcDbSpline
70
0
71
3
72
8
73
4
74
0
42
0.000000001
43
0.0000000001
44
0.0000000001
40
4.3191765187212304e-07
40
4.3191765187212304e-07
40
4.3191765187212304e-07
40
4.3191765187212304e-07
40
0.97789577284214424
40
0.97789577284214424
40
0.97789577284214424
40
0.97789577284214424
10
293.91427562709066
20
-99.920803410490265
30
0
10
294.79012299871442
20
-98.274061471896346
30
0
10
294.95458368891582
20
-96.338655908821082
30
0
10
294.37264818313156
20
-94.570247138523541
30
0
0
LINE
5
317
100
AcDbEntity
8
0
100
AcDbLine
10
294.37264818313156
20
-94.570247138523541
30
0
11
293.83370456290419
21
-92.566042110285082
31
0
0
LINE
5
318
100
AcDbEntity
8
0
100
AcDbLine
10
293.83370456290419
20
-92.566042110285082
30
0
11
324.01774312466432
21
-84.544547375586617
31
0
0
SPLINE
5
319
100
AcDbEntity
8
0
100
AcDbSpline
70
0
71
3
72
8
73
4
74
0
42
0.000000001
43
0.0000000001
44
0.0000000001
40
0.0017594817225742385
40
0.0017594817225742385
40
0.0017594817225742385
40
0.0017594817225742385
40
1
40
1
40
1
40
1
10
324.017745486747
20
-84.544556263854659
30
0
10
325.81247779470709
20
-84.071199983091262
30
0
10
327.34908968157816
20
-82.903480058404128
30
0
10
328.28581084813976
20
-81.300784560037869
30
0
0
SPLINE
5
320
100
AcDbEntity
8
0
100
AcDbSpline
70
0
71
3
72
11
73
7
74
0
42
0.000000001
43
0.0000000001
44
0.0000000001
40
0
40
0
40
0
40
0
40
1
40
1
40
1
40
1.0025822375903064
40
1.0025822375903064
40
1.0025822375903064
40
1.0025822375903064
10
328.28581207516174
20
-81.300782460646403
30
0
10
329.22418241689093
20
-79.695262296970981
30
0
10
329.48678124174592
20
-77.779437270425205
30
0
10
329.01503186255684
20
-75.980632839361746
30
0
10
329.01433413679467
20
-75.977972375463324
30
0
10
329.01363641103342
20
-75.975311911568042
30
0
10
329.01293868527512
20
-75.972651447683504
30
0
0
LINE
5
321
100
AcDbEntity
8
0
100
AcDbLine
10
329.01293868527517
20
-75.972651447683504
30
0
11
310.1819758271813
21
-5.7458425549070746
31
0
0
SPLINE
5
322
100
AcDbEntity
8
0
100
AcDbSpline
70
0
71
3
72
8
73
4
74
0
42
0.000000001
43
0.0000000001
44
0.0000000001
40
0.0016856573536821492
40
0.0016856573536821492
40
0.0016856573536821492
40
0.0016856573536821492
40
1
40
1
40
1
40
1
10
310.18197582718005
20
-5.7458425549074068
30
0
10
309.70869166224367
20
-3.9509421661055177
30
0
10
308.54092380867445
20
-2.4141731262070354
30
0
10
306.93811556753008
20
-1.4773802475145059
30
0
0
SPLINE
5
323
100
AcDbEntity
8
0
100
AcDbSpline
70
0
71
3
72
11
73
7
74
0
42
0.000000001
43
0.0000000001
44
0.0000000001
40
0
40
0
40
0
40
0
40
1
40
1
40
1
40
1.0052530883792756
40
1.0052530883792756
40
1.0052530883792756
40
1.0052530883792756
10
306.93811346813965
20
-1.4773790204855257
30
0
10
305.33259808106271
20
-0.53900564289147801
30
0
10
303.41677740897649
20
-0.27640302067102651
30
0
10
301.6179763071832
20
-0.74814591670945618
30
0
10
301.61256409750359
20
-0.7495652906834217
30
0
10
301.60715188782422
20
-0.75098466465732638
30
0
10
301.60173967814603
20
-0.7524040386309222
30
0
0
LINE
5
324
100
AcDbEntity
8
0
100
AcDbLine
10
271.6489695051705
20
-8.9669439967058082
30
0
11
301.60173967814603
21
-0.75240403863092209
31
0
0
LINE
5
325
100
AcDbEntity
8
0
100
AcDbLine
10
271.6489695051705
20
-8.9669439967058082
30
0
11
269.57950023931124
21
-1.2435926518769069
31
0
0
SPLINE
5
326
100
AcDbEntity
8
0
100
AcDbSpline
70
0
71
3
72
14
73
10
74
0
42
0.000000001
43
0.0000000001
44
0.0000000001
40
-0.10234089932679469
40
-0.10234089932679469
40
-0.10234089932679469
40
-0.10234089932679469
40
0
40
0
40
0
40
1
40
1
40
1
40
1.0042086522829485
40
1.0042086522829485
40
1.0042086522829485
40
1.0042086522829485
10
269.57950023931085
20
-1.2435926518763851
30
0
10
269.48274326413332
20
-1.1024127672099013
30
0
10
269.38598628895562
20
-0.96123288254316164
30
0
10
269.28922931377781
20
-0.8200529978763984
30
0
10
267.63381652236637
20
1.5953902974311205
30
0
10
264.61308922449678
20
2.7211964539624214
30
0
10
261.78060684539923
20
1.9783659621857863
30
0
10
261.77379856752208
20
1.9765804624979622
30
0
10
261.76699028964498
20
1.9747949628101575
30
0
10
261.76018201176851
20
1.9730094631225104
30
0
0
LINE
5
327
100
AcDbEntity
8
0
100
AcDbLine
10
261.76018201176851
20
1.9730094631225104
30
0
11
249.62322666619281
21
-1.3932471537151689
31
0
0
SPLINE
5
328
100
AcDbEntity
8
0
100
AcDbSpline
70
0
71
3
72
14
73
10
74
0
42
0.000000001
43
0.0000000001
44
0.0000000001
40
0.28017691958707441
40
0.28017691958707441
40
0.28017691958707441
40
0.28017691958707441
40
0.57206926255534396
40
0.57206926255534396
40
0.57206926255534396
40
1
40
1
40
1
40
1.0007047256720261
40
1.0007047256720261
40
1.0007047256720261
40
1.0007047256720261
10
249.62322666619281
20
-1.3932471537151401
30
0
10
248.93564157002766
20
-0.58323349990898721
30
0
10
248.07981664276068
20
0.052747231388786571
30
0
10
247.12305746885986
20
0.47868659376223865
30
0
10
245.72039423117147
20
1.1031378677958028
30
0
10
244.08124648218094
20
1.2712785641988169
30
0
10
242.49202012455743
20
0.85449855990370416
30
0
10
242.49050815888404
20
0.85410204177598326
30
0
10
242.48899619321065
20
0.85370552364826291
30
0
10
242.4874842275415
20
0.85330900552165134
30
0
0
LINE
5
329
100
AcDbEntity
8
0
100
AcDbLine
10
242.48748422754147
20
0.85330900552165123
30
0
11
226.84647407228067
21
-3.300901722871981
31
0
0
SPLINE
5
330
100
AcDbEntity
8
0
100
AcDbSpline
70
0
71
3
72
11
73
7
74
0
42
0.000000001
43
0.0000000001
44
0.0000000001
40
0.00081375820617622956
40
0.00081375820617622956
40
0.00081375820617622956
40
0.00081375820617622956
40
0.57206546332731056
40
0.57206546332731056
40
0.57206546332731056
40
0.72538150288732661
40
0.72538150288732661
40
0.72538150288732661
40
0.72538150288732661
10
226.8464719014375
20
-3.3008935494352598
30
0
10
224.72626422636563
20
-3.859920888034893
30
0
10
223.05820483835419
20
-5.3613883560515871
30
0
10
222.22460102247851
20
-7.2338229688234073
30
0
10
222.00087331284294
20
-7.7363584651584123
30
0
10
221.83529902885792
20
-8.2663608282891801
30
0
10
221.73397703682585
20
-8.8163163007591372
30
0
0
LINE
5
331
100
AcDbEntity
8
0
100
AcDbLine
10
221.73397703682585
20
-8.8163163007591372
30
0
11
209.49148053197763
21
-12.151240817445391
31
0
0
SPLINE
5
332
100
AcDbEntity
8
0
100
AcDbSpline
70
0
71
3
72
8
73
4
74
0
42
0.000000001
43
0.0000000001
44
0.0000000001
40
0.0029006069402553901
40
0.0029006069402553901
40
0.0029006069402553901
40
0.0029006069402553901
40
1
40
1
40
1
40
1
10
209.49148053197749
20
-12.151240817444915
30
0
10
207.69938772314728
20
-12.625638905850918
30
0
10
206.16521714227457
20
-13.792524387174247
30
0
10
205.22956720768801
20
-15.393391766374416
30
0
0
SPLINE
5
333
100
AcDbEntity
8
0
100
AcDbSpline
70
0
71
3
72
8
73
4
74
0
42
0.000000001
43
0.0000000001
44
0.0000000001
40
6.9061770850575678e-07
40
6.9061770850575678e-07
40
6.9061770850575678e-07
40
6.9061770850575678e-07
40
0.4377723408182661
40
0.4377723408182661
40
0.4377723408182661
40
0.4377723408182661
10
205.22956720768684
20
-15.393391766373636
30
0
10
204.81877381536518
20
-16.096245052437261
30
0
10
204.53717977331917
20
-16.858676269614264
30
0
10
204.39028407167771
20
-17.644607335640398
30
0
0
LINE
5
334
100
AcDbEntity
8
0
100
AcDbLine
10
204.39028407167771
20
-17.644607335640398
30
0
11
192.17161210769063
21
-20.868895148169116
31
0
0
SPLINE
5
335
100
AcDbEntity
8
0
100
AcDbSpline
70
0
71
3
72
11
73
7
74
0
42
0.000000001
43
0.0000000001
44
0.0000000001
40
0.0013478745967714632
40
0.0013478745967714632
40
0.0013478745967714632
40
0.0013478745967714632
40
0.57206938516876593
40
0.57206938516876593
40
0.57206938516876593
40
0.72245404660735435
40
0.72245404660735435
40
0.72245404660735435
40
0.72245404660735435
10
192.17161210769069
20
-20.868895148169116
30
0
10
190.05422915498235
20
-21.429199339205759
30
0
10
188.38849514055252
20
-22.929595680714403
30
0
10
187.55567630266856
20
-24.800297571721451
30
0
10
187.3362292051703
20
-25.293226023374991
30
0
10
187.17274764450582
20
-25.812530215350794
30
0
10
187.07093510974261
20
-26.351316368633778
30
0
0
LINE
5
336
100
AcDbEntity
8
0
100
AcDbLine
10
187.07093510974261
20
-26.351316368633778
30
0
11
173.7237546105176
21
-29.809375965243948
31
0
0
LINE
5
337
100
AcDbEntity
8
0
100
AcDbLine
10
173.7237546105176
20
-29.809375965243948
30
0
11
152.48835483318757
21
-29.809374034753059
31
0
0
LINE
5
338
100
AcDbEntity
8
0
100
AcDbLine
10
152.48835483318757
20
-29.809374034753059
30
0
11
139.36153719123115
21
-26.408708874085978
31
0
0
SPLINE
5
339
100
AcDbEntity
8
0
100
AcDbSpline
70
0
71
3
72
11
73
7
74
0
42
0.000000001
43
0.0000000001
44
0.0000000001
40
0.28007099586041811
40
0.28007099586041811
40
0.28007099586041811
40
0.28007099586041811
40
0.57206430797036234
40
0.57206430797036234
40
0.57206430797036234
40
0.99949471442469584
40
0.99949471442469584
40
0.99949471442469584
40
0.99949471442469584
10
139.36153719123118
20
-26.408708874085939
30
0
10
139.17118463507867
20
-25.36301627774186
30
0
10
138.74793483078565
20
-24.38393203644943
30
0
10
138.13211957288718
20
-23.536377773262529
30
0
10
137.23066685096592
20
-22.295697085789548
30
0
10
135.89727037783166
20
-21.33128267029268
30
0
10
134.31500046416721
20
-20.896885117286899
30
0
0
LINE
5
340
100
AcDbEntity
8
0
100
AcDbLine
10
134.31500046416721
20
-20.896885117286903
30
0
11
122.29892584563692
21
-17.564426664957832
31
0
0
CIRCLE
5
341
100
AcDbEntity
8
0
100
AcDbCircle
10
132.005427
20
-35.008390000000006
30
0
40
1.2499999999999987
210
0
220
0
230
1
0
LINE
5
342
100
AcDbEntity
8
0
100
AcDbLine
10
190.08172999999999
20
-228.67031600000001
30
0
11
174.10607099999999
21
-232.80937600000001
31
0
0
LWPOLYLINE
5
343
100
AcDbEntity
8
0
100
AcDbPolyline
90
4
70
1
43
0.0
10
150.03229199999998
20
-291.42671999999999
10
176.53229199999998
20
-291.42671999999999
10
176.53229199999998
20
-274.82672000000002
10
150.03229199999998
20
-274.82672000000002
0
LWPOLYLINE
5
344
100
AcDbEntity
8
0
100
AcDbPolyline
90
4
70
1
43
0.0
10
223.38775400000003
20
-303.743605
10
231.41782500000002
20
-315.21173400000004
10
219.86778100000004
20
-323.29916200000002
10
211.83771100000001
20
-311.83103299999999
0
LWPOLYLINE
5
345
100
AcDbEntity
8
0
100
AcDbPolyline
90
4
70
1
43
0.0
10
10.102361999999999
20
-258.74700200000001
10
13.725829000000003
20
-245.224041
10
27.345383000000005
20
-248.873389
10
23.721916000000004
20
-262.39635099999998
0
LINE
5
346
100
AcDbEntity
8
0
100
AcDbLine
10
58.908177000000002
20
-201.99268700000002
30
0
11
56.19059
21
-212.13490899999999
31
0
0
LINE
5
347
100
AcDbEntity
8
0
100
AcDbLine
10
294.37264818313156
20
-294.57024713852354
30
0
11
293.83370456290419
21
-292.56604211028508
31
0
0
LINE
5
348
100
AcDbEntity
8
0
100
AcDbLine
10
57.978687196130608
20
-201.59788615021287
30
0
11
55.483312337073073
21
-210.91079712372743
31
0
0
LWPOLYLINE
5
349
100
AcDbEntity
8
0
100
AcDbPolyline
90
4
70
1
43
0.0
10
100.367502
20
-269.99253299999998
10
86.747947999999994
20
-266.34318399999995
10
90.371415000000013
20
-252.820223
10
103.99096900000001
20
-256.46957100000003
0
LWPOLYLINE
5
350
100
AcDbEntity
8
0
100
AcDbPolyline
90
4
70
1
43
0.0
10
182.862213
20
-255.640952
10
196.48176699999999
20
-251.99160300000003
10
200.105234
20
-265.514566
10
186.48568
20
-269.16391400000003
0
SPLINE
5
351
100
AcDbEntity
8
0
100
AcDbSpline
70
0
71
3
72
14
73
10
74
0
42
0.000000001
43
0.0000000001
44
0.0000000001
40
0.00088412734277136019
40
0.00088412734277136019
40
0.00088412734277136019
40
0.00088412734277136019
40
0.57206501374730112
40
0.57206501374730112
40
0.57206501374730112
40
1
40
1
40
1
40
1.0009852416580198
40
1.0009852416580198
40
1.0009852416580198
40
1.0009852416580198
10
24.814776150339185
20
-200.64455402283681
30
0
10
22.699349560038826
20
-200.06891055677653
30
0
10
20.50437089492565
20
-200.53522899895358
30
0
10
18.846437104538495
20
-201.73985605308536
30
0
10
17.604294920364062
20
-202.64237585744104
30
0
10
16.639091499813471
20
-203.97786427444831
30
0
10
16.205419432933773
20
-205.56258577322342
30
0
10
16.204842619264209
20
-205.56469356178707
30
0
10
16.204265805594606
20
-205.56680135035083
30
0
10
16.203688991925006
20
-205.56890913891465
30
0
0
LWPOLYLINE
5
352
100
AcDbEntity
8
0
100
AcDbPolyline
90
4
70
1
43
0.0
10
27.160844000000001
20
-268.49419599999999
10
40.780397999999998
20
-272.14354399999996
10
37.156931
20
-285.66650600000003
10
23.537376999999999
20
-282.017157
0
SPLINE
5
353
100
AcDbEntity
8
0
100
AcDbSpline
70
0
71
3
72
11
73
7
74
0
42
0.000000001
43
0.0000000001
44
0.0000000001
40
0.015734725908413818
40
0.015734725908413818
40
0.015734725908413818
40
0.015734725908413818
40
1
40
1
40
1
40
1.038648226931618
40
1.038648226931618
40
1.038648226931618
40
1.038648226931618
10
115.75079308770917
20
-343.06864835181716
30
0
10
117.01266022302957
20
-344.4232861658927
30
0
10
118.73465073858253
20
-345.26451096495975
30
0
10
120.5809340219927
20
-345.42603655360665
30
0
10
120.62442796361694
20
-345.42984170343743
30
0
10
120.6679219052412
20
-345.43364685326821
30
0
10
120.71141584686551
20
-345.437452003099
30
0
0
LWPOLYLINE
5
354
100
AcDbEntity
8
0
100
AcDbPolyline
90
4
70
1
43
0.0
10
259.11959000000002
20
-246.595887
10
272.73914400000001
20
-242.94653799999998
10
276.36261100000002
20
-256.46950100000004
10
262.74305700000002
20
-260.11884899999995
0
LWPOLYLINE
5
355
100
AcDbEntity
8
0
100
AcDbPolyline
90
4
70
1
43
0.0
10
112.76725800000001
20
-297.12638200000004
10
99.147704000000019
20
-293.47703300000001
10
102.771171
20
-279.954072
10
116.390725
20
-283.60342000000003
0
LINE
5
356
100
AcDbEntity
8
0
100
AcDbLine
10
99.149772000000013
20
-205.85943600000002
30
0
11
82.895333999999991
21
-201.51348299999998
31
0
0
CIRCLE
5
357
100
AcDbEntity
8
0
100
AcDbCircle
10
38.016259000000005
20
-218.695098
30
0
40
1.2500000000000004
210
0
220
0
230
1
0
LWPOLYLINE
5
358
100
AcDbEntity
8
0
100
AcDbPolyline
90
4
70
1
43
0.0
10
213.799081
20
-243.21033200000002
10
217.42254800000001
20
-256.733295
10
203.80299399999998
20
-260.38264300000003
10
200.17952700000001
20
-246.85968099999999
0
SPLINE
5
359
100
AcDbEntity
8
0
100
AcDbSpline
70
0
71
3
72
8
73
4
74
0
42
0.000000001
43
0.0000000001
44
0.0000000001
40
0
40
0
40
0
40
0
40
1
40
1
40
1
40
1
10
24.032743
20
-203.540842
30
0
10
21.893380000000001
20
-202.95539000000002
30
0
10
19.684479999999997
20
-204.21508299999999
30
0
10
19.099026000000002
20
-206.354445
30
0
0
LWPOLYLINE
5
360
100
AcDbEntity
8
0
100
AcDbPolyline
90
4
70
1
43
0.0
10
181.56812400000004
20
-250.811319
10
177.94465700000001
20
-237.28835700000002
10
191.564211
20
-233.63900799999999
10
195.18767800000003
20
-247.16197100000002
0
SPLINE
5
361
100
AcDbEntity
8
0
100
AcDbSpline
70
0
71
3
72
8
73
4
74
0
42
0.000000001
43
0.0000000001
44
0.0000000001
40
0
40
0
40
0
40
0
40
1
40
1
40
1
40
1
10
307.28249700000003
20
-206.51595499999999
30
0
10
307.01230199999998
20
-205.48566300000002
30
0
10
306.3438910000001
20
-204.604904
30
0
10
305.424307
20
-204.06743500000002
30
0
0
LWPOLYLINE
5
362
100
AcDbEntity
8
0
100
AcDbPolyline
90
4
70
1
43
0.0
10
23.560946000000001
20
-208.51886300000001
10
37.180500000000002
20
-212.16821100000001
10
33.557033000000004
20
-225.69117300000002
10
19.937479
20
-222.04182400000002
0
LWPOLYLINE
5
363
100
AcDbEntity
8
0
100
AcDbPolyline
90
4
70
1
43
0.0
10
50.615522000000006
20
-235.438354
10
46.992055000000008
20
-248.96131600000001
10
33.372501
20
-245.31196699999998
10
36.995968000000005
20
-231.78900599999997
0
SPLINE
5
364
100
AcDbEntity
8
0
100
AcDbSpline
70
0
71
3
72
8
73
4
74
0
42
0.000000001
43
0.0000000001
44
0.0000000001
40
0.0018691636325534635
40
0.0018691636325534635
40
0.0018691636325534635
40
0.0018691636325534635
40
1
40
1
40
1
40
1
10
31.960377373306379
20
-294.79043327572163
30
0
10
31.473160901373696
20
-296.58122357988935
30
0
10
31.716175732857181
20
-298.49558368800444
30
0
10
32.635689100256776
20
-300.1079782105453
30
0
0
LINE
5
365
100
AcDbEntity
8
0
100
AcDbLine
10
77.719460764949503
20
-203.01351308373165
30
0
11
63.134087743360269
21
-199.12767709075359
31
0
0
LINE
5
366
100
AcDbEntity
8
0
100
AcDbLine
10
103.53079514529212
20
-330.9763447256841
30
0
11
115.75079308770859
21
-343.06864835181699
31
0
0
LWPOLYLINE
5
367
100
AcDbEntity
8
0
100
AcDbPolyline
90
4
70
1
43
0.0
10
303.97755799999999
20
-267.18742299999997
10
317.59711200000004
20
-263.53807399999999
10
321.22057900000004
20
-277.061037
10
307.60102500000005
20
-280.71038499999997
0
LWPOLYLINE
5
368
100
AcDbEntity
8
0
100
AcDbPolyline
90
4
70
1
43
0.0
10
221.12031099999999
20
-251.60138500000002
10
217.49684400000001
20
-238.07842300000002
10
231.11639800000003
20
-234.42907399999999
10
234.73986499999998
20
-247.95203700000002
0
LWPOLYLINE
5
369
100
AcDbEntity
8
0
100
AcDbPolyline
90
4
70
1
43
0.0
10
306.46790499999997
20
-222.00326799999999
10
292.84835099999998
20
-225.65261599999999
10
289.22488399999997
20
-212.12965400000002
10
302.84443799999997
20
-208.48030499999999
0
SPLINE
5
370
100
AcDbEntity
8
0
100
AcDbSpline
70
0
71
3
72
11
73
7
74
0
42
0.000000001
43
0.0000000001
44
0.0000000001
40
0
40
0
40
0
40
0
40
1
40
1
40
1
40
1.0026894073334152
40
1.0026894073334152
40
1.0026894073334152
40
1.0026894073334152
10
104.24377402400714
20
-206.35627978890955
30
0
10
103.32791486620968
20
-204.69189561095649
30
0
10
101.77399022276825
20
-203.46727154748373
30
0
10
99.941634180664238
20
-202.96583024129103
30
0
10
99.938807976625554
20
-202.96505682421918
30
0
10
99.935981772587397
20
-202.96428340714743
30
0
10
99.93315556855849
20
-202.96350999007825
30
0
0
SPLINE
5
371
100
AcDbEntity
8
0
100
AcDbSpline
70
0
71
3
72
8
73
4
74
0
42
0.000000001
43
0.0000000001
44
0.0000000001
40
0
40
0
40
0
40
0
40
1
40
1
40
1
40
1
10
305.424307
20
-204.06743500000002
30
0
10
304.50472300000001
20
-203.529967
30
0
10
303.40929399999999
20
-203.37981600000001
30
0
10
302.37900299999995
20
-203.650014
30
0
0
LWPOLYLINE
5
372
100
AcDbEntity
8
0
100
AcDbPolyline
90
4
70
1
43
0.0
10
77.120920999999996
20
-209.92926699999998
10
73.497454000000005
20
-223.45222899999999
10
59.877900000000004
20
-219.80288000000002
10
63.501367000000002
20
-206.27991900000001
0
SPLINE
5
373
100
AcDbEntity
8
0
100
AcDbSpline
70
0
71
3
72
8
73
4
74
0
42
0.000000001
43
0.0000000001
44
0.0000000001
40
0.00080766819406041411
40
0.00080766819406041411
40
0.00080766819406041411
40
0.00080766819406041411
40
1
40
1
40
1
40
1
10
33.891341148762898
20
-295.31139768376596
30
0
10
33.54141508415055
20
-296.5933012730838
30
0
10
33.714722044982928
20
-297.96283451283676
30
0
10
34.373035687141353
20
-299.11720741089692
30
0
0
SPLINE
5
374
100
AcDbEntity
8
0
100
AcDbSpline
70
0
71
3
72
11
73
7
74
0
42
0.000000001
43
0.0000000001
44
0.0000000001
40
4.3855592433384217e-07
40
4.3855592433384217e-07
40
4.3855592433384217e-07
40
4.3855592433384217e-07
40
1
40
1
40
1
40
1.0024764744091341
40
1.0024764744091341
40
1.0024764744091341
40
1.0024764744091341
10
-2.0164769733379808
20
-281.13872357442926
30
0
10
-1.0952449731015139
20
-282.75413876068825
30
0
10
0.43260506931854825
20
-283.93946890306034
30
0
10
2.2262835326446466
20
-284.43032858561259
30
0
10
2.2288277609187017
20
-284.43102484144015
30
0
10
2.2313719891910337
20
-284.43172109726731
30
0
10
2.2339162174686091
20
-284.4324173530959
30
0
0
LWPOLYLINE
5
375
100
AcDbEntity
8
0
100
AcDbPolyline
90
4
70
1
43
0.0
10
69.430639999999997
20
-257.561913
10
73.054107000000002
20
-244.03895199999999
10
86.67366100000001
20
-247.68830000000003
10
83.050193999999991
20
-261.21126199999998
0
LWPOLYLINE
5
376
100
AcDbEntity
8
0
100
AcDbPolyline
90
4
70
1
43
0.0
10
99.073413000000002
20
-274.82214899999997
10
95.449946000000011
20
-288.34511099999997
10
81.830392000000018
20
-284.695762
10
85.453858999999994
20
-271.17280100000005
0
SPLINE
5
377
100
AcDbEntity
8
0
100
AcDbSpline
70
0
71
3
72
11
73
7
74
0
42
0.000000001
43
0.0000000001
44
0.0000000001
40
-0.00088889035837814404
40
-0.00088889035837814404
40
-0.00088889035837814404
40
-0.00088889035837814404
40
0
40
0
40
0
40
1
40
1
40
1
40
1
10
289.10129558303015
20
-301.39131135652883
30
0
10
289.10221698100872
20
-301.39106940234819
30
0
10
289.10313837897672
20
-301.39082744817034
30
0
10
289.10405977694444
20
-301.3905854939926
30
0
10
290.41003658437603
20
-301.04764297000793
30
0
10
291.51444317166016
20
-300.17377143967474
30
0
10
292.14849522218617
20
-298.98164447716067
30
0
0
LINE
5
378
100
AcDbEntity
8
0
100
AcDbLine
10
261.76018201176851
20
-198.02699053687749
30
0
11
249.62322666619281
21
-201.39324715371515
31
0
0
LWPOLYLINE
5
379
100
AcDbEntity
8
0
100
AcDbPolyline
90
4
70
1
43
0.0
10
120.71952900000001
20
-336.92942600000003
10
110.749323
20
-326.95922000000002
10
120.64881800000001
20
-317.05972500000001
10
130.61902400000002
20
-327.02993100000003
0
SPLINE
5
380
100
AcDbEntity
8
0
100
AcDbSpline
70
0
71
3
72
8
73
4
74
0
42
0.000000001
43
0.0000000001
44
0.0000000001
40
0
40
0
40
0
40
0
40
1
40
1
40
1
40
1
10
323.50090364656364
20
-282.61247361717426
30
0
10
324.78736864531612
20
-282.27509425521203
30
0
10
325.88800222181249
20
-281.43981565831677
30
0
10
326.55910496224493
20
-280.29158352753177
30
0
0
SPLINE
5
381
100
AcDbEntity
8
0
100
AcDbSpline
70
0
71
3
72
8
73
4
74
0
42
0.000000001
43
0.0000000001
44
0.0000000001
40
0
40
0
40
0
40
0
40
1
40
1
40
1
40
1
10
62.928797000000003
20
-200.10786499999998
30
0
10
61.330296000000004
20
-199.862121
30
0
10
59.741786000000005
20
-200.60679700000003
30
0
10
58.908177000000002
20
-201.99268700000002
30
0
0
SPLINE
5
382
100
AcDbEntity
8
0
100
AcDbSpline
70
0
71
3
72
14
73
10
74
0
42
0.000000001
43
0.0000000001
44
0.0000000001
40
-0.034113633617431874
40
-0.034113633617431874
40
-0.034113633617431874
40
-0.034113633617431874
40
0
40
0
40
0
40
1
40
1
40
1
40
1.0014028841121327
40
1.0014028841121327
40
1.0014028841121327
40
1.0014028841121327
10
267.73624476017051
20
-202.09187554430559
30
0
10
267.70399243463083
20
-202.04481558204895
30
0
10
267.67174010909082
20
-201.99775561979192
30
0
10
267.63948778355081
20
-201.95069565753485
30
0
10
266.45739151622053
20
-200.22587722062011
30
0
10
264.31057641041951
20
-199.4257724993497
30
0
10
262.28795827801969
20
-199.95621266485767
30
0
10
262.28568885203129
20
-199.95680783142797
30
0
10
262.28341942604311
20
-199.9574029979982
30
0
10
262.28115000005607
20
-199.95799816456812
30
0
0
LWPOLYLINE
5
383
100
AcDbEntity
8
0
100
AcDbPolyline
90
4
70
1
43
0.0
10
252.90793000000002
20
-223.41367099999999
10
249.28446300000002
20
-209.89070900000002
10
262.90401700000007
20
-206.24135999999999
10
266.52748399999996
20
-219.76432299999999
0
LWPOLYLINE
5
384
100
AcDbEntity
8
0
100
AcDbPolyline
90
4
70
1
43
0.0
10
271.44503800000001
20
-238.11690999999999
10
257.82548399999996
20
-241.76625799999999
10
254.20201700000001
20
-228.24329599999999
10
267.82157100000001
20
-224.59394700000001
0
SPLINE
5
385
100
AcDbEntity
8
0
100
AcDbSpline
70
0
71
3
72
11
73
7
74
0
42
0.000000001
43
0.0000000001
44
0.0000000001
40
0
40
0
40
0
40
0
40
1
40
1
40
1
40
1.0008607459160488
40
1.0008607459160488
40
1.0008607459160488
40
1.0008607459160488
10
326.55910537125226
20
-280.2915828277346
30
0
10
327.23020682048661
20
-279.14335076976909
30
0
10
327.41783909599684
20
-277.7744537568455
30
0
10
327.08045463526605
20
-276.4879896093405
30
0
10
327.08022205999737
20
-276.48710278798518
30
0
10
327.07998948472891
20
-276.48621596663065
30
0
10
327.07975690946142
20
-276.48532914527999
30
0
0
SPLINE
5
386
100
AcDbEntity
8
0
100
AcDbSpline
70
0
71
3
72
8
73
4
74
0
42
0.000000001
43
0.0000000001
44
0.0000000001
40
0.0016856573895168119
40
0.0016856573895168119
40
0.0016856573895168119
40
0.0016856573895168119
40
1
40
1
40
1
40
1
10
310.18197582712912
20
-205.74584255471416
30
0
10
309.70869166215999
20
-203.9509421659952
30
0
10
308.54092380861692
20
-202.41417312617341
30
0
10
306.93811556753008
20
-201.4773802475145
30
0
0
SPLINE
5
387
100
AcDbEntity
8
0
100
AcDbSpline
70
0
71
3
72
8
73
4
74
0
42
0.000000001
43
0.0000000001
44
0.0000000001
40
0
40
0
40
0
40
0
40
1
40
1
40
1
40
1
10
117.90985300000001
20
-340.98461499999996
30
0
10
118.67000300000001
20
-341.82028600000001
30
0
10
119.717016
20
-342.33899600000001
30
0
10
120.84239600000001
20
-342.43745200000001
30
0
0
LWPOLYLINE
5
388
100
AcDbEntity
8
0
100
AcDbPolyline
90
4
70
1
43
0.0
10
117.68482300000001
20
-278.77379500000001
10
104.06526900000001
20
-275.12444599999998
10
107.68873600000001
20
-261.60148499999997
10
121.30828999999999
20
-265.250833
0
LINE
5
389
100
AcDbEntity
8
0
100
AcDbLine
10
116.447175
20
-214.90134699999999
30
0
11
101.937377
21
-210.92533299999999
31
0
0
LWPOLYLINE
5
390
100
AcDbEntity
8
0
100
AcDbPolyline
90
4
70
1
43
0.0
10
28.639472999999999
20
-244.043758
10
15.019919000000002
20
-240.39440900000002
10
18.643386
20
-226.87144799999999
10
32.26294
20
-230.52079599999999
0
LINE
5
391
100
AcDbEntity
8
0
100
AcDbLine
10
36.228400000000001
20
-290.43701800000002
30
0
11
34.856724999999997
21
-295.572247
31
0
0
LWPOLYLINE
5
392
100
AcDbEntity
8
0
100
AcDbPolyline
90
4
70
1
43
0.0
10
96.508780999999999
20
-210.98311800000002
10
92.885314000000022
20
-224.50608
10
79.26576
20
-220.85673100000002
10
82.889227000000005
20
-207.33377000000002
0
LWPOLYLINE
5
393
100
AcDbEntity
8
0
100
AcDbPolyline
90
4
70
1
43
0.0
10
67.285796000000005
20
-246.63443400000003
10
63.662329000000007
20
-260.15739600000001
10
50.042775000000006
20
-256.50804700000003
10
53.666242000000004
20
-242.98508599999997
0
LINE
5
394
100
AcDbEntity
8
0
100
AcDbLine
10
88.595335291125323
20
-320.24423330080356
30
0
11
103.53079514529212
21
-330.9763447256841
31
0
0
LWPOLYLINE
5
395
100
AcDbEntity
8
0
100
AcDbPolyline
90
4
70
1
43
0.0
10
299.24452000000002
20
-268.45563599999997
10
302.86798700000008
20
-281.97859900000003
10
289.24843300000009
20
-285.62794699999995
10
285.62496600000003
20
-272.104985
0
LINE
5
396
100
AcDbEntity
8
0
100
AcDbLine
10
32.556467289337924
20
-292.55881264881475
30
0
11
31.960377373413976
21
-294.79043327531895
31
0
0
SPLINE
5
397
100
AcDbEntity
8
0
100
AcDbSpline
70
0
71
3
72
11
73
7
74
0
42
0.000000001
43
0.0000000001
44
0.0000000001
40
0
40
0
40
0
40
0
40
1
40
1
40
1
40
1.0025822376384996
40
1.0025822376384996
40
1.0025822376384996
40
1.0025822376384996
10
328.28581207516174
20
-281.30078246064642
30
0
10
329.22418241689104
20
-279.69526229697101
30
0
10
329.48678124174592
20
-277.77943727042521
30
0
10
329.01503186255684
20
-275.98063283936176
30
0
10
329.01433413678365
20
-275.97797237542079
30
0
10
329.01363641100994
20
-275.97531191147789
30
0
10
329.01293868524562
20
-275.97265144757108
30
0
0
LWPOLYLINE
5
398
100
AcDbEntity
8
0
100
AcDbPolyline
90
4
70
1
43
0.0
10
205.09708500000002
20
-265.21227599999997
10
218.71663900000001
20
-261.562927
10
222.34010600000002
20
-275.08589000000001
10
208.72055200000003
20
-278.73523799999998
0
SPLINE
5
399
100
AcDbEntity
8
0
100
AcDbSpline
70
0
71
3
72
8
73
4
74
0
42
0.000000001
43
0.0000000001
44
0.0000000001
40
0
40
0
40
0
40
0
40
1
40
1
40
1
40
1
10
291.26560499999999
20
-298.51206500000001
30
0
10
291.76886100000002
20
-297.56585899999999
30
0
10
291.85389600000002
20
-296.45242000000002
30
0
10
291.50016299999999
20
-295.44076500000006
30
0
0
SPLINE
5
400
100
AcDbEntity
8
0
100
AcDbSpline
70
0
71
3
72
11
73
7
74
0
42
0.000000001
43
0.0000000001
44
0.0000000001
40
0.0066628240617777473
40
0.0066628240617777473
40
0.0066628240617777473
40
0.0066628240617777473
40
1
40
1
40
1
40
1.012882742502087
40
1.012882742502087
40
1.012882742502087
40
1.012882742502087
10
117.18872914566919
20
-341.67787060637102
30
0
10
118.11628499145671
20
-342.68735556454192
30
0
10
119.38888736065634
20
-343.31410874295477
30
0
10
120.7552420060322
20
-343.43364686604667
30
0
10
120.76973998678923
20
-343.43491524934245
30
0
10
120.78423796754623
20
-343.43618363263823
30
0
10
120.79873594830319
20
-343.43745201593401
30
0
0
SPLINE
5
401
100
AcDbEntity
8
0
100
AcDbSpline
70
0
71
3
72
8
73
4
74
0
42
0.000000001
43
0.0000000001
44
0.0000000001
40
0.00072837726096801217
40
0.00072837726096801217
40
0.00072837726096801217
40
0.00072837726096801217
40
1
40
1
40
1
40
1
10
308.24904912369942
20
-206.25947150049615
30
0
10
307.91119493777848
20
-204.97421694457734
30
0
10
307.07630105348323
20
-203.87469880685475
30
0
10
305.92890986336249
20
-203.20408340297323
30
0
0
SPLINE
5
402
100
AcDbEntity
8
0
100
AcDbSpline
70
0
71
3
72
11
73
7
74
0
42
0.000000001
43
0.0000000001
44
0.0000000001
40
0.27604165143011722
40
0.27604165143011722
40
0.27604165143011722
40
0.27604165143011722
40
0.57206785233276403
40
0.57206785233276403
40
0.57206785233276403
40
1
40
1
40
1
40
1
10
122.29892584563693
20
-217.56442666495789
30
0
10
122.1125394358277
20
-216.50267107335975
30
0
10
121.68606921584905
20
-215.50800902112996
30
0
10
121.06174627957158
20
-214.6487521441357
30
0
10
120.15923206243647
20
-213.40662006376988
30
0
10
118.82375673196834
20
-212.4414222722703
30
0
10
117.23905035967184
20
-212.00774484788153
30
0
0
LINE
5
403
100
AcDbEntity
8
0
100
AcDbLine
10
291.38142220590566
20
-291.14832338065787
30
0
11
323.50090364656364
21
-282.61247361717426
31
0
0
SPLINE
5
404
100
AcDbEntity
8
0
100
AcDbSpline
70
0
71
3
72
11
73
7
74
0
42
0.000000001
43
0.0000000001
44
0.0000000001
40
1.1656747895532435e-07
40
1.1656747895532435e-07
40
1.1656747895532435e-07
40
1.1656747895532435e-07
40
1
40
1
40
1
40
1.0025240597598706
40
1.0025240597598706
40
1.0025240597598706
40
1.0025240597598706
10
34.373035687141289
20
-299.11720741089698
30
0
10
35.031881133056601
20
-300.27251384274217
30
0
10
36.123563069802515
20
-301.11945462900383
30
0
10
37.406363000701319
20
-301.47050183234035
30
0
10
37.408956116212579
20
-301.47121145659759
30
0
10
37.411549231723704
20
-301.47192108085477
30
0
10
37.414142347227191
20
-301.47263070510985
30
0
0
LINE
5
405
100
AcDbEntity
8
0
100
AcDbLine
10
99.410899860142706
20
-204.89412731565977
30
0
11
83.142627840756347
21
-200.54447551056668
31
0
0
SPLINE
5
406
100
AcDbEntity
8
0
100
AcDbSpline
70
0
71
3
72
8
73
4
74
0
42
0.000000001
43
0.0000000001
44
0.0000000001
40
0
40
0
40
0
40
0
40
1
40
1
40
1
40
1
10
325.69575200000003
20
-279.78698299999996
30
0
10
326.23321900000002
20
-278.86739499999999
30
0
10
326.38336800000002
20
-277.77196199999997
30
0
10
326.11316600000004
20
-276.741668
30
0
0
SPLINE
5
407
100
AcDbEntity
8
0
100
AcDbSpline
70
0
71
3
72
8
73
4
74
0
42
0.000000001
43
0.0000000001
44
0.0000000001
40
0.25581687030325717
40
0.25581687030325717
40
0.25581687030325717
40
0.25581687030325717
40
1
40
1
40
1
40
1
10
103.09325370012645
20
-210.20520472088504
30
0
10
103.18458597800506
20
-209.21280390168408
30
0
10
102.979317702698
20
-208.20691334909853
30
0
10
102.4915417420673
20
-207.32047996030821
30
0
0
CIRCLE
5
408
100
AcDbEntity
8
0
100
AcDbCircle
10
117.993156
20
-296.38068100000004
30
0
40
1.2499999999999929
210
0
220
0
230
1
0
SPLINE
5
409
100
AcDbEntity
8
0
100
AcDbSpline
70
0
71
3
72
11
73
7
74
0
42
0.000000001
43
0.0000000001
44
0.0000000001
40
0
40
0
40
0
40
0
40
1
40
1
40
1
40
1.001751029463712
40
1.001751029463712
40
1.001751029463712
40
1.001751029463712
10
305.92890916356572
20
-203.2040829939636
30
0
10
304.78068136446637
20
-202.53297986610755
30
0
10
303.41178846969603
20
-202.34534499147549
30
0
10
302.12532743194765
20
-202.68272462448942
30
0
10
302.12352336205072
20
-202.68319774914841
30
0
10
302.12171929215373
20
-202.68367087380739
30
0
10
302.11991522225628
20
-202.68414399846651
30
0
0
SPLINE
5
410
100
AcDbEntity
8
0
100
AcDbSpline
70
0
71
3
72
8
73
4
74
0
42
0.000000001
43
0.0000000001
44
0.0000000001
40
0
40
0
40
0
40
0
40
1
40
1
40
1
40
1
10
0.58954499999999999
20
-279.65257099999997
30
0
10
1.1171950000000002
20
-280.57782600000002
30
0
10
1.9907910000000002
20
-281.25557600000002
30
0
10
3.0181499999999999
20
-281.53672399999999
30
0
0
LWPOLYLINE
5
411
100
AcDbEntity
8
0
100
AcDbPolyline
90
4
70
1
43
0.0
10
100.20653600000001
20
-216.11503800000003
10
113.82609000000001
20
-219.764386
10
110.202623
20
-233.28734800000001
10
96.583068999999995
20
-229.63799900000001
0
CIRCLE
5
412
100
AcDbEntity
8
0
100
AcDbCircle
10
194.69334200000003
20
-235.96963299999999
30
0
40
1.25
210
0
220
0
230
1
0
LWPOLYLINE
5
413
100
AcDbEntity
8
0
100
AcDbPolyline
90
4
70
1
43
0.0
10
42.074497999999998
20
-267.31390900000002
10
28.454944000000001
20
-263.66455999999999
10
32.078410999999996
20
-250.14159899999999
10
45.697965000000011
20
-253.79094699999999
0
LINE
5
414
100
AcDbEntity
8
0
100
AcDbLine
10
291.50016299999999
20
-295.44076500000006
30
0
11
290.155281
21
-290.43946400000004
31
0
0
LINE
5
415
100
AcDbEntity
8
0
100
AcDbLine
10
35.004422411540624
20
-291.14428289347734
30
0
11
33.891341148747017
21
-295.31139768382798
31
0
0
LINE
5
416
100
AcDbEntity
8
0
100
AcDbLine
10
99.933155568630184
20
-202.96350999009786
30
0
11
83.637215511222465
21
-198.60646057502012
31
0
0
SPLINE
5
417
100
AcDbEntity
8
0
100
AcDbSpline
70
0
71
3
72
11
73
7
74
0
42
0.000000001
43
0.0000000001
44
0.0000000001
40
2.5009907131973325e-07
40
2.5009907131973325e-07
40
2.5009907131973325e-07
40
2.5009907131973325e-07
40
1
40
1
40
1
40
1.0075721791852628
40
1.0075721791852628
40
1.0075721791852628
40
1.0075721791852628
10
32.635689100256599
20
-300.1079782105453
30
0
10
33.556923432839774
20
-301.72339149634161
30
0
10
35.084777232626145
20
-302.90871984701835
30
0
10
36.878459013903516
20
-303.39957345390303
30
0
10
36.886238360339931
20
-303.40170232664809
30
0
10
36.894017706775998
20
-303.4038311993931
30
0
10
36.901797053207119
20
-303.40596007213674
30
0
0
SPLINE
5
418
100
AcDbEntity
8
0
100
AcDbSpline
70
0
71
3
72
11
73
7
74
0
42
0.000000001
43
0.0000000001
44
0.0000000001
40
0
40
0
40
0
40
0
40
1
40
1
40
1
40
1.0008964691521349
40
1.0008964691521349
40
1.0008964691521349
40
1.0008964691521349
10
102.49154135439086
20
-207.32047925578598
30
0
10
101.83608829985154
20
-206.12932919294246
30
0
10
100.72508808207103
20
-205.25376716918416
30
0
10
99.413726064154645
20
-204.89490073272432
30
0
10
99.412783996099549
20
-204.89464292702218
30
0
10
99.411841928044296
20
-204.89438512131997
30
0
10
99.410899859992128
20
-204.89412731561856
30
0
0
LINE
5
419
100
AcDbEntity
8
0
100
AcDbLine
10
207.40221599999998
20
-219.952505
30
0
11
192.94766100000004
21
-223.766806
31
0
0
LINE
5
420
100
AcDbEntity
8
0
100
AcDbLine
10
3.0181499999999999
20
-281.53672399999999
30
0
11
36.228400000000001
21
-290.43701800000002
31
0
0
CIRCLE
5
421
100
AcDbEntity
8
0
100
AcDbCircle
10
303.13518199999999
20
-273.44137899999998
30
0
40
1.25
210
0
220
0
230
1
0
LWPOLYLINE
5
422
100
AcDbEntity
8
0
100
AcDbPolyline
90
4
70
1
43
0.0
10
283.262722
20
-282.22108600000001
10
286.886189
20
-295.74404900000002
10
273.26663500000001
20
-299.39339699999999
10
269.643168
20
-285.87043499999999
0
LWPOLYLINE
5
423
100
AcDbEntity
8
0
100
AcDbPolyline
90
4
70
1
43
0.0
10
297.95042999999998
20
-263.62600499999996
10
284.33087599999999
20
-267.275353
10
280.70740899999998
20
-253.75239100000002
10
294.32696299999998
20
-250.10304200000002
0
LINE
5
424
100
AcDbEntity
8
0
100
AcDbLine
10
271.6489695051705
20
-208.96694399670579
30
0
11
269.57950023931124
21
-201.24359265187692
31
0
0
SPLINE
5
425
100
AcDbEntity
8
0
100
AcDbSpline
70
0
71
3
72
8
73
4
74
0
42
0.000000001
43
0.0000000001
44
0.0000000001
40
0
40
0
40
0
40
0
40
1
40
1
40
1
40
1
10
34.856724999999997
20
-295.572247
30
0
10
34.575575000000001
20
-296.599604
30
0
10
34.714058000000001
20
-297.69657000000001
30
0
10
35.241709
20
-298.62182200000001
30
0
0
SPLINE
5
426
100
AcDbEntity
8
0
100
AcDbSpline
70
0
71
3
72
8
73
4
74
0
42
0.000000001
43
0.0000000001
44
0.0000000001
40
0.0017594817225922877
40
0.0017594817225922877
40
0.0017594817225922877
40
0.0017594817225922877
40
1
40
1
40
1
40
1
10
324.01774548674717
20
-284.54455626385459
30
0
10
325.81247779470738
20
-284.07119998309111
30
0
10
327.34908968157816
20
-282.90348005840406
30
0
10
328.28581084813976
20
-281.30078456003787
30
0
0
LINE
5
427
100
AcDbEntity
8
0
100
AcDbLine
10
116.71113345715725
20
-213.93681293492114
30
0
11
103.09325370012645
21
-210.20520472088504
31
0
0
LINE
5
428
100
AcDbEntity
8
0
100
AcDbLine
10
290.155281
20
-290.43946400000004
30
0
11
323.24722900000006
21
-281.64518399999997
31
0
0
LINE
5
429
100
AcDbEntity
8
0
100
AcDbLine
10
293.83370456290419
20
-292.56604211028508
30
0
11
324.01774312466432
21
-284.5445473755866
31
0
0
CIRCLE
5
430
100
AcDbEntity
8
0
100
AcDbCircle
10
288.41554500000001
20
-218.55542100000002
30
0
40
1.25
210
0
220
0
230
1
0
LWPOLYLINE
5
431
100
AcDbEntity
8
0
100
AcDbPolyline
90
4
70
1
43
0.0
10
106.33710600000001
20
-323.24677500000001
10
94.787063000000003
20
-315.15934700000003
10
102.817133
20
-303.69121899999999
10
114.36717700000001
20
-311.77864599999998
0
SPLINE
5
432
100
AcDbEntity
8
0
100
AcDbSpline
70
0
71
3
72
11
73
7
74
0
42
0.000000001
43
0.0000000001
44
0.0000000001
40
-0.0026666712626038031
40
-0.0026666712626038031
40
-0.0026666712626038031
40
-0.0026666712626038031
40
0
40
0
40
0
40
1
40
1
40
1
40
1
10
289.60373473716839
20
-303.32718002649818
30
0
10
289.60649893127561
20
-303.32645416391114
30
0
10
289.60926312537487
20
-303.32572830132631
30
0
10
289.6120273194756
20
-303.32500243874108
30
0
10
291.45681572973058
20
-302.84057086994881
30
0
10
293.01862948135914
20
-301.60477228703888
30
0
10
293.91427562709009
20
-299.92080341049007
30
0
0
LWPOLYLINE
5
433
100
AcDbEntity
8
0
100
AcDbPolyline
90
4
70
1
43
0.0
10
212.50499000000002
20
-238.38070500000001
10
198.88543600000003
20
-242.03005300000001
10
195.26196900000002
20
-228.507091
10
208.88152300000002
20
-224.85774200000003
0
LWPOLYLINE
5
434
100
AcDbEntity
8
0
100
AcDbPolyline
90
4
70
1
43
0.0
10
38.290065999999996
20
-226.95938200000001
10
41.913533000000001
20
-213.436421
10
55.533087000000009
20
-217.085769
10
51.909620000000004
20
-230.60873100000003
0
LINE
5
435
100
AcDbEntity
8
0
100
AcDbLine
10
117.23905035967184
20
-212.00774484788153
30
0
11
105.03060780901031
21
-208.66235430493745
31
0
0
SPLINE
5
436
100
AcDbEntity
8
0
100
AcDbSpline
70
0
71
3
72
11
73
7
74
0
42
0.000000001
43
0.0000000001
44
0.0000000001
40
0
40
0
40
0
40
0
40
1
40
1
40
1
40
1.0052530883394617
40
1.0052530883394617
40
1.0052530883394617
40
1.0052530883394617
10
306.93811346813965
20
-201.47737902048559
30
0
10
305.33259808106277
20
-200.53900564289148
30
0
10
303.41677740897643
20
-200.27640302067101
30
0
10
301.61797630718308
20
-200.74814591670946
30
0
10
301.61256409754435
20
-200.74956529067271
30
0
10
301.60715188790567
20
-200.75098466463595
30
0
10
301.60173967825176
20
-200.75240403860312
30
0
0
SPLINE
5
437
100
AcDbEntity
8
0
100
AcDbSpline
70
0
71
3
72
11
73
7
74
0
42
0.000000001
43
0.0000000001
44
0.0000000001
40
-0.012882628916668446
40
-0.012882628916668446
40
-0.012882628916668446
40
-0.012882628916668446
40
0
40
0
40
0
40
0.9933372136824058
40
0.9933372136824058
40
0.9933372136824058
40
0.9933372136824058
10
205.41341567219604
20
-343.43745001386833
30
0
10
205.42791351224406
20
-343.4361816546384
30
0
10
205.44241135229146
20
-343.43491329540836
30
0
10
205.45690919233877
20
-343.43364493617844
30
0
10
206.82326313259631
20
-343.31410798268269
30
0
10
208.0958649540874
20
-342.6873557020769
30
0
10
209.02342001586555
20
-341.67787143233369
30
0
0
LINE
5
438
100
AcDbEntity
8
0
100
AcDbLine
10
209.02342001586842
20
-341.67787143233056
30
0
11
221.38645840686542
21
-329.44401218691303
31
0
0
SPLINE
5
439
100
AcDbEntity
8
0
100
AcDbSpline
70
0
71
3
72
8
73
4
74
0
42
0.000000001
43
0.0000000001
44
0.0000000001
40
0
40
0
40
0
40
0
40
1
40
1
40
1
40
1
10
205.36975600000002
20
-342.43745000000001
30
0
10
206.495135
20
-342.33899500000001
30
0
10
207.54214700000003
20
-341.82028600000001
30
0
10
208.30229599999998
20
-340.98461600000002
30
0
0
LINE
5
440
100
AcDbEntity
8
0
100
AcDbLine
10
221.38645840686542
20
-329.44401218691303
30
0
11
236.60022221506537
21
-318.51192445035781
31
0
0
LINE
5
441
100
AcDbEntity
8
0
100
AcDbLine
10
222.68134919165311
20
-330.97634052648903
30
0
11
237.61681062247359
21
-320.24423131235324
31
0
0
LINE
5
442
100
AcDbEntity
8
0
100
AcDbLine
10
210.46135641952603
20
-343.06864881076109
30
0
11
222.68134919165311
21
-330.97634052648903
31
0
0
LWPOLYLINE
5
443
100
AcDbEntity
8
0
100
AcDbPolyline
90
4
70
1
43
0.0
10
195.60038400000002
20
-327.04859599999997
10
205.57058999999998
20
-317.07839000000001
10
215.47008500000004
20
-326.97788500000001
10
205.49987900000002
20
-336.94809099999998
0
LWPOLYLINE
5
444
100
AcDbEntity
8
0
100
AcDbPolyline
90
4
70
1
43
0.0
10
209.35606000000004
20
-305.14785800000004
10
198.55483300000003
20
-314.211163
10
189.55580700000002
20
-303.48654099999999
10
200.357033
20
-294.42323600000003
0
LINE
5
445
100
AcDbEntity
8
0
100
AcDbLine
10
2.2339162174103819
20
-284.43241735307998
30
0
11
32.556467289337924
21
-292.55881264881475
31
0
0
LWPOLYLINE
5
446
100
AcDbEntity
8
0
100
AcDbPolyline
90
4
70
1
43
0.0
10
5.1847949999999994
20
-277.09959200000003
10
8.8082619999999991
20
-263.57663100000002
10
22.427816000000004
20
-267.225979
10
18.804349000000002
20
-280.748941
0
LWPOLYLINE
5
447
100
AcDbEntity
8
0
100
AcDbPolyline
90
4
70
1
43
0.0
10
216.202753
20
-233.24879500000003
10
212.579286
20
-219.72583299999999
10
226.19883999999999
20
-216.07648399999999
10
229.82230700000002
20
-229.599447
0
SPLINE
5
448
100
AcDbEntity
8
0
100
AcDbSpline
70
0
71
3
72
8
73
4
74
0
42
0.000000001
43
0.0000000001
44
0.0000000001
40
0.0014218086220819384
40
0.0014218086220819384
40
0.0014218086220819384
40
0.0014218086220819384
40
0.87591545736249421
40
0.87591545736249421
40
0.87591545736249421
40
0.87591545736249421
10
192.68260630538981
20
-222.80251491196742
30
0
10
190.35187471134157
20
-223.41953591054761
30
0
10
188.82633641434668
20
-225.59794594367051
30
0
10
188.95723177282213
20
-227.92863951430172
30
0
0
SPLINE
5
449
100
AcDbEntity
8
0
100
AcDbSpline
70
0
71
3
72
8
73
4
74
0
42
0.000000001
43
0.0000000001
44
0.0000000001
40
0
40
0
40
0
40
0
40
1
40
1
40
1
40
1
10
192.94766100000004
20
-223.766806
30
0
10
190.80219299999999
20
-224.32947300000001
30
0
10
189.51907399999999
20
-226.524845
30
0
10
190.08172999999999
20
-228.67031600000001
30
0
0
LINE
5
450
100
AcDbEntity
8
0
100
AcDbLine
10
206.27870636072785
20
-219.21474822744571
30
0
11
192.68260630541249
21
-222.80251491196145
31
0
0
SPLINE
5
451
100
AcDbEntity
8
0
100
AcDbSpline
70
0
71
3
72
8
73
4
74
0
42
0.000000001
43
0.0000000001
44
0.0000000001
40
4.3191765187212939e-07
40
4.3191765187212939e-07
40
4.3191765187212939e-07
40
4.3191765187212939e-07
40
0.97789577284151619
40
0.97789577284151619
40
0.97789577284151619
40
0.97789577284151619
10
293.91427562709077
20
-299.92080341049024
30
0
10
294.7901229987138
20
-298.27406147189743
30
0
10
294.95458368891565
20
-296.33865590882363
30
0
10
294.3726481831327
20
-294.57024713852695
30
0
0
SPLINE
5
452
100
AcDbEntity
8
0
100
AcDbSpline
70
0
71
3
72
8
73
4
74
0
42
0.000000001
43
0.0000000001
44
0.0000000001
40
3.2188681243744668e-07
40
3.2188681243744668e-07
40
3.2188681243744668e-07
40
3.2188681243744668e-07
40
0.74599021821778744
40
0.74599021821778744
40
0.74599021821778744
40
0.74599021821778744
10
206.95627438969717
20
-216.40259058127202
30
0
10
206.45563816343207
20
-217.25916127265668
30
0
10
206.2239297568301
20
-218.23841081232189
30
0
10
206.27870636072788
20
-219.21474822744582
30
0
0
SPLINE
5
453
100
AcDbEntity
8
0
100
AcDbSpline
70
0
71
3
72
8
73
4
74
0
42
0.000000001
43
0.0000000001
44
0.0000000001
40
0
40
0
40
0
40
0
40
1
40
1
40
1
40
1
10
-0.75997339819109
20
-276.33903276007567
30
0
10
-1.1110279499740396
20
-277.62183216702988
30
0
10
-0.93797384468721101
20
-278.99264708228577
30
0
10
-0.27912900405672214
20
-280.1479551988582
30
0
0
CIRCLE
5
454
100
AcDbEntity
8
0
100
AcDbCircle
10
24.028677999999999
20
-271.86833899999999
30
0
40
1.2499999999999998
210
0
220
0
230
1
0
SPLINE
5
455
100
AcDbEntity
8
0
100
AcDbSpline
70
0
71
3
72
8
73
4
74
0
42
0.000000001
43
0.0000000001
44
0.0000000001
40
0
40
0
40
0
40
0
40
1
40
1
40
1
40
1
10
0.20456100000000002
20
-276.60299000000003
30
0
10
-0.076589000000000004
20
-277.63034900000002
30
0
10
0.061894000000000012
20
-278.72731600000003
30
0
10
0.58954499999999999
20
-279.65257099999997
30
0
0
LINE
5
456
100
AcDbEntity
8
0
100
AcDbLine
10
204.39028407167771
20
-217.64460733564039
30
0
11
192.17161210769063
21
-220.86889514816909
31
0
0
LINE
5
457
100
AcDbEntity
8
0
100
AcDbLine
10
292.456839565618
20
-295.14754852944134
30
0
11
291.38142220590566
21
-291.14832338065787
31
0
0
SPLINE
5
458
100
AcDbEntity
8
0
100
AcDbSpline
70
0
71
3
72
8
73
4
74
0
42
0.000000001
43
0.0000000001
44
0.0000000001
40
2.0337181068655938e-07
40
2.0337181068655938e-07
40
2.0337181068655938e-07
40
2.0337181068655938e-07
40
0.99037343323609917
40
0.99037343323609917
40
0.99037343323609917
40
0.99037343323609917
10
292.14849522218634
20
-298.98164447716078
30
0
10
292.77644378225602
20
-297.80099498858505
30
0
10
292.88768755126819
20
-296.41230157171805
30
0
10
292.45683956561766
20
-295.14754852944037
30
0
0
SPLINE
5
459
100
AcDbEntity
8
0
100
AcDbSpline
70
0
71
3
72
8
73
4
74
0
42
0.000000001
43
0.0000000001
44
0.0000000001
40
0
40
0
40
0
40
0
40
1
40
1
40
1
40
1
10
207.81962800000002
20
-216.90719000000001
30
0
10
207.28216000000003
20
-217.82677800000002
30
0
10
207.13201300000003
20
-218.922212
30
0
10
207.40221599999998
20
-219.952505
30
0
0
SPLINE
5
460
100
AcDbEntity
8
0
100
AcDbSpline
70
0
71
3
72
8
73
4
74
0
42
0.000000001
43
0.0000000001
44
0.0000000001
40
0
40
0
40
0
40
0
40
1
40
1
40
1
40
1
10
210.26815099999999
20
-215.04898699999998
30
0
10
209.23785600000002
20
-215.319185
30
0
10
208.35709500000002
20
-215.98760099999998
30
0
10
207.81962800000002
20
-216.90719000000001
30
0
0
SPLINE
5
461
100
AcDbEntity
8
0
100
AcDbSpline
70
0
71
3
72
8
73
4
74
0
42
0.000000001
43
0.0000000001
44
0.0000000001
40
0.0013391685962022351
40
0.0013391685962022351
40
0.0013391685962022351
40
0.0013391685962022351
40
1
40
1
40
1
40
1
10
-2.691010271880665
20
-275.81832511839241
30
0
10
-3.1792591927186855
20
-277.60993551962804
30
0
10
-2.9364758037087957
20
-279.52547254714932
30
0
10
-2.0164769733374137
20
-281.13872357442921
30
0
0
SPLINE
5
462
100
AcDbEntity
8
0
100
AcDbSpline
70
0
71
3
72
8
73
4
74
0
42
0.000000001
43
0.0000000001
44
0.0000000001
40
6.9061771034461819e-07
40
6.9061771034461819e-07
40
6.9061771034461819e-07
40
6.9061771034461819e-07
40
0.43777234081827976
40
0.43777234081827976
40
0.43777234081827976
40
0.43777234081827976
10
205.22956720768684
20
-215.39339176637358
30
0
10
204.8187738153652
20
-216.09624505243733
30
0
10
204.53717977331928
20
-216.85867626961411
30
0
10
204.3902840716778
20
-217.64460733564025
30
0
0
SPLINE
5
463
100
AcDbEntity
8
0
100
AcDbSpline
70
0
71
3
72
11
73
7
74
0
42
0.000000001
43
0.0000000001
44
0.0000000001
40
0.0013478745953371919
40
0.0013478745953371919
40
0.0013478745953371919
40
0.0013478745953371919
40
0.57206938516894945
40
0.57206938516894945
40
0.57206938516894945
40
0.72245404660734569
40
0.72245404660734569
40
0.72245404660734569
40
0.72245404660734569
10
192.17161210770661
20
-220.86889514816491
30
0
10
190.05422915499008
20
-221.42919933919839
30
0
10
188.38849514055352
20
-222.92959568071063
30
0
10
187.55567630266771
20
-224.80029757172329
30
0
10
187.33622920516984
20
-225.29322602337629
30
0
10
187.17274764450571
20
-225.81253021535144
30
0
10
187.07093510974263
20
-226.35131636863375
30
0
0
LWPOLYLINE
5
464
100
AcDbEntity
8
0
100
AcDbPolyline
90
4
70
1
43
0.0
10
39.519189000000011
20
-295.78259400000002
10
43.142656000000002
20
-282.25963300000001
10
56.762209999999996
20
-285.90898100000004
10
53.138743000000012
20
-299.43194300000005
0
SPLINE
5
465
100
AcDbEntity
8
0
100
AcDbSpline
70
0
71
3
72
8
73
4
74
0
42
0.000000001
43
0.0000000001
44
0.0000000001
40
0.0029006069594547067
40
0.0029006069594547067
40
0.0029006069594547067
40
0.0029006069594547067
40
1
40
1
40
1
40
1
10
209.49148053187395
20
-212.15124081747234
30
0
10
207.69938772308805
20
-212.6256389058959
30
0
10
206.16521714225655
20
-213.79252438720511
30
0
10
205.22956720768798
20
-215.39339176637444
30
0
0
SPLINE
5
466
100
AcDbEntity
8
0
100
AcDbSpline
70
0
71
3
72
8
73
4
74
0
42
0.000000001
43
0.0000000001
44
0.0000000001
40
0
40
0
40
0
40
0
40
1
40
1
40
1
40
1
10
288.850076
20
-300.42337700000002
30
0
10
289.88664700000004
20
-300.15117900000001
30
0
10
290.76235000000003
20
-299.45827100000002
30
0
10
291.26560499999999
20
-298.51206500000001
30
0
0
SPLINE
5
467
100
AcDbEntity
8
0
100
AcDbSpline
70
0
71
3
72
8
73
4
74
0
42
0.000000001
43
0.0000000001
44
0.0000000001
40
0.56517574929805059
40
0.56517574929805059
40
0.56517574929805059
40
0.56517574929805059
40
1
40
1
40
1
40
1
10
105.03060780901039
20
-208.66235430493759
30
0
10
104.90579076948418
20
-207.86126326465921
30
0
10
104.64201182189672
20
-207.07999581679707
30
0
10
104.24377518703643
20
-206.35628190247621
30
0
0
LWPOLYLINE
5
468
100
AcDbEntity
8
0
100
AcDbPolyline
90
4
70
1
43
0.0
10
95.288979000000012
20
-234.467625
10
108.90853300000002
20
-238.11697299999997
10
105.285066
20
-251.63993500000001
10
91.665511999999993
20
-247.99058600000001
0
SPLINE
5
469
100
AcDbEntity
8
0
100
AcDbSpline
70
0
71
3
72
11
73
7
74
0
42
0.000000001
43
0.0000000001
44
0.0000000001
40
2.0440434394761854e-07
40
2.0440434394761854e-07
40
2.0440434394761854e-07
40
2.0440434394761854e-07
40
1
40
1
40
1
40
1.0008254914579342
40
1.0008254914579342
40
1.0008254914579342
40
1.0008254914579342
10
-0.27912900405697183
20
-280.14795519885831
30
0
10
0.37971499756684157
20
-281.30326359738802
30
0
10
1.4713956820334042
20
-282.1502069810179
30
0
10
2.7541945069483056
20
-282.50125887624353
30
0
10
2.7550425830278993
20
-282.5014909615162
30
0
10
2.7558906591072252
20
-282.50172304678875
30
0
10
2.7567387351806296
20
-282.50195513205972
30
0
0
SPLINE
5
470
100
AcDbEntity
8
0
100
AcDbSpline
70
0
71
3
72
8
73
4
74
0
42
0.000000001
43
0.0000000001
44
0.0000000001
40
0
40
0
40
0
40
0
40
1
40
1
40
1
40
1
10
35.241709
20
-298.62182200000001
30
0
10
35.769359999999999
20
-299.54707500000001
30
0
10
36.642955999999998
20
-300.22482200000002
30
0
10
37.670315000000002
20
-300.505966
30
0
0
SPLINE
5
471
100
AcDbEntity
8
0
100
AcDbSpline
70
0
71
3
72
8
73
4
74
0
42
0.000000001
43
0.0000000001
44
0.0000000001
40
0.001253331193582305
40
0.001253331193582305
40
0.001253331193582305
40
0.001253331193582305
40
1
40
1
40
1
40
1
10
210.00964011655662
20
-214.08296827440336
30
0
10
208.72525239730433
20
-214.42117009155288
30
0
10
207.62653520613708
20
-215.25579557073462
30
0
10
206.95627438969768
20
-216.40259058127239
30
0
0
LINE
5
472
100
AcDbEntity
8
0
100
AcDbLine
10
220.73901300000003
20
-328.67784800000004
30
0
11
236.091928
21
-317.64577100000002
31
0
0
SPLINE
5
473
100
AcDbEntity
8
0
100
AcDbSpline
70
0
71
3
72
11
73
7
74
0
42
0.000000001
43
0.0000000001
44
0.0000000001
40
-0.038647886171760605
40
-0.038647886171760605
40
-0.038647886171760605
40
-0.038647886171760605
40
0
40
0
40
0
40
0.98426537008331816
40
0.98426537008331816
40
0.98426537008331816
40
0.98426537008331816
10
205.5007350146459
20
-345.4374499969008
30
0
10
205.54422853413746
20
-345.43364491926781
30
0
10
205.58772205362956
20
-345.42983984163476
30
0
10
205.63121557312161
20
-345.42603476400177
30
0
10
207.47749875475517
20
-345.26451068131684
30
0
10
209.19948963040625
20
-344.42328657003918
30
0
10
210.46135641952947
20
-343.0686488107574
30
0
0
LWPOLYLINE
5
474
100
AcDbEntity
8
0
100
AcDbPolyline
90
4
70
1
43
0.0
10
149.53229199999998
20
-296.72672
10
176.93229200000002
20
-296.72672
10
176.93229200000002
20
-267.44672000000003
10
149.53229199999998
20
-267.44672000000003
0
CIRCLE
5
475
100
AcDbEntity
8
0
100
AcDbCircle
10
178.56025900000003
20
-337.62403999999998
30
0
40
1.7500000000000091
210
0
220
0
230
1
0
LWPOLYLINE
5
476
100
AcDbEntity
8
0
100
AcDbPolyline
90
4
70
1
43
0.0
10
126.30014500000001
20
-265.55311699999999
10
129.92361200000002
20
-252.03015600000001
10
143.54316599999999
20
-255.67950400000001
10
139.91969900000001
20
-269.20246599999996
0
CIRCLE
5
477
100
AcDbEntity
8
0
100
AcDbCircle
10
206.96913100000003
20
-296.54021599999999
30
0
40
1.2500000000000053
210
0
220
0
230
1
0
LINE
5
478
100
AcDbEntity
8
0
100
AcDbLine
10
133.78147864250249
20
-222.82441689099477
30
0
11
120.3926974687466
21
-219.11125505689466
31
0
0
CIRCLE
5
479
100
AcDbEntity
8
0
100
AcDbCircle
10
163.208494
20
-336.157871
30
0
40
1.2499999999999969
210
0
220
0
230
1
0
LINE
5
480
100
AcDbEntity
8
0
100
AcDbLine
10
18.133913649617597
20
-206.09259970898248
30
0
11
-0.75997339819108944
21
-276.33903276007567
31
0
0
LWPOLYLINE
5
481
100
AcDbEntity
8
0
100
AcDbPolyline
90
4
70
1
43
0.0
10
48.748682000000009
20
-261.33768199999997
10
62.368236000000003
20
-264.98703
10
58.744768999999991
20
-278.50999200000001
10
45.125215000000011
20
-274.86064300000004
0
LINE
5
482
100
AcDbEntity
8
0
100
AcDbLine
10
329.01293868527517
20
-275.97265144768352
30
0
11
310.1819758271813
21
-205.74584255490706
31
0
0
LWPOLYLINE
5
483
100
AcDbEntity
8
0
100
AcDbPolyline
90
4
70
1
43
0.0
10
122.602379
20
-260.421201
10
108.98282500000001
20
-256.77185200000002
10
112.606292
20
-243.24889100000001
10
126.22584599999999
20
-246.89823899999999
0
LWPOLYLINE
5
484
100
AcDbEntity
8
0
100
AcDbPolyline
90
4
70
1
43
0.0
10
277.65670299999999
20
-261.29912899999999
10
281.28017
20
-274.822092
10
267.660616
20
-278.47144000000003
10
264.037149
20
-264.94847800000002
0
LWPOLYLINE
5
485
100
AcDbEntity
8
0
100
AcDbPolyline
90
4
70
1
43
0.0
10
138.62561100000002
20
-274.03209900000002
10
135.00214399999999
20
-287.55506099999997
10
121.38258999999999
20
-283.90571199999999
10
125.00605700000001
20
-270.38275099999998
0
LWPOLYLINE
5
486
100
AcDbEntity
8
0
100
AcDbPolyline
90
4
70
1
43
0.0
10
116.86923600000001
20
-305.12276399999996
10
125.86826200000003
20
-294.39814200000001
10
136.669489
20
-303.46144700000002
10
127.67046200000003
20
-314.18606899999997
0
LWPOLYLINE
5
487
100
AcDbEntity
8
0
100
AcDbPolyline
90
4
70
1
43
0.0
10
205.02279400000003
20
-283.86715700000002
10
191.40323999999998
20
-287.51650500000005
10
187.77977300000001
20
-273.99354299999999
10
201.39932700000003
20
-270.34419399999996
0
LINE
5
488
100
AcDbEntity
8
0
100
AcDbLine
10
270.23780384557085
20
-211.42780531390042
30
0
11
302.11991522229567
21
-202.68414399845614
31
0
0
LINE
5
489
100
AcDbEntity
8
0
100
AcDbLine
10
37.414142347247775
20
-301.47263070511553
30
0
11
72.391075138533111
21
-310.44048339178602
31
0
0
LINE
5
490
100
AcDbEntity
8
0
100
AcDbLine
10
254.49989386055208
20
-312.33109756335114
30
0
11
289.60373473741237
21
-303.32718002643401
31
0
0
LWPOLYLINE
5
491
100
AcDbEntity
8
0
100
AcDbPolyline
90
4
70
1
43
0.0
10
236.400611
20
-312.347782
10
230.48395600000003
20
-299.65947299999999
10
243.26289500000001
20
-293.70055600000001
10
249.179551
20
-306.38886500000001
0
LINE
5
492
100
AcDbEntity
8
0
100
AcDbLine
10
326.11316600000004
20
-276.741668
30
0
11
307.28249700000003
21
-206.51595499999999
31
0
0
LWPOLYLINE
5
493
100
AcDbEntity
8
0
100
AcDbPolyline
90
4
70
1
43
0.0
10
117.52385100000001
20
-224.89630399999999
10
131.143405
20
-228.54565199999999
10
127.519938
20
-242.06861400000003
10
113.90038400000002
20
-238.419265
0
LWPOLYLINE
5
494
100
AcDbEntity
8
0
100
AcDbPolyline
90
4
70
1
43
0.0
10
244.574983
20
-284.657218
10
230.95542900000001
20
-288.30656600000003
10
227.33196200000003
20
-274.78360399999997
10
240.95151600000005
20
-271.134255
0
LWPOLYLINE
5
495
100
AcDbEntity
8
0
100
AcDbPolyline
90
4
70
1
43
0.0
10
268.53359499999999
20
-300.661609
10
254.91404100000005
20
-304.31095700000003
10
251.29057400000005
20
-290.78799500000002
10
264.91012799999999
20
-287.13864599999999
0
CIRCLE
5
496
100
AcDbEntity
8
0
100
AcDbCircle
10
132.005427
20
-235.00838999999999
30
0
40
1.2499999999999987
210
0
220
0
230
1
0
LWPOLYLINE
5
497
100
AcDbEntity
8
0
100
AcDbPolyline
90
4
70
1
43
0.0
10
288.11531300000001
20
-226.92083400000001
10
274.49575900000002
20
-230.57018200000002
10
270.87229200000002
20
-217.04722000000001
10
284.49184600000001
20
-213.39787099999998
0
LINE
5
498
100
AcDbEntity
8
0
100
AcDbLine
10
253.48172400000004
20
-309.49513999999999
30
0
11
288.850076
21
-300.42337700000002
31
0
0
LWPOLYLINE
5
499
100
AcDbEntity
8
0
100
AcDbPolyline
90
4
70
1
43
0.0
10
222.41440499999999
20
-256.431014
10
236.03395899999998
20
-252.781665
10
239.65742599999999
20
-266.30462799999998
10
226.03787200000002
20
-269.95397600000001
0
LINE
5
500
100
AcDbEntity
8
0
100
AcDbLine
10
134.31500046416721
20
-220.8968851172869
30
0
11
122.29892584563692
21
-217.56442666495784
31
0
0
LINE
5
501
100
AcDbEntity
8
0
100
AcDbLine
10
133.51752400000004
20
-223.78895199999999
30
0
11
119.26076500000001
21
-219.83507700000001
31
0
0
LWPOLYLINE
5
502
100
AcDbEntity
8
0
100
AcDbPolyline
90
4
70
1
43
0.0
10
302.68347
20
-262.35779600000001
10
299.06000300000005
20
-248.834834
10
312.67955700000005
20
-245.18548500000003
10
316.30302400000005
20
-258.70844799999998
0
LWPOLYLINE
5
503
100
AcDbEntity
8
0
100
AcDbPolyline
90
4
70
1
43
0.0
10
293.03287400000005
20
-245.27342199999998
10
279.41332
20
-248.92277000000001
10
275.78985299999999
20
-235.39980800000001
10
289.40940699999999
20
-231.75045900000001
0
LINE
5
504
100
AcDbEntity
8
0
100
AcDbLine
10
243.25304500000001
20
-202.04737
30
0
11
227.61656700000003
21
-206.200377
31
0
0
LINE
5
505
100
AcDbEntity
8
0
100
AcDbLine
10
327.0797569095289
20
-276.48532914553692
30
0
11
308.24904912391946
21
-206.25947150133342
31
0
0
LINE
5
506
100
AcDbEntity
8
0
100
AcDbLine
10
16.203688991978616
20
-205.56890913871879
30
0
11
-2.6910102717954087
21
-275.81832511809108
31
0
0
LWPOLYLINE
5
507
100
AcDbEntity
8
0
100
AcDbPolyline
90
4
70
1
43
0.0
10
210.01465499999998
20
-283.564864
10
223.634209
20
-279.91551500000003
10
227.25767599999998
20
-293.43847799999998
10
213.63812200000001
20
-297.08782600000001
0
LWPOLYLINE
5
508
100
AcDbEntity
8
0
100
AcDbPolyline
90
4
70
1
43
0.0
10
91.591219000000009
20
-229.335712
10
87.967752000000004
20
-242.85867400000001
10
74.348197999999996
20
-239.20932499999998
10
77.971665000000002
20
-225.686364
0
LINE
5
509
100
AcDbEntity
8
0
100
AcDbLine
10
152.23349894629467
20
-231.80937399668321
30
0
11
137.46409490526037
21
-227.98317642647947
31
0
0
SPLINE
5
510
100
AcDbEntity
8
0
100
AcDbSpline
70
0
71
3
72
11
73
7
74
0
42
0.000000001
43
0.0000000001
44
0.0000000001
40
0.00081375820617212281
40
0.00081375820617212281
40
0.00081375820617212281
40
0.00081375820617212281
40
0.57206546332694053
40
0.57206546332694053
40
0.57206546332694053
40
0.72538150288731829
40
0.72538150288731829
40
0.72538150288731829
40
0.72538150288731829
10
226.84647190143767
20
-203.30089354943524
30
0
10
224.72626422636711
20
-203.85992088803448
30
0
10
223.05820483835629
20
-205.36138835604964
30
0
10
222.2246010224801
20
-207.23382296881991
30
0
10
222.00087331284374
20
-207.736358465156
30
0
10
221.83529902885812
20
-208.2663608282877
30
0
10
221.73397703682582
20
-208.8163163007589
30
0
0
LWPOLYLINE
5
511
100
AcDbEntity
8
0
100
AcDbPolyline
90
4
70
1
43
0.0
10
71.491337000000001
20
-304.34950900000001
10
57.871783000000001
20
-300.70016000000004
10
61.495250000000006
20
-287.17719899999997
10
75.114804000000007
20
-290.82654700000001
0
SPLINE
5
512
100
AcDbEntity
8
0
100
AcDbSpline
70
0
71
3
72
8
73
4
74
0
42
0.000000001
43
0.0000000001
44
0.0000000001
40
0
40
0
40
0
40
0
40
0.87733807505350425
40
0.87733807505350425
40
0.87733807505350425
40
0.87733807505350425
10
227.36288992854162
20
-205.23308801876505
30
0
10
225.02195144205064
20
-205.84701253484823
30
0
10
223.49008764174388
20
-208.03481217327516
30
0
10
223.62679287454714
20
-210.37357970630376
30
0
0
LINE
5
513
100
AcDbEntity
8
0
100
AcDbLine
10
242.48748422754147
20
-199.14669099447835
30
0
11
226.84647407228067
21
-203.300901722872
31
0
0
LWPOLYLINE
5
514
100
AcDbEntity
8
0
100
AcDbPolyline
90
4
70
1
43
0.0
10
247.139613
20
-220.81818599999997
10
233.52005899999997
20
-224.467534
10
229.89659200000003
20
-210.94457199999999
10
243.51614600000002
20
-207.29522299999999
0
LINE
5
515
100
AcDbEntity
8
0
100
AcDbLine
10
158.79840799999999
20
-237.020048
30
0
11
158.79840865551574
21
-229.80937460839431
31
0
0
LWPOLYLINE
5
516
100
AcDbEntity
8
0
100
AcDbPolyline
90
4
70
1
43
0.0
10
258.26882699999999
20
-262.35298800000004
10
261.89229399999999
20
-275.87595099999999
10
248.27274000000003
20
-279.52529900000002
10
244.64927299999999
20
-266.00233700000001
0
LWPOLYLINE
5
517
100
AcDbEntity
8
0
100
AcDbPolyline
90
4
70
1
43
0.0
10
81.756101000000001
20
-266.04088899999999
10
78.132633999999996
20
-279.563851
10
64.513080000000002
20
-275.91450200000003
10
68.136546999999993
20
-262.39154100000002
0
LINE
5
518
100
AcDbEntity
8
0
100
AcDbLine
10
152.48835483318757
20
-229.80937403475306
30
0
11
139.36153719123115
21
-226.40870887408596
31
0
0
LINE
5
519
100
AcDbEntity
8
0
100
AcDbLine
10
158.79840799999999
20
-237.020048
30
0
11
167.29840800000002
21
-237.020048
31
0
0
SPLINE
5
520
100
AcDbEntity
8
0
100
AcDbSpline
70
0
71
3
72
11
73
7
74
0
42
0.000000001
43
0.0000000001
44
0.0000000001
40
0.28007099586041451
40
0.28007099586041451
40
0.28007099586041451
40
0.28007099586041451
40
0.57206430796923946
40
0.57206430796923946
40
0.57206430796923946
40
0.99949471446101357
40
0.99949471446101357
40
0.99949471446101357
40
0.99949471446101357
10
139.36153719123121
20
-226.40870887408607
30
0
10
139.17118463507944
20
-225.36301627774603
30
0
10
138.74793483078889
20
-224.38393203645703
30
0
10
138.13211957289434
20
-223.53637777327236
30
0
10
137.23066685089637
20
-222.29569708568926
30
0
10
135.89727037760889
20
-221.33128267013132
30
0
10
134.31500046376391
20
-220.89688511717614
30
0
0
LWPOLYLINE
5
521
100
AcDbEntity
8
0
100
AcDbPolyline
90
4
70
1
43
0.0
10
238.43762599999997
20
-242.82011699999998
10
234.81415900000002
20
-229.297155
10
248.43371300000001
20
-225.647806
10
252.05718000000002
20
-239.17076900000001
0
LINE
5
522
100
AcDbEntity
8
0
100
AcDbLine
10
173.7237546105176
20
-229.80937596524396
30
0
11
152.48835483318757
21
-229.80937403475306
31
0
0
LINE
5
523
100
AcDbEntity
8
0
100
AcDbLine
10
269.53222099999999
20
-212.65823600000002
30
0
11
302.37900299999995
21
-203.650014
31
0
0
LINE
5
524
100
AcDbEntity
8
0
100
AcDbLine
10
37.670315000000002
20
-300.505966
30
0
11
72.73042199999999
21
-309.49514399999998
31
0
0
LINE
5
525
100
AcDbEntity
8
0
100
AcDbLine
10
271.6489695051705
20
-208.96694399670579
30
0
11
301.60173967814603
21
-200.75240403863091
31
0
0
LINE
5
526
100
AcDbEntity
8
0
100
AcDbLine
10
54.068757042836964
20
-208.46257342590437
30
0
11
24.814776150389246
21
-200.6445540228512
31
0
0
LINE
5
527
100
AcDbEntity
8
0
100
AcDbLine
10
56.19059
20
-212.13490899999999
30
0
11
24.032743
21
-203.540842
31
0
0
LINE
5
528
100
AcDbEntity
8
0
100
AcDbLine
10
224.75064000000003
20
-211.10387599999999
30
0
11
210.26815099999999
21
-215.04898699999998
31
0
0
CIRCLE
5
529
100
AcDbEntity
8
0
100
AcDbCircle
10
76.923347000000007
20
-298.02747700000003
30
0
40
1.2499999999999987
210
0
220
0
230
1
0
LINE
5
530
100
AcDbEntity
8
0
100
AcDbLine
10
174.10607099999999
20
-232.80937600000001
30
0
11
152.10607099999999
21
-232.80937399999999
31
0
0
CIRCLE
5
531
100
AcDbEntity
8
0
100
AcDbCircle
10
87.489848000000009
20
-254.01091600000001
30
0
40
1.2499999999999936
210
0
220
0
230
1
0
CIRCLE
5
532
100
AcDbEntity
8
0
100
AcDbCircle
10
249.55066700000003
20
-298.25552199999998
30
0
40
1.2499999999999925
210
0
220
0
230
1
0
SPLINE
5
533
100
AcDbEntity
8
0
100
AcDbSpline
70
0
71
3
72
14
73
10
74
0
42
0.000000001
43
0.0000000001
44
0.0000000001
40
-0.0055265304045365986
40
-0.0055265304045365986
40
-0.0055265304045365986
40
-0.0055265304045365986
40
0
40
0
40
0
40
0.59505497316066047
40
0.59505497316066047
40
0.59505497316066047
40
0.70991704830620828
40
0.70991704830620828
40
0.70991704830620828
40
0.70991704830620828
10
83.637215511202939
20
-198.60646057501543
30
0
10
83.626148026155647
20
-198.60376999474249
30
0
10
83.615080541102202
20
-198.6010794144681
30
0
10
83.604013056048785
20
-198.59838883419371
30
0
10
81.492451250452049
20
-198.08505391529729
30
0
10
79.327551137771252
20
-198.62759972393127
30
0
10
77.736753113964355
20
-199.90189626013714
30
0
10
77.429685077575442
20
-200.1478707517407
30
0
10
77.143177078662077
20
-200.42083487202856
30
0
10
76.880046957071698
20
-200.72011348690592
30
0
0
LINE
5
534
100
AcDbEntity
8
0
100
AcDbLine
10
236.091928
20
-317.64577100000002
30
0
11
253.48172400000004
21
-309.49513999999999
31
0
0
LINE
5
535
100
AcDbEntity
8
0
100
AcDbLine
10
236.60022221506537
20
-318.51192445035781
30
0
11
253.8211139585747
21
-310.44045920187006
31
0
0
LINE
5
536
100
AcDbEntity
8
0
100
AcDbLine
10
120.79873594830491
20
-343.43745201593413
30
0
11
205.41341567220204
21
-343.43745001386776
31
0
0
SPLINE
5
537
100
AcDbEntity
8
0
100
AcDbSpline
70
0
71
3
72
14
73
10
74
0
42
0.000000001
43
0.0000000001
44
0.0000000001
40
0.28017691958707397
40
0.28017691958707397
40
0.28017691958707397
40
0.28017691958707397
40
0.57206926255691581
40
0.57206926255691581
40
0.57206926255691581
40
1
40
1
40
1
40
1.0007047255106822
40
1.0007047255106822
40
1.0007047255106822
40
1.0007047255106822
10
249.62322666619281
20
-201.39324715371512
30
0
10
248.93564157002396
20
-200.58323349990459
30
0
10
248.07981664275147
20
-199.94725276860436
30
0
10
247.12305746884439
20
-199.52131340623086
30
0
10
245.72039423115953
20
-198.89686213220295
30
0
10
244.08124648217509
20
-198.7287214358027
30
0
10
242.4920201245574
20
-199.14550144009633
30
0
10
242.49050815922772
20
-199.1458979581339
30
0
10
242.48899619389908
20
-199.14629447617125
30
0
10
242.4874842285877
20
-199.14669099420399
30
0
0
LINE
5
538
100
AcDbEntity
8
0
100
AcDbLine
10
72.73042199999999
20
-309.49514399999998
30
0
11
90.120218000000008
21
-317.64577299999996
31
0
0
SPLINE
5
539
100
AcDbEntity
8
0
100
AcDbSpline
70
0
71
3
72
8
73
4
74
0
42
0.000000001
43
0.0000000001
44
0.0000000001
40
0
40
0
40
0
40
0
40
1
40
1
40
1
40
1
10
82.895333999999991
20
-201.51348299999998
30
0
10
80.892724000000001
20
-201.026635
30
0
10
78.866156000000004
20
-202.22111900000002
30
0
10
78.322160999999994
20
-204.20896599999998
30
0
0
SPLINE
5
540
100
AcDbEntity
8
0
100
AcDbSpline
70
0
71
3
72
8
73
4
74
0
42
0.000000001
43
0.0000000001
44
0.0000000001
40
0
40
0
40
0
40
0
40
1
40
1
40
1
40
1
10
248.15654800000002
20
-204.91329100000002
30
0
10
247.59388000000001
20
-202.76782800000001
30
0
10
245.39851200000001
20
-201.484714
30
0
10
243.25304500000001
20
-202.04737
30
0
0
LWPOLYLINE
5
541
100
AcDbEntity
8
0
100
AcDbPolyline
90
4
70
1
43
0.0
10
239.73170800000003
20
-247.64974699999999
10
253.35126200000005
20
-244.00039800000002
10
256.97472900000002
20
-257.52336100000002
10
243.35517500000003
20
-261.172709
0
SPLINE
5
542
100
AcDbEntity
8
0
100
AcDbSpline
70
0
71
3
72
11
73
7
74
0
42
0.000000001
43
0.0000000001
44
0.0000000001
40
-0.0018421768274563951
40
-0.0018421768274563951
40
-0.0018421768274563951
40
-0.0018421768274563951
40
0
40
0
40
0
40
0.86898144734841276
40
0.86898144734841276
40
0.86898144734841276
40
0.86898144734841276
10
83.142627840746769
20
-200.54447551056438
30
0
10
83.138938679009271
20
-200.54357865046003
30
0
10
83.135249517272825
20
-200.54268179035597
30
0
10
83.131560355536394
20
-200.54178493025182
30
0
10
80.943541674778004
20
-200.00986282924873
30
0
10
78.714554451636047
20
-201.07659442047344
30
0
10
77.719460764949545
20
-203.01351308373165
30
0
0
LINE
5
543
100
AcDbEntity
8
0
100
AcDbLine
10
72.391075138533111
20
-310.44048339178602
30
0
11
89.611923756134246
21
-318.51192644650786
31
0
0
LWPOLYLINE
5
544
100
AcDbEntity
8
0
100
AcDbPolyline
90
4
70
1
43
0.0
10
77.033523000000002
20
-306.32950600000004
10
82.950178000000022
20
-293.64119699999998
10
95.729118
20
-299.60011399999996
10
89.812461999999996
20
-312.28842300000002
0
LINE
5
545
100
AcDbEntity
8
0
100
AcDbLine
10
71.712381430769327
20
-312.33116213309808
30
0
11
88.595335291125323
21
-320.24423330080356
31
0
0
SPLINE
5
546
100
AcDbEntity
8
0
100
AcDbSpline
70
0
71
3
72
14
73
10
74
0
42
0.000000001
43
0.0000000001
44
0.0000000001
40
0.12536650206719605
40
0.12536650206719605
40
0.12536650206719605
40
0.12536650206719605
40
0.88449756641004385
40
0.88449756641004385
40
0.88449756641004385
40
1
40
1
40
1
40
1.000234908558012
40
1.000234908558012
40
1.000234908558012
40
1.000234908558012
10
248.76779633679098
20
-203.70600702588496
30
0
10
247.87319743260201
20
-201.89542995118296
30
0
10
245.95176346610756
20
-200.78542611372467
30
0
10
243.92605169802567
20
-200.92720267097616
30
0
10
243.61783793895916
20
-200.94877409409096
30
0
10
243.30755673838411
20
-200.99925745774266
30
0
10
242.99937003773908
20
-201.08008046561838
30
0
10
242.99886604918271
20
-201.08021263832725
30
0
10
242.9983620606254
20
-201.08034481103635
30
0
10
242.99785807205632
20
-201.08047698374861
30
0
0
LINE
5
547
100
AcDbEntity
8
0
100
AcDbLine
10
19.099026000000002
20
-206.354445
30
0
11
0.20456100000000088
21
-276.60299000000003
31
0
0
LINE
5
548
100
AcDbEntity
8
0
100
AcDbLine
10
237.61681062247359
20
-320.24423131235324
30
0
11
254.49989386055208
21
-312.33109756335114
31
0
0
SPLINE
5
549
100
AcDbEntity
8
0
100
AcDbSpline
70
0
71
3
72
8
73
4
74
0
42
0.000000001
43
0.0000000001
44
0.0000000001
40
0
40
0
40
0
40
0
40
1
40
1
40
1
40
1
10
101.937377
20
-210.92533299999999
30
0
10
102.256826
20
-209.883713
30
0
10
102.14067400000002
20
-208.75711200000001
30
0
10
101.61542500000002
20
-207.80257899999998
30
0
0
LWPOLYLINE
5
550
100
AcDbEntity
8
0
100
AcDbPolyline
90
4
70
1
43
0.0
10
297.76590699999997
20
-244.00520200000003
10
294.14243999999997
20
-230.48224000000002
10
307.76199400000002
20
-226.83289099999999
10
311.38546099999996
20
-240.35585400000002
0
SPLINE
5
551
100
AcDbEntity
8
0
100
AcDbSpline
70
0
71
3
72
8
73
4
74
0
42
0.000000001
43
0.0000000001
44
0.0000000001
40
0
40
0
40
0
40
0
40
1
40
1
40
1
40
1
10
136.33112
20
-228.72267700000003
30
0
10
136.91657700000002
20
-226.583313
30
0
10
135.65688700000004
20
-224.37441000000001
30
0
10
133.51752400000004
20
-223.78895199999999
30
0
0
LWPOLYLINE
5
552
100
AcDbEntity
8
0
100
AcDbPolyline
90
4
70
1
43
0.0
10
58.583800000000004
20
-224.63250399999998
10
72.203354000000004
20
-228.28185200000001
10
68.579886999999999
20
-241.80481400000002
10
54.960333000000006
20
-238.15546499999999
0
LINE
5
553
100
AcDbEntity
8
0
100
AcDbLine
10
90.120218000000008
20
-317.64577299999996
30
0
11
105.47313100000002
21
-328.67785200000003
31
0
0
LINE
5
554
100
AcDbEntity
8
0
100
AcDbLine
10
76.88004695707167
20
-200.72011348690594
30
0
11
63.544669220904083
21
-197.16730131607864
31
0
0
SPLINE
5
555
100
AcDbEntity
8
0
100
AcDbSpline
70
0
71
3
72
14
73
10
74
0
42
0.000000001
43
0.0000000001
44
0.0000000001
40
0.0003806215843613901
40
0.0003806215843613901
40
0.0003806215843613901
40
0.0003806215843613901
40
0.88449648652521129
40
0.88449648652521129
40
0.88449648652521129
40
1
40
1
40
1
40
1.0003284138200328
40
1.0003284138200328
40
1.0003284138200328
40
1.0003284138200328
10
24.293656959290768
20
-202.57547579380102
30
0
10
21.941272281873005
20
-201.93328901304753
30
0
10
19.502055765606773
20
-203.08579712058975
30
0
10
18.465437534202831
20
-205.21151279188109
30
0
10
18.330010660184247
20
-205.48922257904684
30
0
10
18.218589127267336
20
-205.78317915806693
30
0
10
18.134490463271895
20
-206.09049192047456
30
0
10
18.134298192087243
20
-206.09119451652165
30
0
10
18.134105920902606
20
-206.09189711256863
30
0
10
18.133913649715407
20
-206.09259970862496
30
0
0
LINE
5
556
100
AcDbEntity
8
0
100
AcDbLine
10
56.119707629943328
20
-200.8082844682875
30
0
11
54.068757042836964
21
-208.46257342590437
31
0
0
SPLINE
5
557
100
AcDbEntity
8
0
100
AcDbSpline
70
0
71
3
72
8
73
4
74
0
42
0.000000001
43
0.0000000001
44
0.0000000001
40
0
40
0
40
0
40
0
40
1
40
1
40
1
40
1
10
101.61542500000002
20
-207.80257899999998
30
0
10
101.090175
20
-206.84804600000001
30
0
10
100.20063700000001
20
-206.14701499999998
30
0
10
99.149772000000013
20
-205.85943600000002
30
0
0
LINE
5
558
100
AcDbEntity
8
0
100
AcDbLine
10
262.28115000005482
20
-199.95799816456849
30
0
11
248.76779633679098
21
-203.70600702588501
31
0
0
SPLINE
5
559
100
AcDbEntity
8
0
100
AcDbSpline
70
0
71
3
72
11
73
7
74
0
42
0.000000001
43
0.0000000001
44
0.0000000001
40
0.12335298049406272
40
0.12335298049406272
40
0.12335298049406272
40
0.12335298049406272
40
0.88449960801202432
40
0.88449960801202432
40
0.88449960801202432
40
1
40
1
40
1
40
1
10
120.39269746874663
20
-219.11125505689461
30
0
10
120.53017845372744
20
-217.09011979669026
30
0
10
119.42014422966771
20
-215.16019144635965
30
0
10
117.59008790181333
20
-214.26775348424795
30
0
10
117.31238553069922
20
-214.13233025471203
30
0
10
117.01843726825253
20
-214.02091099095884
30
0
10
116.71113345715723
20
-213.93681293492114
30
0
0
LINE
5
560
100
AcDbEntity
8
0
100
AcDbLine
10
104.82568570544964
20
-329.44401625331136
30
0
11
117.1887291456616
21
-341.677870606363
31
0
0
LINE
5
561
100
AcDbEntity
8
0
100
AcDbLine
10
221.73397703682585
20
-208.81631630075915
30
0
11
209.49148053197763
21
-212.15124081744537
31
0
0
LINE
5
562
100
AcDbEntity
8
0
100
AcDbLine
10
78.322160999999994
20
-204.20896599999998
30
0
11
62.928797000000003
21
-200.10786499999998
31
0
0
LINE
5
563
100
AcDbEntity
8
0
100
AcDbLine
10
152.10607099999999
20
-232.80937399999999
30
0
11
136.33112
21
-228.72267700000003
31
0
0
LINE
5
564
100
AcDbEntity
8
0
100
AcDbLine
10
89.611923756134246
20
-318.51192644650786
30
0
11
104.82568570544964
21
-329.44401625331136
31
0
0
SPLINE
5
565
100
AcDbEntity
8
0
100
AcDbSpline
70
0
71
3
72
8
73
4
74
0
42
0.000000001
43
0.0000000001
44
0.0000000001
40
0
40
0
40
0
40
0
40
1
40
1
40
1
40
1
10
323.24722900000006
20
-281.64518399999997
30
0
10
324.27752400000003
20
-281.37498600000004
30
0
10
325.15828399999998
20
-280.706571
30
0
10
325.69575200000003
20
-279.78698299999996
30
0
0
SPLINE
5
566
100
AcDbEntity
8
0
100
AcDbSpline
70
0
71
3
72
14
73
10
74
0
42
0.000000001
43
0.0000000001
44
0.0000000001
40
-0.011123299832671352
40
-0.011123299832671352
40
-0.011123299832671352
40
-0.011123299832671352
40
0
40
0
40
0
40
1
40
1
40
1
40
1.0290157703112766
40
1.0290157703112766
40
1.0290157703112766
40
1.0290157703112766
10
63.13408774336019
20
-199.12767709075356
30
0
10
63.116307137454548
20
-199.12494360655953
30
0
10
63.098526531548714
20
-199.12221012236543
30
0
10
63.080745925642887
20
-199.11947663817134
30
0
10
61.084024021737562
20
-198.81251253395538
30
0
10
59.092529487613739
20
-199.74610324798473
30
0
10
58.051250617950949
20
-201.47724815246266
30
0
10
58.027062810677528
20
-201.51746081837933
30
0
10
58.002875003404107
20
-201.55767348429603
30
0
10
57.978687196130579
20
-201.5978861502129
30
0
0
LINE
5
567
100
AcDbEntity
8
0
100
AcDbLine
10
2.7567387353279171
20
-282.50195513210008
30
0
11
35.004422411540624
21
-291.14428289347734
31
0
0
LINE
5
568
100
AcDbEntity
8
0
100
AcDbLine
10
269.53222099999999
20
-212.65823600000002
30
0
11
266.814617
21
-202.51601699999998
31
0
0
SPLINE
5
569
100
AcDbEntity
8
0
100
AcDbSpline
70
0
71
3
72
14
73
10
74
0
42
0.000000001
43
0.0000000001
44
0.0000000001
40
-0.10234089932694618
40
-0.10234089932694618
40
-0.10234089932694618
40
-0.10234089932694618
40
0
40
0
40
0
40
1
40
1
40
1
40
1.0042086522636646
40
1.0042086522636646
40
1.0042086522636646
40
1.0042086522636646
10
269.5795002393113
20
-201.24359265187692
30
0
10
269.4827432641336
20
-201.1024127672103
30
0
10
269.38598628895573
20
-200.96123288254333
30
0
10
269.28922931377781
20
-200.8200529978763
30
0
10
267.63381652236637
20
-198.40460970256885
30
0
10
264.61308922449678
20
-197.27880354603758
30
0
10
261.78060684539923
20
-198.02163403781421
30
0
10
261.77379856755425
20
-198.02341953749357
30
0
10
261.76699028970904
20
-198.02520503717295
30
0
10
261.76018201186861
20
-198.0269905368512
30
0
0
LWPOLYLINE
5
570
100
AcDbEntity
8
0
100
AcDbPolyline
90
4
70
1
43
0.0
10
144.837256
20
-250.84988500000003
10
131.217702
20
-247.200536
10
134.84116900000001
20
-233.67757499999999
10
148.460723
20
-237.32692299999999
0
LINE
5
571
100
AcDbEntity
8
0
100
AcDbLine
10
262.54163399999999
20
-200.92350199999998
30
0
11
248.15654800000002
21
-204.91329100000002
31
0
0
LINE
5
572
100
AcDbEntity
8
0
100
AcDbLine
10
223.62679287454716
20
-210.37357970630376
30
0
11
210.00964011658706
21
-214.08296827439506
31
0
0
SPLINE
5
573
100
AcDbEntity
8
0
100
AcDbSpline
70
0
71
3
72
8
73
4
74
0
42
0.000000001
43
0.0000000001
44
0.0000000001
40
0
40
0
40
0
40
0
40
1
40
1
40
1
40
1
10
266.814617
20
-202.51601699999998
30
0
10
265.86917900000003
20
-201.13651099999998
30
0
10
264.15932000000004
20
-200.499257
30
0
10
262.54163399999999
20
-200.92350199999998
30
0
0
SPLINE
5
574
100
AcDbEntity
8
0
100
AcDbSpline
70
0
71
3
72
8
73
4
74
0
42
0.000000001
43
0.0000000001
44
0.0000000001
40
0
40
0
40
0
40
0
40
1
40
1
40
1
40
1
10
227.61656700000003
20
-206.200377
30
0
10
225.47110000000004
20
-206.76303799999999
30
0
10
224.18798100000004
20
-208.95840899999999
30
0
10
224.75064000000003
20
-211.10387599999999
30
0
0
SPLINE
5
575
100
AcDbEntity
8
0
100
AcDbSpline
70
0
71
3
72
14
73
10
74
0
42
0.000000001
43
0.0000000001
44
0.0000000001
40
-0.033369899001319758
40
-0.033369899001319758
40
-0.033369899001319758
40
-0.033369899001319758
40
0
40
0
40
0
40
1
40
1
40
1
40
1.0870473096368927
40
1.0870473096368927
40
1.0870473096368927
40
1.0870473096368927
10
63.544669220906698
20
-197.16730131607906
30
0
10
63.491327403983149
20
-197.15910086361887
30
0
10
63.437985587059778
20
-197.15090041115872
30
0
10
63.384643770136513
20
-197.14269995869856
30
0
10
60.591480076221899
20
-196.71329564878738
30
0
10
57.794016491865214
20
-198.02471578243006
30
0
10
56.337397892160411
20
-200.44637048042986
30
0
10
56.264834471421317
20
-200.56700847638254
30
0
10
56.192271050682223
20
-200.68764647233519
30
0
10
56.119707629943029
20
-200.80828446828801
30
0
0
CIRCLE
5
576
100
AcDbEntity
8
0
100
AcDbCircle
10
239.29047600000001
20
-255.21597499999999
30
0
40
1.25
210
0
220
0
230
1
0
LINE
5
577
100
AcDbEntity
8
0
100
AcDbLine
10
173.97863220160687
20
-231.80937597351348
30
0
11
152.23349894629467
21
-231.80937399668321
31
0
0
LINE
5
578
100
AcDbEntity
8
0
100
AcDbLine
10
36.901797053209215
20
-303.4059600721373
30
0
11
71.712381430769327
21
-312.33116213309808
31
0
0
LINE
5
579
100
AcDbEntity
8
0
100
AcDbLine
10
242.9978580719781
20
-201.08047698376905
30
0
11
227.36288992854162
21
-205.23308801876505
31
0
0
SPLINE
5
580
100
AcDbEntity
8
0
100
AcDbSpline
70
0
71
3
72
8
73
4
74
0
42
0.000000001
43
0.0000000001
44
0.0000000001
40
0
40
0
40
0
40
0
40
1
40
1
40
1
40
1
10
119.26076500000001
20
-219.83507700000001
30
0
10
119.846219
20
-217.69571500000001
30
0
10
118.58653400000001
20
-215.48681299999998
30
0
10
116.447175
20
-214.90134699999999
30
0
0
SPLINE
5
581
100
AcDbEntity
8
0
100
AcDbSpline
70
0
71
3
72
11
73
7
74
0
42
0.000000001
43
0.0000000001
44
0.0000000001
40
0.12531486982617718
40
0.12531486982617718
40
0.12531486982617718
40
0.12531486982617718
40
0.88449410190577671
40
0.88449410190577671
40
0.88449410190577671
40
1
40
1
40
1
40
1
10
137.46409490526037
20
-227.98317642647945
30
0
10
137.59482153192408
20
-225.9677255526725
30
0
10
136.48579578272478
20
-224.04551494734932
30
0
10
134.66047499696705
20
-223.155373948842
30
0
10
134.38276018633997
20
-223.01994277380652
30
0
10
134.08879780931977
20
-222.90851784289796
30
0
10
133.78147864250249
20
-222.82441689099474
30
0
0
LINE
5
582
100
AcDbEntity
8
0
100
AcDbLine
10
55.483312337073073
20
-210.91079712372743
30
0
11
24.293656959325077
21
-202.57547579381139
31
0
0
LINE
5
583
100
AcDbEntity
8
0
100
AcDbLine
10
270.23780384557085
20
-211.42780531390042
30
0
11
267.73624476017073
21
-202.09187554430596
31
0
0
LINE
5
584
100
AcDbEntity
8
0
100
AcDbLine
10
167.29840800000002
20
-237.020048
30
0
11
167.29840865551569
21
-229.80937538112158
31
0
0
LINE
5
585
100
AcDbEntity
8
0
100
AcDbLine
10
105.47313100000002
20
-328.67785200000003
30
0
11
117.90985300000001
21
-340.98461499999996
31
0
0
LINE
5
586
100
AcDbEntity
8
0
100
AcDbLine
10
253.8211139585747
20
-310.44045920187006
30
0
11
289.10129558269995
21
-301.39131135661552
31
0
0
LINE
5
587
100
AcDbEntity
8
0
100
AcDbLine
10
187.07093510974261
20
-226.35131636863377
30
0
11
173.7237546105176
21
-229.80937596524396
31
0
0
LINE
5
588
100
AcDbEntity
8
0
100
AcDbLine
10
120.84239600000001
20
-342.43745200000001
30
0
11
205.36975600000002
21
-342.43745000000001
31
0
0
LINE
5
589
100
AcDbEntity
8
0
100
AcDbLine
10
188.95723177282213
20
-227.92863951430172
30
0
11
173.97863220160687
21
-231.80937597351348
31
0
0
LINE
5
590
100
AcDbEntity
8
0
100
AcDbLine
10
120.71141584686512
20
-345.43745200309894
30
0
11
205.50073501464726
21
-345.43744999690063
31
0
0
LINE
5
591
100
AcDbEntity
8
0
100
AcDbLine
10
208.30229599999998
20
-340.98461600000002
30
0
11
220.73901300000003
21
-328.67784800000004
31
0
0
LINE
5
592
100
AcDbEntity
8
0
100
AcDbLine
10
190.08172999999999
20
-28.670316
30
0
11
174.15306472561389
21
-32.797200611808542
31
0
0
LINE
5
593
100
AcDbEntity
8
0
100
AcDbLine
10
174.15306472561389
20
-32.797200611808542
30
0
11
152.25938715016514
21
-32.809374013937834
31
0
0
LINE
5
594
100
AcDbEntity
8
0
100
AcDbLine
10
152.25938715016514
20
-32.809374013937834
30
0
11
136.33112
21
-28.722677000000001
31
0
0
LWPOLYLINE
5
595
100
AcDbEntity
8
0
100
AcDbPolyline
90
6
70
1
43
0.0
10
-95.438289078262613
20
-35.808094331255084
10
-111.95206123298172
20
-97.438322518499817
10
-98.931521385902684
20
-108.36348559305915
10
-74.812790390518387
20
-108.36348559305915
10
-61.661681261477206
20
-97.328394773308545
10
-78.148573160454646
20
-35.798480840609507
0
LWPOLYLINE
5
596
100
AcDbEntity
8
0
100
AcDbPolyline
90
4
70
1
43
0.0
10
-100.46770800000002
20
-96.72672
10
-73.067707999999982
20
-96.72672
10
-73.067707999999982
20
-67.446719999999999
10
-100.46770800000002
20
-67.446719999999999
0
LWPOLYLINE
5
597
100
AcDbEntity
8
0
100
AcDbPolyline
90
4
70
1
43
0.0
10
-73.467708000000016
20
-74.826719999999995
10
-99.967708000000002
20
-74.826719999999995
10
-99.967708000000002
20
-91.426719999999989
10
-73.467708000000016
20
-91.426719999999989
0
LWPOLYLINE
5
598
100
AcDbEntity
8
0
100
AcDbPolyline
90
6
70
1
43
0.0
10
-98.749540953093287
20
-107.86348559305914
10
-74.994775507651468
20
-107.86348559305914
10
-62.227087137600883
20
-97.150122990763265
10
-78.532179474799406
20
-36.298694212076342
10
-95.054568449667244
20
-36.307881050807957
10
-111.38665384716913
20
-97.260045122780383
0
LWPOLYLINE
5
599
100
AcDbEntity
8
0
100
AcDbPolyline
90
6
70
1
43
0.0
10
-78.396122307300416
20
-46.465724072561116
10
-95.188164185414593
20
-46.465724072561116
10
-108.55961691810613
20
-96.368658144183286
10
-103.1996278535762
20
-100.86607186862122
10
-70.479408805768117
20
-100.81112483554796
10
-65.054116518219246
20
-96.258764078036762
0
LWPOLYLINE
5
600
100
AcDbEntity
8
0
100
AcDbPolyline
90
4
70
1
43
0.0
10
-163.46770800000002
20
-74.826719999999995
10
-189.96770800000002
20
-74.826719999999995
10
-189.96770800000002
20
-91.426719999999989
10
-163.46770800000002
20
-91.426719999999989
0
LWPOLYLINE
5
601
100
AcDbEntity
8
0
100
AcDbPolyline
90
6
70
1
43
0.0
10
-168.14857316045465
20
-35.798480840609507
10
-185.43828907826259
20
-35.808094331255084
10
-201.95206123298169
20
-97.438322518499817
10
-188.93152138590267
20
-108.36348559305915
10
-164.81279039051839
20
-108.36348559305915
10
-151.66168126147721
20
-97.328394773308545
0
LWPOLYLINE
5
602
100
AcDbEntity
8
0
100
AcDbPolyline
90
6
70
1
43
0.0
10
-185.05456844966722
20
-36.307881050807957
10
-201.38665384716913
20
-97.260045122780383
10
-188.74954095309329
20
-107.86348559305914
10
-164.99477550765147
20
-107.86348559305914
10
-152.22708713760088
20
-97.150122990763265
10
-168.53217947479942
20
-36.298694212076342
0
LWPOLYLINE
5
603
100
AcDbEntity
8
0
100
AcDbPolyline
90
4
70
1
43
0.0
10
-190.46770800000002
20
-96.72672
10
-163.06770799999998
20
-96.72672
10
-163.06770799999998
20
-67.446719999999999
10
-190.46770800000002
20
-67.446719999999999
0
LWPOLYLINE
5
604
100
AcDbEntity
8
0
100
AcDbPolyline
90
6
70
1
43
0.0
10
-185.18816418541459
20
-46.465724072561116
10
-198.55961691810614
20
-96.368658144183286
10
-193.1996278535762
20
-100.86607186862122
10
-160.47940880576812
20
-100.81112483554796
10
-155.05411651821925
20
-96.258764078036762
10
-168.3961223073004
20
-46.465724072561116
0
LWPOLYLINE
5
605
100
AcDbEntity
8
0
100
AcDbPolyline
90
4
70
1
43
0.0
10
-169.25000263750553
20
-71.239720000000005
10
-184.25000263750553
20
-71.239720000000005
10
-184.25000263750553
20
-86.239720000000005
10
-169.25000263750553
20
-86.239720000000005
0
LINE
5
606
100
AcDbEntity
8
0
100
AcDbLine
10
-169.25000263750553
20
-71.239720000000005
30
0
11
-184.25000263750553
21
-86.239720000000005
31
0
0
LINE
5
607
100
AcDbEntity
8
0
100
AcDbLine
10
-184.25000263750553
20
-71.239720000000005
30
0
11
-169.25000263750553
21
-86.239720000000005
31
0
0
CIRCLE
5
608
100
AcDbEntity
8
0
100
AcDbCircle
10
132.005427
20
-35.008390000000006
30
0
40
1.2499999999999987
210
0
220
0
230
1
0
LINE
5
609
100
AcDbEntity
8
0
100
AcDbLine
10
138.61334615283087
20
-97.260045122780383
30
0
11
151.25045904690674
21
-107.86348559305915
31
0
0
LINE
5
610
100
AcDbEntity
8
0
100
AcDbLine
10
151.25045904690674
20
-107.86348559305915
30
0
11
175.0052244923485
21
-107.86348559305915
31
0
0
LINE
5
611
100
AcDbEntity
8
0
100
AcDbLine
10
175.0052244923485
20
-107.86348559305915
30
0
11
187.77291286239912
21
-97.150122990763236
31
0
0
CIRCLE
5
612
100
AcDbEntity
8
0
100
AcDbCircle
10
150.87367711323697
20
-44.742393473510646
30
0
40
1.2500000000000053
210
0
220
0
230
1
0
CIRCLE
5
613
100
AcDbEntity
8
0
100
AcDbCircle
10
141.02963825967905
20
-81.480841548531814
30
0
40
1.2500000000000075
210
0
220
0
230
1
0
CIRCLE
5
614
100
AcDbEntity
8
0
100
AcDbCircle
10
185.3860745929631
20
-81.480841577458364
30
0
40
1.25
210
0
220
0
230
1
0
CIRCLE
5
615
100
AcDbEntity
8
0
100
AcDbCircle
10
163.12784996719409
20
-109.61348559305915
30
0
40
1.2499999999999902
210
0
220
0
230
1
0
CIRCLE
5
616
100
AcDbEntity
8
0
100
AcDbCircle
10
175.54203641323181
20
-44.74239350243721
30
0
40
1.2500000000000064
210
0
220
0
230
1
0
LINE
5
617
100
AcDbEntity
8
0
100
AcDbLine
10
152.96879189876998
20
-32.808979568132763
30
0
11
152.97482658911457
21
-43.662277871166559
31
0
0
LINE
5
618
100
AcDbEntity
8
0
100
AcDbLine
10
152.97482658911457
20
-43.662277871166559
30
0
11
138.61334615283087
21
-97.260045122780383
31
0
0
LINE
5
619
100
AcDbEntity
8
0
100
AcDbLine
10
173.4348459400448
20
-32.797599958426453
30
0
11
173.44088695772129
21
-43.662277871166559
31
0
0
LINE
5
620
100
AcDbEntity
8
0
100
AcDbLine
10
173.44088695772129
20
-43.662277871166559
30
0
11
187.77291286239912
21
-97.150122990763236
31
0
0
LINE
5
621
100
AcDbEntity
8
0
100
AcDbLine
10
152.96879189876998
20
-32.808979568132763
30
0
11
152.96879217146139
21
-29.80937407842918
31
0
0
LINE
5
622
100
AcDbEntity
8
0
100
AcDbLine
10
173.4348459400448
20
-32.797599958426453
30
0
11
173.43484621170151
21
-29.809375938979549
31
0
0
ENDSEC
0
SECTION
2
OBJECTS
0
DICTIONARY
5
C
100
AcDbDictionary
3
ACAD_GROUP
350
D
3
ACAD_MLINESTYLE
350
17
0
DICTIONARY
5
D
100
AcDbDictionary
0
DICTIONARY
5
1A
330
C
100
AcDbDictionary
0
DICTIONARY
5
17
100
AcDbDictionary
0
ENDSEC
0
EOF
