0
SECTION
2
HEADER
9
$INSUNITS
70
4
9
$ACADVER
1
AC1014
9
$HANDSEED
5
FFFF
0
ENDSEC
0
SECTION
2
TABLES
0
TABLE
2
VPORT
5
8
100
AcDbSymbolTable
0
ENDTAB
0
TABLE
2
LTYPE
5
5
100
AcDbSymbolTable
0
LTYPE
5
14
100
AcDbSymbolTableRecord
100
AcDbLinetypeTableRecord
2
BYBLOCK
70
0
0
LTYPE
5
15
100
AcDbSymbolTableRecord
100
AcDbLinetypeTableRecord
2
BYLAYER
70
0
0
ENDTAB
0
TABLE
2
LAYER
5
2
100
AcDbSymbolTable
70
2
0
LAYER
5
50
100
AcDbSymbolTableRecord
100
AcDbLayerTableRecord
2
0
70
0
6
CONTINUOUS
0
ENDTAB
0
TABLE
2
STYLE
5
3
100
AcDbSymbolTable
70
1
0
STYLE
5
11
100
AcDbSymbolTableRecord
100
AcDbTextStyleTableRecord
2
STANDARD
70
0
0
ENDTAB
0
TABLE
2
VIEW
5
6
100
AcDbSymbolTable
70
0
0
ENDTAB
0
TABLE
2
UCS
5
7
100
AcDbSymbolTable
70
0
0
ENDTAB
0
TABLE
2
APPID
5
9
100
AcDbSymbolTable
70
2
0
APPID
5
12
100
AcDbSymbolTableRecord
100
AcDbRegAppTableRecord
2
ACAD
70
0
0
ENDTAB
0
TABLE
2
DIMSTYLE
5
A
100
AcDbSymbolTable
70
1
0
ENDTAB
0
TABLE
2
BLOCK_RECORD
5
1
100
AcDbSymbolTable
70
1
0
BLOCK_RECORD
5
1F
100
AcDbSymbolTableRecord
100
AcDbBlockTableRecord
2
*MODEL_SPACE
0
BLOCK_RECORD
5
1B
100
AcDbSymbolTableRecord
100
AcDbBlockTableRecord
2
*PAPER_SPACE
0
ENDTAB
0
ENDSEC
0
SECTION
2
BLOCKS
0
BLOCK
5
20
100
AcDbEntity
100
AcDbBlockBegin
2
*MODEL_SPACE
0
ENDBLK
5
21
100
AcDbEntity
100
AcDbBlockEnd
0
BLOCK
5
1C
100
AcDbEntity
100
AcDbBlockBegin
2
*PAPER_SPACE
0
ENDBLK
5
1D
100
AcDbEntity
100
AcDbBlockEnd
0
ENDSEC
0
SECTION
2
ENTITIES
0
LWPOLYLINE
5
100
100
AcDbEntity
8
0
100
AcDbPolyline
90
4
70
1
43
0.0
10
82.889227000000005
20
-7.3337699999999995
10
96.508780999999999
20
-10.983118000000001
10
92.885314000000022
20
-24.506079999999997
10
79.26576
20
-20.856731000000003
0
LWPOLYLINE
5
101
100
AcDbEntity
8
0
100
AcDbPolyline
90
4
70
1
43
0.0
10
274.49575900000002
20
-30.570181999999999
10
270.87229200000002
20
-17.047220000000003
10
284.49184600000001
20
-13.397870999999999
10
288.11531300000001
20
-26.920834000000006
0
LWPOLYLINE
5
102
100
AcDbEntity
8
0
100
AcDbPolyline
90
4
70
1
43
0.0
10
55.533087000000009
20
-17.085768999999999
10
51.909620000000004
20
-30.608731000000002
10
38.290065999999996
20
-26.959382000000005
10
41.913533000000001
20
-13.436421000000001
0
LWPOLYLINE
5
103
100
AcDbEntity
8
0
100
AcDbPolyline
90
4
70
1
43
0.0
10
195.26196900000002
20
-28.507090999999999
10
208.88152300000002
20
-24.857742000000002
10
212.50499000000002
20
-38.380704999999999
10
198.88543600000003
20
-42.030053000000002
0
LWPOLYLINE
5
104
100
AcDbEntity
8
0
100
AcDbPolyline
90
4
70
1
43
0.0
10
63.501367000000002
20
-6.2799190000000005
10
77.120920999999996
20
-9.9292669999999994
10
73.497454000000005
20
-23.452228999999999
10
59.877900000000004
20
-19.802879999999998
0
LWPOLYLINE
5
105
100
AcDbEntity
8
0
100
AcDbPolyline
90
4
70
1
43
0.0
10
22.427816000000004
20
-67.225979000000009
10
18.804349000000002
20
-80.748941000000002
10
5.1847949999999994
20
-77.099592000000001
10
8.8082619999999991
20
-63.576631000000006
0
LWPOLYLINE
5
106
100
AcDbEntity
8
0
100
AcDbPolyline
90
4
70
1
43
0.0
10
189.55580700000002
20
-103.48654100000002
10
200.357033
20
-94.423236000000003
10
209.35606000000004
20
-105.14785800000001
10
198.55483300000003
20
-114.211163
0
LWPOLYLINE
5
107
100
AcDbEntity
8
0
100
AcDbPolyline
90
4
70
1
43
0.0
10
262.90401700000007
20
-6.2413600000000002
10
266.52748399999996
20
-19.764323000000001
10
252.90793000000002
20
-23.413671000000001
10
249.28446300000002
20
-9.8907089999999993
0
LWPOLYLINE
5
108
100
AcDbEntity
8
0
100
AcDbPolyline
90
4
70
1
43
0.0
10
121.38258999999999
20
-83.905711999999994
10
125.00605700000001
20
-70.382750999999999
10
138.62561100000002
20
-74.032099000000002
10
135.00214399999999
20
-87.555060999999995
0
LWPOLYLINE
5
109
100
AcDbEntity
8
0
100
AcDbPolyline
90
4
70
1
43
0.0
10
229.89659200000003
20
-10.944572000000001
10
243.51614600000002
20
-7.2952230000000009
10
247.139613
20
-20.818185999999997
10
233.52005899999997
20
-24.467534000000004
0
LWPOLYLINE
5
110
100
AcDbEntity
8
0
100
AcDbPolyline
90
4
70
1
43
0.0
10
201.39932700000003
20
-70.344193999999987
10
205.02279400000003
20
-83.867156999999992
10
191.40323999999998
20
-87.516505000000024
10
187.77977300000001
20
-73.993543000000003
0
LWPOLYLINE
5
111
100
AcDbEntity
8
0
100
AcDbPolyline
90
4
70
1
43
0.0
10
200.105234
20
-65.514566000000002
10
186.48568
20
-69.163914000000005
10
182.862213
20
-55.640952000000006
10
196.48176699999999
20
-51.991603000000012
0
LWPOLYLINE
5
112
100
AcDbEntity
8
0
100
AcDbPolyline
90
4
70
1
43
0.0
10
32.26294
20
-30.520796000000004
10
28.639472999999999
20
-44.043758000000004
10
15.019919000000002
20
-40.39440900000001
10
18.643386
20
-26.871448000000001
0
LWPOLYLINE
5
113
100
AcDbEntity
8
0
100
AcDbPolyline
90
4
70
1
43
0.0
10
19.937479
20
-22.041824000000002
10
23.560946000000001
20
-8.5188629999999996
10
37.180500000000002
20
-12.168210999999999
10
33.557033000000004
20
-25.691173000000003
0
LWPOLYLINE
5
114
100
AcDbEntity
8
0
100
AcDbPolyline
90
4
70
1
43
0.0
10
126.30014500000001
20
-65.553117000000015
10
129.92361200000002
20
-52.030156000000005
10
143.54316599999999
20
-55.679504000000009
10
139.91969900000001
20
-69.202466000000001
0
LWPOLYLINE
5
115
100
AcDbEntity
8
0
100
AcDbPolyline
90
4
70
1
43
0.0
10
27.345383000000005
20
-48.873389000000003
10
23.721916000000004
20
-62.39635100000001
10
10.102361999999999
20
-58.747002000000002
10
13.725829000000003
20
-45.224041
0
LWPOLYLINE
5
116
100
AcDbEntity
8
0
100
AcDbPolyline
90
4
70
1
43
0.0
10
302.68347
20
-62.357796
10
299.06000300000005
20
-48.834834000000001
10
312.67955700000005
20
-45.185485000000007
10
316.30302400000005
20
-58.708448000000004
0
LWPOLYLINE
5
117
100
AcDbEntity
8
0
100
AcDbPolyline
90
4
70
1
43
0.0
10
191.564211
20
-33.639008000000004
10
195.18767800000003
20
-47.161971000000008
10
181.56812400000004
20
-50.811318999999997
10
177.94465700000001
20
-37.288356999999998
0
LWPOLYLINE
5
118
100
AcDbEntity
8
0
100
AcDbPolyline
90
4
70
1
43
0.0
10
134.84116900000001
20
-33.677574999999997
10
148.460723
20
-37.326923000000001
10
144.837256
20
-50.849885000000008
10
131.217702
20
-47.200536
0
LWPOLYLINE
5
119
100
AcDbEntity
8
0
100
AcDbPolyline
90
4
70
1
43
0.0
10
212.579286
20
-19.725832999999998
10
226.19883999999999
20
-16.076484000000001
10
229.82230700000002
20
-29.599446999999998
10
216.202753
20
-33.248795000000001
0
LWPOLYLINE
5
120
100
AcDbEntity
8
0
100
AcDbPolyline
90
4
70
1
43
0.0
10
125.86826200000003
20
-94.398142000000007
10
136.669489
20
-103.46144699999999
10
127.67046200000003
20
-114.186069
10
116.86923600000001
20
-105.12276399999999
0
LWPOLYLINE
5
121
100
AcDbEntity
8
0
100
AcDbPolyline
90
4
70
1
43
0.0
10
292.84835099999998
20
-25.652616000000002
10
289.22488399999997
20
-12.129653999999999
10
302.84443799999997
20
-8.4803049999999995
10
306.46790499999997
20
-22.003267999999998
0
LWPOLYLINE
5
122
100
AcDbEntity
8
0
100
AcDbPolyline
90
4
70
1
43
0.0
10
297.76590699999997
20
-44.005202000000011
10
294.14243999999997
20
-30.482240000000004
10
307.76199400000002
20
-26.832890999999996
10
311.38546099999996
20
-40.355854000000008
0
LWPOLYLINE
5
123
100
AcDbEntity
8
0
100
AcDbPolyline
90
4
70
1
43
0.0
10
303.97755799999999
20
-67.187422999999995
10
317.59711200000004
20
-63.538074000000009
10
321.22057900000004
20
-77.061036999999999
10
307.60102500000005
20
-80.710385000000002
0
LWPOLYLINE
5
124
100
AcDbEntity
8
0
100
AcDbPolyline
90
4
70
1
43
0.0
10
106.33710600000001
20
-123.246775
10
94.787063000000003
20
-115.15934700000001
10
102.817133
20
-103.69121899999999
10
114.36717700000001
20
-111.77864599999999
0
SPLINE
5
125
100
AcDbEntity
8
0
100
AcDbSpline
70
0
71
3
72
8
73
4
74
0
42
0.000000001
43
0.0000000001
44
0.0000000001
40
0
40
0
40
0
40
0
40
1
40
1
40
1
40
1
10
291.26560499999999
20
-98.512065000000021
30
0
10
291.76886100000002
20
-97.565859000000017
30
0
10
291.85389600000002
20
-96.452419999999989
30
0
10
291.50016299999999
20
-95.440765000000013
30
0
0
LWPOLYLINE
5
126
100
AcDbEntity
8
0
100
AcDbPolyline
90
4
70
1
43
0.0
10
130.61902400000002
20
-127.029931
10
120.71952900000001
20
-136.92942600000003
10
110.749323
20
-126.95922000000002
10
120.64881800000001
20
-117.05972500000001
0
SPLINE
5
127
100
AcDbEntity
8
0
100
AcDbSpline
70
0
71
3
72
8
73
4
74
0
42
0.000000001
43
0.0000000001
44
0.0000000001
40
0
40
0
40
0
40
0
40
1
40
1
40
1
40
1
10
205.36975600000002
20
-142.43745000000001
30
0
10
206.495135
20
-142.33899500000001
30
0
10
207.54214700000003
20
-141.82028600000001
30
0
10
208.30229599999998
20
-140.98461600000002
30
0
0
SPLINE
5
128
100
AcDbEntity
8
0
100
AcDbSpline
70
0
71
3
72
8
73
4
74
0
42
0.000000001
43
0.0000000001
44
0.0000000001
40
0
40
0
40
0
40
0
40
1
40
1
40
1
40
1
10
34.856724999999997
20
-95.57224699999999
30
0
10
34.575575000000001
20
-96.599604000000014
30
0
10
34.714058000000001
20
-97.696570000000008
30
0
10
35.241709
20
-98.621821999999995
30
0
0
SPLINE
5
129
100
AcDbEntity
8
0
100
AcDbSpline
70
0
71
3
72
8
73
4
74
0
42
0.000000001
43
0.0000000001
44
0.0000000001
40
0
40
0
40
0
40
0
40
1
40
1
40
1
40
1
10
136.33112
20
-28.722677000000001
30
0
10
136.91657700000002
20
-26.583313000000004
30
0
10
135.65688700000004
20
-24.374410000000001
30
0
10
133.51752400000004
20
-23.788952000000002
30
0
0
SPLINE
5
130
100
AcDbEntity
8
0
100
AcDbSpline
70
0
71
3
72
8
73
4
74
0
42
0.000000001
43
0.0000000001
44
0.0000000001
40
0
40
0
40
0
40
0
40
1
40
1
40
1
40
1
10
35.241709
20
-98.621821999999995
30
0
10
35.769359999999999
20
-99.547075000000007
30
0
10
36.642955999999998
20
-100.224822
30
0
10
37.670315000000002
20
-100.505966
30
0
0
SPLINE
5
131
100
AcDbEntity
8
0
100
AcDbSpline
70
0
71
3
72
8
73
4
74
0
42
0.000000001
43
0.0000000001
44
0.0000000001
40
0
40
0
40
0
40
0
40
1
40
1
40
1
40
1
10
192.94766100000004
20
-23.766805999999999
30
0
10
190.80219299999999
20
-24.329473000000004
30
0
10
189.51907399999999
20
-26.524845000000003
30
0
10
190.08172999999999
20
-28.670316
30
0
0
SPLINE
5
132
100
AcDbEntity
8
0
100
AcDbSpline
70
0
71
3
72
8
73
4
74
0
42
0.000000001
43
0.0000000001
44
0.0000000001
40
0
40
0
40
0
40
0
40
1
40
1
40
1
40
1
10
82.895333999999991
20
-1.5134829999999999
30
0
10
80.892724000000001
20
-1.026635
30
0
10
78.866156000000004
20
-2.2211189999999998
30
0
10
78.322160999999994
20
-4.2089660000000002
30
0
0
SPLINE
5
133
100
AcDbEntity
8
0
100
AcDbSpline
70
0
71
3
72
8
73
4
74
0
42
0.000000001
43
0.0000000001
44
0.0000000001
40
0
40
0
40
0
40
0
40
1
40
1
40
1
40
1
10
288.850076
20
-100.42337700000002
30
0
10
289.88664700000004
20
-100.151179
30
0
10
290.76235000000003
20
-99.458271000000011
30
0
10
291.26560499999999
20
-98.512065000000021
30
0
0
LWPOLYLINE
5
134
100
AcDbEntity
8
0
100
AcDbPolyline
90
4
70
1
43
0.0
10
68.579886999999999
20
-41.804814000000007
10
54.960333000000006
20
-38.155465
10
58.583800000000004
20
-24.632504000000001
10
72.203354000000004
20
-28.281852000000001
0
LWPOLYLINE
5
135
100
AcDbEntity
8
0
100
AcDbPolyline
90
4
70
1
43
0.0
10
234.73986499999998
20
-47.952037000000004
10
221.12031099999999
20
-51.601385000000008
10
217.49684400000001
20
-38.078423000000001
10
231.11639800000003
20
-34.429074
0
SPLINE
5
136
100
AcDbEntity
8
0
100
AcDbSpline
70
0
71
3
72
8
73
4
74
0
42
0.000000001
43
0.0000000001
44
0.0000000001
40
0
40
0
40
0
40
0
40
1
40
1
40
1
40
1
10
210.26815099999999
20
-15.048987
30
0
10
209.23785600000002
20
-15.319185000000001
30
0
10
208.35709500000002
20
-15.987601000000002
30
0
10
207.81962800000002
20
-16.90719
30
0
0
SPLINE
5
137
100
AcDbEntity
8
0
100
AcDbSpline
70
0
71
3
72
8
73
4
74
0
42
0.000000001
43
0.0000000001
44
0.0000000001
40
0
40
0
40
0
40
0
40
1
40
1
40
1
40
1
10
266.814617
20
-2.5160169999999997
30
0
10
265.86917900000003
20
-1.136511
30
0
10
264.15932000000004
20
-0.49925699999999995
30
0
10
262.54163399999999
20
-0.92350200000000005
30
0
0
LWPOLYLINE
5
138
100
AcDbEntity
8
0
100
AcDbPolyline
90
4
70
1
43
0.0
10
213.799081
20
-43.210332000000008
10
217.42254800000001
20
-56.733295000000005
10
203.80299399999998
20
-60.382643000000009
10
200.17952700000001
20
-46.859681000000002
0
LWPOLYLINE
5
139
100
AcDbEntity
8
0
100
AcDbPolyline
90
4
70
1
43
0.0
10
108.90853300000002
20
-38.116973000000002
10
105.285066
20
-51.639935000000001
10
91.665511999999993
20
-47.990586000000008
10
95.288979000000012
20
-34.467624999999998
0
LWPOLYLINE
5
140
100
AcDbEntity
8
0
100
AcDbPolyline
90
4
70
1
43
0.0
10
121.30828999999999
20
-65.250833
10
117.68482300000001
20
-78.773795000000007
10
104.06526900000001
20
-75.124445999999992
10
107.68873600000001
20
-61.601484999999997
0
SPLINE
5
141
100
AcDbEntity
8
0
100
AcDbSpline
70
0
71
3
72
8
73
4
74
0
42
0.000000001
43
0.0000000001
44
0.0000000001
40
0
40
0
40
0
40
0
40
1
40
1
40
1
40
1
10
62.928797000000003
20
-0.10786500000000002
30
0
10
61.330296000000004
20
0.137879
30
0
10
59.741786000000005
20
-0.60679700000000003
30
0
10
58.908177000000002
20
-1.9926869999999999
30
0
0
LWPOLYLINE
5
142
100
AcDbEntity
8
0
100
AcDbPolyline
90
4
70
1
43
0.0
10
218.71663900000001
20
-61.562927000000009
10
222.34010600000002
20
-75.085890000000006
10
208.72055200000003
20
-78.735237999999995
10
205.09708500000002
20
-65.212276000000003
0
LWPOLYLINE
5
143
100
AcDbEntity
8
0
100
AcDbPolyline
90
4
70
1
43
0.0
10
239.65742599999999
20
-66.304628000000008
10
226.03787200000002
20
-69.953976000000011
10
222.41440499999999
20
-56.431014000000005
10
236.03395899999998
20
-52.781665000000011
0
SPLINE
5
144
100
AcDbEntity
8
0
100
AcDbSpline
70
0
71
3
72
8
73
4
74
0
42
0.000000001
43
0.0000000001
44
0.0000000001
40
0
40
0
40
0
40
0
40
1
40
1
40
1
40
1
10
0.20456100000000002
20
-76.602990000000005
30
0
10
-0.076589000000000004
20
-77.630348999999995
30
0
10
0.061894000000000012
20
-78.727316000000002
30
0
10
0.58954499999999999
20
-79.652570999999995
30
0
0
SPLINE
5
145
100
AcDbEntity
8
0
100
AcDbSpline
70
0
71
3
72
8
73
4
74
0
42
0.000000001
43
0.0000000001
44
0.0000000001
40
0
40
0
40
0
40
0
40
1
40
1
40
1
40
1
10
0.58954499999999999
20
-79.652570999999995
30
0
10
1.1171950000000002
20
-80.577826000000016
30
0
10
1.9907910000000002
20
-81.255576000000005
30
0
10
3.0181499999999999
20
-81.536723999999992
30
0
0
SPLINE
5
146
100
AcDbEntity
8
0
100
AcDbSpline
70
0
71
3
72
8
73
4
74
0
42
0.000000001
43
0.0000000001
44
0.0000000001
40
0
40
0
40
0
40
0
40
1
40
1
40
1
40
1
10
323.24722900000006
20
-81.645184
30
0
10
324.27752400000003
20
-81.374985999999993
30
0
10
325.15828399999998
20
-80.706570999999997
30
0
10
325.69575200000003
20
-79.786982999999992
30
0
0
SPLINE
5
147
100
AcDbEntity
8
0
100
AcDbSpline
70
0
71
3
72
8
73
4
74
0
42
0.000000001
43
0.0000000001
44
0.0000000001
40
0
40
0
40
0
40
0
40
1
40
1
40
1
40
1
10
325.69575200000003
20
-79.786982999999992
30
0
10
326.23321900000002
20
-78.867395000000016
30
0
10
326.38336800000002
20
-77.771962000000002
30
0
10
326.11316600000004
20
-76.741668000000004
30
0
0
SPLINE
5
148
100
AcDbEntity
8
0
100
AcDbSpline
70
0
71
3
72
8
73
4
74
0
42
0.000000001
43
0.0000000001
44
0.0000000001
40
0
40
0
40
0
40
0
40
1
40
1
40
1
40
1
10
207.81962800000002
20
-16.90719
30
0
10
207.28216000000003
20
-17.826778000000001
30
0
10
207.13201300000003
20
-18.922211999999998
30
0
10
207.40221599999998
20
-19.952505000000002
30
0
0
LWPOLYLINE
5
149
100
AcDbEntity
8
0
100
AcDbPolyline
90
4
70
1
43
0.0
10
126.22584599999999
20
-46.898239000000004
10
122.602379
20
-60.421201000000011
10
108.98282500000001
20
-56.771852000000003
10
112.606292
20
-43.248891
0
SPLINE
5
150
100
AcDbEntity
8
0
100
AcDbSpline
70
0
71
3
72
8
73
4
74
0
42
0.000000001
43
0.0000000001
44
0.0000000001
40
0
40
0
40
0
40
0
40
1
40
1
40
1
40
1
10
305.424307
20
-4.0674349999999997
30
0
10
304.50472300000001
20
-3.5299670000000001
30
0
10
303.40929399999999
20
-3.3798160000000004
30
0
10
302.37900299999995
20
-3.6500140000000005
30
0
0
LWPOLYLINE
5
151
100
AcDbEntity
8
0
100
AcDbPolyline
90
4
70
1
43
0.0
10
91.591219000000009
20
-29.335712000000001
10
87.967752000000004
20
-42.858674000000001
10
74.348197999999996
20
-39.209325
10
77.971665000000002
20
-25.686364000000005
0
SPLINE
5
152
100
AcDbEntity
8
0
100
AcDbSpline
70
0
71
3
72
8
73
4
74
0
42
0.000000001
43
0.0000000001
44
0.0000000001
40
0
40
0
40
0
40
0
40
1
40
1
40
1
40
1
10
24.032743
20
-3.540842
30
0
10
21.893380000000001
20
-2.95539
30
0
10
19.684479999999997
20
-4.2150829999999999
30
0
10
19.099026000000002
20
-6.354445000000001
30
0
0
SPLINE
5
153
100
AcDbEntity
8
0
100
AcDbSpline
70
0
71
3
72
8
73
4
74
0
42
0.000000001
43
0.0000000001
44
0.0000000001
40
0
40
0
40
0
40
0
40
1
40
1
40
1
40
1
10
119.26076500000001
20
-19.835076999999998
30
0
10
119.846219
20
-17.695715
30
0
10
118.58653400000001
20
-15.486813000000001
30
0
10
116.447175
20
-14.901347000000001
30
0
0
LWPOLYLINE
5
154
100
AcDbEntity
8
0
100
AcDbPolyline
90
4
70
1
43
0.0
10
103.99096900000001
20
-56.469571000000002
10
100.367502
20
-69.992532999999995
10
86.747947999999994
20
-66.343183999999994
10
90.371415000000013
20
-52.820223000000006
0
SPLINE
5
155
100
AcDbEntity
8
0
100
AcDbSpline
70
0
71
3
72
8
73
4
74
0
42
0.000000001
43
0.0000000001
44
0.0000000001
40
0
40
0
40
0
40
0
40
1
40
1
40
1
40
1
10
307.28249700000003
20
-6.5159549999999999
30
0
10
307.01230199999998
20
-5.4856629999999997
30
0
10
306.3438910000001
20
-4.6049040000000012
30
0
10
305.424307
20
-4.0674349999999997
30
0
0
LWPOLYLINE
5
156
100
AcDbEntity
8
0
100
AcDbPolyline
90
4
70
1
43
0.0
10
69.430639999999997
20
-57.561913000000004
10
73.054107000000002
20
-44.038952000000002
10
86.67366100000001
20
-47.688300000000005
10
83.050193999999991
20
-61.211261999999998
0
LWPOLYLINE
5
157
100
AcDbEntity
8
0
100
AcDbPolyline
90
4
70
1
43
0.0
10
257.82548399999996
20
-41.766258000000001
10
254.20201700000001
20
-28.243296000000004
10
267.82157100000001
20
-24.593947000000004
10
271.44503800000001
20
-38.116909999999997
0
LWPOLYLINE
5
158
100
AcDbEntity
8
0
100
AcDbPolyline
90
4
70
1
43
0.0
10
279.41332
20
-48.92277
10
275.78985299999999
20
-35.399808000000007
10
289.40940699999999
20
-31.750459000000006
10
293.03287400000005
20
-45.273421999999997
0
LWPOLYLINE
5
159
100
AcDbEntity
8
0
100
AcDbPolyline
90
4
70
1
43
0.0
10
252.05718000000002
20
-39.170769
10
238.43762599999997
20
-42.820116999999996
10
234.81415900000002
20
-29.297155000000004
10
248.43371300000001
20
-25.647806000000003
0
LWPOLYLINE
5
160
100
AcDbEntity
8
0
100
AcDbPolyline
90
4
70
1
43
0.0
10
28.454944000000001
20
-63.664559999999994
10
32.078410999999996
20
-50.141598999999999
10
45.697965000000011
20
-53.790946999999996
10
42.074497999999998
20
-67.313908999999995
0
LWPOLYLINE
5
161
100
AcDbEntity
8
0
100
AcDbPolyline
90
4
70
1
43
0.0
10
27.160844000000001
20
-68.494196000000017
10
40.780397999999998
20
-72.143543999999991
10
37.156931
20
-85.666506000000012
10
23.537376999999999
20
-82.017156999999997
0
LWPOLYLINE
5
162
100
AcDbEntity
8
0
100
AcDbPolyline
90
4
70
1
43
0.0
10
99.073413000000002
20
-74.822148999999996
10
95.449946000000011
20
-88.345111000000003
10
81.830392000000018
20
-84.695762000000002
10
85.453858999999994
20
-71.172801000000007
0
LWPOLYLINE
5
163
100
AcDbEntity
8
0
100
AcDbPolyline
90
4
70
1
43
0.0
10
50.042775000000006
20
-56.508047000000005
10
53.666242000000004
20
-42.985085999999995
10
67.285796000000005
20
-46.634434000000013
10
63.662329000000007
20
-60.157395999999999
0
LWPOLYLINE
5
164
100
AcDbEntity
8
0
100
AcDbPolyline
90
4
70
1
43
0.0
10
262.74305700000002
20
-60.118848999999997
10
259.11959000000002
20
-46.595886999999998
10
272.73914400000001
20
-42.946538000000004
10
276.36261100000002
20
-56.469501000000008
0
LWPOLYLINE
5
165
100
AcDbEntity
8
0
100
AcDbPolyline
90
4
70
1
43
0.0
10
102.771171
20
-79.954071999999996
10
116.390725
20
-83.603420000000014
10
112.76725800000001
20
-97.126382000000007
10
99.147704000000019
20
-93.477032999999992
0
LWPOLYLINE
5
166
100
AcDbEntity
8
0
100
AcDbPolyline
90
4
70
1
43
0.0
10
280.70740899999998
20
-53.75239100000001
10
294.32696299999998
20
-50.103042000000002
10
297.95042999999998
20
-63.626005000000006
10
284.33087599999999
20
-67.27535300000001
0
LWPOLYLINE
5
167
100
AcDbEntity
8
0
100
AcDbPolyline
90
4
70
1
43
0.0
10
210.01465499999998
20
-83.564864
10
223.634209
20
-79.915514999999999
10
227.25767599999998
20
-93.438478000000003
10
213.63812200000001
20
-97.087826000000007
0
LWPOLYLINE
5
168
100
AcDbEntity
8
0
100
AcDbPolyline
90
4
70
1
43
0.0
10
302.86798700000008
20
-81.978599000000003
10
289.24843300000009
20
-85.627946999999992
10
285.62496600000003
20
-72.104984999999999
10
299.24452000000002
20
-68.455635999999998
0
LWPOLYLINE
5
169
100
AcDbEntity
8
0
100
AcDbPolyline
90
4
70
1
43
0.0
10
239.73170800000003
20
-47.649746999999998
10
253.35126200000005
20
-44.000398000000004
10
256.97472900000002
20
-57.523361000000008
10
243.35517500000003
20
-61.172709000000005
0
LWPOLYLINE
5
170
100
AcDbEntity
8
0
100
AcDbPolyline
90
4
70
1
43
0.0
10
62.368236000000003
20
-64.987030000000004
10
58.744768999999991
20
-78.509992000000011
10
45.125215000000011
20
-74.86064300000001
10
48.748682000000009
20
-61.337681999999994
0
LWPOLYLINE
5
171
100
AcDbEntity
8
0
100
AcDbPolyline
90
4
70
1
43
0.0
10
81.756101000000001
20
-66.040889000000007
10
78.132633999999996
20
-79.563851
10
64.513080000000002
20
-75.914501999999999
10
68.136546999999993
20
-62.391541000000004
0
LWPOLYLINE
5
172
100
AcDbEntity
8
0
100
AcDbPolyline
90
4
70
1
43
0.0
10
227.33196200000003
20
-74.783603999999997
10
240.95151600000005
20
-71.134255000000024
10
244.574983
20
-84.657218
10
230.95542900000001
20
-88.306566000000004
0
LWPOLYLINE
5
173
100
AcDbEntity
8
0
100
AcDbPolyline
90
4
70
1
43
0.0
10
264.91012799999999
20
-87.138645999999994
10
268.53359499999999
20
-100.661609
10
254.91404100000005
20
-104.310957
10
251.29057400000005
20
-90.787995000000009
0
LWPOLYLINE
5
174
100
AcDbEntity
8
0
100
AcDbPolyline
90
4
70
1
43
0.0
10
273.26663500000001
20
-99.393396999999993
10
269.643168
20
-85.870435000000001
10
283.262722
20
-82.221086
10
286.886189
20
-95.744049000000018
0
LWPOLYLINE
5
175
100
AcDbEntity
8
0
100
AcDbPolyline
90
4
70
1
43
0.0
10
248.27274000000003
20
-79.525299000000004
10
244.64927299999999
20
-66.002337000000011
10
258.26882699999999
20
-62.352988000000011
10
261.89229399999999
20
-75.875951000000001
0
LWPOLYLINE
5
176
100
AcDbEntity
8
0
100
AcDbPolyline
90
4
70
1
43
0.0
10
205.57058999999998
20
-117.07839
10
215.47008500000004
20
-126.97788500000001
10
205.49987900000002
20
-136.94809100000001
10
195.60038400000002
20
-127.04859599999999
0
LWPOLYLINE
5
177
100
AcDbEntity
8
0
100
AcDbPolyline
90
4
70
1
43
0.0
10
264.037149
20
-64.948478000000009
10
277.65670299999999
20
-61.299129000000008
10
281.28017
20
-74.822091999999998
10
267.660616
20
-78.471440000000001
0
LWPOLYLINE
5
178
100
AcDbEntity
8
0
100
AcDbPolyline
90
4
70
1
43
0.0
10
223.38775400000003
20
-103.74360500000002
10
231.41782500000002
20
-115.21173400000002
10
219.86778100000004
20
-123.29916200000001
10
211.83771100000001
20
-111.83103300000001
0
LWPOLYLINE
5
179
100
AcDbEntity
8
0
100
AcDbPolyline
90
4
70
1
43
0.0
10
46.992055000000008
20
-48.961316000000004
10
33.372501
20
-45.311966999999996
10
36.995968000000005
20
-31.789006000000004
10
50.615522000000006
20
-35.438353999999997
0
LWPOLYLINE
5
180
100
AcDbEntity
8
0
100
AcDbPolyline
90
4
70
1
43
0.0
10
61.495250000000006
20
-87.177199000000002
10
75.114804000000007
20
-90.826546999999991
10
71.491337000000001
20
-104.34950900000001
10
57.871783000000001
20
-100.70016000000001
0
LWPOLYLINE
5
181
100
AcDbEntity
8
0
100
AcDbPolyline
90
4
70
1
43
0.0
10
82.950178000000022
20
-93.641197000000005
10
95.729118
20
-99.600114000000005
10
89.812461999999996
20
-112.28842299999999
10
77.033523000000002
20
-106.32950600000001
0
LWPOLYLINE
5
182
100
AcDbEntity
8
0
100
AcDbPolyline
90
4
70
1
43
0.0
10
243.26289500000001
20
-93.700556000000006
10
249.179551
20
-106.388865
10
236.400611
20
-112.34778200000001
10
230.48395600000003
20
-99.659472999999991
0
LWPOLYLINE
5
183
100
AcDbEntity
8
0
100
AcDbPolyline
90
4
70
1
43
0.0
10
53.138743000000012
20
-99.431943000000018
10
39.519189000000011
20
-95.782593999999989
10
43.142656000000002
20
-82.259633000000008
10
56.762209999999996
20
-85.908981000000026
0
LWPOLYLINE
5
184
100
AcDbEntity
8
0
100
AcDbPolyline
90
4
70
1
43
0.0
10
96.583068999999995
20
-29.637999000000001
10
100.20653600000001
20
-16.115038000000006
10
113.82609000000001
20
-19.764385999999998
10
110.202623
20
-33.287348000000001
0
LWPOLYLINE
5
185
100
AcDbEntity
8
0
100
AcDbPolyline
90
4
70
1
43
0.0
10
113.90038400000002
20
-38.419265000000003
10
117.52385100000001
20
-24.896304000000001
10
131.143405
20
-28.545652
10
127.519938
20
-42.068614000000004
0
SPLINE
5
186
100
AcDbEntity
8
0
100
AcDbSpline
70
0
71
3
72
8
73
4
74
0
42
0.000000001
43
0.0000000001
44
0.0000000001
40
0
40
0
40
0
40
0
40
1
40
1
40
1
40
1
10
248.15654800000002
20
-4.9132910000000001
30
0
10
247.59388000000001
20
-2.7678279999999997
30
0
10
245.39851200000001
20
-1.4847140000000001
30
0
10
243.25304500000001
20
-2.0473699999999999
30
0
0
SPLINE
5
187
100
AcDbEntity
8
0
100
AcDbSpline
70
0
71
3
72
8
73
4
74
0
42
0.000000001
43
0.0000000001
44
0.0000000001
40
0
40
0
40
0
40
0
40
1
40
1
40
1
40
1
10
227.61656700000003
20
-6.2003770000000005
30
0
10
225.47110000000004
20
-6.7630380000000017
30
0
10
224.18798100000004
20
-8.9584089999999996
30
0
10
224.75064000000003
20
-11.103876
30
0
0
SPLINE
5
188
100
AcDbEntity
8
0
100
AcDbSpline
70
0
71
3
72
8
73
4
74
0
42
0.000000001
43
0.0000000001
44
0.0000000001
40
0
40
0
40
0
40
0
40
1
40
1
40
1
40
1
10
101.937377
20
-10.925333000000002
30
0
10
102.256826
20
-9.8837130000000002
30
0
10
102.14067400000002
20
-8.7571119999999993
30
0
10
101.61542500000002
20
-7.8025790000000006
30
0
0
SPLINE
5
189
100
AcDbEntity
8
0
100
AcDbSpline
70
0
71
3
72
8
73
4
74
0
42
0.000000001
43
0.0000000001
44
0.0000000001
40
0
40
0
40
0
40
0
40
1
40
1
40
1
40
1
10
101.61542500000002
20
-7.8025790000000006
30
0
10
101.090175
20
-6.848046000000001
30
0
10
100.20063700000001
20
-6.1470150000000015
30
0
10
99.149772000000013
20
-5.8594360000000005
30
0
0
SPLINE
5
190
100
AcDbEntity
8
0
100
AcDbSpline
70
0
71
3
72
8
73
4
74
0
42
0.000000001
43
0.0000000001
44
0.0000000001
40
0
40
0
40
0
40
0
40
1
40
1
40
1
40
1
10
117.90985300000001
20
-140.98461499999999
30
0
10
118.67000300000001
20
-141.82028600000001
30
0
10
119.717016
20
-142.33899600000001
30
0
10
120.84239600000001
20
-142.43745200000001
30
0
0
CIRCLE
5
191
100
AcDbEntity
8
0
100
AcDbCircle
10
38.016259000000005
20
-18.695098000000002
30
0
40
1.2500000000000004
210
0
220
0
230
1
0
CIRCLE
5
192
100
AcDbEntity
8
0
100
AcDbCircle
10
24.028677999999999
20
-71.868339000000006
30
0
40
1.2499999999999998
210
0
220
0
230
1
0
CIRCLE
5
193
100
AcDbEntity
8
0
100
AcDbCircle
10
87.489848000000009
20
-54.010916000000009
30
0
40
1.2499999999999936
210
0
220
0
230
1
0
CIRCLE
5
194
100
AcDbEntity
8
0
100
AcDbCircle
10
76.923347000000007
20
-98.027477000000005
30
0
40
1.2499999999999987
210
0
220
0
230
1
0
CIRCLE
5
195
100
AcDbEntity
8
0
100
AcDbCircle
10
117.993156
20
-96.38068100000001
30
0
40
1.2499999999999929
210
0
220
0
230
1
0
CIRCLE
5
196
100
AcDbEntity
8
0
100
AcDbCircle
10
163.208494
20
-136.157871
30
0
40
1.2499999999999969
210
0
220
0
230
1
0
CIRCLE
5
197
100
AcDbEntity
8
0
100
AcDbCircle
10
178.56025900000003
20
-137.62403999999998
30
0
40
1.7500000000000091
210
0
220
0
230
1
0
CIRCLE
5
198
100
AcDbEntity
8
0
100
AcDbCircle
10
206.96913100000003
20
-96.540216000000001
30
0
40
1.2500000000000053
210
0
220
0
230
1
0
CIRCLE
5
199
100
AcDbEntity
8
0
100
AcDbCircle
10
249.55066700000003
20
-98.255522000000013
30
0
40
1.2499999999999925
210
0
220
0
230
1
0
CIRCLE
5
200
100
AcDbEntity
8
0
100
AcDbCircle
10
239.29047600000001
20
-55.215975
30
0
40
1.25
210
0
220
0
230
1
0
CIRCLE
5
201
100
AcDbEntity
8
0
100
AcDbCircle
10
194.69334200000003
20
-35.969633000000002
30
0
40
1.25
210
0
220
0
230
1
0
CIRCLE
5
202
100
AcDbEntity
8
0
100
AcDbCircle
10
288.41554500000001
20
-18.555421000000003
30
0
40
1.25
210
0
220
0
230
1
0
CIRCLE
5
203
100
AcDbEntity
8
0
100
AcDbCircle
10
303.13518199999999
20
-73.441378999999998
30
0
40
1.25
210
0
220
0
230
1
0
LINE
5
204
100
AcDbEntity
8
0
100
AcDbLine
10
36.228400000000001
20
-90.437018000000009
30
0
11
34.856724999999997
21
-95.57224699999999
31
0
0
LINE
5
205
100
AcDbEntity
8
0
100
AcDbLine
10
37.670315000000002
20
-100.505966
30
0
11
72.73042199999999
21
-109.495144
31
0
0
LINE
5
206
100
AcDbEntity
8
0
100
AcDbLine
10
72.73042199999999
20
-109.495144
30
0
11
90.120218000000008
21
-117.64577299999999
31
0
0
LINE
5
207
100
AcDbEntity
8
0
100
AcDbLine
10
90.120218000000008
20
-117.64577299999999
30
0
11
105.47313100000002
21
-128.677852
31
0
0
LINE
5
208
100
AcDbEntity
8
0
100
AcDbLine
10
105.47313100000002
20
-128.677852
30
0
11
117.90985300000001
21
-140.98461499999999
31
0
0
LINE
5
209
100
AcDbEntity
8
0
100
AcDbLine
10
120.84239600000001
20
-142.43745200000001
30
0
11
205.36975600000002
21
-142.43745000000001
31
0
0
LINE
5
210
100
AcDbEntity
8
0
100
AcDbLine
10
208.30229599999998
20
-140.98461600000002
30
0
11
220.73901300000003
21
-128.67784800000004
31
0
0
LINE
5
211
100
AcDbEntity
8
0
100
AcDbLine
10
220.73901300000003
20
-128.67784800000004
30
0
11
236.091928
21
-117.645771
31
0
0
LINE
5
212
100
AcDbEntity
8
0
100
AcDbLine
10
236.091928
20
-117.645771
30
0
11
253.48172400000004
21
-109.49514000000001
31
0
0
LINE
5
213
100
AcDbEntity
8
0
100
AcDbLine
10
253.48172400000004
20
-109.49514000000001
30
0
11
288.850076
21
-100.42337700000002
31
0
0
LINE
5
214
100
AcDbEntity
8
0
100
AcDbLine
10
291.50016299999999
20
-95.440765000000013
30
0
11
290.155281
21
-90.439464000000015
31
0
0
LINE
5
215
100
AcDbEntity
8
0
100
AcDbLine
10
290.155281
20
-90.439464000000015
30
0
11
323.24722900000006
21
-81.645184
31
0
0
LINE
5
216
100
AcDbEntity
8
0
100
AcDbLine
10
326.11316600000004
20
-76.741668000000004
30
0
11
307.28249700000003
21
-6.5159549999999999
31
0
0
LINE
5
217
100
AcDbEntity
8
0
100
AcDbLine
10
269.53222099999999
20
-12.658236
30
0
11
302.37900299999995
21
-3.6500140000000005
31
0
0
LINE
5
218
100
AcDbEntity
8
0
100
AcDbLine
10
269.53222099999999
20
-12.658236
30
0
11
266.814617
21
-2.5160169999999997
31
0
0
LINE
5
219
100
AcDbEntity
8
0
100
AcDbLine
10
262.54163399999999
20
-0.92350200000000005
30
0
11
248.15654800000002
21
-4.9132910000000001
31
0
0
LINE
5
220
100
AcDbEntity
8
0
100
AcDbLine
10
243.25304500000001
20
-2.0473699999999999
30
0
11
227.61656700000003
21
-6.2003770000000005
31
0
0
LINE
5
221
100
AcDbEntity
8
0
100
AcDbLine
10
224.75064000000003
20
-11.103876
30
0
11
210.26815099999999
21
-15.048987
31
0
0
LINE
5
222
100
AcDbEntity
8
0
100
AcDbLine
10
207.40221599999998
20
-19.952505000000002
30
0
11
192.94766100000004
21
-23.766805999999999
31
0
0
LINE
5
223
100
AcDbEntity
8
0
100
AcDbLine
10
133.51752400000004
20
-23.788952000000002
30
0
11
119.26076500000001
21
-19.835076999999998
31
0
0
LINE
5
224
100
AcDbEntity
8
0
100
AcDbLine
10
116.447175
20
-14.901347000000001
30
0
11
101.937377
21
-10.925333000000002
31
0
0
LINE
5
225
100
AcDbEntity
8
0
100
AcDbLine
10
99.149772000000013
20
-5.8594360000000005
30
0
11
82.895333999999991
21
-1.5134829999999999
31
0
0
LINE
5
226
100
AcDbEntity
8
0
100
AcDbLine
10
78.322160999999994
20
-4.2089660000000002
30
0
11
62.928797000000003
21
-0.10786500000000002
31
0
0
LINE
5
227
100
AcDbEntity
8
0
100
AcDbLine
10
58.908177000000002
20
-1.9926869999999999
30
0
11
56.19059
21
-12.134909
31
0
0
LINE
5
228
100
AcDbEntity
8
0
100
AcDbLine
10
56.19059
20
-12.134909
30
0
11
24.032743
21
-3.540842
31
0
0
LINE
5
229
100
AcDbEntity
8
0
100
AcDbLine
10
19.099026000000002
20
-6.354445000000001
30
0
11
0.20456100000000088
21
-76.602990000000005
31
0
0
LINE
5
230
100
AcDbEntity
8
0
100
AcDbLine
10
3.0181499999999999
20
-81.536723999999992
30
0
11
36.228400000000001
21
-90.437018000000009
31
0
0
CIRCLE
5
231
100
AcDbEntity
8
0
100
AcDbCircle
10
132.005427
20
-35.008390000000006
30
0
40
1.2499999999999987
210
0
220
0
230
1
0
LINE
5
232
100
AcDbEntity
8
0
100
AcDbLine
10
190.08172999999999
20
-28.670316
30
0
11
174.15306472561389
21
-32.797200611808542
31
0
0
LINE
5
233
100
AcDbEntity
8
0
100
AcDbLine
10
174.15306472561389
20
-32.797200611808542
30
0
11
152.25938715016514
21
-32.809374013937834
31
0
0
LINE
5
234
100
AcDbEntity
8
0
100
AcDbLine
10
152.25938715016514
20
-32.809374013937834
30
0
11
136.33112
21
-28.722677000000001
31
0
0
CIRCLE
5
235
100
AcDbEntity
8
0
100
AcDbCircle
10
132.005427
20
-35.008390000000006
30
0
40
1.2499999999999987
210
0
220
0
230
1
0
LINE
5
236
100
AcDbEntity
8
0
100
AcDbLine
10
138.61334615283087
20
-97.260045122780383
30
0
11
151.25045904690674
21
-107.86348559305915
31
0
0
LINE
5
237
100
AcDbEntity
8
0
100
AcDbLine
10
151.25045904690674
20
-107.86348559305915
30
0
11
175.0052244923485
21
-107.86348559305915
31
0
0
LINE
5
238
100
AcDbEntity
8
0
100
AcDbLine
10
175.0052244923485
20
-107.86348559305915
30
0
11
187.77291286239912
21
-97.150122990763236
31
0
0
CIRCLE
5
239
100
AcDbEntity
8
0
100
AcDbCircle
10
150.87367711323697
20
-44.742393473510646
30
0
40
1.1000000000000001
210
0
220
0
230
1
0
CIRCLE
5
240
100
AcDbEntity
8
0
100
AcDbCircle
10
141.02963825967905
20
-81.480841548531814
30
0
40
1.1000000000000001
210
0
220
0
230
1
0
CIRCLE
5
241
100
AcDbEntity
8
0
100
AcDbCircle
10
185.3860745929631
20
-81.480841577458364
30
0
40
1.1000000000000001
210
0
220
0
230
1
0
CIRCLE
5
242
100
AcDbEntity
8
0
100
AcDbCircle
10
163.12784996719409
20
-109.61348559305915
30
0
40
1.1000000000000001
210
0
220
0
230
1
0
CIRCLE
5
243
100
AcDbEntity
8
0
100
AcDbCircle
10
175.54203641323181
20
-44.74239350243721
30
0
40
1.1000000000000001
210
0
220
0
230
1
0
LINE
5
244
100
AcDbEntity
8
0
100
AcDbLine
10
152.96879189876998
20
-32.808979568132763
30
0
11
152.97482658911457
21
-43.662277871166559
31
0
0
LINE
5
245
100
AcDbEntity
8
0
100
AcDbLine
10
152.97482658911457
20
-43.662277871166559
30
0
11
138.61334615283087
21
-97.260045122780383
31
0
0
LINE
5
246
100
AcDbEntity
8
0
100
AcDbLine
10
173.4348459400448
20
-32.797599958426453
30
0
11
173.44088695772129
21
-43.662277871166559
31
0
0
LINE
5
247
100
AcDbEntity
8
0
100
AcDbLine
10
173.44088695772129
20
-43.662277871166559
30
0
11
187.77291286239912
21
-97.150122990763236
31
0
0
ENDSEC
0
SECTION
2
OBJECTS
0
DICTIONARY
5
C
100
AcDbDictionary
3
ACAD_GROUP
350
D
3
ACAD_MLINESTYLE
350
17
0
DICTIONARY
5
D
100
AcDbDictionary
0
DICTIONARY
5
1A
330
C
100
AcDbDictionary
0
DICTIONARY
5
17
100
AcDbDictionary
0
ENDSEC
0
EOF
