0
SECTION
2
HEADER
9
$INSUNITS
70
4
9
$ACADVER
1
AC1014
9
$HANDSEED
5
FFFF
0
ENDSEC
0
SECTION
2
TABLES
0
TABLE
2
VPORT
5
8
100
AcDbSymbolTable
0
ENDTAB
0
TABLE
2
LTYPE
5
5
100
AcDbSymbolTable
0
LTYPE
5
14
100
AcDbSymbolTableRecord
100
AcDbLinetypeTableRecord
2
BYBLOCK
70
0
0
LTYPE
5
15
100
AcDbSymbolTableRecord
100
AcDbLinetypeTableRecord
2
BYLAYER
70
0
0
ENDTAB
0
TABLE
2
LAYER
5
2
100
AcDbSymbolTable
70
2
0
LAYER
5
50
100
AcDbSymbolTableRecord
100
AcDbLayerTableRecord
2
0
70
0
6
CONTINUOUS
0
ENDTAB
0
TABLE
2
STYLE
5
3
100
AcDbSymbolTable
70
1
0
STYLE
5
11
100
AcDbSymbolTableRecord
100
AcDbTextStyleTableRecord
2
STANDARD
70
0
0
ENDTAB
0
TABLE
2
VIEW
5
6
100
AcDbSymbolTable
70
0
0
ENDTAB
0
TABLE
2
UCS
5
7
100
AcDbSymbolTable
70
0
0
ENDTAB
0
TABLE
2
APPID
5
9
100
AcDbSymbolTable
70
2
0
APPID
5
12
100
AcDbSymbolTableRecord
100
AcDbRegAppTableRecord
2
ACAD
70
0
0
ENDTAB
0
TABLE
2
DIMSTYLE
5
A
100
AcDbSymbolTable
70
1
0
ENDTAB
0
TABLE
2
BLOCK_RECORD
5
1
100
AcDbSymbolTable
70
1
0
BLOCK_RECORD
5
1F
100
AcDbSymbolTableRecord
100
AcDbBlockTableRecord
2
*MODEL_SPACE
0
BLOCK_RECORD
5
1B
100
AcDbSymbolTableRecord
100
AcDbBlockTableRecord
2
*PAPER_SPACE
0
ENDTAB
0
ENDSEC
0
SECTION
2
BLOCKS
0
BLOCK
5
20
100
AcDbEntity
100
AcDbBlockBegin
2
*MODEL_SPACE
0
ENDBLK
5
21
100
AcDbEntity
100
AcDbBlockEnd
0
BLOCK
5
1C
100
AcDbEntity
100
AcDbBlockBegin
2
*PAPER_SPACE
0
ENDBLK
5
1D
100
AcDbEntity
100
AcDbBlockEnd
0
ENDSEC
0
SECTION
2
ENTITIES
0
LWPOLYLINE
5
100
100
AcDbEntity
8
0
100
AcDbPolyline
90
4
70
1
43
0.0
10
82.889227000000005
20
-7.3337699999999995
10
96.508780999999999
20
-10.983118000000001
10
92.885314000000022
20
-24.506079999999997
10
79.26576
20
-20.856731000000003
0
LWPOLYLINE
5
101
100
AcDbEntity
8
0
100
AcDbPolyline
90
4
70
1
43
0.0
10
274.49575900000002
20
-30.570181999999999
10
270.87229200000002
20
-17.047220000000003
10
284.49184600000001
20
-13.397870999999999
10
288.11531300000001
20
-26.920834000000006
0
LWPOLYLINE
5
102
100
AcDbEntity
8
0
100
AcDbPolyline
90
4
70
1
43
0.0
10
55.533087000000009
20
-17.085768999999999
10
51.909620000000004
20
-30.608731000000002
10
38.290065999999996
20
-26.959382000000005
10
41.913533000000001
20
-13.436421000000001
0
LWPOLYLINE
5
103
100
AcDbEntity
8
0
100
AcDbPolyline
90
4
70
1
43
0.0
10
195.26196900000002
20
-28.507090999999999
10
208.88152300000002
20
-24.857742000000002
10
212.50499000000002
20
-38.380704999999999
10
198.88543600000003
20
-42.030053000000002
0
LWPOLYLINE
5
104
100
AcDbEntity
8
0
100
AcDbPolyline
90
4
70
1
43
0.0
10
63.501367000000002
20
-6.2799190000000005
10
77.120920999999996
20
-9.9292669999999994
10
73.497454000000005
20
-23.452228999999999
10
59.877900000000004
20
-19.802879999999998
0
LWPOLYLINE
5
105
100
AcDbEntity
8
0
100
AcDbPolyline
90
4
70
1
43
0.0
10
22.427816000000004
20
-67.225979000000009
10
18.804349000000002
20
-80.748941000000002
10
5.1847949999999994
20
-77.099592000000001
10
8.8082619999999991
20
-63.576631000000006
0
LWPOLYLINE
5
106
100
AcDbEntity
8
0
100
AcDbPolyline
90
4
70
1
43
0.0
10
189.55580700000002
20
-103.48654100000002
10
200.357033
20
-94.423236000000003
10
209.35606000000004
20
-105.14785800000001
10
198.55483300000003
20
-114.211163
0
LWPOLYLINE
5
107
100
AcDbEntity
8
0
100
AcDbPolyline
90
4
70
1
43
0.0
10
262.90401700000007
20
-6.2413600000000002
10
266.52748399999996
20
-19.764323000000001
10
252.90793000000002
20
-23.413671000000001
10
249.28446300000002
20
-9.8907089999999993
0
LWPOLYLINE
5
108
100
AcDbEntity
8
0
100
AcDbPolyline
90
4
70
1
43
0.0
10
121.38258999999999
20
-83.905711999999994
10
125.00605700000001
20
-70.382750999999999
10
138.62561100000002
20
-74.032099000000002
10
135.00214399999999
20
-87.555060999999995
0
LWPOLYLINE
5
109
100
AcDbEntity
8
0
100
AcDbPolyline
90
4
70
1
43
0.0
10
229.89659200000003
20
-10.944572000000001
10
243.51614600000002
20
-7.2952230000000009
10
247.139613
20
-20.818185999999997
10
233.52005899999997
20
-24.467534000000004
0
LWPOLYLINE
5
110
100
AcDbEntity
8
0
100
AcDbPolyline
90
4
70
1
43
0.0
10
201.39932700000003
20
-70.344193999999987
10
205.02279400000003
20
-83.867156999999992
10
191.40323999999998
20
-87.516505000000024
10
187.77977300000001
20
-73.993543000000003
0
LWPOLYLINE
5
111
100
AcDbEntity
8
0
100
AcDbPolyline
90
4
70
1
43
0.0
10
200.105234
20
-65.514566000000002
10
186.48568
20
-69.163914000000005
10
182.862213
20
-55.640952000000006
10
196.48176699999999
20
-51.991603000000012
0
LWPOLYLINE
5
112
100
AcDbEntity
8
0
100
AcDbPolyline
90
4
70
1
43
0.0
10
32.26294
20
-30.520796000000004
10
28.639472999999999
20
-44.043758000000004
10
15.019919000000002
20
-40.39440900000001
10
18.643386
20
-26.871448000000001
0
LWPOLYLINE
5
113
100
AcDbEntity
8
0
100
AcDbPolyline
90
4
70
1
43
0.0
10
150.03229199999998
20
-90.37461718384462
10
176.53229199999998
20
-90.37461718384462
10
176.53229199999998
20
-74.826719999999995
10
150.03229199999998
20
-74.826719999999995
0
LWPOLYLINE
5
114
100
AcDbEntity
8
0
100
AcDbPolyline
90
4
70
1
43
0.0
10
19.937479
20
-22.041824000000002
10
23.560946000000001
20
-8.5188629999999996
10
37.180500000000002
20
-12.168210999999999
10
33.557033000000004
20
-25.691173000000003
0
LWPOLYLINE
5
115
100
AcDbEntity
8
0
100
AcDbPolyline
90
4
70
1
43
0.0
10
126.30014500000001
20
-65.553117000000015
10
129.92361200000002
20
-52.030156000000005
10
143.54316599999999
20
-55.679504000000009
10
139.91969900000001
20
-69.202466000000001
0
LWPOLYLINE
5
116
100
AcDbEntity
8
0
100
AcDbPolyline
90
4
70
1
43
0.0
10
27.345383000000005
20
-48.873389000000003
10
23.721916000000004
20
-62.39635100000001
10
10.102361999999999
20
-58.747002000000002
10
13.725829000000003
20
-45.224041
0
LWPOLYLINE
5
117
100
AcDbEntity
8
0
100
AcDbPolyline
90
4
70
1
43
0.0
10
302.68347
20
-62.357796
10
299.06000300000005
20
-48.834834000000001
10
312.67955700000005
20
-45.185485000000007
10
316.30302400000005
20
-58.708448000000004
0
LWPOLYLINE
5
118
100
AcDbEntity
8
0
100
AcDbPolyline
90
4
70
1
43
0.0
10
191.564211
20
-33.639008000000004
10
195.18767800000003
20
-47.161971000000008
10
181.56812400000004
20
-50.811318999999997
10
177.94465700000001
20
-37.288356999999998
0
LWPOLYLINE
5
119
100
AcDbEntity
8
0
100
AcDbPolyline
90
4
70
1
43
0.0
10
134.84116900000001
20
-33.677574999999997
10
148.460723
20
-37.326923000000001
10
144.837256
20
-50.849885000000008
10
131.217702
20
-47.200536
0
LWPOLYLINE
5
120
100
AcDbEntity
8
0
100
AcDbPolyline
90
4
70
1
43
0.0
10
212.579286
20
-19.725832999999998
10
226.19883999999999
20
-16.076484000000001
10
229.82230700000002
20
-29.599446999999998
10
216.202753
20
-33.248795000000001
0
LWPOLYLINE
5
121
100
AcDbEntity
8
0
100
AcDbPolyline
90
4
70
1
43
0.0
10
125.86826200000003
20
-94.398142000000007
10
136.669489
20
-103.46144699999999
10
127.67046200000003
20
-114.186069
10
116.86923600000001
20
-105.12276399999999
0
LWPOLYLINE
5
122
100
AcDbEntity
8
0
100
AcDbPolyline
90
4
70
1
43
0.0
10
292.84835099999998
20
-25.652616000000002
10
289.22488399999997
20
-12.129653999999999
10
302.84443799999997
20
-8.4803049999999995
10
306.46790499999997
20
-22.003267999999998
0
LWPOLYLINE
5
123
100
AcDbEntity
8
0
100
AcDbPolyline
90
4
70
1
43
0.0
10
297.76590699999997
20
-44.005202000000011
10
294.14243999999997
20
-30.482240000000004
10
307.76199400000002
20
-26.832890999999996
10
311.38546099999996
20
-40.355854000000008
0
LWPOLYLINE
5
124
100
AcDbEntity
8
0
100
AcDbPolyline
90
4
70
1
43
0.0
10
303.97755799999999
20
-67.187422999999995
10
317.59711200000004
20
-63.538074000000009
10
321.22057900000004
20
-77.061036999999999
10
307.60102500000005
20
-80.710385000000002
0
LWPOLYLINE
5
125
100
AcDbEntity
8
0
100
AcDbPolyline
90
4
70
1
43
0.0
10
106.33710600000001
20
-123.246775
10
94.787063000000003
20
-115.15934700000001
10
102.817133
20
-103.69121899999999
10
114.36717700000001
20
-111.77864599999999
0
SPLINE
5
126
100
AcDbEntity
8
0
100
AcDbSpline
70
0
71
3
72
8
73
4
74
0
42
0.000000001
43
0.0000000001
44
0.0000000001
40
0
40
0
40
0
40
0
40
1
40
1
40
1
40
1
10
291.26560499999999
20
-98.512065000000021
30
0
10
291.76886100000002
20
-97.565859000000017
30
0
10
291.85389600000002
20
-96.452419999999989
30
0
10
291.50016299999999
20
-95.440765000000013
30
0
0
LWPOLYLINE
5
127
100
AcDbEntity
8
0
100
AcDbPolyline
90
4
70
1
43
0.0
10
130.61902400000002
20
-127.029931
10
120.71952900000001
20
-136.92942600000003
10
110.749323
20
-126.95922000000002
10
120.64881800000001
20
-117.05972500000001
0
SPLINE
5
128
100
AcDbEntity
8
0
100
AcDbSpline
70
0
71
3
72
8
73
4
74
0
42
0.000000001
43
0.0000000001
44
0.0000000001
40
0
40
0
40
0
40
0
40
1
40
1
40
1
40
1
10
205.36975600000002
20
-142.43745000000001
30
0
10
206.495135
20
-142.33899500000001
30
0
10
207.54214700000003
20
-141.82028600000001
30
0
10
208.30229599999998
20
-140.98461600000002
30
0
0
SPLINE
5
129
100
AcDbEntity
8
0
100
AcDbSpline
70
0
71
3
72
8
73
4
74
0
42
0.000000001
43
0.0000000001
44
0.0000000001
40
0
40
0
40
0
40
0
40
1
40
1
40
1
40
1
10
34.856724999999997
20
-95.57224699999999
30
0
10
34.575575000000001
20
-96.599604000000014
30
0
10
34.714058000000001
20
-97.696570000000008
30
0
10
35.241709
20
-98.621821999999995
30
0
0
SPLINE
5
130
100
AcDbEntity
8
0
100
AcDbSpline
70
0
71
3
72
8
73
4
74
0
42
0.000000001
43
0.0000000001
44
0.0000000001
40
0
40
0
40
0
40
0
40
1
40
1
40
1
40
1
10
136.33112
20
-28.722677000000001
30
0
10
136.91657700000002
20
-26.583313000000004
30
0
10
135.65688700000004
20
-24.374410000000001
30
0
10
133.51752400000004
20
-23.788952000000002
30
0
0
SPLINE
5
131
100
AcDbEntity
8
0
100
AcDbSpline
70
0
71
3
72
8
73
4
74
0
42
0.000000001
43
0.0000000001
44
0.0000000001
40
0
40
0
40
0
40
0
40
1
40
1
40
1
40
1
10
35.241709
20
-98.621821999999995
30
0
10
35.769359999999999
20
-99.547075000000007
30
0
10
36.642955999999998
20
-100.224822
30
0
10
37.670315000000002
20
-100.505966
30
0
0
SPLINE
5
132
100
AcDbEntity
8
0
100
AcDbSpline
70
0
71
3
72
8
73
4
74
0
42
0.000000001
43
0.0000000001
44
0.0000000001
40
0
40
0
40
0
40
0
40
1
40
1
40
1
40
1
10
192.94766100000004
20
-23.766805999999999
30
0
10
190.80219299999999
20
-24.329473000000004
30
0
10
189.51907399999999
20
-26.524845000000003
30
0
10
190.08172999999999
20
-28.670316
30
0
0
SPLINE
5
133
100
AcDbEntity
8
0
100
AcDbSpline
70
0
71
3
72
8
73
4
74
0
42
0.000000001
43
0.0000000001
44
0.0000000001
40
0
40
0
40
0
40
0
40
1
40
1
40
1
40
1
10
82.895333999999991
20
-1.5134829999999999
30
0
10
80.892724000000001
20
-1.026635
30
0
10
78.866156000000004
20
-2.2211189999999998
30
0
10
78.322160999999994
20
-4.2089660000000002
30
0
0
SPLINE
5
134
100
AcDbEntity
8
0
100
AcDbSpline
70
0
71
3
72
8
73
4
74
0
42
0.000000001
43
0.0000000001
44
0.0000000001
40
0
40
0
40
0
40
0
40
1
40
1
40
1
40
1
10
288.850076
20
-100.42337700000002
30
0
10
289.88664700000004
20
-100.151179
30
0
10
290.76235000000003
20
-99.458271000000011
30
0
10
291.26560499999999
20
-98.512065000000021
30
0
0
LWPOLYLINE
5
135
100
AcDbEntity
8
0
100
AcDbPolyline
90
4
70
1
43
0.0
10
68.579886999999999
20
-41.804814000000007
10
54.960333000000006
20
-38.155465
10
58.583800000000004
20
-24.632504000000001
10
72.203354000000004
20
-28.281852000000001
0
LWPOLYLINE
5
136
100
AcDbEntity
8
0
100
AcDbPolyline
90
4
70
1
43
0.0
10
234.73986499999998
20
-47.952037000000004
10
221.12031099999999
20
-51.601385000000008
10
217.49684400000001
20
-38.078423000000001
10
231.11639800000003
20
-34.429074
0
SPLINE
5
137
100
AcDbEntity
8
0
100
AcDbSpline
70
0
71
3
72
8
73
4
74
0
42
0.000000001
43
0.0000000001
44
0.0000000001
40
0
40
0
40
0
40
0
40
1
40
1
40
1
40
1
10
210.26815099999999
20
-15.048987
30
0
10
209.23785600000002
20
-15.319185000000001
30
0
10
208.35709500000002
20
-15.987601000000002
30
0
10
207.81962800000002
20
-16.90719
30
0
0
SPLINE
5
138
100
AcDbEntity
8
0
100
AcDbSpline
70
0
71
3
72
8
73
4
74
0
42
0.000000001
43
0.0000000001
44
0.0000000001
40
0
40
0
40
0
40
0
40
1
40
1
40
1
40
1
10
266.814617
20
-2.5160169999999997
30
0
10
265.86917900000003
20
-1.136511
30
0
10
264.15932000000004
20
-0.49925699999999995
30
0
10
262.54163399999999
20
-0.92350200000000005
30
0
0
LWPOLYLINE
5
139
100
AcDbEntity
8
0
100
AcDbPolyline
90
4
70
1
43
0.0
10
213.799081
20
-43.210332000000008
10
217.42254800000001
20
-56.733295000000005
10
203.80299399999998
20
-60.382643000000009
10
200.17952700000001
20
-46.859681000000002
0
LWPOLYLINE
5
140
100
AcDbEntity
8
0
100
AcDbPolyline
90
4
70
1
43
0.0
10
108.90853300000002
20
-38.116973000000002
10
105.285066
20
-51.639935000000001
10
91.665511999999993
20
-47.990586000000008
10
95.288979000000012
20
-34.467624999999998
0
LWPOLYLINE
5
141
100
AcDbEntity
8
0
100
AcDbPolyline
90
4
70
1
43
0.0
10
121.30828999999999
20
-65.250833
10
117.68482300000001
20
-78.773795000000007
10
104.06526900000001
20
-75.124445999999992
10
107.68873600000001
20
-61.601484999999997
0
SPLINE
5
142
100
AcDbEntity
8
0
100
AcDbSpline
70
0
71
3
72
8
73
4
74
0
42
0.000000001
43
0.0000000001
44
0.0000000001
40
0
40
0
40
0
40
0
40
1
40
1
40
1
40
1
10
62.928797000000003
20
-0.10786500000000002
30
0
10
61.330296000000004
20
0.137879
30
0
10
59.741786000000005
20
-0.60679700000000003
30
0
10
58.908177000000002
20
-1.9926869999999999
30
0
0
LWPOLYLINE
5
143
100
AcDbEntity
8
0
100
AcDbPolyline
90
4
70
1
43
0.0
10
218.71663900000001
20
-61.562927000000009
10
222.34010600000002
20
-75.085890000000006
10
208.72055200000003
20
-78.735237999999995
10
205.09708500000002
20
-65.212276000000003
0
LWPOLYLINE
5
144
100
AcDbEntity
8
0
100
AcDbPolyline
90
4
70
1
43
0.0
10
239.65742599999999
20
-66.304628000000008
10
226.03787200000002
20
-69.953976000000011
10
222.41440499999999
20
-56.431014000000005
10
236.03395899999998
20
-52.781665000000011
0
SPLINE
5
145
100
AcDbEntity
8
0
100
AcDbSpline
70
0
71
3
72
8
73
4
74
0
42
0.000000001
43
0.0000000001
44
0.0000000001
40
0
40
0
40
0
40
0
40
1
40
1
40
1
40
1
10
0.20456100000000002
20
-76.602990000000005
30
0
10
-0.076589000000000004
20
-77.630348999999995
30
0
10
0.061894000000000012
20
-78.727316000000002
30
0
10
0.58954499999999999
20
-79.652570999999995
30
0
0
SPLINE
5
146
100
AcDbEntity
8
0
100
AcDbSpline
70
0
71
3
72
8
73
4
74
0
42
0.000000001
43
0.0000000001
44
0.0000000001
40
0
40
0
40
0
40
0
40
1
40
1
40
1
40
1
10
0.58954499999999999
20
-79.652570999999995
30
0
10
1.1171950000000002
20
-80.577826000000016
30
0
10
1.9907910000000002
20
-81.255576000000005
30
0
10
3.0181499999999999
20
-81.536723999999992
30
0
0
SPLINE
5
147
100
AcDbEntity
8
0
100
AcDbSpline
70
0
71
3
72
8
73
4
74
0
42
0.000000001
43
0.0000000001
44
0.0000000001
40
0
40
0
40
0
40
0
40
1
40
1
40
1
40
1
10
323.24722900000006
20
-81.645184
30
0
10
324.27752400000003
20
-81.374985999999993
30
0
10
325.15828399999998
20
-80.706570999999997
30
0
10
325.69575200000003
20
-79.786982999999992
30
0
0
SPLINE
5
148
100
AcDbEntity
8
0
100
AcDbSpline
70
0
71
3
72
8
73
4
74
0
42
0.000000001
43
0.0000000001
44
0.0000000001
40
0
40
0
40
0
40
0
40
1
40
1
40
1
40
1
10
325.69575200000003
20
-79.786982999999992
30
0
10
326.23321900000002
20
-78.867395000000016
30
0
10
326.38336800000002
20
-77.771962000000002
30
0
10
326.11316600000004
20
-76.741668000000004
30
0
0
SPLINE
5
149
100
AcDbEntity
8
0
100
AcDbSpline
70
0
71
3
72
8
73
4
74
0
42
0.000000001
43
0.0000000001
44
0.0000000001
40
0
40
0
40
0
40
0
40
1
40
1
40
1
40
1
10
207.81962800000002
20
-16.90719
30
0
10
207.28216000000003
20
-17.826778000000001
30
0
10
207.13201300000003
20
-18.922211999999998
30
0
10
207.40221599999998
20
-19.952505000000002
30
0
0
LWPOLYLINE
5
150
100
AcDbEntity
8
0
100
AcDbPolyline
90
4
70
1
43
0.0
10
126.22584599999999
20
-46.898239000000004
10
122.602379
20
-60.421201000000011
10
108.98282500000001
20
-56.771852000000003
10
112.606292
20
-43.248891
0
SPLINE
5
151
100
AcDbEntity
8
0
100
AcDbSpline
70
0
71
3
72
8
73
4
74
0
42
0.000000001
43
0.0000000001
44
0.0000000001
40
0
40
0
40
0
40
0
40
1
40
1
40
1
40
1
10
305.424307
20
-4.0674349999999997
30
0
10
304.50472300000001
20
-3.5299670000000001
30
0
10
303.40929399999999
20
-3.3798160000000004
30
0
10
302.37900299999995
20
-3.6500140000000005
30
0
0
LWPOLYLINE
5
152
100
AcDbEntity
8
0
100
AcDbPolyline
90
4
70
1
43
0.0
10
91.591219000000009
20
-29.335712000000001
10
87.967752000000004
20
-42.858674000000001
10
74.348197999999996
20
-39.209325
10
77.971665000000002
20
-25.686364000000005
0
SPLINE
5
153
100
AcDbEntity
8
0
100
AcDbSpline
70
0
71
3
72
8
73
4
74
0
42
0.000000001
43
0.0000000001
44
0.0000000001
40
0
40
0
40
0
40
0
40
1
40
1
40
1
40
1
10
24.032743
20
-3.540842
30
0
10
21.893380000000001
20
-2.95539
30
0
10
19.684479999999997
20
-4.2150829999999999
30
0
10
19.099026000000002
20
-6.354445000000001
30
0
0
SPLINE
5
154
100
AcDbEntity
8
0
100
AcDbSpline
70
0
71
3
72
8
73
4
74
0
42
0.000000001
43
0.0000000001
44
0.0000000001
40
0
40
0
40
0
40
0
40
1
40
1
40
1
40
1
10
119.26076500000001
20
-19.835076999999998
30
0
10
119.846219
20
-17.695715
30
0
10
118.58653400000001
20
-15.486813000000001
30
0
10
116.447175
20
-14.901347000000001
30
0
0
LWPOLYLINE
5
155
100
AcDbEntity
8
0
100
AcDbPolyline
90
4
70
1
43
0.0
10
103.99096900000001
20
-56.469571000000002
10
100.367502
20
-69.992532999999995
10
86.747947999999994
20
-66.343183999999994
10
90.371415000000013
20
-52.820223000000006
0
SPLINE
5
156
100
AcDbEntity
8
0
100
AcDbSpline
70
0
71
3
72
8
73
4
74
0
42
0.000000001
43
0.0000000001
44
0.0000000001
40
0
40
0
40
0
40
0
40
1
40
1
40
1
40
1
10
307.28249700000003
20
-6.5159549999999999
30
0
10
307.01230199999998
20
-5.4856629999999997
30
0
10
306.3438910000001
20
-4.6049040000000012
30
0
10
305.424307
20
-4.0674349999999997
30
0
0
LWPOLYLINE
5
157
100
AcDbEntity
8
0
100
AcDbPolyline
90
4
70
1
43
0.0
10
69.430639999999997
20
-57.561913000000004
10
73.054107000000002
20
-44.038952000000002
10
86.67366100000001
20
-47.688300000000005
10
83.050193999999991
20
-61.211261999999998
0
LWPOLYLINE
5
158
100
AcDbEntity
8
0
100
AcDbPolyline
90
4
70
1
43
0.0
10
257.82548399999996
20
-41.766258000000001
10
254.20201700000001
20
-28.243296000000004
10
267.82157100000001
20
-24.593947000000004
10
271.44503800000001
20
-38.116909999999997
0
LWPOLYLINE
5
159
100
AcDbEntity
8
0
100
AcDbPolyline
90
4
70
1
43
0.0
10
279.41332
20
-48.92277
10
275.78985299999999
20
-35.399808000000007
10
289.40940699999999
20
-31.750459000000006
10
293.03287400000005
20
-45.273421999999997
0
LWPOLYLINE
5
160
100
AcDbEntity
8
0
100
AcDbPolyline
90
4
70
1
43
0.0
10
252.05718000000002
20
-39.170769
10
238.43762599999997
20
-42.820116999999996
10
234.81415900000002
20
-29.297155000000004
10
248.43371300000001
20
-25.647806000000003
0
LWPOLYLINE
5
161
100
AcDbEntity
8
0
100
AcDbPolyline
90
4
70
1
43
0.0
10
28.454944000000001
20
-63.664559999999994
10
32.078410999999996
20
-50.141598999999999
10
45.697965000000011
20
-53.790946999999996
10
42.074497999999998
20
-67.313908999999995
0
LWPOLYLINE
5
162
100
AcDbEntity
8
0
100
AcDbPolyline
90
4
70
1
43
0.0
10
27.160844000000001
20
-68.494196000000017
10
40.780397999999998
20
-72.143543999999991
10
37.156931
20
-85.666506000000012
10
23.537376999999999
20
-82.017156999999997
0
LWPOLYLINE
5
163
100
AcDbEntity
8
0
100
AcDbPolyline
90
4
70
1
43
0.0
10
99.073413000000002
20
-74.822148999999996
10
95.449946000000011
20
-88.345111000000003
10
81.830392000000018
20
-84.695762000000002
10
85.453858999999994
20
-71.172801000000007
0
LWPOLYLINE
5
164
100
AcDbEntity
8
0
100
AcDbPolyline
90
4
70
1
43
0.0
10
50.042775000000006
20
-56.508047000000005
10
53.666242000000004
20
-42.985085999999995
10
67.285796000000005
20
-46.634434000000013
10
63.662329000000007
20
-60.157395999999999
0
LWPOLYLINE
5
165
100
AcDbEntity
8
0
100
AcDbPolyline
90
4
70
1
43
0.0
10
262.74305700000002
20
-60.118848999999997
10
259.11959000000002
20
-46.595886999999998
10
272.73914400000001
20
-42.946538000000004
10
276.36261100000002
20
-56.469501000000008
0
LWPOLYLINE
5
166
100
AcDbEntity
8
0
100
AcDbPolyline
90
4
70
1
43
0.0
10
102.771171
20
-79.954071999999996
10
116.390725
20
-83.603420000000014
10
112.76725800000001
20
-97.126382000000007
10
99.147704000000019
20
-93.477032999999992
0
LWPOLYLINE
5
167
100
AcDbEntity
8
0
100
AcDbPolyline
90
4
70
1
43
0.0
10
280.70740899999998
20
-53.75239100000001
10
294.32696299999998
20
-50.103042000000002
10
297.95042999999998
20
-63.626005000000006
10
284.33087599999999
20
-67.27535300000001
0
LWPOLYLINE
5
168
100
AcDbEntity
8
0
100
AcDbPolyline
90
4
70
1
43
0.0
10
210.01465499999998
20
-83.564864
10
223.634209
20
-79.915514999999999
10
227.25767599999998
20
-93.438478000000003
10
213.63812200000001
20
-97.087826000000007
0
LWPOLYLINE
5
169
100
AcDbEntity
8
0
100
AcDbPolyline
90
4
70
1
43
0.0
10
302.86798700000008
20
-81.978599000000003
10
289.24843300000009
20
-85.627946999999992
10
285.62496600000003
20
-72.104984999999999
10
299.24452000000002
20
-68.455635999999998
0
LWPOLYLINE
5
170
100
AcDbEntity
8
0
100
AcDbPolyline
90
4
70
1
43
0.0
10
239.73170800000003
20
-47.649746999999998
10
253.35126200000005
20
-44.000398000000004
10
256.97472900000002
20
-57.523361000000008
10
243.35517500000003
20
-61.172709000000005
0
LWPOLYLINE
5
171
100
AcDbEntity
8
0
100
AcDbPolyline
90
4
70
1
43
0.0
10
62.368236000000003
20
-64.987030000000004
10
58.744768999999991
20
-78.509992000000011
10
45.125215000000011
20
-74.86064300000001
10
48.748682000000009
20
-61.337681999999994
0
LWPOLYLINE
5
172
100
AcDbEntity
8
0
100
AcDbPolyline
90
4
70
1
43
0.0
10
81.756101000000001
20
-66.040889000000007
10
78.132633999999996
20
-79.563851
10
64.513080000000002
20
-75.914501999999999
10
68.136546999999993
20
-62.391541000000004
0
LWPOLYLINE
5
173
100
AcDbEntity
8
0
100
AcDbPolyline
90
4
70
1
43
0.0
10
227.33196200000003
20
-74.783603999999997
10
240.95151600000005
20
-71.134255000000024
10
244.574983
20
-84.657218
10
230.95542900000001
20
-88.306566000000004
0
LWPOLYLINE
5
174
100
AcDbEntity
8
0
100
AcDbPolyline
90
4
70
1
43
0.0
10
264.91012799999999
20
-87.138645999999994
10
268.53359499999999
20
-100.661609
10
254.91404100000005
20
-104.310957
10
251.29057400000005
20
-90.787995000000009
0
LWPOLYLINE
5
175
100
AcDbEntity
8
0
100
AcDbPolyline
90
3
70
1
43
0.0
10
273.26663500000001
20
-99.393396999999993
10
269.643168
20
-85.870435000000001
10
286.886189
20
-95.744049000000018
0
LWPOLYLINE
5
176
100
AcDbEntity
8
0
100
AcDbPolyline
90
4
70
1
43
0.0
10
179.03649763231076
20
-67.446719999999999
10
147.09584337311392
20
-67.446719999999999
10
147.09584337311392
20
-102.70709390235692
10
179.03649763231076
20
-102.70709390235692
0
LWPOLYLINE
5
177
100
AcDbEntity
8
0
100
AcDbPolyline
90
4
70
1
43
0.0
10
248.27274000000003
20
-79.525299000000004
10
244.64927299999999
20
-66.002337000000011
10
258.26882699999999
20
-62.352988000000011
10
261.89229399999999
20
-75.875951000000001
0
LWPOLYLINE
5
178
100
AcDbEntity
8
0
100
AcDbPolyline
90
4
70
1
43
0.0
10
205.57058999999998
20
-117.07839
10
215.47008500000004
20
-126.97788500000001
10
205.49987900000002
20
-136.94809100000001
10
195.60038400000002
20
-127.04859599999999
0
LWPOLYLINE
5
179
100
AcDbEntity
8
0
100
AcDbPolyline
90
4
70
1
43
0.0
10
264.037149
20
-64.948478000000009
10
277.65670299999999
20
-61.299129000000008
10
281.28017
20
-74.822091999999998
10
267.660616
20
-78.471440000000001
0
LINE
5
180
100
AcDbEntity
8
0
100
AcDbLine
10
283.262722
20
-82.221086
30
0
11
286.886189
21
-95.744049000000018
31
0
0
LWPOLYLINE
5
181
100
AcDbEntity
8
0
100
AcDbPolyline
90
4
70
1
43
0.0
10
223.38775400000003
20
-103.74360500000002
10
231.41782500000002
20
-115.21173400000002
10
219.86778100000004
20
-123.29916200000001
10
211.83771100000001
20
-111.83103300000001
0
LWPOLYLINE
5
182
100
AcDbEntity
8
0
100
AcDbPolyline
90
4
70
1
43
0.0
10
46.992055000000008
20
-48.961316000000004
10
33.372501
20
-45.311966999999996
10
36.995968000000005
20
-31.789006000000004
10
50.615522000000006
20
-35.438353999999997
0
LWPOLYLINE
5
183
100
AcDbEntity
8
0
100
AcDbPolyline
90
4
70
1
43
0.0
10
61.495250000000006
20
-87.177199000000002
10
75.114804000000007
20
-90.826546999999991
10
71.491337000000001
20
-104.34950900000001
10
57.871783000000001
20
-100.70016000000001
0
LWPOLYLINE
5
184
100
AcDbEntity
8
0
100
AcDbPolyline
90
4
70
1
43
0.0
10
82.950178000000022
20
-93.641197000000005
10
95.729118
20
-99.600114000000005
10
89.812461999999996
20
-112.28842299999999
10
77.033523000000002
20
-106.32950600000001
0
LINE
5
185
100
AcDbEntity
8
0
100
AcDbLine
10
269.643168
20
-85.870435000000001
30
0
11
283.262722
21
-82.221086
31
0
0
LWPOLYLINE
5
186
100
AcDbEntity
8
0
100
AcDbPolyline
90
4
70
1
43
0.0
10
243.26289500000001
20
-93.700556000000006
10
249.179551
20
-106.388865
10
236.400611
20
-112.34778200000001
10
230.48395600000003
20
-99.659472999999991
0
LWPOLYLINE
5
187
100
AcDbEntity
8
0
100
AcDbPolyline
90
3
70
1
43
0.0
10
53.138743000000012
20
-99.431943000000018
10
39.519189000000011
20
-95.782593999999989
10
56.762209999999996
20
-85.908981000000026
0
LWPOLYLINE
5
188
100
AcDbEntity
8
0
100
AcDbPolyline
90
4
70
1
43
0.0
10
96.583068999999995
20
-29.637999000000001
10
100.20653600000001
20
-16.115038000000006
10
113.82609000000001
20
-19.764385999999998
10
110.202623
20
-33.287348000000001
0
LINE
5
189
100
AcDbEntity
8
0
100
AcDbLine
10
43.142656000000002
20
-82.259633000000008
30
0
11
56.762209999999996
21
-85.908981000000026
31
0
0
LINE
5
190
100
AcDbEntity
8
0
100
AcDbLine
10
39.519189000000011
20
-95.782593999999989
30
0
11
43.142656000000002
21
-82.259633000000008
31
0
0
LWPOLYLINE
5
191
100
AcDbEntity
8
0
100
AcDbPolyline
90
4
70
1
43
0.0
10
113.90038400000002
20
-38.419265000000003
10
117.52385100000001
20
-24.896304000000001
10
131.143405
20
-28.545652
10
127.519938
20
-42.068614000000004
0
SPLINE
5
192
100
AcDbEntity
8
0
100
AcDbSpline
70
0
71
3
72
8
73
4
74
0
42
0.000000001
43
0.0000000001
44
0.0000000001
40
0
40
0
40
0
40
0
40
1
40
1
40
1
40
1
10
248.15654800000002
20
-4.9132910000000001
30
0
10
247.59388000000001
20
-2.7678279999999997
30
0
10
245.39851200000001
20
-1.4847140000000001
30
0
10
243.25304500000001
20
-2.0473699999999999
30
0
0
SPLINE
5
193
100
AcDbEntity
8
0
100
AcDbSpline
70
0
71
3
72
8
73
4
74
0
42
0.000000001
43
0.0000000001
44
0.0000000001
40
0
40
0
40
0
40
0
40
1
40
1
40
1
40
1
10
227.61656700000003
20
-6.2003770000000005
30
0
10
225.47110000000004
20
-6.7630380000000017
30
0
10
224.18798100000004
20
-8.9584089999999996
30
0
10
224.75064000000003
20
-11.103876
30
0
0
LWPOLYLINE
5
194
100
AcDbEntity
8
0
100
AcDbPolyline
90
4
70
1
43
0.0
10
158.79840799999999
20
-37.020047999999996
10
167.29840800000002
20
-37.020047999999996
10
167.29840865551569
20
-29.809375381121587
10
158.79840865551574
20
-29.809374608394315
0
SPLINE
5
195
100
AcDbEntity
8
0
100
AcDbSpline
70
0
71
3
72
8
73
4
74
0
42
0.000000001
43
0.0000000001
44
0.0000000001
40
0
40
0
40
0
40
0
40
1
40
1
40
1
40
1
10
101.937377
20
-10.925333000000002
30
0
10
102.256826
20
-9.8837130000000002
30
0
10
102.14067400000002
20
-8.7571119999999993
30
0
10
101.61542500000002
20
-7.8025790000000006
30
0
0
SPLINE
5
196
100
AcDbEntity
8
0
100
AcDbSpline
70
0
71
3
72
8
73
4
74
0
42
0.000000001
43
0.0000000001
44
0.0000000001
40
0
40
0
40
0
40
0
40
1
40
1
40
1
40
1
10
101.61542500000002
20
-7.8025790000000006
30
0
10
101.090175
20
-6.848046000000001
30
0
10
100.20063700000001
20
-6.1470150000000015
30
0
10
99.149772000000013
20
-5.8594360000000005
30
0
0
SPLINE
5
197
100
AcDbEntity
8
0
100
AcDbSpline
70
0
71
3
72
8
73
4
74
0
42
0.000000001
43
0.0000000001
44
0.0000000001
40
0
40
0
40
0
40
0
40
1
40
1
40
1
40
1
10
117.90985300000001
20
-140.98461499999999
30
0
10
118.67000300000001
20
-141.82028600000001
30
0
10
119.717016
20
-142.33899600000001
30
0
10
120.84239600000001
20
-142.43745200000001
30
0
0
CIRCLE
5
198
100
AcDbEntity
8
0
100
AcDbCircle
10
38.016259000000005
20
-18.695098000000002
30
0
40
1.2500000000000004
210
0
220
0
230
1
0
CIRCLE
5
199
100
AcDbEntity
8
0
100
AcDbCircle
10
24.028677999999999
20
-71.868339000000006
30
0
40
1.2499999999999998
210
0
220
0
230
1
0
CIRCLE
5
200
100
AcDbEntity
8
0
100
AcDbCircle
10
87.489848000000009
20
-54.010916000000009
30
0
40
1.2499999999999936
210
0
220
0
230
1
0
CIRCLE
5
201
100
AcDbEntity
8
0
100
AcDbCircle
10
76.923347000000007
20
-98.027477000000005
30
0
40
1.2499999999999987
210
0
220
0
230
1
0
CIRCLE
5
202
100
AcDbEntity
8
0
100
AcDbCircle
10
117.993156
20
-96.38068100000001
30
0
40
1.2499999999999929
210
0
220
0
230
1
0
CIRCLE
5
203
100
AcDbEntity
8
0
100
AcDbCircle
10
163.208494
20
-136.157871
30
0
40
1.2499999999999969
210
0
220
0
230
1
0
CIRCLE
5
204
100
AcDbEntity
8
0
100
AcDbCircle
10
178.56025900000003
20
-137.62403999999998
30
0
40
1.7500000000000091
210
0
220
0
230
1
0
CIRCLE
5
205
100
AcDbEntity
8
0
100
AcDbCircle
10
206.96913100000003
20
-96.540216000000001
30
0
40
1.2500000000000053
210
0
220
0
230
1
0
CIRCLE
5
206
100
AcDbEntity
8
0
100
AcDbCircle
10
249.55066700000003
20
-98.255522000000013
30
0
40
1.2499999999999925
210
0
220
0
230
1
0
CIRCLE
5
207
100
AcDbEntity
8
0
100
AcDbCircle
10
239.29047600000001
20
-55.215975
30
0
40
1.25
210
0
220
0
230
1
0
CIRCLE
5
208
100
AcDbEntity
8
0
100
AcDbCircle
10
194.69334200000003
20
-35.969633000000002
30
0
40
1.25
210
0
220
0
230
1
0
CIRCLE
5
209
100
AcDbEntity
8
0
100
AcDbCircle
10
288.41554500000001
20
-18.555421000000003
30
0
40
1.25
210
0
220
0
230
1
0
CIRCLE
5
210
100
AcDbEntity
8
0
100
AcDbCircle
10
303.13518199999999
20
-73.441378999999998
30
0
40
1.25
210
0
220
0
230
1
0
LINE
5
211
100
AcDbEntity
8
0
100
AcDbLine
10
36.228400000000001
20
-90.437018000000009
30
0
11
34.856724999999997
21
-95.57224699999999
31
0
0
LINE
5
212
100
AcDbEntity
8
0
100
AcDbLine
10
37.670315000000002
20
-100.505966
30
0
11
72.73042199999999
21
-109.495144
31
0
0
LINE
5
213
100
AcDbEntity
8
0
100
AcDbLine
10
72.73042199999999
20
-109.495144
30
0
11
90.120218000000008
21
-117.64577299999999
31
0
0
LINE
5
214
100
AcDbEntity
8
0
100
AcDbLine
10
90.120218000000008
20
-117.64577299999999
30
0
11
105.47313100000002
21
-128.677852
31
0
0
LINE
5
215
100
AcDbEntity
8
0
100
AcDbLine
10
105.47313100000002
20
-128.677852
30
0
11
117.90985300000001
21
-140.98461499999999
31
0
0
LINE
5
216
100
AcDbEntity
8
0
100
AcDbLine
10
120.84239600000001
20
-142.43745200000001
30
0
11
205.36975600000002
21
-142.43745000000001
31
0
0
LINE
5
217
100
AcDbEntity
8
0
100
AcDbLine
10
208.30229599999998
20
-140.98461600000002
30
0
11
220.73901300000003
21
-128.67784800000004
31
0
0
LINE
5
218
100
AcDbEntity
8
0
100
AcDbLine
10
220.73901300000003
20
-128.67784800000004
30
0
11
236.091928
21
-117.645771
31
0
0
LINE
5
219
100
AcDbEntity
8
0
100
AcDbLine
10
236.091928
20
-117.645771
30
0
11
253.48172400000004
21
-109.49514000000001
31
0
0
LINE
5
220
100
AcDbEntity
8
0
100
AcDbLine
10
253.48172400000004
20
-109.49514000000001
30
0
11
288.850076
21
-100.42337700000002
31
0
0
LINE
5
221
100
AcDbEntity
8
0
100
AcDbLine
10
291.50016299999999
20
-95.440765000000013
30
0
11
290.155281
21
-90.439464000000015
31
0
0
LINE
5
222
100
AcDbEntity
8
0
100
AcDbLine
10
290.155281
20
-90.439464000000015
30
0
11
323.24722900000006
21
-81.645184
31
0
0
LINE
5
223
100
AcDbEntity
8
0
100
AcDbLine
10
326.11316600000004
20
-76.741668000000004
30
0
11
307.28249700000003
21
-6.5159549999999999
31
0
0
LINE
5
224
100
AcDbEntity
8
0
100
AcDbLine
10
269.53222099999999
20
-12.658236
30
0
11
302.37900299999995
21
-3.6500140000000005
31
0
0
LINE
5
225
100
AcDbEntity
8
0
100
AcDbLine
10
269.53222099999999
20
-12.658236
30
0
11
266.814617
21
-2.5160169999999997
31
0
0
LINE
5
226
100
AcDbEntity
8
0
100
AcDbLine
10
262.54163399999999
20
-0.92350200000000005
30
0
11
248.15654800000002
21
-4.9132910000000001
31
0
0
LINE
5
227
100
AcDbEntity
8
0
100
AcDbLine
10
243.25304500000001
20
-2.0473699999999999
30
0
11
227.61656700000003
21
-6.2003770000000005
31
0
0
LINE
5
228
100
AcDbEntity
8
0
100
AcDbLine
10
224.75064000000003
20
-11.103876
30
0
11
210.26815099999999
21
-15.048987
31
0
0
LINE
5
229
100
AcDbEntity
8
0
100
AcDbLine
10
207.40221599999998
20
-19.952505000000002
30
0
11
192.94766100000004
21
-23.766805999999999
31
0
0
LINE
5
230
100
AcDbEntity
8
0
100
AcDbLine
10
133.51752400000004
20
-23.788952000000002
30
0
11
119.26076500000001
21
-19.835076999999998
31
0
0
LINE
5
231
100
AcDbEntity
8
0
100
AcDbLine
10
116.447175
20
-14.901347000000001
30
0
11
101.937377
21
-10.925333000000002
31
0
0
LINE
5
232
100
AcDbEntity
8
0
100
AcDbLine
10
99.149772000000013
20
-5.8594360000000005
30
0
11
82.895333999999991
21
-1.5134829999999999
31
0
0
LINE
5
233
100
AcDbEntity
8
0
100
AcDbLine
10
78.322160999999994
20
-4.2089660000000002
30
0
11
62.928797000000003
21
-0.10786500000000002
31
0
0
LINE
5
234
100
AcDbEntity
8
0
100
AcDbLine
10
58.908177000000002
20
-1.9926869999999999
30
0
11
56.19059
21
-12.134909
31
0
0
LINE
5
235
100
AcDbEntity
8
0
100
AcDbLine
10
56.19059
20
-12.134909
30
0
11
24.032743
21
-3.540842
31
0
0
LINE
5
236
100
AcDbEntity
8
0
100
AcDbLine
10
19.099026000000002
20
-6.354445000000001
30
0
11
0.20456100000000088
21
-76.602990000000005
31
0
0
LINE
5
237
100
AcDbEntity
8
0
100
AcDbLine
10
3.0181499999999999
20
-81.536723999999992
30
0
11
36.228400000000001
21
-90.437018000000009
31
0
0
SPLINE
5
238
100
AcDbEntity
8
0
100
AcDbSpline
70
0
71
3
72
11
73
7
74
0
42
0.000000001
43
0.0000000001
44
0.0000000001
40
0.12335298049406132
40
0.12335298049406132
40
0.12335298049406132
40
0.12335298049406132
40
0.88449960801198502
40
0.88449960801198502
40
0.88449960801198502
40
1
40
1
40
1
40
1
10
120.3926974687466
20
-19.111255056894656
30
0
10
120.53017845372747
20
-17.090119796690388
30
0
10
119.42014422966781
20
-15.160191446359864
30
0
10
117.59008790181363
20
-14.267753484248065
30
0
10
117.31238553069943
20
-14.132330254712082
30
0
10
117.01843726825265
20
-14.020910990958876
30
0
10
116.71113345715725
20
-13.936812934921168
30
0
0
LINE
5
239
100
AcDbEntity
8
0
100
AcDbLine
10
116.71113345715725
20
-13.936812934921168
30
0
11
103.09325370012645
21
-10.205204720885014
31
0
0
SPLINE
5
240
100
AcDbEntity
8
0
100
AcDbSpline
70
0
71
3
72
8
73
4
74
0
42
0.000000001
43
0.0000000001
44
0.0000000001
40
0.25581687030325195
40
0.25581687030325195
40
0.25581687030325195
40
0.25581687030325195
40
1
40
1
40
1
40
1
10
103.09325370012645
20
-10.205204720885028
30
0
10
103.18458597800506
20
-9.2128039016840564
30
0
10
102.97931770269801
20
-8.2069133490985209
30
0
10
102.4915417420673
20
-7.3204799603082353
30
0
0
SPLINE
5
241
100
AcDbEntity
8
0
100
AcDbSpline
70
0
71
3
72
11
73
7
74
0
42
0.000000001
43
0.0000000001
44
0.0000000001
40
0
40
0
40
0
40
0
40
1
40
1
40
1
40
1.0008964691032192
40
1.0008964691032192
40
1.0008964691032192
40
1.0008964691032192
10
102.49154135439086
20
-7.3204792557860143
30
0
10
101.83608829985154
20
-6.1293291929424534
30
0
10
100.72508808207103
20
-5.2537671691841599
30
0
10
99.413726064154645
20
-4.8949007327243201
30
0
10
99.412783996150495
20
-4.8946429270360836
30
0
10
99.41184192814633
20
-4.894385121347848
30
0
10
99.410899860142734
20
-4.8941273156597678
30
0
0
LINE
5
242
100
AcDbEntity
8
0
100
AcDbLine
10
99.410899860142706
20
-4.8941273156597678
30
0
11
83.142627840756347
21
-0.54447551056669763
31
0
0
SPLINE
5
243
100
AcDbEntity
8
0
100
AcDbSpline
70
0
71
3
72
11
73
7
74
0
42
0.000000001
43
0.0000000001
44
0.0000000001
40
-0.0018421768292929599
40
-0.0018421768292929599
40
-0.0018421768292929599
40
-0.0018421768292929599
40
0
40
0
40
0
40
0.86898144734841731
40
0.86898144734841731
40
0.86898144734841731
40
0.86898144734841731
10
83.142627840756717
20
-0.54447551056679266
30
0
10
83.138938679016576
20
-0.5435786504617981
30
0
10
83.135249517276449
20
-0.54268179035680708
30
0
10
83.131560355536337
20
-0.5417849302518184
30
0
10
80.943541674777975
20
-0.0098628292487053411
30
0
10
78.714554451636019
20
-1.0765944204734286
30
0
10
77.719460764949517
20
-3.0135130837316293
30
0
0
LINE
5
244
100
AcDbEntity
8
0
100
AcDbLine
10
77.719460764949503
20
-3.0135130837316293
30
0
11
63.134087743360269
21
0.87232290924640965
31
0
0
SPLINE
5
245
100
AcDbEntity
8
0
100
AcDbSpline
70
0
71
3
72
14
73
10
74
0
42
0.000000001
43
0.0000000001
44
0.0000000001
40
-0.011123299832627241
40
-0.011123299832627241
40
-0.011123299832627241
40
-0.011123299832627241
40
0
40
0
40
0
40
1
40
1
40
1
40
1.0290157703113116
40
1.0290157703113116
40
1.0290157703113116
40
1.0290157703113116
10
63.134087743360269
20
0.87232290924641176
30
0
10
63.116307137454477
20
0.87505639344048436
30
0
10
63.098526531548728
20
0.87778987763455329
30
0
10
63.080745925642972
20
0.88052336182862245
30
0
10
61.084024021737577
20
1.1874874660445915
30
0
10
59.092529487613731
20
0.25389675201530737
30
0
10
58.051250617950942
20
-1.4772481524626531
30
0
10
58.027062810677499
20
-1.5174608183793925
30
0
10
58.002875003404064
20
-1.5576734842961333
30
0
10
57.978687196130622
20
-1.5978861502128705
30
0
0
LINE
5
246
100
AcDbEntity
8
0
100
AcDbLine
10
57.978687196130608
20
-1.5978861502128707
30
0
11
55.483312337073073
21
-10.910797123727441
31
0
0
LINE
5
247
100
AcDbEntity
8
0
100
AcDbLine
10
55.483312337073073
20
-10.910797123727441
30
0
11
24.293656959325077
21
-2.5754757938114015
31
0
0
SPLINE
5
248
100
AcDbEntity
8
0
100
AcDbSpline
70
0
71
3
72
14
73
10
74
0
42
0.000000001
43
0.0000000001
44
0.0000000001
40
0.00038062158003426366
40
0.00038062158003426366
40
0.00038062158003426366
40
0.00038062158003426366
40
0.88449648652519874
40
0.88449648652519874
40
0.88449648652519874
40
1
40
1
40
1
40
1.0003284138771675
40
1.0003284138771675
40
1.0003284138771675
40
1.0003284138771675
10
24.293656959325332
20
-2.5754757938104667
30
0
10
21.941272281896943
20
-1.9332890130363001
30
0
10
19.502055765611921
20
-3.0857971205793486
30
0
10
18.465437534202881
20
-5.2115127918809936
30
0
10
18.330010660184275
20
-5.4892225790467446
30
0
10
18.218589127267347
20
-5.7831791580669059
30
0
10
18.134490463271895
20
-6.0904919204746033
30
0
10
18.134298192053862
20
-6.0911945166436343
30
0
10
18.134105920835829
20
-6.0918971128126813
30
0
10
18.1339136496176
20
-6.0925997089824557
30
0
0
LINE
5
249
100
AcDbEntity
8
0
100
AcDbLine
10
18.133913649617597
20
-6.0925997089824548
30
0
11
-0.75997339819108944
21
-76.339032760075668
31
0
0
SPLINE
5
250
100
AcDbEntity
8
0
100
AcDbSpline
70
0
71
3
72
8
73
4
74
0
42
0.000000001
43
0.0000000001
44
0.0000000001
40
0
40
0
40
0
40
0
40
1
40
1
40
1
40
1
10
-0.75997339819109
20
-76.339032760075668
30
0
10
-1.1110279499740396
20
-77.621832167029879
30
0
10
-0.93797384468720879
20
-78.992647082285771
30
0
10
-0.27912900405672619
20
-80.147955198858199
30
0
0
SPLINE
5
251
100
AcDbEntity
8
0
100
AcDbSpline
70
0
71
3
72
11
73
7
74
0
42
0.000000001
43
0.0000000001
44
0.0000000001
40
2.0440433882234026e-07
40
2.0440433882234026e-07
40
2.0440433882234026e-07
40
2.0440433882234026e-07
40
1
40
1
40
1
40
1.0008254915057617
40
1.0008254915057617
40
1.0008254915057617
40
1.0008254915057617
10
-0.27912900405695951
20
-80.147955198858341
30
0
10
0.37971499756683558
20
-81.303263597387954
30
0
10
1.471395682033384
20
-82.150206981017831
30
0
10
2.7541945069482896
20
-82.501258876243526
30
0
10
2.7550425830763525
20
-82.501490961529456
30
0
10
2.7558906592043542
20
-82.501723046815357
30
0
10
2.7567387353279167
20
-82.501955132100036
30
0
0
LINE
5
252
100
AcDbEntity
8
0
100
AcDbLine
10
2.7567387353279171
20
-82.501955132100051
30
0
11
35.004422411540624
21
-91.14428289347731
31
0
0
LINE
5
253
100
AcDbEntity
8
0
100
AcDbLine
10
35.004422411540624
20
-91.14428289347731
30
0
11
33.891341148747017
21
-95.311397683828019
31
0
0
SPLINE
5
254
100
AcDbEntity
8
0
100
AcDbSpline
70
0
71
3
72
8
73
4
74
0
42
0.000000001
43
0.0000000001
44
0.0000000001
40
0.00080766821010629574
40
0.00080766821010629574
40
0.00080766821010629574
40
0.00080766821010629574
40
1
40
1
40
1
40
1
10
33.891341148746044
20
-95.311397683827749
30
0
10
33.541415084156107
20
-96.593301273127793
30
0
10
33.714722044993501
20
-97.962834512855252
30
0
10
34.373035687141346
20
-99.117207410896896
30
0
0
SPLINE
5
255
100
AcDbEntity
8
0
100
AcDbSpline
70
0
71
3
72
11
73
7
74
0
42
0.000000001
43
0.0000000001
44
0.0000000001
40
1.1656747066904324e-07
40
1.1656747066904324e-07
40
1.1656747066904324e-07
40
1.1656747066904324e-07
40
1
40
1
40
1
40
1.0025240597653005
40
1.0025240597653005
40
1.0025240597653005
40
1.0025240597653005
10
34.373035687141268
20
-99.117207410896924
30
0
10
35.031881133056586
20
-100.27251384274221
30
0
10
36.123563069802486
20
-101.11945462900385
30
0
10
37.406363000701319
20
-101.47050183234037
30
0
10
37.408956116217894
20
-101.47121145659908
30
0
10
37.411549231734433
20
-101.47192108085775
30
0
10
37.414142347247783
20
-101.47263070511556
30
0
0
LINE
5
256
100
AcDbEntity
8
0
100
AcDbLine
10
37.414142347247775
20
-101.47263070511556
30
0
11
72.391075138533111
21
-110.44048339178602
31
0
0
LINE
5
257
100
AcDbEntity
8
0
100
AcDbLine
10
72.391075138533111
20
-110.44048339178602
30
0
11
89.611923756134246
21
-118.51192644650786
31
0
0
LINE
5
258
100
AcDbEntity
8
0
100
AcDbLine
10
89.611923756134246
20
-118.51192644650786
30
0
11
104.82568570544964
21
-129.44401625331139
31
0
0
LINE
5
259
100
AcDbEntity
8
0
100
AcDbLine
10
104.82568570544964
20
-129.44401625331139
30
0
11
117.1887291456616
21
-141.677870606363
31
0
0
SPLINE
5
260
100
AcDbEntity
8
0
100
AcDbSpline
70
0
71
3
72
11
73
7
74
0
42
0.000000001
43
0.0000000001
44
0.0000000001
40
0.0066628240591330963
40
0.0066628240591330963
40
0.0066628240591330963
40
0.0066628240591330963
40
1
40
1
40
1
40
1.0128827425025568
40
1.0128827425025568
40
1.0128827425025568
40
1.0128827425025568
10
117.18872914566175
20
-141.67787060636283
30
0
10
118.11628499144982
20
-142.68735556453851
30
0
10
119.38888736065269
20
-143.31410874295449
30
0
10
120.75524200603219
20
-143.4336468660467
30
0
10
120.76973998678973
20
-143.43491524934251
30
0
10
120.78423796754726
20
-143.43618363263835
30
0
10
120.79873594830494
20
-143.43745201593418
30
0
0
LINE
5
261
100
AcDbEntity
8
0
100
AcDbLine
10
120.79873594830491
20
-143.43745201593416
30
0
11
205.41341567220204
21
-143.43745001386782
31
0
0
SPLINE
5
262
100
AcDbEntity
8
0
100
AcDbSpline
70
0
71
3
72
11
73
7
74
0
42
0.000000001
43
0.0000000001
44
0.0000000001
40
-0.012882628915019276
40
-0.012882628915019276
40
-0.012882628915019276
40
-0.012882628915019276
40
0
40
0
40
0
40
0.99333721368342809
40
0.99333721368342809
40
0.99333721368342809
40
0.99333721368342809
10
205.41341567220204
20
-143.43745001386787
30
0
10
205.42791351224764
20
-143.43618165463806
30
0
10
205.44241135229342
20
-143.43491329540822
30
0
10
205.45690919233917
20
-143.43364493617838
30
0
10
206.82326313259776
20
-143.31410798268254
30
0
10
208.09586495409005
20
-142.68735570207559
30
0
10
209.02342001586842
20
-141.67787143233056
30
0
0
LINE
5
263
100
AcDbEntity
8
0
100
AcDbLine
10
209.02342001586842
20
-141.67787143233056
30
0
11
221.38645840686542
21
-129.44401218691306
31
0
0
LINE
5
264
100
AcDbEntity
8
0
100
AcDbLine
10
221.38645840686542
20
-129.44401218691306
30
0
11
236.60022221506537
21
-118.51192445035778
31
0
0
LINE
5
265
100
AcDbEntity
8
0
100
AcDbLine
10
236.60022221506537
20
-118.51192445035778
30
0
11
253.8211139585747
21
-110.44045920187006
31
0
0
LINE
5
266
100
AcDbEntity
8
0
100
AcDbLine
10
253.8211139585747
20
-110.44045920187006
30
0
11
289.10129558269995
21
-101.3913113566155
31
0
0
SPLINE
5
267
100
AcDbEntity
8
0
100
AcDbSpline
70
0
71
3
72
11
73
7
74
0
42
0.000000001
43
0.0000000001
44
0.0000000001
40
-0.00088889046707182223
40
-0.00088889046707182223
40
-0.00088889046707182223
40
-0.00088889046707182223
40
0
40
0
40
0
40
1
40
1
40
1
40
1
10
289.10129558270245
20
-101.39131135661488
30
0
10
289.10221698078033
20
-101.39106940240819
30
0
10
289.10313837886065
20
-101.39082744820084
30
0
10
289.10405977694103
20
-101.39058549399348
30
0
10
290.41003658437603
20
-101.04764297000796
30
0
10
291.51444317166016
20
-100.17377143967474
30
0
10
292.14849522218617
20
-98.981644477160643
30
0
0
SPLINE
5
268
100
AcDbEntity
8
0
100
AcDbSpline
70
0
71
3
72
8
73
4
74
0
42
0.000000001
43
0.0000000001
44
0.0000000001
40
2.0337180681487906e-07
40
2.0337180681487906e-07
40
2.0337180681487906e-07
40
2.0337180681487906e-07
40
0.99037343323587257
40
0.99037343323587257
40
0.99037343323587257
40
0.99037343323587257
10
292.14849522218628
20
-98.981644477160842
30
0
10
292.77644378225591
20
-97.800994988585316
30
0
10
292.88768755126807
20
-96.412301571718785
30
0
10
292.456839565618
20
-95.147548529441309
30
0
0
LINE
5
269
100
AcDbEntity
8
0
100
AcDbLine
10
292.456839565618
20
-95.147548529441337
30
0
11
291.38142220590566
21
-91.148323380657843
31
0
0
LINE
5
270
100
AcDbEntity
8
0
100
AcDbLine
10
291.38142220590566
20
-91.148323380657843
30
0
11
323.50090364656364
21
-82.61247361717426
31
0
0
SPLINE
5
271
100
AcDbEntity
8
0
100
AcDbSpline
70
0
71
3
72
8
73
4
74
0
42
0.000000001
43
0.0000000001
44
0.0000000001
40
0
40
0
40
0
40
0
40
1
40
1
40
1
40
1
10
323.50090364656364
20
-82.61247361717426
30
0
10
324.78736864531606
20
-82.275094255211982
30
0
10
325.88800222181243
20
-81.439815658316775
30
0
10
326.55910496224493
20
-80.291583527531742
30
0
0
SPLINE
5
272
100
AcDbEntity
8
0
100
AcDbSpline
70
0
71
3
72
11
73
7
74
0
42
0.000000001
43
0.0000000001
44
0.0000000001
40
0
40
0
40
0
40
0
40
1
40
1
40
1
40
1.0008607458306897
40
1.0008607458306897
40
1.0008607458306897
40
1.0008607458306897
10
326.55910537125226
20
-80.291582827734587
30
0
10
327.23020682048661
20
-79.143350769769057
30
0
10
327.41783909599684
20
-77.774453756845531
30
0
10
327.08045463526605
20
-76.487989609340488
30
0
10
327.08022206002067
20
-76.487102788074196
30
0
10
327.07998948477552
20
-76.486215966808331
30
0
10
327.07975690952884
20
-76.485329145536937
30
0
0
LINE
5
273
100
AcDbEntity
8
0
100
AcDbLine
10
327.0797569095289
20
-76.485329145536937
30
0
11
308.24904912391946
21
-6.2594715013334312
31
0
0
SPLINE
5
274
100
AcDbEntity
8
0
100
AcDbSpline
70
0
71
3
72
8
73
4
74
0
42
0.000000001
43
0.0000000001
44
0.0000000001
40
0.00072837704399573197
40
0.00072837704399573197
40
0.00072837704399573197
40
0.00072837704399573197
40
1
40
1
40
1
40
1
10
308.24904912391941
20
-6.2594715013334481
30
0
10
307.91119493814091
20
-4.9742169450548896
30
0
10
307.07630105373232
20
-3.8746988070003328
30
0
10
305.92890986336249
20
-3.2040834029732275
30
0
0
SPLINE
5
275
100
AcDbEntity
8
0
100
AcDbSpline
70
0
71
3
72
11
73
7
74
0
42
0.000000001
43
0.0000000001
44
0.0000000001
40
0
40
0
40
0
40
0
40
1
40
1
40
1
40
1.0017510294513126
40
1.0017510294513126
40
1.0017510294513126
40
1.0017510294513126
10
305.92890916356572
20
-3.2040829939635613
30
0
10
304.78068136446632
20
-2.5329798661075604
30
0
10
303.41178846969603
20
-2.3453449914755238
30
0
10
302.12532743194765
20
-2.6827246244894178
30
0
10
302.12352336206311
20
-2.6831977491451315
30
0
10
302.12171929217857
20
-2.6836708738008364
30
0
10
302.11991522229567
20
-2.6841439984561282
30
0
0
LINE
5
276
100
AcDbEntity
8
0
100
AcDbLine
10
270.23780384557085
20
-11.427805313900421
30
0
11
302.11991522229567
21
-2.6841439984561291
31
0
0
LINE
5
277
100
AcDbEntity
8
0
100
AcDbLine
10
270.23780384557085
20
-11.427805313900421
30
0
11
267.73624476017073
21
-2.09187554430595
31
0
0
SPLINE
5
278
100
AcDbEntity
8
0
100
AcDbSpline
70
0
71
3
72
14
73
10
74
0
42
0.000000001
43
0.0000000001
44
0.0000000001
40
-0.03411363361740824
40
-0.03411363361740824
40
-0.03411363361740824
40
-0.03411363361740824
40
0
40
0
40
0
40
1
40
1
40
1
40
1.0014028841126728
40
1.0014028841126728
40
1.0014028841126728
40
1.0014028841126728
10
267.73624476017073
20
-2.0918755443059607
30
0
10
267.70399243463078
20
-2.0448155820489151
30
0
10
267.67174010909082
20
-1.9977556197918989
30
0
10
267.63948778355081
20
-1.9506956575348822
30
0
10
266.45739151622053
20
-0.22587722062012622
30
0
10
264.31057641041951
20
0.57422750065030548
30
0
10
262.28795827801969
20
0.043787335142329298
30
0
10
262.28568885203089
20
0.043192168571914658
30
0
10
262.28341942604209
20
0.042597002001510592
30
0
10
262.28115000005482
20
0.042001835431503542
30
0
0
LINE
5
279
100
AcDbEntity
8
0
100
AcDbLine
10
262.28115000005482
20
0.042001835431503549
30
0
11
248.76779633679098
21
-3.7060070258850111
31
0
0
SPLINE
5
280
100
AcDbEntity
8
0
100
AcDbSpline
70
0
71
3
72
14
73
10
74
0
42
0.000000001
43
0.0000000001
44
0.0000000001
40
0.12536650206718905
40
0.12536650206718905
40
0.12536650206718905
40
0.12536650206718905
40
0.88449756641007937
40
0.88449756641007937
40
0.88449756641007937
40
1
40
1
40
1
40
1.0002349085719073
40
1.0002349085719073
40
1.0002349085719073
40
1.0002349085719073
10
248.76779633679098
20
-3.7060070258850142
30
0
10
247.87319743260201
20
-1.8954299511828743
30
0
10
245.95176346610742
20
-0.78542611372458604
30
0
10
243.92605169802536
20
-0.9272026709761505
30
0
10
243.61783793895893
20
-0.94877409409098667
30
0
10
243.30755673838399
20
-0.99925745774265951
30
0
10
242.99937003773908
20
-1.0800804656183618
30
0
10
242.99886604914968
20
-1.0802126383358981
30
0
10
242.9983620605604
20
-1.0803448110534031
30
0
10
242.99785807197816
20
-1.0804769837690549
30
0
0
LINE
5
281
100
AcDbEntity
8
0
100
AcDbLine
10
242.9978580719781
20
-1.0804769837690551
30
0
11
227.36288992854162
21
-5.2330880187650184
31
0
0
SPLINE
5
282
100
AcDbEntity
8
0
100
AcDbSpline
70
0
71
3
72
8
73
4
74
0
42
0.000000001
43
0.0000000001
44
0.0000000001
40
0
40
0
40
0
40
0
40
0.87733807505349914
40
0.87733807505349914
40
0.87733807505349914
40
0.87733807505349914
10
227.36288992854162
20
-5.2330880187650184
30
0
10
225.02195144205069
20
-5.8470125348482274
30
0
10
223.49008764174391
20
-8.0348121732751778
30
0
10
223.62679287454716
20
-10.373579706303737
30
0
0
LINE
5
283
100
AcDbEntity
8
0
100
AcDbLine
10
223.62679287454716
20
-10.373579706303737
30
0
11
210.00964011658706
21
-14.08296827439508
31
0
0
SPLINE
5
284
100
AcDbEntity
8
0
100
AcDbSpline
70
0
71
3
72
8
73
4
74
0
42
0.000000001
43
0.0000000001
44
0.0000000001
40
0.0012533311856727134
40
0.0012533311856727134
40
0.0012533311856727134
40
0.0012533311856727134
40
1
40
1
40
1
40
1
10
210.00964011658712
20
-14.082968274395327
30
0
10
208.72525239732173
20
-14.421170091539707
30
0
10
207.62653520614236
20
-15.255795570725548
30
0
10
206.95627438969768
20
-16.402590581272356
30
0
0
SPLINE
5
285
100
AcDbEntity
8
0
100
AcDbSpline
70
0
71
3
72
8
73
4
74
0
42
0.000000001
43
0.0000000001
44
0.0000000001
40
3.2188681147651925e-07
40
3.2188681147651925e-07
40
3.2188681147651925e-07
40
3.2188681147651925e-07
40
0.74599021821777778
40
0.74599021821777778
40
0.74599021821777778
40
0.74599021821777778
10
206.9562743896972
20
-16.402590581271991
30
0
10
206.45563816343216
20
-17.259161272656659
30
0
10
206.22392975683016
20
-18.238410812321789
30
0
10
206.27870636072788
20
-19.214748227445714
30
0
0
LINE
5
286
100
AcDbEntity
8
0
100
AcDbLine
10
206.27870636072785
20
-19.214748227445714
30
0
11
192.68260630541249
21
-22.802514911961474
31
0
0
SPLINE
5
287
100
AcDbEntity
8
0
100
AcDbSpline
70
0
71
3
72
8
73
4
74
0
42
0.000000001
43
0.0000000001
44
0.0000000001
40
0.0014218086192522325
40
0.0014218086192522325
40
0.0014218086192522325
40
0.0014218086192522325
40
0.87591545736249454
40
0.87591545736249454
40
0.87591545736249454
40
0.87591545736249454
10
192.68260630541249
20
-22.802514911961474
30
0
10
190.35187471135143
20
-23.419535910533508
30
0
10
188.82633641434634
20
-25.597945943662946
30
0
10
188.95723177282213
20
-27.928639514301707
30
0
0
LINE
5
288
100
AcDbEntity
8
0
100
AcDbLine
10
188.95723177282213
20
-27.928639514301707
30
0
11
173.97863220160687
21
-31.80937597351349
31
0
0
LINE
5
289
100
AcDbEntity
8
0
100
AcDbLine
10
173.97863220160687
20
-31.80937597351349
30
0
11
152.23349894629467
21
-31.809373996683195
31
0
0
LINE
5
290
100
AcDbEntity
8
0
100
AcDbLine
10
152.23349894629467
20
-31.809373996683195
30
0
11
137.46409490526037
21
-27.983176426479467
31
0
0
SPLINE
5
291
100
AcDbEntity
8
0
100
AcDbSpline
70
0
71
3
72
11
73
7
74
0
42
0.000000001
43
0.0000000001
44
0.0000000001
40
0.12531486982617965
40
0.12531486982617965
40
0.12531486982617965
40
0.12531486982617965
40
0.88449410190577715
40
0.88449410190577715
40
0.88449410190577715
40
1
40
1
40
1
40
1
10
137.46409490526037
20
-27.983176426479464
30
0
10
137.59482153192408
20
-25.967725552672487
30
0
10
136.48579578272484
20
-24.045514947349304
30
0
10
134.66047499696705
20
-23.155373948841994
30
0
10
134.38276018633997
20
-23.019942773806513
30
0
10
134.08879780931977
20
-22.908517842897986
30
0
10
133.78147864250249
20
-22.824416890994776
30
0
0
LINE
5
292
100
AcDbEntity
8
0
100
AcDbLine
10
133.78147864250249
20
-22.824416890994776
30
0
11
120.3926974687466
21
-19.111255056894656
31
0
0
CIRCLE
5
293
100
AcDbEntity
8
0
100
AcDbCircle
10
132.005427
20
-35.008390000000006
30
0
40
1.2499999999999987
210
0
220
0
230
1
0
LINE
5
294
100
AcDbEntity
8
0
100
AcDbLine
10
190.08172999999999
20
-28.670316
30
0
11
174.15306472561389
21
-32.797200611808542
31
0
0
LINE
5
295
100
AcDbEntity
8
0
100
AcDbLine
10
174.15306472561389
20
-32.797200611808542
30
0
11
152.25938715016514
21
-32.809374013937834
31
0
0
LINE
5
296
100
AcDbEntity
8
0
100
AcDbLine
10
152.25938715016514
20
-32.809374013937834
30
0
11
136.33112
21
-28.722677000000001
31
0
0
LWPOLYLINE
5
297
100
AcDbEntity
8
0
100
AcDbPolyline
90
6
70
1
43
0.0
10
-95.438289078262613
20
-35.808094331255084
10
-111.95206123298172
20
-97.438322518499817
10
-98.931521385902684
20
-108.36348559305915
10
-74.812790390518387
20
-108.36348559305915
10
-61.661681261477206
20
-97.328394773308545
10
-78.148573160454646
20
-35.798480840609507
0
LWPOLYLINE
5
298
100
AcDbEntity
8
0
100
AcDbPolyline
90
4
70
1
43
0.0
10
-100.46770800000002
20
-96.72672
10
-73.067707999999982
20
-96.72672
10
-73.067707999999982
20
-67.446719999999999
10
-100.46770800000002
20
-67.446719999999999
0
LWPOLYLINE
5
299
100
AcDbEntity
8
0
100
AcDbPolyline
90
4
70
1
43
0.0
10
-73.467708000000016
20
-74.826719999999995
10
-99.967708000000002
20
-74.826719999999995
10
-99.967708000000002
20
-91.426719999999989
10
-73.467708000000016
20
-91.426719999999989
0
LWPOLYLINE
5
300
100
AcDbEntity
8
0
100
AcDbPolyline
90
6
70
1
43
0.0
10
-98.749540953093287
20
-107.86348559305914
10
-74.994775507651468
20
-107.86348559305914
10
-62.227087137600883
20
-97.150122990763265
10
-78.532179474799406
20
-36.298694212076342
10
-95.054568449667244
20
-36.307881050807957
10
-111.38665384716913
20
-97.260045122780383
0
LWPOLYLINE
5
301
100
AcDbEntity
8
0
100
AcDbPolyline
90
6
70
1
43
0.0
10
-78.396122307300416
20
-46.465724072561116
10
-95.188164185414593
20
-46.465724072561116
10
-108.55961691810613
20
-96.368658144183286
10
-103.1996278535762
20
-100.86607186862122
10
-70.479408805768117
20
-100.81112483554796
10
-65.054116518219246
20
-96.258764078036762
0
LINE
5
302
100
AcDbEntity
8
0
100
AcDbLine
10
205.36975600000002
20
-142.43745000000001
30
0
11
175.49775600000004
21
-142.43745070680075
31
0
0
LINE
5
303
100
AcDbEntity
8
0
100
AcDbLine
10
175.49775600000004
20
-142.43745070680075
30
0
11
175.49775551885404
21
-122.10245070680075
31
0
0
LINE
5
304
100
AcDbEntity
8
0
100
AcDbLine
10
120.84239600000001
20
-142.43745200000001
30
0
11
151.99739599999998
21
-142.43745126284225
31
0
0
LINE
5
305
100
AcDbEntity
8
0
100
AcDbLine
10
151.99739599999998
20
-142.43745126284225
30
0
11
151.99739551885401
21
-122.10245126284224
31
0
0
CIRCLE
5
306
100
AcDbEntity
8
0
100
AcDbCircle
10
163.12784411178944
20
-85.633530139425005
30
0
40
15.499999999999996
210
0
220
0
230
1
0
LINE
5
307
100
AcDbEntity
8
0
100
AcDbLine
10
43.142656000000002
20
-82.259633000000008
30
0
11
53.138743000000012
21
-99.431943000000018
31
0
0
LINE
5
308
100
AcDbEntity
8
0
100
AcDbLine
10
283.262722
20
-82.221086
30
0
11
273.26663500000001
21
-99.393396999999993
31
0
0
LINE
5
309
100
AcDbEntity
8
0
100
AcDbLine
10
48.140699500000004
20
-90.8457875
30
0
11
48.3466995
21
-90.8457875
31
0
0
LINE
5
310
100
AcDbEntity
8
0
100
AcDbLine
10
48.3466995
20
-90.8457875
30
0
11
48.3466995
21
-90.232787500000015
31
0
0
LINE
5
311
100
AcDbEntity
8
0
100
AcDbLine
10
278.2646785
20
-90.807241500000003
30
0
11
278.11167849999998
21
-90.807241500000003
31
0
0
LINE
5
312
100
AcDbEntity
8
0
100
AcDbLine
10
278.11167849999998
20
-90.807241500000003
30
0
11
278.11167849999998
21
-90.148241500000012
31
0
0
LWPOLYLINE
5
313
100
AcDbEntity
8
0
100
AcDbPolyline
90
6
70
1
43
0.0
10
48.3466995
20
-90.232787500000015
10
54.14225445773441
20
-91.785701770615134
10
52.071701829885768
20
-99.5131083093776
10
40.480592181445431
20
-96.407279839697452
10
44.621696903085763
20
-80.952466619072339
10
42.55114454226559
20
-88.679873229384896
0
LINE
5
314
100
AcDbEntity
8
0
100
AcDbLine
10
42.55114454226559
20
-88.679873229384896
30
0
11
50.551144542265604
21
-88.679873229384896
31
0
0
LINE
5
315
100
AcDbEntity
8
0
100
AcDbLine
10
54.14225445773441
20
-91.785701770615134
30
0
11
56.212806818554569
21
-84.058295160302578
31
0
0
LINE
5
316
100
AcDbEntity
8
0
100
AcDbLine
10
54.14225445773441
20
-91.785701770615134
30
0
11
62.142254457734424
21
-91.785701770615134
31
0
0
LINE
5
317
100
AcDbEntity
8
0
100
AcDbLine
10
42.55114454226559
20
-88.679873229384896
30
0
11
40.480592181445431
21
-96.407279839697452
31
0
0
LINE
5
318
100
AcDbEntity
8
0
100
AcDbLine
10
42.55114454226559
20
-88.679873229384896
30
0
11
50.551144542265604
21
-88.679873229384896
31
0
0
LINE
5
319
100
AcDbEntity
8
0
100
AcDbLine
10
54.14225445773441
20
-91.785701770615134
30
0
11
62.142254457734424
21
-91.785701770615134
31
0
0
LINE
5
320
100
AcDbEntity
8
0
100
AcDbLine
10
44.621696903085763
20
-80.952466619072339
30
0
11
56.212806818554569
21
-84.058295160302578
31
0
0
LINE
5
321
100
AcDbEntity
8
0
100
AcDbLine
10
56.212806818554569
20
-84.058295160302578
30
0
11
52.071701829885768
21
-99.5131083093776
31
0
0
LWPOLYLINE
5
322
100
AcDbEntity
8
0
100
AcDbPolyline
90
3
70
1
43
0.0
10
39.519189000000011
20
-95.782593999999989
10
56.762209999999996
20
-85.908981000000026
10
53.138743000000012
20
-99.431943000000018
0
LWPOLYLINE
5
323
100
AcDbEntity
8
0
100
AcDbPolyline
90
5
70
1
43
0.0
10
54.14225445773441
20
-91.785701770615134
10
56.212806818554569
20
-84.058295160302578
10
44.621696903085763
20
-80.952466619072339
10
42.55114454226559
20
-88.679873229384896
10
48.3466995
20
-90.232787500000015
0
LINE
5
324
100
AcDbEntity
8
0
100
AcDbLine
10
39.519189000000011
20
-95.782593999999989
30
0
11
43.142656000000002
21
-82.259633000000008
31
0
0
LINE
5
325
100
AcDbEntity
8
0
100
AcDbLine
10
56.212806818554569
20
-84.058295160302578
30
0
11
52.071701829885768
21
-99.5131083093776
31
0
0
LINE
5
326
100
AcDbEntity
8
0
100
AcDbLine
10
54.14225445773441
20
-91.785701770615134
30
0
11
62.142254457734424
21
-91.785701770615134
31
0
0
LINE
5
327
100
AcDbEntity
8
0
100
AcDbLine
10
43.142656000000002
20
-82.259633000000008
30
0
11
56.762209999999996
21
-85.908981000000026
31
0
0
LINE
5
328
100
AcDbEntity
8
0
100
AcDbLine
10
43.142656000000002
20
-82.259633000000008
30
0
11
53.138743000000012
21
-99.431943000000018
31
0
0
LINE
5
329
100
AcDbEntity
8
0
100
AcDbLine
10
40.480592181445431
20
-96.407279839697452
30
0
11
44.621696903085763
21
-80.952466619072339
31
0
0
LINE
5
330
100
AcDbEntity
8
0
100
AcDbLine
10
42.55114454226559
20
-88.679873229384896
30
0
11
40.480592181445431
21
-96.407279839697452
31
0
0
LINE
5
331
100
AcDbEntity
8
0
100
AcDbLine
10
48.140699500000004
20
-90.8457875
30
0
11
48.3466995
21
-90.8457875
31
0
0
LINE
5
332
100
AcDbEntity
8
0
100
AcDbLine
10
54.14225445773441
20
-91.785701770615134
30
0
11
52.071701829885768
21
-99.5131083093776
31
0
0
LINE
5
333
100
AcDbEntity
8
0
100
AcDbLine
10
48.3466995
20
-90.8457875
30
0
11
48.3466995
21
-90.232787500000015
31
0
0
LINE
5
334
100
AcDbEntity
8
0
100
AcDbLine
10
42.55114454226559
20
-88.679873229384896
30
0
11
50.551144542265604
21
-88.679873229384896
31
0
0
LINE
5
335
100
AcDbEntity
8
0
100
AcDbLine
10
40.480592181445431
20
-96.407279839697452
30
0
11
52.071701829885768
21
-99.5131083093776
31
0
0
LINE
5
336
100
AcDbEntity
8
0
100
AcDbLine
10
42.55114454226559
20
-88.679873229384896
30
0
11
50.551144542265604
21
-88.679873229384896
31
0
0
LINE
5
337
100
AcDbEntity
8
0
100
AcDbLine
10
54.14225445773441
20
-91.785701770615134
30
0
11
62.142254457734424
21
-91.785701770615134
31
0
0
LWPOLYLINE
5
338
100
AcDbEntity
8
0
100
AcDbPolyline
90
3
70
1
43
0.0
10
39.519189000000011
20
-95.782593999999989
10
56.762209999999996
20
-85.908981000000026
10
53.138743000000012
20
-99.431943000000018
0
LWPOLYLINE
5
339
100
AcDbEntity
8
0
100
AcDbPolyline
90
5
70
1
43
0.0
10
54.14225445773441
20
-91.785701770615134
10
56.212806818554569
20
-84.058295160302578
10
44.621696903085763
20
-80.952466619072339
10
42.55114454226559
20
-88.679873229384896
10
48.3466995
20
-90.232787500000015
0
LINE
5
340
100
AcDbEntity
8
0
100
AcDbLine
10
39.519189000000011
20
-95.782593999999989
30
0
11
43.142656000000002
21
-82.259633000000008
31
0
0
LINE
5
341
100
AcDbEntity
8
0
100
AcDbLine
10
56.212806818554569
20
-84.058295160302578
30
0
11
52.071701829885768
21
-99.5131083093776
31
0
0
LINE
5
342
100
AcDbEntity
8
0
100
AcDbLine
10
54.14225445773441
20
-91.785701770615134
30
0
11
62.142254457734424
21
-91.785701770615134
31
0
0
LINE
5
343
100
AcDbEntity
8
0
100
AcDbLine
10
43.142656000000002
20
-82.259633000000008
30
0
11
56.762209999999996
21
-85.908981000000026
31
0
0
LINE
5
344
100
AcDbEntity
8
0
100
AcDbLine
10
43.142656000000002
20
-82.259633000000008
30
0
11
53.138743000000012
21
-99.431943000000018
31
0
0
LINE
5
345
100
AcDbEntity
8
0
100
AcDbLine
10
40.480592181445431
20
-96.407279839697452
30
0
11
44.621696903085763
21
-80.952466619072339
31
0
0
LINE
5
346
100
AcDbEntity
8
0
100
AcDbLine
10
42.55114454226559
20
-88.679873229384896
30
0
11
40.480592181445431
21
-96.407279839697452
31
0
0
LINE
5
347
100
AcDbEntity
8
0
100
AcDbLine
10
48.140699500000004
20
-90.8457875
30
0
11
48.3466995
21
-90.8457875
31
0
0
LINE
5
348
100
AcDbEntity
8
0
100
AcDbLine
10
54.14225445773441
20
-91.785701770615134
30
0
11
52.071701829885768
21
-99.5131083093776
31
0
0
LINE
5
349
100
AcDbEntity
8
0
100
AcDbLine
10
48.3466995
20
-90.8457875
30
0
11
48.3466995
21
-90.232787500000015
31
0
0
LINE
5
350
100
AcDbEntity
8
0
100
AcDbLine
10
42.55114454226559
20
-88.679873229384896
30
0
11
50.551144542265604
21
-88.679873229384896
31
0
0
LINE
5
351
100
AcDbEntity
8
0
100
AcDbLine
10
40.480592181445431
20
-96.407279839697452
30
0
11
52.071701829885768
21
-99.5131083093776
31
0
0
LINE
5
352
100
AcDbEntity
8
0
100
AcDbLine
10
42.55114454226559
20
-88.679873229384896
30
0
11
50.551144542265604
21
-88.679873229384896
31
0
0
LINE
5
353
100
AcDbEntity
8
0
100
AcDbLine
10
54.14225445773441
20
-91.785701770615134
30
0
11
62.142254457734424
21
-91.785701770615134
31
0
0
LWPOLYLINE
5
354
100
AcDbEntity
8
0
100
AcDbPolyline
90
3
70
1
43
0.0
10
39.519189000000011
20
-95.782593999999989
10
56.762209999999996
20
-85.908981000000026
10
53.138743000000012
20
-99.431943000000018
0
LWPOLYLINE
5
355
100
AcDbEntity
8
0
100
AcDbPolyline
90
5
70
1
43
0.0
10
54.14225445773441
20
-91.785701770615134
10
56.212806818554569
20
-84.058295160302578
10
44.621696903085763
20
-80.952466619072339
10
42.55114454226559
20
-88.679873229384896
10
48.3466995
20
-90.232787500000015
0
LINE
5
356
100
AcDbEntity
8
0
100
AcDbLine
10
39.519189000000011
20
-95.782593999999989
30
0
11
43.142656000000002
21
-82.259633000000008
31
0
0
LINE
5
357
100
AcDbEntity
8
0
100
AcDbLine
10
56.212806818554569
20
-84.058295160302578
30
0
11
52.071701829885768
21
-99.5131083093776
31
0
0
LINE
5
358
100
AcDbEntity
8
0
100
AcDbLine
10
54.14225445773441
20
-91.785701770615134
30
0
11
62.142254457734424
21
-91.785701770615134
31
0
0
LINE
5
359
100
AcDbEntity
8
0
100
AcDbLine
10
43.142656000000002
20
-82.259633000000008
30
0
11
56.762209999999996
21
-85.908981000000026
31
0
0
LINE
5
360
100
AcDbEntity
8
0
100
AcDbLine
10
43.142656000000002
20
-82.259633000000008
30
0
11
53.138743000000012
21
-99.431943000000018
31
0
0
LINE
5
361
100
AcDbEntity
8
0
100
AcDbLine
10
40.480592181445431
20
-96.407279839697452
30
0
11
44.621696903085763
21
-80.952466619072339
31
0
0
LINE
5
362
100
AcDbEntity
8
0
100
AcDbLine
10
42.55114454226559
20
-88.679873229384896
30
0
11
40.480592181445431
21
-96.407279839697452
31
0
0
LINE
5
363
100
AcDbEntity
8
0
100
AcDbLine
10
48.140699500000004
20
-90.8457875
30
0
11
48.3466995
21
-90.8457875
31
0
0
LINE
5
364
100
AcDbEntity
8
0
100
AcDbLine
10
54.14225445773441
20
-91.785701770615134
30
0
11
52.071701829885768
21
-99.5131083093776
31
0
0
LINE
5
365
100
AcDbEntity
8
0
100
AcDbLine
10
48.3466995
20
-90.8457875
30
0
11
48.3466995
21
-90.232787500000015
31
0
0
LINE
5
366
100
AcDbEntity
8
0
100
AcDbLine
10
42.55114454226559
20
-88.679873229384896
30
0
11
50.551144542265604
21
-88.679873229384896
31
0
0
LINE
5
367
100
AcDbEntity
8
0
100
AcDbLine
10
40.480592181445431
20
-96.407279839697452
30
0
11
52.071701829885768
21
-99.5131083093776
31
0
0
LINE
5
368
100
AcDbEntity
8
0
100
AcDbLine
10
42.55114454226559
20
-88.679873229384896
30
0
11
50.551144542265604
21
-88.679873229384896
31
0
0
LINE
5
369
100
AcDbEntity
8
0
100
AcDbLine
10
54.14225445773441
20
-91.785701770615134
30
0
11
62.142254457734424
21
-91.785701770615134
31
0
0
LINE
5
370
100
AcDbEntity
8
0
100
AcDbLine
10
40.480592181445431
20
-96.407279839697452
30
0
11
44.621696903085763
21
-80.952466619072339
31
0
0
LINE
5
371
100
AcDbEntity
8
0
100
AcDbLine
10
44.621696903085763
20
-80.952466619072339
30
0
11
56.212806818554569
21
-84.058295160302578
31
0
0
LINE
5
372
100
AcDbEntity
8
0
100
AcDbLine
10
56.212806818554569
20
-84.058295160302578
30
0
11
52.071701829885768
21
-99.5131083093776
31
0
0
LINE
5
373
100
AcDbEntity
8
0
100
AcDbLine
10
40.480592181445431
20
-96.407279839697452
30
0
11
52.071701829885768
21
-99.5131083093776
31
0
0
LINE
5
374
100
AcDbEntity
8
0
100
AcDbLine
10
40.480592181445431
20
-96.407279839697452
30
0
11
44.621696903085763
21
-80.952466619072339
31
0
0
LINE
5
375
100
AcDbEntity
8
0
100
AcDbLine
10
44.621696903085763
20
-80.952466619072339
30
0
11
56.212806818554569
21
-84.058295160302578
31
0
0
LINE
5
376
100
AcDbEntity
8
0
100
AcDbLine
10
56.212806818554569
20
-84.058295160302578
30
0
11
52.071701829885768
21
-99.5131083093776
31
0
0
LINE
5
377
100
AcDbEntity
8
0
100
AcDbLine
10
40.480592181445431
20
-96.407279839697452
30
0
11
52.071701829885768
21
-99.5131083093776
31
0
0
LINE
5
378
100
AcDbEntity
8
0
100
AcDbLine
10
274.38667590308575
20
-99.428562380927673
30
0
11
270.24557118144543
21
-83.973749160302589
31
0
0
LINE
5
379
100
AcDbEntity
8
0
100
AcDbLine
10
270.24557118144543
20
-83.973749160302589
30
0
11
281.83668109691428
21
-80.867920619072322
31
0
0
LINE
5
380
100
AcDbEntity
8
0
100
AcDbLine
10
281.83668109691428
20
-80.867920619072322
30
0
11
285.9777855515261
21
-96.322733911247468
31
0
0
LINE
5
381
100
AcDbEntity
8
0
100
AcDbLine
10
274.38667590308575
20
-99.428562380927673
30
0
11
285.9777855515261
21
-96.322733911247468
31
0
0
LINE
5
382
100
AcDbEntity
8
0
100
AcDbLine
10
153.14115208301052
20
-25.808882649729167
30
0
11
142.47127064019693
21
-23.071323553040799
31
0
0
SPLINE
5
383
100
AcDbEntity
8
0
100
AcDbSpline
70
0
71
3
72
11
73
7
74
0
42
0.000000001
43
0.0000000001
44
0.0000000001
40
0.44223869123525927
40
0.44223869123525927
40
0.44223869123525927
40
0.44223869123525927
40
0.88304988092025849
40
0.88304988092025849
40
0.88304988092025849
40
0.9991743383244408
40
0.9991743383244408
40
0.9991743383244408
40
0.9991743383244408
10
142.47127064019693
20
-23.071323553040777
30
0
10
141.43689404875545
20
-20.816438165772176
30
0
10
139.6422662771968
20
-18.916104949662152
30
0
10
137.31330471472637
20
-17.773665130375178
30
0
10
136.69977809814856
20
-17.472708150979006
30
0
10
136.05136953689163
20
-17.225959066440705
30
0
10
135.37954044701519
20
-17.041139287531955
30
0
0
LINE
5
384
100
AcDbEntity
8
0
100
AcDbLine
10
135.37954044701519
20
-17.041139287531955
30
0
11
125.44749459151234
21
-14.286651552495135
31
0
0
SPLINE
5
385
100
AcDbEntity
8
0
100
AcDbSpline
70
0
71
3
72
11
73
7
74
0
42
0.000000001
43
0.0000000001
44
0.0000000001
40
0.43554383107323164
40
0.43554383107323164
40
0.43554383107323164
40
0.43554383107323164
40
0.88305251275150864
40
0.88305251275150864
40
0.88305251275150864
40
1
40
1
40
1
40
1
10
125.44749459151232
20
-14.286651552495222
30
0
10
124.42081521149917
20
-11.986709898520862
30
0
10
122.60727736477708
20
-10.045845984491757
30
0
10
120.24293372754434
20
-8.8860524966434884
30
0
10
119.62505957518295
20
-8.582963551815979
30
0
10
118.97180618335931
20
-8.3348579753330281
30
0
10
118.29488417256762
20
-8.1496086450569205
30
0
0
LINE
5
386
100
AcDbEntity
8
0
100
AcDbLine
10
118.29488417256762
20
-8.1496086450569205
30
0
11
108.21756060898501
21
-5.3881928467752722
31
0
0
SPLINE
5
387
100
AcDbEntity
8
0
100
AcDbSpline
70
0
71
3
72
8
73
4
74
0
42
0.000000001
43
0.0000000001
44
0.0000000001
40
0.87993067700894523
40
0.87993067700894523
40
0.87993067700894523
40
0.87993067700894523
40
1
40
1
40
1
40
1
10
108.21756060898502
20
-5.3881928467752136
30
0
10
108.07736835374014
20
-5.0621670382147377
30
0
10
107.92074168902184
20
-4.7413686106090998
30
0
10
107.74824210308493
20
-4.4278857724444869
30
0
0
SPLINE
5
388
100
AcDbEntity
8
0
100
AcDbSpline
70
0
71
3
72
11
73
7
74
0
42
0.000000001
43
0.0000000001
44
0.0000000001
40
0
40
0
40
0
40
0
40
1
40
1
40
1
40
1.0062752837203133
40
1.0062752837203133
40
1.0062752837203133
40
1.0062752837203133
10
107.74823938934999
20
-4.4278808407890189
30
0
10
106.31156802115596
20
-1.8170284255651681
30
0
10
103.87179451979256
20
0.10571972253787421
30
0
10
100.99745042154998
20
0.89231077032089323
30
0
10
100.99085594552278
20
0.89411541013802498
30
0
10
100.98426146949589
20
0.89592004995506891
30
0
10
100.97766699346705
20
0.89772468977263431
30
0
0
LINE
5
389
100
AcDbEntity
8
0
100
AcDbLine
10
100.97766699346704
20
0.8977246897726342
30
0
11
84.626390859488765
21
5.2695693249603774
31
0
0
SPLINE
5
390
100
AcDbEntity
8
0
100
AcDbSpline
70
0
71
3
72
14
73
10
74
0
42
0.000000001
43
0.0000000001
44
0.0000000001
40
-0.012895237610576144
40
-0.012895237610576144
40
-0.012895237610576144
40
-0.012895237610576144
40
0
40
0
40
0
40
0.43689458584066859
40
0.43689458584066859
40
0.43689458584066859
40
0.54671458611244583
40
0.54671458611244583
40
0.54671458611244583
40
0.54671458611244583
10
84.626390859489135
20
5.269569324960286
30
0
10
84.600566727697213
20
5.275847345600666
30
0
10
84.574742595905803
20
5.2821253662409227
30
0
10
84.548918464114152
20
5.2884033868812361
30
0
10
82.098060913059726
20
5.884223390284669
30
0
10
79.560136033997708
20
5.5801320075157044
30
0
10
77.414276495683964
20
4.5754380639431167
30
0
10
76.874882548681043
20
4.3228931875998029
30
0
10
76.359070249948488
20
4.0274681097472111
30
0
10
75.867450033894627
20
3.6891885147862769
30
0
0
LINE
5
391
100
AcDbEntity
8
0
100
AcDbLine
10
75.867450033894627
20
3.6891885147862769
30
0
11
64.365832182109116
21
6.7534502624831987
31
0
0
SPLINE
5
392
100
AcDbEntity
8
0
100
AcDbSpline
70
0
71
3
72
17
73
13
74
0
42
0.000000001
43
0.0000000001
44
0.0000000001
40
-0.077863097668346537
40
-0.077863097668346537
40
-0.077863097668346537
40
-0.077863097668346537
40
0
40
0
40
0
40
0.81286472420994871
40
0.81286472420994871
40
0.81286472420994871
40
1
40
1
40
1
40
1.2031103891525257
40
1.2031103891525257
40
1.2031103891525257
40
1.2031103891525257
10
64.365832182109131
20
6.7534502624831969
30
0
10
64.241367942623185
20
6.772584651556607
30
0
10
64.11690370313724
20
6.7917190406300154
30
0
10
63.992439463651316
20
6.810853429703422
30
0
10
60.427176346307562
20
7.3589556952062409
30
0
10
56.851227922748592
20
6.1118129547108122
30
0
10
54.404741701688351
20
3.5674419706475335
30
0
10
53.841518990628231
20
2.9816845233949612
30
0
10
53.33772656943178
20
2.3269993819938173
30
0
10
52.909692415040951
20
1.6153848789969691
30
0
10
52.7403777666499
20
1.3338962217743644
30
0
10
52.571063118258856
20
1.0524075645517674
30
0
10
52.401748469867812
20
0.77091890732916279
30
0
0
LINE
5
393
100
AcDbEntity
8
0
100
AcDbLine
10
52.401748469867798
20
0.77091890732916291
30
0
11
51.239646433286261
21
-3.5661259937768843
31
0
0
LINE
5
394
100
AcDbEntity
8
0
100
AcDbLine
10
51.239646433286261
20
-3.5661259937768843
30
0
11
25.855315187470815
21
3.217743693666165
31
0
0
SPLINE
5
395
100
AcDbEntity
8
0
100
AcDbSpline
70
0
71
3
72
17
73
13
74
0
42
0.000000001
43
0.0000000001
44
0.0000000001
40
0.0014447181020519292
40
0.0014447181020519292
40
0.0014447181020519292
40
0.0014447181020519292
40
0.42390202565255197
40
0.42390202565255197
40
0.42390202565255197
40
0.88304928988554043
40
0.88304928988554043
40
0.88304928988554043
40
1
40
1
40
1
40
1.002298897135945
40
1.002298897135945
40
1.002298897135945
40
1.002298897135945
10
25.855315187471145
20
3.2177436936673871
30
0
10
23.409289249667964
20
3.8809616615394029
30
0
10
20.85297062793455
20
3.6549460121696375
30
0
10
18.66447271638409
20
2.7243862851764407
30
0
10
16.285906146677199
20
1.7130084602035622
30
0
10
14.273696745234012
20
-0.13282731072456172
30
0
10
13.083737567721057
20
-2.5586648867471666
30
0
10
12.780639669381538
20
-3.1765568992632671
30
0
10
12.532528399367479
20
-3.8298303303913444
30
0
10
12.347277343512131
20
-4.5067734708546725
30
0
10
12.3459314449884
20
-4.511691644028871
30
0
10
12.344585546464605
20
-4.5166098172033067
30
0
10
12.343239647940788
20
-4.5215279903777992
30
0
0
LINE
5
396
100
AcDbEntity
8
0
100
AcDbLine
10
12.343239647940784
20
-4.5215279903778001
30
0
11
-6.5522031018224292
21
-74.773708208323285
31
0
0
SPLINE
5
397
100
AcDbEntity
8
0
100
AcDbSpline
70
0
71
3
72
8
73
4
74
0
42
0.000000001
43
0.0000000001
44
0.0000000001
40
0.0021803351243692738
40
0.0021803351243692738
40
0.0021803351243692738
40
0.0021803351243692738
40
1
40
1
40
1
40
1
10
-6.5522031018238645
20
-74.773708208322901
30
0
10
-7.3160098255414097
20
-77.583868378149404
30
0
10
-6.9340280267654562
20
-80.590162064481149
30
0
10
-5.4911729377873257
20
-83.120260340334781
30
0
0
SPLINE
5
398
100
AcDbEntity
8
0
100
AcDbSpline
70
0
71
3
72
11
73
7
74
0
42
0.000000001
43
0.0000000001
44
0.0000000001
40
6.5192870857121913e-07
40
6.5192870857121913e-07
40
6.5192870857121913e-07
40
6.5192870857121913e-07
40
1
40
1
40
1
40
1.0057784402686976
40
1.0057784402686976
40
1.0057784402686976
40
1.0057784402686976
10
-5.4911729377881633
20
-83.120260340335008
30
0
10
-4.0451649346215053
20
-85.655889110300961
30
0
10
-1.6449761715911353
20
-87.517992773807137
30
0
10
1.1704615761707333
20
-88.288468033095995
30
0
10
1.1763981087868813
20
-88.290092630020695
30
0
10
1.1823346414029341
20
-88.291717226945366
30
0
10
1.1882711739959129
20
-88.293341823863742
30
0
0
LINE
5
399
100
AcDbEntity
8
0
100
AcDbLine
10
1.1882711739959131
20
-88.293341823863756
30
0
11
27.781164611560779
21
-95.4201948257232
31
0
0
SPLINE
5
400
100
AcDbEntity
8
0
100
AcDbSpline
70
0
71
3
72
8
73
4
74
0
42
0.000000001
43
0.0000000001
44
0.0000000001
40
0.19851742027130134
40
0.19851742027130134
40
0.19851742027130134
40
0.19851742027130134
40
1
40
1
40
1
40
1
10
27.781164611560779
20
-95.420194825723215
30
0
10
27.526733101610855
20
-97.718451075477645
30
0
10
28.00204056271404
20
-100.05725655913497
30
0
10
29.160995900599119
20
-102.08951982460562
30
0
0
SPLINE
5
401
100
AcDbEntity
8
0
100
AcDbSpline
70
0
71
3
72
11
73
7
74
0
42
0.000000001
43
0.0000000001
44
0.0000000001
40
3.7178089148710902e-07
40
3.7178089148710902e-07
40
3.7178089148710902e-07
40
3.7178089148710902e-07
40
1
40
1
40
1
40
1.0176684180979065
40
1.0176684180979065
40
1.0176684180979065
40
1.0176684180979065
10
29.160995900598891
20
-102.08951982460577
30
0
10
30.607008011452315
20
-104.62514682595517
30
0
10
33.007205542794217
20
-106.48725030970945
30
0
10
35.822651032441527
20
-107.25771672577373
30
0
10
35.840802840790843
20
-107.26268409551164
30
0
10
35.858954649139079
20
-107.26765146524923
30
0
10
35.877106457484025
20
-107.27261883498598
30
0
0
LINE
5
402
100
AcDbEntity
8
0
100
AcDbLine
10
35.877106457484018
20
-107.27261883498598
30
0
11
70.354994005128248
21
-116.11251964389552
31
0
0
LINE
5
403
100
AcDbEntity
8
0
100
AcDbLine
10
70.354994005128248
20
-116.11251964389552
30
0
11
86.562158345959119
21
-123.70884703520831
31
0
0
LINE
5
404
100
AcDbEntity
8
0
100
AcDbLine
10
86.562158345959119
20
-123.70884703520831
30
0
11
100.94101400568151
21
-134.04100169326276
31
0
0
LINE
5
405
100
AcDbEntity
8
0
100
AcDbLine
10
100.94101400568151
20
-134.04100169326276
30
0
11
112.88556510862347
21
-145.86073679430424
31
0
0
SPLINE
5
406
100
AcDbEntity
8
0
100
AcDbSpline
70
0
71
3
72
11
73
7
74
0
42
0.000000001
43
0.0000000001
44
0.0000000001
40
0.026145124769346047
40
0.026145124769346047
40
0.026145124769346047
40
0.026145124769346047
40
1
40
1
40
1
40
1.090179196175
40
1.090179196175
40
1.090179196175
40
1.090179196175
10
112.88556510862344
20
-145.86073679430427
30
0
10
114.81480743154771
20
-147.89955603126489
30
0
10
117.4311643463133
20
-149.16575172306418
30
0
10
120.23231805131618
20
-149.41081595841561
30
0
10
120.33380391510752
20
-149.41969464135423
30
0
10
120.43528977889899
20
-149.42857332429284
30
0
10
120.53677564269053
20
-149.43745200723146
30
0
0
LINE
5
407
100
AcDbEntity
8
0
100
AcDbLine
10
120.53677564269051
20
-149.43745200723143
30
0
11
205.67537370083664
21
-149.43744999276879
31
0
0
SPLINE
5
408
100
AcDbEntity
8
0
100
AcDbSpline
70
0
71
3
72
11
73
7
74
0
42
0.000000001
43
0.0000000001
44
0.0000000001
40
-0.090178401068116532
40
-0.090178401068116532
40
-0.090178401068116532
40
-0.090178401068116532
40
0
40
0
40
0
40
0.97385504646851928
40
0.97385504646851928
40
0.97385504646851928
40
0.97385504646851928
10
205.67537370083667
20
-149.43744999276882
30
0
10
205.77685857965213
20
-149.42857147829167
30
0
10
205.87834345846773
20
-149.4196929638145
30
0
10
205.97982833728332
20
-149.41081444933735
30
0
10
208.78098318263523
20
-149.16575238553557
30
0
10
211.39734228697012
20
-147.89955694384162
30
0
10
213.3265851542707
20
-145.86073646413513
30
0
0
LINE
5
409
100
AcDbEntity
8
0
100
AcDbLine
10
213.32658515427067
20
-145.86073646413513
30
0
11
225.27113078052398
21
-134.04099722847417
31
0
0
LINE
5
410
100
AcDbEntity
8
0
100
AcDbLine
10
225.27113078052398
20
-134.04099722847417
30
0
11
239.64998745243844
21
-123.70884506215758
31
0
0
LINE
5
411
100
AcDbEntity
8
0
100
AcDbLine
10
239.64998745243844
20
-123.70884506215758
30
0
11
255.85745367462141
21
-116.11237431448593
31
0
0
LINE
5
412
100
AcDbEntity
8
0
100
AcDbLine
10
255.85745367462141
20
-116.11237431448593
30
0
11
290.6086130534419
21
-107.19891739514937
31
0
0
SPLINE
5
413
100
AcDbEntity
8
0
100
AcDbSpline
70
0
71
3
72
11
73
7
74
0
42
0.000000001
43
0.0000000001
44
0.0000000001
40
-0.0062222329384886751
40
-0.0062222329384886751
40
-0.0062222329384886751
40
-0.0062222329384886751
40
0
40
0
40
0
40
1
40
1
40
1
40
1
10
290.60861305345793
20
-107.19891739514516
30
0
10
290.61506283966122
20
-107.19722371578797
30
0
10
290.62151262588043
20
-107.19553003642658
30
0
10
290.62796241209975
20
-107.19383635706518
30
0
10
293.55037403603808
20
-106.4264266965472
30
0
10
296.02700212317137
20
-104.46677400309069
30
0
10
297.4458364632103
20
-101.79912129114348
30
0
0
SPLINE
5
414
100
AcDbEntity
8
0
100
AcDbSpline
70
0
71
3
72
8
73
4
74
0
42
0.000000001
43
0.0000000001
44
0.0000000001
40
6.3618432323506968e-07
40
6.3618432323506968e-07
40
6.3618432323506968e-07
40
6.3618432323506968e-07
40
0.73716765672811047
40
0.73716765672811047
40
0.73716765672811047
40
0.73716765672811047
10
297.44583646321121
20
-101.79912129114369
30
0
10
298.4917519208974
20
-99.832621633686145
30
0
10
298.89859461254736
20
-97.605551274434788
30
0
10
298.63950606135165
20
-95.427726207896967
30
0
0
LINE
5
415
100
AcDbEntity
8
0
100
AcDbLine
10
298.63950606135165
20
-95.427726207896967
30
0
11
325.03675987625945
21
-88.412580370021971
31
0
0
SPLINE
5
416
100
AcDbEntity
8
0
100
AcDbSpline
70
0
71
3
72
8
73
4
74
0
42
0.000000001
43
0.0000000001
44
0.0000000001
40
0.0016305457581085399
40
0.0016305457581085399
40
0.0016305457581085399
40
0.0016305457581085399
40
1
40
1
40
1
40
1
10
325.03675987626133
20
-88.412580370028962
30
0
10
327.85432796868321
20
-87.669762309225035
30
0
10
330.26871312563037
20
-85.835174398437317
30
0
10
331.73922264565937
20
-83.31918664008839
30
0
0
SPLINE
5
417
100
AcDbEntity
8
0
100
AcDbSpline
70
0
71
3
72
11
73
7
74
0
42
0.000000001
43
0.0000000001
44
0.0000000001
40
0
40
0
40
0
40
0
40
1
40
1
40
1
40
1.0060252209763647
40
1.0060252209763647
40
1.0060252209763647
40
1.0060252209763647
10
331.73922550871066
20
-83.31918174150826
30
0
10
333.21213363941229
20
-80.799085359598948
30
0
10
333.62466556407367
20
-77.789404297658791
30
0
10
332.88418634596582
20
-74.96591929184406
30
0
10
332.8825583192048
20
-74.959711542812798
30
0
10
332.88093029244567
20
-74.953503793788826
30
0
10
332.87930226569523
20
-74.947296044797781
30
0
0
LINE
5
418
100
AcDbEntity
8
0
100
AcDbLine
10
332.87930226569529
20
-74.947296044797781
30
0
11
314.04740646232881
21
-4.7170078944867644
31
0
0
SPLINE
5
419
100
AcDbEntity
8
0
100
AcDbSpline
70
0
71
3
72
8
73
4
74
0
42
0.000000001
43
0.0000000001
44
0.0000000001
40
0.0027444794326516473
40
0.0027444794326516473
40
0.0027444794326516473
40
0.0027444794326516473
40
1
40
1
40
1
40
1
10
314.04740646232682
20
-4.7170078944872875
30
0
10
313.30299719293527
20
-1.9034836932890231
30
0
10
311.46969936605251
20
0.50715294290700297
30
0
10
308.9565269909034
20
1.976026089132819
30
0
0
SPLINE
5
420
100
AcDbEntity
8
0
100
AcDbSpline
70
0
71
3
72
11
73
7
74
0
42
0.000000001
43
0.0000000001
44
0.0000000001
40
0
40
0
40
0
40
0
40
1
40
1
40
1
40
1.0122572061017778
40
1.0122572061017778
40
1.0122572061017778
40
1.0122572061017778
10
308.95652209232577
20
1.9760289522004397
30
0
10
306.43643152247967
20
3.4489428332532182
30
0
10
303.42675528761174
20
3.8614809517676041
30
0
10
300.60327405009411
20
3.1210115276779349
30
0
10
300.59064556096246
20
3.117699655103698
30
0
10
300.57801707183074
20
3.1143877825294251
30
0
10
300.56538858270045
20
3.1110759099555416
30
0
0
LINE
5
421
100
AcDbEntity
8
0
100
AcDbLine
10
274.47130084539788
20
-4.0452213256468781
30
0
11
300.56538858270045
21
3.1110759099555412
31
0
0
LINE
5
422
100
AcDbEntity
8
0
100
AcDbLine
10
274.47130084539788
20
-4.0452213256468781
30
0
11
273.26601122506014
21
0.45297314561981994
31
0
0
SPLINE
5
423
100
AcDbEntity
8
0
100
AcDbSpline
70
0
71
3
72
17
73
13
74
0
42
0.000000001
43
0.0000000001
44
0.0000000001
40
-0.23879543176288098
40
-0.23879543176288098
40
-0.23879543176288098
40
-0.23879543176288098
40
0
40
0
40
0
40
0.68683398877320467
40
0.68683398877320467
40
0.68683398877320467
40
1
40
1
40
1
40
1.0098201886308564
40
1.0098201886308564
40
1.0098201886308564
40
1.0098201886308564
10
273.26601122506031
20
0.45297314561955182
30
0
10
273.04024494964506
20
0.78239287650930311
30
0
10
272.81447867423003
20
1.1118126073987886
30
0
10
272.58871239881506
20
1.4412323382882746
30
0
10
270.80153887100556
20
4.0489301509999054
30
0
10
268.00090593742829
20
5.7148488465234983
30
0
10
264.97501224429232
20
6.1128035731879056
30
0
10
263.59533815453403
20
6.2942533797429725
30
0
10
262.16018509645664
20
6.2131793708200487
30
0
10
260.76590397259827
20
5.8475232451001666
30
0
10
260.75001799093286
20
5.8433570791745035
30
0
10
260.73413200926746
20
5.8391909132488165
30
0
10
260.71824602760125
20
5.8350247473229242
30
0
0
LINE
5
424
100
AcDbEntity
8
0
100
AcDbLine
10
260.71824602760125
20
5.8350247473229233
30
0
11
250.65740463337906
21
3.0445906598656403
31
0
0
SPLINE
5
425
100
AcDbEntity
8
0
100
AcDbSpline
70
0
71
3
72
14
73
10
74
0
42
0.000000001
43
0.0000000001
44
0.0000000001
40
0.4415830668103613
40
0.4415830668103613
40
0.4415830668103613
40
0.4415830668103613
40
0.88305318022559032
40
0.88305318022559032
40
0.88305318022559032
40
1
40
1
40
1
40
1.0016443599316747
40
1.0016443599316747
40
1.0016443599316747
40
1.0016443599316747
10
250.65740463337906
20
3.0445906598656718
30
0
10
248.63257369642898
20
4.4843682414027866
30
0
10
246.1246095809035
20
5.2352794500906814
30
0
10
243.53258811570268
20
5.0599069650612591
30
0
10
242.8459534876024
20
5.0134502429029562
30
0
10
242.15617158381431
20
4.9016876946531793
30
0
10
241.477320290634
20
4.7236566397753093
30
0
10
241.47379237066619
20
4.72273143079404
30
0
10
241.47026445069719
20
4.7218062218124688
30
0
10
241.46673653070775
20
4.7208810128255223
30
0
0
LINE
5
426
100
AcDbEntity
8
0
100
AcDbLine
10
241.46673653070769
20
4.7208810128255223
30
0
11
225.82767439913647
21
0.56718767434403239
31
0
0
SPLINE
5
427
100
AcDbEntity
8
0
100
AcDbSpline
70
0
71
3
72
11
73
7
74
0
42
0.000000001
43
0.0000000001
44
0.0000000001
40
0.000755465191508411
40
0.000755465191508411
40
0.000755465191508411
40
0.000755465191508411
40
0.42390228295036803
40
0.42390228295036803
40
0.42390228295036803
40
0.56653950974857792
40
0.56653950974857792
40
0.56653950974857792
40
0.56653950974857792
10
225.82767439913709
20
0.56718767434161932
30
0
10
223.37262260137618
20
-0.079878625624310307
30
0
10
221.2672498642288
20
-1.5554179354248094
30
0
10
219.83489914330673
20
-3.4586538979421007
30
0
10
219.35207255437751
20
-4.1002097084617324
30
0
10
218.9420456068799
20
-4.7898199662009819
30
0
10
218.60867698404221
20
-5.5219114317245266
30
0
0
LINE
5
428
100
AcDbEntity
8
0
100
AcDbLine
10
218.60867698404221
20
-5.5219114317245266
30
0
11
208.45245110200207
21
-8.2885241628455653
31
0
0
SPLINE
5
429
100
AcDbEntity
8
0
100
AcDbSpline
70
0
71
3
72
8
73
4
74
0
42
0.000000001
43
0.0000000001
44
0.0000000001
40
0.0047226870963755765
40
0.0047226870963755765
40
0.0047226870963755765
40
0.0047226870963755765
40
1
40
1
40
1
40
1
10
208.4524511020017
20
-8.2885241628442863
30
0
10
205.6460968029885
20
-9.035762903857842
30
0
10
203.24210820985314
20
-10.866790914840417
30
0
10
201.77615281793859
20
-13.374994121540301
30
0
0
SPLINE
5
430
100
AcDbEntity
8
0
100
AcDbSpline
70
0
71
3
72
8
73
4
74
0
42
0.000000001
43
0.0000000001
44
0.0000000001
40
1.0266266696988879e-06
40
1.0266266696988879e-06
40
1.0266266696988879e-06
40
1.0266266696988879e-06
40
0.12329379941061402
40
0.12329379941061402
40
0.12329379941061402
40
0.12329379941061402
10
201.77615281793689
20
-13.374994121539029
30
0
10
201.59455309236736
20
-13.685705162179049
30
0
10
201.428830773399
20
-14.004236995631057
30
0
10
201.27958829580342
20
-14.328540653220562
30
0
0
LINE
5
431
100
AcDbEntity
8
0
100
AcDbLine
10
201.27958829580342
20
-14.328540653220562
30
0
11
191.17190252352543
21
-16.995779869431999
31
0
0
LINE
5
432
100
AcDbEntity
8
0
100
AcDbLine
10
191.17190252352543
20
-16.995779869431999
30
0
11
191.16162295955615
21
-16.998492464259552
31
0
0
SPLINE
5
433
100
AcDbEntity
8
0
100
AcDbSpline
70
0
71
3
72
11
73
7
74
0
42
0.000000001
43
0.0000000001
44
0.0000000001
40
0.00059055420534561028
40
0.00059055420534561028
40
0.00059055420534561028
40
0.00059055420534561028
40
0.42390456627546214
40
0.42390456627546214
40
0.42390456627546214
40
0.56225695139430143
40
0.56225695139430143
40
0.56225695139430143
40
0.56225695139430143
10
191.16162219823909
20
-16.998489579196516
30
0
10
188.70533697808361
20
-17.645185217696987
30
0
10
186.5988736510393
20
-19.12113093585932
30
0
10
185.16596640872052
20
-21.025122587562723
30
0
10
184.69764707844516
20
-21.647407177130937
30
0
10
184.29787438562104
20
-22.314832377866654
30
0
10
183.96993686398247
20
-23.022669566563891
30
0
0
LINE
5
434
100
AcDbEntity
8
0
100
AcDbLine
10
183.96993686398247
20
-23.022669566563891
30
0
11
173.25907842806635
21
-25.797696607249009
31
0
0
LINE
5
435
100
AcDbEntity
8
0
100
AcDbLine
10
173.25907842806635
20
-25.797696607249009
30
0
11
153.14115208301052
21
-25.808882649729167
31
0
0
LINE
5
436
100
AcDbEntity
8
0
100
AcDbLine
10
163.10606557395076
20
-31.809374985098344
30
0
11
156.10606557395079
21
-31.809374348734707
31
0
0
LINE
5
437
100
AcDbEntity
8
0
100
AcDbLine
10
163.10606557395076
20
-31.809374985098344
30
0
11
170.10606557395073
21
-31.809375621461982
31
0
0
LINE
5
438
100
AcDbEntity
8
0
100
AcDbLine
10
156.10606557395079
20
-31.809374348734707
30
0
11
156.10272824315325
21
-25.807235943395355
31
0
0
LINE
5
439
100
AcDbEntity
8
0
100
AcDbLine
10
170.10606557395073
20
-31.809375621461982
30
0
11
170.10272391417493
21
-25.799451614950559
31
0
0
LINE
5
440
100
AcDbEntity
8
0
100
AcDbLine
10
152.85606557395079
20
-31.809374053280163
30
0
11
152.88609084545203
21
-85.809365705900547
31
0
0
LINE
5
441
100
AcDbEntity
8
0
100
AcDbLine
10
173.60606557395073
20
-31.8093759396438
30
0
11
173.63609084545206
21
-85.809367592264181
31
0
0
LINE
5
442
100
AcDbEntity
8
0
100
AcDbLine
10
152.88609084545203
20
-85.809365705900547
30
0
11
173.63609084545206
21
-85.809367592264181
31
0
0
LINE
5
443
100
AcDbEntity
8
0
100
AcDbLine
10
152.85606557395079
20
-31.809374053280163
30
0
11
152.85615526434179
21
-31.970680849997311
31
0
0
LINE
5
444
100
AcDbEntity
8
0
100
AcDbLine
10
173.60606557395073
20
-31.8093759396438
30
0
11
173.6061192372951
21
-31.905888643824266
31
0
0
LINE
5
445
100
AcDbEntity
8
0
100
AcDbLine
10
135.22090131498945
20
-98.329715924856856
30
0
11
140.8959851465244
21
-103.0916763637746
31
0
0
LINE
5
446
100
AcDbEntity
8
0
100
AcDbLine
10
140.8959851465244
20
-103.0916763637746
30
0
11
127.22082835314494
21
-119.38909466602564
31
0
0
LINE
5
447
100
AcDbEntity
8
0
100
AcDbLine
10
127.22082835314494
20
-119.38909466602564
30
0
11
134.86166468711932
21
-127.02993099999995
31
0
0
LINE
5
448
100
AcDbEntity
8
0
100
AcDbLine
10
134.86166468711932
20
-127.02993099999995
30
0
11
126.3266688099844
21
-135.56492687713498
31
0
0
LINE
5
449
100
AcDbEntity
8
0
100
AcDbLine
10
126.3266688099844
20
-135.56492687713498
30
0
11
199.88679996851459
21
-135.57765265563381
31
0
0
LINE
5
450
100
AcDbEntity
8
0
100
AcDbLine
10
199.88679996851459
20
-135.57765265563381
30
0
11
191.35774331288076
21
-127.04859599999995
31
0
0
LINE
5
451
100
AcDbEntity
8
0
100
AcDbLine
10
191.35774331288076
20
-127.04859599999995
30
0
11
198.9988481042264
21
-119.40749120865432
31
0
0
LINE
5
452
100
AcDbEntity
8
0
100
AcDbLine
10
198.9988481042264
20
-119.40749120865432
30
0
11
185.32931084896273
21
-103.11677041535739
31
0
0
LINE
5
453
100
AcDbEntity
8
0
100
AcDbLine
10
185.32931084896273
20
-103.11677041535739
30
0
11
191.16534025566199
21
-98.219760289860787
31
0
0
LINE
5
454
100
AcDbEntity
8
0
100
AcDbLine
10
191.16534025566199
20
-98.219760289860787
30
0
11
173.63549411084455
21
-32.79748839330172
31
0
0
LINE
5
455
100
AcDbEntity
8
0
100
AcDbLine
10
152.77710237515859
20
-32.809086152037949
30
0
11
135.22090131498945
21
-98.329715924856856
31
0
0
LWPOLYLINE
5
456
100
AcDbEntity
8
0
100
AcDbPolyline
90
4
70
1
43
0.0
10
146.25146951078739
20
-53.299374800510904
10
128.76821220569187
20
-48.614749477016957
10
133.42695548946591
20
-31.228085341400945
10
150.91021279405487
20
-35.912709381071195
0
ARC
5
457
100
AcDbEntity
8
0
100
AcDbCircle
10
147.96615640876681
20
-35.718872143651467
30
0
40
3.8939088552697418
210
0
220
0
230
1
100
AcDbArc
50
-15.000000999437029
51
71.770685151812685
0
ARC
5
458
100
AcDbEntity
8
0
100
AcDbCircle
10
178.60204335815408
20
-35.799408023089839
30
0
40
4.0220738233072026
210
0
220
0
230
1
100
AcDbArc
50
104.5251206659925
51
193.3293498470488
0
LINE
5
459
100
AcDbEntity
8
0
100
AcDbLine
10
126.3266688099844
20
-135.56492687713498
30
0
11
118.93933145009284
21
-142.95226423702661
31
0
0
LINE
5
460
100
AcDbEntity
8
0
100
AcDbLine
10
199.88679996851459
20
-135.57765265563381
30
0
11
207.26499891061039
21
-142.95585159772952
31
0
0
CIRCLE
5
461
100
AcDbEntity
8
0
100
AcDbCircle
10
163.12784411178944
20
-85.633530139425005
30
0
40
18.999999999999996
210
0
220
0
230
1
0
LWPOLYLINE
5
462
100
AcDbEntity
8
0
100
AcDbPolyline
90
4
70
1
43
0.0
10
159.99739551885401
20
-116.10245126284225
10
143.99739551885401
20
-116.10245126284225
10
143.99739551885401
20
-128.10245126284224
10
159.99739551885401
20
-128.10245126284224
0
LINE
5
463
100
AcDbEntity
8
0
100
AcDbLine
10
159.99739551885401
20
-116.10245126284225
30
0
11
143.99739551885401
21
-128.10245126284224
31
0
0
LINE
5
464
100
AcDbEntity
8
0
100
AcDbLine
10
143.99739551885401
20
-116.10245126284225
30
0
11
159.99739551885401
21
-128.10245126284224
31
0
0
LWPOLYLINE
5
465
100
AcDbEntity
8
0
100
AcDbPolyline
90
4
70
1
43
0.0
10
183.49775551885404
20
-116.10245070680077
10
167.49775551885404
20
-116.10245070680077
10
167.49775551885404
20
-128.10245070680077
10
183.49775551885404
20
-128.10245070680077
0
LINE
5
466
100
AcDbEntity
8
0
100
AcDbLine
10
183.49775551885404
20
-116.10245070680077
30
0
11
167.49775551885404
21
-128.10245070680077
31
0
0
LINE
5
467
100
AcDbEntity
8
0
100
AcDbLine
10
167.49775551885404
20
-116.10245070680077
30
0
11
183.49775551885404
21
-128.10245070680077
31
0
0
LINE
5
468
100
AcDbEntity
8
0
100
AcDbLine
10
308.9565269909034
20
1.9760260891328187
30
0
11
305.92890986336249
21
-3.2040834029732275
31
0
0
LINE
5
469
100
AcDbEntity
8
0
100
AcDbLine
10
233.64720546492208
20
2.6440343435847771
30
0
11
235.18037400025989
21
-3.156782501267037
31
0
0
LINE
5
470
100
AcDbEntity
8
0
100
AcDbLine
10
163.20011525553844
20
-25.80328962848909
30
0
11
163.10606557395076
21
-31.809374985098344
31
0
0
LINE
5
471
100
AcDbEntity
8
0
100
AcDbLine
10
92.802028926477902
20
3.0836470073665057
30
0
11
91.276763850449527
21
-2.7193014131132331
31
0
0
LINE
5
472
100
AcDbEntity
8
0
100
AcDbLine
10
20.983168624999998
20
-2.8122919677650509
30
0
11
18.558531094638159
21
2.6786817560582108
31
0
0
LINE
5
473
100
AcDbEntity
8
0
100
AcDbLine
10
326.55910496224493
20
-80.291583527531742
30
0
11
331.73922264565931
21
-83.31918664008839
31
0
0
LINE
5
474
100
AcDbEntity
8
0
100
AcDbLine
10
236.60022221506537
20
-118.51192445035778
30
0
11
239.64998745243844
21
-123.70884506215758
31
0
0
LINE
5
475
100
AcDbEntity
8
0
100
AcDbLine
10
163.10607467176357
20
-149.43745100000012
30
0
11
163.10607581025349
21
-143.437451014901
31
0
0
LINE
5
476
100
AcDbEntity
8
0
100
AcDbLine
10
89.611923756134246
20
-118.51192644650786
30
0
11
86.562158345959119
21
-123.70884703520831
31
0
0
LINE
5
477
100
AcDbEntity
8
0
100
AcDbLine
10
-0.2791290040567263
20
-80.147955198858199
30
0
11
-5.4911729377873266
21
-83.120260340334781
31
0
0
CIRCLE
5
478
100
AcDbEntity
8
0
100
AcDbCircle
10
307.44271842713295
20
-0.61402865692020447
30
0
40
1.6249999999999938
210
0
220
0
230
1
0
CIRCLE
5
479
100
AcDbEntity
8
0
100
AcDbCircle
10
234.413789732591
20
-0.25637407884113006
30
0
40
1.6249999999999862
210
0
220
0
230
1
0
CIRCLE
5
480
100
AcDbEntity
8
0
100
AcDbCircle
10
163.15309041474461
20
-28.806332306793717
30
0
40
1.6249999999999902
210
0
220
0
230
1
0
CIRCLE
5
481
100
AcDbEntity
8
0
100
AcDbCircle
10
92.039396388463715
20
0.18217279712663625
30
0
40
1.6250000000000049
210
0
220
0
230
1
0
CIRCLE
5
482
100
AcDbEntity
8
0
100
AcDbCircle
10
19.77084985981908
20
-0.0668051058534197
30
0
40
1.6250000000000009
210
0
220
0
230
1
0
CIRCLE
5
483
100
AcDbEntity
8
0
100
AcDbCircle
10
-2.8851509709220262
20
-81.634107769596483
30
0
40
1.6250000000000042
210
0
220
0
230
1
0
CIRCLE
5
484
100
AcDbEntity
8
0
100
AcDbCircle
10
88.087041051046683
20
-121.11038674085808
30
0
40
1.6250000000000029
210
0
220
0
230
1
0
CIRCLE
5
485
100
AcDbEntity
8
0
100
AcDbCircle
10
163.10607521549841
20
-146.57189280147688
30
0
40
1.6249999999999931
210
0
220
0
230
1
0
CIRCLE
5
486
100
AcDbEntity
8
0
100
AcDbCircle
10
238.12510483375192
20
-121.11038475625769
30
0
40
1.6249999999999878
210
0
220
0
230
1
0
CIRCLE
5
487
100
AcDbEntity
8
0
100
AcDbCircle
10
329.14916380395209
20
-81.805385083810066
30
0
40
1.6250000000000013
210
0
220
0
230
1
0
SPLINE
5
488
100
AcDbEntity
8
0
100
AcDbSpline
70
0
71
3
72
8
73
4
74
0
42
0.000000001
43
0.0000000001
44
0.0000000001
40
0.0027444794326516473
40
0.0027444794326516473
40
0.0027444794326516473
40
0.0027444794326516473
40
1
40
1
40
1
40
1
10
314.04740646232682
20
-204.7170078944873
30
0
10
313.30299719293527
20
-201.90348369328902
30
0
10
311.46969936605251
20
-199.492847057093
30
0
10
308.9565269909034
20
-198.02397391086717
30
0
0
CIRCLE
5
489
100
AcDbEntity
8
0
100
AcDbCircle
10
288.41554500000001
20
-218.55542100000002
30
0
40
1.25
210
0
220
0
230
1
0
SPLINE
5
490
100
AcDbEntity
8
0
100
AcDbSpline
70
0
71
3
72
8
73
4
74
0
42
0.000000001
43
0.0000000001
44
0.0000000001
40
0.0016305457581085399
40
0.0016305457581085399
40
0.0016305457581085399
40
0.0016305457581085399
40
1
40
1
40
1
40
1
10
325.03675987626133
20
-288.41258037002893
30
0
10
327.85432796868321
20
-287.66976230922501
30
0
10
330.26871312563037
20
-285.83517439843729
30
0
10
331.73922264565937
20
-283.31918664008839
30
0
0
SPLINE
5
491
100
AcDbEntity
8
0
100
AcDbSpline
70
0
71
3
72
8
73
4
74
0
42
0.000000001
43
0.0000000001
44
0.0000000001
40
6.3618432323506968e-07
40
6.3618432323506968e-07
40
6.3618432323506968e-07
40
6.3618432323506968e-07
40
0.73716765672811047
40
0.73716765672811047
40
0.73716765672811047
40
0.73716765672811047
10
297.44583646321121
20
-301.79912129114371
30
0
10
298.4917519208974
20
-299.83262163368613
30
0
10
298.89859461254736
20
-297.60555127443479
30
0
10
298.63950606135165
20
-295.42772620789697
30
0
0
CIRCLE
5
492
100
AcDbEntity
8
0
100
AcDbCircle
10
329.14916380395209
20
-281.80538508381005
30
0
40
1.25
210
0
220
0
230
1
0
LINE
5
493
100
AcDbEntity
8
0
100
AcDbLine
10
298.63950606135165
20
-295.42772620789697
30
0
11
325.03675987625945
21
-288.412580370022
31
0
0
CIRCLE
5
494
100
AcDbEntity
8
0
100
AcDbCircle
10
303.13518199999999
20
-273.44137899999998
30
0
40
1.25
210
0
220
0
230
1
0
LINE
5
495
100
AcDbEntity
8
0
100
AcDbLine
10
255.85745367462141
20
-316.11237431448592
30
0
11
290.6086130534419
21
-307.19891739514935
31
0
0
CIRCLE
5
496
100
AcDbEntity
8
0
100
AcDbCircle
10
307.44271842713295
20
-200.6140286569202
30
0
40
1.25
210
0
220
0
230
1
0
LINE
5
497
100
AcDbEntity
8
0
100
AcDbLine
10
332.87930226569529
20
-274.94729604479778
30
0
11
314.04740646232881
21
-204.71700789448676
31
0
0
SPLINE
5
498
100
AcDbEntity
8
0
100
AcDbSpline
70
0
71
3
72
11
73
7
74
0
42
0.000000001
43
0.0000000001
44
0.0000000001
40
-0.0062222329384886751
40
-0.0062222329384886751
40
-0.0062222329384886751
40
-0.0062222329384886751
40
0
40
0
40
0
40
1
40
1
40
1
40
1
10
290.60861305345793
20
-307.19891739514514
30
0
10
290.61506283966122
20
-307.19722371578797
30
0
10
290.62151262588043
20
-307.19553003642659
30
0
10
290.62796241209975
20
-307.19383635706515
30
0
10
293.55037403603808
20
-306.4264266965472
30
0
10
296.02700212317137
20
-304.46677400309068
30
0
10
297.4458364632103
20
-301.79912129114348
30
0
0
SPLINE
5
499
100
AcDbEntity
8
0
100
AcDbSpline
70
0
71
3
72
11
73
7
74
0
42
0.000000001
43
0.0000000001
44
0.0000000001
40
0.026145124769346047
40
0.026145124769346047
40
0.026145124769346047
40
0.026145124769346047
40
1
40
1
40
1
40
1.090179196175
40
1.090179196175
40
1.090179196175
40
1.090179196175
10
112.88556510862344
20
-345.86073679430427
30
0
10
114.81480743154771
20
-347.89955603126486
30
0
10
117.4311643463133
20
-349.16575172306415
30
0
10
120.23231805131618
20
-349.41081595841558
30
0
10
120.33380391510752
20
-349.41969464135423
30
0
10
120.43528977889899
20
-349.42857332429287
30
0
10
120.53677564269053
20
-349.4374520072314
30
0
0
SPLINE
5
500
100
AcDbEntity
8
0
100
AcDbSpline
70
0
71
3
72
11
73
7
74
0
42
0.000000001
43
0.0000000001
44
0.0000000001
40
0
40
0
40
0
40
0
40
1
40
1
40
1
40
1.0122572061017778
40
1.0122572061017778
40
1.0122572061017778
40
1.0122572061017778
10
308.95652209232577
20
-198.02397104779956
30
0
10
306.43643152247967
20
-196.5510571667468
30
0
10
303.42675528761174
20
-196.13851904823238
30
0
10
300.60327405009411
20
-196.87898847232205
30
0
10
300.59064556096246
20
-196.88230034489632
30
0
10
300.57801707183074
20
-196.88561221747057
30
0
10
300.56538858270045
20
-196.88892409004444
30
0
0
LINE
5
501
100
AcDbEntity
8
0
100
AcDbLine
10
274.47130084539788
20
-204.04522132564688
30
0
11
273.26601122506014
21
-199.54702685438019
31
0
0
SPLINE
5
502
100
AcDbEntity
8
0
100
AcDbSpline
70
0
71
3
72
17
73
13
74
0
42
0.000000001
43
0.0000000001
44
0.0000000001
40
-0.23879543176288098
40
-0.23879543176288098
40
-0.23879543176288098
40
-0.23879543176288098
40
0
40
0
40
0
40
0.68683398877320467
40
0.68683398877320467
40
0.68683398877320467
40
1
40
1
40
1
40
1.0098201886308564
40
1.0098201886308564
40
1.0098201886308564
40
1.0098201886308564
10
273.26601122506031
20
-199.54702685438042
30
0
10
273.04024494964506
20
-199.21760712349069
30
0
10
272.81447867423003
20
-198.8881873926012
30
0
10
272.58871239881506
20
-198.55876766171173
30
0
10
270.80153887100556
20
-195.95106984900011
30
0
10
268.00090593742829
20
-194.28515115347651
30
0
10
264.97501224429232
20
-193.8871964268121
30
0
10
263.59533815453403
20
-193.70574662025703
30
0
10
262.16018509645664
20
-193.78682062917994
30
0
10
260.76590397259827
20
-194.15247675489982
30
0
10
260.75001799093286
20
-194.1566429208255
30
0
10
260.73413200926746
20
-194.16080908675121
30
0
10
260.71824602760125
20
-194.1649752526771
30
0
0
SPLINE
5
503
100
AcDbEntity
8
0
100
AcDbSpline
70
0
71
3
72
11
73
7
74
0
42
0.000000001
43
0.0000000001
44
0.0000000001
40
0
40
0
40
0
40
0
40
1
40
1
40
1
40
1.0060252209763647
40
1.0060252209763647
40
1.0060252209763647
40
1.0060252209763647
10
331.73922550871066
20
-283.31918174150826
30
0
10
333.21213363941229
20
-280.79908535959896
30
0
10
333.62466556407367
20
-277.78940429765879
30
0
10
332.88418634596582
20
-274.96591929184405
30
0
10
332.8825583192048
20
-274.95971154281278
30
0
10
332.88093029244567
20
-274.95350379378885
30
0
10
332.87930226569523
20
-274.94729604479778
30
0
0
LINE
5
504
100
AcDbEntity
8
0
100
AcDbLine
10
120.53677564269051
20
-349.4374520072314
30
0
11
205.67537370083664
21
-349.43744999276879
31
0
0
CIRCLE
5
505
100
AcDbEntity
8
0
100
AcDbCircle
10
163.10607521549841
20
-346.57189280147691
30
0
40
1.25
210
0
220
0
230
1
0
LINE
5
506
100
AcDbEntity
8
0
100
AcDbLine
10
213.32658515427067
20
-345.86073646413513
30
0
11
225.27113078052398
21
-334.04099722847423
31
0
0
SPLINE
5
507
100
AcDbEntity
8
0
100
AcDbSpline
70
0
71
3
72
11
73
7
74
0
42
0.000000001
43
0.0000000001
44
0.0000000001
40
-0.090178401068116532
40
-0.090178401068116532
40
-0.090178401068116532
40
-0.090178401068116532
40
0
40
0
40
0
40
0.97385504646851928
40
0.97385504646851928
40
0.97385504646851928
40
0.97385504646851928
10
205.67537370083667
20
-349.43744999276879
30
0
10
205.77685857965213
20
-349.42857147829164
30
0
10
205.87834345846773
20
-349.4196929638145
30
0
10
205.97982833728332
20
-349.41081444933735
30
0
10
208.78098318263523
20
-349.16575238553554
30
0
10
211.39734228697012
20
-347.89955694384162
30
0
10
213.3265851542707
20
-345.86073646413513
30
0
0
SPLINE
5
508
100
AcDbEntity
8
0
100
AcDbSpline
70
0
71
3
72
8
73
4
74
0
42
0.000000001
43
0.0000000001
44
0.0000000001
40
0.0047226870963755765
40
0.0047226870963755765
40
0.0047226870963755765
40
0.0047226870963755765
40
1
40
1
40
1
40
1
10
208.4524511020017
20
-208.28852416284428
30
0
10
205.6460968029885
20
-209.03576290385786
30
0
10
203.24210820985314
20
-210.86679091484041
30
0
10
201.77615281793859
20
-213.37499412154031
30
0
0
LINE
5
509
100
AcDbEntity
8
0
100
AcDbLine
10
51.239646433286261
20
-203.56612599377686
30
0
11
25.855315187470815
21
-196.78225630633386
31
0
0
CIRCLE
5
510
100
AcDbEntity
8
0
100
AcDbCircle
10
206.96913100000003
20
-296.54021599999999
30
0
40
1.2500000000000053
210
0
220
0
230
1
0
LINE
5
511
100
AcDbEntity
8
0
100
AcDbLine
10
274.47130084539788
20
-204.04522132564688
30
0
11
300.56538858270045
21
-196.88892409004444
31
0
0
LINE
5
512
100
AcDbEntity
8
0
100
AcDbLine
10
100.94101400568151
20
-334.04100169326279
30
0
11
112.88556510862347
21
-345.86073679430427
31
0
0
LINE
5
513
100
AcDbEntity
8
0
100
AcDbLine
10
118.29488417256762
20
-208.14960864505693
30
0
11
108.21756060898501
21
-205.38819284677527
31
0
0
LINE
5
514
100
AcDbEntity
8
0
100
AcDbLine
10
1.1882711739959131
20
-288.29334182386378
30
0
11
27.781164611560779
21
-295.42019482572323
31
0
0
SPLINE
5
515
100
AcDbEntity
8
0
100
AcDbSpline
70
0
71
3
72
8
73
4
74
0
42
0.000000001
43
0.0000000001
44
0.0000000001
40
0.19851742027130134
40
0.19851742027130134
40
0.19851742027130134
40
0.19851742027130134
40
1
40
1
40
1
40
1
10
27.781164611560779
20
-295.42019482572323
30
0
10
27.526733101610855
20
-297.71845107547767
30
0
10
28.00204056271404
20
-300.057256559135
30
0
10
29.160995900599119
20
-302.08951982460565
30
0
0
CIRCLE
5
516
100
AcDbEntity
8
0
100
AcDbCircle
10
-2.8851509709220262
20
-281.63410776959648
30
0
40
1.25
210
0
220
0
230
1
0
CIRCLE
5
517
100
AcDbEntity
8
0
100
AcDbCircle
10
249.55066700000003
20
-298.25552199999998
30
0
40
1.2499999999999925
210
0
220
0
230
1
0
LINE
5
518
100
AcDbEntity
8
0
100
AcDbLine
10
-0.2791290040567263
20
-280.1479551988582
30
0
11
-5.4911729377873266
21
-283.12026034033477
31
0
0
SPLINE
5
519
100
AcDbEntity
8
0
100
AcDbSpline
70
0
71
3
72
11
73
7
74
0
42
0.000000001
43
0.0000000001
44
0.0000000001
40
6.5192870857121913e-07
40
6.5192870857121913e-07
40
6.5192870857121913e-07
40
6.5192870857121913e-07
40
1
40
1
40
1
40
1.0057784402686976
40
1.0057784402686976
40
1.0057784402686976
40
1.0057784402686976
10
-5.4911729377881633
20
-283.12026034033499
30
0
10
-4.0451649346215053
20
-285.65588911030096
30
0
10
-1.6449761715911353
20
-287.51799277380712
30
0
10
1.1704615761707333
20
-288.28846803309597
30
0
10
1.1763981087868813
20
-288.29009263002069
30
0
10
1.1823346414029341
20
-288.29171722694537
30
0
10
1.1882711739959129
20
-288.29334182386378
30
0
0
LINE
5
520
100
AcDbEntity
8
0
100
AcDbLine
10
70.354994005128248
20
-316.11251964389555
30
0
11
86.562158345959119
21
-323.70884703520829
31
0
0
SPLINE
5
521
100
AcDbEntity
8
0
100
AcDbSpline
70
0
71
3
72
11
73
7
74
0
42
0.000000001
43
0.0000000001
44
0.0000000001
40
3.7178089148710902e-07
40
3.7178089148710902e-07
40
3.7178089148710902e-07
40
3.7178089148710902e-07
40
1
40
1
40
1
40
1.0176684180979065
40
1.0176684180979065
40
1.0176684180979065
40
1.0176684180979065
10
29.160995900598891
20
-302.08951982460576
30
0
10
30.607008011452315
20
-304.6251468259552
30
0
10
33.007205542794217
20
-306.48725030970945
30
0
10
35.822651032441527
20
-307.25771672577372
30
0
10
35.840802840790843
20
-307.26268409551164
30
0
10
35.858954649139079
20
-307.26765146524923
30
0
10
35.877106457484025
20
-307.27261883498602
30
0
0
LINE
5
522
100
AcDbEntity
8
0
100
AcDbLine
10
239.64998745243844
20
-323.70884506215759
30
0
11
255.85745367462141
21
-316.11237431448592
31
0
0
CIRCLE
5
523
100
AcDbEntity
8
0
100
AcDbCircle
10
24.028677999999999
20
-271.86833899999999
30
0
40
1.2499999999999998
210
0
220
0
230
1
0
CIRCLE
5
524
100
AcDbEntity
8
0
100
AcDbCircle
10
88.087041051046683
20
-321.11038674085808
30
0
40
1.25
210
0
220
0
230
1
0
LINE
5
525
100
AcDbEntity
8
0
100
AcDbLine
10
12.343239647940784
20
-204.52152799037779
30
0
11
-6.5522031018224292
21
-274.77370820832328
31
0
0
LINE
5
526
100
AcDbEntity
8
0
100
AcDbLine
10
75.867450033894627
20
-196.31081148521372
30
0
11
64.365832182109116
21
-193.2465497375168
31
0
0
CIRCLE
5
527
100
AcDbEntity
8
0
100
AcDbCircle
10
76.923347000000007
20
-298.02747700000003
30
0
40
1.2499999999999987
210
0
220
0
230
1
0
LINE
5
528
100
AcDbEntity
8
0
100
AcDbLine
10
225.27113078052398
20
-334.04099722847423
30
0
11
239.64998745243844
21
-323.70884506215759
31
0
0
SPLINE
5
529
100
AcDbEntity
8
0
100
AcDbSpline
70
0
71
3
72
8
73
4
74
0
42
0.000000001
43
0.0000000001
44
0.0000000001
40
0.87993067700894523
40
0.87993067700894523
40
0.87993067700894523
40
0.87993067700894523
40
1
40
1
40
1
40
1
10
108.21756060898502
20
-205.38819284677521
30
0
10
108.07736835374014
20
-205.06216703821474
30
0
10
107.92074168902184
20
-204.7413686106091
30
0
10
107.74824210308493
20
-204.42788577244448
30
0
0
SPLINE
5
530
100
AcDbEntity
8
0
100
AcDbSpline
70
0
71
3
72
11
73
7
74
0
42
0.000000001
43
0.0000000001
44
0.0000000001
40
0
40
0
40
0
40
0
40
1
40
1
40
1
40
1.0062752837203133
40
1.0062752837203133
40
1.0062752837203133
40
1.0062752837203133
10
107.74823938934999
20
-204.42788084078902
30
0
10
106.31156802115596
20
-201.81702842556518
30
0
10
103.87179451979256
20
-199.89428027746212
30
0
10
100.99745042154998
20
-199.10768922967912
30
0
10
100.99085594552278
20
-199.10588458986197
30
0
10
100.98426146949589
20
-199.10407995004493
30
0
10
100.97766699346705
20
-199.10227531022738
30
0
0
CIRCLE
5
531
100
AcDbEntity
8
0
100
AcDbCircle
10
178.56025900000003
20
-337.62403999999998
30
0
40
1.7500000000000091
210
0
220
0
230
1
0
LINE
5
532
100
AcDbEntity
8
0
100
AcDbLine
10
86.562158345959119
20
-323.70884703520829
30
0
11
100.94101400568151
21
-334.04100169326279
31
0
0
SPLINE
5
533
100
AcDbEntity
8
0
100
AcDbSpline
70
0
71
3
72
8
73
4
74
0
42
0.000000001
43
0.0000000001
44
0.0000000001
40
0.0021803351243692738
40
0.0021803351243692738
40
0.0021803351243692738
40
0.0021803351243692738
40
1
40
1
40
1
40
1
10
-6.5522031018238645
20
-274.77370820832289
30
0
10
-7.3160098255414097
20
-277.58386837814942
30
0
10
-6.9340280267654562
20
-280.59016206448115
30
0
10
-5.4911729377873257
20
-283.12026034033477
30
0
0
CIRCLE
5
534
100
AcDbEntity
8
0
100
AcDbCircle
10
19.77084985981908
20
-200.0668051058534
30
0
40
1.25
210
0
220
0
230
1
0
SPLINE
5
535
100
AcDbEntity
8
0
100
AcDbSpline
70
0
71
3
72
14
73
10
74
0
42
0.000000001
43
0.0000000001
44
0.0000000001
40
0.4415830668103613
40
0.4415830668103613
40
0.4415830668103613
40
0.4415830668103613
40
0.88305318022559032
40
0.88305318022559032
40
0.88305318022559032
40
1
40
1
40
1
40
1.0016443599316747
40
1.0016443599316747
40
1.0016443599316747
40
1.0016443599316747
10
250.65740463337906
20
-196.95540934013434
30
0
10
248.63257369642898
20
-195.51563175859724
30
0
10
246.1246095809035
20
-194.76472054990933
30
0
10
243.53258811570268
20
-194.94009303493874
30
0
10
242.8459534876024
20
-194.98654975709707
30
0
10
242.15617158381431
20
-195.09831230534684
30
0
10
241.477320290634
20
-195.2763433602247
30
0
10
241.47379237066619
20
-195.27726856920594
30
0
10
241.47026445069719
20
-195.27819377818753
30
0
10
241.46673653070775
20
-195.27911898717448
30
0
0
LINE
5
536
100
AcDbEntity
8
0
100
AcDbLine
10
173.25907842806635
20
-225.79769660724901
30
0
11
153.14115208301052
21
-225.80888264972916
31
0
0
SPLINE
5
537
100
AcDbEntity
8
0
100
AcDbSpline
70
0
71
3
72
14
73
10
74
0
42
0.000000001
43
0.0000000001
44
0.0000000001
40
-0.012895237610576144
40
-0.012895237610576144
40
-0.012895237610576144
40
-0.012895237610576144
40
0
40
0
40
0
40
0.43689458584066859
40
0.43689458584066859
40
0.43689458584066859
40
0.54671458611244583
40
0.54671458611244583
40
0.54671458611244583
40
0.54671458611244583
10
84.626390859489135
20
-194.73043067503971
30
0
10
84.600566727697213
20
-194.72415265439935
30
0
10
84.574742595905803
20
-194.71787463375907
30
0
10
84.548918464114152
20
-194.71159661311876
30
0
10
82.098060913059726
20
-194.11577660971534
30
0
10
79.560136033997708
20
-194.41986799248428
30
0
10
77.414276495683964
20
-195.42456193605688
30
0
10
76.874882548681043
20
-195.67710681240018
30
0
10
76.359070249948488
20
-195.97253189025278
30
0
10
75.867450033894627
20
-196.31081148521372
30
0
0
CIRCLE
5
538
100
AcDbEntity
8
0
100
AcDbCircle
10
163.208494
20
-336.157871
30
0
40
1.2499999999999969
210
0
220
0
230
1
0
CIRCLE
5
539
100
AcDbEntity
8
0
100
AcDbCircle
10
38.016259000000005
20
-218.695098
30
0
40
1.2500000000000004
210
0
220
0
230
1
0
CIRCLE
5
540
100
AcDbEntity
8
0
100
AcDbCircle
10
87.489848000000009
20
-254.01091600000001
30
0
40
1.2499999999999936
210
0
220
0
230
1
0
CIRCLE
5
541
100
AcDbEntity
8
0
100
AcDbCircle
10
92.039396388463715
20
-199.81782720287333
30
0
40
1.25
210
0
220
0
230
1
0
CIRCLE
5
542
100
AcDbEntity
8
0
100
AcDbCircle
10
238.12510483375192
20
-321.1103847562577
30
0
40
1.25
210
0
220
0
230
1
0
LINE
5
543
100
AcDbEntity
8
0
100
AcDbLine
10
218.60867698404221
20
-205.52191143172453
30
0
11
208.45245110200207
21
-208.28852416284553
31
0
0
SPLINE
5
544
100
AcDbEntity
8
0
100
AcDbSpline
70
0
71
3
72
17
73
13
74
0
42
0.000000001
43
0.0000000001
44
0.0000000001
40
-0.077863097668346537
40
-0.077863097668346537
40
-0.077863097668346537
40
-0.077863097668346537
40
0
40
0
40
0
40
0.81286472420994871
40
0.81286472420994871
40
0.81286472420994871
40
1
40
1
40
1
40
1.2031103891525257
40
1.2031103891525257
40
1.2031103891525257
40
1.2031103891525257
10
64.365832182109131
20
-193.2465497375168
30
0
10
64.241367942623185
20
-193.2274153484434
30
0
10
64.11690370313724
20
-193.20828095937
30
0
10
63.992439463651316
20
-193.1891465702966
30
0
10
60.427176346307562
20
-192.64104430479375
30
0
10
56.851227922748592
20
-193.88818704528919
30
0
10
54.404741701688351
20
-196.43255802935246
30
0
10
53.841518990628231
20
-197.01831547660504
30
0
10
53.33772656943178
20
-197.6730006180062
30
0
10
52.909692415040951
20
-198.38461512100304
30
0
10
52.7403777666499
20
-198.66610377822565
30
0
10
52.571063118258856
20
-198.94759243544823
30
0
10
52.401748469867812
20
-199.22908109267084
30
0
0
CIRCLE
5
545
100
AcDbEntity
8
0
100
AcDbCircle
10
163.15309041474461
20
-228.80633230679371
30
0
40
1.25
210
0
220
0
230
1
0
LINE
5
546
100
AcDbEntity
8
0
100
AcDbLine
10
260.71824602760125
20
-194.1649752526771
30
0
11
250.65740463337906
21
-196.95540934013437
31
0
0
LINE
5
547
100
AcDbEntity
8
0
100
AcDbLine
10
100.97766699346704
20
-199.10227531022738
30
0
11
84.626390859488765
21
-194.73043067503963
31
0
0
LINE
5
548
100
AcDbEntity
8
0
100
AcDbLine
10
52.401748469867798
20
-199.22908109267084
30
0
11
51.239646433286261
21
-203.56612599377686
31
0
0
LINE
5
549
100
AcDbEntity
8
0
100
AcDbLine
10
183.96993686398247
20
-223.02266956656388
30
0
11
173.25907842806635
21
-225.79769660724901
31
0
0
LINE
5
550
100
AcDbEntity
8
0
100
AcDbLine
10
153.14115208301052
20
-225.80888264972916
30
0
11
142.47127064019693
21
-223.0713235530408
31
0
0
CIRCLE
5
551
100
AcDbEntity
8
0
100
AcDbCircle
10
239.29047600000001
20
-255.21597499999999
30
0
40
1.25
210
0
220
0
230
1
0
LINE
5
552
100
AcDbEntity
8
0
100
AcDbLine
10
241.46673653070769
20
-195.27911898717448
30
0
11
225.82767439913647
21
-199.43281232565596
31
0
0
CIRCLE
5
553
100
AcDbEntity
8
0
100
AcDbCircle
10
234.413789732591
20
-200.25637407884113
30
0
40
1.25
210
0
220
0
230
1
0
LINE
5
554
100
AcDbEntity
8
0
100
AcDbLine
10
201.27958829580342
20
-214.32854065322059
30
0
11
191.17190252352543
21
-216.995779869432
31
0
0
LINE
5
555
100
AcDbEntity
8
0
100
AcDbLine
10
191.17190252352543
20
-216.995779869432
30
0
11
191.16162295955615
21
-216.99849246425956
31
0
0
SPLINE
5
556
100
AcDbEntity
8
0
100
AcDbSpline
70
0
71
3
72
11
73
7
74
0
42
0.000000001
43
0.0000000001
44
0.0000000001
40
0.43554383107323164
40
0.43554383107323164
40
0.43554383107323164
40
0.43554383107323164
40
0.88305251275150864
40
0.88305251275150864
40
0.88305251275150864
40
1
40
1
40
1
40
1
10
125.44749459151232
20
-214.28665155249521
30
0
10
124.42081521149917
20
-211.98670989852087
30
0
10
122.60727736477708
20
-210.04584598449173
30
0
10
120.24293372754434
20
-208.88605249664349
30
0
10
119.62505957518295
20
-208.58296355181596
30
0
10
118.97180618335931
20
-208.33485797533302
30
0
10
118.29488417256762
20
-208.14960864505693
30
0
0
SPLINE
5
557
100
AcDbEntity
8
0
100
AcDbSpline
70
0
71
3
72
11
73
7
74
0
42
0.000000001
43
0.0000000001
44
0.0000000001
40
0.44223869123525927
40
0.44223869123525927
40
0.44223869123525927
40
0.44223869123525927
40
0.88304988092025849
40
0.88304988092025849
40
0.88304988092025849
40
0.9991743383244408
40
0.9991743383244408
40
0.9991743383244408
40
0.9991743383244408
10
142.47127064019693
20
-223.07132355304077
30
0
10
141.43689404875545
20
-220.81643816577215
30
0
10
139.6422662771968
20
-218.91610494966216
30
0
10
137.31330471472637
20
-217.77366513037518
30
0
10
136.69977809814856
20
-217.47270815097897
30
0
10
136.05136953689163
20
-217.22595906644071
30
0
10
135.37954044701519
20
-217.04113928753196
30
0
0
CIRCLE
5
558
100
AcDbEntity
8
0
100
AcDbCircle
10
194.69334200000003
20
-235.96963299999999
30
0
40
1.25
210
0
220
0
230
1
0
LINE
5
559
100
AcDbEntity
8
0
100
AcDbLine
10
35.877106457484018
20
-307.27261883498602
30
0
11
70.354994005128248
21
-316.11251964389555
31
0
0
CIRCLE
5
560
100
AcDbEntity
8
0
100
AcDbCircle
10
117.993156
20
-296.38068100000004
30
0
40
1.2499999999999929
210
0
220
0
230
1
0
SPLINE
5
561
100
AcDbEntity
8
0
100
AcDbSpline
70
0
71
3
72
11
73
7
74
0
42
0.000000001
43
0.0000000001
44
0.0000000001
40
0.000755465191508411
40
0.000755465191508411
40
0.000755465191508411
40
0.000755465191508411
40
0.42390228295036803
40
0.42390228295036803
40
0.42390228295036803
40
0.56653950974857792
40
0.56653950974857792
40
0.56653950974857792
40
0.56653950974857792
10
225.82767439913709
20
-199.43281232565838
30
0
10
223.37262260137618
20
-200.0798786256243
30
0
10
221.2672498642288
20
-201.5554179354248
30
0
10
219.83489914330673
20
-203.4586538979421
30
0
10
219.35207255437751
20
-204.10020970846173
30
0
10
218.9420456068799
20
-204.78981996620098
30
0
10
218.60867698404221
20
-205.52191143172453
30
0
0
SPLINE
5
562
100
AcDbEntity
8
0
100
AcDbSpline
70
0
71
3
72
17
73
13
74
0
42
0.000000001
43
0.0000000001
44
0.0000000001
40
0.0014447181020519292
40
0.0014447181020519292
40
0.0014447181020519292
40
0.0014447181020519292
40
0.42390202565255197
40
0.42390202565255197
40
0.42390202565255197
40
0.88304928988554043
40
0.88304928988554043
40
0.88304928988554043
40
1
40
1
40
1
40
1.002298897135945
40
1.002298897135945
40
1.002298897135945
40
1.002298897135945
10
25.855315187471145
20
-196.78225630633261
30
0
10
23.409289249667964
20
-196.1190383384606
30
0
10
20.85297062793455
20
-196.34505398783037
30
0
10
18.66447271638409
20
-197.27561371482355
30
0
10
16.285906146677199
20
-198.28699153979645
30
0
10
14.273696745234012
20
-200.13282731072456
30
0
10
13.083737567721057
20
-202.55866488674715
30
0
10
12.780639669381538
20
-203.17655689926326
30
0
10
12.532528399367479
20
-203.82983033039136
30
0
10
12.347277343512131
20
-204.50677347085468
30
0
10
12.3459314449884
20
-204.51169164402887
30
0
10
12.344585546464605
20
-204.51660981720329
30
0
10
12.343239647940788
20
-204.52152799037779
30
0
0
LINE
5
563
100
AcDbEntity
8
0
100
AcDbLine
10
135.37954044701519
20
-217.04113928753196
30
0
11
125.44749459151234
21
-214.28665155249516
31
0
0
LINE
5
564
100
AcDbEntity
8
0
100
AcDbLine
10
173.60606557395073
20
-231.80937593964381
30
0
11
173.6061192372951
21
-231.90588864382426
31
0
0
SPLINE
5
565
100
AcDbEntity
8
0
100
AcDbSpline
70
0
71
3
72
8
73
4
74
0
42
0.000000001
43
0.0000000001
44
0.0000000001
40
1.0266266696988879e-06
40
1.0266266696988879e-06
40
1.0266266696988879e-06
40
1.0266266696988879e-06
40
0.12329379941061402
40
0.12329379941061402
40
0.12329379941061402
40
0.12329379941061402
10
201.77615281793689
20
-213.37499412153903
30
0
10
201.59455309236736
20
-213.68570516217903
30
0
10
201.428830773399
20
-214.00423699563106
30
0
10
201.27958829580342
20
-214.32854065322059
30
0
0
SPLINE
5
566
100
AcDbEntity
8
0
100
AcDbSpline
70
0
71
3
72
11
73
7
74
0
42
0.000000001
43
0.0000000001
44
0.0000000001
40
0.00059055420534561028
40
0.00059055420534561028
40
0.00059055420534561028
40
0.00059055420534561028
40
0.42390456627546214
40
0.42390456627546214
40
0.42390456627546214
40
0.56225695139430143
40
0.56225695139430143
40
0.56225695139430143
40
0.56225695139430143
10
191.16162219823909
20
-216.99848957919653
30
0
10
188.70533697808361
20
-217.64518521769699
30
0
10
186.5988736510393
20
-219.12113093585933
30
0
10
185.16596640872052
20
-221.02512258756269
30
0
10
184.69764707844516
20
-221.64740717713096
30
0
10
184.29787438562104
20
-222.31483237786665
30
0
10
183.96993686398247
20
-223.02266956656388
30
0
0
CIRCLE
5
567
100
AcDbEntity
8
0
100
AcDbCircle
10
132.005427
20
-235.00838999999999
30
0
40
1.2499999999999987
210
0
220
0
230
1
0
LINE
5
568
100
AcDbEntity
8
0
100
AcDbLine
10
152.25938715016514
20
-32.809374013937834
30
0
11
152.25938233198409
21
-85.809365705900547
31
0
0
LINE
5
569
100
AcDbEntity
8
0
100
AcDbLine
10
174.15306472561389
20
-32.797200611808542
30
0
11
174.15305990632601
21
-85.809367592264181
31
0
0
LINE
5
570
100
AcDbEntity
8
0
100
AcDbLine
10
174.15305990632601
20
-85.809367592264181
30
0
11
152.25938233198409
21
-85.809365705900547
31
0
0
LINE
5
571
100
AcDbEntity
8
0
100
AcDbLine
10
174.15306472561389
20
-32.797200611808542
30
0
11
174.15306481952459
21
-31.764183028952111
31
0
0
LINE
5
572
100
AcDbEntity
8
0
100
AcDbLine
10
152.25938715016514
20
-32.809374013937834
30
0
11
152.25938724107422
21
-31.809373999036676
31
0
0
ENDSEC
0
SECTION
2
OBJECTS
0
DICTIONARY
5
C
100
AcDbDictionary
3
ACAD_GROUP
350
D
3
ACAD_MLINESTYLE
350
17
0
DICTIONARY
5
D
100
AcDbDictionary
0
DICTIONARY
5
1A
330
C
100
AcDbDictionary
0
DICTIONARY
5
17
100
AcDbDictionary
0
ENDSEC
0
EOF
