  0
SECTION
  2
HEADER
  9
$ACADVER
  1
AC1014
  9
$HANDSEED
  5
FFFF
  9
$MEASUREMENT
 70
     1
  0
ENDSEC
  0
SECTION
  2
TABLES
  0
TABLE
  2
VPORT
  5
8
330
0
100
AcDbSymbolTable
 70
     4
  0
VPORT
  5
2E
330
8
100
AcDbSymbolTableRecord
100
AcDbViewportTableRecord
  2
*ACTIVE
 70
     0
 10
0.0
 20
0.0
 11
1.0
 21
1.0
 12
210.0
 22
148.5
 13
0.0
 23
0.0
 14
10.0
 24
10.0
 15
10.0
 25
10.0
 16
0.0
 26
0.0
 36
1.0
 17
0.0
 27
0.0
 37
0.0
 40
341.0
 41
1.24
 42
50.0
 43
0.0
 44
0.0
 50
0.0
 51
0.0
 71
     0
 72
   100
 73
     1
 74
     3
 75
     0
 76
     0
 77
     0
 78
     0
  0
ENDTAB
  0
TABLE
  2
LTYPE
  5
5
330
0
100
AcDbSymbolTable
 70
     1
  0
LTYPE
  5
14
330
5
100
AcDbSymbolTableRecord
100
AcDbLinetypeTableRecord
  2
BYBLOCK
 70
     0
  3

 72
    65
 73
     0
 40
0.0
  0
LTYPE
  5
15
330
5
100
AcDbSymbolTableRecord
100
AcDbLinetypeTableRecord
  2
BYLAYER
 70
     0
  3

 72
    65
 73
     0
 40
0.0
  0
LTYPE
  5
16
330
5
100
AcDbSymbolTableRecord
100
AcDbLinetypeTableRecord
  2
CONTINUOUS
 70
     0
  3
Solid line
 72
    65
 73
     0
 40
0.0
  0
ENDTAB
  0
TABLE
  2
LAYER
  5
2
100
AcDbSymbolTable
 70
1
  0
LAYER
  5
50
100
AcDbSymbolTableRecord
100
AcDbLayerTableRecord
  2
0
 70
0
  6
CONTINUOUS
  0
ENDTAB
  0
TABLE
  2
STYLE
  5
3
330
0
100
AcDbSymbolTable
 70
     1
  0
STYLE
  5
11
330
3
100
AcDbSymbolTableRecord
100
AcDbTextStyleTableRecord
  2
STANDARD
 70
     0
 40
0.0
 41
1.0
 50
0.0
 71
     0
 42
2.5
  3
txt
  4

  0
ENDTAB
  0
TABLE
  2
VIEW
  5
6
330
0
100
AcDbSymbolTable
 70
     0
  0
ENDTAB
  0
TABLE
  2
UCS
  5
7
330
0
100
AcDbSymbolTable
 70
     0
  0
ENDTAB
  0
TABLE
  2
APPID
  5
9
330
0
100
AcDbSymbolTable
 70
     2
  0
APPID
  5
12
330
9
100
AcDbSymbolTableRecord
100
AcDbRegAppTableRecord
  2
ACAD
 70
     0
  0
ENDTAB
  0
TABLE
  2
DIMSTYLE
  5
A
330
0
100
AcDbSymbolTable
 70
     1
  0
DIMSTYLE
105
27
330
A
100
AcDbSymbolTableRecord
100
AcDbDimStyleTableRecord
  2
ISO-25
 70
     0
  3

  4

  5

  6

  7

 40
1.0
 41
2.5
 42
0.625
 43
3.75
 44
1.25
 45
0.0
 46
0.0
 47
0.0
 48
0.0
140
2.5
141
2.5
142
0.0
143
0.03937007874016
144
1.0
145
0.0
146
1.0
147
0.625
 71
     0
 72
     0
 73
     0
 74
     0
 75
     0
 76
     0
 77
     1
 78
     8
170
     0
171
     3
172
     1
173
     0
174
     0
175
     0
176
     0
177
     0
178
     0
270
     2
271
     2
272
     2
273
     2
274
     3
340
11
275
     0
280
     0
281
     0
282
     0
283
     0
284
     8
285
     0
286
     0
287
     3
288
     0
  0
ENDTAB
  0
TABLE
  2
BLOCK_RECORD
  5
1
330
0
100
AcDbSymbolTable
 70
     1
  0
BLOCK_RECORD
  5
1F
330
1
100
AcDbSymbolTableRecord
100
AcDbBlockTableRecord
  2
*MODEL_SPACE
  0
BLOCK_RECORD
  5
1B
330
1
100
AcDbSymbolTableRecord
100
AcDbBlockTableRecord
  2
*PAPER_SPACE
  0
ENDTAB
  0
ENDSEC
  0
SECTION
  2
BLOCKS
  0
BLOCK
  5
20
330
1F
100
AcDbEntity
  8
0
100
AcDbBlockBegin
  2
*MODEL_SPACE
 70
     0
 10
0.0
 20
0.0
 30
0.0
  3
*MODEL_SPACE
  1

  0
ENDBLK
  5
21
330
1F
100
AcDbEntity
  8
0
100
AcDbBlockEnd
  0
BLOCK
  5
1C
330
1B
100
AcDbEntity
 67
     1
  8
0
100
AcDbBlockBegin
  2
*PAPER_SPACE
  1

  0
ENDBLK
  5
1D
330
1B
100
AcDbEntity
 67
     1
  8
0
100
AcDbBlockEnd
  0
ENDSEC
  0
SECTION
  2
ENTITIES
  0
LWPOLYLINE
  5
100
100
AcDbEntity
  8
0
 62
7
100
AcDbPolyline
 90
2
 70
0
 10
72.106756
 20
-28.255968
 30
0.0
 10
68.483289
 20
-41.778929
 30
0.0
  0
LWPOLYLINE
  5
101
100
AcDbEntity
  8
0
 62
7
100
AcDbPolyline
 90
2
 70
0
 10
54.960328
 20
-38.155462
 30
0.0
 10
58.583795
 20
-24.632501
 30
0.0
  0
LWPOLYLINE
  5
102
100
AcDbEntity
  8
0
 62
7
100
AcDbPolyline
 90
2
 70
0
 10
72.106756
 20
-28.255968
 30
0.0
 10
58.583795
 20
-24.632501
 30
0.0
  0
LWPOLYLINE
  5
103
100
AcDbEntity
  8
0
 62
7
100
AcDbPolyline
 90
2
 70
0
 10
54.960328
 20
-38.155462
 30
0.0
 10
68.483289
 20
-41.778929
 30
0.0
  0
LWPOLYLINE
  5
104
100
AcDbEntity
  8
0
 62
7
100
AcDbPolyline
 90
2
 70
0
 10
91.494618
 20
-29.309834
 30
0.0
 10
87.871151
 20
-42.832795
 30
0.0
  0
LWPOLYLINE
  5
105
100
AcDbEntity
  8
0
 62
7
100
AcDbPolyline
 90
2
 70
0
 10
91.494618
 20
-29.309834
 30
0.0
 10
77.971657
 20
-25.686367
 30
0.0
  0
LWPOLYLINE
  5
106
100
AcDbEntity
  8
0
 62
7
100
AcDbPolyline
 90
2
 70
0
 10
74.348190
 20
-39.209328
 30
0.0
 10
77.971657
 20
-25.686367
 30
0.0
  0
LWPOLYLINE
  5
107
100
AcDbEntity
  8
0
 62
7
100
AcDbPolyline
 90
2
 70
0
 10
74.348190
 20
-39.209328
 30
0.0
 10
87.871151
 20
-42.832795
 30
0.0
  0
LWPOLYLINE
  5
108
100
AcDbEntity
  8
0
 62
7
100
AcDbPolyline
 90
2
 70
0
 10
108.811937
 20
-38.091092
 30
0.0
 10
105.188470
 20
-51.614053
 30
0.0
  0
LWPOLYLINE
  5
109
100
AcDbEntity
  8
0
 62
7
100
AcDbPolyline
 90
2
 70
0
 10
91.665509
 20
-47.990586
 30
0.0
 10
95.288976
 20
-34.467625
 30
0.0
  0
LWPOLYLINE
  5
10a
100
AcDbEntity
  8
0
 62
7
100
AcDbPolyline
 90
2
 70
0
 10
91.665509
 20
-47.990586
 30
0.0
 10
105.188470
 20
-51.614053
 30
0.0
  0
LWPOLYLINE
  5
10b
100
AcDbEntity
  8
0
 62
7
100
AcDbPolyline
 90
2
 70
0
 10
108.811937
 20
-38.091092
 30
0.0
 10
95.288976
 20
-34.467625
 30
0.0
  0
LWPOLYLINE
  5
10c
100
AcDbEntity
  8
0
 62
7
100
AcDbPolyline
 90
2
 70
0
 10
108.982813
 20
-56.771853
 30
0.0
 10
122.505774
 20
-60.395320
 30
0.0
  0
LWPOLYLINE
  5
10d
100
AcDbEntity
  8
0
 62
7
100
AcDbPolyline
 90
2
 70
0
 10
126.129241
 20
-46.872359
 30
0.0
 10
112.606280
 20
-43.248892
 30
0.0
  0
LWPOLYLINE
  5
10e
100
AcDbEntity
  8
0
 62
7
100
AcDbPolyline
 90
2
 70
0
 10
108.982813
 20
-56.771853
 30
0.0
 10
112.606280
 20
-43.248892
 30
0.0
  0
LWPOLYLINE
  5
10f
100
AcDbEntity
  8
0
 62
7
100
AcDbPolyline
 90
2
 70
0
 10
126.129241
 20
-46.872359
 30
0.0
 10
122.505774
 20
-60.395320
 30
0.0
  0
LWPOLYLINE
  5
110
100
AcDbEntity
  8
0
 62
7
100
AcDbPolyline
 90
2
 70
0
 10
213.702491
 20
-43.236208
 30
0.0
 10
200.179530
 20
-46.859675
 30
0.0
  0
LWPOLYLINE
  5
111
100
AcDbEntity
  8
0
 62
7
100
AcDbPolyline
 90
2
 70
0
 10
213.702491
 20
-43.236208
 30
0.0
 10
217.325958
 20
-56.759169
 30
0.0
  0
LWPOLYLINE
  5
112
100
AcDbEntity
  8
0
 62
7
100
AcDbPolyline
 90
2
 70
0
 10
203.802997
 20
-60.382636
 30
0.0
 10
217.325958
 20
-56.759169
 30
0.0
  0
LWPOLYLINE
  5
113
100
AcDbEntity
  8
0
 62
7
100
AcDbPolyline
 90
2
 70
0
 10
203.802997
 20
-60.382636
 30
0.0
 10
200.179530
 20
-46.859675
 30
0.0
  0
LWPOLYLINE
  5
114
100
AcDbEntity
  8
0
 62
7
100
AcDbPolyline
 90
2
 70
0
 10
221.120305
 20
-51.601388
 30
0.0
 10
217.496838
 20
-38.078427
 30
0.0
  0
LWPOLYLINE
  5
115
100
AcDbEntity
  8
0
 62
7
100
AcDbPolyline
 90
2
 70
0
 10
231.019799
 20
-34.454960
 30
0.0
 10
217.496838
 20
-38.078427
 30
0.0
  0
LWPOLYLINE
  5
116
100
AcDbEntity
  8
0
 62
7
100
AcDbPolyline
 90
2
 70
0
 10
231.019799
 20
-34.454960
 30
0.0
 10
234.643266
 20
-47.977921
 30
0.0
  0
LWPOLYLINE
  5
117
100
AcDbEntity
  8
0
 62
7
100
AcDbPolyline
 90
2
 70
0
 10
221.120305
 20
-51.601388
 30
0.0
 10
234.643266
 20
-47.977921
 30
0.0
  0
LWPOLYLINE
  5
118
100
AcDbEntity
  8
0
 62
7
100
AcDbPolyline
 90
2
 70
0
 10
248.337115
 20
-25.673685
 30
0.0
 10
234.814154
 20
-29.297152
 30
0.0
  0
LWPOLYLINE
  5
119
100
AcDbEntity
  8
0
 62
7
100
AcDbPolyline
 90
2
 70
0
 10
238.437621
 20
-42.820113
 30
0.0
 10
251.960582
 20
-39.196646
 30
0.0
  0
LWPOLYLINE
  5
11a
100
AcDbEntity
  8
0
 62
7
100
AcDbPolyline
 90
2
 70
0
 10
248.337115
 20
-25.673685
 30
0.0
 10
251.960582
 20
-39.196646
 30
0.0
  0
LWPOLYLINE
  5
11b
100
AcDbEntity
  8
0
 62
7
100
AcDbPolyline
 90
2
 70
0
 10
238.437621
 20
-42.820113
 30
0.0
 10
234.814154
 20
-29.297152
 30
0.0
  0
LWPOLYLINE
  5
11c
100
AcDbEntity
  8
0
 62
7
100
AcDbPolyline
 90
2
 70
0
 10
257.825476
 20
-41.766260
 30
0.0
 10
271.348437
 20
-38.142793
 30
0.0
  0
LWPOLYLINE
  5
11d
100
AcDbEntity
  8
0
 62
7
100
AcDbPolyline
 90
2
 70
0
 10
267.724970
 20
-24.619832
 30
0.0
 10
271.348437
 20
-38.142793
 30
0.0
  0
LWPOLYLINE
  5
11e
100
AcDbEntity
  8
0
 62
7
100
AcDbPolyline
 90
2
 70
0
 10
267.724970
 20
-24.619832
 30
0.0
 10
254.202009
 20
-28.243299
 30
0.0
  0
LWPOLYLINE
  5
11f
100
AcDbEntity
  8
0
 62
7
100
AcDbPolyline
 90
2
 70
0
 10
257.825476
 20
-41.766260
 30
0.0
 10
254.202009
 20
-28.243299
 30
0.0
  0
LWPOLYLINE
  5
120
100
AcDbEntity
  8
0
 62
7
100
AcDbPolyline
 90
2
 70
0
 10
279.413316
 20
-48.922769
 30
0.0
 10
292.936277
 20
-45.299302
 30
0.0
  0
LWPOLYLINE
  5
121
100
AcDbEntity
  8
0
 62
7
100
AcDbPolyline
 90
2
 70
0
 10
289.312810
 20
-31.776341
 30
0.0
 10
275.789849
 20
-35.399808
 30
0.0
  0
LWPOLYLINE
  5
122
100
AcDbEntity
  8
0
 62
7
100
AcDbPolyline
 90
2
 70
0
 10
279.413316
 20
-48.922769
 30
0.0
 10
275.789849
 20
-35.399808
 30
0.0
  0
LWPOLYLINE
  5
123
100
AcDbEntity
  8
0
 62
7
100
AcDbPolyline
 90
2
 70
0
 10
289.312810
 20
-31.776341
 30
0.0
 10
292.936277
 20
-45.299302
 30
0.0
  0
LWPOLYLINE
  5
124
100
AcDbEntity
  8
0
 62
7
100
AcDbPolyline
 90
2
 70
0
 10
45.601365
 20
-53.765062
 30
0.0
 10
41.977898
 20
-67.288023
 30
0.0
  0
LWPOLYLINE
  5
125
100
AcDbEntity
  8
0
 62
7
100
AcDbPolyline
 90
2
 70
0
 10
28.454937
 20
-63.664556
 30
0.0
 10
41.977898
 20
-67.288023
 30
0.0
  0
LWPOLYLINE
  5
126
100
AcDbEntity
  8
0
 62
7
100
AcDbPolyline
 90
2
 70
0
 10
28.454937
 20
-63.664556
 30
0.0
 10
32.078404
 20
-50.141595
 30
0.0
  0
LWPOLYLINE
  5
127
100
AcDbEntity
  8
0
 62
7
100
AcDbPolyline
 90
2
 70
0
 10
45.601365
 20
-53.765062
 30
0.0
 10
32.078404
 20
-50.141595
 30
0.0
  0
LWPOLYLINE
  5
128
100
AcDbEntity
  8
0
 62
7
100
AcDbPolyline
 90
2
 70
0
 10
67.189192
 20
-46.608552
 30
0.0
 10
63.565725
 20
-60.131513
 30
0.0
  0
LWPOLYLINE
  5
129
100
AcDbEntity
  8
0
 62
7
100
AcDbPolyline
 90
2
 70
0
 10
67.189192
 20
-46.608552
 30
0.0
 10
53.666231
 20
-42.985085
 30
0.0
  0
LWPOLYLINE
  5
12a
100
AcDbEntity
  8
0
 62
7
100
AcDbPolyline
 90
2
 70
0
 10
50.042764
 20
-56.508046
 30
0.0
 10
63.565725
 20
-60.131513
 30
0.0
  0
LWPOLYLINE
  5
12b
100
AcDbEntity
  8
0
 62
7
100
AcDbPolyline
 90
2
 70
0
 10
50.042764
 20
-56.508046
 30
0.0
 10
53.666231
 20
-42.985085
 30
0.0
  0
LWPOLYLINE
  5
12c
100
AcDbEntity
  8
0
 62
7
100
AcDbPolyline
 90
2
 70
0
 10
69.430627
 20
-57.561913
 30
0.0
 10
82.953588
 20
-61.185380
 30
0.0
  0
LWPOLYLINE
  5
12d
100
AcDbEntity
  8
0
 62
7
100
AcDbPolyline
 90
2
 70
0
 10
86.577055
 20
-47.662419
 30
0.0
 10
82.953588
 20
-61.185380
 30
0.0
  0
LWPOLYLINE
  5
12e
100
AcDbEntity
  8
0
 62
7
100
AcDbPolyline
 90
2
 70
0
 10
86.577055
 20
-47.662419
 30
0.0
 10
73.054094
 20
-44.038952
 30
0.0
  0
LWPOLYLINE
  5
12f
100
AcDbEntity
  8
0
 62
7
100
AcDbPolyline
 90
2
 70
0
 10
69.430627
 20
-57.561913
 30
0.0
 10
73.054094
 20
-44.038952
 30
0.0
  0
LWPOLYLINE
  5
130
100
AcDbEntity
  8
0
 62
7
100
AcDbPolyline
 90
2
 70
0
 10
86.747941
 20
-66.343188
 30
0.0
 10
100.270902
 20
-69.966655
 30
0.0
  0
LWPOLYLINE
  5
131
100
AcDbEntity
  8
0
 62
7
100
AcDbPolyline
 90
2
 70
0
 10
103.894369
 20
-56.443694
 30
0.0
 10
100.270902
 20
-69.966655
 30
0.0
  0
LWPOLYLINE
  5
132
100
AcDbEntity
  8
0
 62
7
100
AcDbPolyline
 90
2
 70
0
 10
86.747941
 20
-66.343188
 30
0.0
 10
90.371408
 20
-52.820227
 30
0.0
  0
LWPOLYLINE
  5
133
100
AcDbEntity
  8
0
 62
7
100
AcDbPolyline
 90
2
 70
0
 10
103.894369
 20
-56.443694
 30
0.0
 10
90.371408
 20
-52.820227
 30
0.0
  0
LWPOLYLINE
  5
134
100
AcDbEntity
  8
0
 62
7
100
AcDbPolyline
 90
2
 70
0
 10
121.211693
 20
-65.224952
 30
0.0
 10
117.588226
 20
-78.747913
 30
0.0
  0
LWPOLYLINE
  5
135
100
AcDbEntity
  8
0
 62
7
100
AcDbPolyline
 90
2
 70
0
 10
104.065265
 20
-75.124446
 30
0.0
 10
117.588226
 20
-78.747913
 30
0.0
  0
LWPOLYLINE
  5
136
100
AcDbEntity
  8
0
 62
7
100
AcDbPolyline
 90
2
 70
0
 10
104.065265
 20
-75.124446
 30
0.0
 10
107.688732
 20
-61.601485
 30
0.0
  0
LWPOLYLINE
  5
137
100
AcDbEntity
  8
0
 62
7
100
AcDbPolyline
 90
2
 70
0
 10
121.211693
 20
-65.224952
 30
0.0
 10
107.688732
 20
-61.601485
 30
0.0
  0
LWPOLYLINE
  5
138
100
AcDbEntity
  8
0
 62
7
100
AcDbPolyline
 90
2
 70
0
 10
218.620039
 20
-61.588808
 30
0.0
 10
205.097078
 20
-65.212275
 30
0.0
  0
LWPOLYLINE
  5
139
100
AcDbEntity
  8
0
 62
7
100
AcDbPolyline
 90
2
 70
0
 10
208.720545
 20
-78.735236
 30
0.0
 10
205.097078
 20
-65.212275
 30
0.0
  0
LWPOLYLINE
  5
13a
100
AcDbEntity
  8
0
 62
7
100
AcDbPolyline
 90
2
 70
0
 10
218.620039
 20
-61.588808
 30
0.0
 10
222.243506
 20
-75.111769
 30
0.0
  0
LWPOLYLINE
  5
13b
100
AcDbEntity
  8
0
 62
7
100
AcDbPolyline
 90
2
 70
0
 10
208.720545
 20
-78.735236
 30
0.0
 10
222.243506
 20
-75.111769
 30
0.0
  0
LWPOLYLINE
  5
13c
100
AcDbEntity
  8
0
 62
7
100
AcDbPolyline
 90
2
 70
0
 10
235.937360
 20
-52.807548
 30
0.0
 10
222.414399
 20
-56.431015
 30
0.0
  0
LWPOLYLINE
  5
13d
100
AcDbEntity
  8
0
 62
7
100
AcDbPolyline
 90
2
 70
0
 10
226.037866
 20
-69.953976
 30
0.0
 10
222.414399
 20
-56.431015
 30
0.0
  0
LWPOLYLINE
  5
13e
100
AcDbEntity
  8
0
 62
7
100
AcDbPolyline
 90
2
 70
0
 10
226.037866
 20
-69.953976
 30
0.0
 10
239.560827
 20
-66.330509
 30
0.0
  0
LWPOLYLINE
  5
13f
100
AcDbEntity
  8
0
 62
7
100
AcDbPolyline
 90
2
 70
0
 10
235.937360
 20
-52.807548
 30
0.0
 10
239.560827
 20
-66.330509
 30
0.0
  0
LWPOLYLINE
  5
140
100
AcDbEntity
  8
0
 62
7
100
AcDbPolyline
 90
2
 70
0
 10
243.355171
 20
-61.172708
 30
0.0
 10
239.731704
 20
-47.649747
 30
0.0
  0
LWPOLYLINE
  5
141
100
AcDbEntity
  8
0
 62
7
100
AcDbPolyline
 90
2
 70
0
 10
253.254665
 20
-44.026280
 30
0.0
 10
239.731704
 20
-47.649747
 30
0.0
  0
LWPOLYLINE
  5
142
100
AcDbEntity
  8
0
 62
7
100
AcDbPolyline
 90
2
 70
0
 10
243.355171
 20
-61.172708
 30
0.0
 10
256.878132
 20
-57.549241
 30
0.0
  0
LWPOLYLINE
  5
143
100
AcDbEntity
  8
0
 62
7
100
AcDbPolyline
 90
2
 70
0
 10
253.254665
 20
-44.026280
 30
0.0
 10
256.878132
 20
-57.549241
 30
0.0
  0
LWPOLYLINE
  5
144
100
AcDbEntity
  8
0
 62
7
100
AcDbPolyline
 90
2
 70
0
 10
262.743056
 20
-60.118851
 30
0.0
 10
259.119589
 20
-46.595890
 30
0.0
  0
LWPOLYLINE
  5
145
100
AcDbEntity
  8
0
 62
7
100
AcDbPolyline
 90
2
 70
0
 10
262.743056
 20
-60.118851
 30
0.0
 10
276.266017
 20
-56.495384
 30
0.0
  0
LWPOLYLINE
  5
146
100
AcDbEntity
  8
0
 62
7
100
AcDbPolyline
 90
2
 70
0
 10
272.642550
 20
-42.972423
 30
0.0
 10
276.266017
 20
-56.495384
 30
0.0
  0
LWPOLYLINE
  5
147
100
AcDbEntity
  8
0
 62
7
100
AcDbPolyline
 90
2
 70
0
 10
272.642550
 20
-42.972423
 30
0.0
 10
259.119589
 20
-46.595890
 30
0.0
  0
LWPOLYLINE
  5
148
100
AcDbEntity
  8
0
 62
7
100
AcDbPolyline
 90
2
 70
0
 10
284.330873
 20
-67.275354
 30
0.0
 10
280.707406
 20
-53.752393
 30
0.0
  0
LWPOLYLINE
  5
149
100
AcDbEntity
  8
0
 62
7
100
AcDbPolyline
 90
2
 70
0
 10
284.330873
 20
-67.275354
 30
0.0
 10
297.853834
 20
-63.651887
 30
0.0
  0
LWPOLYLINE
  5
14a
100
AcDbEntity
  8
0
 62
7
100
AcDbPolyline
 90
2
 70
0
 10
294.230367
 20
-50.128926
 30
0.0
 10
297.853834
 20
-63.651887
 30
0.0
  0
LWPOLYLINE
  5
14b
100
AcDbEntity
  8
0
 62
7
100
AcDbPolyline
 90
2
 70
0
 10
294.230367
 20
-50.128926
 30
0.0
 10
280.707406
 20
-53.752393
 30
0.0
  0
LWPOLYLINE
  5
14c
100
AcDbEntity
  8
0
 62
7
100
AcDbPolyline
 90
2
 70
0
 10
40.683800
 20
-72.117667
 30
0.0
 10
27.160839
 20
-68.494200
 30
0.0
  0
LWPOLYLINE
  5
14d
100
AcDbEntity
  8
0
 62
7
100
AcDbPolyline
 90
2
 70
0
 10
40.683800
 20
-72.117667
 30
0.0
 10
37.060333
 20
-85.640628
 30
0.0
  0
LWPOLYLINE
  5
14e
100
AcDbEntity
  8
0
 62
7
100
AcDbPolyline
 90
2
 70
0
 10
23.537372
 20
-82.017161
 30
0.0
 10
37.060333
 20
-85.640628
 30
0.0
  0
LWPOLYLINE
  5
14f
100
AcDbEntity
  8
0
 62
7
100
AcDbPolyline
 90
2
 70
0
 10
23.537372
 20
-82.017161
 30
0.0
 10
27.160839
 20
-68.494200
 30
0.0
  0
LWPOLYLINE
  5
150
100
AcDbEntity
  8
0
 62
7
100
AcDbPolyline
 90
2
 70
0
 10
62.271643
 20
-64.961150
 30
0.0
 10
58.648176
 20
-78.484111
 30
0.0
  0
LWPOLYLINE
  5
151
100
AcDbEntity
  8
0
 62
7
100
AcDbPolyline
 90
2
 70
0
 10
45.125215
 20
-74.860644
 30
0.0
 10
48.748682
 20
-61.337683
 30
0.0
  0
LWPOLYLINE
  5
152
100
AcDbEntity
  8
0
 62
7
100
AcDbPolyline
 90
2
 70
0
 10
45.125215
 20
-74.860644
 30
0.0
 10
58.648176
 20
-78.484111
 30
0.0
  0
LWPOLYLINE
  5
153
100
AcDbEntity
  8
0
 62
7
100
AcDbPolyline
 90
2
 70
0
 10
62.271643
 20
-64.961150
 30
0.0
 10
48.748682
 20
-61.337683
 30
0.0
  0
LWPOLYLINE
  5
154
100
AcDbEntity
  8
0
 62
7
100
AcDbPolyline
 90
2
 70
0
 10
64.513072
 20
-75.914504
 30
0.0
 10
68.136539
 20
-62.391543
 30
0.0
  0
LWPOLYLINE
  5
155
100
AcDbEntity
  8
0
 62
7
100
AcDbPolyline
 90
2
 70
0
 10
64.513072
 20
-75.914504
 30
0.0
 10
78.036033
 20
-79.537971
 30
0.0
  0
LWPOLYLINE
  5
156
100
AcDbEntity
  8
0
 62
7
100
AcDbPolyline
 90
2
 70
0
 10
81.659500
 20
-66.015010
 30
0.0
 10
68.136539
 20
-62.391543
 30
0.0
  0
LWPOLYLINE
  5
157
100
AcDbEntity
  8
0
 62
7
100
AcDbPolyline
 90
2
 70
0
 10
81.659500
 20
-66.015010
 30
0.0
 10
78.036033
 20
-79.537971
 30
0.0
  0
LWPOLYLINE
  5
158
100
AcDbEntity
  8
0
 62
7
100
AcDbPolyline
 90
2
 70
0
 10
98.976815
 20
-74.796268
 30
0.0
 10
95.353348
 20
-88.319229
 30
0.0
  0
LWPOLYLINE
  5
159
100
AcDbEntity
  8
0
 62
7
100
AcDbPolyline
 90
2
 70
0
 10
81.830387
 20
-84.695762
 30
0.0
 10
95.353348
 20
-88.319229
 30
0.0
  0
LWPOLYLINE
  5
15a
100
AcDbEntity
  8
0
 62
7
100
AcDbPolyline
 90
2
 70
0
 10
98.976815
 20
-74.796268
 30
0.0
 10
85.453854
 20
-71.172801
 30
0.0
  0
LWPOLYLINE
  5
15b
100
AcDbEntity
  8
0
 62
7
100
AcDbPolyline
 90
2
 70
0
 10
81.830387
 20
-84.695762
 30
0.0
 10
85.453854
 20
-71.172801
 30
0.0
  0
LWPOLYLINE
  5
15c
100
AcDbEntity
  8
0
 62
7
100
AcDbPolyline
 90
2
 70
0
 10
116.294129
 20
-83.577540
 30
0.0
 10
112.670662
 20
-97.100501
 30
0.0
  0
LWPOLYLINE
  5
15d
100
AcDbEntity
  8
0
 62
7
100
AcDbPolyline
 90
2
 70
0
 10
99.147701
 20
-93.477034
 30
0.0
 10
112.670662
 20
-97.100501
 30
0.0
  0
LWPOLYLINE
  5
15e
100
AcDbEntity
  8
0
 62
7
100
AcDbPolyline
 90
2
 70
0
 10
116.294129
 20
-83.577540
 30
0.0
 10
102.771168
 20
-79.954073
 30
0.0
  0
LWPOLYLINE
  5
15f
100
AcDbEntity
  8
0
 62
7
100
AcDbPolyline
 90
2
 70
0
 10
99.147701
 20
-93.477034
 30
0.0
 10
102.771168
 20
-79.954073
 30
0.0
  0
LWPOLYLINE
  5
160
100
AcDbEntity
  8
0
 62
7
100
AcDbPolyline
 90
2
 70
0
 10
213.638115
 20
-97.087828
 30
0.0
 10
227.161076
 20
-93.464361
 30
0.0
  0
LWPOLYLINE
  5
161
100
AcDbEntity
  8
0
 62
7
100
AcDbPolyline
 90
2
 70
0
 10
223.537609
 20
-79.941400
 30
0.0
 10
227.161076
 20
-93.464361
 30
0.0
  0
LWPOLYLINE
  5
162
100
AcDbEntity
  8
0
 62
7
100
AcDbPolyline
 90
2
 70
0
 10
213.638115
 20
-97.087828
 30
0.0
 10
210.014648
 20
-83.564867
 30
0.0
  0
LWPOLYLINE
  5
163
100
AcDbEntity
  8
0
 62
7
100
AcDbPolyline
 90
2
 70
0
 10
223.537609
 20
-79.941400
 30
0.0
 10
210.014648
 20
-83.564867
 30
0.0
  0
LWPOLYLINE
  5
164
100
AcDbEntity
  8
0
 62
7
100
AcDbPolyline
 90
2
 70
0
 10
240.854912
 20
-71.160136
 30
0.0
 10
244.478379
 20
-84.683097
 30
0.0
  0
LWPOLYLINE
  5
165
100
AcDbEntity
  8
0
 62
7
100
AcDbPolyline
 90
2
 70
0
 10
240.854912
 20
-71.160136
 30
0.0
 10
227.331951
 20
-74.783603
 30
0.0
  0
LWPOLYLINE
  5
166
100
AcDbEntity
  8
0
 62
7
100
AcDbPolyline
 90
2
 70
0
 10
230.955418
 20
-88.306564
 30
0.0
 10
244.478379
 20
-84.683097
 30
0.0
  0
LWPOLYLINE
  5
167
100
AcDbEntity
  8
0
 62
7
100
AcDbPolyline
 90
2
 70
0
 10
230.955418
 20
-88.306564
 30
0.0
 10
227.331951
 20
-74.783603
 30
0.0
  0
LWPOLYLINE
  5
168
100
AcDbEntity
  8
0
 62
7
100
AcDbPolyline
 90
2
 70
0
 10
248.272732
 20
-79.525299
 30
0.0
 10
261.795693
 20
-75.901832
 30
0.0
  0
LWPOLYLINE
  5
169
100
AcDbEntity
  8
0
 62
7
100
AcDbPolyline
 90
2
 70
0
 10
248.272732
 20
-79.525299
 30
0.0
 10
244.649265
 20
-66.002338
 30
0.0
  0
LWPOLYLINE
  5
16a
100
AcDbEntity
  8
0
 62
7
100
AcDbPolyline
 90
2
 70
0
 10
258.172226
 20
-62.378871
 30
0.0
 10
244.649265
 20
-66.002338
 30
0.0
  0
LWPOLYLINE
  5
16b
100
AcDbEntity
  8
0
 62
7
100
AcDbPolyline
 90
2
 70
0
 10
258.172226
 20
-62.378871
 30
0.0
 10
261.795693
 20
-75.901832
 30
0.0
  0
LWPOLYLINE
  5
16c
100
AcDbEntity
  8
0
 62
7
100
AcDbPolyline
 90
2
 70
0
 10
267.660611
 20
-78.471443
 30
0.0
 10
281.183572
 20
-74.847976
 30
0.0
  0
LWPOLYLINE
  5
16d
100
AcDbEntity
  8
0
 62
7
100
AcDbPolyline
 90
2
 70
0
 10
277.560105
 20
-61.325015
 30
0.0
 10
281.183572
 20
-74.847976
 30
0.0
  0
LWPOLYLINE
  5
16e
100
AcDbEntity
  8
0
 62
7
100
AcDbPolyline
 90
2
 70
0
 10
267.660611
 20
-78.471443
 30
0.0
 10
264.037144
 20
-64.948482
 30
0.0
  0
LWPOLYLINE
  5
16f
100
AcDbEntity
  8
0
 62
7
100
AcDbPolyline
 90
2
 70
0
 10
277.560105
 20
-61.325015
 30
0.0
 10
264.037144
 20
-64.948482
 30
0.0
  0
LWPOLYLINE
  5
170
100
AcDbEntity
  8
0
 62
7
100
AcDbPolyline
 90
2
 70
0
 10
289.248433
 20
-85.627948
 30
0.0
 10
285.624966
 20
-72.104987
 30
0.0
  0
LWPOLYLINE
  5
171
100
AcDbEntity
  8
0
 62
7
100
AcDbPolyline
 90
2
 70
0
 10
289.248433
 20
-85.627948
 30
0.0
 10
302.771394
 20
-82.004481
 30
0.0
  0
LWPOLYLINE
  5
172
100
AcDbEntity
  8
0
 62
7
100
AcDbPolyline
 90
2
 70
0
 10
299.147927
 20
-68.481520
 30
0.0
 10
302.771394
 20
-82.004481
 30
0.0
  0
LWPOLYLINE
  5
173
100
AcDbEntity
  8
0
 62
7
100
AcDbPolyline
 90
2
 70
0
 10
299.147927
 20
-68.481520
 30
0.0
 10
285.624966
 20
-72.104987
 30
0.0
  0
LWPOLYLINE
  5
174
100
AcDbEntity
  8
0
 62
7
100
AcDbPolyline
 90
2
 70
0
 10
39.519183
 20
-95.782598
 30
0.0
 10
53.042144
 20
-99.406065
 30
0.0
  0
LWPOLYLINE
  5
175
100
AcDbEntity
  8
0
 62
7
100
AcDbPolyline
 90
2
 70
0
 10
39.519183
 20
-95.782598
 30
0.0
 10
43.142650
 20
-82.259637
 30
0.0
  0
LWPOLYLINE
  5
176
100
AcDbEntity
  8
0
 62
7
100
AcDbPolyline
 90
2
 70
0
 10
56.665611
 20
-85.883104
 30
0.0
 10
53.042144
 20
-99.406065
 30
0.0
  0
LWPOLYLINE
  5
177
100
AcDbEntity
  8
0
 62
7
100
AcDbPolyline
 90
2
 70
0
 10
56.665611
 20
-85.883104
 30
0.0
 10
43.142650
 20
-82.259637
 30
0.0
  0
LWPOLYLINE
  5
178
100
AcDbEntity
  8
0
 62
7
100
AcDbPolyline
 90
2
 70
0
 10
75.018203
 20
-90.800668
 30
0.0
 10
71.394736
 20
-104.323629
 30
0.0
  0
LWPOLYLINE
  5
179
100
AcDbEntity
  8
0
 62
7
100
AcDbPolyline
 90
2
 70
0
 10
57.871775
 20
-100.700162
 30
0.0
 10
71.394736
 20
-104.323629
 30
0.0
  0
LWPOLYLINE
  5
17a
100
AcDbEntity
  8
0
 62
7
100
AcDbPolyline
 90
2
 70
0
 10
75.018203
 20
-90.800668
 30
0.0
 10
61.495242
 20
-87.177201
 30
0.0
  0
LWPOLYLINE
  5
17b
100
AcDbEntity
  8
0
 62
7
100
AcDbPolyline
 90
2
 70
0
 10
57.871775
 20
-100.700162
 30
0.0
 10
61.495242
 20
-87.177201
 30
0.0
  0
LWPOLYLINE
  5
17c
100
AcDbEntity
  8
0
 62
7
100
AcDbPolyline
 90
2
 70
0
 10
95.638479
 20
-99.557849
 30
0.0
 10
89.721824
 20
-112.246158
 30
0.0
  0
LWPOLYLINE
  5
17d
100
AcDbEntity
  8
0
 62
7
100
AcDbPolyline
 90
2
 70
0
 10
77.033515
 20
-106.329503
 30
0.0
 10
82.950170
 20
-93.641194
 30
0.0
  0
LWPOLYLINE
  5
17e
100
AcDbEntity
  8
0
 62
7
100
AcDbPolyline
 90
2
 70
0
 10
95.638479
 20
-99.557849
 30
0.0
 10
82.950170
 20
-93.641194
 30
0.0
  0
LWPOLYLINE
  5
17f
100
AcDbEntity
  8
0
 62
7
100
AcDbPolyline
 90
2
 70
0
 10
77.033515
 20
-106.329503
 30
0.0
 10
89.721824
 20
-112.246158
 30
0.0
  0
LWPOLYLINE
  5
180
100
AcDbEntity
  8
0
 62
7
100
AcDbPolyline
 90
2
 70
0
 10
205.499873
 20
-136.948095
 30
0.0
 10
215.399368
 20
-127.048600
 30
0.0
  0
LWPOLYLINE
  5
181
100
AcDbEntity
  8
0
 62
7
100
AcDbPolyline
 90
2
 70
0
 10
205.499873
 20
-136.948095
 30
0.0
 10
195.600378
 20
-127.048600
 30
0.0
  0
LWPOLYLINE
  5
182
100
AcDbEntity
  8
0
 62
7
100
AcDbPolyline
 90
2
 70
0
 10
205.499873
 20
-117.149105
 30
0.0
 10
195.600378
 20
-127.048600
 30
0.0
  0
LWPOLYLINE
  5
183
100
AcDbEntity
  8
0
 62
7
100
AcDbPolyline
 90
2
 70
0
 10
205.499873
 20
-117.149105
 30
0.0
 10
215.399368
 20
-127.048600
 30
0.0
  0
LWPOLYLINE
  5
184
100
AcDbEntity
  8
0
 62
7
100
AcDbPolyline
 90
2
 70
0
 10
223.305834
 20
-103.800967
 30
0.0
 10
211.837706
 20
-111.831037
 30
0.0
  0
LWPOLYLINE
  5
185
100
AcDbEntity
  8
0
 62
7
100
AcDbPolyline
 90
2
 70
0
 10
219.867776
 20
-123.299165
 30
0.0
 10
211.837706
 20
-111.831037
 30
0.0
  0
LWPOLYLINE
  5
186
100
AcDbEntity
  8
0
 62
7
100
AcDbPolyline
 90
2
 70
0
 10
223.305834
 20
-103.800967
 30
0.0
 10
231.335904
 20
-115.269095
 30
0.0
  0
LWPOLYLINE
  5
187
100
AcDbEntity
  8
0
 62
7
100
AcDbPolyline
 90
2
 70
0
 10
219.867776
 20
-123.299165
 30
0.0
 10
231.335904
 20
-115.269095
 30
0.0
  0
LWPOLYLINE
  5
188
100
AcDbEntity
  8
0
 62
7
100
AcDbPolyline
 90
2
 70
0
 10
243.172260
 20
-93.742815
 30
0.0
 10
230.483951
 20
-99.659470
 30
0.0
  0
LWPOLYLINE
  5
189
100
AcDbEntity
  8
0
 62
7
100
AcDbPolyline
 90
2
 70
0
 10
236.400606
 20
-112.347779
 30
0.0
 10
249.088915
 20
-106.431124
 30
0.0
  0
LWPOLYLINE
  5
18a
100
AcDbEntity
  8
0
 62
7
100
AcDbPolyline
 90
2
 70
0
 10
236.400606
 20
-112.347779
 30
0.0
 10
230.483951
 20
-99.659470
 30
0.0
  0
LWPOLYLINE
  5
18b
100
AcDbEntity
  8
0
 62
7
100
AcDbPolyline
 90
2
 70
0
 10
243.172260
 20
-93.742815
 30
0.0
 10
249.088915
 20
-106.431124
 30
0.0
  0
LWPOLYLINE
  5
18c
100
AcDbEntity
  8
0
 62
7
100
AcDbPolyline
 90
2
 70
0
 10
264.813530
 20
-87.164524
 30
0.0
 10
251.290569
 20
-90.787991
 30
0.0
  0
LWPOLYLINE
  5
18d
100
AcDbEntity
  8
0
 62
7
100
AcDbPolyline
 90
2
 70
0
 10
254.914036
 20
-104.310952
 30
0.0
 10
268.436997
 20
-100.687485
 30
0.0
  0
LWPOLYLINE
  5
18e
100
AcDbEntity
  8
0
 62
7
100
AcDbPolyline
 90
2
 70
0
 10
264.813530
 20
-87.164524
 30
0.0
 10
268.436997
 20
-100.687485
 30
0.0
  0
LWPOLYLINE
  5
18f
100
AcDbEntity
  8
0
 62
7
100
AcDbPolyline
 90
2
 70
0
 10
254.914036
 20
-104.310952
 30
0.0
 10
251.290569
 20
-90.787991
 30
0.0
  0
LWPOLYLINE
  5
190
100
AcDbEntity
  8
0
 62
7
100
AcDbPolyline
 90
2
 70
0
 10
283.166129
 20
-82.246968
 30
0.0
 10
286.789596
 20
-95.769929
 30
0.0
  0
LWPOLYLINE
  5
191
100
AcDbEntity
  8
0
 62
7
100
AcDbPolyline
 90
2
 70
0
 10
273.266635
 20
-99.393396
 30
0.0
 10
286.789596
 20
-95.769929
 30
0.0
  0
LWPOLYLINE
  5
192
100
AcDbEntity
  8
0
 62
7
100
AcDbPolyline
 90
2
 70
0
 10
273.266635
 20
-99.393396
 30
0.0
 10
269.643168
 20
-85.870435
 30
0.0
  0
LWPOLYLINE
  5
193
100
AcDbEntity
  8
0
 62
7
100
AcDbPolyline
 90
2
 70
0
 10
283.166129
 20
-82.246968
 30
0.0
 10
269.643168
 20
-85.870435
 30
0.0
  0
LWPOLYLINE
  5
194
100
AcDbEntity
  8
0
 62
7
100
AcDbPolyline
 90
2
 70
0
 10
50.518929
 20
-35.412472
 30
0.0
 10
36.995968
 20
-31.789005
 30
0.0
  0
LWPOLYLINE
  5
195
100
AcDbEntity
  8
0
 62
7
100
AcDbPolyline
 90
2
 70
0
 10
33.372501
 20
-45.311966
 30
0.0
 10
36.995968
 20
-31.789005
 30
0.0
  0
LWPOLYLINE
  5
196
100
AcDbEntity
  8
0
 62
7
100
AcDbPolyline
 90
2
 70
0
 10
33.372501
 20
-45.311966
 30
0.0
 10
46.895462
 20
-48.935433
 30
0.0
  0
LWPOLYLINE
  5
197
100
AcDbEntity
  8
0
 62
7
100
AcDbPolyline
 90
2
 70
0
 10
50.518929
 20
-35.412472
 30
0.0
 10
46.895462
 20
-48.935433
 30
0.0
  0
LWPOLYLINE
  5
198
100
AcDbEntity
  8
0
 62
7
100
AcDbPolyline
 90
2
 70
0
 10
172.042283
 20
-65.918720
 30
0.0
 10
172.042283
 20
-32.898720
 30
0.0
  0
LWPOLYLINE
  5
199
100
AcDbEntity
  8
0
 62
7
100
AcDbPolyline
 90
3
 70
0
 10
166.708283
 20
-31.374720
 30
0.0
 10
166.708283
 20
-36.454720
 30
0.0
 10
159.342283
 20
-36.454720
 30
0.0
  0
LWPOLYLINE
  5
19a
100
AcDbEntity
  8
0
 62
7
100
AcDbPolyline
 90
2
 70
0
 10
154.262283
 20
-65.918720
 30
0.0
 10
172.042283
 20
-65.918720
 30
0.0
  0
LWPOLYLINE
  5
19b
100
AcDbEntity
  8
0
 62
7
100
AcDbPolyline
 90
2
 70
0
 10
172.042283
 20
-32.898720
 30
0.0
 10
154.262283
 20
-32.898720
 30
0.0
  0
LWPOLYLINE
  5
19c
100
AcDbEntity
  8
0
 62
7
100
AcDbPolyline
 90
2
 70
0
 10
159.342283
 20
-36.454720
 30
0.0
 10
159.342283
 20
-31.374720
 30
0.0
  0
LWPOLYLINE
  5
19d
100
AcDbEntity
  8
0
 62
7
100
AcDbPolyline
 90
2
 70
0
 10
154.262283
 20
-32.898720
 30
0.0
 10
154.262283
 20
-65.918720
 30
0.0
  0
LWPOLYLINE
  5
19e
100
AcDbEntity
  8
0
 62
7
100
AcDbPolyline
 90
3
 70
0
 10
159.342283
 20
-31.374720
 30
0.0
 10
166.708283
 20
-31.374720
 30
0.0
 10
166.708283
 20
-36.454720
 30
0.0
  0
LWPOLYLINE
  5
19f
100
AcDbEntity
  8
0
 62
7
100
AcDbPolyline
 90
3
 70
0
 10
159.342283
 20
-36.454720
 30
0.0
 10
159.342283
 20
-31.374720
 30
0.0
 10
166.708283
 20
-31.374720
 30
0.0
  0
LWPOLYLINE
  5
1a0
100
AcDbEntity
  8
0
 62
7
100
AcDbPolyline
 90
2
 70
0
 10
166.708283
 20
-36.454720
 30
0.0
 10
159.342283
 20
-36.454720
 30
0.0
  0
LWPOLYLINE
  5
1a1
100
AcDbEntity
  8
0
 62
7
100
AcDbPolyline
 90
2
 70
0
 10
55.436488
 20
-17.059891
 30
0.0
 10
51.813021
 20
-30.582852
 30
0.0
  0
LWPOLYLINE
  5
1a2
100
AcDbEntity
  8
0
 62
7
100
AcDbPolyline
 90
2
 70
0
 10
55.436488
 20
-17.059891
 30
0.0
 10
41.913527
 20
-13.436424
 30
0.0
  0
LWPOLYLINE
  5
1a3
100
AcDbEntity
  8
0
 62
7
100
AcDbPolyline
 90
2
 70
0
 10
38.290060
 20
-26.959385
 30
0.0
 10
51.813021
 20
-30.582852
 30
0.0
  0
LWPOLYLINE
  5
1a4
100
AcDbEntity
  8
0
 62
7
100
AcDbPolyline
 90
2
 70
0
 10
38.290060
 20
-26.959385
 30
0.0
 10
41.913527
 20
-13.436424
 30
0.0
  0
LWPOLYLINE
  5
1a5
100
AcDbEntity
  8
0
 62
7
100
AcDbPolyline
 90
2
 70
0
 10
77.024326
 20
-9.903388
 30
0.0
 10
73.400859
 20
-23.426349
 30
0.0
  0
LWPOLYLINE
  5
1a6
100
AcDbEntity
  8
0
 62
7
100
AcDbPolyline
 90
2
 70
0
 10
59.877898
 20
-19.802882
 30
0.0
 10
73.400859
 20
-23.426349
 30
0.0
  0
LWPOLYLINE
  5
1a7
100
AcDbEntity
  8
0
 62
7
100
AcDbPolyline
 90
2
 70
0
 10
77.024326
 20
-9.903388
 30
0.0
 10
63.501365
 20
-6.279921
 30
0.0
  0
LWPOLYLINE
  5
1a8
100
AcDbEntity
  8
0
 62
7
100
AcDbPolyline
 90
2
 70
0
 10
59.877898
 20
-19.802882
 30
0.0
 10
63.501365
 20
-6.279921
 30
0.0
  0
LWPOLYLINE
  5
1a9
100
AcDbEntity
  8
0
 62
7
100
AcDbPolyline
 90
2
 70
0
 10
96.412183
 20
-10.957239
 30
0.0
 10
92.788716
 20
-24.480200
 30
0.0
  0
LWPOLYLINE
  5
1aa
100
AcDbEntity
  8
0
 62
7
100
AcDbPolyline
 90
2
 70
0
 10
79.265755
 20
-20.856733
 30
0.0
 10
92.788716
 20
-24.480200
 30
0.0
  0
LWPOLYLINE
  5
1ab
100
AcDbEntity
  8
0
 62
7
100
AcDbPolyline
 90
2
 70
0
 10
79.265755
 20
-20.856733
 30
0.0
 10
82.889222
 20
-7.333772
 30
0.0
  0
LWPOLYLINE
  5
1ac
100
AcDbEntity
  8
0
 62
7
100
AcDbPolyline
 90
2
 70
0
 10
96.412183
 20
-10.957239
 30
0.0
 10
82.889222
 20
-7.333772
 30
0.0
  0
LWPOLYLINE
  5
1ad
100
AcDbEntity
  8
0
 62
7
100
AcDbPolyline
 90
2
 70
0
 10
198.554823
 20
-114.211157
 30
0.0
 10
209.279445
 20
-105.212131
 30
0.0
  0
LWPOLYLINE
  5
1ae
100
AcDbEntity
  8
0
 62
7
100
AcDbPolyline
 90
2
 70
0
 10
200.280419
 20
-94.487509
 30
0.0
 10
189.555797
 20
-103.486535
 30
0.0
  0
LWPOLYLINE
  5
1af
100
AcDbEntity
  8
0
 62
7
100
AcDbPolyline
 90
2
 70
0
 10
200.280419
 20
-94.487509
 30
0.0
 10
209.279445
 20
-105.212131
 30
0.0
  0
LWPOLYLINE
  5
1b0
100
AcDbEntity
  8
0
 62
7
100
AcDbPolyline
 90
2
 70
0
 10
198.554823
 20
-114.211157
 30
0.0
 10
189.555797
 20
-103.486535
 30
0.0
  0
LWPOLYLINE
  5
1b1
100
AcDbEntity
  8
0
 62
7
100
AcDbPolyline
 90
2
 70
0
 10
96.583057
 20
-29.637998
 30
0.0
 10
100.206524
 20
-16.115037
 30
0.0
  0
LWPOLYLINE
  5
1b2
100
AcDbEntity
  8
0
 62
7
100
AcDbPolyline
 90
2
 70
0
 10
113.729485
 20
-19.738504
 30
0.0
 10
100.206524
 20
-16.115037
 30
0.0
  0
LWPOLYLINE
  5
1b3
100
AcDbEntity
  8
0
 62
7
100
AcDbPolyline
 90
2
 70
0
 10
113.729485
 20
-19.738504
 30
0.0
 10
110.106018
 20
-33.261465
 30
0.0
  0
LWPOLYLINE
  5
1b4
100
AcDbEntity
  8
0
 62
7
100
AcDbPolyline
 90
2
 70
0
 10
96.583057
 20
-29.637998
 30
0.0
 10
110.106018
 20
-33.261465
 30
0.0
  0
LWPOLYLINE
  5
1b5
100
AcDbEntity
  8
0
 62
7
100
AcDbPolyline
 90
2
 70
0
 10
284.395249
 20
-13.423753
 30
0.0
 10
288.018716
 20
-26.946714
 30
0.0
  0
LWPOLYLINE
  5
1b6
100
AcDbEntity
  8
0
 62
7
100
AcDbPolyline
 90
2
 70
0
 10
274.495755
 20
-30.570181
 30
0.0
 10
288.018716
 20
-26.946714
 30
0.0
  0
LWPOLYLINE
  5
1b7
100
AcDbEntity
  8
0
 62
7
100
AcDbPolyline
 90
2
 70
0
 10
284.395249
 20
-13.423753
 30
0.0
 10
270.872288
 20
-17.047220
 30
0.0
  0
LWPOLYLINE
  5
1b8
100
AcDbEntity
  8
0
 62
7
100
AcDbPolyline
 90
2
 70
0
 10
274.495755
 20
-30.570181
 30
0.0
 10
270.872288
 20
-17.047220
 30
0.0
  0
LWPOLYLINE
  5
1b9
100
AcDbEntity
  8
0
 62
7
100
AcDbPolyline
 90
2
 70
0
 10
198.885432
 20
-42.030050
 30
0.0
 10
212.408393
 20
-38.406583
 30
0.0
  0
LWPOLYLINE
  5
1ba
100
AcDbEntity
  8
0
 62
7
100
AcDbPolyline
 90
2
 70
0
 10
198.885432
 20
-42.030050
 30
0.0
 10
195.261965
 20
-28.507089
 30
0.0
  0
LWPOLYLINE
  5
1bb
100
AcDbEntity
  8
0
 62
7
100
AcDbPolyline
 90
2
 70
0
 10
208.784926
 20
-24.883622
 30
0.0
 10
212.408393
 20
-38.406583
 30
0.0
  0
LWPOLYLINE
  5
1bc
100
AcDbEntity
  8
0
 62
7
100
AcDbPolyline
 90
2
 70
0
 10
208.784926
 20
-24.883622
 30
0.0
 10
195.261965
 20
-28.507089
 30
0.0
  0
LWPOLYLINE
  5
1bd
100
AcDbEntity
  8
0
 62
7
100
AcDbPolyline
 90
2
 70
0
 10
226.102244
 20
-16.102364
 30
0.0
 10
212.579283
 20
-19.725831
 30
0.0
  0
LWPOLYLINE
  5
1be
100
AcDbEntity
  8
0
 62
7
100
AcDbPolyline
 90
2
 70
0
 10
226.102244
 20
-16.102364
 30
0.0
 10
229.725711
 20
-29.625325
 30
0.0
  0
LWPOLYLINE
  5
1bf
100
AcDbEntity
  8
0
 62
7
100
AcDbPolyline
 90
2
 70
0
 10
216.202750
 20
-33.248792
 30
0.0
 10
229.725711
 20
-29.625325
 30
0.0
  0
LWPOLYLINE
  5
1c0
100
AcDbEntity
  8
0
 62
7
100
AcDbPolyline
 90
2
 70
0
 10
216.202750
 20
-33.248792
 30
0.0
 10
212.579283
 20
-19.725831
 30
0.0
  0
LWPOLYLINE
  5
1c1
100
AcDbEntity
  8
0
 62
7
100
AcDbPolyline
 90
2
 70
0
 10
243.419546
 20
-7.321103
 30
0.0
 10
247.043013
 20
-20.844064
 30
0.0
  0
LWPOLYLINE
  5
1c2
100
AcDbEntity
  8
0
 62
7
100
AcDbPolyline
 90
2
 70
0
 10
233.520052
 20
-24.467531
 30
0.0
 10
247.043013
 20
-20.844064
 30
0.0
  0
LWPOLYLINE
  5
1c3
100
AcDbEntity
  8
0
 62
7
100
AcDbPolyline
 90
2
 70
0
 10
233.520052
 20
-24.467531
 30
0.0
 10
229.896585
 20
-10.944570
 30
0.0
  0
LWPOLYLINE
  5
1c4
100
AcDbEntity
  8
0
 62
7
100
AcDbPolyline
 90
2
 70
0
 10
243.419546
 20
-7.321103
 30
0.0
 10
229.896585
 20
-10.944570
 30
0.0
  0
LWPOLYLINE
  5
1c5
100
AcDbEntity
  8
0
 62
7
100
AcDbPolyline
 90
2
 70
0
 10
252.907920
 20
-23.413668
 30
0.0
 10
266.430881
 20
-19.790201
 30
0.0
  0
LWPOLYLINE
  5
1c6
100
AcDbEntity
  8
0
 62
7
100
AcDbPolyline
 90
2
 70
0
 10
262.807414
 20
-6.267240
 30
0.0
 10
249.284453
 20
-9.890707
 30
0.0
  0
LWPOLYLINE
  5
1c7
100
AcDbEntity
  8
0
 62
7
100
AcDbPolyline
 90
2
 70
0
 10
262.807414
 20
-6.267240
 30
0.0
 10
266.430881
 20
-19.790201
 30
0.0
  0
LWPOLYLINE
  5
1c8
100
AcDbEntity
  8
0
 62
7
100
AcDbPolyline
 90
2
 70
0
 10
252.907920
 20
-23.413668
 30
0.0
 10
249.284453
 20
-9.890707
 30
0.0
  0
LWPOLYLINE
  5
1c9
100
AcDbEntity
  8
0
 62
7
100
AcDbPolyline
 90
2
 70
0
 10
113.900379
 20
-38.419266
 30
0.0
 10
127.423340
 20
-42.042733
 30
0.0
  0
LWPOLYLINE
  5
1ca
100
AcDbEntity
  8
0
 62
7
100
AcDbPolyline
 90
2
 70
0
 10
113.900379
 20
-38.419266
 30
0.0
 10
117.523846
 20
-24.896305
 30
0.0
  0
LWPOLYLINE
  5
1cb
100
AcDbEntity
  8
0
 62
7
100
AcDbPolyline
 90
2
 70
0
 10
131.046807
 20
-28.519772
 30
0.0
 10
117.523846
 20
-24.896305
 30
0.0
  0
LWPOLYLINE
  5
1cc
100
AcDbEntity
  8
0
 62
7
100
AcDbPolyline
 90
2
 70
0
 10
131.046807
 20
-28.519772
 30
0.0
 10
127.423340
 20
-42.042733
 30
0.0
  0
LWPOLYLINE
  5
1cd
100
AcDbEntity
  8
0
 62
7
100
AcDbPolyline
 90
2
 70
0
 10
37.083895
 20
-12.142332
 30
0.0
 10
33.460428
 20
-25.665293
 30
0.0
  0
LWPOLYLINE
  5
1ce
100
AcDbEntity
  8
0
 62
7
100
AcDbPolyline
 90
2
 70
0
 10
19.937467
 20
-22.041826
 30
0.0
 10
33.460428
 20
-25.665293
 30
0.0
  0
LWPOLYLINE
  5
1cf
100
AcDbEntity
  8
0
 62
7
100
AcDbPolyline
 90
2
 70
0
 10
19.937467
 20
-22.041826
 30
0.0
 10
23.560934
 20
-8.518865
 30
0.0
  0
LWPOLYLINE
  5
1d0
100
AcDbEntity
  8
0
 62
7
100
AcDbPolyline
 90
2
 70
0
 10
37.083895
 20
-12.142332
 30
0.0
 10
23.560934
 20
-8.518865
 30
0.0
  0
LWPOLYLINE
  5
1d1
100
AcDbEntity
  8
0
 62
7
100
AcDbPolyline
 90
2
 70
0
 10
32.166343
 20
-30.494921
 30
0.0
 10
18.643382
 20
-26.871454
 30
0.0
  0
LWPOLYLINE
  5
1d2
100
AcDbEntity
  8
0
 62
7
100
AcDbPolyline
 90
2
 70
0
 10
32.166343
 20
-30.494921
 30
0.0
 10
28.542876
 20
-44.017882
 30
0.0
  0
LWPOLYLINE
  5
1d3
100
AcDbEntity
  8
0
 62
7
100
AcDbPolyline
 90
2
 70
0
 10
15.019915
 20
-40.394415
 30
0.0
 10
18.643382
 20
-26.871454
 30
0.0
  0
LWPOLYLINE
  5
1d4
100
AcDbEntity
  8
0
 62
7
100
AcDbPolyline
 90
2
 70
0
 10
15.019915
 20
-40.394415
 30
0.0
 10
28.542876
 20
-44.017882
 30
0.0
  0
LWPOLYLINE
  5
1d5
100
AcDbEntity
  8
0
 62
7
100
AcDbPolyline
 90
2
 70
0
 10
10.102359
 20
-58.747001
 30
0.0
 10
23.625320
 20
-62.370468
 30
0.0
  0
LWPOLYLINE
  5
1d6
100
AcDbEntity
  8
0
 62
7
100
AcDbPolyline
 90
2
 70
0
 10
27.248787
 20
-48.847507
 30
0.0
 10
13.725826
 20
-45.224040
 30
0.0
  0
LWPOLYLINE
  5
1d7
100
AcDbEntity
  8
0
 62
7
100
AcDbPolyline
 90
2
 70
0
 10
27.248787
 20
-48.847507
 30
0.0
 10
23.625320
 20
-62.370468
 30
0.0
  0
LWPOLYLINE
  5
1d8
100
AcDbEntity
  8
0
 62
7
100
AcDbPolyline
 90
2
 70
0
 10
10.102359
 20
-58.747001
 30
0.0
 10
13.725826
 20
-45.224040
 30
0.0
  0
LWPOLYLINE
  5
1d9
100
AcDbEntity
  8
0
 62
7
100
AcDbPolyline
 90
2
 70
0
 10
22.331217
 20
-67.200101
 30
0.0
 10
8.808256
 20
-63.576634
 30
0.0
  0
LWPOLYLINE
  5
1da
100
AcDbEntity
  8
0
 62
7
100
AcDbPolyline
 90
2
 70
0
 10
5.184789
 20
-77.099595
 30
0.0
 10
8.808256
 20
-63.576634
 30
0.0
  0
LWPOLYLINE
  5
1db
100
AcDbEntity
  8
0
 62
7
100
AcDbPolyline
 90
2
 70
0
 10
22.331217
 20
-67.200101
 30
0.0
 10
18.707750
 20
-80.723062
 30
0.0
  0
LWPOLYLINE
  5
1dc
100
AcDbEntity
  8
0
 62
7
100
AcDbPolyline
 90
2
 70
0
 10
5.184789
 20
-77.099595
 30
0.0
 10
18.707750
 20
-80.723062
 30
0.0
  0
LWPOLYLINE
  5
1dd
100
AcDbEntity
  8
0
 62
7
100
AcDbPolyline
 90
2
 70
0
 10
131.217696
 20
-47.200532
 30
0.0
 10
134.841163
 20
-33.677571
 30
0.0
  0
LWPOLYLINE
  5
1de
100
AcDbEntity
  8
0
 62
7
100
AcDbPolyline
 90
2
 70
0
 10
148.364124
 20
-37.301038
 30
0.0
 10
134.841163
 20
-33.677571
 30
0.0
  0
LWPOLYLINE
  5
1df
100
AcDbEntity
  8
0
 62
7
100
AcDbPolyline
 90
2
 70
0
 10
148.364124
 20
-37.301038
 30
0.0
 10
144.740657
 20
-50.823999
 30
0.0
  0
LWPOLYLINE
  5
1e0
100
AcDbEntity
  8
0
 62
7
100
AcDbPolyline
 90
2
 70
0
 10
131.217696
 20
-47.200532
 30
0.0
 10
144.740657
 20
-50.823999
 30
0.0
  0
LWPOLYLINE
  5
1e1
100
AcDbEntity
  8
0
 62
7
100
AcDbPolyline
 90
2
 70
0
 10
143.446570
 20
-55.653625
 30
0.0
 10
139.823103
 20
-69.176586
 30
0.0
  0
LWPOLYLINE
  5
1e2
100
AcDbEntity
  8
0
 62
7
100
AcDbPolyline
 90
2
 70
0
 10
126.300142
 20
-65.553119
 30
0.0
 10
139.823103
 20
-69.176586
 30
0.0
  0
LWPOLYLINE
  5
1e3
100
AcDbEntity
  8
0
 62
7
100
AcDbPolyline
 90
2
 70
0
 10
126.300142
 20
-65.553119
 30
0.0
 10
129.923609
 20
-52.030158
 30
0.0
  0
LWPOLYLINE
  5
1e4
100
AcDbEntity
  8
0
 62
7
100
AcDbPolyline
 90
2
 70
0
 10
143.446570
 20
-55.653625
 30
0.0
 10
129.923609
 20
-52.030158
 30
0.0
  0
LWPOLYLINE
  5
1e5
100
AcDbEntity
  8
0
 62
7
100
AcDbPolyline
 90
2
 70
0
 10
138.529011
 20
-74.006213
 30
0.0
 10
134.905544
 20
-87.529174
 30
0.0
  0
LWPOLYLINE
  5
1e6
100
AcDbEntity
  8
0
 62
7
100
AcDbPolyline
 90
2
 70
0
 10
121.382583
 20
-83.905707
 30
0.0
 10
125.006050
 20
-70.382746
 30
0.0
  0
LWPOLYLINE
  5
1e7
100
AcDbEntity
  8
0
 62
7
100
AcDbPolyline
 90
2
 70
0
 10
121.382583
 20
-83.905707
 30
0.0
 10
134.905544
 20
-87.529174
 30
0.0
  0
LWPOLYLINE
  5
1e8
100
AcDbEntity
  8
0
 62
7
100
AcDbPolyline
 90
2
 70
0
 10
138.529011
 20
-74.006213
 30
0.0
 10
125.006050
 20
-70.382746
 30
0.0
  0
LWPOLYLINE
  5
1e9
100
AcDbEntity
  8
0
 62
7
100
AcDbPolyline
 90
2
 70
0
 10
181.568115
 20
-50.811321
 30
0.0
 10
195.091076
 20
-47.187854
 30
0.0
  0
LWPOLYLINE
  5
1ea
100
AcDbEntity
  8
0
 62
7
100
AcDbPolyline
 90
2
 70
0
 10
191.467609
 20
-33.664893
 30
0.0
 10
195.091076
 20
-47.187854
 30
0.0
  0
LWPOLYLINE
  5
1eb
100
AcDbEntity
  8
0
 62
7
100
AcDbPolyline
 90
2
 70
0
 10
191.467609
 20
-33.664893
 30
0.0
 10
177.944648
 20
-37.288360
 30
0.0
  0
LWPOLYLINE
  5
1ec
100
AcDbEntity
  8
0
 62
7
100
AcDbPolyline
 90
2
 70
0
 10
181.568115
 20
-50.811321
 30
0.0
 10
177.944648
 20
-37.288360
 30
0.0
  0
LWPOLYLINE
  5
1ed
100
AcDbEntity
  8
0
 62
7
100
AcDbPolyline
 90
2
 70
0
 10
186.485676
 20
-69.163911
 30
0.0
 10
200.008637
 20
-65.540444
 30
0.0
  0
LWPOLYLINE
  5
1ee
100
AcDbEntity
  8
0
 62
7
100
AcDbPolyline
 90
2
 70
0
 10
196.385170
 20
-52.017483
 30
0.0
 10
182.862209
 20
-55.640950
 30
0.0
  0
LWPOLYLINE
  5
1ef
100
AcDbEntity
  8
0
 62
7
100
AcDbPolyline
 90
2
 70
0
 10
196.385170
 20
-52.017483
 30
0.0
 10
200.008637
 20
-65.540444
 30
0.0
  0
LWPOLYLINE
  5
1f0
100
AcDbEntity
  8
0
 62
7
100
AcDbPolyline
 90
2
 70
0
 10
186.485676
 20
-69.163911
 30
0.0
 10
182.862209
 20
-55.640950
 30
0.0
  0
LWPOLYLINE
  5
1f1
100
AcDbEntity
  8
0
 62
7
100
AcDbPolyline
 90
2
 70
0
 10
191.403234
 20
-87.516504
 30
0.0
 10
204.926195
 20
-83.893037
 30
0.0
  0
LWPOLYLINE
  5
1f2
100
AcDbEntity
  8
0
 62
7
100
AcDbPolyline
 90
2
 70
0
 10
201.302728
 20
-70.370076
 30
0.0
 10
187.779767
 20
-73.993543
 30
0.0
  0
LWPOLYLINE
  5
1f3
100
AcDbEntity
  8
0
 62
7
100
AcDbPolyline
 90
2
 70
0
 10
191.403234
 20
-87.516504
 30
0.0
 10
187.779767
 20
-73.993543
 30
0.0
  0
LWPOLYLINE
  5
1f4
100
AcDbEntity
  8
0
 62
7
100
AcDbPolyline
 90
2
 70
0
 10
201.302728
 20
-70.370076
 30
0.0
 10
204.926195
 20
-83.893037
 30
0.0
  0
LWPOLYLINE
  5
1f5
100
AcDbEntity
  8
0
 62
7
100
AcDbPolyline
 90
2
 70
0
 10
302.683469
 20
-62.357796
 30
0.0
 10
316.206430
 20
-58.734329
 30
0.0
  0
LWPOLYLINE
  5
1f6
100
AcDbEntity
  8
0
 62
7
100
AcDbPolyline
 90
2
 70
0
 10
312.582963
 20
-45.211368
 30
0.0
 10
316.206430
 20
-58.734329
 30
0.0
  0
LWPOLYLINE
  5
1f7
100
AcDbEntity
  8
0
 62
7
100
AcDbPolyline
 90
2
 70
0
 10
302.683469
 20
-62.357796
 30
0.0
 10
299.060002
 20
-48.834835
 30
0.0
  0
LWPOLYLINE
  5
1f8
100
AcDbEntity
  8
0
 62
7
100
AcDbPolyline
 90
2
 70
0
 10
312.582963
 20
-45.211368
 30
0.0
 10
299.060002
 20
-48.834835
 30
0.0
  0
LWPOLYLINE
  5
1f9
100
AcDbEntity
  8
0
 62
7
100
AcDbPolyline
 90
2
 70
0
 10
317.500512
 20
-63.563956
 30
0.0
 10
321.123979
 20
-77.086917
 30
0.0
  0
LWPOLYLINE
  5
1fa
100
AcDbEntity
  8
0
 62
7
100
AcDbPolyline
 90
2
 70
0
 10
307.601018
 20
-80.710384
 30
0.0
 10
321.123979
 20
-77.086917
 30
0.0
  0
LWPOLYLINE
  5
1fb
100
AcDbEntity
  8
0
 62
7
100
AcDbPolyline
 90
2
 70
0
 10
307.601018
 20
-80.710384
 30
0.0
 10
303.977551
 20
-67.187423
 30
0.0
  0
LWPOLYLINE
  5
1fc
100
AcDbEntity
  8
0
 62
7
100
AcDbPolyline
 90
2
 70
0
 10
317.500512
 20
-63.563956
 30
0.0
 10
303.977551
 20
-67.187423
 30
0.0
  0
LWPOLYLINE
  5
1fd
100
AcDbEntity
  8
0
 62
7
100
AcDbPolyline
 90
2
 70
0
 10
292.848351
 20
-25.652619
 30
0.0
 10
289.224884
 20
-12.129658
 30
0.0
  0
LWPOLYLINE
  5
1fe
100
AcDbEntity
  8
0
 62
7
100
AcDbPolyline
 90
2
 70
0
 10
302.747845
 20
-8.506191
 30
0.0
 10
289.224884
 20
-12.129658
 30
0.0
  0
LWPOLYLINE
  5
1ff
100
AcDbEntity
  8
0
 62
7
100
AcDbPolyline
 90
2
 70
0
 10
302.747845
 20
-8.506191
 30
0.0
 10
306.371312
 20
-22.029152
 30
0.0
  0
LWPOLYLINE
  5
200
100
AcDbEntity
  8
0
 62
7
100
AcDbPolyline
 90
2
 70
0
 10
292.848351
 20
-25.652619
 30
0.0
 10
306.371312
 20
-22.029152
 30
0.0
  0
LWPOLYLINE
  5
201
100
AcDbEntity
  8
0
 62
7
100
AcDbPolyline
 90
2
 70
0
 10
307.665398
 20
-26.858776
 30
0.0
 10
294.142437
 20
-30.482243
 30
0.0
  0
LWPOLYLINE
  5
202
100
AcDbEntity
  8
0
 62
7
100
AcDbPolyline
 90
2
 70
0
 10
297.765904
 20
-44.005204
 30
0.0
 10
311.288865
 20
-40.381737
 30
0.0
  0
LWPOLYLINE
  5
203
100
AcDbEntity
  8
0
 62
7
100
AcDbPolyline
 90
2
 70
0
 10
307.665398
 20
-26.858776
 30
0.0
 10
311.288865
 20
-40.381737
 30
0.0
  0
LWPOLYLINE
  5
204
100
AcDbEntity
  8
0
 62
7
100
AcDbPolyline
 90
2
 70
0
 10
297.765904
 20
-44.005204
 30
0.0
 10
294.142437
 20
-30.482243
 30
0.0
  0
LWPOLYLINE
  5
205
100
AcDbEntity
  8
0
 62
7
100
AcDbPolyline
 90
2
 70
0
 10
94.787056
 20
-115.159344
 30
0.0
 10
102.817126
 20
-103.691216
 30
0.0
  0
LWPOLYLINE
  5
206
100
AcDbEntity
  8
0
 62
7
100
AcDbPolyline
 90
2
 70
0
 10
94.787056
 20
-115.159344
 30
0.0
 10
106.255184
 20
-123.189414
 30
0.0
  0
LWPOLYLINE
  5
207
100
AcDbEntity
  8
0
 62
7
100
AcDbPolyline
 90
2
 70
0
 10
114.285254
 20
-111.721286
 30
0.0
 10
102.817126
 20
-103.691216
 30
0.0
  0
LWPOLYLINE
  5
208
100
AcDbEntity
  8
0
 62
7
100
AcDbPolyline
 90
2
 70
0
 10
114.285254
 20
-111.721286
 30
0.0
 10
106.255184
 20
-123.189414
 30
0.0
  0
LWPOLYLINE
  5
209
100
AcDbEntity
  8
0
 62
7
100
AcDbPolyline
 90
2
 70
0
 10
130.548307
 20
-126.959225
 30
0.0
 10
120.648812
 20
-136.858720
 30
0.0
  0
LWPOLYLINE
  5
20a
100
AcDbEntity
  8
0
 62
7
100
AcDbPolyline
 90
2
 70
0
 10
110.749317
 20
-126.959225
 30
0.0
 10
120.648812
 20
-117.059730
 30
0.0
  0
LWPOLYLINE
  5
20b
100
AcDbEntity
  8
0
 62
7
100
AcDbPolyline
 90
2
 70
0
 10
130.548307
 20
-126.959225
 30
0.0
 10
120.648812
 20
-117.059730
 30
0.0
  0
LWPOLYLINE
  5
20c
100
AcDbEntity
  8
0
 62
7
100
AcDbPolyline
 90
2
 70
0
 10
110.749317
 20
-126.959225
 30
0.0
 10
120.648812
 20
-136.858720
 30
0.0
  0
LWPOLYLINE
  5
20d
100
AcDbEntity
  8
0
 62
7
100
AcDbPolyline
 90
2
 70
0
 10
136.592875
 20
-103.397168
 30
0.0
 10
125.868253
 20
-94.398142
 30
0.0
  0
LWPOLYLINE
  5
20e
100
AcDbEntity
  8
0
 62
7
100
AcDbPolyline
 90
2
 70
0
 10
116.869227
 20
-105.122764
 30
0.0
 10
125.868253
 20
-94.398142
 30
0.0
  0
LWPOLYLINE
  5
20f
100
AcDbEntity
  8
0
 62
7
100
AcDbPolyline
 90
2
 70
0
 10
116.869227
 20
-105.122764
 30
0.0
 10
127.593849
 20
-114.121790
 30
0.0
  0
SPLINE
  5
210
100
AcDbEntity
  8
0
 62
7
100
AcDbSpline
 70
8
 71
3
 72
8
 73
4
 74
0
 40
0
 40
0
 40
0
 40
0
 40
1
 40
1
 40
1
 40
1
 10
249.550779
 20
-97.005739
 30
0.0
 10
249.045201
 20
-97.005739
 30
0.0
 10
248.589406
 20
-97.310292
 30
0.0
 10
248.395930
 20
-97.777385
 30
0.0
  0
SPLINE
  5
211
100
AcDbEntity
  8
0
 62
7
100
AcDbSpline
 70
8
 71
3
 72
8
 73
4
 74
0
 40
0
 40
0
 40
0
 40
0
 40
1
 40
1
 40
1
 40
1
 10
248.395930
 20
-97.777385
 30
0.0
 10
248.202453
 20
-98.244478
 30
0.0
 10
248.309398
 20
-98.782125
 30
0.0
 10
248.666896
 20
-99.139623
 30
0.0
  0
SPLINE
  5
212
100
AcDbEntity
  8
0
 62
7
100
AcDbSpline
 70
8
 71
3
 72
8
 73
4
 74
0
 40
0
 40
0
 40
0
 40
0
 40
1
 40
1
 40
1
 40
1
 10
248.666896
 20
-99.139623
 30
0.0
 10
249.024393
 20
-99.497120
 30
0.0
 10
249.562040
 20
-99.604065
 30
0.0
 10
250.029133
 20
-99.410589
 30
0.0
  0
SPLINE
  5
213
100
AcDbEntity
  8
0
 62
7
100
AcDbSpline
 70
8
 71
3
 72
8
 73
4
 74
0
 40
0
 40
0
 40
0
 40
0
 40
1
 40
1
 40
1
 40
1
 10
250.029133
 20
-99.410589
 30
0.0
 10
250.496226
 20
-99.217113
 30
0.0
 10
250.800779
 20
-98.761317
 30
0.0
 10
250.800779
 20
-98.255739
 30
0.0
  0
SPLINE
  5
214
100
AcDbEntity
  8
0
 62
7
100
AcDbSpline
 70
8
 71
3
 72
8
 73
4
 74
0
 40
0
 40
0
 40
0
 40
0
 40
1
 40
1
 40
1
 40
1
 10
250.800779
 20
-98.255739
 30
0.0
 10
250.800779
 20
-97.924219
 30
0.0
 10
250.669083
 20
-97.606276
 30
0.0
 10
250.434662
 20
-97.371856
 30
0.0
  0
SPLINE
  5
215
100
AcDbEntity
  8
0
 62
7
100
AcDbSpline
 70
8
 71
3
 72
8
 73
4
 74
0
 40
0
 40
0
 40
0
 40
0
 40
1
 40
1
 40
1
 40
1
 10
250.434662
 20
-97.371856
 30
0.0
 10
250.200242
 20
-97.137435
 30
0.0
 10
249.882300
 20
-97.005739
 30
0.0
 10
249.550779
 20
-97.005739
 30
0.0
  0
LWPOLYLINE
  5
216
100
AcDbEntity
  8
0
 62
7
100
AcDbPolyline
 90
2
 70
0
 10
136.592875
 20
-103.397168
 30
0.0
 10
127.593849
 20
-114.121790
 30
0.0
  0
LWPOLYLINE
  5
217
100
AcDbEntity
  8
0
 62
7
100
AcDbPolyline
 90
1
 70
1
 10
249.550779
 20
-97.005739
 30
0.0
  0
LWPOLYLINE
  5
218
100
AcDbEntity
  8
0
 62
7
100
AcDbPolyline
 90
2
 70
0
 10
151.072459
 20
-123.909508
 30
0.0
 10
151.072459
 20
-137.909508
 30
0.0
  0
LWPOLYLINE
  5
219
100
AcDbEntity
  8
0
 62
7
100
AcDbPolyline
 90
2
 70
0
 10
137.072459
 20
-137.909508
 30
0.0
 10
151.072459
 20
-137.909508
 30
0.0
  0
LWPOLYLINE
  5
21a
100
AcDbEntity
  8
0
 62
7
100
AcDbPolyline
 90
2
 70
0
 10
137.072459
 20
-137.909508
 30
0.0
 10
137.072459
 20
-123.909508
 30
0.0
  0
SPLINE
  5
21b
100
AcDbEntity
  8
0
 62
7
100
AcDbSpline
 70
8
 71
3
 72
8
 73
4
 74
0
 40
0
 40
0
 40
0
 40
0
 40
1
 40
1
 40
1
 40
1
 10
130.427961
 20
-134.309511
 30
0.0
 10
129.922383
 20
-134.309511
 30
0.0
 10
129.466588
 20
-134.614064
 30
0.0
 10
129.273112
 20
-135.081157
 30
0.0
  0
SPLINE
  5
21c
100
AcDbEntity
  8
0
 62
7
100
AcDbSpline
 70
8
 71
3
 72
8
 73
4
 74
0
 40
0
 40
0
 40
0
 40
0
 40
1
 40
1
 40
1
 40
1
 10
129.273112
 20
-135.081157
 30
0.0
 10
129.079635
 20
-135.548250
 30
0.0
 10
129.186580
 20
-136.085897
 30
0.0
 10
129.544078
 20
-136.443395
 30
0.0
  0
SPLINE
  5
21d
100
AcDbEntity
  8
0
 62
7
100
AcDbSpline
 70
8
 71
3
 72
8
 73
4
 74
0
 40
0
 40
0
 40
0
 40
0
 40
1
 40
1
 40
1
 40
1
 10
129.544078
 20
-136.443395
 30
0.0
 10
129.901575
 20
-136.800892
 30
0.0
 10
130.439222
 20
-136.907837
 30
0.0
 10
130.906315
 20
-136.714361
 30
0.0
  0
SPLINE
  5
21e
100
AcDbEntity
  8
0
 62
7
100
AcDbSpline
 70
8
 71
3
 72
8
 73
4
 74
0
 40
0
 40
0
 40
0
 40
0
 40
1
 40
1
 40
1
 40
1
 10
130.906315
 20
-136.714361
 30
0.0
 10
131.373408
 20
-136.520885
 30
0.0
 10
131.677961
 20
-136.065089
 30
0.0
 10
131.677961
 20
-135.559511
 30
0.0
  0
SPLINE
  5
21f
100
AcDbEntity
  8
0
 62
7
100
AcDbSpline
 70
8
 71
3
 72
8
 73
4
 74
0
 40
0
 40
0
 40
0
 40
0
 40
1
 40
1
 40
1
 40
1
 10
131.677961
 20
-135.559511
 30
0.0
 10
131.677961
 20
-135.227991
 30
0.0
 10
131.546265
 20
-134.910048
 30
0.0
 10
131.311844
 20
-134.675628
 30
0.0
  0
SPLINE
  5
220
100
AcDbEntity
  8
0
 62
7
100
AcDbSpline
 70
8
 71
3
 72
8
 73
4
 74
0
 40
0
 40
0
 40
0
 40
0
 40
1
 40
1
 40
1
 40
1
 10
131.311844
 20
-134.675628
 30
0.0
 10
131.077424
 20
-134.441207
 30
0.0
 10
130.759482
 20
-134.309511
 30
0.0
 10
130.427961
 20
-134.309511
 30
0.0
  0
LWPOLYLINE
  5
221
100
AcDbEntity
  8
0
 62
7
100
AcDbPolyline
 90
2
 70
0
 10
151.072459
 20
-123.909508
 30
0.0
 10
137.072459
 20
-123.909508
 30
0.0
  0
LWPOLYLINE
  5
222
100
AcDbEntity
  8
0
 62
7
100
AcDbPolyline
 90
1
 70
1
 10
130.427961
 20
-134.309511
 30
0.0
  0
LWPOLYLINE
  5
223
100
AcDbEntity
  8
0
 62
7
100
AcDbPolyline
 90
2
 70
0
 10
56.164512
 20
-84.045558
 30
0.0
 10
52.023408
 20
-99.500371
 30
0.0
  0
LWPOLYLINE
  5
224
100
AcDbEntity
  8
0
 62
7
100
AcDbPolyline
 90
2
 70
0
 10
40.432298
 20
-96.394542
 30
0.0
 10
44.573402
 20
-80.939729
 30
0.0
  0
LWPOLYLINE
  5
225
100
AcDbEntity
  8
0
 62
7
100
AcDbPolyline
 90
2
 70
0
 10
40.432298
 20
-96.394542
 30
0.0
 10
52.023408
 20
-99.500371
 30
0.0
  0
SPLINE
  5
226
100
AcDbEntity
  8
0
 62
7
100
AcDbSpline
 70
8
 71
3
 72
8
 73
4
 74
0
 40
0
 40
0
 40
0
 40
0
 40
1
 40
1
 40
1
 40
1
 10
206.968869
 20
-95.290620
 30
0.0
 10
206.463291
 20
-95.290620
 30
0.0
 10
206.007496
 20
-95.595173
 30
0.0
 10
205.814020
 20
-96.062266
 30
0.0
  0
SPLINE
  5
227
100
AcDbEntity
  8
0
 62
7
100
AcDbSpline
 70
8
 71
3
 72
8
 73
4
 74
0
 40
0
 40
0
 40
0
 40
0
 40
1
 40
1
 40
1
 40
1
 10
205.814020
 20
-96.062266
 30
0.0
 10
205.620543
 20
-96.529359
 30
0.0
 10
205.727488
 20
-97.067006
 30
0.0
 10
206.084986
 20
-97.424504
 30
0.0
  0
SPLINE
  5
228
100
AcDbEntity
  8
0
 62
7
100
AcDbSpline
 70
8
 71
3
 72
8
 73
4
 74
0
 40
0
 40
0
 40
0
 40
0
 40
1
 40
1
 40
1
 40
1
 10
206.084986
 20
-97.424504
 30
0.0
 10
206.442483
 20
-97.782001
 30
0.0
 10
206.980130
 20
-97.888946
 30
0.0
 10
207.447223
 20
-97.695470
 30
0.0
  0
SPLINE
  5
229
100
AcDbEntity
  8
0
 62
7
100
AcDbSpline
 70
8
 71
3
 72
8
 73
4
 74
0
 40
0
 40
0
 40
0
 40
0
 40
1
 40
1
 40
1
 40
1
 10
207.447223
 20
-97.695470
 30
0.0
 10
207.914316
 20
-97.501994
 30
0.0
 10
208.218869
 20
-97.046198
 30
0.0
 10
208.218869
 20
-96.540620
 30
0.0
  0
SPLINE
  5
22a
100
AcDbEntity
  8
0
 62
7
100
AcDbSpline
 70
8
 71
3
 72
8
 73
4
 74
0
 40
0
 40
0
 40
0
 40
0
 40
1
 40
1
 40
1
 40
1
 10
208.218869
 20
-96.540620
 30
0.0
 10
208.218869
 20
-96.209100
 30
0.0
 10
208.087173
 20
-95.891157
 30
0.0
 10
207.852752
 20
-95.656737
 30
0.0
  0
SPLINE
  5
22b
100
AcDbEntity
  8
0
 62
7
100
AcDbSpline
 70
8
 71
3
 72
8
 73
4
 74
0
 40
0
 40
0
 40
0
 40
0
 40
1
 40
1
 40
1
 40
1
 10
207.852752
 20
-95.656737
 30
0.0
 10
207.618332
 20
-95.422316
 30
0.0
 10
207.300390
 20
-95.290620
 30
0.0
 10
206.968869
 20
-95.290620
 30
0.0
  0
LWPOLYLINE
  5
22c
100
AcDbEntity
  8
0
 62
7
100
AcDbPolyline
 90
2
 70
0
 10
56.164512
 20
-84.045558
 30
0.0
 10
44.573402
 20
-80.939729
 30
0.0
  0
SPLINE
  5
22d
100
AcDbEntity
  8
0
 62
7
100
AcDbSpline
 70
8
 71
3
 72
8
 73
4
 74
0
 40
0
 40
0
 40
0
 40
0
 40
1
 40
1
 40
1
 40
1
 10
76.922993
 20
-96.777675
 30
0.0
 10
76.417415
 20
-96.777675
 30
0.0
 10
75.961620
 20
-97.082228
 30
0.0
 10
75.768144
 20
-97.549321
 30
0.0
  0
SPLINE
  5
22e
100
AcDbEntity
  8
0
 62
7
100
AcDbSpline
 70
8
 71
3
 72
8
 73
4
 74
0
 40
0
 40
0
 40
0
 40
0
 40
1
 40
1
 40
1
 40
1
 10
75.768144
 20
-97.549321
 30
0.0
 10
75.574667
 20
-98.016414
 30
0.0
 10
75.681612
 20
-98.554061
 30
0.0
 10
76.039110
 20
-98.911559
 30
0.0
  0
SPLINE
  5
22f
100
AcDbEntity
  8
0
 62
7
100
AcDbSpline
 70
8
 71
3
 72
8
 73
4
 74
0
 40
0
 40
0
 40
0
 40
0
 40
1
 40
1
 40
1
 40
1
 10
76.039110
 20
-98.911559
 30
0.0
 10
76.396607
 20
-99.269056
 30
0.0
 10
76.934254
 20
-99.376001
 30
0.0
 10
77.401347
 20
-99.182525
 30
0.0
  0
SPLINE
  5
230
100
AcDbEntity
  8
0
 62
7
100
AcDbSpline
 70
8
 71
3
 72
8
 73
4
 74
0
 40
0
 40
0
 40
0
 40
0
 40
1
 40
1
 40
1
 40
1
 10
77.401347
 20
-99.182525
 30
0.0
 10
77.868440
 20
-98.989049
 30
0.0
 10
78.172993
 20
-98.533253
 30
0.0
 10
78.172993
 20
-98.027675
 30
0.0
  0
SPLINE
  5
231
100
AcDbEntity
  8
0
 62
7
100
AcDbSpline
 70
8
 71
3
 72
8
 73
4
 74
0
 40
0
 40
0
 40
0
 40
0
 40
1
 40
1
 40
1
 40
1
 10
78.172993
 20
-98.027675
 30
0.0
 10
78.172993
 20
-97.696155
 30
0.0
 10
78.041297
 20
-97.378212
 30
0.0
 10
77.806876
 20
-97.143792
 30
0.0
  0
SPLINE
  5
232
100
AcDbEntity
  8
0
 62
7
100
AcDbSpline
 70
8
 71
3
 72
8
 73
4
 74
0
 40
0
 40
0
 40
0
 40
0
 40
1
 40
1
 40
1
 40
1
 10
77.806876
 20
-97.143792
 30
0.0
 10
77.572456
 20
-96.909371
 30
0.0
 10
77.254514
 20
-96.777675
 30
0.0
 10
76.922993
 20
-96.777675
 30
0.0
  0
LWPOLYLINE
  5
233
100
AcDbEntity
  8
0
 62
7
100
AcDbPolyline
 90
1
 70
1
 10
206.968869
 20
-95.290620
 30
0.0
  0
SPLINE
  5
234
100
AcDbEntity
  8
0
 62
7
100
AcDbSpline
 70
8
 71
3
 72
8
 73
4
 74
0
 40
0
 40
0
 40
0
 40
0
 40
1
 40
1
 40
1
 40
1
 10
38.016280
 20
-17.444636
 30
0.0
 10
37.510702
 20
-17.444636
 30
0.0
 10
37.054907
 20
-17.749189
 30
0.0
 10
36.861431
 20
-18.216282
 30
0.0
  0
SPLINE
  5
235
100
AcDbEntity
  8
0
 62
7
100
AcDbSpline
 70
8
 71
3
 72
8
 73
4
 74
0
 40
0
 40
0
 40
0
 40
0
 40
1
 40
1
 40
1
 40
1
 10
36.861431
 20
-18.216282
 30
0.0
 10
36.667954
 20
-18.683375
 30
0.0
 10
36.774899
 20
-19.221022
 30
0.0
 10
37.132397
 20
-19.578520
 30
0.0
  0
SPLINE
  5
236
100
AcDbEntity
  8
0
 62
7
100
AcDbSpline
 70
8
 71
3
 72
8
 73
4
 74
0
 40
0
 40
0
 40
0
 40
0
 40
1
 40
1
 40
1
 40
1
 10
37.132397
 20
-19.578520
 30
0.0
 10
37.489894
 20
-19.936017
 30
0.0
 10
38.027541
 20
-20.042962
 30
0.0
 10
38.494634
 20
-19.849486
 30
0.0
  0
SPLINE
  5
237
100
AcDbEntity
  8
0
 62
7
100
AcDbSpline
 70
8
 71
3
 72
8
 73
4
 74
0
 40
0
 40
0
 40
0
 40
0
 40
1
 40
1
 40
1
 40
1
 10
38.494634
 20
-19.849486
 30
0.0
 10
38.961727
 20
-19.656010
 30
0.0
 10
39.266280
 20
-19.200214
 30
0.0
 10
39.266280
 20
-18.694636
 30
0.0
  0
SPLINE
  5
238
100
AcDbEntity
  8
0
 62
7
100
AcDbSpline
 70
8
 71
3
 72
8
 73
4
 74
0
 40
0
 40
0
 40
0
 40
0
 40
1
 40
1
 40
1
 40
1
 10
39.266280
 20
-18.694636
 30
0.0
 10
39.266280
 20
-18.363116
 30
0.0
 10
39.134584
 20
-18.045173
 30
0.0
 10
38.900163
 20
-17.810753
 30
0.0
  0
SPLINE
  5
239
100
AcDbEntity
  8
0
 62
7
100
AcDbSpline
 70
8
 71
3
 72
8
 73
4
 74
0
 40
0
 40
0
 40
0
 40
0
 40
1
 40
1
 40
1
 40
1
 10
38.900163
 20
-17.810753
 30
0.0
 10
38.665743
 20
-17.576332
 30
0.0
 10
38.347801
 20
-17.444636
 30
0.0
 10
38.016280
 20
-17.444636
 30
0.0
  0
LWPOLYLINE
  5
23a
100
AcDbEntity
  8
0
 62
7
100
AcDbPolyline
 90
1
 70
1
 10
76.922993
 20
-96.777675
 30
0.0
  0
SPLINE
  5
23b
100
AcDbEntity
  8
0
 62
7
100
AcDbSpline
 70
8
 71
3
 72
8
 73
4
 74
0
 40
0
 40
0
 40
0
 40
0
 40
1
 40
1
 40
1
 40
1
 10
132.005908
 20
-33.758782
 30
0.0
 10
131.500330
 20
-33.758782
 30
0.0
 10
131.044535
 20
-34.063335
 30
0.0
 10
130.851059
 20
-34.530428
 30
0.0
  0
SPLINE
  5
23c
100
AcDbEntity
  8
0
 62
7
100
AcDbSpline
 70
8
 71
3
 72
8
 73
4
 74
0
 40
0
 40
0
 40
0
 40
0
 40
1
 40
1
 40
1
 40
1
 10
130.851059
 20
-34.530428
 30
0.0
 10
130.657582
 20
-34.997521
 30
0.0
 10
130.764527
 20
-35.535168
 30
0.0
 10
131.122025
 20
-35.892666
 30
0.0
  0
SPLINE
  5
23d
100
AcDbEntity
  8
0
 62
7
100
AcDbSpline
 70
8
 71
3
 72
8
 73
4
 74
0
 40
0
 40
0
 40
0
 40
0
 40
1
 40
1
 40
1
 40
1
 10
131.122025
 20
-35.892666
 30
0.0
 10
131.479522
 20
-36.250163
 30
0.0
 10
132.017169
 20
-36.357108
 30
0.0
 10
132.484262
 20
-36.163632
 30
0.0
  0
SPLINE
  5
23e
100
AcDbEntity
  8
0
 62
7
100
AcDbSpline
 70
8
 71
3
 72
8
 73
4
 74
0
 40
0
 40
0
 40
0
 40
0
 40
1
 40
1
 40
1
 40
1
 10
132.484262
 20
-36.163632
 30
0.0
 10
132.951355
 20
-35.970156
 30
0.0
 10
133.255908
 20
-35.514360
 30
0.0
 10
133.255908
 20
-35.008782
 30
0.0
  0
SPLINE
  5
23f
100
AcDbEntity
  8
0
 62
7
100
AcDbSpline
 70
8
 71
3
 72
8
 73
4
 74
0
 40
0
 40
0
 40
0
 40
0
 40
1
 40
1
 40
1
 40
1
 10
133.255908
 20
-35.008782
 30
0.0
 10
133.255908
 20
-34.677262
 30
0.0
 10
133.124212
 20
-34.359319
 30
0.0
 10
132.889791
 20
-34.124899
 30
0.0
  0
SPLINE
  5
240
100
AcDbEntity
  8
0
 62
7
100
AcDbSpline
 70
8
 71
3
 72
8
 73
4
 74
0
 40
0
 40
0
 40
0
 40
0
 40
1
 40
1
 40
1
 40
1
 10
132.889791
 20
-34.124899
 30
0.0
 10
132.655371
 20
-33.890478
 30
0.0
 10
132.337429
 20
-33.758782
 30
0.0
 10
132.005908
 20
-33.758782
 30
0.0
  0
LWPOLYLINE
  5
241
100
AcDbEntity
  8
0
 62
7
100
AcDbPolyline
 90
1
 70
1
 10
38.016280
 20
-17.444636
 30
0.0
  0
LWPOLYLINE
  5
242
100
AcDbEntity
  8
0
 62
7
100
AcDbPolyline
 90
1
 70
1
 10
132.005908
 20
-33.758782
 30
0.0
  0
LWPOLYLINE
  5
243
100
AcDbEntity
  8
0
 62
7
100
AcDbPolyline
 90
2
 70
0
 10
189.072465
 20
-123.909511
 30
0.0
 10
175.072465
 20
-123.909511
 30
0.0
  0
LWPOLYLINE
  5
244
100
AcDbEntity
  8
0
 62
7
100
AcDbPolyline
 90
2
 70
0
 10
175.072465
 20
-137.909511
 30
0.0
 10
175.072465
 20
-123.909511
 30
0.0
  0
LWPOLYLINE
  5
245
100
AcDbEntity
  8
0
 62
7
100
AcDbPolyline
 90
2
 70
0
 10
189.072465
 20
-123.909511
 30
0.0
 10
189.072465
 20
-137.909511
 30
0.0
  0
SPLINE
  5
246
100
AcDbEntity
  8
0
 62
7
100
AcDbSpline
 70
8
 71
3
 72
8
 73
4
 74
0
 40
0
 40
0
 40
0
 40
0
 40
1
 40
1
 40
1
 40
1
 10
195.627964
 20
-134.309509
 30
0.0
 10
195.122386
 20
-134.309509
 30
0.0
 10
194.666591
 20
-134.614062
 30
0.0
 10
194.473115
 20
-135.081155
 30
0.0
  0
SPLINE
  5
247
100
AcDbEntity
  8
0
 62
7
100
AcDbSpline
 70
8
 71
3
 72
8
 73
4
 74
0
 40
0
 40
0
 40
0
 40
0
 40
1
 40
1
 40
1
 40
1
 10
194.473115
 20
-135.081155
 30
0.0
 10
194.279638
 20
-135.548248
 30
0.0
 10
194.386583
 20
-136.085895
 30
0.0
 10
194.744081
 20
-136.443393
 30
0.0
  0
SPLINE
  5
248
100
AcDbEntity
  8
0
 62
7
100
AcDbSpline
 70
8
 71
3
 72
8
 73
4
 74
0
 40
0
 40
0
 40
0
 40
0
 40
1
 40
1
 40
1
 40
1
 10
194.744081
 20
-136.443393
 30
0.0
 10
195.101578
 20
-136.800890
 30
0.0
 10
195.639225
 20
-136.907835
 30
0.0
 10
196.106318
 20
-136.714359
 30
0.0
  0
SPLINE
  5
249
100
AcDbEntity
  8
0
 62
7
100
AcDbSpline
 70
8
 71
3
 72
8
 73
4
 74
0
 40
0
 40
0
 40
0
 40
0
 40
1
 40
1
 40
1
 40
1
 10
196.106318
 20
-136.714359
 30
0.0
 10
196.573411
 20
-136.520883
 30
0.0
 10
196.877964
 20
-136.065087
 30
0.0
 10
196.877964
 20
-135.559509
 30
0.0
  0
SPLINE
  5
24a
100
AcDbEntity
  8
0
 62
7
100
AcDbSpline
 70
8
 71
3
 72
8
 73
4
 74
0
 40
0
 40
0
 40
0
 40
0
 40
1
 40
1
 40
1
 40
1
 10
196.877964
 20
-135.559509
 30
0.0
 10
196.877964
 20
-135.227989
 30
0.0
 10
196.746268
 20
-134.910046
 30
0.0
 10
196.511847
 20
-134.675626
 30
0.0
  0
SPLINE
  5
24b
100
AcDbEntity
  8
0
 62
7
100
AcDbSpline
 70
8
 71
3
 72
8
 73
4
 74
0
 40
0
 40
0
 40
0
 40
0
 40
1
 40
1
 40
1
 40
1
 10
196.511847
 20
-134.675626
 30
0.0
 10
196.277427
 20
-134.441205
 30
0.0
 10
195.959485
 20
-134.309509
 30
0.0
 10
195.627964
 20
-134.309509
 30
0.0
  0
LWPOLYLINE
  5
24c
100
AcDbEntity
  8
0
 62
7
100
AcDbPolyline
 90
2
 70
0
 10
175.072465
 20
-137.909511
 30
0.0
 10
189.072465
 20
-137.909511
 30
0.0
  0
SPLINE
  5
24d
100
AcDbEntity
  8
0
 62
7
100
AcDbSpline
 70
8
 71
3
 72
8
 73
4
 74
0
 40
0
 40
0
 40
0
 40
0
 40
1
 40
1
 40
1
 40
1
 10
303.134764
 20
-72.191170
 30
0.0
 10
302.629186
 20
-72.191170
 30
0.0
 10
302.173391
 20
-72.495723
 30
0.0
 10
301.979915
 20
-72.962816
 30
0.0
  0
SPLINE
  5
24e
100
AcDbEntity
  8
0
 62
7
100
AcDbSpline
 70
8
 71
3
 72
8
 73
4
 74
0
 40
0
 40
0
 40
0
 40
0
 40
1
 40
1
 40
1
 40
1
 10
301.979915
 20
-72.962816
 30
0.0
 10
301.786438
 20
-73.429909
 30
0.0
 10
301.893383
 20
-73.967556
 30
0.0
 10
302.250881
 20
-74.325054
 30
0.0
  0
SPLINE
  5
24f
100
AcDbEntity
  8
0
 62
7
100
AcDbSpline
 70
8
 71
3
 72
8
 73
4
 74
0
 40
0
 40
0
 40
0
 40
0
 40
1
 40
1
 40
1
 40
1
 10
302.250881
 20
-74.325054
 30
0.0
 10
302.608378
 20
-74.682551
 30
0.0
 10
303.146025
 20
-74.789496
 30
0.0
 10
303.613118
 20
-74.596020
 30
0.0
  0
SPLINE
  5
250
100
AcDbEntity
  8
0
 62
7
100
AcDbSpline
 70
8
 71
3
 72
8
 73
4
 74
0
 40
0
 40
0
 40
0
 40
0
 40
1
 40
1
 40
1
 40
1
 10
303.613118
 20
-74.596020
 30
0.0
 10
304.080211
 20
-74.402544
 30
0.0
 10
304.384764
 20
-73.946748
 30
0.0
 10
304.384764
 20
-73.441170
 30
0.0
  0
SPLINE
  5
251
100
AcDbEntity
  8
0
 62
7
100
AcDbSpline
 70
8
 71
3
 72
8
 73
4
 74
0
 40
0
 40
0
 40
0
 40
0
 40
1
 40
1
 40
1
 40
1
 10
304.384764
 20
-73.441170
 30
0.0
 10
304.384764
 20
-73.109650
 30
0.0
 10
304.253068
 20
-72.791707
 30
0.0
 10
304.018647
 20
-72.557287
 30
0.0
  0
SPLINE
  5
252
100
AcDbEntity
  8
0
 62
7
100
AcDbSpline
 70
8
 71
3
 72
8
 73
4
 74
0
 40
0
 40
0
 40
0
 40
0
 40
1
 40
1
 40
1
 40
1
 10
304.018647
 20
-72.557287
 30
0.0
 10
303.784227
 20
-72.322866
 30
0.0
 10
303.466285
 20
-72.191170
 30
0.0
 10
303.134764
 20
-72.191170
 30
0.0
  0
LWPOLYLINE
  5
253
100
AcDbEntity
  8
0
 62
7
100
AcDbPolyline
 90
1
 70
1
 10
195.627964
 20
-134.309509
 30
0.0
  0
SPLINE
  5
254
100
AcDbEntity
  8
0
 62
7
100
AcDbSpline
 70
8
 71
3
 72
8
 73
4
 74
0
 40
0
 40
0
 40
0
 40
0
 40
1
 40
1
 40
1
 40
1
 10
117.993049
 20
-95.130968
 30
0.0
 10
117.487471
 20
-95.130968
 30
0.0
 10
117.031676
 20
-95.435521
 30
0.0
 10
116.838200
 20
-95.902614
 30
0.0
  0
SPLINE
  5
255
100
AcDbEntity
  8
0
 62
7
100
AcDbSpline
 70
8
 71
3
 72
8
 73
4
 74
0
 40
0
 40
0
 40
0
 40
0
 40
1
 40
1
 40
1
 40
1
 10
116.838200
 20
-95.902614
 30
0.0
 10
116.644723
 20
-96.369707
 30
0.0
 10
116.751668
 20
-96.907354
 30
0.0
 10
117.109166
 20
-97.264852
 30
0.0
  0
SPLINE
  5
256
100
AcDbEntity
  8
0
 62
7
100
AcDbSpline
 70
8
 71
3
 72
8
 73
4
 74
0
 40
0
 40
0
 40
0
 40
0
 40
1
 40
1
 40
1
 40
1
 10
117.109166
 20
-97.264852
 30
0.0
 10
117.466663
 20
-97.622349
 30
0.0
 10
118.004310
 20
-97.729294
 30
0.0
 10
118.471403
 20
-97.535818
 30
0.0
  0
SPLINE
  5
257
100
AcDbEntity
  8
0
 62
7
100
AcDbSpline
 70
8
 71
3
 72
8
 73
4
 74
0
 40
0
 40
0
 40
0
 40
0
 40
1
 40
1
 40
1
 40
1
 10
118.471403
 20
-97.535818
 30
0.0
 10
118.938496
 20
-97.342342
 30
0.0
 10
119.243049
 20
-96.886546
 30
0.0
 10
119.243049
 20
-96.380968
 30
0.0
  0
SPLINE
  5
258
100
AcDbEntity
  8
0
 62
7
100
AcDbSpline
 70
8
 71
3
 72
8
 73
4
 74
0
 40
0
 40
0
 40
0
 40
0
 40
1
 40
1
 40
1
 40
1
 10
119.243049
 20
-96.380968
 30
0.0
 10
119.243049
 20
-96.049448
 30
0.0
 10
119.111353
 20
-95.731505
 30
0.0
 10
118.876932
 20
-95.497085
 30
0.0
  0
SPLINE
  5
259
100
AcDbEntity
  8
0
 62
7
100
AcDbSpline
 70
8
 71
3
 72
8
 73
4
 74
0
 40
0
 40
0
 40
0
 40
0
 40
1
 40
1
 40
1
 40
1
 10
118.876932
 20
-95.497085
 30
0.0
 10
118.642512
 20
-95.262664
 30
0.0
 10
118.324570
 20
-95.130968
 30
0.0
 10
117.993049
 20
-95.130968
 30
0.0
  0
LWPOLYLINE
  5
25a
100
AcDbEntity
  8
0
 62
7
100
AcDbPolyline
 90
1
 70
1
 10
303.134764
 20
-72.191170
 30
0.0
  0
LWPOLYLINE
  5
25b
100
AcDbEntity
  8
0
 62
7
100
AcDbPolyline
 90
1
 70
1
 10
117.993049
 20
-95.130968
 30
0.0
  0
LWPOLYLINE
  5
25c
100
AcDbEntity
  8
0
 62
7
100
AcDbPolyline
 90
2
 70
0
 10
169.079638
 20
-122.426521
 30
0.0
 10
157.079638
 20
-122.426521
 30
0.0
  0
LWPOLYLINE
  5
25d
100
AcDbEntity
  8
0
 62
7
100
AcDbPolyline
 90
2
 70
0
 10
169.079638
 20
-122.426521
 30
0.0
 10
169.079638
 20
-138.426521
 30
0.0
  0
LWPOLYLINE
  5
25e
100
AcDbEntity
  8
0
 62
7
100
AcDbPolyline
 90
2
 70
0
 10
157.079638
 20
-138.426521
 30
0.0
 10
169.079638
 20
-138.426521
 30
0.0
  0
SPLINE
  5
25f
100
AcDbEntity
  8
0
 62
7
100
AcDbSpline
 70
8
 71
3
 72
8
 73
4
 74
0
 40
0
 40
0
 40
0
 40
0
 40
1
 40
1
 40
1
 40
1
 10
87.490151
 20
-52.760441
 30
0.0
 10
86.984573
 20
-52.760441
 30
0.0
 10
86.528778
 20
-53.064994
 30
0.0
 10
86.335302
 20
-53.532087
 30
0.0
  0
SPLINE
  5
260
100
AcDbEntity
  8
0
 62
7
100
AcDbSpline
 70
8
 71
3
 72
8
 73
4
 74
0
 40
0
 40
0
 40
0
 40
0
 40
1
 40
1
 40
1
 40
1
 10
86.335302
 20
-53.532087
 30
0.0
 10
86.141825
 20
-53.999180
 30
0.0
 10
86.248770
 20
-54.536827
 30
0.0
 10
86.606268
 20
-54.894325
 30
0.0
  0
SPLINE
  5
261
100
AcDbEntity
  8
0
 62
7
100
AcDbSpline
 70
8
 71
3
 72
8
 73
4
 74
0
 40
0
 40
0
 40
0
 40
0
 40
1
 40
1
 40
1
 40
1
 10
86.606268
 20
-54.894325
 30
0.0
 10
86.963765
 20
-55.251822
 30
0.0
 10
87.501412
 20
-55.358767
 30
0.0
 10
87.968505
 20
-55.165291
 30
0.0
  0
SPLINE
  5
262
100
AcDbEntity
  8
0
 62
7
100
AcDbSpline
 70
8
 71
3
 72
8
 73
4
 74
0
 40
0
 40
0
 40
0
 40
0
 40
1
 40
1
 40
1
 40
1
 10
87.968505
 20
-55.165291
 30
0.0
 10
88.435598
 20
-54.971815
 30
0.0
 10
88.740151
 20
-54.516019
 30
0.0
 10
88.740151
 20
-54.010441
 30
0.0
  0
SPLINE
  5
263
100
AcDbEntity
  8
0
 62
7
100
AcDbSpline
 70
8
 71
3
 72
8
 73
4
 74
0
 40
0
 40
0
 40
0
 40
0
 40
1
 40
1
 40
1
 40
1
 10
88.740151
 20
-54.010441
 30
0.0
 10
88.740151
 20
-53.678921
 30
0.0
 10
88.608455
 20
-53.360978
 30
0.0
 10
88.374034
 20
-53.126558
 30
0.0
  0
SPLINE
  5
264
100
AcDbEntity
  8
0
 62
7
100
AcDbSpline
 70
8
 71
3
 72
8
 73
4
 74
0
 40
0
 40
0
 40
0
 40
0
 40
1
 40
1
 40
1
 40
1
 10
88.374034
 20
-53.126558
 30
0.0
 10
88.139614
 20
-52.892137
 30
0.0
 10
87.821672
 20
-52.760441
 30
0.0
 10
87.490151
 20
-52.760441
 30
0.0
  0
LWPOLYLINE
  5
265
100
AcDbEntity
  8
0
 62
7
100
AcDbPolyline
 90
2
 70
0
 10
157.079638
 20
-138.426521
 30
0.0
 10
157.079638
 20
-122.426521
 30
0.0
  0
SPLINE
  5
266
100
AcDbEntity
  8
0
 62
7
100
AcDbSpline
 70
8
 71
3
 72
8
 73
4
 74
0
 40
0
 40
0
 40
0
 40
0
 40
1
 40
1
 40
1
 40
1
 10
24.028582
 20
-70.618413
 30
0.0
 10
23.523004
 20
-70.618413
 30
0.0
 10
23.067209
 20
-70.922966
 30
0.0
 10
22.873733
 20
-71.390059
 30
0.0
  0
SPLINE
  5
267
100
AcDbEntity
  8
0
 62
7
100
AcDbSpline
 70
8
 71
3
 72
8
 73
4
 74
0
 40
0
 40
0
 40
0
 40
0
 40
1
 40
1
 40
1
 40
1
 10
22.873733
 20
-71.390059
 30
0.0
 10
22.680256
 20
-71.857152
 30
0.0
 10
22.787201
 20
-72.394799
 30
0.0
 10
23.144699
 20
-72.752297
 30
0.0
  0
SPLINE
  5
268
100
AcDbEntity
  8
0
 62
7
100
AcDbSpline
 70
8
 71
3
 72
8
 73
4
 74
0
 40
0
 40
0
 40
0
 40
0
 40
1
 40
1
 40
1
 40
1
 10
23.144699
 20
-72.752297
 30
0.0
 10
23.502196
 20
-73.109794
 30
0.0
 10
24.039843
 20
-73.216739
 30
0.0
 10
24.506936
 20
-73.023263
 30
0.0
  0
SPLINE
  5
269
100
AcDbEntity
  8
0
 62
7
100
AcDbSpline
 70
8
 71
3
 72
8
 73
4
 74
0
 40
0
 40
0
 40
0
 40
0
 40
1
 40
1
 40
1
 40
1
 10
24.506936
 20
-73.023263
 30
0.0
 10
24.974029
 20
-72.829787
 30
0.0
 10
25.278582
 20
-72.373991
 30
0.0
 10
25.278582
 20
-71.868413
 30
0.0
  0
SPLINE
  5
26a
100
AcDbEntity
  8
0
 62
7
100
AcDbSpline
 70
8
 71
3
 72
8
 73
4
 74
0
 40
0
 40
0
 40
0
 40
0
 40
1
 40
1
 40
1
 40
1
 10
25.278582
 20
-71.868413
 30
0.0
 10
25.278582
 20
-71.536893
 30
0.0
 10
25.146886
 20
-71.218950
 30
0.0
 10
24.912465
 20
-70.984530
 30
0.0
  0
SPLINE
  5
26b
100
AcDbEntity
  8
0
 62
7
100
AcDbSpline
 70
8
 71
3
 72
8
 73
4
 74
0
 40
0
 40
0
 40
0
 40
0
 40
1
 40
1
 40
1
 40
1
 10
24.912465
 20
-70.984530
 30
0.0
 10
24.678045
 20
-70.750109
 30
0.0
 10
24.360103
 20
-70.618413
 30
0.0
 10
24.028582
 20
-70.618413
 30
0.0
  0
LWPOLYLINE
  5
26c
100
AcDbEntity
  8
0
 62
7
100
AcDbPolyline
 90
1
 70
1
 10
87.490151
 20
-52.760441
 30
0.0
  0
LWPOLYLINE
  5
26d
100
AcDbEntity
  8
0
 62
7
100
AcDbPolyline
 90
1
 70
1
 10
24.028582
 20
-70.618413
 30
0.0
  0
LWPOLYLINE
  5
26e
100
AcDbEntity
  8
0
 62
7
100
AcDbPolyline
 90
2
 70
0
 10
170.072467
 20
-123.909509
 30
0.0
 10
170.072467
 20
-137.909509
 30
0.0
  0
LWPOLYLINE
  5
26f
100
AcDbEntity
  8
0
 62
7
100
AcDbPolyline
 90
2
 70
0
 10
156.072467
 20
-137.909509
 30
0.0
 10
156.072467
 20
-123.909509
 30
0.0
  0
LWPOLYLINE
  5
270
100
AcDbEntity
  8
0
 62
7
100
AcDbPolyline
 90
2
 70
0
 10
156.072467
 20
-137.909509
 30
0.0
 10
170.072467
 20
-137.909509
 30
0.0
  0
LWPOLYLINE
  5
271
100
AcDbEntity
  8
0
 62
7
100
AcDbPolyline
 90
2
 70
0
 10
170.072467
 20
-123.909509
 30
0.0
 10
156.072467
 20
-123.909509
 30
0.0
  0
LWPOLYLINE
  5
272
100
AcDbEntity
  8
0
 62
7
100
AcDbPolyline
 90
2
 70
0
 10
274.338108
 20
-99.441849
 30
0.0
 10
270.197004
 20
-83.987036
 30
0.0
  0
LWPOLYLINE
  5
273
100
AcDbEntity
  8
0
 62
7
100
AcDbPolyline
 90
2
 70
0
 10
274.338108
 20
-99.441849
 30
0.0
 10
285.929218
 20
-96.336020
 30
0.0
  0
LWPOLYLINE
  5
274
100
AcDbEntity
  8
0
 62
7
100
AcDbPolyline
 90
2
 70
0
 10
281.788114
 20
-80.881207
 30
0.0
 10
270.197004
 20
-83.987036
 30
0.0
  0
SPLINE
  5
275
100
AcDbEntity
  8
0
 62
7
100
AcDbSpline
 70
8
 71
3
 72
8
 73
4
 74
0
 40
0
 40
0
 40
0
 40
0
 40
1
 40
1
 40
1
 40
1
 10
239.290915
 20
-53.965498
 30
0.0
 10
238.785337
 20
-53.965498
 30
0.0
 10
238.329542
 20
-54.270051
 30
0.0
 10
238.136066
 20
-54.737144
 30
0.0
  0
SPLINE
  5
276
100
AcDbEntity
  8
0
 62
7
100
AcDbSpline
 70
8
 71
3
 72
8
 73
4
 74
0
 40
0
 40
0
 40
0
 40
0
 40
1
 40
1
 40
1
 40
1
 10
238.136066
 20
-54.737144
 30
0.0
 10
237.942589
 20
-55.204237
 30
0.0
 10
238.049534
 20
-55.741884
 30
0.0
 10
238.407032
 20
-56.099382
 30
0.0
  0
SPLINE
  5
277
100
AcDbEntity
  8
0
 62
7
100
AcDbSpline
 70
8
 71
3
 72
8
 73
4
 74
0
 40
0
 40
0
 40
0
 40
0
 40
1
 40
1
 40
1
 40
1
 10
238.407032
 20
-56.099382
 30
0.0
 10
238.764529
 20
-56.456879
 30
0.0
 10
239.302176
 20
-56.563824
 30
0.0
 10
239.769269
 20
-56.370348
 30
0.0
  0
SPLINE
  5
278
100
AcDbEntity
  8
0
 62
7
100
AcDbSpline
 70
8
 71
3
 72
8
 73
4
 74
0
 40
0
 40
0
 40
0
 40
0
 40
1
 40
1
 40
1
 40
1
 10
239.769269
 20
-56.370348
 30
0.0
 10
240.236362
 20
-56.176872
 30
0.0
 10
240.540915
 20
-55.721076
 30
0.0
 10
240.540915
 20
-55.215498
 30
0.0
  0
SPLINE
  5
279
100
AcDbEntity
  8
0
 62
7
100
AcDbSpline
 70
8
 71
3
 72
8
 73
4
 74
0
 40
0
 40
0
 40
0
 40
0
 40
1
 40
1
 40
1
 40
1
 10
240.540915
 20
-55.215498
 30
0.0
 10
240.540915
 20
-54.883978
 30
0.0
 10
240.409219
 20
-54.566035
 30
0.0
 10
240.174798
 20
-54.331615
 30
0.0
  0
SPLINE
  5
27a
100
AcDbEntity
  8
0
 62
7
100
AcDbSpline
 70
8
 71
3
 72
8
 73
4
 74
0
 40
0
 40
0
 40
0
 40
0
 40
1
 40
1
 40
1
 40
1
 10
240.174798
 20
-54.331615
 30
0.0
 10
239.940378
 20
-54.097194
 30
0.0
 10
239.622436
 20
-53.965498
 30
0.0
 10
239.290915
 20
-53.965498
 30
0.0
  0
LWPOLYLINE
  5
27b
100
AcDbEntity
  8
0
 62
7
100
AcDbPolyline
 90
2
 70
0
 10
281.788114
 20
-80.881207
 30
0.0
 10
285.929218
 20
-96.336020
 30
0.0
  0
SPLINE
  5
27c
100
AcDbEntity
  8
0
 62
7
100
AcDbSpline
 70
8
 71
3
 72
8
 73
4
 74
0
 40
0
 40
0
 40
0
 40
0
 40
1
 40
1
 40
1
 40
1
 10
194.693179
 20
-34.719836
 30
0.0
 10
194.187601
 20
-34.719836
 30
0.0
 10
193.731806
 20
-35.024389
 30
0.0
 10
193.538330
 20
-35.491482
 30
0.0
  0
SPLINE
  5
27d
100
AcDbEntity
  8
0
 62
7
100
AcDbSpline
 70
8
 71
3
 72
8
 73
4
 74
0
 40
0
 40
0
 40
0
 40
0
 40
1
 40
1
 40
1
 40
1
 10
193.538330
 20
-35.491482
 30
0.0
 10
193.344853
 20
-35.958575
 30
0.0
 10
193.451798
 20
-36.496222
 30
0.0
 10
193.809296
 20
-36.853720
 30
0.0
  0
SPLINE
  5
27e
100
AcDbEntity
  8
0
 62
7
100
AcDbSpline
 70
8
 71
3
 72
8
 73
4
 74
0
 40
0
 40
0
 40
0
 40
0
 40
1
 40
1
 40
1
 40
1
 10
193.809296
 20
-36.853720
 30
0.0
 10
194.166793
 20
-37.211217
 30
0.0
 10
194.704440
 20
-37.318162
 30
0.0
 10
195.171533
 20
-37.124686
 30
0.0
  0
SPLINE
  5
27f
100
AcDbEntity
  8
0
 62
7
100
AcDbSpline
 70
8
 71
3
 72
8
 73
4
 74
0
 40
0
 40
0
 40
0
 40
0
 40
1
 40
1
 40
1
 40
1
 10
195.171533
 20
-37.124686
 30
0.0
 10
195.638626
 20
-36.931210
 30
0.0
 10
195.943179
 20
-36.475414
 30
0.0
 10
195.943179
 20
-35.969836
 30
0.0
  0
SPLINE
  5
280
100
AcDbEntity
  8
0
 62
7
100
AcDbSpline
 70
8
 71
3
 72
8
 73
4
 74
0
 40
0
 40
0
 40
0
 40
0
 40
1
 40
1
 40
1
 40
1
 10
195.943179
 20
-35.969836
 30
0.0
 10
195.943179
 20
-35.638316
 30
0.0
 10
195.811483
 20
-35.320373
 30
0.0
 10
195.577062
 20
-35.085953
 30
0.0
  0
SPLINE
  5
281
100
AcDbEntity
  8
0
 62
7
100
AcDbSpline
 70
8
 71
3
 72
8
 73
4
 74
0
 40
0
 40
0
 40
0
 40
0
 40
1
 40
1
 40
1
 40
1
 10
195.577062
 20
-35.085953
 30
0.0
 10
195.342642
 20
-34.851532
 30
0.0
 10
195.024700
 20
-34.719836
 30
0.0
 10
194.693179
 20
-34.719836
 30
0.0
  0
LWPOLYLINE
  5
282
100
AcDbEntity
  8
0
 62
7
100
AcDbPolyline
 90
1
 70
1
 10
239.290915
 20
-53.965498
 30
0.0
  0
SPLINE
  5
283
100
AcDbEntity
  8
0
 62
7
100
AcDbSpline
 70
8
 71
3
 72
8
 73
4
 74
0
 40
0
 40
0
 40
0
 40
0
 40
1
 40
1
 40
1
 40
1
 10
288.415093
 20
-17.305403
 30
0.0
 10
287.909515
 20
-17.305403
 30
0.0
 10
287.453720
 20
-17.609956
 30
0.0
 10
287.260244
 20
-18.077049
 30
0.0
  0
SPLINE
  5
284
100
AcDbEntity
  8
0
 62
7
100
AcDbSpline
 70
8
 71
3
 72
8
 73
4
 74
0
 40
0
 40
0
 40
0
 40
0
 40
1
 40
1
 40
1
 40
1
 10
287.260244
 20
-18.077049
 30
0.0
 10
287.066767
 20
-18.544142
 30
0.0
 10
287.173712
 20
-19.081789
 30
0.0
 10
287.531210
 20
-19.439287
 30
0.0
  0
SPLINE
  5
285
100
AcDbEntity
  8
0
 62
7
100
AcDbSpline
 70
8
 71
3
 72
8
 73
4
 74
0
 40
0
 40
0
 40
0
 40
0
 40
1
 40
1
 40
1
 40
1
 10
287.531210
 20
-19.439287
 30
0.0
 10
287.888707
 20
-19.796784
 30
0.0
 10
288.426354
 20
-19.903729
 30
0.0
 10
288.893447
 20
-19.710253
 30
0.0
  0
SPLINE
  5
286
100
AcDbEntity
  8
0
 62
7
100
AcDbSpline
 70
8
 71
3
 72
8
 73
4
 74
0
 40
0
 40
0
 40
0
 40
0
 40
1
 40
1
 40
1
 40
1
 10
288.893447
 20
-19.710253
 30
0.0
 10
289.360540
 20
-19.516777
 30
0.0
 10
289.665093
 20
-19.060981
 30
0.0
 10
289.665093
 20
-18.555403
 30
0.0
  0
SPLINE
  5
287
100
AcDbEntity
  8
0
 62
7
100
AcDbSpline
 70
8
 71
3
 72
8
 73
4
 74
0
 40
0
 40
0
 40
0
 40
0
 40
1
 40
1
 40
1
 40
1
 10
289.665093
 20
-18.555403
 30
0.0
 10
289.665093
 20
-18.223883
 30
0.0
 10
289.533397
 20
-17.905940
 30
0.0
 10
289.298976
 20
-17.671520
 30
0.0
  0
SPLINE
  5
288
100
AcDbEntity
  8
0
 62
7
100
AcDbSpline
 70
8
 71
3
 72
8
 73
4
 74
0
 40
0
 40
0
 40
0
 40
0
 40
1
 40
1
 40
1
 40
1
 10
289.298976
 20
-17.671520
 30
0.0
 10
289.064556
 20
-17.437099
 30
0.0
 10
288.746614
 20
-17.305403
 30
0.0
 10
288.415093
 20
-17.305403
 30
0.0
  0
LWPOLYLINE
  5
289
100
AcDbEntity
  8
0
 62
7
100
AcDbPolyline
 90
1
 70
1
 10
194.693179
 20
-34.719836
 30
0.0
  0
SPLINE
  5
28a
100
AcDbEntity
  8
0
 62
7
100
AcDbSpline
 70
8
 71
3
 72
8
 73
4
 74
0
 40
0
 40
0
 40
0
 40
0
 40
1
 40
1
 40
1
 40
1
 10
177.287964
 20
-38.539506
 30
0.0
 10
176.580155
 20
-38.539506
 30
0.0
 10
175.942042
 20
-38.965880
 30
0.0
 10
175.671175
 20
-39.619810
 30
0.0
  0
SPLINE
  5
28b
100
AcDbEntity
  8
0
 62
7
100
AcDbSpline
 70
8
 71
3
 72
8
 73
4
 74
0
 40
0
 40
0
 40
0
 40
0
 40
1
 40
1
 40
1
 40
1
 10
175.671175
 20
-39.619810
 30
0.0
 10
175.400308
 20
-40.273741
 30
0.0
 10
175.550031
 20
-41.026447
 30
0.0
 10
176.050527
 20
-41.526943
 30
0.0
  0
SPLINE
  5
28c
100
AcDbEntity
  8
0
 62
7
100
AcDbSpline
 70
8
 71
3
 72
8
 73
4
 74
0
 40
0
 40
0
 40
0
 40
0
 40
1
 40
1
 40
1
 40
1
 10
176.050527
 20
-41.526943
 30
0.0
 10
176.551024
 20
-42.027440
 30
0.0
 10
177.303730
 20
-42.177162
 30
0.0
 10
177.957660
 20
-41.906296
 30
0.0
  0
SPLINE
  5
28d
100
AcDbEntity
  8
0
 62
7
100
AcDbSpline
 70
8
 71
3
 72
8
 73
4
 74
0
 40
0
 40
0
 40
0
 40
0
 40
1
 40
1
 40
1
 40
1
 10
177.957660
 20
-41.906296
 30
0.0
 10
178.611590
 20
-41.635429
 30
0.0
 10
179.037964
 20
-40.997315
 30
0.0
 10
179.037964
 20
-40.289506
 30
0.0
  0
SPLINE
  5
28e
100
AcDbEntity
  8
0
 62
7
100
AcDbSpline
 70
8
 71
3
 72
8
 73
4
 74
0
 40
0
 40
0
 40
0
 40
0
 40
1
 40
1
 40
1
 40
1
 10
179.037964
 20
-40.289506
 30
0.0
 10
179.037964
 20
-39.825378
 30
0.0
 10
178.853590
 20
-39.380258
 30
0.0
 10
178.525401
 20
-39.052070
 30
0.0
  0
SPLINE
  5
28f
100
AcDbEntity
  8
0
 62
7
100
AcDbSpline
 70
8
 71
3
 72
8
 73
4
 74
0
 40
0
 40
0
 40
0
 40
0
 40
1
 40
1
 40
1
 40
1
 10
178.525401
 20
-39.052070
 30
0.0
 10
178.197212
 20
-38.723881
 30
0.0
 10
177.752093
 20
-38.539506
 30
0.0
 10
177.287964
 20
-38.539506
 30
0.0
  0
LWPOLYLINE
  5
290
100
AcDbEntity
  8
0
 62
7
100
AcDbPolyline
 90
1
 70
1
 10
288.415093
 20
-17.305403
 30
0.0
  0
LWPOLYLINE
  5
291
100
AcDbEntity
  8
0
 62
7
100
AcDbPolyline
 90
1
 70
1
 10
177.287964
 20
-38.539506
 30
0.0
  0
SPLINE
  5
292
100
AcDbEntity
  8
0
 62
7
100
AcDbSpline
 70
8
 71
3
 72
8
 73
4
 74
0
 40
0
 40
0
 40
0
 40
0
 40
1
 40
1
 40
1
 40
1
 10
163.087961
 20
-71.603389
 30
0.0
 10
157.021027
 20
-71.603389
 30
0.0
 10
151.551483
 20
-75.258022
 30
0.0
 10
149.229768
 20
-80.863138
 30
0.0
  0
SPLINE
  5
293
100
AcDbEntity
  8
0
 62
7
100
AcDbSpline
 70
8
 71
3
 72
8
 73
4
 74
0
 40
0
 40
0
 40
0
 40
0
 40
1
 40
1
 40
1
 40
1
 10
149.229768
 20
-80.863138
 30
0.0
 10
146.908053
 20
-86.468254
 30
0.0
 10
148.191389
 20
-92.920021
 30
0.0
 10
152.481359
 20
-97.209991
 30
0.0
  0
SPLINE
  5
294
100
AcDbEntity
  8
0
 62
7
100
AcDbSpline
 70
8
 71
3
 72
8
 73
4
 74
0
 40
0
 40
0
 40
0
 40
0
 40
1
 40
1
 40
1
 40
1
 10
152.481359
 20
-97.209991
 30
0.0
 10
156.771329
 20
-101.499961
 30
0.0
 10
163.223097
 20
-102.783297
 30
0.0
 10
168.828212
 20
-100.461582
 30
0.0
  0
SPLINE
  5
295
100
AcDbEntity
  8
0
 62
7
100
AcDbSpline
 70
8
 71
3
 72
8
 73
4
 74
0
 40
0
 40
0
 40
0
 40
0
 40
1
 40
1
 40
1
 40
1
 10
168.828212
 20
-100.461582
 30
0.0
 10
174.433328
 20
-98.139867
 30
0.0
 10
178.087961
 20
-92.670323
 30
0.0
 10
178.087961
 20
-86.603389
 30
0.0
  0
SPLINE
  5
296
100
AcDbEntity
  8
0
 62
7
100
AcDbSpline
 70
8
 71
3
 72
8
 73
4
 74
0
 40
0
 40
0
 40
0
 40
0
 40
1
 40
1
 40
1
 40
1
 10
178.087961
 20
-86.603389
 30
0.0
 10
178.087961
 20
-82.625142
 30
0.0
 10
176.507608
 20
-78.809833
 30
0.0
 10
173.694563
 20
-75.996788
 30
0.0
  0
SPLINE
  5
297
100
AcDbEntity
  8
0
 62
7
100
AcDbSpline
 70
8
 71
3
 72
8
 73
4
 74
0
 40
0
 40
0
 40
0
 40
0
 40
1
 40
1
 40
1
 40
1
 10
173.694563
 20
-75.996788
 30
0.0
 10
170.881517
 20
-73.183742
 30
0.0
 10
167.066208
 20
-71.603389
 30
0.0
 10
163.087961
 20
-71.603389
 30
0.0
  0
LWPOLYLINE
  5
298
100
AcDbEntity
  8
0
 62
7
100
AcDbPolyline
 90
4
 70
1
 10
102.261855
 20
-16.194419
 30
0.0
 10
113.273409
 20
-19.144956
 30
0.0
 10
115.706308
 20
-10.065254
 30
0.0
 10
104.694754
 20
-7.114716
 30
0.0
  0
SPLINE
  5
299
100
AcDbEntity
  8
0
 62
7
100
AcDbSpline
 70
8
 71
3
 72
8
 73
4
 74
0
 40
0
 40
0
 40
0
 40
0
 40
1
 40
1
 40
1
 40
1
 10
163.087961
 20
-63.603389
 30
0.0
 10
153.785329
 20
-63.603389
 30
0.0
 10
145.398695
 20
-69.207160
 30
0.0
 10
141.838732
 20
-77.801670
 30
0.0
  0
SPLINE
  5
29a
100
AcDbEntity
  8
0
 62
7
100
AcDbSpline
 70
8
 71
3
 72
8
 73
4
 74
0
 40
0
 40
0
 40
0
 40
0
 40
1
 40
1
 40
1
 40
1
 10
141.838732
 20
-77.801670
 30
0.0
 10
138.278769
 20
-86.396181
 30
0.0
 10
140.246551
 20
-96.288891
 30
0.0
 10
146.824505
 20
-102.866845
 30
0.0
  0
SPLINE
  5
29b
100
AcDbEntity
  8
0
 62
7
100
AcDbSpline
 70
8
 71
3
 72
8
 73
4
 74
0
 40
0
 40
0
 40
0
 40
0
 40
1
 40
1
 40
1
 40
1
 10
146.824505
 20
-102.866845
 30
0.0
 10
153.402459
 20
-109.444799
 30
0.0
 10
163.295169
 20
-111.412582
 30
0.0
 10
171.889680
 20
-107.852619
 30
0.0
  0
SPLINE
  5
29c
100
AcDbEntity
  8
0
 62
7
100
AcDbSpline
 70
8
 71
3
 72
8
 73
4
 74
0
 40
0
 40
0
 40
0
 40
0
 40
1
 40
1
 40
1
 40
1
 10
171.889680
 20
-107.852619
 30
0.0
 10
180.484191
 20
-104.292656
 30
0.0
 10
186.087961
 20
-95.906021
 30
0.0
 10
186.087961
 20
-86.603389
 30
0.0
  0
SPLINE
  5
29d
100
AcDbEntity
  8
0
 62
7
100
AcDbSpline
 70
8
 71
3
 72
8
 73
4
 74
0
 40
0
 40
0
 40
0
 40
0
 40
1
 40
1
 40
1
 40
1
 10
186.087961
 20
-86.603389
 30
0.0
 10
186.087961
 20
-73.900840
 30
0.0
 10
175.790510
 20
-63.603389
 30
0.0
 10
163.087961
 20
-63.603389
 30
0.0
  0
LWPOLYLINE
  5
29e
100
AcDbEntity
  8
0
 62
7
100
AcDbPolyline
 90
1
 70
1
 10
163.087961
 20
-71.603389
 30
0.0
  0
SPLINE
  5
29f
100
AcDbEntity
  8
0
 62
7
100
AcDbSpline
 70
8
 71
3
 72
8
 73
4
 74
0
 40
0
 40
0
 40
0
 40
0
 40
1
 40
1
 40
1
 40
1
 10
163.087961
 20
-69.103389
 30
0.0
 10
156.009872
 20
-69.103389
 30
0.0
 10
149.628737
 20
-73.367128
 30
0.0
 10
146.920069
 20
-79.906429
 30
0.0
  0
SPLINE
  5
2a0
100
AcDbEntity
  8
0
 62
7
100
AcDbSpline
 70
8
 71
3
 72
8
 73
4
 74
0
 40
0
 40
0
 40
0
 40
0
 40
1
 40
1
 40
1
 40
1
 10
146.920069
 20
-79.906429
 30
0.0
 10
144.211402
 20
-86.445731
 30
0.0
 10
145.708627
 20
-93.972793
 30
0.0
 10
150.713592
 20
-98.977758
 30
0.0
  0
SPLINE
  5
2a1
100
AcDbEntity
  8
0
 62
7
100
AcDbSpline
 70
8
 71
3
 72
8
 73
4
 74
0
 40
0
 40
0
 40
0
 40
0
 40
1
 40
1
 40
1
 40
1
 10
150.713592
 20
-98.977758
 30
0.0
 10
155.718557
 20
-103.982723
 30
0.0
 10
163.245619
 20
-105.479949
 30
0.0
 10
169.784921
 20
-102.771281
 30
0.0
  0
SPLINE
  5
2a2
100
AcDbEntity
  8
0
 62
7
100
AcDbSpline
 70
8
 71
3
 72
8
 73
4
 74
0
 40
0
 40
0
 40
0
 40
0
 40
1
 40
1
 40
1
 40
1
 10
169.784921
 20
-102.771281
 30
0.0
 10
176.324223
 20
-100.062614
 30
0.0
 10
180.587961
 20
-93.681479
 30
0.0
 10
180.587961
 20
-86.603389
 30
0.0
  0
SPLINE
  5
2a3
100
AcDbEntity
  8
0
 62
7
100
AcDbSpline
 70
8
 71
3
 72
8
 73
4
 74
0
 40
0
 40
0
 40
0
 40
0
 40
1
 40
1
 40
1
 40
1
 10
180.587961
 20
-86.603389
 30
0.0
 10
180.587961
 20
-81.962101
 30
0.0
 10
178.744216
 20
-77.510907
 30
0.0
 10
175.462330
 20
-74.229021
 30
0.0
  0
SPLINE
  5
2a4
100
AcDbEntity
  8
0
 62
7
100
AcDbSpline
 70
8
 71
3
 72
8
 73
4
 74
0
 40
0
 40
0
 40
0
 40
0
 40
1
 40
1
 40
1
 40
1
 10
175.462330
 20
-74.229021
 30
0.0
 10
172.180443
 20
-70.947134
 30
0.0
 10
167.729250
 20
-69.103389
 30
0.0
 10
163.087961
 20
-69.103389
 30
0.0
  0
LWPOLYLINE
  5
2a5
100
AcDbEntity
  8
0
 62
7
100
AcDbPolyline
 90
1
 70
1
 10
163.087961
 20
-63.603389
 30
0.0
  0
SPLINE
  5
2a6
100
AcDbEntity
  8
0
 62
7
100
AcDbSpline
 70
8
 71
3
 72
8
 73
4
 74
0
 40
0
 40
0
 40
0
 40
0
 40
1
 40
1
 40
1
 40
1
 10
163.087961
 20
-86.403389
 30
0.0
 10
163.007069
 20
-86.403389
 30
0.0
 10
162.934141
 20
-86.452118
 30
0.0
 10
162.903185
 20
-86.526853
 30
0.0
  0
SPLINE
  5
2a7
100
AcDbEntity
  8
0
 62
7
100
AcDbSpline
 70
8
 71
3
 72
8
 73
4
 74
0
 40
0
 40
0
 40
0
 40
0
 40
1
 40
1
 40
1
 40
1
 10
162.903185
 20
-86.526853
 30
0.0
 10
162.872229
 20
-86.601588
 30
0.0
 10
162.889340
 20
-86.687611
 30
0.0
 10
162.946540
 20
-86.744811
 30
0.0
  0
SPLINE
  5
2a8
100
AcDbEntity
  8
0
 62
7
100
AcDbSpline
 70
8
 71
3
 72
8
 73
4
 74
0
 40
0
 40
0
 40
0
 40
0
 40
1
 40
1
 40
1
 40
1
 10
162.946540
 20
-86.744811
 30
0.0
 10
163.003739
 20
-86.802010
 30
0.0
 10
163.089763
 20
-86.819122
 30
0.0
 10
163.164498
 20
-86.788165
 30
0.0
  0
SPLINE
  5
2a9
100
AcDbEntity
  8
0
 62
7
100
AcDbSpline
 70
8
 71
3
 72
8
 73
4
 74
0
 40
0
 40
0
 40
0
 40
0
 40
1
 40
1
 40
1
 40
1
 10
163.164498
 20
-86.788165
 30
0.0
 10
163.239233
 20
-86.757209
 30
0.0
 10
163.287961
 20
-86.684282
 30
0.0
 10
163.287961
 20
-86.603389
 30
0.0
  0
SPLINE
  5
2aa
100
AcDbEntity
  8
0
 62
7
100
AcDbSpline
 70
8
 71
3
 72
8
 73
4
 74
0
 40
0
 40
0
 40
0
 40
0
 40
1
 40
1
 40
1
 40
1
 10
163.287961
 20
-86.603389
 30
0.0
 10
163.287961
 20
-86.550346
 30
0.0
 10
163.266890
 20
-86.499475
 30
0.0
 10
163.229382
 20
-86.461968
 30
0.0
  0
SPLINE
  5
2ab
100
AcDbEntity
  8
0
 62
7
100
AcDbSpline
 70
8
 71
3
 72
8
 73
4
 74
0
 40
0
 40
0
 40
0
 40
0
 40
1
 40
1
 40
1
 40
1
 10
163.229382
 20
-86.461968
 30
0.0
 10
163.191875
 20
-86.424461
 30
0.0
 10
163.141004
 20
-86.403389
 30
0.0
 10
163.087961
 20
-86.403389
 30
0.0
  0
LWPOLYLINE
  5
2ac
100
AcDbEntity
  8
0
 62
7
100
AcDbPolyline
 90
1
 70
1
 10
163.087961
 20
-69.103389
 30
0.0
  0
SPLINE
  5
2ad
100
AcDbEntity
  8
0
 62
7
100
AcDbSpline
 70
8
 71
3
 72
8
 73
4
 74
0
 40
0
 40
0
 40
0
 40
0
 40
1
 40
1
 40
1
 40
1
 10
163.087961
 20
-85.128389
 30
0.0
 10
162.885730
 20
-85.128389
 30
0.0
 10
162.703412
 20
-85.250211
 30
0.0
 10
162.626021
 20
-85.437048
 30
0.0
  0
SPLINE
  5
2ae
100
AcDbEntity
  8
0
 62
7
100
AcDbSpline
 70
8
 71
3
 72
8
 73
4
 74
0
 40
0
 40
0
 40
0
 40
0
 40
1
 40
1
 40
1
 40
1
 10
162.626021
 20
-85.437048
 30
0.0
 10
162.548631
 20
-85.623885
 30
0.0
 10
162.591409
 20
-85.838944
 30
0.0
 10
162.734408
 20
-85.981943
 30
0.0
  0
SPLINE
  5
2af
100
AcDbEntity
  8
0
 62
7
100
AcDbSpline
 70
8
 71
3
 72
8
 73
4
 74
0
 40
0
 40
0
 40
0
 40
0
 40
1
 40
1
 40
1
 40
1
 10
162.734408
 20
-85.981943
 30
0.0
 10
162.877407
 20
-86.124942
 30
0.0
 10
163.092466
 20
-86.167720
 30
0.0
 10
163.279303
 20
-86.090329
 30
0.0
  0
SPLINE
  5
2b0
100
AcDbEntity
  8
0
 62
7
100
AcDbSpline
 70
8
 71
3
 72
8
 73
4
 74
0
 40
0
 40
0
 40
0
 40
0
 40
1
 40
1
 40
1
 40
1
 10
163.279303
 20
-86.090329
 30
0.0
 10
163.466140
 20
-86.012939
 30
0.0
 10
163.587961
 20
-85.830621
 30
0.0
 10
163.587961
 20
-85.628389
 30
0.0
  0
SPLINE
  5
2b1
100
AcDbEntity
  8
0
 62
7
100
AcDbSpline
 70
8
 71
3
 72
8
 73
4
 74
0
 40
0
 40
0
 40
0
 40
0
 40
1
 40
1
 40
1
 40
1
 10
163.587961
 20
-85.628389
 30
0.0
 10
163.587961
 20
-85.352247
 30
0.0
 10
163.364103
 20
-85.128389
 30
0.0
 10
163.087961
 20
-85.128389
 30
0.0
  0
LWPOLYLINE
  5
2b2
100
AcDbEntity
  8
0
 62
7
100
AcDbPolyline
 90
1
 70
1
 10
163.087961
 20
-86.403389
 30
0.0
  0
SPLINE
  5
2b3
100
AcDbEntity
  8
0
 62
7
100
AcDbSpline
 70
8
 71
3
 72
8
 73
4
 74
0
 40
0
 40
0
 40
0
 40
0
 40
1
 40
1
 40
1
 40
1
 10
82.895328
 20
-1.513490
 30
0.0
 10
80.892718
 20
-1.026635
 30
0.0
 10
78.866145
 20
-2.221119
 30
0.0
 10
78.322152
 20
-4.208968
 30
0.0
  0
LWPOLYLINE
  5
2b4
100
AcDbEntity
  8
0
 62
7
100
AcDbPolyline
 90
1
 70
1
 10
163.087961
 20
-85.128389
 30
0.0
  0
LWPOLYLINE
  5
2b5
100
AcDbEntity
  8
0
 62
7
100
AcDbPolyline
 90
2
 70
0
 10
24.032743
 20
-3.540839
 30
0.0
 10
56.190585
 20
-12.134912
 30
0.0
  0
SPLINE
  5
2b6
100
AcDbEntity
  8
0
 62
7
100
AcDbSpline
 70
8
 71
3
 72
8
 73
4
 74
0
 40
0
 40
0
 40
0
 40
0
 40
1
 40
1
 40
1
 40
1
 10
192.947653
 20
-23.766808
 30
0.0
 10
191.917357
 20
-24.037000
 30
0.0
 10
191.036596
 20
-24.705413
 30
0.0
 10
190.499128
 20
-25.625001
 30
0.0
  0
SPLINE
  5
2b7
100
AcDbEntity
  8
0
 62
7
100
AcDbSpline
 70
8
 71
3
 72
8
 73
4
 74
0
 40
0
 40
0
 40
0
 40
0
 40
1
 40
1
 40
1
 40
1
 10
190.499128
 20
-25.625001
 30
0.0
 10
189.961661
 20
-26.544589
 30
0.0
 10
189.811517
 20
-27.640023
 30
0.0
 10
190.081725
 20
-28.670314
 30
0.0
  0
LWPOLYLINE
  5
2b8
100
AcDbEntity
  8
0
 62
7
100
AcDbPolyline
 90
2
 70
0
 10
62.928794
 20
-0.107869
 30
0.0
 10
78.322174
 20
-4.208974
 30
0.0
  0
SPLINE
  5
2b9
100
AcDbEntity
  8
0
 62
7
100
AcDbSpline
 70
8
 71
3
 72
8
 73
4
 74
0
 40
0
 40
0
 40
0
 40
0
 40
1
 40
1
 40
1
 40
1
 10
288.850072
 20
-100.423373
 30
0.0
 10
289.886638
 20
-100.151168
 30
0.0
 10
290.762335
 20
-99.458259
 30
0.0
 10
291.265590
 20
-98.512057
 30
0.0
  0
SPLINE
  5
2ba
100
AcDbEntity
  8
0
 62
7
100
AcDbSpline
 70
8
 71
3
 72
8
 73
4
 74
0
 40
0
 40
0
 40
0
 40
0
 40
1
 40
1
 40
1
 40
1
 10
291.265590
 20
-98.512057
 30
0.0
 10
291.768845
 20
-97.565854
 30
0.0
 10
291.853884
 20
-96.452420
 30
0.0
 10
291.500162
 20
-95.440765
 30
0.0
  0
SPLINE
  5
2bb
100
AcDbEntity
  8
0
 62
7
100
AcDbSpline
 70
8
 71
3
 72
8
 73
4
 74
0
 40
0
 40
0
 40
0
 40
0
 40
1
 40
1
 40
1
 40
1
 10
34.856721
 20
-95.572247
 30
0.0
 10
34.575567
 20
-96.599604
 30
0.0
 10
34.714048
 20
-97.696572
 30
0.0
 10
35.241700
 20
-98.621826
 30
0.0
  0
SPLINE
  5
2bc
100
AcDbEntity
  8
0
 62
7
100
AcDbSpline
 70
8
 71
3
 72
8
 73
4
 74
0
 40
0
 40
0
 40
0
 40
0
 40
1
 40
1
 40
1
 40
1
 10
35.241700
 20
-98.621826
 30
0.0
 10
35.769352
 20
-99.547080
 30
0.0
 10
36.642951
 20
-100.224827
 30
0.0
 10
37.670312
 20
-100.505967
 30
0.0
  0
LWPOLYLINE
  5
2bd
100
AcDbEntity
  8
0
 62
7
100
AcDbPolyline
 90
2
 70
0
 10
82.895328
 20
-1.513489
 30
0.0
 10
99.149771
 20
-5.859441
 30
0.0
  0
LWPOLYLINE
  5
2be
100
AcDbEntity
  8
0
 62
7
100
AcDbPolyline
 90
2
 70
0
 10
19.099019
 20
-6.354436
 30
0.0
 10
0.204556
 20
-76.602991
 30
0.0
  0
LWPOLYLINE
  5
2bf
100
AcDbEntity
  8
0
 62
7
100
AcDbPolyline
 90
2
 70
0
 10
36.228395
 20
-90.437018
 30
0.0
 10
34.856721
 20
-95.572246
 30
0.0
  0
LWPOLYLINE
  5
2c0
100
AcDbEntity
  8
0
 62
7
100
AcDbPolyline
 90
2
 70
0
 10
236.091922
 20
-117.645768
 30
0.0
 10
220.739012
 20
-128.677849
 30
0.0
  0
LWPOLYLINE
  5
2c1
100
AcDbEntity
  8
0
 62
7
100
AcDbPolyline
 90
2
 70
0
 10
288.850072
 20
-100.423372
 30
0.0
 10
253.481718
 20
-109.495140
 30
0.0
  0
LWPOLYLINE
  5
2c2
100
AcDbEntity
  8
0
 62
7
100
AcDbPolyline
 90
2
 70
0
 10
220.739012
 20
-128.677849
 30
0.0
 10
208.302292
 20
-140.984619
 30
0.0
  0
SPLINE
  5
2c3
100
AcDbEntity
  8
0
 62
7
100
AcDbSpline
 70
8
 71
3
 72
8
 73
4
 74
0
 40
0
 40
0
 40
0
 40
0
 40
1
 40
1
 40
1
 40
1
 10
205.369753
 20
-142.437450
 30
0.0
 10
206.495133
 20
-142.339002
 30
0.0
 10
207.542147
 20
-141.820294
 30
0.0
 10
208.302292
 20
-140.984619
 30
0.0
  0
LWPOLYLINE
  5
2c4
100
AcDbEntity
  8
0
 62
7
100
AcDbPolyline
 90
2
 70
0
 10
253.481718
 20
-109.495140
 30
0.0
 10
236.091922
 20
-117.645768
 30
0.0
  0
LWPOLYLINE
  5
2c5
100
AcDbEntity
  8
0
 62
7
100
AcDbPolyline
 90
2
 70
0
 10
290.155281
 20
-90.439470
 30
0.0
 10
291.500162
 20
-95.440765
 30
0.0
  0
LWPOLYLINE
  5
2c6
100
AcDbEntity
  8
0
 62
7
100
AcDbPolyline
 90
2
 70
0
 10
323.247227
 20
-81.645189
 30
0.0
 10
290.155281
 20
-90.439470
 30
0.0
  0
LWPOLYLINE
  5
2c7
100
AcDbEntity
  8
0
 62
7
100
AcDbPolyline
 90
2
 70
0
 10
326.113156
 20
-76.741673
 30
0.0
 10
307.282489
 20
-6.515954
 30
0.0
  0
LWPOLYLINE
  5
2c8
100
AcDbEntity
  8
0
 62
7
100
AcDbPolyline
 90
2
 70
0
 10
302.379000
 20
-3.650019
 30
0.0
 10
269.532220
 20
-12.658234
 30
0.0
  0
LWPOLYLINE
  5
2c9
100
AcDbEntity
  8
0
 62
7
100
AcDbPolyline
 90
2
 70
0
 10
262.541626
 20
-0.923495
 30
0.0
 10
248.156542
 20
-4.913290
 30
0.0
  0
LWPOLYLINE
  5
2ca
100
AcDbEntity
  8
0
 62
7
100
AcDbPolyline
 90
2
 70
0
 10
243.253040
 20
-2.047347
 30
0.0
 10
227.616564
 20
-6.200375
 30
0.0
  0
LWPOLYLINE
  5
2cb
100
AcDbEntity
  8
0
 62
7
100
AcDbPolyline
 90
2
 70
0
 10
224.750627
 20
-11.103873
 30
0.0
 10
210.268152
 20
-15.048989
 30
0.0
  0
LWPOLYLINE
  5
2cc
100
AcDbEntity
  8
0
 62
7
100
AcDbPolyline
 90
2
 70
0
 10
207.402217
 20
-19.952501
 30
0.0
 10
192.947653
 20
-23.766807
 30
0.0
  0
LWPOLYLINE
  5
2cd
100
AcDbEntity
  8
0
 62
7
100
AcDbPolyline
 90
2
 70
0
 10
152.106068
 20
-32.809374
 30
0.0
 10
136.331116
 20
-28.722672
 30
0.0
  0
LWPOLYLINE
  5
2ce
100
AcDbEntity
  8
0
 62
7
100
AcDbPolyline
 90
2
 70
0
 10
133.517521
 20
-23.788959
 30
0.0
 10
119.260761
 20
-19.835080
 30
0.0
  0
LWPOLYLINE
  5
2cf
100
AcDbEntity
  8
0
 62
7
100
AcDbPolyline
 90
2
 70
0
 10
116.447159
 20
-14.901348
 30
0.0
 10
101.937373
 20
-10.925332
 30
0.0
  0
LWPOLYLINE
  5
2d0
100
AcDbEntity
  8
0
 62
7
100
AcDbPolyline
 90
2
 70
0
 10
72.730418
 20
-109.495143
 30
0.0
 10
90.120210
 20
-117.645770
 30
0.0
  0
LWPOLYLINE
  5
2d1
100
AcDbEntity
  8
0
 62
7
100
AcDbPolyline
 90
2
 70
0
 10
266.814615
 20
-2.516016
 30
0.0
 10
269.532220
 20
-12.658234
 30
0.0
  0
SPLINE
  5
2d2
100
AcDbEntity
  8
0
 62
7
100
AcDbSpline
 70
8
 71
3
 72
8
 73
4
 74
0
 40
0
 40
0
 40
0
 40
0
 40
1
 40
1
 40
1
 40
1
 10
136.331117
 20
-28.722673
 30
0.0
 10
136.916541
 20
-26.583313
 30
0.0
 10
135.656863
 20
-24.374431
 30
0.0
 10
133.517519
 20
-23.788949
 30
0.0
  0
LWPOLYLINE
  5
2d3
100
AcDbEntity
  8
0
 62
7
100
AcDbPolyline
 90
2
 70
0
 10
90.120210
 20
-117.645770
 30
0.0
 10
105.473123
 20
-128.677853
 30
0.0
  0
SPLINE
  5
2d4
100
AcDbEntity
  8
0
 62
7
100
AcDbSpline
 70
8
 71
3
 72
8
 73
4
 74
0
 40
0
 40
0
 40
0
 40
0
 40
1
 40
1
 40
1
 40
1
 10
248.156542
 20
-4.913291
 30
0.0
 10
247.886357
 20
-3.882992
 30
0.0
 10
247.217945
 20
-3.002226
 30
0.0
 10
246.298355
 20
-2.464760
 30
0.0
  0
SPLINE
  5
2d5
100
AcDbEntity
  8
0
 62
7
100
AcDbSpline
 70
8
 71
3
 72
8
 73
4
 74
0
 40
0
 40
0
 40
0
 40
0
 40
1
 40
1
 40
1
 40
1
 10
246.298355
 20
-2.464760
 30
0.0
 10
245.378765
 20
-1.927294
 30
0.0
 10
244.283328
 20
-1.777156
 30
0.0
 10
243.253039
 20
-2.047376
 30
0.0
  0
SPLINE
  5
2d6
100
AcDbEntity
  8
0
 62
7
100
AcDbSpline
 70
8
 71
3
 72
8
 73
4
 74
0
 40
0
 40
0
 40
0
 40
0
 40
1
 40
1
 40
1
 40
1
 10
101.937373
 20
-10.925332
 30
0.0
 10
102.256809
 20
-9.883713
 30
0.0
 10
102.140652
 20
-8.757118
 30
0.0
 10
101.615404
 20
-7.802589
 30
0.0
  0
SPLINE
  5
2d7
100
AcDbEntity
  8
0
 62
7
100
AcDbSpline
 70
8
 71
3
 72
8
 73
4
 74
0
 40
0
 40
0
 40
0
 40
0
 40
1
 40
1
 40
1
 40
1
 10
101.615404
 20
-7.802589
 30
0.0
 10
101.090156
 20
-6.848060
 30
0.0
 10
100.200626
 20
-6.147029
 30
0.0
 10
99.149767
 20
-5.859441
 30
0.0
  0
SPLINE
  5
2d8
100
AcDbEntity
  8
0
 62
7
100
AcDbSpline
 70
8
 71
3
 72
8
 73
4
 74
0
 40
0
 40
0
 40
0
 40
0
 40
1
 40
1
 40
1
 40
1
 10
227.616564
 20
-6.200376
 30
0.0
 10
226.586269
 20
-6.470569
 30
0.0
 10
225.705508
 20
-7.138982
 30
0.0
 10
225.168040
 20
-8.058570
 30
0.0
  0
SPLINE
  5
2d9
100
AcDbEntity
  8
0
 62
7
100
AcDbSpline
 70
8
 71
3
 72
8
 73
4
 74
0
 40
0
 40
0
 40
0
 40
0
 40
1
 40
1
 40
1
 40
1
 10
225.168040
 20
-8.058570
 30
0.0
 10
224.630573
 20
-8.978157
 30
0.0
 10
224.480426
 20
-10.073590
 30
0.0
 10
224.750632
 20
-11.103881
 30
0.0
  0
SPLINE
  5
2da
100
AcDbEntity
  8
0
 62
7
100
AcDbSpline
 70
8
 71
3
 72
8
 73
4
 74
0
 40
0
 40
0
 40
0
 40
0
 40
1
 40
1
 40
1
 40
1
 10
119.260761
 20
-19.835081
 30
0.0
 10
119.846192
 20
-17.695720
 30
0.0
 10
118.586515
 20
-15.486834
 30
0.0
 10
116.447169
 20
-14.901350
 30
0.0
  0
SPLINE
  5
2db
100
AcDbEntity
  8
0
 62
7
100
AcDbSpline
 70
8
 71
3
 72
8
 73
4
 74
0
 40
0
 40
0
 40
0
 40
0
 40
1
 40
1
 40
1
 40
1
 10
323.247227
 20
-81.645190
 30
0.0
 10
324.277528
 20
-81.374999
 30
0.0
 10
325.158294
 20
-80.706584
 30
0.0
 10
325.695762
 20
-79.786991
 30
0.0
  0
SPLINE
  5
2dc
100
AcDbEntity
  8
0
 62
7
100
AcDbSpline
 70
8
 71
3
 72
8
 73
4
 74
0
 40
0
 40
0
 40
0
 40
0
 40
1
 40
1
 40
1
 40
1
 10
325.695762
 20
-79.786991
 30
0.0
 10
326.233231
 20
-78.867399
 30
0.0
 10
326.383373
 20
-77.771960
 30
0.0
 10
326.113159
 20
-76.741665
 30
0.0
  0
LWPOLYLINE
  5
2dd
100
AcDbEntity
  8
0
 62
7
100
AcDbPolyline
 90
2
 70
0
 10
190.081718
 20
-28.670315
 30
0.0
 10
174.106065
 20
-32.809376
 30
0.0
  0
SPLINE
  5
2de
100
AcDbEntity
  8
0
 62
7
100
AcDbSpline
 70
8
 71
3
 72
8
 73
4
 74
0
 40
0
 40
0
 40
0
 40
0
 40
1
 40
1
 40
1
 40
1
 10
210.268152
 20
-15.048990
 30
0.0
 10
209.237856
 20
-15.319186
 30
0.0
 10
208.357094
 20
-15.987601
 30
0.0
 10
207.819626
 20
-16.907190
 30
0.0
  0
SPLINE
  5
2df
100
AcDbEntity
  8
0
 62
7
100
AcDbSpline
 70
8
 71
3
 72
8
 73
4
 74
0
 40
0
 40
0
 40
0
 40
0
 40
1
 40
1
 40
1
 40
1
 10
207.819626
 20
-16.907190
 30
0.0
 10
207.282158
 20
-17.826779
 30
0.0
 10
207.132011
 20
-18.922214
 30
0.0
 10
207.402217
 20
-19.952508
 30
0.0
  0
SPLINE
  5
2e0
100
AcDbEntity
  8
0
 62
7
100
AcDbSpline
 70
8
 71
3
 72
8
 73
4
 74
0
 40
0
 40
0
 40
0
 40
0
 40
1
 40
1
 40
1
 40
1
 10
117.909850
 20
-140.984620
 30
0.0
 10
118.669987
 20
-141.820304
 30
0.0
 10
119.717005
 20
-142.339017
 30
0.0
 10
120.842388
 20
-142.437456
 30
0.0
  0
LWPOLYLINE
  5
2e1
100
AcDbEntity
  8
0
 62
7
100
AcDbPolyline
 90
2
 70
0
 10
37.670312
 20
-100.505967
 30
0.0
 10
72.730418
 20
-109.495143
 30
0.0
  0
SPLINE
  5
2e2
100
AcDbEntity
  8
0
 62
7
100
AcDbSpline
 70
8
 71
3
 72
8
 73
4
 74
0
 40
0
 40
0
 40
0
 40
0
 40
1
 40
1
 40
1
 40
1
 10
0.204556
 20
-76.602991
 30
0.0
 10
-0.380895
 20
-78.742353
 30
0.0
 10
0.878786
 20
-80.951253
 30
0.0
 10
3.018142
 20
-81.536725
 30
0.0
  0
SPLINE
  5
2e3
100
AcDbEntity
  8
0
 62
7
100
AcDbSpline
 70
8
 71
3
 72
8
 73
4
 74
0
 40
0
 40
0
 40
0
 40
0
 40
1
 40
1
 40
1
 40
1
 10
24.032743
 20
-3.540839
 30
0.0
 10
21.893379
 20
-2.955387
 30
0.0
 10
19.684478
 20
-4.215081
 30
0.0
 10
19.099025
 20
-6.354445
 30
0.0
  0
SPLINE
  5
2e4
100
AcDbEntity
  8
0
 62
7
100
AcDbSpline
 70
8
 71
3
 72
8
 73
4
 74
0
 40
0
 40
0
 40
0
 40
0
 40
1
 40
1
 40
1
 40
1
 10
62.928794
 20
-0.107870
 30
0.0
 10
61.330290
 20
0.137890
 30
0.0
 10
59.741771
 20
-0.606790
 30
0.0
 10
58.908171
 20
-1.992692
 30
0.0
  0
LWPOLYLINE
  5
2e5
100
AcDbEntity
  8
0
 62
7
100
AcDbPolyline
 90
2
 70
0
 10
105.473123
 20
-128.677853
 30
0.0
 10
117.909850
 20
-140.984614
 30
0.0
  0
LWPOLYLINE
  5
2e6
100
AcDbEntity
  8
0
 62
7
100
AcDbPolyline
 90
2
 70
0
 10
3.018147
 20
-81.536717
 30
0.0
 10
36.228395
 20
-90.437018
 30
0.0
  0
LWPOLYLINE
  5
2e7
100
AcDbEntity
  8
0
 62
7
100
AcDbPolyline
 90
2
 70
0
 10
120.842388
 20
-142.437455
 30
0.0
 10
205.369753
 20
-142.437449
 30
0.0
  0
SPLINE
  5
2e8
100
AcDbEntity
  8
0
 62
7
100
AcDbSpline
 70
8
 71
3
 72
8
 73
4
 74
0
 40
0
 40
0
 40
0
 40
0
 40
1
 40
1
 40
1
 40
1
 10
266.814616
 20
-2.516016
 30
0.0
 10
265.869190
 20
-1.136492
 30
0.0
 10
264.159319
 20
-0.499234
 30
0.0
 10
262.541632
 20
-0.923501
 30
0.0
  0
SPLINE
  5
2e9
100
AcDbEntity
  8
0
 62
7
100
AcDbSpline
 70
8
 71
3
 72
8
 73
4
 74
0
 40
0
 40
0
 40
0
 40
0
 40
1
 40
1
 40
1
 40
1
 10
307.282489
 20
-6.515954
 30
0.0
 10
307.012306
 20
-5.485656
 30
0.0
 10
306.343898
 20
-4.604890
 30
0.0
 10
305.424311
 20
-4.067421
 30
0.0
  0
SPLINE
  5
2ea
100
AcDbEntity
  8
0
 62
7
100
AcDbSpline
 70
8
 71
3
 72
8
 73
4
 74
0
 40
0
 40
0
 40
0
 40
0
 40
1
 40
1
 40
1
 40
1
 10
305.424311
 20
-4.067421
 30
0.0
 10
304.504724
 20
-3.529951
 30
0.0
 10
303.409290
 20
-3.379807
 30
0.0
 10
302.379000
 20
-3.650020
 30
0.0
  0
LWPOLYLINE
  5
2eb
100
AcDbEntity
  8
0
 62
7
100
AcDbPolyline
 90
2
 70
0
 10
56.190585
 20
-12.134912
 30
0.0
 10
58.908171
 20
-1.992691
 30
0.0
  0
LWPOLYLINE
  5
2ec
100
AcDbEntity
  8
0
 62
7
100
AcDbPolyline
 90
2
 70
0
 10
152.106068
 20
-32.809374
 30
0.0
 10
174.106065
 20
-32.809376
 30
0.0
  0
LWPOLYLINE
  5
2ed
100
AcDbEntity
  8
0
 62
7
100
AcDbPolyline
 90
3
 70
0
 10
158.837961
 20
-94.978389
 30
0.0
 10
167.337961
 20
-94.978389
 30
0.0
 10
167.337961
 20
-78.228389
 30
0.0
  0
LWPOLYLINE
  5
2ee
100
AcDbEntity
  8
0
 62
7
100
AcDbPolyline
 90
3
 70
0
 10
158.837961
 20
-94.978389
 30
0.0
 10
158.837961
 20
-78.228389
 30
0.0
 10
167.337961
 20
-78.228389
 30
0.0
  0
ENDSEC
  0
SECTION
  2
OBJECTS
  0
DICTIONARY
  5
C
330
0
100
AcDbDictionary
  3
ACAD_GROUP
350
D
  3
ACAD_MLINESTYLE
350
17
  0
DICTIONARY
  5
D
330
C
100
AcDbDictionary
  0
DICTIONARY
  5
1A
330
C
100
AcDbDictionary
  0
DICTIONARY
  5
17
330
C
100
AcDbDictionary
  3
STANDARD
350
18
  0
DICTIONARY
  5
19
330
C
100
AcDbDictionary
  0
ENDSEC
  0
EOF
