0
SECTION
2
HEADER
9
$INSUNITS
70
4
9
$ACADVER
1
AC1014
9
$HANDSEED
5
FFFF
0
ENDSEC
0
SECTION
2
TABLES
0
TABLE
2
VPORT
5
8
100
AcDbSymbolTable
0
ENDTAB
0
TABLE
2
LTYPE
5
5
100
AcDbSymbolTable
0
LTYPE
5
14
100
AcDbSymbolTableRecord
100
AcDbLinetypeTableRecord
2
BYBLOCK
70
0
0
LTYPE
5
15
100
AcDbSymbolTableRecord
100
AcDbLinetypeTableRecord
2
BYLAYER
70
0
0
ENDTAB
0
TABLE
2
LAYER
5
2
100
AcDbSymbolTable
70
2
0
LAYER
5
50
100
AcDbSymbolTableRecord
100
AcDbLayerTableRecord
2
0
70
0
6
CONTINUOUS
0
ENDTAB
0
TABLE
2
STYLE
5
3
100
AcDbSymbolTable
70
1
0
STYLE
5
11
100
AcDbSymbolTableRecord
100
AcDbTextStyleTableRecord
2
STANDARD
70
0
0
ENDTAB
0
TABLE
2
VIEW
5
6
100
AcDbSymbolTable
70
0
0
ENDTAB
0
TABLE
2
UCS
5
7
100
AcDbSymbolTable
70
0
0
ENDTAB
0
TABLE
2
APPID
5
9
100
AcDbSymbolTable
70
2
0
APPID
5
12
100
AcDbSymbolTableRecord
100
AcDbRegAppTableRecord
2
ACAD
70
0
0
ENDTAB
0
TABLE
2
DIMSTYLE
5
A
100
AcDbSymbolTable
70
1
0
ENDTAB
0
TABLE
2
BLOCK_RECORD
5
1
100
AcDbSymbolTable
70
1
0
BLOCK_RECORD
5
1F
100
AcDbSymbolTableRecord
100
AcDbBlockTableRecord
2
*MODEL_SPACE
0
BLOCK_RECORD
5
1B
100
AcDbSymbolTableRecord
100
AcDbBlockTableRecord
2
*PAPER_SPACE
0
ENDTAB
0
ENDSEC
0
SECTION
2
BLOCKS
0
BLOCK
5
20
100
AcDbEntity
100
AcDbBlockBegin
2
*MODEL_SPACE
0
ENDBLK
5
21
100
AcDbEntity
100
AcDbBlockEnd
0
BLOCK
5
1C
100
AcDbEntity
100
AcDbBlockBegin
2
*PAPER_SPACE
0
ENDBLK
5
1D
100
AcDbEntity
100
AcDbBlockEnd
0
ENDSEC
0
SECTION
2
ENTITIES
0
LWPOLYLINE
5
100
100
AcDbEntity
8
0
100
AcDbPolyline
90
4
70
1
43
0.0
10
301.94062000000002
20
116.61825999999999
10
304.37169000000006
20
102.83095
10
290.58438000000001
20
100.39988000000001
10
288.15331000000003
20
114.18718999999999
0
LWPOLYLINE
5
101
100
AcDbEntity
8
0
100
AcDbPolyline
90
4
70
1
43
0.0
10
190.71442999999999
20
90.913520000000005
10
176.92712
20
88.482440000000011
10
179.35820000000001
20
74.695140000000009
10
193.14551
20
77.12621
0
LWPOLYLINE
5
102
100
AcDbEntity
8
0
100
AcDbPolyline
90
4
70
1
43
0.0
10
176.05887999999999
20
93.406480000000002
10
173.62780999999998
20
107.19379000000001
10
187.41511
20
109.62487000000002
10
189.84618999999998
20
95.837560000000011
0
LWPOLYLINE
5
103
100
AcDbEntity
8
0
100
AcDbPolyline
90
4
70
1
43
0.0
10
297.18301000000002
20
62.977179999999997
10
310.97032000000002
20
65.408260000000013
10
308.53925000000004
20
79.195570000000004
10
294.75194000000005
20
76.764489999999995
0
LWPOLYLINE
5
104
100
AcDbEntity
8
0
100
AcDbPolyline
90
4
70
1
43
0.0
10
305.23993000000007
20
97.906910000000011
10
307.67101000000002
20
84.119600000000005
10
293.88370000000003
20
81.68853
10
291.45262000000002
20
95.475840000000005
0
LWPOLYLINE
5
105
100
AcDbEntity
8
0
100
AcDbPolyline
90
4
70
1
43
0.0
10
287.28507999999999
20
119.11122
10
301.07239000000004
20
121.54230000000001
10
298.64130999999998
20
135.32960999999997
10
284.85399999999998
20
132.89852999999999
0
LWPOLYLINE
5
106
100
AcDbEntity
8
0
100
AcDbPolyline
90
4
70
1
43
0.0
10
182.65751
20
55.983790000000013
10
196.44481999999999
20
58.414860000000004
10
194.01374000000004
20
72.202169999999995
10
180.22643000000002
20
69.771100000000004
0
LWPOLYLINE
5
107
100
AcDbEntity
8
0
100
AcDbPolyline
90
4
70
1
43
0.0
10
95.886570000000006
20
24.957999999999998
10
102.88657000000001
20
37.082360000000001
10
115.01093
20
30.082360000000001
10
108.01093
20
17.958000000000002
0
LWPOLYLINE
5
108
100
AcDbEntity
8
0
100
AcDbPolyline
90
4
70
1
43
0.0
10
132.54017000000002
20
16.319830000000003
10
123.54115000000002
20
5.5952099999999998
10
112.81653
20
14.59423
10
121.81555
20
25.318849999999998
0
LWPOLYLINE
5
109
100
AcDbEntity
8
0
100
AcDbPolyline
90
4
70
1
43
0.0
10
136.50818000000001
20
40.319040000000001
10
128.47811000000002
20
28.850919999999995
10
117.00998
20
36.880990000000004
10
125.04005000000004
20
48.349109999999996
0
LWPOLYLINE
5
110
100
AcDbEntity
8
0
100
AcDbPolyline
90
4
70
1
43
0.0
10
161.45505
20
13.23352
10
161.45505
20
30.433520000000005
10
175.65504999999999
20
30.433520000000005
10
175.65504999999999
20
13.23352
0
LWPOLYLINE
5
111
100
AcDbEntity
8
0
100
AcDbPolyline
90
4
70
1
43
0.0
10
140.86835000000002
20
13.307029999999999
10
140.86835000000002
20
30.507030000000004
10
155.06835000000001
20
30.507030000000004
10
155.06835000000001
20
13.307029999999999
0
LWPOLYLINE
5
112
100
AcDbEntity
8
0
100
AcDbPolyline
90
4
70
1
43
0.0
10
124.45722000000002
20
114.42814000000001
10
122.02614
20
100.64083000000002
10
108.23883000000001
20
103.07191
10
110.66991
20
116.85921000000002
0
SPLINE
5
113
100
AcDbEntity
8
0
100
AcDbSpline
70
0
71
3
72
8
73
4
74
0
42
0.000000001
43
0.0000000001
44
0.0000000001
40
0
40
0
40
0
40
0
40
1
40
1
40
1
40
1
10
238.76380999999998
20
39.333870000000005
30
0
10
239.12130999999999
20
38.976370000000003
30
0
10
239.65896000000001
20
38.869430000000008
30
0
10
240.12604999999996
20
39.062900000000006
30
0
0
SPLINE
5
114
100
AcDbEntity
8
0
100
AcDbSpline
70
0
71
3
72
8
73
4
74
0
42
0.000000001
43
0.0000000001
44
0.0000000001
40
0
40
0
40
0
40
0
40
1
40
1
40
1
40
1
10
238.49285000000006
20
40.696110000000004
30
0
10
238.29937000000001
20
40.229010000000002
30
0
10
238.40631999999999
20
39.691370000000006
30
0
10
238.76380999999998
20
39.333870000000005
30
0
0
SPLINE
5
115
100
AcDbEntity
8
0
100
AcDbSpline
70
0
71
3
72
8
73
4
74
0
42
0.000000001
43
0.0000000001
44
0.0000000001
40
0
40
0
40
0
40
0
40
1
40
1
40
1
40
1
10
240.53158000000002
20
41.10164000000001
30
0
10
240.29716000000005
20
41.336059999999996
30
0
10
239.97922
20
41.467749999999995
30
0
10
239.64770000000004
20
41.467749999999995
30
0
0
LWPOLYLINE
5
116
100
AcDbEntity
8
0
100
AcDbPolyline
90
4
70
1
43
0.0
10
5.1314399999999996
20
65.404060000000015
10
18.918750000000003
20
62.97299000000001
10
21.349830000000001
20
76.760289999999998
10
7.5625199999999992
20
79.191369999999992
0
LWPOLYLINE
5
117
100
AcDbEntity
8
0
100
AcDbPolyline
90
4
70
1
43
0.0
10
260.87132000000003
20
130.70058
10
247.08401000000003
20
128.26951
10
249.51508000000004
20
114.48219999999999
10
263.30239000000006
20
116.91327000000001
0
SPLINE
5
118
100
AcDbEntity
8
0
100
AcDbSpline
70
0
71
3
72
8
73
4
74
0
42
0.000000001
43
0.0000000001
44
0.0000000001
40
0
40
0
40
0
40
0
40
1
40
1
40
1
40
1
10
158.0977
20
9.82775
30
0
10
157.59211999999999
20
9.82775
30
0
10
157.13632000000001
20
9.523200000000001
30
0
10
156.94285000000002
20
9.0561100000000003
30
0
0
SPLINE
5
119
100
AcDbEntity
8
0
100
AcDbSpline
70
0
71
3
72
8
73
4
74
0
42
0.000000001
43
0.0000000001
44
0.0000000001
40
0
40
0
40
0
40
0
40
1
40
1
40
1
40
1
10
23.447700000000001
20
73.50775999999999
30
0
10
22.942119999999999
20
73.50775999999999
30
0
10
22.486320000000006
20
73.20320000000001
30
0
10
22.292850000000001
20
72.736109999999996
30
0
0
SPLINE
5
120
100
AcDbEntity
8
0
100
AcDbSpline
70
0
71
3
72
8
73
4
74
0
42
0.000000001
43
0.0000000001
44
0.0000000001
40
0
40
0
40
0
40
0
40
1
40
1
40
1
40
1
10
22.563810000000004
20
71.373869999999997
30
0
10
22.921309999999998
20
71.016380000000012
30
0
10
23.458959999999998
20
70.909429999999986
30
0
10
23.92605
20
71.102910000000008
30
0
0
SPLINE
5
121
100
AcDbEntity
8
0
100
AcDbSpline
70
0
71
3
72
8
73
4
74
0
42
0.000000001
43
0.0000000001
44
0.0000000001
40
0
40
0
40
0
40
0
40
1
40
1
40
1
40
1
10
22.292850000000001
20
72.736109999999996
30
0
10
22.09937
20
72.269020000000012
30
0
10
22.206320000000002
20
71.731369999999998
30
0
10
22.563810000000004
20
71.373869999999997
30
0
0
LWPOLYLINE
5
122
100
AcDbEntity
8
0
100
AcDbPolyline
90
4
70
1
43
0.0
10
135.87535000000003
20
69.766899999999993
10
133.44428000000002
20
55.979589999999995
10
119.65697000000003
20
58.410660000000007
10
122.08804000000001
20
72.197969999999998
0
LWPOLYLINE
5
123
100
AcDbEntity
8
0
100
AcDbPolyline
90
4
70
1
43
0.0
10
142.47395999999998
20
107.18958000000001
10
140.04289000000003
20
93.402270000000001
10
126.25558000000001
20
95.833349999999996
10
128.68664999999999
20
109.62066000000002
0
LWPOLYLINE
5
124
100
AcDbEntity
8
0
100
AcDbPolyline
90
4
70
1
43
0.0
10
139.17464999999999
20
88.478240000000028
10
136.74358000000001
20
74.690940000000012
10
122.95626999999999
20
77.122009999999989
10
125.38735000000001
20
90.909320000000008
0
LWPOLYLINE
5
125
100
AcDbEntity
8
0
100
AcDbPolyline
90
4
70
1
43
0.0
10
223.44863000000001
20
124.10196000000002
10
225.87970000000007
20
110.31465
10
212.0924
20
107.88357000000002
10
209.66132000000002
20
121.67088000000001
0
LWPOLYLINE
5
126
100
AcDbEntity
8
0
100
AcDbPolyline
90
4
70
1
43
0.0
10
11.730080000000001
20
102.82675999999998
10
14.161159999999999
20
116.61407
10
27.948470000000004
20
114.18299000000002
10
25.517389999999999
20
100.39567999999997
0
LWPOLYLINE
5
127
100
AcDbEntity
8
0
100
AcDbPolyline
90
4
70
1
43
0.0
10
230.10914000000002
20
115.12211000000001
10
227.67806000000002
20
128.90942000000001
10
241.46537000000001
20
131.34050000000002
10
243.89645000000004
20
117.55319
0
LWPOLYLINE
5
128
100
AcDbEntity
8
0
100
AcDbPolyline
90
4
70
1
43
0.0
10
15.029400000000003
20
121.5381
10
28.81671
20
119.10702000000001
10
31.247779999999999
20
132.89433
10
17.460470000000004
20
135.32541000000001
0
LWPOLYLINE
5
129
100
AcDbEntity
8
0
100
AcDbPolyline
90
4
70
1
43
0.0
10
24.649160000000006
20
95.471640000000022
10
10.861850000000004
20
97.902710000000027
10
8.4307700000000008
20
84.115399999999994
10
22.218080000000008
20
81.684330000000017
0
SPLINE
5
130
100
AcDbEntity
8
0
100
AcDbSpline
70
0
71
3
72
8
73
4
74
0
42
0.000000001
43
0.0000000001
44
0.0000000001
40
0
40
0
40
0
40
0
40
1
40
1
40
1
40
1
10
158.57605000000001
20
7.4229000000000003
30
0
10
159.04315
20
7.6163800000000004
30
0
10
159.3477
20
8.0721800000000012
30
0
10
159.3477
20
8.57775
30
0
0
SPLINE
5
131
100
AcDbEntity
8
0
100
AcDbSpline
70
0
71
3
72
8
73
4
74
0
42
0.000000001
43
0.0000000001
44
0.0000000001
40
0
40
0
40
0
40
0
40
1
40
1
40
1
40
1
10
157.21381000000002
20
7.6938700000000013
30
0
10
157.57130999999998
20
7.3363700000000005
30
0
10
158.10896000000002
20
7.2294300000000007
30
0
10
158.57605000000001
20
7.4229000000000003
30
0
0
SPLINE
5
132
100
AcDbEntity
8
0
100
AcDbSpline
70
0
71
3
72
8
73
4
74
0
42
0.000000001
43
0.0000000001
44
0.0000000001
40
0
40
0
40
0
40
0
40
1
40
1
40
1
40
1
10
156.94285000000002
20
9.0561100000000003
30
0
10
156.74937
20
8.5890100000000018
30
0
10
156.85632000000001
20
8.0513700000000004
30
0
10
157.21381000000002
20
7.6938700000000013
30
0
0
SPLINE
5
133
100
AcDbEntity
8
0
100
AcDbSpline
70
0
71
3
72
8
73
4
74
0
42
0.000000001
43
0.0000000001
44
0.0000000001
40
0
40
0
40
0
40
0
40
1
40
1
40
1
40
1
10
159.3477
20
8.57775
30
0
10
159.3477
20
8.9092700000000011
30
0
10
159.21600000000001
20
9.2272200000000009
30
0
10
158.98158000000001
20
9.4616399999999992
30
0
0
SPLINE
5
134
100
AcDbEntity
8
0
100
AcDbSpline
70
0
71
3
72
8
73
4
74
0
42
0.000000001
43
0.0000000001
44
0.0000000001
40
0
40
0
40
0
40
0
40
1
40
1
40
1
40
1
10
84.171580000000006
20
86.121639999999999
30
0
10
83.937159999999992
20
86.356059999999985
30
0
10
83.619219999999999
20
86.487750000000005
30
0
10
83.287700000000001
20
86.487750000000005
30
0
0
SPLINE
5
135
100
AcDbEntity
8
0
100
AcDbSpline
70
0
71
3
72
8
73
4
74
0
42
0.000000001
43
0.0000000001
44
0.0000000001
40
0
40
0
40
0
40
0
40
1
40
1
40
1
40
1
10
23.92605
20
71.102910000000008
30
0
10
24.393140000000002
20
71.296380000000013
30
0
10
24.697700000000001
20
71.752179999999996
30
0
10
24.697700000000001
20
72.257760000000005
30
0
0
SPLINE
5
136
100
AcDbEntity
8
0
100
AcDbSpline
70
0
71
3
72
8
73
4
74
0
42
0.000000001
43
0.0000000001
44
0.0000000001
40
0
40
0
40
0
40
0
40
1
40
1
40
1
40
1
10
239.64770000000004
20
41.467749999999995
30
0
10
239.14211999999998
20
41.467749999999995
30
0
10
238.68632000000002
20
41.163200000000003
30
0
10
238.49285000000006
20
40.696110000000004
30
0
0
SPLINE
5
137
100
AcDbEntity
8
0
100
AcDbSpline
70
0
71
3
72
8
73
4
74
0
42
0.000000001
43
0.0000000001
44
0.0000000001
40
0
40
0
40
0
40
0
40
1
40
1
40
1
40
1
10
158.98158000000001
20
9.4616399999999992
30
0
10
158.74716000000004
20
9.696060000000001
30
0
10
158.42922000000002
20
9.82775
30
0
10
158.0977
20
9.82775
30
0
0
SPLINE
5
138
100
AcDbEntity
8
0
100
AcDbSpline
70
0
71
3
72
8
73
4
74
0
42
0.000000001
43
0.0000000001
44
0.0000000001
40
0
40
0
40
0
40
0
40
1
40
1
40
1
40
1
10
24.697700000000001
20
72.257760000000005
30
0
10
24.697700000000001
20
72.948110000000014
30
0
10
24.13805
20
73.50775999999999
30
0
10
23.447700000000001
20
73.50775999999999
30
0
0
SPLINE
5
139
100
AcDbEntity
8
0
100
AcDbSpline
70
0
71
3
72
8
73
4
74
0
42
0.000000001
43
0.0000000001
44
0.0000000001
40
0
40
0
40
0
40
0
40
1
40
1
40
1
40
1
10
240.12604999999996
20
39.062900000000006
30
0
10
240.59314000000001
20
39.25638
30
0
10
240.89770000000001
20
39.71217
30
0
10
240.89770000000001
20
40.217749999999995
30
0
0
SPLINE
5
140
100
AcDbEntity
8
0
100
AcDbSpline
70
0
71
3
72
8
73
4
74
0
42
0.000000001
43
0.0000000001
44
0.0000000001
40
0
40
0
40
0
40
0
40
1
40
1
40
1
40
1
10
126.45605
20
106.89291
30
0
10
126.92315000000001
20
107.08638000000001
30
0
10
127.2277
20
107.54218
30
0
10
127.2277
20
108.04775999999998
30
0
0
SPLINE
5
141
100
AcDbEntity
8
0
100
AcDbSpline
70
0
71
3
72
8
73
4
74
0
42
0.000000001
43
0.0000000001
44
0.0000000001
40
0
40
0
40
0
40
0
40
1
40
1
40
1
40
1
10
117.3677
20
46.937750000000008
30
0
10
116.86212
20
46.937750000000008
30
0
10
116.40631999999999
20
46.633199999999995
30
0
10
116.21285
20
46.166109999999996
30
0
0
SPLINE
5
142
100
AcDbEntity
8
0
100
AcDbSpline
70
0
71
3
72
8
73
4
74
0
42
0.000000001
43
0.0000000001
44
0.0000000001
40
0
40
0
40
0
40
0
40
1
40
1
40
1
40
1
10
33.997699999999995
20
126.44776000000002
30
0
10
33.997699999999995
20
126.77928000000001
30
0
10
33.866
20
127.09722000000001
30
0
10
33.63158
20
127.33164000000002
30
0
0
SPLINE
5
143
100
AcDbEntity
8
0
100
AcDbSpline
70
0
71
3
72
8
73
4
74
0
42
0.000000001
43
0.0000000001
44
0.0000000001
40
0
40
0
40
0
40
0
40
1
40
1
40
1
40
1
10
118.6177
20
45.687749999999994
30
0
10
118.6177
20
46.019269999999999
30
0
10
118.48600000000002
20
46.337220000000002
30
0
10
118.25158
20
46.571640000000002
30
0
0
SPLINE
5
144
100
AcDbEntity
8
0
100
AcDbSpline
70
0
71
3
72
8
73
4
74
0
42
0.000000001
43
0.0000000001
44
0.0000000001
40
0
40
0
40
0
40
0
40
1
40
1
40
1
40
1
10
116.48381000000001
20
44.803870000000003
30
0
10
116.84131000000001
20
44.446370000000002
30
0
10
117.37896000000001
20
44.33943
30
0
10
117.84605000000001
20
44.532899999999998
30
0
0
SPLINE
5
145
100
AcDbEntity
8
0
100
AcDbSpline
70
0
71
3
72
8
73
4
74
0
42
0.000000001
43
0.0000000001
44
0.0000000001
40
0
40
0
40
0
40
0
40
1
40
1
40
1
40
1
10
117.84605000000001
20
44.532899999999998
30
0
10
118.31314000000003
20
44.726379999999999
30
0
10
118.6177
20
45.18218000000001
30
0
10
118.6177
20
45.687749999999994
30
0
0
SPLINE
5
146
100
AcDbEntity
8
0
100
AcDbSpline
70
0
71
3
72
8
73
4
74
0
42
0.000000001
43
0.0000000001
44
0.0000000001
40
0
40
0
40
0
40
0
40
1
40
1
40
1
40
1
10
191.31157999999999
20
107.93163999999999
30
0
10
191.07715999999999
20
108.16606
30
0
10
190.75921999999997
20
108.29775999999998
30
0
10
190.42770000000002
20
108.29775999999998
30
0
0
SPLINE
5
147
100
AcDbEntity
8
0
100
AcDbSpline
70
0
71
3
72
8
73
4
74
0
42
0.000000001
43
0.0000000001
44
0.0000000001
40
0
40
0
40
0
40
0
40
1
40
1
40
1
40
1
10
127.2277
20
108.04775999999998
30
0
10
127.2277
20
108.37928000000002
30
0
10
127.09600000000002
20
108.69721999999999
30
0
10
126.86158
20
108.93164000000002
30
0
0
LINE
5
148
100
AcDbEntity
8
0
100
AcDbLine
10
126.50620000000002
20
119.35628000000001
30
0
11
111.95909000000002
21
122.05256000000003
31
0
0
LINE
5
149
100
AcDbEntity
8
0
100
AcDbLine
10
108.72619999999999
20
126.72229000000002
30
0
11
93.925090000000012
21
129.41857000000002
31
0
0
LINE
5
150
100
AcDbEntity
8
0
100
AcDbLine
10
208.29420999999999
20
12.42229
30
0
11
194.83221000000003
21
1.2462899999999988
31
0
0
LINE
5
151
100
AcDbEntity
8
0
100
AcDbLine
10
241.75914000000006
20
136.60869
30
0
11
225.82020000000003
21
133.83429000000004
31
0
0
LINE
5
152
100
AcDbEntity
8
0
100
AcDbLine
10
124.22020000000001
20
0.05457
30
0
11
191.78420000000003
21
0.05457
31
0
0
LINE
5
153
100
AcDbEntity
8
0
100
AcDbLine
10
73.420199999999994
20
28.678290000000001
30
0
11
91.4542
21
22.074290000000005
31
0
0
LINE
5
154
100
AcDbEntity
8
0
100
AcDbLine
10
261.07227999999998
20
136.04716000000002
30
0
11
246.39420000000001
21
133.32629000000003
31
0
0
LINE
5
155
100
AcDbEntity
8
0
100
AcDbLine
10
37.098199999999999
20
54.840290000000003
30
0
11
34.162889999999997
21
39.302710000000005
31
0
0
SPLINE
5
156
100
AcDbEntity
8
0
100
AcDbSpline
70
0
71
3
72
8
73
4
74
0
42
0.000000001
43
0.0000000001
44
0.0000000001
40
0
40
0
40
0
40
0
40
1
40
1
40
1
40
1
10
278.60862000000003
20
34.632960000000004
30
0
10
280.79496000000006
20
35.006519999999995
30
0
10
282.26452
20
37.081699999999998
30
0
10
281.89102000000003
20
39.268050000000002
30
0
0
SPLINE
5
157
100
AcDbEntity
8
0
100
AcDbSpline
70
0
71
3
72
8
73
4
74
0
42
0.000000001
43
0.0000000001
44
0.0000000001
40
0
40
0
40
0
40
0
40
1
40
1
40
1
40
1
10
129.08983000000003
20
117.69100999999999
30
0
10
128.48354
20
118.56676000000002
30
0
10
127.55417
20
119.16578
30
0
10
126.50620000000002
20
119.35628999999999
30
0
0
LINE
5
158
100
AcDbEntity
8
0
100
AcDbLine
10
278.95571000000001
20
54.805630000000001
30
0
11
281.89102000000003
21
39.268050000000002
31
0
0
SPLINE
5
159
100
AcDbEntity
8
0
100
AcDbSpline
70
0
71
3
72
8
73
4
74
0
42
0.000000001
43
0.0000000001
44
0.0000000001
40
0
40
0
40
0
40
0
40
1
40
1
40
1
40
1
10
205.16539
20
124.89365000000001
30
0
10
204.54981000000001
20
124.02439999999999
30
0
10
204.30477999999999
20
122.94621000000001
30
0
10
204.48420000000004
20
121.89629000000002
30
0
0
LINE
5
160
100
AcDbEntity
8
0
100
AcDbLine
10
147.85512
20
77.703450000000004
30
0
11
147.85510999999997
21
111.99345000000001
31
0
0
LINE
5
161
100
AcDbEntity
8
0
100
AcDbLine
10
170.1942
20
111.99028999999999
30
0
11
168.14927999999998
21
111.98712999999999
31
0
0
SPLINE
5
162
100
AcDbEntity
8
0
100
AcDbSpline
70
0
71
3
72
8
73
4
74
0
42
0.000000001
43
0.0000000001
44
0.0000000001
40
0
40
0
40
0
40
0
40
1
40
1
40
1
40
1
10
189.54381000000001
20
106.16387
30
0
10
189.90130999999997
20
105.80636999999999
30
0
10
190.43896000000001
20
105.69942999999998
30
0
10
190.90604999999999
20
105.89291000000001
30
0
0
SPLINE
5
163
100
AcDbEntity
8
0
100
AcDbSpline
70
0
71
3
72
8
73
4
74
0
42
0.000000001
43
0.0000000001
44
0.0000000001
40
0
40
0
40
0
40
0
40
1
40
1
40
1
40
1
10
33.63158
20
127.33164000000002
30
0
10
33.39716
20
127.56606000000002
30
0
10
33.079220000000007
20
127.69776000000002
30
0
10
32.747700000000002
20
127.69776000000002
30
0
0
SPLINE
5
164
100
AcDbEntity
8
0
100
AcDbSpline
70
0
71
3
72
8
73
4
74
0
42
0.000000001
43
0.0000000001
44
0.0000000001
40
0
40
0
40
0
40
0
40
1
40
1
40
1
40
1
10
189.27285000000001
20
107.52611000000002
30
0
10
189.07937000000001
20
107.05902
30
0
10
189.18631000000002
20
106.52136999999999
30
0
10
189.54381000000001
20
106.16387
30
0
0
LINE
5
165
100
AcDbEntity
8
0
100
AcDbLine
10
17.49662
20
140.32560000000001
30
0
11
50.281110000000012
21
134.56698000000003
31
0
0
SPLINE
5
166
100
AcDbEntity
8
0
100
AcDbSpline
70
0
71
3
72
8
73
4
74
0
42
0.000000001
43
0.0000000001
44
0.0000000001
40
0
40
0
40
0
40
0
40
1
40
1
40
1
40
1
10
74.135220000000018
20
137.13499999999999
30
0
10
72.097800000000007
20
137.44539000000003
30
0
10
70.183090000000007
20
136.07884000000001
30
0
10
69.814370000000011
20
134.05117000000001
30
0
0
LINE
5
167
100
AcDbEntity
8
0
100
AcDbLine
10
242.58420000000001
20
28.678290000000001
30
0
11
224.55019999999996
21
22.074290000000005
31
0
0
LINE
5
168
100
AcDbEntity
8
0
100
AcDbLine
10
312.68819999999999
20
60.682290000000009
30
0
11
278.95571000000001
21
54.805630000000001
31
0
0
LINE
5
169
100
AcDbEntity
8
0
100
AcDbLine
10
315.97059999999999
20
65.317360000000008
30
0
11
303.29020000000003
21
137.13629000000003
31
0
0
SPLINE
5
170
100
AcDbEntity
8
0
100
AcDbSpline
70
0
71
3
72
8
73
4
74
0
42
0.000000001
43
0.0000000001
44
0.0000000001
40
0
40
0
40
0
40
0
40
1
40
1
40
1
40
1
10
54.122139999999995
20
136.79506000000001
30
0
10
52.508330000000001
20
136.90046000000001
30
0
10
50.990809999999996
20
136.02019000000001
30
0
10
50.281099999999995
20
134.56698000000003
30
0
0
LINE
5
171
100
AcDbEntity
8
0
100
AcDbLine
10
74.135220000000018
20
137.13498000000001
30
0
11
90.706569999999999
21
134.22223000000002
31
0
0
SPLINE
5
172
100
AcDbEntity
8
0
100
AcDbSpline
70
0
71
3
72
8
73
4
74
0
42
0.000000001
43
0.0000000001
44
0.0000000001
40
0
40
0
40
0
40
0
40
1
40
1
40
1
40
1
10
121.17218000000001
20
1.24627
30
0
10
122.00229
20
0.48004000000000002
30
0
10
123.09053
20
0.05457
30
0
10
124.22021000000001
20
0.05457
30
0
0
SPLINE
5
173
100
AcDbEntity
8
0
100
AcDbSpline
70
0
71
3
72
8
73
4
74
0
42
0.000000001
43
0.0000000001
44
0.0000000001
40
0
40
0
40
0
40
0
40
1
40
1
40
1
40
1
10
191.67770000000002
20
107.04776000000001
30
0
10
191.67770000000002
20
107.37927999999999
30
0
10
191.54599999999999
20
107.69722
30
0
10
191.31157999999999
20
107.93163999999999
30
0
0
SPLINE
5
174
100
AcDbEntity
8
0
100
AcDbSpline
70
0
71
3
72
8
73
4
74
0
42
0.000000001
43
0.0000000001
44
0.0000000001
40
0
40
0
40
0
40
0
40
1
40
1
40
1
40
1
10
125.09382000000002
20
107.16387
30
0
10
125.45131000000001
20
106.80638
30
0
10
125.98896000000002
20
106.69943000000001
30
0
10
126.45605
20
106.89291
30
0
0
SPLINE
5
175
100
AcDbEntity
8
0
100
AcDbSpline
70
0
71
3
72
8
73
4
74
0
42
0.000000001
43
0.0000000001
44
0.0000000001
40
0
40
0
40
0
40
0
40
1
40
1
40
1
40
1
10
124.82285000000002
20
108.52611000000002
30
0
10
124.62936999999999
20
108.05902
30
0
10
124.73632000000002
20
107.52136999999999
30
0
10
125.09382000000002
20
107.16387
30
0
0
SPLINE
5
176
100
AcDbEntity
8
0
100
AcDbSpline
70
0
71
3
72
8
73
4
74
0
42
0.000000001
43
0.0000000001
44
0.0000000001
40
0
40
0
40
0
40
0
40
1
40
1
40
1
40
1
10
126.86158
20
108.93164000000002
30
0
10
126.62716
20
109.16606
30
0
10
126.30922
20
109.29776000000001
30
0
10
125.9777
20
109.29776000000001
30
0
0
LINE
5
177
100
AcDbEntity
8
0
100
AcDbLine
10
298.65513000000004
20
140.41869
30
0
11
265.19021000000004
21
134.08829000000003
31
0
0
SPLINE
5
178
100
AcDbEntity
8
0
100
AcDbSpline
70
0
71
3
72
8
73
4
74
0
42
0.000000001
43
0.0000000001
44
0.0000000001
40
0
40
0
40
0
40
0
40
1
40
1
40
1
40
1
10
116.21285
20
46.166109999999996
30
0
10
116.01937
20
45.699019999999997
30
0
10
116.12631
20
45.161370000000005
30
0
10
116.48381000000001
20
44.803870000000003
30
0
0
LINE
5
179
100
AcDbEntity
8
0
100
AcDbLine
10
222.5378
20
129.19923
30
0
11
207.76658999999998
21
126.53136000000002
31
0
0
SPLINE
5
180
100
AcDbEntity
8
0
100
AcDbSpline
70
0
71
3
72
8
73
4
74
0
42
0.000000001
43
0.0000000001
44
0.0000000001
40
0
40
0
40
0
40
0
40
1
40
1
40
1
40
1
10
191.78420000000003
20
0.054590000000000014
30
0
10
192.91387
20
0.054590000000000014
30
0
10
194.00210999999999
20
0.48006000000000004
30
0
10
194.83221
20
1.2462899999999999
30
0
0
SPLINE
5
181
100
AcDbEntity
8
0
100
AcDbSpline
70
0
71
3
72
8
73
4
74
0
42
0.000000001
43
0.0000000001
44
0.0000000001
40
0
40
0
40
0
40
0
40
1
40
1
40
1
40
1
10
189.75220000000002
20
119.35633000000001
30
0
10
187.56585999999999
20
118.98277000000002
30
0
10
186.09629999999999
20
116.90758000000001
30
0
10
186.46981
20
114.72122999999999
30
0
0
LINE
5
182
100
AcDbEntity
8
0
100
AcDbLine
10
278.60862000000003
20
34.632980000000011
30
0
11
242.58420000000001
21
28.678290000000001
31
0
0
LINE
5
183
100
AcDbEntity
8
0
100
AcDbLine
10
91.4542
20
22.074290000000005
30
0
11
107.7102
21
12.42229
31
0
0
LINE
5
184
100
AcDbEntity
8
0
100
AcDbLine
10
224.55019999999996
20
22.074290000000005
30
0
11
208.29420999999999
21
12.42229
31
0
0
LINE
5
185
100
AcDbEntity
8
0
100
AcDbLine
10
54.122139999999995
20
136.79505
30
0
11
69.81438
21
134.05117000000001
31
0
0
SPLINE
5
186
100
AcDbEntity
8
0
100
AcDbSpline
70
0
71
3
72
8
73
4
74
0
42
0.000000001
43
0.0000000001
44
0.0000000001
40
0
40
0
40
0
40
0
40
1
40
1
40
1
40
1
10
34.812160000000006
20
36.298260000000006
30
0
10
35.418440000000004
20
35.422499999999999
30
0
10
36.347810000000003
20
34.823480000000011
30
0
10
37.395780000000002
20
34.632980000000011
30
0
0
SPLINE
5
187
100
AcDbEntity
8
0
100
AcDbSpline
70
0
71
3
72
8
73
4
74
0
42
0.000000001
43
0.0000000001
44
0.0000000001
40
0
40
0
40
0
40
0
40
1
40
1
40
1
40
1
10
129.73912000000001
20
114.68655000000001
30
0
10
129.92968000000002
20
115.73450999999999
30
0
10
129.69613000000004
20
116.81525000000001
30
0
10
129.08983000000003
20
117.69100999999999
30
0
0
LINE
5
188
100
AcDbEntity
8
0
100
AcDbLine
10
12.826889999999999
20
137.09272000000001
30
0
11
0.1268899999999995
21
65.464710000000011
31
0
0
LINE
5
189
100
AcDbEntity
8
0
100
AcDbLine
10
37.395769999999999
20
34.632980000000011
30
0
11
73.420199999999994
21
28.678290000000001
31
0
0
SPLINE
5
190
100
AcDbEntity
8
0
100
AcDbSpline
70
0
71
3
72
8
73
4
74
0
42
0.000000001
43
0.0000000001
44
0.0000000001
40
0
40
0
40
0
40
0
40
1
40
1
40
1
40
1
10
207.76660000000004
20
126.53132000000002
30
0
10
206.71666000000002
20
126.35199999999999
30
0
10
205.78097
20
125.7629
30
0
10
205.16539
20
124.89365000000001
30
0
0
SPLINE
5
191
100
AcDbEntity
8
0
100
AcDbSpline
70
0
71
3
72
8
73
4
74
0
42
0.000000001
43
0.0000000001
44
0.0000000001
40
0
40
0
40
0
40
0
40
1
40
1
40
1
40
1
10
240.89770000000001
20
40.217749999999995
30
0
10
240.89770000000001
20
40.549269999999993
30
0
10
240.76599999999999
20
40.867220000000003
30
0
10
240.53158000000002
20
41.10164000000001
30
0
0
SPLINE
5
192
100
AcDbEntity
8
0
100
AcDbSpline
70
0
71
3
72
8
73
4
74
0
42
0.000000001
43
0.0000000001
44
0.0000000001
40
0
40
0
40
0
40
0
40
1
40
1
40
1
40
1
10
34.162910000000004
20
39.302710000000005
30
0
10
33.972330000000007
20
38.254760000000005
30
0
10
34.205870000000004
20
37.174010000000003
30
0
10
34.812160000000006
20
36.298260000000006
30
0
0
SPLINE
5
193
100
AcDbEntity
8
0
100
AcDbSpline
70
0
71
3
72
8
73
4
74
0
42
0.000000001
43
0.0000000001
44
0.0000000001
40
0
40
0
40
0
40
0
40
1
40
1
40
1
40
1
10
244.75651999999999
20
135.92750000000001
30
0
10
243.88726000000003
20
136.54307
30
0
10
242.80906000000002
20
136.78810000000001
30
0
10
241.75914000000006
20
136.60867999999999
30
0
0
LINE
5
194
100
AcDbEntity
8
0
100
AcDbLine
10
145.81020000000001
20
111.99028999999999
30
0
11
129.73910000000001
21
114.68655999999999
31
0
0
SPLINE
5
195
100
AcDbEntity
8
0
100
AcDbSpline
70
0
71
3
72
8
73
4
74
0
42
0.000000001
43
0.0000000001
44
0.0000000001
40
0
40
0
40
0
40
0
40
1
40
1
40
1
40
1
10
0.12688000000000002
20
65.464709999999997
30
0
10
-0.26978000000000002
20
63.282480000000007
30
0
10
1.1775800000000001
20
61.191839999999999
30
0
10
3.3597700000000001
20
60.79498000000001
30
0
0
LINE
5
196
100
AcDbEntity
8
0
100
AcDbLine
10
204.48420000000004
20
121.89629000000002
30
0
11
189.75220000000004
21
119.35628999999999
31
0
0
LINE
5
197
100
AcDbEntity
8
0
100
AcDbLine
10
3.3597800000000007
20
60.79498000000001
30
0
11
37.098199999999999
21
54.840290000000003
31
0
0
SPLINE
5
198
100
AcDbEntity
8
0
100
AcDbSpline
70
0
71
3
72
8
73
4
74
0
42
0.000000001
43
0.0000000001
44
0.0000000001
40
0
40
0
40
0
40
0
40
1
40
1
40
1
40
1
10
190.42770000000002
20
108.29775999999998
30
0
10
189.92211999999998
20
108.29775999999998
30
0
10
189.46632
20
107.99320000000002
30
0
10
189.27285000000001
20
107.52611000000002
30
0
0
SPLINE
5
199
100
AcDbEntity
8
0
100
AcDbSpline
70
0
71
3
72
8
73
4
74
0
42
0.000000001
43
0.0000000001
44
0.0000000001
40
0
40
0
40
0
40
0
40
1
40
1
40
1
40
1
10
190.90604999999999
20
105.89291000000001
30
0
10
191.37314000000001
20
106.08638000000001
30
0
10
191.67770000000002
20
106.54218
30
0
10
191.67770000000002
20
107.04776000000001
30
0
0
SPLINE
5
200
100
AcDbEntity
8
0
100
AcDbSpline
70
0
71
3
72
8
73
4
74
0
42
0.000000001
43
0.0000000001
44
0.0000000001
40
0
40
0
40
0
40
0
40
1
40
1
40
1
40
1
10
125.9777
20
109.29776000000001
30
0
10
125.47212000000002
20
109.29776000000001
30
0
10
125.01633000000001
20
108.9932
30
0
10
124.82285000000002
20
108.52611000000002
30
0
0
SPLINE
5
201
100
AcDbEntity
8
0
100
AcDbSpline
70
0
71
3
72
8
73
4
74
0
42
0.000000001
43
0.0000000001
44
0.0000000001
40
0
40
0
40
0
40
0
40
1
40
1
40
1
40
1
10
246.39421000000002
20
133.32629000000003
30
0
10
246.21487000000002
20
134.37622999999999
30
0
10
245.62577000000002
20
135.31192000000001
30
0
10
244.75651999999999
20
135.92750000000001
30
0
0
SPLINE
5
202
100
AcDbEntity
8
0
100
AcDbSpline
70
0
71
3
72
8
73
4
74
0
42
0.000000001
43
0.0000000001
44
0.0000000001
40
0
40
0
40
0
40
0
40
1
40
1
40
1
40
1
10
75.713810000000009
20
39.583870000000005
30
0
10
76.071310000000011
20
39.226379999999999
30
0
10
76.60896000000001
20
39.119430000000001
30
0
10
77.076050000000009
20
39.312910000000009
30
0
0
SPLINE
5
203
100
AcDbEntity
8
0
100
AcDbSpline
70
0
71
3
72
8
73
4
74
0
42
0.000000001
43
0.0000000001
44
0.0000000001
40
0
40
0
40
0
40
0
40
1
40
1
40
1
40
1
10
111.95908
20
122.05256000000003
30
0
10
112.35582000000001
20
124.23479999999999
30
0
10
110.90843
20
126.32549
30
0
10
108.72619999999999
20
126.72229000000002
30
0
0
SPLINE
5
204
100
AcDbEntity
8
0
100
AcDbSpline
70
0
71
3
72
8
73
4
74
0
42
0.000000001
43
0.0000000001
44
0.0000000001
40
0
40
0
40
0
40
0
40
1
40
1
40
1
40
1
10
93.33214000000001
20
132.50135
30
0
10
92.725710000000007
20
133.40645999999998
30
0
10
91.778479999999988
20
134.02729999999997
30
0
10
90.706569999999999
20
134.22223000000002
30
0
0
LINE
5
205
100
AcDbEntity
8
0
100
AcDbLine
10
168.14929000000001
20
77.743449999999996
30
0
11
168.14927999999998
21
111.98712999999999
31
0
0
SPLINE
5
206
100
AcDbEntity
8
0
100
AcDbSpline
70
0
71
3
72
8
73
4
74
0
42
0.000000001
43
0.0000000001
44
0.0000000001
40
0
40
0
40
0
40
0
40
1
40
1
40
1
40
1
10
301.65252000000004
20
139.73750000000001
30
0
10
300.78327000000002
20
140.35307
30
0
10
299.70507000000003
20
140.59810999999999
30
0
10
298.65515000000005
20
140.41869
30
0
0
SPLINE
5
207
100
AcDbEntity
8
0
100
AcDbSpline
70
0
71
3
72
8
73
4
74
0
42
0.000000001
43
0.0000000001
44
0.0000000001
40
0
40
0
40
0
40
0
40
1
40
1
40
1
40
1
10
158.03510999999997
20
80.493449999999996
30
0
10
146.98942000000002
20
80.493449999999996
30
0
10
138.03511
20
71.539140000000017
30
0
10
138.03511
20
60.49345000000001
30
0
0
SPLINE
5
208
100
AcDbEntity
8
0
100
AcDbSpline
70
0
71
3
72
8
73
4
74
0
42
0.000000001
43
0.0000000001
44
0.0000000001
40
0
40
0
40
0
40
0
40
1
40
1
40
1
40
1
10
17.49662
20
140.32560000000001
30
0
10
16.44866
20
140.51614000000001
30
0
10
15.367940000000003
20
140.28257000000002
30
0
10
14.492200000000002
20
139.67629000000002
30
0
0
SPLINE
5
209
100
AcDbEntity
8
0
100
AcDbSpline
70
0
71
3
72
8
73
4
74
0
42
0.000000001
43
0.0000000001
44
0.0000000001
40
0
40
0
40
0
40
0
40
1
40
1
40
1
40
1
10
233.17770000000002
20
85.237750000000005
30
0
10
232.67212000000001
20
85.237750000000005
30
0
10
232.21632
20
84.933199999999999
30
0
10
232.02285000000003
20
84.466110000000015
30
0
0
SPLINE
5
210
100
AcDbEntity
8
0
100
AcDbSpline
70
0
71
3
72
8
73
4
74
0
42
0.000000001
43
0.0000000001
44
0.0000000001
40
0
40
0
40
0
40
0
40
1
40
1
40
1
40
1
10
283.96605
20
125.41290000000001
30
0
10
284.43313999999998
20
125.60638
30
0
10
284.73770000000002
20
126.06218
30
0
10
284.73770000000002
20
126.56774999999999
30
0
0
SPLINE
5
211
100
AcDbEntity
8
0
100
AcDbSpline
70
0
71
3
72
8
73
4
74
0
42
0.000000001
43
0.0000000001
44
0.0000000001
40
0
40
0
40
0
40
0
40
1
40
1
40
1
40
1
10
144.35510999999997
20
79.173450000000003
30
0
10
144.35510999999997
20
79.50497
30
0
10
144.22342
20
79.822910000000007
30
0
10
143.989
20
80.057329999999993
30
0
0
SPLINE
5
212
100
AcDbEntity
8
0
100
AcDbSpline
70
0
71
3
72
8
73
4
74
0
42
0.000000001
43
0.0000000001
44
0.0000000001
40
0
40
0
40
0
40
0
40
1
40
1
40
1
40
1
10
83.766049999999993
20
84.082899999999995
30
0
10
84.233139999999992
20
84.276380000000003
30
0
10
84.537700000000001
20
84.73218
30
0
10
84.537700000000001
20
85.237750000000005
30
0
0
SPLINE
5
213
100
AcDbEntity
8
0
100
AcDbSpline
70
0
71
3
72
8
73
4
74
0
42
0.000000001
43
0.0000000001
44
0.0000000001
40
0
40
0
40
0
40
0
40
1
40
1
40
1
40
1
10
232.29381000000001
20
83.103870000000029
30
0
10
232.65131
20
82.746369999999999
30
0
10
233.18895999999998
20
82.639430000000004
30
0
10
233.65605000000002
20
82.832899999999995
30
0
0
SPLINE
5
214
100
AcDbEntity
8
0
100
AcDbSpline
70
0
71
3
72
8
73
4
74
0
42
0.000000001
43
0.0000000001
44
0.0000000001
40
0
40
0
40
0
40
0
40
1
40
1
40
1
40
1
10
141.95026000000001
20
79.651800000000009
30
0
10
141.75679
20
79.184709999999995
30
0
10
141.86373000000003
20
78.647059999999996
30
0
10
142.22123000000002
20
78.289559999999994
30
0
0
SPLINE
5
215
100
AcDbEntity
8
0
100
AcDbSpline
70
0
71
3
72
8
73
4
74
0
42
0.000000001
43
0.0000000001
44
0.0000000001
40
0
40
0
40
0
40
0
40
1
40
1
40
1
40
1
10
174.239
20
80.057329999999993
30
0
10
174.00458
20
80.291750000000008
30
0
10
173.68663000000001
20
80.423449999999988
30
0
10
173.35511
20
80.423449999999988
30
0
0
SPLINE
5
216
100
AcDbEntity
8
0
100
AcDbSpline
70
0
71
3
72
8
73
4
74
0
42
0.000000001
43
0.0000000001
44
0.0000000001
40
0
40
0
40
0
40
0
40
1
40
1
40
1
40
1
10
284.37157999999999
20
127.45164000000003
30
0
10
284.13715999999999
20
127.68606
30
0
10
283.81921999999997
20
127.81774999999999
30
0
10
283.48770000000007
20
127.81774999999999
30
0
0
SPLINE
5
217
100
AcDbEntity
8
0
100
AcDbSpline
70
0
71
3
72
8
73
4
74
0
42
0.000000001
43
0.0000000001
44
0.0000000001
40
0
40
0
40
0
40
0
40
1
40
1
40
1
40
1
10
77.847700000000003
20
40.467760000000013
30
0
10
77.847700000000003
20
40.799279999999996
30
0
10
77.716000000000008
20
41.117220000000003
30
0
10
77.481580000000008
20
41.351639999999996
30
0
0
SPLINE
5
218
100
AcDbEntity
8
0
100
AcDbSpline
70
0
71
3
72
8
73
4
74
0
42
0.000000001
43
0.0000000001
44
0.0000000001
40
0
40
0
40
0
40
0
40
1
40
1
40
1
40
1
10
234.42769999999999
20
83.987750000000005
30
0
10
234.42769999999999
20
84.319270000000003
30
0
10
234.29599999999999
20
84.637220000000013
30
0
10
234.06157999999999
20
84.871639999999999
30
0
0
SPLINE
5
219
100
AcDbEntity
8
0
100
AcDbSpline
70
0
71
3
72
8
73
4
74
0
42
0.000000001
43
0.0000000001
44
0.0000000001
40
0
40
0
40
0
40
0
40
1
40
1
40
1
40
1
10
172.47123000000002
20
78.289559999999994
30
0
10
172.82873000000001
20
77.932060000000007
30
0
10
173.36637000000002
20
77.825119999999998
30
0
10
173.83347000000001
20
78.018600000000006
30
0
0
SPLINE
5
220
100
AcDbEntity
8
0
100
AcDbSpline
70
0
71
3
72
8
73
4
74
0
42
0.000000001
43
0.0000000001
44
0.0000000001
40
0
40
0
40
0
40
0
40
1
40
1
40
1
40
1
10
143.989
20
80.057329999999993
30
0
10
143.75457999999998
20
80.291750000000008
30
0
10
143.43663000000004
20
80.423449999999988
30
0
10
143.10510999999997
20
80.423449999999988
30
0
0
SPLINE
5
221
100
AcDbEntity
8
0
100
AcDbSpline
70
0
71
3
72
8
73
4
74
0
42
0.000000001
43
0.0000000001
44
0.0000000001
40
0
40
0
40
0
40
0
40
1
40
1
40
1
40
1
10
234.06157999999999
20
84.871639999999999
30
0
10
233.82716000000002
20
85.106059999999985
30
0
10
233.50922
20
85.237750000000005
30
0
10
233.17770000000002
20
85.237750000000005
30
0
0
SPLINE
5
222
100
AcDbEntity
8
0
100
AcDbSpline
70
0
71
3
72
8
73
4
74
0
42
0.000000001
43
0.0000000001
44
0.0000000001
40
0
40
0
40
0
40
0
40
1
40
1
40
1
40
1
10
284.73770000000002
20
126.56774999999999
30
0
10
284.73770000000002
20
126.89927
30
0
10
284.60599999999999
20
127.21722
30
0
10
284.37157999999999
20
127.45164000000003
30
0
0
SPLINE
5
223
100
AcDbEntity
8
0
100
AcDbSpline
70
0
71
3
72
8
73
4
74
0
42
0.000000001
43
0.0000000001
44
0.0000000001
40
0
40
0
40
0
40
0
40
1
40
1
40
1
40
1
10
143.10510999999997
20
80.423449999999988
30
0
10
142.59953999999999
20
80.423449999999988
30
0
10
142.14374000000001
20
80.118889999999993
30
0
10
141.95026000000001
20
79.651800000000009
30
0
0
SPLINE
5
224
100
AcDbEntity
8
0
100
AcDbSpline
70
0
71
3
72
8
73
4
74
0
42
0.000000001
43
0.0000000001
44
0.0000000001
40
0
40
0
40
0
40
0
40
1
40
1
40
1
40
1
10
173.35511
20
80.423449999999988
30
0
10
172.84953999999999
20
80.423449999999988
30
0
10
172.39373999999998
20
80.118889999999993
30
0
10
172.20026000000001
20
79.651800000000009
30
0
0
SPLINE
5
225
100
AcDbEntity
8
0
100
AcDbSpline
70
0
71
3
72
8
73
4
74
0
42
0.000000001
43
0.0000000001
44
0.0000000001
40
0
40
0
40
0
40
0
40
1
40
1
40
1
40
1
10
282.33285000000001
20
127.04611000000001
30
0
10
282.13936999999999
20
126.57902
30
0
10
282.24631999999997
20
126.04137
30
0
10
282.60381000000001
20
125.68387000000001
30
0
0
SPLINE
5
226
100
AcDbEntity
8
0
100
AcDbSpline
70
0
71
3
72
8
73
4
74
0
42
0.000000001
43
0.0000000001
44
0.0000000001
40
0
40
0
40
0
40
0
40
1
40
1
40
1
40
1
10
82.132850000000005
20
85.716110000000015
30
0
10
81.939369999999997
20
85.249009999999998
30
0
10
82.046320000000009
20
84.711369999999988
30
0
10
82.403809999999993
20
84.353870000000001
30
0
0
SPLINE
5
227
100
AcDbEntity
8
0
100
AcDbSpline
70
0
71
3
72
8
73
4
74
0
42
0.000000001
43
0.0000000001
44
0.0000000001
40
0
40
0
40
0
40
0
40
1
40
1
40
1
40
1
10
77.076050000000009
20
39.312910000000009
30
0
10
77.543139999999994
20
39.506379999999993
30
0
10
77.847700000000003
20
39.962180000000004
30
0
10
77.847700000000003
20
40.467760000000013
30
0
0
SPLINE
5
228
100
AcDbEntity
8
0
100
AcDbSpline
70
0
71
3
72
8
73
4
74
0
42
0.000000001
43
0.0000000001
44
0.0000000001
40
0
40
0
40
0
40
0
40
1
40
1
40
1
40
1
10
312.68819999999999
20
60.682269999999995
30
0
10
314.87455
20
61.055819999999997
30
0
10
316.34412000000003
20
63.131010000000018
30
0
10
315.97059999999999
20
65.317360000000008
30
0
0
SPLINE
5
229
100
AcDbEntity
8
0
100
AcDbSpline
70
0
71
3
72
8
73
4
74
0
42
0.000000001
43
0.0000000001
44
0.0000000001
40
0
40
0
40
0
40
0
40
1
40
1
40
1
40
1
10
303.29021000000006
20
137.13629000000003
30
0
10
303.11088000000001
20
138.18622999999999
30
0
10
302.52178000000004
20
139.12192000000002
30
0
10
301.65252000000004
20
139.73750000000001
30
0
0
LINE
5
230
100
AcDbEntity
8
0
100
AcDbLine
10
147.85510999999997
20
111.99345000000001
30
0
11
145.81020000000001
21
111.99028999999999
31
0
0
SPLINE
5
231
100
AcDbEntity
8
0
100
AcDbSpline
70
0
71
3
72
8
73
4
74
0
42
0.000000001
43
0.0000000001
44
0.0000000001
40
0
40
0
40
0
40
0
40
1
40
1
40
1
40
1
10
138.03511
20
60.49345000000001
30
0
10
138.03511
20
49.447749999999999
30
0
10
146.98942000000002
20
40.493449999999996
30
0
10
158.03510999999997
20
40.493449999999996
30
0
0
SPLINE
5
232
100
AcDbEntity
8
0
100
AcDbSpline
70
0
71
3
72
8
73
4
74
0
42
0.000000001
43
0.0000000001
44
0.0000000001
40
0
40
0
40
0
40
0
40
1
40
1
40
1
40
1
10
158.03510999999997
20
40.493449999999996
30
0
10
169.08080999999999
20
40.493449999999996
30
0
10
178.03511
20
49.447749999999999
30
0
10
178.03511
20
60.49345000000001
30
0
0
SPLINE
5
233
100
AcDbEntity
8
0
100
AcDbSpline
70
0
71
3
72
8
73
4
74
0
42
0.000000001
43
0.0000000001
44
0.0000000001
40
0
40
0
40
0
40
0
40
1
40
1
40
1
40
1
10
143.58347000000001
20
78.018600000000006
30
0
10
144.05055999999999
20
78.212070000000011
30
0
10
144.35510999999997
20
78.667869999999994
30
0
10
144.35510999999997
20
79.173450000000003
30
0
0
SPLINE
5
234
100
AcDbEntity
8
0
100
AcDbSpline
70
0
71
3
72
8
73
4
74
0
42
0.000000001
43
0.0000000001
44
0.0000000001
40
0
40
0
40
0
40
0
40
1
40
1
40
1
40
1
10
142.22123000000002
20
78.289559999999994
30
0
10
142.57873000000004
20
77.932060000000007
30
0
10
143.11636999999999
20
77.825119999999998
30
0
10
143.58347000000001
20
78.018600000000006
30
0
0
SPLINE
5
235
100
AcDbEntity
8
0
100
AcDbSpline
70
0
71
3
72
8
73
4
74
0
42
0.000000001
43
0.0000000001
44
0.0000000001
40
0
40
0
40
0
40
0
40
1
40
1
40
1
40
1
10
232.02285000000003
20
84.466110000000015
30
0
10
231.82936999999998
20
83.999020000000002
30
0
10
231.93630999999999
20
83.461369999999988
30
0
10
232.29381000000001
20
83.103870000000029
30
0
0
SPLINE
5
236
100
AcDbEntity
8
0
100
AcDbSpline
70
0
71
3
72
8
73
4
74
0
42
0.000000001
43
0.0000000001
44
0.0000000001
40
0
40
0
40
0
40
0
40
1
40
1
40
1
40
1
10
173.83347000000001
20
78.018600000000006
30
0
10
174.30056000000002
20
78.212070000000011
30
0
10
174.60511
20
78.667869999999994
30
0
10
174.60511
20
79.173450000000003
30
0
0
SPLINE
5
237
100
AcDbEntity
8
0
100
AcDbSpline
70
0
71
3
72
8
73
4
74
0
42
0.000000001
43
0.0000000001
44
0.0000000001
40
0
40
0
40
0
40
0
40
1
40
1
40
1
40
1
10
282.60381000000001
20
125.68387000000001
30
0
10
282.96130999999997
20
125.32637
30
0
10
283.49896000000001
20
125.21943
30
0
10
283.96605
20
125.41290000000001
30
0
0
SPLINE
5
238
100
AcDbEntity
8
0
100
AcDbSpline
70
0
71
3
72
8
73
4
74
0
42
0.000000001
43
0.0000000001
44
0.0000000001
40
0
40
0
40
0
40
0
40
1
40
1
40
1
40
1
10
83.287700000000001
20
86.487750000000005
30
0
10
82.782119999999992
20
86.487750000000005
30
0
10
82.32632000000001
20
86.183199999999985
30
0
10
82.132850000000005
20
85.716110000000015
30
0
0
SPLINE
5
239
100
AcDbEntity
8
0
100
AcDbSpline
70
0
71
3
72
8
73
4
74
0
42
0.000000001
43
0.0000000001
44
0.0000000001
40
0
40
0
40
0
40
0
40
1
40
1
40
1
40
1
10
84.537700000000001
20
85.237750000000005
30
0
10
84.537700000000001
20
85.569270000000017
30
0
10
84.406000000000006
20
85.887220000000013
30
0
10
84.171580000000006
20
86.121639999999999
30
0
0
SPLINE
5
240
100
AcDbEntity
8
0
100
AcDbSpline
70
0
71
3
72
8
73
4
74
0
42
0.000000001
43
0.0000000001
44
0.0000000001
40
0
40
0
40
0
40
0
40
1
40
1
40
1
40
1
10
76.597700000000003
20
41.717760000000006
30
0
10
76.092119999999994
20
41.717760000000006
30
0
10
75.636320000000012
20
41.413199999999996
30
0
10
75.442850000000007
20
40.946110000000004
30
0
0
SPLINE
5
241
100
AcDbEntity
8
0
100
AcDbSpline
70
0
71
3
72
8
73
4
74
0
42
0.000000001
43
0.0000000001
44
0.0000000001
40
0
40
0
40
0
40
0
40
1
40
1
40
1
40
1
10
233.65605000000002
20
82.832899999999995
30
0
10
234.12314000000003
20
83.026380000000003
30
0
10
234.42769999999999
20
83.48218
30
0
10
234.42769999999999
20
83.987750000000005
30
0
0
LINE
5
242
100
AcDbEntity
8
0
100
AcDbLine
10
107.7102
20
12.42229
30
0
11
121.1722
21
1.2463000000000002
31
0
0
SPLINE
5
243
100
AcDbEntity
8
0
100
AcDbSpline
70
0
71
3
72
8
73
4
74
0
42
0.000000001
43
0.0000000001
44
0.0000000001
40
0
40
0
40
0
40
0
40
1
40
1
40
1
40
1
10
82.403809999999993
20
84.353870000000001
30
0
10
82.761309999999995
20
83.996369999999999
30
0
10
83.298960000000022
20
83.88942999999999
30
0
10
83.766049999999993
20
84.082899999999995
30
0
0
SPLINE
5
244
100
AcDbEntity
8
0
100
AcDbSpline
70
0
71
3
72
8
73
4
74
0
42
0.000000001
43
0.0000000001
44
0.0000000001
40
0
40
0
40
0
40
0
40
1
40
1
40
1
40
1
10
93.925070000000019
20
129.41857000000002
30
0
10
94.152479999999997
20
130.48406000000003
30
0
10
93.938569999999999
20
131.59624000000002
30
0
10
93.33214000000001
20
132.50135
30
0
0
SPLINE
5
245
100
AcDbEntity
8
0
100
AcDbSpline
70
0
71
3
72
8
73
4
74
0
42
0.000000001
43
0.0000000001
44
0.0000000001
40
0
40
0
40
0
40
0
40
1
40
1
40
1
40
1
10
14.492200000000002
20
139.67629000000002
30
0
10
13.61645
20
139.06999999999999
30
0
10
13.01742
20
138.14066
30
0
10
12.826889999999999
20
137.09270000000001
30
0
0
SPLINE
5
246
100
AcDbEntity
8
0
100
AcDbSpline
70
0
71
3
72
8
73
4
74
0
42
0.000000001
43
0.0000000001
44
0.0000000001
40
0
40
0
40
0
40
0
40
1
40
1
40
1
40
1
10
174.60511
20
79.173450000000003
30
0
10
174.60511
20
79.50497
30
0
10
174.47342000000003
20
79.822910000000007
30
0
10
174.239
20
80.057329999999993
30
0
0
SPLINE
5
247
100
AcDbEntity
8
0
100
AcDbSpline
70
0
71
3
72
8
73
4
74
0
42
0.000000001
43
0.0000000001
44
0.0000000001
40
0
40
0
40
0
40
0
40
1
40
1
40
1
40
1
10
75.442850000000007
20
40.946110000000004
30
0
10
75.249369999999999
20
40.479019999999998
30
0
10
75.356320000000011
20
39.941370000000006
30
0
10
75.713810000000009
20
39.583870000000005
30
0
0
SPLINE
5
248
100
AcDbEntity
8
0
100
AcDbSpline
70
0
71
3
72
8
73
4
74
0
42
0.000000001
43
0.0000000001
44
0.0000000001
40
0
40
0
40
0
40
0
40
1
40
1
40
1
40
1
10
77.481580000000008
20
41.351639999999996
30
0
10
77.247160000000008
20
41.586060000000003
30
0
10
76.929220000000015
20
41.717760000000006
30
0
10
76.597700000000003
20
41.717760000000006
30
0
0
SPLINE
5
249
100
AcDbEntity
8
0
100
AcDbSpline
70
0
71
3
72
8
73
4
74
0
42
0.000000001
43
0.0000000001
44
0.0000000001
40
0
40
0
40
0
40
0
40
1
40
1
40
1
40
1
10
172.20026000000001
20
79.651800000000009
30
0
10
172.00679000000002
20
79.184709999999995
30
0
10
172.11373000000003
20
78.647059999999996
30
0
10
172.47123000000002
20
78.289559999999994
30
0
0
SPLINE
5
250
100
AcDbEntity
8
0
100
AcDbSpline
70
0
71
3
72
8
73
4
74
0
42
0.000000001
43
0.0000000001
44
0.0000000001
40
0
40
0
40
0
40
0
40
1
40
1
40
1
40
1
10
118.25158
20
46.571640000000002
30
0
10
118.01716000000002
20
46.806060000000009
30
0
10
117.69922
20
46.937750000000008
30
0
10
117.3677
20
46.937750000000008
30
0
0
SPLINE
5
251
100
AcDbEntity
8
0
100
AcDbSpline
70
0
71
3
72
8
73
4
74
0
42
0.000000001
43
0.0000000001
44
0.0000000001
40
0
40
0
40
0
40
0
40
1
40
1
40
1
40
1
10
283.48770000000007
20
127.81774999999999
30
0
10
282.98212000000001
20
127.81774999999999
30
0
10
282.52632
20
127.51320000000001
30
0
10
282.33285000000001
20
127.04611000000001
30
0
0
SPLINE
5
252
100
AcDbEntity
8
0
100
AcDbSpline
70
0
71
3
72
8
73
4
74
0
42
0.000000001
43
0.0000000001
44
0.0000000001
40
0
40
0
40
0
40
0
40
1
40
1
40
1
40
1
10
178.03511
20
60.49345000000001
30
0
10
178.03511
20
65.79777
30
0
10
175.92798000000002
20
70.884850000000014
30
0
10
172.17725000000002
20
74.635580000000004
30
0
0
SPLINE
5
253
100
AcDbEntity
8
0
100
AcDbSpline
70
0
71
3
72
8
73
4
74
0
42
0.000000001
43
0.0000000001
44
0.0000000001
40
0
40
0
40
0
40
0
40
1
40
1
40
1
40
1
10
172.17725000000002
20
74.635580000000004
30
0
10
168.42651999999998
20
78.386310000000009
30
0
10
163.33944
20
80.493449999999996
30
0
10
158.03510999999997
20
80.493449999999996
30
0
0
LWPOLYLINE
5
254
100
AcDbEntity
8
0
100
AcDbPolyline
90
4
70
1
43
0.0
10
271.87304
20
97.100560000000002
10
285.66035000000005
20
99.531630000000007
10
283.22927000000004
20
113.31894
10
269.44196999999997
20
110.88786999999999
0
LWPOLYLINE
5
255
100
AcDbEntity
8
0
100
AcDbPolyline
90
4
70
1
43
0.0
10
215.39170000000001
20
89.172229999999999
10
229.17901000000001
20
91.603300000000004
10
226.74793999999997
20
105.39061000000001
10
212.96063000000001
20
102.95954
0
LWPOLYLINE
5
256
100
AcDbEntity
8
0
100
AcDbPolyline
90
4
70
1
43
0.0
10
43.360500000000002
20
92.172330000000002
10
40.92942
20
78.385019999999997
10
27.142110000000002
20
80.816090000000003
10
29.57319
20
94.603399999999993
0
LWPOLYLINE
5
257
100
AcDbEntity
8
0
100
AcDbPolyline
90
4
70
1
43
0.0
10
244.76470000000003
20
112.62916000000001
10
230.97739000000001
20
110.19807999999999
10
233.40846000000002
20
96.410780000000003
10
247.19576999999998
20
98.841850000000008
0
LWPOLYLINE
5
258
100
AcDbEntity
8
0
100
AcDbPolyline
90
4
70
1
43
0.0
10
264.17062999999996
20
111.98924000000002
10
266.60169999999999
20
98.201930000000019
10
252.81439000000003
20
95.770859999999999
10
250.38332
20
109.55817000000002
0
LWPOLYLINE
5
259
100
AcDbEntity
8
0
100
AcDbPolyline
90
4
70
1
43
0.0
10
85.124399999999994
20
110.19388000000001
10
82.69332
20
96.406570000000016
10
68.906009999999995
20
98.837649999999982
10
71.337089999999989
20
112.62495
0
LWPOLYLINE
5
260
100
AcDbEntity
8
0
100
AcDbPolyline
90
4
70
1
43
0.0
10
104.93952
20
84.360559999999992
10
107.37059000000001
20
98.147869999999983
10
121.15790000000001
20
95.716790000000003
10
118.72683000000002
20
81.929479999999998
0
LINE
5
261
100
AcDbEntity
8
0
100
AcDbLine
10
186.46979999999999
20
114.72122999999999
30
0
11
170.1942
21
111.99028999999999
31
0
0
LWPOLYLINE
5
262
100
AcDbEntity
8
0
100
AcDbPolyline
90
4
70
1
43
0.0
10
86.922759999999997
20
91.599099999999993
10
100.71007
20
89.168030000000002
10
103.14115
20
102.95534000000001
10
89.353839999999991
20
105.38641
0
LWPOLYLINE
5
263
100
AcDbEntity
8
0
100
AcDbPolyline
90
4
70
1
43
0.0
10
49.500070000000008
20
98.197730000000007
10
51.931150000000002
20
111.98504000000001
10
65.718460000000007
20
109.55396999999999
10
63.287379999999999
20
95.766660000000016
0
LWPOLYLINE
5
264
100
AcDbEntity
8
0
100
AcDbPolyline
90
4
70
1
43
0.0
10
197.37494000000001
20
81.933690000000013
10
211.16225
20
84.36475999999999
10
208.73117000000005
20
98.152070000000009
10
194.94387
20
95.721000000000004
0
LWPOLYLINE
5
265
100
AcDbEntity
8
0
100
AcDbPolyline
90
4
70
1
43
0.0
10
200.67426000000006
20
63.222340000000003
10
198.24318
20
77.009649999999993
10
212.03049000000004
20
79.440720000000013
10
214.46157000000002
20
65.653410000000008
0
LWPOLYLINE
5
266
100
AcDbEntity
8
0
100
AcDbPolyline
90
4
70
1
43
0.0
10
207.89507
20
17.856450000000002
10
220.01943
20
24.856449999999999
10
213.01942999999997
20
36.980800000000009
10
200.89507
20
29.980800000000002
0
LWPOLYLINE
5
267
100
AcDbEntity
8
0
100
AcDbPolyline
90
4
70
1
43
0.0
10
203.97358999999997
20
44.510990000000007
10
217.76089000000007
20
46.942060000000005
10
215.32982000000001
20
60.729370000000003
10
201.54251000000002
20
58.298300000000012
0
LWPOLYLINE
5
268
100
AcDbEntity
8
0
100
AcDbPolyline
90
4
70
1
43
0.0
10
98.34089000000003
20
46.937870000000004
10
112.12820000000001
20
44.506790000000002
10
114.55928
20
58.2941
10
100.77197
20
60.725169999999991
0
LWPOLYLINE
5
269
100
AcDbEntity
8
0
100
AcDbPolyline
90
4
70
1
43
0.0
10
42.901440000000008
20
60.775040000000004
10
56.688749999999999
20
58.343969999999999
10
59.119830000000007
20
72.131280000000004
10
45.332520000000002
20
74.562350000000009
0
LWPOLYLINE
5
270
100
AcDbEntity
8
0
100
AcDbPolyline
90
4
70
1
43
0.0
10
218.69101999999998
20
70.460880000000003
10
232.47833
20
72.891949999999994
10
230.04725000000002
20
86.679259999999999
10
216.25993999999997
20
84.248189999999994
0
LWPOLYLINE
5
271
100
AcDbEntity
8
0
100
AcDbPolyline
90
4
70
1
43
0.0
10
80.324129999999997
20
54.176420000000007
10
94.111440000000002
20
51.745339999999999
10
96.542519999999996
20
65.532650000000018
10
82.755210000000005
20
67.963729999999998
0
LWPOLYLINE
5
272
100
AcDbEntity
8
0
100
AcDbPolyline
90
4
70
1
43
0.0
10
62.307380000000009
20
61.414960000000008
10
64.738460000000018
20
75.202269999999999
10
78.525769999999994
20
72.771199999999993
10
76.094689999999986
20
58.983890000000002
0
LWPOLYLINE
5
273
100
AcDbEntity
8
0
100
AcDbPolyline
90
4
70
1
43
0.0
10
62.419139999999999
20
90.84263
10
48.631830000000001
20
93.273700000000005
10
46.200760000000002
20
79.486390000000014
10
59.988060000000004
20
77.055320000000023
0
LWPOLYLINE
5
274
100
AcDbEntity
8
0
100
AcDbPolyline
90
4
70
1
43
0.0
10
267.46995000000004
20
93.277900000000002
10
253.68264000000005
20
90.846820000000008
10
256.11372000000006
20
77.059510000000003
10
269.90103000000005
20
79.490589999999997
0
LWPOLYLINE
5
275
100
AcDbEntity
8
0
100
AcDbPolyline
90
4
70
1
43
0.0
10
99.841830000000002
20
84.243990000000011
10
86.054519999999997
20
86.675060000000002
10
83.623449999999991
20
72.887750000000011
10
97.410759999999996
20
70.456680000000006
0
LWPOLYLINE
5
276
100
AcDbEntity
8
0
100
AcDbPolyline
90
4
70
1
43
0.0
10
23.842790000000001
20
62.104740000000007
10
37.630099999999999
20
59.673670000000001
10
40.06118
20
73.460979999999992
10
26.273869999999995
20
75.892050000000012
0
LWPOLYLINE
5
277
100
AcDbEntity
8
0
100
AcDbPolyline
90
4
70
1
43
0.0
10
65.606700000000004
20
80.126309999999989
10
68.037770000000009
20
93.913610000000006
10
81.82508
20
91.48254
10
79.394009999999994
20
77.695230000000009
0
LWPOLYLINE
5
278
100
AcDbEntity
8
0
100
AcDbPolyline
90
4
70
1
43
0.0
10
275.17235000000005
20
78.389210000000006
10
288.95965999999999
20
80.820289999999986
10
286.52859000000001
20
94.607600000000005
10
272.74128000000002
20
92.176520000000011
0
LWPOLYLINE
5
279
100
AcDbEntity
8
0
100
AcDbPolyline
90
4
70
1
43
0.0
10
236.70776999999998
20
77.699430000000007
10
234.27669000000003
20
91.486739999999998
10
248.06400000000002
20
93.917820000000034
10
250.49508000000003
20
80.130510000000015
0
LWPOLYLINE
5
280
100
AcDbEntity
8
0
100
AcDbPolyline
90
4
70
1
43
0.0
10
117.85859000000001
20
77.005440000000007
10
104.07128
20
79.436509999999998
10
101.64021000000002
20
65.649200000000008
10
115.42752
20
63.218130000000002
0
LWPOLYLINE
5
281
100
AcDbEntity
8
0
100
AcDbPolyline
90
4
70
1
43
0.0
10
289.82790000000006
20
75.896249999999995
10
292.25896999999998
20
62.108940000000018
10
278.47167000000002
20
59.677870000000013
10
276.04059000000001
20
73.465180000000004
0
LWPOLYLINE
5
282
100
AcDbEntity
8
0
100
AcDbPolyline
90
4
70
1
43
0.0
10
270.76926000000003
20
74.566550000000007
10
273.20034000000004
20
60.779240000000001
10
259.41302999999999
20
58.348170000000003
10
256.98195000000004
20
72.135469999999998
0
LWPOLYLINE
5
283
100
AcDbEntity
8
0
100
AcDbPolyline
90
4
70
1
43
0.0
10
251.36332000000004
20
75.206460000000021
10
253.79439000000005
20
61.419150000000002
10
240.00708
20
58.988079999999997
10
237.57601000000005
20
72.775390000000016
0
LWPOLYLINE
5
284
100
AcDbEntity
8
0
100
AcDbPolyline
90
4
70
1
43
0.0
10
95.375009999999989
20
40.574339999999999
10
90.586729999999989
20
27.41864
10
77.431029999999993
20
32.206920000000004
10
82.219309999999993
20
45.362620000000007
0
LWPOLYLINE
5
285
100
AcDbEntity
8
0
100
AcDbPolyline
90
4
70
1
43
0.0
10
192.39225000000002
20
5.5116999999999994
10
183.39323000000002
20
16.236320000000003
10
194.11785000000003
20
25.235349999999997
10
203.11688000000001
20
14.510719999999997
0
LWPOLYLINE
5
286
100
AcDbEntity
8
0
100
AcDbPolyline
90
4
70
1
43
0.0
10
221.99033
20
51.749540000000003
10
219.55925000000002
20
65.536839999999998
10
233.34655999999998
20
67.967919999999992
10
235.77764000000002
20
54.180609999999987
0
LWPOLYLINE
5
287
100
AcDbEntity
8
0
100
AcDbPolyline
90
4
70
1
43
0.0
10
57.851569999999995
20
36.14479
10
60.282640000000008
20
49.932099999999991
10
74.069949999999992
20
47.501019999999997
10
71.63888
20
33.713720000000002
0
LWPOLYLINE
5
288
100
AcDbEntity
8
0
100
AcDbPolyline
90
4
70
1
43
0.0
10
52.799390000000002
20
116.90908
10
55.230460000000008
20
130.69639000000001
10
69.017769999999999
20
128.26531
10
66.586699999999993
20
114.47800000000001
0
LWPOLYLINE
5
289
100
AcDbEntity
8
0
100
AcDbPolyline
90
4
70
1
43
0.0
10
274.53048000000001
20
53.235609999999994
10
276.96155999999996
20
39.448300000000003
10
263.17425000000003
20
37.017230000000005
10
260.74317000000002
20
50.804540000000017
0
LWPOLYLINE
5
290
100
AcDbEntity
8
0
100
AcDbPolyline
90
4
70
1
43
0.0
10
72.205330000000018
20
117.54899999999999
10
74.636400000000009
20
131.33631000000003
10
88.42371
20
128.90522999999999
10
85.992639999999994
20
115.11792
0
LWPOLYLINE
5
291
100
AcDbEntity
8
0
100
AcDbPolyline
90
4
70
1
43
0.0
10
30.44143
20
99.527440000000013
10
44.228740000000002
20
97.096369999999993
10
46.659809999999993
20
110.88368
10
32.872499999999995
20
113.31474999999999
0
LWPOLYLINE
5
292
100
AcDbEntity
8
0
100
AcDbPolyline
90
4
70
1
43
0.0
10
205.43187
20
116.86341999999999
10
191.64456000000001
20
114.43233999999998
10
194.07564000000002
20
100.64503000000001
10
207.86295000000001
20
103.07611000000001
0
LWPOLYLINE
5
293
100
AcDbEntity
8
0
100
AcDbPolyline
90
4
70
1
43
0.0
10
55.358609999999999
20
50.800339999999991
10
41.571300000000008
20
53.231410000000004
10
39.140219999999999
20
39.444100000000006
10
52.92752999999999
20
37.013030000000001
0
LWPOLYLINE
5
294
100
AcDbEntity
8
0
100
AcDbPolyline
90
4
70
1
43
0.0
10
255.81913000000003
20
49.93629
10
258.25021000000004
20
36.148980000000002
10
244.46290000000005
20
33.71791000000001
10
242.03182000000004
20
47.505220000000001
0
LWPOLYLINE
5
295
100
AcDbEntity
8
0
100
AcDbPolyline
90
4
70
1
43
0.0
10
187.45529000000005
20
28.767409999999998
10
198.92342000000008
20
36.797480000000007
10
190.89335000000003
20
48.265609999999995
10
179.42522000000002
20
40.235540000000007
0
LWPOLYLINE
5
296
100
AcDbEntity
8
0
100
AcDbPolyline
90
4
70
1
43
0.0
10
279.92996000000005
20
132.03029000000001
10
282.36104
20
118.24297999999999
10
268.57373000000001
20
115.81191000000003
10
266.14265000000006
20
129.59922
0
LWPOLYLINE
5
297
100
AcDbEntity
8
0
100
AcDbPolyline
90
4
70
1
43
0.0
10
225.31946000000002
20
27.325219999999998
10
238.47515999999999
20
32.113500000000002
10
233.68687999999997
20
45.269199999999998
10
220.53117999999998
20
40.480919999999998
0
LWPOLYLINE
5
298
100
AcDbEntity
8
0
100
AcDbPolyline
90
4
70
1
43
0.0
10
49.959130000000002
20
129.59502000000001
10
47.528050000000007
20
115.80771
10
33.740740000000002
20
118.23878000000001
10
36.171820000000004
20
132.02609000000001
0
LWPOLYLINE
5
299
100
AcDbEntity
8
0
100
AcDbPolyline
90
4
70
1
43
0.0
10
106.44046000000003
20
121.66668000000001
10
92.653149999999997
20
124.09776000000001
10
90.222070000000002
20
110.31044999999999
10
104.00937999999999
20
107.87938000000003
0
SPLINE
5
300
100
AcDbEntity
8
0
100
AcDbSpline
70
0
71
3
72
8
73
4
74
0
42
0.000000001
43
0.0000000001
44
0.0000000001
40
0
40
0
40
0
40
0
40
1
40
1
40
1
40
1
10
197.3777
20
46.887749999999997
30
0
10
196.87212000000002
20
46.887749999999997
30
0
10
196.41632000000001
20
46.583199999999998
30
0
10
196.22285000000002
20
46.116109999999999
30
0
0
SPLINE
5
301
100
AcDbEntity
8
0
100
AcDbSpline
70
0
71
3
72
8
73
4
74
0
42
0.000000001
43
0.0000000001
44
0.0000000001
40
0
40
0
40
0
40
0
40
1
40
1
40
1
40
1
10
32.747700000000002
20
127.69776000000002
30
0
10
32.24212
20
127.69776000000002
30
0
10
31.78633
20
127.39320000000001
30
0
10
31.592850000000002
20
126.92610999999999
30
0
0
SPLINE
5
302
100
AcDbEntity
8
0
100
AcDbSpline
70
0
71
3
72
8
73
4
74
0
42
0.000000001
43
0.0000000001
44
0.0000000001
40
0
40
0
40
0
40
0
40
1
40
1
40
1
40
1
10
293.36768999999998
20
71.857749999999996
30
0
10
292.86212
20
71.857749999999996
30
0
10
292.40632000000005
20
71.553200000000004
30
0
10
292.21284000000003
20
71.086109999999991
30
0
0
SPLINE
5
303
100
AcDbEntity
8
0
100
AcDbSpline
70
0
71
3
72
8
73
4
74
0
42
0.000000001
43
0.0000000001
44
0.0000000001
40
0
40
0
40
0
40
0
40
1
40
1
40
1
40
1
10
33.226050000000008
20
125.29291000000002
30
0
10
33.693150000000003
20
125.48638
30
0
10
33.997699999999995
20
125.94218000000001
30
0
10
33.997699999999995
20
126.44776000000002
30
0
0
SPLINE
5
304
100
AcDbEntity
8
0
100
AcDbSpline
70
0
71
3
72
8
73
4
74
0
42
0.000000001
43
0.0000000001
44
0.0000000001
40
0
40
0
40
0
40
0
40
1
40
1
40
1
40
1
10
158.98158000000001
20
37.607330000000005
30
0
10
158.74716000000004
20
37.841750000000005
30
0
10
158.42922000000002
20
37.97345
30
0
10
158.0977
20
37.97345
30
0
0
SPLINE
5
305
100
AcDbEntity
8
0
100
AcDbSpline
70
0
71
3
72
8
73
4
74
0
42
0.000000001
43
0.0000000001
44
0.0000000001
40
0
40
0
40
0
40
0
40
1
40
1
40
1
40
1
10
292.21284000000003
20
71.086109999999991
30
0
10
292.01937000000004
20
70.619010000000003
30
0
10
292.12630999999999
20
70.081369999999993
30
0
10
292.48381000000001
20
69.723869999999991
30
0
0
SPLINE
5
306
100
AcDbEntity
8
0
100
AcDbSpline
70
0
71
3
72
8
73
4
74
0
42
0.000000001
43
0.0000000001
44
0.0000000001
40
0
40
0
40
0
40
0
40
1
40
1
40
1
40
1
10
265.19024000000002
20
134.08831000000001
30
0
10
264.36858000000001
20
135.54494000000003
30
0
10
262.7207800000001
20
136.32876999999999
30
0
10
261.07227999999998
20
136.04716000000002
30
0
0
SPLINE
5
307
100
AcDbEntity
8
0
100
AcDbSpline
70
0
71
3
72
8
73
4
74
0
42
0.000000001
43
0.0000000001
44
0.0000000001
40
0
40
0
40
0
40
0
40
1
40
1
40
1
40
1
10
293.84604999999999
20
69.4529
30
0
10
294.31314000000003
20
69.646380000000008
30
0
10
294.61769000000004
20
70.102170000000001
30
0
10
294.61769000000004
20
70.60775000000001
30
0
0
SPLINE
5
308
100
AcDbEntity
8
0
100
AcDbSpline
70
0
71
3
72
8
73
4
74
0
42
0.000000001
43
0.0000000001
44
0.0000000001
40
0
40
0
40
0
40
0
40
1
40
1
40
1
40
1
10
158.0977
20
37.97345
30
0
10
157.59211999999999
20
37.97345
30
0
10
157.13632000000001
20
37.668889999999998
30
0
10
156.94285000000002
20
37.201800000000006
30
0
0
SPLINE
5
309
100
AcDbEntity
8
0
100
AcDbSpline
70
0
71
3
72
8
73
4
74
0
42
0.000000001
43
0.0000000001
44
0.0000000001
40
0
40
0
40
0
40
0
40
1
40
1
40
1
40
1
10
196.49381
20
44.753870000000006
30
0
10
196.85130999999998
20
44.396370000000012
30
0
10
197.38896
20
44.289430000000003
30
0
10
197.85605000000001
20
44.482900000000001
30
0
0
SPLINE
5
310
100
AcDbEntity
8
0
100
AcDbSpline
70
0
71
3
72
8
73
4
74
0
42
0.000000001
43
0.0000000001
44
0.0000000001
40
0
40
0
40
0
40
0
40
1
40
1
40
1
40
1
10
158.57605000000001
20
35.568599999999996
30
0
10
159.04315
20
35.762070000000001
30
0
10
159.3477
20
36.217870000000005
30
0
10
159.3477
20
36.723449999999993
30
0
0
SPLINE
5
311
100
AcDbEntity
8
0
100
AcDbSpline
70
0
71
3
72
8
73
4
74
0
42
0.000000001
43
0.0000000001
44
0.0000000001
40
0
40
0
40
0
40
0
40
1
40
1
40
1
40
1
10
156.94285000000002
20
37.201800000000006
30
0
10
156.74937
20
36.73471
30
0
10
156.85632000000001
20
36.19706
30
0
10
157.21381000000002
20
35.839559999999999
30
0
0
SPLINE
5
312
100
AcDbEntity
8
0
100
AcDbSpline
70
0
71
3
72
8
73
4
74
0
42
0.000000001
43
0.0000000001
44
0.0000000001
40
0
40
0
40
0
40
0
40
1
40
1
40
1
40
1
10
31.592850000000002
20
126.92610999999999
30
0
10
31.399369999999998
20
126.45902
30
0
10
31.506319999999999
20
125.92137000000001
30
0
10
31.863820000000004
20
125.56387000000001
30
0
0
SPLINE
5
313
100
AcDbEntity
8
0
100
AcDbSpline
70
0
71
3
72
8
73
4
74
0
42
0.000000001
43
0.0000000001
44
0.0000000001
40
0
40
0
40
0
40
0
40
1
40
1
40
1
40
1
10
198.62770000000006
20
45.637749999999997
30
0
10
198.62770000000006
20
45.969270000000002
30
0
10
198.49600000000004
20
46.287219999999998
30
0
10
198.26157999999998
20
46.521639999999998
30
0
0
SPLINE
5
314
100
AcDbEntity
8
0
100
AcDbSpline
70
0
71
3
72
8
73
4
74
0
42
0.000000001
43
0.0000000001
44
0.0000000001
40
0
40
0
40
0
40
0
40
1
40
1
40
1
40
1
10
157.21381000000002
20
35.839559999999999
30
0
10
157.57130999999998
20
35.482060000000004
30
0
10
158.10896000000002
20
35.375120000000003
30
0
10
158.57605000000001
20
35.568599999999996
30
0
0
SPLINE
5
315
100
AcDbEntity
8
0
100
AcDbSpline
70
0
71
3
72
8
73
4
74
0
42
0.000000001
43
0.0000000001
44
0.0000000001
40
0
40
0
40
0
40
0
40
1
40
1
40
1
40
1
10
197.85605000000001
20
44.482900000000001
30
0
10
198.32314000000002
20
44.676380000000009
30
0
10
198.62770000000006
20
45.132170000000009
30
0
10
198.62770000000006
20
45.637749999999997
30
0
0
SPLINE
5
316
100
AcDbEntity
8
0
100
AcDbSpline
70
0
71
3
72
8
73
4
74
0
42
0.000000001
43
0.0000000001
44
0.0000000001
40
0
40
0
40
0
40
0
40
1
40
1
40
1
40
1
10
159.3477
20
36.723449999999993
30
0
10
159.3477
20
37.054970000000004
30
0
10
159.21600000000001
20
37.372910000000005
30
0
10
158.98158000000001
20
37.607330000000005
30
0
0
SPLINE
5
317
100
AcDbEntity
8
0
100
AcDbSpline
70
0
71
3
72
8
73
4
74
0
42
0.000000001
43
0.0000000001
44
0.0000000001
40
0
40
0
40
0
40
0
40
1
40
1
40
1
40
1
10
31.863820000000004
20
125.56387000000001
30
0
10
32.221310000000003
20
125.20638000000002
30
0
10
32.758960000000002
20
125.09943000000001
30
0
10
33.226050000000008
20
125.29291000000002
30
0
0
SPLINE
5
318
100
AcDbEntity
8
0
100
AcDbSpline
70
0
71
3
72
8
73
4
74
0
42
0.000000001
43
0.0000000001
44
0.0000000001
40
0
40
0
40
0
40
0
40
1
40
1
40
1
40
1
10
294.61769000000004
20
70.60775000000001
30
0
10
294.61769000000004
20
70.939270000000008
30
0
10
294.48600000000005
20
71.257210000000001
30
0
10
294.25158000000005
20
71.491630000000001
30
0
0
SPLINE
5
319
100
AcDbEntity
8
0
100
AcDbSpline
70
0
71
3
72
8
73
4
74
0
42
0.000000001
43
0.0000000001
44
0.0000000001
40
0
40
0
40
0
40
0
40
1
40
1
40
1
40
1
10
294.25158000000005
20
71.491630000000001
30
0
10
294.01715999999999
20
71.726050000000015
30
0
10
293.69921000000005
20
71.857749999999996
30
0
10
293.36768999999998
20
71.857749999999996
30
0
0
SPLINE
5
320
100
AcDbEntity
8
0
100
AcDbSpline
70
0
71
3
72
8
73
4
74
0
42
0.000000001
43
0.0000000001
44
0.0000000001
40
0
40
0
40
0
40
0
40
1
40
1
40
1
40
1
10
198.26157999999998
20
46.521639999999998
30
0
10
198.02716000000001
20
46.756060000000005
30
0
10
197.70921999999999
20
46.887749999999997
30
0
10
197.3777
20
46.887749999999997
30
0
0
SPLINE
5
321
100
AcDbEntity
8
0
100
AcDbSpline
70
0
71
3
72
8
73
4
74
0
42
0.000000001
43
0.0000000001
44
0.0000000001
40
0
40
0
40
0
40
0
40
1
40
1
40
1
40
1
10
292.48381000000001
20
69.723869999999991
30
0
10
292.84131000000002
20
69.366370000000003
30
0
10
293.37896000000006
20
69.259430000000009
30
0
10
293.84604999999999
20
69.4529
30
0
0
SPLINE
5
322
100
AcDbEntity
8
0
100
AcDbSpline
70
0
71
3
72
8
73
4
74
0
42
0.000000001
43
0.0000000001
44
0.0000000001
40
0
40
0
40
0
40
0
40
1
40
1
40
1
40
1
10
225.82020000000003
20
133.83432999999999
30
0
10
223.63385999999997
20
133.46077000000002
30
0
10
222.16429000000005
20
131.38557000000003
30
0
10
222.53781000000001
20
129.19922000000003
30
0
0
SPLINE
5
323
100
AcDbEntity
8
0
100
AcDbSpline
70
0
71
3
72
8
73
4
74
0
42
0.000000001
43
0.0000000001
44
0.0000000001
40
0
40
0
40
0
40
0
40
1
40
1
40
1
40
1
10
196.22285000000002
20
46.116109999999999
30
0
10
196.02937000000003
20
45.649009999999997
30
0
10
196.13632000000001
20
45.111370000000008
30
0
10
196.49381
20
44.753870000000006
30
0
0
ENDSEC
0
SECTION
2
OBJECTS
0
DICTIONARY
5
C
100
AcDbDictionary
3
ACAD_GROUP
350
D
3
ACAD_MLINESTYLE
350
17
0
DICTIONARY
5
D
100
AcDbDictionary
0
DICTIONARY
5
1A
330
C
100
AcDbDictionary
0
DICTIONARY
5
17
100
AcDbDictionary
0
ENDSEC
0
EOF
