  0
SECTION
  2
HEADER
  9
$ACADVER
  1
AC1014
  9
$HANDSEED
  5
FFFF
  9
$INSUNITS
 70
     4
  9
$MEASUREMENT
 70
     1
  0
ENDSEC
  0
SECTION
  2
TABLES
  0
TABLE
  2
VPORT
  5
8
330
0
100
AcDbSymbolTable
 70
     4
  0
VPORT
  5
2E
330
8
100
AcDbSymbolTableRecord
100
AcDbViewportTableRecord
  2
*ACTIVE
 70
     0
 10
0.0
 20
0.0
 11
1.0
 21
1.0
 12
210.0
 22
148.5
 13
0.0
 23
0.0
 14
10.0
 24
10.0
 15
10.0
 25
10.0
 16
0.0
 26
0.0
 36
1.0
 17
0.0
 27
0.0
 37
0.0
 40
341.0
 41
1.24
 42
50.0
 43
0.0
 44
0.0
 50
0.0
 51
0.0
 71
     0
 72
   100
 73
     1
 74
     3
 75
     0
 76
     0
 77
     0
 78
     0
  0
ENDTAB
  0
TABLE
  2
LTYPE
  5
5
330
0
100
AcDbSymbolTable
 70
     1
  0
LTYPE
  5
14
330
5
100
AcDbSymbolTableRecord
100
AcDbLinetypeTableRecord
  2
BYBLOCK
 70
     0
  3

 72
    65
 73
     0
 40
0.0
  0
LTYPE
  5
15
330
5
100
AcDbSymbolTableRecord
100
AcDbLinetypeTableRecord
  2
BYLAYER
 70
     0
  3

 72
    65
 73
     0
 40
0.0
  0
LTYPE
  5
16
330
5
100
AcDbSymbolTableRecord
100
AcDbLinetypeTableRecord
  2
CONTINUOUS
 70
     0
  3
Solid line
 72
    65
 73
     0
 40
0.0
  0
ENDTAB
  0
TABLE
  2
LAYER
  5
2
100
AcDbSymbolTable
 70
1
  0
LAYER
  5
50
100
AcDbSymbolTableRecord
100
AcDbLayerTableRecord
  2
0
 70
0
  6
CONTINUOUS
  0
ENDTAB
  0
TABLE
  2
STYLE
  5
3
330
0
100
AcDbSymbolTable
 70
     1
  0
STYLE
  5
11
330
3
100
AcDbSymbolTableRecord
100
AcDbTextStyleTableRecord
  2
STANDARD
 70
     0
 40
0.0
 41
1.0
 50
0.0
 71
     0
 42
2.5
  3
txt
  4

  0
ENDTAB
  0
TABLE
  2
VIEW
  5
6
330
0
100
AcDbSymbolTable
 70
     0
  0
ENDTAB
  0
TABLE
  2
UCS
  5
7
330
0
100
AcDbSymbolTable
 70
     0
  0
ENDTAB
  0
TABLE
  2
APPID
  5
9
330
0
100
AcDbSymbolTable
 70
     2
  0
APPID
  5
12
330
9
100
AcDbSymbolTableRecord
100
AcDbRegAppTableRecord
  2
ACAD
 70
     0
  0
ENDTAB
  0
TABLE
  2
DIMSTYLE
  5
A
330
0
100
AcDbSymbolTable
 70
     1
  0
DIMSTYLE
105
27
330
A
100
AcDbSymbolTableRecord
100
AcDbDimStyleTableRecord
  2
ISO-25
 70
     0
  3

  4

  5

  6

  7

 40
1.0
 41
2.5
 42
0.625
 43
3.75
 44
1.25
 45
0.0
 46
0.0
 47
0.0
 48
0.0
140
2.5
141
2.5
142
0.0
143
0.03937007874016
144
1.0
145
0.0
146
1.0
147
0.625
 71
     0
 72
     0
 73
     0
 74
     0
 75
     0
 76
     0
 77
     1
 78
     8
170
     0
171
     3
172
     1
173
     0
174
     0
175
     0
176
     0
177
     0
178
     0
270
     2
271
     2
272
     2
273
     2
274
     3
340
11
275
     0
280
     0
281
     0
282
     0
283
     0
284
     8
285
     0
286
     0
287
     3
288
     0
  0
ENDTAB
  0
TABLE
  2
BLOCK_RECORD
  5
1
330
0
100
AcDbSymbolTable
 70
     1
  0
BLOCK_RECORD
  5
1F
330
1
100
AcDbSymbolTableRecord
100
AcDbBlockTableRecord
  2
*MODEL_SPACE
  0
BLOCK_RECORD
  5
1B
330
1
100
AcDbSymbolTableRecord
100
AcDbBlockTableRecord
  2
*PAPER_SPACE
  0
ENDTAB
  0
ENDSEC
  0
SECTION
  2
BLOCKS
  0
BLOCK
  5
20
330
1F
100
AcDbEntity
  8
0
100
AcDbBlockBegin
  2
*MODEL_SPACE
 70
     0
 10
0.0
 20
0.0
 30
0.0
  3
*MODEL_SPACE
  1

  0
ENDBLK
  5
21
330
1F
100
AcDbEntity
  8
0
100
AcDbBlockEnd
  0
BLOCK
  5
1C
330
1B
100
AcDbEntity
 67
     1
  8
0
100
AcDbBlockBegin
  2
*PAPER_SPACE
  1

  0
ENDBLK
  5
1D
330
1B
100
AcDbEntity
 67
     1
  8
0
100
AcDbBlockEnd
  0
ENDSEC
  0
SECTION
  2
ENTITIES
  0
SPLINE
  5
100
100
AcDbEntity
  8
0
 62
7
100
AcDbSpline
 70
8
 71
3
 72
8
 73
4
 74
0
 40
0
 40
0
 40
0
 40
0
 40
1
 40
1
 40
1
 40
1
 10
19.737770
 20
4.688775
 30
0.0
 10
19.687212
 20
4.688775
 30
0.0
 10
19.641632
 20
4.658320
 30
0.0
 10
19.622285
 20
4.611611
 30
0.0
  0
SPLINE
  5
101
100
AcDbEntity
  8
0
 62
7
100
AcDbSpline
 70
8
 71
3
 72
8
 73
4
 74
0
 40
0
 40
0
 40
0
 40
0
 40
1
 40
1
 40
1
 40
1
 10
19.622285
 20
4.611611
 30
0.0
 10
19.602937
 20
4.564901
 30
0.0
 10
19.613632
 20
4.511137
 30
0.0
 10
19.649381
 20
4.475387
 30
0.0
  0
SPLINE
  5
102
100
AcDbEntity
  8
0
 62
7
100
AcDbSpline
 70
8
 71
3
 72
8
 73
4
 74
0
 40
0
 40
0
 40
0
 40
0
 40
1
 40
1
 40
1
 40
1
 10
19.649381
 20
4.475387
 30
0.0
 10
19.685131
 20
4.439637
 30
0.0
 10
19.738896
 20
4.428943
 30
0.0
 10
19.785605
 20
4.448290
 30
0.0
  0
SPLINE
  5
103
100
AcDbEntity
  8
0
 62
7
100
AcDbSpline
 70
8
 71
3
 72
8
 73
4
 74
0
 40
0
 40
0
 40
0
 40
0
 40
1
 40
1
 40
1
 40
1
 10
19.785605
 20
4.448290
 30
0.0
 10
19.832314
 20
4.467638
 30
0.0
 10
19.862770
 20
4.513217
 30
0.0
 10
19.862770
 20
4.563775
 30
0.0
  0
SPLINE
  5
104
100
AcDbEntity
  8
0
 62
7
100
AcDbSpline
 70
8
 71
3
 72
8
 73
4
 74
0
 40
0
 40
0
 40
0
 40
0
 40
1
 40
1
 40
1
 40
1
 10
19.862770
 20
4.563775
 30
0.0
 10
19.862770
 20
4.596927
 30
0.0
 10
19.849600
 20
4.628722
 30
0.0
 10
19.826158
 20
4.652164
 30
0.0
  0
SPLINE
  5
105
100
AcDbEntity
  8
0
 62
7
100
AcDbSpline
 70
8
 71
3
 72
8
 73
4
 74
0
 40
0
 40
0
 40
0
 40
0
 40
1
 40
1
 40
1
 40
1
 10
19.826158
 20
4.652164
 30
0.0
 10
19.802716
 20
4.675606
 30
0.0
 10
19.770922
 20
4.688775
 30
0.0
 10
19.737770
 20
4.688775
 30
0.0
  0
SPLINE
  5
106
100
AcDbEntity
  8
0
 62
7
100
AcDbSpline
 70
8
 71
3
 72
8
 73
4
 74
0
 40
0
 40
0
 40
0
 40
0
 40
1
 40
1
 40
1
 40
1
 10
29.336769
 20
7.185775
 30
0.0
 10
29.286212
 20
7.185775
 30
0.0
 10
29.240632
 20
7.155320
 30
0.0
 10
29.221284
 20
7.108611
 30
0.0
  0
SPLINE
  5
107
100
AcDbEntity
  8
0
 62
7
100
AcDbSpline
 70
8
 71
3
 72
8
 73
4
 74
0
 40
0
 40
0
 40
0
 40
0
 40
1
 40
1
 40
1
 40
1
 10
29.221284
 20
7.108611
 30
0.0
 10
29.201937
 20
7.061901
 30
0.0
 10
29.212631
 20
7.008137
 30
0.0
 10
29.248381
 20
6.972387
 30
0.0
  0
SPLINE
  5
108
100
AcDbEntity
  8
0
 62
7
100
AcDbSpline
 70
8
 71
3
 72
8
 73
4
 74
0
 40
0
 40
0
 40
0
 40
0
 40
1
 40
1
 40
1
 40
1
 10
29.248381
 20
6.972387
 30
0.0
 10
29.284131
 20
6.936637
 30
0.0
 10
29.337896
 20
6.925943
 30
0.0
 10
29.384605
 20
6.945290
 30
0.0
  0
SPLINE
  5
109
100
AcDbEntity
  8
0
 62
7
100
AcDbSpline
 70
8
 71
3
 72
8
 73
4
 74
0
 40
0
 40
0
 40
0
 40
0
 40
1
 40
1
 40
1
 40
1
 10
29.384605
 20
6.945290
 30
0.0
 10
29.431314
 20
6.964638
 30
0.0
 10
29.461769
 20
7.010217
 30
0.0
 10
29.461769
 20
7.060775
 30
0.0
  0
SPLINE
  5
10a
100
AcDbEntity
  8
0
 62
7
100
AcDbSpline
 70
8
 71
3
 72
8
 73
4
 74
0
 40
0
 40
0
 40
0
 40
0
 40
1
 40
1
 40
1
 40
1
 10
29.461769
 20
7.060775
 30
0.0
 10
29.461769
 20
7.093927
 30
0.0
 10
29.448600
 20
7.125721
 30
0.0
 10
29.425158
 20
7.149163
 30
0.0
  0
SPLINE
  5
10b
100
AcDbEntity
  8
0
 62
7
100
AcDbSpline
 70
8
 71
3
 72
8
 73
4
 74
0
 40
0
 40
0
 40
0
 40
0
 40
1
 40
1
 40
1
 40
1
 10
29.425158
 20
7.149163
 30
0.0
 10
29.401716
 20
7.172605
 30
0.0
 10
29.369921
 20
7.185775
 30
0.0
 10
29.336769
 20
7.185775
 30
0.0
  0
LWPOLYLINE
  5
10c
100
AcDbEntity
  8
0
 62
7
100
AcDbPolyline
 90
1
 70
1
 10
19.737770
 20
4.688775
 30
0.0
  0
SPLINE
  5
10d
100
AcDbEntity
  8
0
 62
7
100
AcDbSpline
 70
8
 71
3
 72
8
 73
4
 74
0
 40
0
 40
0
 40
0
 40
0
 40
1
 40
1
 40
1
 40
1
 10
15.809770
 20
3.797345
 30
0.0
 10
15.759212
 20
3.797345
 30
0.0
 10
15.713632
 20
3.766889
 30
0.0
 10
15.694285
 20
3.720180
 30
0.0
  0
SPLINE
  5
10e
100
AcDbEntity
  8
0
 62
7
100
AcDbSpline
 70
8
 71
3
 72
8
 73
4
 74
0
 40
0
 40
0
 40
0
 40
0
 40
1
 40
1
 40
1
 40
1
 10
15.694285
 20
3.720180
 30
0.0
 10
15.674937
 20
3.673471
 30
0.0
 10
15.685632
 20
3.619706
 30
0.0
 10
15.721381
 20
3.583956
 30
0.0
  0
SPLINE
  5
10f
100
AcDbEntity
  8
0
 62
7
100
AcDbSpline
 70
8
 71
3
 72
8
 73
4
 74
0
 40
0
 40
0
 40
0
 40
0
 40
1
 40
1
 40
1
 40
1
 10
15.721381
 20
3.583956
 30
0.0
 10
15.757131
 20
3.548206
 30
0.0
 10
15.810896
 20
3.537512
 30
0.0
 10
15.857605
 20
3.556860
 30
0.0
  0
SPLINE
  5
110
100
AcDbEntity
  8
0
 62
7
100
AcDbSpline
 70
8
 71
3
 72
8
 73
4
 74
0
 40
0
 40
0
 40
0
 40
0
 40
1
 40
1
 40
1
 40
1
 10
15.857605
 20
3.556860
 30
0.0
 10
15.904315
 20
3.576207
 30
0.0
 10
15.934770
 20
3.621787
 30
0.0
 10
15.934770
 20
3.672345
 30
0.0
  0
SPLINE
  5
111
100
AcDbEntity
  8
0
 62
7
100
AcDbSpline
 70
8
 71
3
 72
8
 73
4
 74
0
 40
0
 40
0
 40
0
 40
0
 40
1
 40
1
 40
1
 40
1
 10
15.934770
 20
3.672345
 30
0.0
 10
15.934770
 20
3.705497
 30
0.0
 10
15.921600
 20
3.737291
 30
0.0
 10
15.898158
 20
3.760733
 30
0.0
  0
SPLINE
  5
112
100
AcDbEntity
  8
0
 62
7
100
AcDbSpline
 70
8
 71
3
 72
8
 73
4
 74
0
 40
0
 40
0
 40
0
 40
0
 40
1
 40
1
 40
1
 40
1
 10
15.898158
 20
3.760733
 30
0.0
 10
15.874716
 20
3.784175
 30
0.0
 10
15.842922
 20
3.797345
 30
0.0
 10
15.809770
 20
3.797345
 30
0.0
  0
LWPOLYLINE
  5
113
100
AcDbEntity
  8
0
 62
7
100
AcDbPolyline
 90
1
 70
1
 10
29.336769
 20
7.185775
 30
0.0
  0
SPLINE
  5
114
100
AcDbEntity
  8
0
 62
7
100
AcDbSpline
 70
8
 71
3
 72
8
 73
4
 74
0
 40
0
 40
0
 40
0
 40
0
 40
1
 40
1
 40
1
 40
1
 10
3.274770
 20
12.769776
 30
0.0
 10
3.224212
 20
12.769776
 30
0.0
 10
3.178633
 20
12.739320
 30
0.0
 10
3.159285
 20
12.692611
 30
0.0
  0
SPLINE
  5
115
100
AcDbEntity
  8
0
 62
7
100
AcDbSpline
 70
8
 71
3
 72
8
 73
4
 74
0
 40
0
 40
0
 40
0
 40
0
 40
1
 40
1
 40
1
 40
1
 10
3.159285
 20
12.692611
 30
0.0
 10
3.139937
 20
12.645902
 30
0.0
 10
3.150632
 20
12.592137
 30
0.0
 10
3.186382
 20
12.556387
 30
0.0
  0
SPLINE
  5
116
100
AcDbEntity
  8
0
 62
7
100
AcDbSpline
 70
8
 71
3
 72
8
 73
4
 74
0
 40
0
 40
0
 40
0
 40
0
 40
1
 40
1
 40
1
 40
1
 10
3.186382
 20
12.556387
 30
0.0
 10
3.222131
 20
12.520638
 30
0.0
 10
3.275896
 20
12.509943
 30
0.0
 10
3.322605
 20
12.529291
 30
0.0
  0
SPLINE
  5
117
100
AcDbEntity
  8
0
 62
7
100
AcDbSpline
 70
8
 71
3
 72
8
 73
4
 74
0
 40
0
 40
0
 40
0
 40
0
 40
1
 40
1
 40
1
 40
1
 10
3.322605
 20
12.529291
 30
0.0
 10
3.369315
 20
12.548638
 30
0.0
 10
3.399770
 20
12.594218
 30
0.0
 10
3.399770
 20
12.644776
 30
0.0
  0
SPLINE
  5
118
100
AcDbEntity
  8
0
 62
7
100
AcDbSpline
 70
8
 71
3
 72
8
 73
4
 74
0
 40
0
 40
0
 40
0
 40
0
 40
1
 40
1
 40
1
 40
1
 10
3.399770
 20
12.644776
 30
0.0
 10
3.399770
 20
12.677928
 30
0.0
 10
3.386600
 20
12.709722
 30
0.0
 10
3.363158
 20
12.733164
 30
0.0
  0
SPLINE
  5
119
100
AcDbEntity
  8
0
 62
7
100
AcDbSpline
 70
8
 71
3
 72
8
 73
4
 74
0
 40
0
 40
0
 40
0
 40
0
 40
1
 40
1
 40
1
 40
1
 10
3.363158
 20
12.733164
 30
0.0
 10
3.339716
 20
12.756606
 30
0.0
 10
3.307922
 20
12.769776
 30
0.0
 10
3.274770
 20
12.769776
 30
0.0
  0
LWPOLYLINE
  5
11a
100
AcDbEntity
  8
0
 62
7
100
AcDbPolyline
 90
1
 70
1
 10
15.809770
 20
3.797345
 30
0.0
  0
SPLINE
  5
11b
100
AcDbEntity
  8
0
 62
7
100
AcDbSpline
 70
8
 71
3
 72
8
 73
4
 74
0
 40
0
 40
0
 40
0
 40
0
 40
1
 40
1
 40
1
 40
1
 10
19.042770
 20
10.829776
 30
0.0
 10
18.992212
 20
10.829776
 30
0.0
 10
18.946632
 20
10.799320
 30
0.0
 10
18.927285
 20
10.752611
 30
0.0
  0
SPLINE
  5
11c
100
AcDbEntity
  8
0
 62
7
100
AcDbSpline
 70
8
 71
3
 72
8
 73
4
 74
0
 40
0
 40
0
 40
0
 40
0
 40
1
 40
1
 40
1
 40
1
 10
18.927285
 20
10.752611
 30
0.0
 10
18.907937
 20
10.705902
 30
0.0
 10
18.918631
 20
10.652137
 30
0.0
 10
18.954381
 20
10.616387
 30
0.0
  0
SPLINE
  5
11d
100
AcDbEntity
  8
0
 62
7
100
AcDbSpline
 70
8
 71
3
 72
8
 73
4
 74
0
 40
0
 40
0
 40
0
 40
0
 40
1
 40
1
 40
1
 40
1
 10
18.954381
 20
10.616387
 30
0.0
 10
18.990131
 20
10.580637
 30
0.0
 10
19.043896
 20
10.569943
 30
0.0
 10
19.090605
 20
10.589291
 30
0.0
  0
SPLINE
  5
11e
100
AcDbEntity
  8
0
 62
7
100
AcDbSpline
 70
8
 71
3
 72
8
 73
4
 74
0
 40
0
 40
0
 40
0
 40
0
 40
1
 40
1
 40
1
 40
1
 10
19.090605
 20
10.589291
 30
0.0
 10
19.137314
 20
10.608638
 30
0.0
 10
19.167770
 20
10.654218
 30
0.0
 10
19.167770
 20
10.704776
 30
0.0
  0
SPLINE
  5
11f
100
AcDbEntity
  8
0
 62
7
100
AcDbSpline
 70
8
 71
3
 72
8
 73
4
 74
0
 40
0
 40
0
 40
0
 40
0
 40
1
 40
1
 40
1
 40
1
 10
19.167770
 20
10.704776
 30
0.0
 10
19.167770
 20
10.737928
 30
0.0
 10
19.154600
 20
10.769722
 30
0.0
 10
19.131158
 20
10.793164
 30
0.0
  0
SPLINE
  5
120
100
AcDbEntity
  8
0
 62
7
100
AcDbSpline
 70
8
 71
3
 72
8
 73
4
 74
0
 40
0
 40
0
 40
0
 40
0
 40
1
 40
1
 40
1
 40
1
 10
19.131158
 20
10.793164
 30
0.0
 10
19.107716
 20
10.816606
 30
0.0
 10
19.075922
 20
10.829776
 30
0.0
 10
19.042770
 20
10.829776
 30
0.0
  0
LWPOLYLINE
  5
121
100
AcDbEntity
  8
0
 62
7
100
AcDbPolyline
 90
1
 70
1
 10
3.274770
 20
12.769776
 30
0.0
  0
SPLINE
  5
122
100
AcDbEntity
  8
0
 62
7
100
AcDbSpline
 70
8
 71
3
 72
8
 73
4
 74
0
 40
0
 40
0
 40
0
 40
0
 40
1
 40
1
 40
1
 40
1
 10
12.597770
 20
10.929776
 30
0.0
 10
12.547212
 20
10.929776
 30
0.0
 10
12.501633
 20
10.899320
 30
0.0
 10
12.482285
 20
10.852611
 30
0.0
  0
SPLINE
  5
123
100
AcDbEntity
  8
0
 62
7
100
AcDbSpline
 70
8
 71
3
 72
8
 73
4
 74
0
 40
0
 40
0
 40
0
 40
0
 40
1
 40
1
 40
1
 40
1
 10
12.482285
 20
10.852611
 30
0.0
 10
12.462937
 20
10.805902
 30
0.0
 10
12.473632
 20
10.752137
 30
0.0
 10
12.509382
 20
10.716387
 30
0.0
  0
SPLINE
  5
124
100
AcDbEntity
  8
0
 62
7
100
AcDbSpline
 70
8
 71
3
 72
8
 73
4
 74
0
 40
0
 40
0
 40
0
 40
0
 40
1
 40
1
 40
1
 40
1
 10
12.509382
 20
10.716387
 30
0.0
 10
12.545131
 20
10.680638
 30
0.0
 10
12.598896
 20
10.669943
 30
0.0
 10
12.645605
 20
10.689291
 30
0.0
  0
SPLINE
  5
125
100
AcDbEntity
  8
0
 62
7
100
AcDbSpline
 70
8
 71
3
 72
8
 73
4
 74
0
 40
0
 40
0
 40
0
 40
0
 40
1
 40
1
 40
1
 40
1
 10
12.645605
 20
10.689291
 30
0.0
 10
12.692315
 20
10.708638
 30
0.0
 10
12.722770
 20
10.754218
 30
0.0
 10
12.722770
 20
10.804776
 30
0.0
  0
SPLINE
  5
126
100
AcDbEntity
  8
0
 62
7
100
AcDbSpline
 70
8
 71
3
 72
8
 73
4
 74
0
 40
0
 40
0
 40
0
 40
0
 40
1
 40
1
 40
1
 40
1
 10
12.722770
 20
10.804776
 30
0.0
 10
12.722770
 20
10.837928
 30
0.0
 10
12.709600
 20
10.869722
 30
0.0
 10
12.686158
 20
10.893164
 30
0.0
  0
SPLINE
  5
127
100
AcDbEntity
  8
0
 62
7
100
AcDbSpline
 70
8
 71
3
 72
8
 73
4
 74
0
 40
0
 40
0
 40
0
 40
0
 40
1
 40
1
 40
1
 40
1
 10
12.686158
 20
10.893164
 30
0.0
 10
12.662716
 20
10.916606
 30
0.0
 10
12.630922
 20
10.929776
 30
0.0
 10
12.597770
 20
10.929776
 30
0.0
  0
LWPOLYLINE
  5
128
100
AcDbEntity
  8
0
 62
7
100
AcDbPolyline
 90
1
 70
1
 10
19.042770
 20
10.829776
 30
0.0
  0
SPLINE
  5
129
100
AcDbEntity
  8
0
 62
7
100
AcDbSpline
 70
8
 71
3
 72
8
 73
4
 74
0
 40
0
 40
0
 40
0
 40
0
 40
1
 40
1
 40
1
 40
1
 10
11.736770
 20
4.693775
 30
0.0
 10
11.686212
 20
4.693775
 30
0.0
 10
11.640632
 20
4.663320
 30
0.0
 10
11.621285
 20
4.616611
 30
0.0
  0
SPLINE
  5
12a
100
AcDbEntity
  8
0
 62
7
100
AcDbSpline
 70
8
 71
3
 72
8
 73
4
 74
0
 40
0
 40
0
 40
0
 40
0
 40
1
 40
1
 40
1
 40
1
 10
11.621285
 20
4.616611
 30
0.0
 10
11.601937
 20
4.569902
 30
0.0
 10
11.612631
 20
4.516137
 30
0.0
 10
11.648381
 20
4.480387
 30
0.0
  0
SPLINE
  5
12b
100
AcDbEntity
  8
0
 62
7
100
AcDbSpline
 70
8
 71
3
 72
8
 73
4
 74
0
 40
0
 40
0
 40
0
 40
0
 40
1
 40
1
 40
1
 40
1
 10
11.648381
 20
4.480387
 30
0.0
 10
11.684131
 20
4.444637
 30
0.0
 10
11.737896
 20
4.433943
 30
0.0
 10
11.784605
 20
4.453290
 30
0.0
  0
SPLINE
  5
12c
100
AcDbEntity
  8
0
 62
7
100
AcDbSpline
 70
8
 71
3
 72
8
 73
4
 74
0
 40
0
 40
0
 40
0
 40
0
 40
1
 40
1
 40
1
 40
1
 10
11.784605
 20
4.453290
 30
0.0
 10
11.831314
 20
4.472638
 30
0.0
 10
11.861770
 20
4.518218
 30
0.0
 10
11.861770
 20
4.568775
 30
0.0
  0
SPLINE
  5
12d
100
AcDbEntity
  8
0
 62
7
100
AcDbSpline
 70
8
 71
3
 72
8
 73
4
 74
0
 40
0
 40
0
 40
0
 40
0
 40
1
 40
1
 40
1
 40
1
 10
11.861770
 20
4.568775
 30
0.0
 10
11.861770
 20
4.601927
 30
0.0
 10
11.848600
 20
4.633722
 30
0.0
 10
11.825158
 20
4.657164
 30
0.0
  0
SPLINE
  5
12e
100
AcDbEntity
  8
0
 62
7
100
AcDbSpline
 70
8
 71
3
 72
8
 73
4
 74
0
 40
0
 40
0
 40
0
 40
0
 40
1
 40
1
 40
1
 40
1
 10
11.825158
 20
4.657164
 30
0.0
 10
11.801716
 20
4.680606
 30
0.0
 10
11.769922
 20
4.693775
 30
0.0
 10
11.736770
 20
4.693775
 30
0.0
  0
LWPOLYLINE
  5
12f
100
AcDbEntity
  8
0
 62
7
100
AcDbPolyline
 90
1
 70
1
 10
12.597770
 20
10.929776
 30
0.0
  0
SPLINE
  5
130
100
AcDbEntity
  8
0
 62
7
100
AcDbSpline
 70
8
 71
3
 72
8
 73
4
 74
0
 40
0
 40
0
 40
0
 40
0
 40
1
 40
1
 40
1
 40
1
 10
7.659770
 20
4.171776
 30
0.0
 10
7.609212
 20
4.171776
 30
0.0
 10
7.563632
 20
4.141320
 30
0.0
 10
7.544285
 20
4.094611
 30
0.0
  0
SPLINE
  5
131
100
AcDbEntity
  8
0
 62
7
100
AcDbSpline
 70
8
 71
3
 72
8
 73
4
 74
0
 40
0
 40
0
 40
0
 40
0
 40
1
 40
1
 40
1
 40
1
 10
7.544285
 20
4.094611
 30
0.0
 10
7.524937
 20
4.047902
 30
0.0
 10
7.535632
 20
3.994137
 30
0.0
 10
7.571381
 20
3.958387
 30
0.0
  0
SPLINE
  5
132
100
AcDbEntity
  8
0
 62
7
100
AcDbSpline
 70
8
 71
3
 72
8
 73
4
 74
0
 40
0
 40
0
 40
0
 40
0
 40
1
 40
1
 40
1
 40
1
 10
7.571381
 20
3.958387
 30
0.0
 10
7.607131
 20
3.922638
 30
0.0
 10
7.660896
 20
3.911943
 30
0.0
 10
7.707605
 20
3.931291
 30
0.0
  0
SPLINE
  5
133
100
AcDbEntity
  8
0
 62
7
100
AcDbSpline
 70
8
 71
3
 72
8
 73
4
 74
0
 40
0
 40
0
 40
0
 40
0
 40
1
 40
1
 40
1
 40
1
 10
7.707605
 20
3.931291
 30
0.0
 10
7.754314
 20
3.950638
 30
0.0
 10
7.784770
 20
3.996218
 30
0.0
 10
7.784770
 20
4.046776
 30
0.0
  0
SPLINE
  5
134
100
AcDbEntity
  8
0
 62
7
100
AcDbSpline
 70
8
 71
3
 72
8
 73
4
 74
0
 40
0
 40
0
 40
0
 40
0
 40
1
 40
1
 40
1
 40
1
 10
7.784770
 20
4.046776
 30
0.0
 10
7.784770
 20
4.079928
 30
0.0
 10
7.771600
 20
4.111722
 30
0.0
 10
7.748158
 20
4.135164
 30
0.0
  0
SPLINE
  5
135
100
AcDbEntity
  8
0
 62
7
100
AcDbSpline
 70
8
 71
3
 72
8
 73
4
 74
0
 40
0
 40
0
 40
0
 40
0
 40
1
 40
1
 40
1
 40
1
 10
7.748158
 20
4.135164
 30
0.0
 10
7.724716
 20
4.158606
 30
0.0
 10
7.692922
 20
4.171776
 30
0.0
 10
7.659770
 20
4.171776
 30
0.0
  0
LWPOLYLINE
  5
136
100
AcDbEntity
  8
0
 62
7
100
AcDbPolyline
 90
1
 70
1
 10
11.736770
 20
4.693775
 30
0.0
  0
SPLINE
  5
137
100
AcDbEntity
  8
0
 62
7
100
AcDbSpline
 70
8
 71
3
 72
8
 73
4
 74
0
 40
0
 40
0
 40
0
 40
0
 40
1
 40
1
 40
1
 40
1
 10
23.317770
 20
8.523775
 30
0.0
 10
23.267212
 20
8.523775
 30
0.0
 10
23.221632
 20
8.493320
 30
0.0
 10
23.202285
 20
8.446611
 30
0.0
  0
SPLINE
  5
138
100
AcDbEntity
  8
0
 62
7
100
AcDbSpline
 70
8
 71
3
 72
8
 73
4
 74
0
 40
0
 40
0
 40
0
 40
0
 40
1
 40
1
 40
1
 40
1
 10
23.202285
 20
8.446611
 30
0.0
 10
23.182937
 20
8.399902
 30
0.0
 10
23.193631
 20
8.346137
 30
0.0
 10
23.229381
 20
8.310387
 30
0.0
  0
SPLINE
  5
139
100
AcDbEntity
  8
0
 62
7
100
AcDbSpline
 70
8
 71
3
 72
8
 73
4
 74
0
 40
0
 40
0
 40
0
 40
0
 40
1
 40
1
 40
1
 40
1
 10
23.229381
 20
8.310387
 30
0.0
 10
23.265131
 20
8.274637
 30
0.0
 10
23.318896
 20
8.263943
 30
0.0
 10
23.365605
 20
8.283290
 30
0.0
  0
SPLINE
  5
13a
100
AcDbEntity
  8
0
 62
7
100
AcDbSpline
 70
8
 71
3
 72
8
 73
4
 74
0
 40
0
 40
0
 40
0
 40
0
 40
1
 40
1
 40
1
 40
1
 10
23.365605
 20
8.283290
 30
0.0
 10
23.412314
 20
8.302638
 30
0.0
 10
23.442770
 20
8.348218
 30
0.0
 10
23.442770
 20
8.398775
 30
0.0
  0
SPLINE
  5
13b
100
AcDbEntity
  8
0
 62
7
100
AcDbSpline
 70
8
 71
3
 72
8
 73
4
 74
0
 40
0
 40
0
 40
0
 40
0
 40
1
 40
1
 40
1
 40
1
 10
23.442770
 20
8.398775
 30
0.0
 10
23.442770
 20
8.431927
 30
0.0
 10
23.429600
 20
8.463722
 30
0.0
 10
23.406158
 20
8.487164
 30
0.0
  0
SPLINE
  5
13c
100
AcDbEntity
  8
0
 62
7
100
AcDbSpline
 70
8
 71
3
 72
8
 73
4
 74
0
 40
0
 40
0
 40
0
 40
0
 40
1
 40
1
 40
1
 40
1
 10
23.406158
 20
8.487164
 30
0.0
 10
23.382716
 20
8.510606
 30
0.0
 10
23.350922
 20
8.523775
 30
0.0
 10
23.317770
 20
8.523775
 30
0.0
  0
LWPOLYLINE
  5
13d
100
AcDbEntity
  8
0
 62
7
100
AcDbPolyline
 90
1
 70
1
 10
7.659770
 20
4.171776
 30
0.0
  0
SPLINE
  5
13e
100
AcDbEntity
  8
0
 62
7
100
AcDbSpline
 70
8
 71
3
 72
8
 73
4
 74
0
 40
0
 40
0
 40
0
 40
0
 40
1
 40
1
 40
1
 40
1
 10
17.335511
 20
8.042345
 30
0.0
 10
17.284954
 20
8.042345
 30
0.0
 10
17.239374
 20
8.011889
 30
0.0
 10
17.220026
 20
7.965180
 30
0.0
  0
SPLINE
  5
13f
100
AcDbEntity
  8
0
 62
7
100
AcDbSpline
 70
8
 71
3
 72
8
 73
4
 74
0
 40
0
 40
0
 40
0
 40
0
 40
1
 40
1
 40
1
 40
1
 10
17.220026
 20
7.965180
 30
0.0
 10
17.200679
 20
7.918471
 30
0.0
 10
17.211373
 20
7.864706
 30
0.0
 10
17.247123
 20
7.828956
 30
0.0
  0
SPLINE
  5
140
100
AcDbEntity
  8
0
 62
7
100
AcDbSpline
 70
8
 71
3
 72
8
 73
4
 74
0
 40
0
 40
0
 40
0
 40
0
 40
1
 40
1
 40
1
 40
1
 10
17.247123
 20
7.828956
 30
0.0
 10
17.282873
 20
7.793206
 30
0.0
 10
17.336637
 20
7.782512
 30
0.0
 10
17.383347
 20
7.801860
 30
0.0
  0
SPLINE
  5
141
100
AcDbEntity
  8
0
 62
7
100
AcDbSpline
 70
8
 71
3
 72
8
 73
4
 74
0
 40
0
 40
0
 40
0
 40
0
 40
1
 40
1
 40
1
 40
1
 10
17.383347
 20
7.801860
 30
0.0
 10
17.430056
 20
7.821207
 30
0.0
 10
17.460511
 20
7.866787
 30
0.0
 10
17.460511
 20
7.917345
 30
0.0
  0
SPLINE
  5
142
100
AcDbEntity
  8
0
 62
7
100
AcDbSpline
 70
8
 71
3
 72
8
 73
4
 74
0
 40
0
 40
0
 40
0
 40
0
 40
1
 40
1
 40
1
 40
1
 10
17.460511
 20
7.917345
 30
0.0
 10
17.460511
 20
7.950497
 30
0.0
 10
17.447342
 20
7.982291
 30
0.0
 10
17.423900
 20
8.005733
 30
0.0
  0
SPLINE
  5
143
100
AcDbEntity
  8
0
 62
7
100
AcDbSpline
 70
8
 71
3
 72
8
 73
4
 74
0
 40
0
 40
0
 40
0
 40
0
 40
1
 40
1
 40
1
 40
1
 10
17.423900
 20
8.005733
 30
0.0
 10
17.400458
 20
8.029175
 30
0.0
 10
17.368663
 20
8.042345
 30
0.0
 10
17.335511
 20
8.042345
 30
0.0
  0
LWPOLYLINE
  5
144
100
AcDbEntity
  8
0
 62
7
100
AcDbPolyline
 90
1
 70
1
 10
23.317770
 20
8.523775
 30
0.0
  0
SPLINE
  5
145
100
AcDbEntity
  8
0
 62
7
100
AcDbSpline
 70
8
 71
3
 72
8
 73
4
 74
0
 40
0
 40
0
 40
0
 40
0
 40
1
 40
1
 40
1
 40
1
 10
14.310511
 20
8.042345
 30
0.0
 10
14.259954
 20
8.042345
 30
0.0
 10
14.214374
 20
8.011889
 30
0.0
 10
14.195026
 20
7.965180
 30
0.0
  0
SPLINE
  5
146
100
AcDbEntity
  8
0
 62
7
100
AcDbSpline
 70
8
 71
3
 72
8
 73
4
 74
0
 40
0
 40
0
 40
0
 40
0
 40
1
 40
1
 40
1
 40
1
 10
14.195026
 20
7.965180
 30
0.0
 10
14.175679
 20
7.918471
 30
0.0
 10
14.186373
 20
7.864706
 30
0.0
 10
14.222123
 20
7.828956
 30
0.0
  0
SPLINE
  5
147
100
AcDbEntity
  8
0
 62
7
100
AcDbSpline
 70
8
 71
3
 72
8
 73
4
 74
0
 40
0
 40
0
 40
0
 40
0
 40
1
 40
1
 40
1
 40
1
 10
14.222123
 20
7.828956
 30
0.0
 10
14.257873
 20
7.793206
 30
0.0
 10
14.311637
 20
7.782512
 30
0.0
 10
14.358347
 20
7.801860
 30
0.0
  0
SPLINE
  5
148
100
AcDbEntity
  8
0
 62
7
100
AcDbSpline
 70
8
 71
3
 72
8
 73
4
 74
0
 40
0
 40
0
 40
0
 40
0
 40
1
 40
1
 40
1
 40
1
 10
14.358347
 20
7.801860
 30
0.0
 10
14.405056
 20
7.821207
 30
0.0
 10
14.435511
 20
7.866787
 30
0.0
 10
14.435511
 20
7.917345
 30
0.0
  0
SPLINE
  5
149
100
AcDbEntity
  8
0
 62
7
100
AcDbSpline
 70
8
 71
3
 72
8
 73
4
 74
0
 40
0
 40
0
 40
0
 40
0
 40
1
 40
1
 40
1
 40
1
 10
14.435511
 20
7.917345
 30
0.0
 10
14.435511
 20
7.950497
 30
0.0
 10
14.422342
 20
7.982291
 30
0.0
 10
14.398900
 20
8.005733
 30
0.0
  0
SPLINE
  5
14a
100
AcDbEntity
  8
0
 62
7
100
AcDbSpline
 70
8
 71
3
 72
8
 73
4
 74
0
 40
0
 40
0
 40
0
 40
0
 40
1
 40
1
 40
1
 40
1
 10
14.398900
 20
8.005733
 30
0.0
 10
14.375458
 20
8.029175
 30
0.0
 10
14.343663
 20
8.042345
 30
0.0
 10
14.310511
 20
8.042345
 30
0.0
  0
LWPOLYLINE
  5
14b
100
AcDbEntity
  8
0
 62
7
100
AcDbPolyline
 90
1
 70
1
 10
17.335511
 20
8.042345
 30
0.0
  0
SPLINE
  5
14c
100
AcDbEntity
  8
0
 62
7
100
AcDbSpline
 70
8
 71
3
 72
8
 73
4
 74
0
 40
0
 40
0
 40
0
 40
0
 40
1
 40
1
 40
1
 40
1
 10
28.348770
 20
12.781775
 30
0.0
 10
28.298212
 20
12.781775
 30
0.0
 10
28.252632
 20
12.751320
 30
0.0
 10
28.233285
 20
12.704611
 30
0.0
  0
SPLINE
  5
14d
100
AcDbEntity
  8
0
 62
7
100
AcDbSpline
 70
8
 71
3
 72
8
 73
4
 74
0
 40
0
 40
0
 40
0
 40
0
 40
1
 40
1
 40
1
 40
1
 10
28.233285
 20
12.704611
 30
0.0
 10
28.213937
 20
12.657902
 30
0.0
 10
28.224632
 20
12.604137
 30
0.0
 10
28.260381
 20
12.568387
 30
0.0
  0
SPLINE
  5
14e
100
AcDbEntity
  8
0
 62
7
100
AcDbSpline
 70
8
 71
3
 72
8
 73
4
 74
0
 40
0
 40
0
 40
0
 40
0
 40
1
 40
1
 40
1
 40
1
 10
28.260381
 20
12.568387
 30
0.0
 10
28.296131
 20
12.532637
 30
0.0
 10
28.349896
 20
12.521943
 30
0.0
 10
28.396605
 20
12.541290
 30
0.0
  0
SPLINE
  5
14f
100
AcDbEntity
  8
0
 62
7
100
AcDbSpline
 70
8
 71
3
 72
8
 73
4
 74
0
 40
0
 40
0
 40
0
 40
0
 40
1
 40
1
 40
1
 40
1
 10
28.396605
 20
12.541290
 30
0.0
 10
28.443314
 20
12.560638
 30
0.0
 10
28.473770
 20
12.606218
 30
0.0
 10
28.473770
 20
12.656775
 30
0.0
  0
SPLINE
  5
150
100
AcDbEntity
  8
0
 62
7
100
AcDbSpline
 70
8
 71
3
 72
8
 73
4
 74
0
 40
0
 40
0
 40
0
 40
0
 40
1
 40
1
 40
1
 40
1
 10
28.473770
 20
12.656775
 30
0.0
 10
28.473770
 20
12.689927
 30
0.0
 10
28.460600
 20
12.721722
 30
0.0
 10
28.437158
 20
12.745164
 30
0.0
  0
SPLINE
  5
151
100
AcDbEntity
  8
0
 62
7
100
AcDbSpline
 70
8
 71
3
 72
8
 73
4
 74
0
 40
0
 40
0
 40
0
 40
0
 40
1
 40
1
 40
1
 40
1
 10
28.437158
 20
12.745164
 30
0.0
 10
28.413716
 20
12.768606
 30
0.0
 10
28.381922
 20
12.781775
 30
0.0
 10
28.348770
 20
12.781775
 30
0.0
  0
LWPOLYLINE
  5
152
100
AcDbEntity
  8
0
 62
7
100
AcDbPolyline
 90
1
 70
1
 10
14.310511
 20
8.042345
 30
0.0
  0
SPLINE
  5
153
100
AcDbEntity
  8
0
 62
7
100
AcDbSpline
 70
8
 71
3
 72
8
 73
4
 74
0
 40
0
 40
0
 40
0
 40
0
 40
1
 40
1
 40
1
 40
1
 10
8.328770
 20
8.648775
 30
0.0
 10
8.278212
 20
8.648775
 30
0.0
 10
8.232632
 20
8.618320
 30
0.0
 10
8.213285
 20
8.571611
 30
0.0
  0
SPLINE
  5
154
100
AcDbEntity
  8
0
 62
7
100
AcDbSpline
 70
8
 71
3
 72
8
 73
4
 74
0
 40
0
 40
0
 40
0
 40
0
 40
1
 40
1
 40
1
 40
1
 10
8.213285
 20
8.571611
 30
0.0
 10
8.193937
 20
8.524901
 30
0.0
 10
8.204632
 20
8.471137
 30
0.0
 10
8.240381
 20
8.435387
 30
0.0
  0
SPLINE
  5
155
100
AcDbEntity
  8
0
 62
7
100
AcDbSpline
 70
8
 71
3
 72
8
 73
4
 74
0
 40
0
 40
0
 40
0
 40
0
 40
1
 40
1
 40
1
 40
1
 10
8.240381
 20
8.435387
 30
0.0
 10
8.276131
 20
8.399637
 30
0.0
 10
8.329896
 20
8.388943
 30
0.0
 10
8.376605
 20
8.408290
 30
0.0
  0
SPLINE
  5
156
100
AcDbEntity
  8
0
 62
7
100
AcDbSpline
 70
8
 71
3
 72
8
 73
4
 74
0
 40
0
 40
0
 40
0
 40
0
 40
1
 40
1
 40
1
 40
1
 10
8.376605
 20
8.408290
 30
0.0
 10
8.423314
 20
8.427638
 30
0.0
 10
8.453770
 20
8.473218
 30
0.0
 10
8.453770
 20
8.523775
 30
0.0
  0
SPLINE
  5
157
100
AcDbEntity
  8
0
 62
7
100
AcDbSpline
 70
8
 71
3
 72
8
 73
4
 74
0
 40
0
 40
0
 40
0
 40
0
 40
1
 40
1
 40
1
 40
1
 10
8.453770
 20
8.523775
 30
0.0
 10
8.453770
 20
8.556927
 30
0.0
 10
8.440600
 20
8.588722
 30
0.0
 10
8.417158
 20
8.612164
 30
0.0
  0
SPLINE
  5
158
100
AcDbEntity
  8
0
 62
7
100
AcDbSpline
 70
8
 71
3
 72
8
 73
4
 74
0
 40
0
 40
0
 40
0
 40
0
 40
1
 40
1
 40
1
 40
1
 10
8.417158
 20
8.612164
 30
0.0
 10
8.393716
 20
8.635606
 30
0.0
 10
8.361922
 20
8.648775
 30
0.0
 10
8.328770
 20
8.648775
 30
0.0
  0
LWPOLYLINE
  5
159
100
AcDbEntity
  8
0
 62
7
100
AcDbPolyline
 90
1
 70
1
 10
28.348770
 20
12.781775
 30
0.0
  0
SPLINE
  5
15a
100
AcDbEntity
  8
0
 62
7
100
AcDbSpline
 70
8
 71
3
 72
8
 73
4
 74
0
 40
0
 40
0
 40
0
 40
0
 40
1
 40
1
 40
1
 40
1
 10
15.809770
 20
0.982775
 30
0.0
 10
15.759212
 20
0.982775
 30
0.0
 10
15.713632
 20
0.952320
 30
0.0
 10
15.694285
 20
0.905611
 30
0.0
  0
SPLINE
  5
15b
100
AcDbEntity
  8
0
 62
7
100
AcDbSpline
 70
8
 71
3
 72
8
 73
4
 74
0
 40
0
 40
0
 40
0
 40
0
 40
1
 40
1
 40
1
 40
1
 10
15.694285
 20
0.905611
 30
0.0
 10
15.674937
 20
0.858901
 30
0.0
 10
15.685632
 20
0.805137
 30
0.0
 10
15.721381
 20
0.769387
 30
0.0
  0
SPLINE
  5
15c
100
AcDbEntity
  8
0
 62
7
100
AcDbSpline
 70
8
 71
3
 72
8
 73
4
 74
0
 40
0
 40
0
 40
0
 40
0
 40
1
 40
1
 40
1
 40
1
 10
15.721381
 20
0.769387
 30
0.0
 10
15.757131
 20
0.733637
 30
0.0
 10
15.810896
 20
0.722943
 30
0.0
 10
15.857605
 20
0.742290
 30
0.0
  0
SPLINE
  5
15d
100
AcDbEntity
  8
0
 62
7
100
AcDbSpline
 70
8
 71
3
 72
8
 73
4
 74
0
 40
0
 40
0
 40
0
 40
0
 40
1
 40
1
 40
1
 40
1
 10
15.857605
 20
0.742290
 30
0.0
 10
15.904315
 20
0.761638
 30
0.0
 10
15.934770
 20
0.807218
 30
0.0
 10
15.934770
 20
0.857775
 30
0.0
  0
SPLINE
  5
15e
100
AcDbEntity
  8
0
 62
7
100
AcDbSpline
 70
8
 71
3
 72
8
 73
4
 74
0
 40
0
 40
0
 40
0
 40
0
 40
1
 40
1
 40
1
 40
1
 10
15.934770
 20
0.857775
 30
0.0
 10
15.934770
 20
0.890927
 30
0.0
 10
15.921600
 20
0.922722
 30
0.0
 10
15.898158
 20
0.946164
 30
0.0
  0
SPLINE
  5
15f
100
AcDbEntity
  8
0
 62
7
100
AcDbSpline
 70
8
 71
3
 72
8
 73
4
 74
0
 40
0
 40
0
 40
0
 40
0
 40
1
 40
1
 40
1
 40
1
 10
15.898158
 20
0.946164
 30
0.0
 10
15.874716
 20
0.969606
 30
0.0
 10
15.842922
 20
0.982775
 30
0.0
 10
15.809770
 20
0.982775
 30
0.0
  0
LWPOLYLINE
  5
160
100
AcDbEntity
  8
0
 62
7
100
AcDbPolyline
 90
1
 70
1
 10
8.328770
 20
8.648775
 30
0.0
  0
SPLINE
  5
161
100
AcDbEntity
  8
0
 62
7
100
AcDbSpline
 70
8
 71
3
 72
8
 73
4
 74
0
 40
0
 40
0
 40
0
 40
0
 40
1
 40
1
 40
1
 40
1
 10
2.344770
 20
7.350776
 30
0.0
 10
2.294212
 20
7.350776
 30
0.0
 10
2.248632
 20
7.320320
 30
0.0
 10
2.229285
 20
7.273611
 30
0.0
  0
SPLINE
  5
162
100
AcDbEntity
  8
0
 62
7
100
AcDbSpline
 70
8
 71
3
 72
8
 73
4
 74
0
 40
0
 40
0
 40
0
 40
0
 40
1
 40
1
 40
1
 40
1
 10
2.229285
 20
7.273611
 30
0.0
 10
2.209937
 20
7.226902
 30
0.0
 10
2.220632
 20
7.173137
 30
0.0
 10
2.256381
 20
7.137387
 30
0.0
  0
SPLINE
  5
163
100
AcDbEntity
  8
0
 62
7
100
AcDbSpline
 70
8
 71
3
 72
8
 73
4
 74
0
 40
0
 40
0
 40
0
 40
0
 40
1
 40
1
 40
1
 40
1
 10
2.256381
 20
7.137387
 30
0.0
 10
2.292131
 20
7.101638
 30
0.0
 10
2.345896
 20
7.090943
 30
0.0
 10
2.392605
 20
7.110291
 30
0.0
  0
SPLINE
  5
164
100
AcDbEntity
  8
0
 62
7
100
AcDbSpline
 70
8
 71
3
 72
8
 73
4
 74
0
 40
0
 40
0
 40
0
 40
0
 40
1
 40
1
 40
1
 40
1
 10
2.392605
 20
7.110291
 30
0.0
 10
2.439314
 20
7.129638
 30
0.0
 10
2.469770
 20
7.175218
 30
0.0
 10
2.469770
 20
7.225776
 30
0.0
  0
SPLINE
  5
165
100
AcDbEntity
  8
0
 62
7
100
AcDbSpline
 70
8
 71
3
 72
8
 73
4
 74
0
 40
0
 40
0
 40
0
 40
0
 40
1
 40
1
 40
1
 40
1
 10
2.469770
 20
7.225776
 30
0.0
 10
2.469770
 20
7.294811
 30
0.0
 10
2.413805
 20
7.350776
 30
0.0
 10
2.344770
 20
7.350776
 30
0.0
  0
LWPOLYLINE
  5
166
100
AcDbEntity
  8
0
 62
7
100
AcDbPolyline
 90
1
 70
1
 10
15.809770
 20
0.982775
 30
0.0
  0
SPLINE
  5
167
100
AcDbEntity
  8
0
 62
7
100
AcDbSpline
 70
8
 71
3
 72
8
 73
4
 74
0
 40
0
 40
0
 40
0
 40
0
 40
1
 40
1
 40
1
 40
1
 10
23.964770
 20
4.146775
 30
0.0
 10
23.914212
 20
4.146775
 30
0.0
 10
23.868632
 20
4.116320
 30
0.0
 10
23.849285
 20
4.069611
 30
0.0
  0
SPLINE
  5
168
100
AcDbEntity
  8
0
 62
7
100
AcDbSpline
 70
8
 71
3
 72
8
 73
4
 74
0
 40
0
 40
0
 40
0
 40
0
 40
1
 40
1
 40
1
 40
1
 10
23.849285
 20
4.069611
 30
0.0
 10
23.829937
 20
4.022901
 30
0.0
 10
23.840632
 20
3.969137
 30
0.0
 10
23.876381
 20
3.933387
 30
0.0
  0
SPLINE
  5
169
100
AcDbEntity
  8
0
 62
7
100
AcDbSpline
 70
8
 71
3
 72
8
 73
4
 74
0
 40
0
 40
0
 40
0
 40
0
 40
1
 40
1
 40
1
 40
1
 10
23.876381
 20
3.933387
 30
0.0
 10
23.912131
 20
3.897637
 30
0.0
 10
23.965896
 20
3.886943
 30
0.0
 10
24.012605
 20
3.906290
 30
0.0
  0
SPLINE
  5
16a
100
AcDbEntity
  8
0
 62
7
100
AcDbSpline
 70
8
 71
3
 72
8
 73
4
 74
0
 40
0
 40
0
 40
0
 40
0
 40
1
 40
1
 40
1
 40
1
 10
24.012605
 20
3.906290
 30
0.0
 10
24.059314
 20
3.925638
 30
0.0
 10
24.089770
 20
3.971217
 30
0.0
 10
24.089770
 20
4.021775
 30
0.0
  0
SPLINE
  5
16b
100
AcDbEntity
  8
0
 62
7
100
AcDbSpline
 70
8
 71
3
 72
8
 73
4
 74
0
 40
0
 40
0
 40
0
 40
0
 40
1
 40
1
 40
1
 40
1
 10
24.089770
 20
4.021775
 30
0.0
 10
24.089770
 20
4.054927
 30
0.0
 10
24.076600
 20
4.086722
 30
0.0
 10
24.053158
 20
4.110164
 30
0.0
  0
SPLINE
  5
16c
100
AcDbEntity
  8
0
 62
7
100
AcDbSpline
 70
8
 71
3
 72
8
 73
4
 74
0
 40
0
 40
0
 40
0
 40
0
 40
1
 40
1
 40
1
 40
1
 10
24.053158
 20
4.110164
 30
0.0
 10
24.029716
 20
4.133606
 30
0.0
 10
23.997922
 20
4.146775
 30
0.0
 10
23.964770
 20
4.146775
 30
0.0
  0
LWPOLYLINE
  5
16d
100
AcDbEntity
  8
0
 62
7
100
AcDbPolyline
 90
1
 70
1
 10
2.344770
 20
7.350776
 30
0.0
  0
SPLINE
  5
16e
100
AcDbEntity
  8
0
 62
7
100
AcDbSpline
 70
8
 71
3
 72
8
 73
4
 74
0
 40
0
 40
0
 40
0
 40
0
 40
1
 40
1
 40
1
 40
1
 10
7.413522
 20
13.713500
 30
0.0
 10
7.209780
 20
13.744539
 30
0.0
 10
7.018309
 20
13.607884
 30
0.0
 10
6.981437
 20
13.405117
 30
0.0
  0
LWPOLYLINE
  5
16f
100
AcDbEntity
  8
0
 62
7
100
AcDbPolyline
 90
1
 70
1
 10
23.964770
 20
4.146775
 30
0.0
  0
LWPOLYLINE
  5
170
100
AcDbEntity
  8
0
 62
7
100
AcDbPolyline
 90
2
 70
0
 10
1.749662
 20
14.032560
 30
0.0
 10
5.028111
 20
13.456698
 30
0.0
  0
SPLINE
  5
171
100
AcDbEntity
  8
0
 62
7
100
AcDbSpline
 70
8
 71
3
 72
8
 73
4
 74
0
 40
0
 40
0
 40
0
 40
0
 40
1
 40
1
 40
1
 40
1
 10
18.975220
 20
11.935633
 30
0.0
 10
18.756586
 20
11.898277
 30
0.0
 10
18.609630
 20
11.690758
 30
0.0
 10
18.646981
 20
11.472123
 30
0.0
  0
LWPOLYLINE
  5
172
100
AcDbEntity
  8
0
 62
7
100
AcDbPolyline
 90
2
 70
0
 10
5.412214
 20
13.679505
 30
0.0
 10
6.981438
 20
13.405117
 30
0.0
  0
SPLINE
  5
173
100
AcDbEntity
  8
0
 62
7
100
AcDbSpline
 70
8
 71
3
 72
8
 73
4
 74
0
 40
0
 40
0
 40
0
 40
0
 40
1
 40
1
 40
1
 40
1
 10
27.860862
 20
3.463296
 30
0.0
 10
28.079496
 20
3.500652
 30
0.0
 10
28.226452
 20
3.708170
 30
0.0
 10
28.189102
 20
3.926805
 30
0.0
  0
SPLINE
  5
174
100
AcDbEntity
  8
0
 62
7
100
AcDbSpline
 70
8
 71
3
 72
8
 73
4
 74
0
 40
0
 40
0
 40
0
 40
0
 40
1
 40
1
 40
1
 40
1
 10
3.416291
 20
3.930271
 30
0.0
 10
3.397233
 20
3.825476
 30
0.0
 10
3.420587
 20
3.717401
 30
0.0
 10
3.481216
 20
3.629826
 30
0.0
  0
SPLINE
  5
175
100
AcDbEntity
  8
0
 62
7
100
AcDbSpline
 70
8
 71
3
 72
8
 73
4
 74
0
 40
0
 40
0
 40
0
 40
0
 40
1
 40
1
 40
1
 40
1
 10
3.481216
 20
3.629826
 30
0.0
 10
3.541844
 20
3.542250
 30
0.0
 10
3.634781
 20
3.482348
 30
0.0
 10
3.739578
 20
3.463298
 30
0.0
  0
LWPOLYLINE
  5
176
100
AcDbEntity
  8
0
 62
7
100
AcDbPolyline
 90
2
 70
0
 10
7.413522
 20
13.713498
 30
0.0
 10
9.070657
 20
13.422223
 30
0.0
  0
LWPOLYLINE
  5
177
100
AcDbEntity
  8
0
 62
7
100
AcDbPolyline
 90
2
 70
0
 10
1.282689
 20
13.709272
 30
0.0
 10
0.012689
 20
6.546471
 30
0.0
  0
LWPOLYLINE
  5
178
100
AcDbEntity
  8
0
 62
7
100
AcDbPolyline
 90
2
 70
0
 10
3.709820
 20
5.484029
 30
0.0
 10
3.416289
 20
3.930271
 30
0.0
  0
LWPOLYLINE
  5
179
100
AcDbEntity
  8
0
 62
7
100
AcDbPolyline
 90
2
 70
0
 10
22.455020
 20
2.207429
 30
0.0
 10
20.829421
 20
1.242229
 30
0.0
  0
LWPOLYLINE
  5
17a
100
AcDbEntity
  8
0
 62
7
100
AcDbPolyline
 90
2
 70
0
 10
27.860862
 20
3.463298
 30
0.0
 10
24.258420
 20
2.867829
 30
0.0
  0
LWPOLYLINE
  5
17b
100
AcDbEntity
  8
0
 62
7
100
AcDbPolyline
 90
2
 70
0
 10
20.829421
 20
1.242229
 30
0.0
 10
19.483221
 20
0.124629
 30
0.0
  0
SPLINE
  5
17c
100
AcDbEntity
  8
0
 62
7
100
AcDbSpline
 70
8
 71
3
 72
8
 73
4
 74
0
 40
0
 40
0
 40
0
 40
0
 40
1
 40
1
 40
1
 40
1
 10
19.178420
 20
0.005459
 30
0.0
 10
19.291387
 20
0.005459
 30
0.0
 10
19.400211
 20
0.048006
 30
0.0
 10
19.483221
 20
0.124629
 30
0.0
  0
LWPOLYLINE
  5
17d
100
AcDbEntity
  8
0
 62
7
100
AcDbPolyline
 90
2
 70
0
 10
24.258420
 20
2.867829
 30
0.0
 10
22.455020
 20
2.207429
 30
0.0
  0
LWPOLYLINE
  5
17e
100
AcDbEntity
  8
0
 62
7
100
AcDbPolyline
 90
2
 70
0
 10
12.422020
 20
0.005457
 30
0.0
 10
19.178420
 20
0.005457
 30
0.0
  0
LWPOLYLINE
  5
17f
100
AcDbEntity
  8
0
 62
7
100
AcDbPolyline
 90
2
 70
0
 10
27.895571
 20
5.480563
 30
0.0
 10
28.189102
 20
3.926805
 30
0.0
  0
LWPOLYLINE
  5
180
100
AcDbEntity
  8
0
 62
7
100
AcDbPolyline
 90
2
 70
0
 10
31.268820
 20
6.068229
 30
0.0
 10
27.895571
 20
5.480563
 30
0.0
  0
LWPOLYLINE
  5
181
100
AcDbEntity
  8
0
 62
7
100
AcDbPolyline
 90
2
 70
0
 10
31.597060
 20
6.531736
 30
0.0
 10
30.329020
 20
13.713629
 30
0.0
  0
LWPOLYLINE
  5
182
100
AcDbEntity
  8
0
 62
7
100
AcDbPolyline
 90
2
 70
0
 10
29.865513
 20
14.041869
 30
0.0
 10
26.519021
 20
13.408829
 30
0.0
  0
LWPOLYLINE
  5
183
100
AcDbEntity
  8
0
 62
7
100
AcDbPolyline
 90
2
 70
0
 10
26.107228
 20
13.604716
 30
0.0
 10
24.639420
 20
13.332629
 30
0.0
  0
LWPOLYLINE
  5
184
100
AcDbEntity
  8
0
 62
7
100
AcDbPolyline
 90
2
 70
0
 10
24.175914
 20
13.660869
 30
0.0
 10
22.582020
 20
13.383429
 30
0.0
  0
LWPOLYLINE
  5
185
100
AcDbEntity
  8
0
 62
7
100
AcDbPolyline
 90
2
 70
0
 10
22.253780
 20
12.919923
 30
0.0
 10
20.776659
 20
12.653136
 30
0.0
  0
LWPOLYLINE
  5
186
100
AcDbEntity
  8
0
 62
7
100
AcDbPolyline
 90
2
 70
0
 10
20.448420
 20
12.189629
 30
0.0
 10
18.975220
 20
11.935629
 30
0.0
  0
LWPOLYLINE
  5
187
100
AcDbEntity
  8
0
 62
7
100
AcDbPolyline
 90
2
 70
0
 10
14.581020
 20
11.199029
 30
0.0
 10
12.973910
 20
11.468656
 30
0.0
  0
LWPOLYLINE
  5
188
100
AcDbEntity
  8
0
 62
7
100
AcDbPolyline
 90
2
 70
0
 10
12.650620
 20
11.935628
 30
0.0
 10
11.195909
 20
12.205256
 30
0.0
  0
SPLINE
  5
189
100
AcDbEntity
  8
0
 62
7
100
AcDbSpline
 70
8
 71
3
 72
8
 73
4
 74
0
 40
0
 40
0
 40
0
 40
0
 40
1
 40
1
 40
1
 40
1
 10
20.776660
 20
12.653132
 30
0.0
 10
20.671666
 20
12.635200
 30
0.0
 10
20.578097
 20
12.576290
 30
0.0
 10
20.516539
 20
12.489365
 30
0.0
  0
SPLINE
  5
18a
100
AcDbEntity
  8
0
 62
7
100
AcDbSpline
 70
8
 71
3
 72
8
 73
4
 74
0
 40
0
 40
0
 40
0
 40
0
 40
1
 40
1
 40
1
 40
1
 10
20.516539
 20
12.489365
 30
0.0
 10
20.454981
 20
12.402440
 30
0.0
 10
20.430478
 20
12.294621
 30
0.0
 10
20.448420
 20
12.189629
 30
0.0
  0
LWPOLYLINE
  5
18b
100
AcDbEntity
  8
0
 62
7
100
AcDbPolyline
 90
2
 70
0
 10
10.872620
 20
12.672229
 30
0.0
 10
9.392509
 20
12.941857
 30
0.0
  0
SPLINE
  5
18c
100
AcDbEntity
  8
0
 62
7
100
AcDbSpline
 70
8
 71
3
 72
8
 73
4
 74
0
 40
0
 40
0
 40
0
 40
0
 40
1
 40
1
 40
1
 40
1
 10
24.639421
 20
13.332629
 30
0.0
 10
24.621487
 20
13.437623
 30
0.0
 10
24.562577
 20
13.531192
 30
0.0
 10
24.475652
 20
13.592750
 30
0.0
  0
SPLINE
  5
18d
100
AcDbEntity
  8
0
 62
7
100
AcDbSpline
 70
8
 71
3
 72
8
 73
4
 74
0
 40
0
 40
0
 40
0
 40
0
 40
1
 40
1
 40
1
 40
1
 10
24.475652
 20
13.592750
 30
0.0
 10
24.388726
 20
13.654307
 30
0.0
 10
24.280906
 20
13.678810
 30
0.0
 10
24.175914
 20
13.660868
 30
0.0
  0
LWPOLYLINE
  5
18e
100
AcDbEntity
  8
0
 62
7
100
AcDbPolyline
 90
2
 70
0
 10
7.342020
 20
2.867829
 30
0.0
 10
9.145420
 20
2.207429
 30
0.0
  0
LWPOLYLINE
  5
18f
100
AcDbEntity
  8
0
 62
7
100
AcDbPolyline
 90
2
 70
0
 10
14.785512
 20
7.770345
 30
0.0
 10
14.785511
 20
11.199345
 30
0.0
  0
SPLINE
  5
190
100
AcDbEntity
  8
0
 62
7
100
AcDbSpline
 70
8
 71
3
 72
8
 73
4
 74
0
 40
0
 40
0
 40
0
 40
0
 40
1
 40
1
 40
1
 40
1
 10
5.412214
 20
13.679506
 30
0.0
 10
5.250833
 20
13.690046
 30
0.0
 10
5.099081
 20
13.602019
 30
0.0
 10
5.028110
 20
13.456698
 30
0.0
  0
SPLINE
  5
191
100
AcDbEntity
  8
0
 62
7
100
AcDbSpline
 70
8
 71
3
 72
8
 73
4
 74
0
 40
0
 40
0
 40
0
 40
0
 40
1
 40
1
 40
1
 40
1
 10
12.117218
 20
0.124627
 30
0.0
 10
12.200229
 20
0.048004
 30
0.0
 10
12.309053
 20
0.005457
 30
0.0
 10
12.422021
 20
0.005457
 30
0.0
  0
SPLINE
  5
192
100
AcDbEntity
  8
0
 62
7
100
AcDbSpline
 70
8
 71
3
 72
8
 73
4
 74
0
 40
0
 40
0
 40
0
 40
0
 40
1
 40
1
 40
1
 40
1
 10
12.973912
 20
11.468655
 30
0.0
 10
12.992968
 20
11.573451
 30
0.0
 10
12.969613
 20
11.681525
 30
0.0
 10
12.908983
 20
11.769101
 30
0.0
  0
SPLINE
  5
193
100
AcDbEntity
  8
0
 62
7
100
AcDbSpline
 70
8
 71
3
 72
8
 73
4
 74
0
 40
0
 40
0
 40
0
 40
0
 40
1
 40
1
 40
1
 40
1
 10
12.908983
 20
11.769101
 30
0.0
 10
12.848354
 20
11.856676
 30
0.0
 10
12.755417
 20
11.916578
 30
0.0
 10
12.650620
 20
11.935629
 30
0.0
  0
LWPOLYLINE
  5
194
100
AcDbEntity
  8
0
 62
7
100
AcDbPolyline
 90
2
 70
0
 10
9.145420
 20
2.207429
 30
0.0
 10
10.771020
 20
1.242229
 30
0.0
  0
LWPOLYLINE
  5
195
100
AcDbEntity
  8
0
 62
7
100
AcDbPolyline
 90
2
 70
0
 10
17.019420
 20
11.199029
 30
0.0
 10
16.814928
 20
11.198713
 30
0.0
  0
SPLINE
  5
196
100
AcDbEntity
  8
0
 62
7
100
AcDbSpline
 70
8
 71
3
 72
8
 73
4
 74
0
 40
0
 40
0
 40
0
 40
0
 40
1
 40
1
 40
1
 40
1
 10
0.012688
 20
6.546471
 30
0.0
 10
-0.026978
 20
6.328248
 30
0.0
 10
0.117758
 20
6.119184
 30
0.0
 10
0.335977
 20
6.079498
 30
0.0
  0
LWPOLYLINE
  5
197
100
AcDbEntity
  8
0
 62
7
100
AcDbPolyline
 90
2
 70
0
 10
0.335978
 20
6.079498
 30
0.0
 10
3.709820
 20
5.484029
 30
0.0
  0
LWPOLYLINE
  5
198
100
AcDbEntity
  8
0
 62
7
100
AcDbPolyline
 90
2
 70
0
 10
3.739577
 20
3.463298
 30
0.0
 10
7.342020
 20
2.867829
 30
0.0
  0
SPLINE
  5
199
100
AcDbEntity
  8
0
 62
7
100
AcDbSpline
 70
8
 71
3
 72
8
 73
4
 74
0
 40
0
 40
0
 40
0
 40
0
 40
1
 40
1
 40
1
 40
1
 10
22.582020
 20
13.383433
 30
0.0
 10
22.363386
 20
13.346077
 30
0.0
 10
22.216429
 20
13.138557
 30
0.0
 10
22.253781
 20
12.919922
 30
0.0
  0
SPLINE
  5
19a
100
AcDbEntity
  8
0
 62
7
100
AcDbSpline
 70
8
 71
3
 72
8
 73
4
 74
0
 40
0
 40
0
 40
0
 40
0
 40
1
 40
1
 40
1
 40
1
 10
26.519024
 20
13.408831
 30
0.0
 10
26.436858
 20
13.554494
 30
0.0
 10
26.272078
 20
13.632877
 30
0.0
 10
26.107228
 20
13.604716
 30
0.0
  0
SPLINE
  5
19b
100
AcDbEntity
  8
0
 62
7
100
AcDbSpline
 70
8
 71
3
 72
8
 73
4
 74
0
 40
0
 40
0
 40
0
 40
0
 40
1
 40
1
 40
1
 40
1
 10
31.268820
 20
6.068227
 30
0.0
 10
31.487455
 20
6.105582
 30
0.0
 10
31.634412
 20
6.313101
 30
0.0
 10
31.597060
 20
6.531736
 30
0.0
  0
LWPOLYLINE
  5
19c
100
AcDbEntity
  8
0
 62
7
100
AcDbPolyline
 90
2
 70
0
 10
14.785511
 20
11.199345
 30
0.0
 10
14.581020
 20
11.199029
 30
0.0
  0
LWPOLYLINE
  5
19d
100
AcDbEntity
  8
0
 62
7
100
AcDbPolyline
 90
2
 70
0
 10
16.814929
 20
7.774345
 30
0.0
 10
16.814928
 20
11.198713
 30
0.0
  0
LWPOLYLINE
  5
19e
100
AcDbEntity
  8
0
 62
7
100
AcDbPolyline
 90
2
 70
0
 10
10.771020
 20
1.242229
 30
0.0
 10
12.117220
 20
0.124630
 30
0.0
  0
SPLINE
  5
19f
100
AcDbEntity
  8
0
 62
7
100
AcDbSpline
 70
8
 71
3
 72
8
 73
4
 74
0
 40
0
 40
0
 40
0
 40
0
 40
1
 40
1
 40
1
 40
1
 10
1.749662
 20
14.032560
 30
0.0
 10
1.644866
 20
14.051614
 30
0.0
 10
1.536794
 20
14.028257
 30
0.0
 10
1.449220
 20
13.967629
 30
0.0
  0
SPLINE
  5
1a0
100
AcDbEntity
  8
0
 62
7
100
AcDbSpline
 70
8
 71
3
 72
8
 73
4
 74
0
 40
0
 40
0
 40
0
 40
0
 40
1
 40
1
 40
1
 40
1
 10
1.449220
 20
13.967629
 30
0.0
 10
1.361645
 20
13.907000
 30
0.0
 10
1.301742
 20
13.814066
 30
0.0
 10
1.282689
 20
13.709270
 30
0.0
  0
SPLINE
  5
1a1
100
AcDbEntity
  8
0
 62
7
100
AcDbSpline
 70
8
 71
3
 72
8
 73
4
 74
0
 40
0
 40
0
 40
0
 40
0
 40
1
 40
1
 40
1
 40
1
 10
9.392507
 20
12.941857
 30
0.0
 10
9.415248
 20
13.048406
 30
0.0
 10
9.393857
 20
13.159624
 30
0.0
 10
9.333214
 20
13.250135
 30
0.0
  0
SPLINE
  5
1a2
100
AcDbEntity
  8
0
 62
7
100
AcDbSpline
 70
8
 71
3
 72
8
 73
4
 74
0
 40
0
 40
0
 40
0
 40
0
 40
1
 40
1
 40
1
 40
1
 10
9.333214
 20
13.250135
 30
0.0
 10
9.272571
 20
13.340646
 30
0.0
 10
9.177848
 20
13.402730
 30
0.0
 10
9.070657
 20
13.422223
 30
0.0
  0
SPLINE
  5
1a3
100
AcDbEntity
  8
0
 62
7
100
AcDbSpline
 70
8
 71
3
 72
8
 73
4
 74
0
 40
0
 40
0
 40
0
 40
0
 40
1
 40
1
 40
1
 40
1
 10
11.195908
 20
12.205256
 30
0.0
 10
11.235582
 20
12.423480
 30
0.0
 10
11.090843
 20
12.632549
 30
0.0
 10
10.872620
 20
12.672229
 30
0.0
  0
SPLINE
  5
1a4
100
AcDbEntity
  8
0
 62
7
100
AcDbSpline
 70
8
 71
3
 72
8
 73
4
 74
0
 40
0
 40
0
 40
0
 40
0
 40
1
 40
1
 40
1
 40
1
 10
30.329021
 20
13.713629
 30
0.0
 10
30.311088
 20
13.818623
 30
0.0
 10
30.252178
 20
13.912192
 30
0.0
 10
30.165252
 20
13.973750
 30
0.0
  0
SPLINE
  5
1a5
100
AcDbEntity
  8
0
 62
7
100
AcDbSpline
 70
8
 71
3
 72
8
 73
4
 74
0
 40
0
 40
0
 40
0
 40
0
 40
1
 40
1
 40
1
 40
1
 10
30.165252
 20
13.973750
 30
0.0
 10
30.078327
 20
14.035307
 30
0.0
 10
29.970507
 20
14.059811
 30
0.0
 10
29.865515
 20
14.041869
 30
0.0
  0
SPLINE
  5
1a6
100
AcDbEntity
  8
0
 62
7
100
AcDbSpline
 70
8
 71
3
 72
8
 73
4
 74
0
 40
0
 40
0
 40
0
 40
0
 40
1
 40
1
 40
1
 40
1
 10
15.803511
 20
8.049345
 30
0.0
 10
14.698942
 20
8.049345
 30
0.0
 10
13.803511
 20
7.153914
 30
0.0
 10
13.803511
 20
6.049345
 30
0.0
  0
SPLINE
  5
1a7
100
AcDbEntity
  8
0
 62
7
100
AcDbSpline
 70
8
 71
3
 72
8
 73
4
 74
0
 40
0
 40
0
 40
0
 40
0
 40
1
 40
1
 40
1
 40
1
 10
13.803511
 20
6.049345
 30
0.0
 10
13.803511
 20
4.944775
 30
0.0
 10
14.698942
 20
4.049345
 30
0.0
 10
15.803511
 20
4.049345
 30
0.0
  0
SPLINE
  5
1a8
100
AcDbEntity
  8
0
 62
7
100
AcDbSpline
 70
8
 71
3
 72
8
 73
4
 74
0
 40
0
 40
0
 40
0
 40
0
 40
1
 40
1
 40
1
 40
1
 10
15.803511
 20
4.049345
 30
0.0
 10
16.908081
 20
4.049345
 30
0.0
 10
17.803511
 20
4.944775
 30
0.0
 10
17.803511
 20
6.049345
 30
0.0
  0
SPLINE
  5
1a9
100
AcDbEntity
  8
0
 62
7
100
AcDbSpline
 70
8
 71
3
 72
8
 73
4
 74
0
 40
0
 40
0
 40
0
 40
0
 40
1
 40
1
 40
1
 40
1
 10
17.803511
 20
6.049345
 30
0.0
 10
17.803511
 20
6.579777
 30
0.0
 10
17.592798
 20
7.088485
 30
0.0
 10
17.217725
 20
7.463558
 30
0.0
  0
SPLINE
  5
1aa
100
AcDbEntity
  8
0
 62
7
100
AcDbSpline
 70
8
 71
3
 72
8
 73
4
 74
0
 40
0
 40
0
 40
0
 40
0
 40
1
 40
1
 40
1
 40
1
 10
17.217725
 20
7.463558
 30
0.0
 10
16.842652
 20
7.838631
 30
0.0
 10
16.333944
 20
8.049345
 30
0.0
 10
15.803511
 20
8.049345
 30
0.0
  0
LWPOLYLINE
  5
1ab
100
AcDbEntity
  8
0
 62
7
100
AcDbPolyline
 90
2
 70
0
 10
18.646980
 20
11.472123
 30
0.0
 10
17.019420
 20
11.199029
 30
0.0
  0
LWPOLYLINE
  5
1ac
100
AcDbEntity
  8
0
 62
7
100
AcDbPolyline
 90
1
 70
1
 10
15.803511
 20
8.049345
 30
0.0
  0
LWPOLYLINE
  5
1ad
100
AcDbEntity
  8
0
 62
7
100
AcDbPolyline
 90
2
 70
0
 10
6.571846
 20
10.955397
 30
0.0
 10
5.193115
 20
11.198504
 30
0.0
  0
LWPOLYLINE
  5
1ae
100
AcDbEntity
  8
0
 62
7
100
AcDbPolyline
 90
2
 70
0
 10
4.950007
 20
9.819773
 30
0.0
 10
5.193115
 20
11.198504
 30
0.0
  0
LWPOLYLINE
  5
1af
100
AcDbEntity
  8
0
 62
7
100
AcDbPolyline
 90
2
 70
0
 10
6.571846
 20
10.955397
 30
0.0
 10
6.328738
 20
9.576666
 30
0.0
  0
LWPOLYLINE
  5
1b0
100
AcDbEntity
  8
0
 62
7
100
AcDbPolyline
 90
2
 70
0
 10
4.950007
 20
9.819773
 30
0.0
 10
6.328738
 20
9.576666
 30
0.0
  0
LWPOLYLINE
  5
1b1
100
AcDbEntity
  8
0
 62
7
100
AcDbPolyline
 90
2
 70
0
 10
8.512440
 20
11.019388
 30
0.0
 10
8.269332
 20
9.640657
 30
0.0
  0
LWPOLYLINE
  5
1b2
100
AcDbEntity
  8
0
 62
7
100
AcDbPolyline
 90
2
 70
0
 10
6.890601
 20
9.883765
 30
0.0
 10
8.269332
 20
9.640657
 30
0.0
  0
LWPOLYLINE
  5
1b3
100
AcDbEntity
  8
0
 62
7
100
AcDbPolyline
 90
2
 70
0
 10
8.512440
 20
11.019388
 30
0.0
 10
7.133709
 20
11.262495
 30
0.0
  0
LWPOLYLINE
  5
1b4
100
AcDbEntity
  8
0
 62
7
100
AcDbPolyline
 90
2
 70
0
 10
6.890601
 20
9.883765
 30
0.0
 10
7.133709
 20
11.262495
 30
0.0
  0
LWPOLYLINE
  5
1b5
100
AcDbEntity
  8
0
 62
7
100
AcDbPolyline
 90
2
 70
0
 10
8.692276
 20
9.159910
 30
0.0
 10
10.071007
 20
8.916803
 30
0.0
  0
LWPOLYLINE
  5
1b6
100
AcDbEntity
  8
0
 62
7
100
AcDbPolyline
 90
2
 70
0
 10
10.314115
 20
10.295534
 30
0.0
 10
8.935384
 20
10.538641
 30
0.0
  0
LWPOLYLINE
  5
1b7
100
AcDbEntity
  8
0
 62
7
100
AcDbPolyline
 90
2
 70
0
 10
8.692276
 20
9.159910
 30
0.0
 10
8.935384
 20
10.538641
 30
0.0
  0
LWPOLYLINE
  5
1b8
100
AcDbEntity
  8
0
 62
7
100
AcDbPolyline
 90
2
 70
0
 10
10.314115
 20
10.295534
 30
0.0
 10
10.071007
 20
8.916803
 30
0.0
  0
LWPOLYLINE
  5
1b9
100
AcDbEntity
  8
0
 62
7
100
AcDbPolyline
 90
2
 70
0
 10
10.493952
 20
8.436056
 30
0.0
 10
11.872683
 20
8.192948
 30
0.0
  0
LWPOLYLINE
  5
1ba
100
AcDbEntity
  8
0
 62
7
100
AcDbPolyline
 90
2
 70
0
 10
12.115790
 20
9.571679
 30
0.0
 10
10.737059
 20
9.814787
 30
0.0
  0
LWPOLYLINE
  5
1bb
100
AcDbEntity
  8
0
 62
7
100
AcDbPolyline
 90
2
 70
0
 10
12.115790
 20
9.571679
 30
0.0
 10
11.872683
 20
8.192948
 30
0.0
  0
LWPOLYLINE
  5
1bc
100
AcDbEntity
  8
0
 62
7
100
AcDbPolyline
 90
2
 70
0
 10
10.493952
 20
8.436056
 30
0.0
 10
10.737059
 20
9.814787
 30
0.0
  0
LWPOLYLINE
  5
1bd
100
AcDbEntity
  8
0
 62
7
100
AcDbPolyline
 90
2
 70
0
 10
19.737494
 20
8.193369
 30
0.0
 10
21.116225
 20
8.436476
 30
0.0
  0
LWPOLYLINE
  5
1be
100
AcDbEntity
  8
0
 62
7
100
AcDbPolyline
 90
2
 70
0
 10
20.873117
 20
9.815207
 30
0.0
 10
21.116225
 20
8.436476
 30
0.0
  0
LWPOLYLINE
  5
1bf
100
AcDbEntity
  8
0
 62
7
100
AcDbPolyline
 90
2
 70
0
 10
19.737494
 20
8.193369
 30
0.0
 10
19.494387
 20
9.572100
 30
0.0
  0
LWPOLYLINE
  5
1c0
100
AcDbEntity
  8
0
 62
7
100
AcDbPolyline
 90
2
 70
0
 10
20.873117
 20
9.815207
 30
0.0
 10
19.494387
 20
9.572100
 30
0.0
  0
LWPOLYLINE
  5
1c1
100
AcDbEntity
  8
0
 62
7
100
AcDbPolyline
 90
2
 70
0
 10
21.539170
 20
8.917223
 30
0.0
 10
22.917901
 20
9.160330
 30
0.0
  0
LWPOLYLINE
  5
1c2
100
AcDbEntity
  8
0
 62
7
100
AcDbPolyline
 90
2
 70
0
 10
22.674794
 20
10.539061
 30
0.0
 10
22.917901
 20
9.160330
 30
0.0
  0
LWPOLYLINE
  5
1c3
100
AcDbEntity
  8
0
 62
7
100
AcDbPolyline
 90
2
 70
0
 10
21.539170
 20
8.917223
 30
0.0
 10
21.296063
 20
10.295954
 30
0.0
  0
LWPOLYLINE
  5
1c4
100
AcDbEntity
  8
0
 62
7
100
AcDbPolyline
 90
2
 70
0
 10
22.674794
 20
10.539061
 30
0.0
 10
21.296063
 20
10.295954
 30
0.0
  0
LWPOLYLINE
  5
1c5
100
AcDbEntity
  8
0
 62
7
100
AcDbPolyline
 90
2
 70
0
 10
24.476470
 20
11.262916
 30
0.0
 10
23.097739
 20
11.019808
 30
0.0
  0
LWPOLYLINE
  5
1c6
100
AcDbEntity
  8
0
 62
7
100
AcDbPolyline
 90
2
 70
0
 10
23.340846
 20
9.641078
 30
0.0
 10
23.097739
 20
11.019808
 30
0.0
  0
LWPOLYLINE
  5
1c7
100
AcDbEntity
  8
0
 62
7
100
AcDbPolyline
 90
2
 70
0
 10
24.476470
 20
11.262916
 30
0.0
 10
24.719577
 20
9.884185
 30
0.0
  0
LWPOLYLINE
  5
1c8
100
AcDbEntity
  8
0
 62
7
100
AcDbPolyline
 90
2
 70
0
 10
23.340846
 20
9.641078
 30
0.0
 10
24.719577
 20
9.884185
 30
0.0
  0
LWPOLYLINE
  5
1c9
100
AcDbEntity
  8
0
 62
7
100
AcDbPolyline
 90
2
 70
0
 10
25.281439
 20
9.577086
 30
0.0
 10
26.660170
 20
9.820193
 30
0.0
  0
LWPOLYLINE
  5
1ca
100
AcDbEntity
  8
0
 62
7
100
AcDbPolyline
 90
2
 70
0
 10
25.281439
 20
9.577086
 30
0.0
 10
25.038332
 20
10.955817
 30
0.0
  0
LWPOLYLINE
  5
1cb
100
AcDbEntity
  8
0
 62
7
100
AcDbPolyline
 90
2
 70
0
 10
26.417063
 20
11.198924
 30
0.0
 10
26.660170
 20
9.820193
 30
0.0
  0
LWPOLYLINE
  5
1cc
100
AcDbEntity
  8
0
 62
7
100
AcDbPolyline
 90
2
 70
0
 10
26.417063
 20
11.198924
 30
0.0
 10
25.038332
 20
10.955817
 30
0.0
  0
LWPOLYLINE
  5
1cd
100
AcDbEntity
  8
0
 62
7
100
AcDbPolyline
 90
2
 70
0
 10
27.187304
 20
9.710056
 30
0.0
 10
28.566035
 20
9.953163
 30
0.0
  0
LWPOLYLINE
  5
1ce
100
AcDbEntity
  8
0
 62
7
100
AcDbPolyline
 90
2
 70
0
 10
28.322927
 20
11.331894
 30
0.0
 10
26.944197
 20
11.088787
 30
0.0
  0
LWPOLYLINE
  5
1cf
100
AcDbEntity
  8
0
 62
7
100
AcDbPolyline
 90
2
 70
0
 10
27.187304
 20
9.710056
 30
0.0
 10
26.944197
 20
11.088787
 30
0.0
  0
LWPOLYLINE
  5
1d0
100
AcDbEntity
  8
0
 62
7
100
AcDbPolyline
 90
2
 70
0
 10
28.322927
 20
11.331894
 30
0.0
 10
28.566035
 20
9.953163
 30
0.0
  0
LWPOLYLINE
  5
1d1
100
AcDbEntity
  8
0
 62
7
100
AcDbPolyline
 90
2
 70
0
 10
4.336050
 20
9.217233
 30
0.0
 10
4.092942
 20
7.838502
 30
0.0
  0
LWPOLYLINE
  5
1d2
100
AcDbEntity
  8
0
 62
7
100
AcDbPolyline
 90
2
 70
0
 10
2.714211
 20
8.081609
 30
0.0
 10
4.092942
 20
7.838502
 30
0.0
  0
LWPOLYLINE
  5
1d3
100
AcDbEntity
  8
0
 62
7
100
AcDbPolyline
 90
2
 70
0
 10
4.336050
 20
9.217233
 30
0.0
 10
2.957319
 20
9.460340
 30
0.0
  0
LWPOLYLINE
  5
1d4
100
AcDbEntity
  8
0
 62
7
100
AcDbPolyline
 90
2
 70
0
 10
2.714211
 20
8.081609
 30
0.0
 10
2.957319
 20
9.460340
 30
0.0
  0
LWPOLYLINE
  5
1d5
100
AcDbEntity
  8
0
 62
7
100
AcDbPolyline
 90
2
 70
0
 10
4.620076
 20
7.948639
 30
0.0
 10
4.863183
 20
9.327370
 30
0.0
  0
LWPOLYLINE
  5
1d6
100
AcDbEntity
  8
0
 62
7
100
AcDbPolyline
 90
2
 70
0
 10
6.241914
 20
9.084263
 30
0.0
 10
5.998806
 20
7.705532
 30
0.0
  0
LWPOLYLINE
  5
1d7
100
AcDbEntity
  8
0
 62
7
100
AcDbPolyline
 90
2
 70
0
 10
4.620076
 20
7.948639
 30
0.0
 10
5.998806
 20
7.705532
 30
0.0
  0
LWPOLYLINE
  5
1d8
100
AcDbEntity
  8
0
 62
7
100
AcDbPolyline
 90
2
 70
0
 10
6.241914
 20
9.084263
 30
0.0
 10
4.863183
 20
9.327370
 30
0.0
  0
LWPOLYLINE
  5
1d9
100
AcDbEntity
  8
0
 62
7
100
AcDbPolyline
 90
2
 70
0
 10
8.182508
 20
9.148254
 30
0.0
 10
7.939401
 20
7.769523
 30
0.0
  0
LWPOLYLINE
  5
1da
100
AcDbEntity
  8
0
 62
7
100
AcDbPolyline
 90
2
 70
0
 10
6.560670
 20
8.012631
 30
0.0
 10
7.939401
 20
7.769523
 30
0.0
  0
LWPOLYLINE
  5
1db
100
AcDbEntity
  8
0
 62
7
100
AcDbPolyline
 90
2
 70
0
 10
8.182508
 20
9.148254
 30
0.0
 10
6.803777
 20
9.391361
 30
0.0
  0
LWPOLYLINE
  5
1dc
100
AcDbEntity
  8
0
 62
7
100
AcDbPolyline
 90
2
 70
0
 10
6.560670
 20
8.012631
 30
0.0
 10
6.803777
 20
9.391361
 30
0.0
  0
LWPOLYLINE
  5
1dd
100
AcDbEntity
  8
0
 62
7
100
AcDbPolyline
 90
2
 70
0
 10
8.362345
 20
7.288775
 30
0.0
 10
8.605452
 20
8.667506
 30
0.0
  0
LWPOLYLINE
  5
1de
100
AcDbEntity
  8
0
 62
7
100
AcDbPolyline
 90
2
 70
0
 10
8.362345
 20
7.288775
 30
0.0
 10
9.741076
 20
7.045668
 30
0.0
  0
LWPOLYLINE
  5
1df
100
AcDbEntity
  8
0
 62
7
100
AcDbPolyline
 90
2
 70
0
 10
9.984183
 20
8.424399
 30
0.0
 10
8.605452
 20
8.667506
 30
0.0
  0
LWPOLYLINE
  5
1e0
100
AcDbEntity
  8
0
 62
7
100
AcDbPolyline
 90
2
 70
0
 10
9.984183
 20
8.424399
 30
0.0
 10
9.741076
 20
7.045668
 30
0.0
  0
LWPOLYLINE
  5
1e1
100
AcDbEntity
  8
0
 62
7
100
AcDbPolyline
 90
2
 70
0
 10
11.785859
 20
7.700544
 30
0.0
 10
10.407128
 20
7.943651
 30
0.0
  0
LWPOLYLINE
  5
1e2
100
AcDbEntity
  8
0
 62
7
100
AcDbPolyline
 90
2
 70
0
 10
10.164021
 20
6.564920
 30
0.0
 10
10.407128
 20
7.943651
 30
0.0
  0
LWPOLYLINE
  5
1e3
100
AcDbEntity
  8
0
 62
7
100
AcDbPolyline
 90
2
 70
0
 10
11.785859
 20
7.700544
 30
0.0
 10
11.542752
 20
6.321813
 30
0.0
  0
LWPOLYLINE
  5
1e4
100
AcDbEntity
  8
0
 62
7
100
AcDbPolyline
 90
2
 70
0
 10
10.164021
 20
6.564920
 30
0.0
 10
11.542752
 20
6.321813
 30
0.0
  0
LWPOLYLINE
  5
1e5
100
AcDbEntity
  8
0
 62
7
100
AcDbPolyline
 90
2
 70
0
 10
21.203049
 20
7.944072
 30
0.0
 10
21.446157
 20
6.565341
 30
0.0
  0
LWPOLYLINE
  5
1e6
100
AcDbEntity
  8
0
 62
7
100
AcDbPolyline
 90
2
 70
0
 10
20.067426
 20
6.322234
 30
0.0
 10
19.824318
 20
7.700965
 30
0.0
  0
LWPOLYLINE
  5
1e7
100
AcDbEntity
  8
0
 62
7
100
AcDbPolyline
 90
2
 70
0
 10
20.067426
 20
6.322234
 30
0.0
 10
21.446157
 20
6.565341
 30
0.0
  0
LWPOLYLINE
  5
1e8
100
AcDbEntity
  8
0
 62
7
100
AcDbPolyline
 90
2
 70
0
 10
21.203049
 20
7.944072
 30
0.0
 10
19.824318
 20
7.700965
 30
0.0
  0
LWPOLYLINE
  5
1e9
100
AcDbEntity
  8
0
 62
7
100
AcDbPolyline
 90
2
 70
0
 10
21.869102
 20
7.046088
 30
0.0
 10
21.625994
 20
8.424819
 30
0.0
  0
LWPOLYLINE
  5
1ea
100
AcDbEntity
  8
0
 62
7
100
AcDbPolyline
 90
2
 70
0
 10
21.869102
 20
7.046088
 30
0.0
 10
23.247833
 20
7.289195
 30
0.0
  0
LWPOLYLINE
  5
1eb
100
AcDbEntity
  8
0
 62
7
100
AcDbPolyline
 90
2
 70
0
 10
23.004725
 20
8.667926
 30
0.0
 10
21.625994
 20
8.424819
 30
0.0
  0
LWPOLYLINE
  5
1ec
100
AcDbEntity
  8
0
 62
7
100
AcDbPolyline
 90
2
 70
0
 10
23.004725
 20
8.667926
 30
0.0
 10
23.247833
 20
7.289195
 30
0.0
  0
LWPOLYLINE
  5
1ed
100
AcDbEntity
  8
0
 62
7
100
AcDbPolyline
 90
2
 70
0
 10
23.670777
 20
7.769943
 30
0.0
 10
25.049508
 20
8.013051
 30
0.0
  0
LWPOLYLINE
  5
1ee
100
AcDbEntity
  8
0
 62
7
100
AcDbPolyline
 90
2
 70
0
 10
23.670777
 20
7.769943
 30
0.0
 10
23.427669
 20
9.148674
 30
0.0
  0
LWPOLYLINE
  5
1ef
100
AcDbEntity
  8
0
 62
7
100
AcDbPolyline
 90
2
 70
0
 10
24.806400
 20
9.391782
 30
0.0
 10
23.427669
 20
9.148674
 30
0.0
  0
LWPOLYLINE
  5
1f0
100
AcDbEntity
  8
0
 62
7
100
AcDbPolyline
 90
2
 70
0
 10
24.806400
 20
9.391782
 30
0.0
 10
25.049508
 20
8.013051
 30
0.0
  0
LWPOLYLINE
  5
1f1
100
AcDbEntity
  8
0
 62
7
100
AcDbPolyline
 90
2
 70
0
 10
25.611372
 20
7.705951
 30
0.0
 10
26.990103
 20
7.949059
 30
0.0
  0
LWPOLYLINE
  5
1f2
100
AcDbEntity
  8
0
 62
7
100
AcDbPolyline
 90
2
 70
0
 10
25.611372
 20
7.705951
 30
0.0
 10
25.368264
 20
9.084682
 30
0.0
  0
LWPOLYLINE
  5
1f3
100
AcDbEntity
  8
0
 62
7
100
AcDbPolyline
 90
2
 70
0
 10
26.746995
 20
9.327790
 30
0.0
 10
26.990103
 20
7.949059
 30
0.0
  0
LWPOLYLINE
  5
1f4
100
AcDbEntity
  8
0
 62
7
100
AcDbPolyline
 90
2
 70
0
 10
26.746995
 20
9.327790
 30
0.0
 10
25.368264
 20
9.084682
 30
0.0
  0
LWPOLYLINE
  5
1f5
100
AcDbEntity
  8
0
 62
7
100
AcDbPolyline
 90
2
 70
0
 10
28.652859
 20
9.460760
 30
0.0
 10
28.895966
 20
8.082029
 30
0.0
  0
LWPOLYLINE
  5
1f6
100
AcDbEntity
  8
0
 62
7
100
AcDbPolyline
 90
2
 70
0
 10
27.517235
 20
7.838921
 30
0.0
 10
27.274128
 20
9.217652
 30
0.0
  0
LWPOLYLINE
  5
1f7
100
AcDbEntity
  8
0
 62
7
100
AcDbPolyline
 90
2
 70
0
 10
27.517235
 20
7.838921
 30
0.0
 10
28.895966
 20
8.082029
 30
0.0
  0
LWPOLYLINE
  5
1f8
100
AcDbEntity
  8
0
 62
7
100
AcDbPolyline
 90
2
 70
0
 10
28.652859
 20
9.460760
 30
0.0
 10
27.274128
 20
9.217652
 30
0.0
  0
LWPOLYLINE
  5
1f9
100
AcDbEntity
  8
0
 62
7
100
AcDbPolyline
 90
2
 70
0
 10
2.384279
 20
6.210474
 30
0.0
 10
2.627387
 20
7.589205
 30
0.0
  0
LWPOLYLINE
  5
1fa
100
AcDbEntity
  8
0
 62
7
100
AcDbPolyline
 90
2
 70
0
 10
4.006118
 20
7.346098
 30
0.0
 10
2.627387
 20
7.589205
 30
0.0
  0
LWPOLYLINE
  5
1fb
100
AcDbEntity
  8
0
 62
7
100
AcDbPolyline
 90
2
 70
0
 10
4.006118
 20
7.346098
 30
0.0
 10
3.763010
 20
5.967367
 30
0.0
  0
LWPOLYLINE
  5
1fc
100
AcDbEntity
  8
0
 62
7
100
AcDbPolyline
 90
2
 70
0
 10
2.384279
 20
6.210474
 30
0.0
 10
3.763010
 20
5.967367
 30
0.0
  0
LWPOLYLINE
  5
1fd
100
AcDbEntity
  8
0
 62
7
100
AcDbPolyline
 90
2
 70
0
 10
5.911983
 20
7.213128
 30
0.0
 10
4.533252
 20
7.456235
 30
0.0
  0
LWPOLYLINE
  5
1fe
100
AcDbEntity
  8
0
 62
7
100
AcDbPolyline
 90
2
 70
0
 10
5.911983
 20
7.213128
 30
0.0
 10
5.668875
 20
5.834397
 30
0.0
  0
LWPOLYLINE
  5
1ff
100
AcDbEntity
  8
0
 62
7
100
AcDbPolyline
 90
2
 70
0
 10
4.290144
 20
6.077504
 30
0.0
 10
4.533252
 20
7.456235
 30
0.0
  0
LWPOLYLINE
  5
200
100
AcDbEntity
  8
0
 62
7
100
AcDbPolyline
 90
2
 70
0
 10
4.290144
 20
6.077504
 30
0.0
 10
5.668875
 20
5.834397
 30
0.0
  0
LWPOLYLINE
  5
201
100
AcDbEntity
  8
0
 62
7
100
AcDbPolyline
 90
2
 70
0
 10
6.230738
 20
6.141496
 30
0.0
 10
6.473846
 20
7.520227
 30
0.0
  0
LWPOLYLINE
  5
202
100
AcDbEntity
  8
0
 62
7
100
AcDbPolyline
 90
2
 70
0
 10
6.230738
 20
6.141496
 30
0.0
 10
7.609469
 20
5.898389
 30
0.0
  0
LWPOLYLINE
  5
203
100
AcDbEntity
  8
0
 62
7
100
AcDbPolyline
 90
2
 70
0
 10
7.852577
 20
7.277120
 30
0.0
 10
6.473846
 20
7.520227
 30
0.0
  0
LWPOLYLINE
  5
204
100
AcDbEntity
  8
0
 62
7
100
AcDbPolyline
 90
2
 70
0
 10
7.852577
 20
7.277120
 30
0.0
 10
7.609469
 20
5.898389
 30
0.0
  0
LWPOLYLINE
  5
205
100
AcDbEntity
  8
0
 62
7
100
AcDbPolyline
 90
2
 70
0
 10
9.654252
 20
6.553265
 30
0.0
 10
9.411144
 20
5.174534
 30
0.0
  0
LWPOLYLINE
  5
206
100
AcDbEntity
  8
0
 62
7
100
AcDbPolyline
 90
2
 70
0
 10
8.032413
 20
5.417642
 30
0.0
 10
8.275521
 20
6.796373
 30
0.0
  0
LWPOLYLINE
  5
207
100
AcDbEntity
  8
0
 62
7
100
AcDbPolyline
 90
2
 70
0
 10
8.032413
 20
5.417642
 30
0.0
 10
9.411144
 20
5.174534
 30
0.0
  0
LWPOLYLINE
  5
208
100
AcDbEntity
  8
0
 62
7
100
AcDbPolyline
 90
2
 70
0
 10
9.654252
 20
6.553265
 30
0.0
 10
8.275521
 20
6.796373
 30
0.0
  0
LWPOLYLINE
  5
209
100
AcDbEntity
  8
0
 62
7
100
AcDbPolyline
 90
2
 70
0
 10
11.455928
 20
5.829410
 30
0.0
 10
11.212820
 20
4.450679
 30
0.0
  0
LWPOLYLINE
  5
20a
100
AcDbEntity
  8
0
 62
7
100
AcDbPolyline
 90
2
 70
0
 10
9.834089
 20
4.693787
 30
0.0
 10
10.077197
 20
6.072517
 30
0.0
  0
LWPOLYLINE
  5
20b
100
AcDbEntity
  8
0
 62
7
100
AcDbPolyline
 90
2
 70
0
 10
11.455928
 20
5.829410
 30
0.0
 10
10.077197
 20
6.072517
 30
0.0
  0
LWPOLYLINE
  5
20c
100
AcDbEntity
  8
0
 62
7
100
AcDbPolyline
 90
2
 70
0
 10
9.834089
 20
4.693787
 30
0.0
 10
11.212820
 20
4.450679
 30
0.0
  0
LWPOLYLINE
  5
20d
100
AcDbEntity
  8
0
 62
7
100
AcDbPolyline
 90
2
 70
0
 10
20.397359
 20
4.451099
 30
0.0
 10
20.154251
 20
5.829830
 30
0.0
  0
LWPOLYLINE
  5
20e
100
AcDbEntity
  8
0
 62
7
100
AcDbPolyline
 90
2
 70
0
 10
20.397359
 20
4.451099
 30
0.0
 10
21.776089
 20
4.694206
 30
0.0
  0
LWPOLYLINE
  5
20f
100
AcDbEntity
  8
0
 62
7
100
AcDbPolyline
 90
2
 70
0
 10
21.532982
 20
6.072937
 30
0.0
 10
21.776089
 20
4.694206
 30
0.0
  0
LWPOLYLINE
  5
210
100
AcDbEntity
  8
0
 62
7
100
AcDbPolyline
 90
2
 70
0
 10
21.532982
 20
6.072937
 30
0.0
 10
20.154251
 20
5.829830
 30
0.0
  0
LWPOLYLINE
  5
211
100
AcDbEntity
  8
0
 62
7
100
AcDbPolyline
 90
2
 70
0
 10
23.334656
 20
6.796792
 30
0.0
 10
23.577764
 20
5.418061
 30
0.0
  0
LWPOLYLINE
  5
212
100
AcDbEntity
  8
0
 62
7
100
AcDbPolyline
 90
2
 70
0
 10
22.199033
 20
5.174954
 30
0.0
 10
21.955925
 20
6.553684
 30
0.0
  0
LWPOLYLINE
  5
213
100
AcDbEntity
  8
0
 62
7
100
AcDbPolyline
 90
2
 70
0
 10
23.334656
 20
6.796792
 30
0.0
 10
21.955925
 20
6.553684
 30
0.0
  0
LWPOLYLINE
  5
214
100
AcDbEntity
  8
0
 62
7
100
AcDbPolyline
 90
2
 70
0
 10
22.199033
 20
5.174954
 30
0.0
 10
23.577764
 20
5.418061
 30
0.0
  0
LWPOLYLINE
  5
215
100
AcDbEntity
  8
0
 62
7
100
AcDbPolyline
 90
2
 70
0
 10
24.000708
 20
5.898808
 30
0.0
 10
25.379439
 20
6.141915
 30
0.0
  0
LWPOLYLINE
  5
216
100
AcDbEntity
  8
0
 62
7
100
AcDbPolyline
 90
2
 70
0
 10
25.136332
 20
7.520646
 30
0.0
 10
25.379439
 20
6.141915
 30
0.0
  0
LWPOLYLINE
  5
217
100
AcDbEntity
  8
0
 62
7
100
AcDbPolyline
 90
2
 70
0
 10
25.136332
 20
7.520646
 30
0.0
 10
23.757601
 20
7.277539
 30
0.0
  0
LWPOLYLINE
  5
218
100
AcDbEntity
  8
0
 62
7
100
AcDbPolyline
 90
2
 70
0
 10
24.000708
 20
5.898808
 30
0.0
 10
23.757601
 20
7.277539
 30
0.0
  0
LWPOLYLINE
  5
219
100
AcDbEntity
  8
0
 62
7
100
AcDbPolyline
 90
2
 70
0
 10
25.941303
 20
5.834817
 30
0.0
 10
27.320034
 20
6.077924
 30
0.0
  0
LWPOLYLINE
  5
21a
100
AcDbEntity
  8
0
 62
7
100
AcDbPolyline
 90
2
 70
0
 10
27.076926
 20
7.456655
 30
0.0
 10
27.320034
 20
6.077924
 30
0.0
  0
LWPOLYLINE
  5
21b
100
AcDbEntity
  8
0
 62
7
100
AcDbPolyline
 90
2
 70
0
 10
27.076926
 20
7.456655
 30
0.0
 10
25.698195
 20
7.213547
 30
0.0
  0
LWPOLYLINE
  5
21c
100
AcDbEntity
  8
0
 62
7
100
AcDbPolyline
 90
2
 70
0
 10
25.941303
 20
5.834817
 30
0.0
 10
25.698195
 20
7.213547
 30
0.0
  0
LWPOLYLINE
  5
21d
100
AcDbEntity
  8
0
 62
7
100
AcDbPolyline
 90
2
 70
0
 10
28.982790
 20
7.589625
 30
0.0
 10
27.604059
 20
7.346518
 30
0.0
  0
LWPOLYLINE
  5
21e
100
AcDbEntity
  8
0
 62
7
100
AcDbPolyline
 90
2
 70
0
 10
27.847167
 20
5.967787
 30
0.0
 10
29.225897
 20
6.210894
 30
0.0
  0
LWPOLYLINE
  5
21f
100
AcDbEntity
  8
0
 62
7
100
AcDbPolyline
 90
2
 70
0
 10
28.982790
 20
7.589625
 30
0.0
 10
29.225897
 20
6.210894
 30
0.0
  0
LWPOLYLINE
  5
220
100
AcDbEntity
  8
0
 62
7
100
AcDbPolyline
 90
2
 70
0
 10
27.847167
 20
5.967787
 30
0.0
 10
27.604059
 20
7.346518
 30
0.0
  0
LWPOLYLINE
  5
221
100
AcDbEntity
  8
0
 62
7
100
AcDbPolyline
 90
2
 70
0
 10
3.914022
 20
3.944410
 30
0.0
 10
5.292753
 20
3.701303
 30
0.0
  0
LWPOLYLINE
  5
222
100
AcDbEntity
  8
0
 62
7
100
AcDbPolyline
 90
2
 70
0
 10
3.914022
 20
3.944410
 30
0.0
 10
4.157130
 20
5.323141
 30
0.0
  0
LWPOLYLINE
  5
223
100
AcDbEntity
  8
0
 62
7
100
AcDbPolyline
 90
2
 70
0
 10
5.535861
 20
5.080034
 30
0.0
 10
4.157130
 20
5.323141
 30
0.0
  0
LWPOLYLINE
  5
224
100
AcDbEntity
  8
0
 62
7
100
AcDbPolyline
 90
2
 70
0
 10
5.535861
 20
5.080034
 30
0.0
 10
5.292753
 20
3.701303
 30
0.0
  0
LWPOLYLINE
  5
225
100
AcDbEntity
  8
0
 62
7
100
AcDbPolyline
 90
2
 70
0
 10
5.785157
 20
3.614479
 30
0.0
 10
7.163888
 20
3.371372
 30
0.0
  0
LWPOLYLINE
  5
226
100
AcDbEntity
  8
0
 62
7
100
AcDbPolyline
 90
2
 70
0
 10
7.406995
 20
4.750102
 30
0.0
 10
7.163888
 20
3.371372
 30
0.0
  0
LWPOLYLINE
  5
227
100
AcDbEntity
  8
0
 62
7
100
AcDbPolyline
 90
2
 70
0
 10
5.785157
 20
3.614479
 30
0.0
 10
6.028264
 20
4.993210
 30
0.0
  0
LWPOLYLINE
  5
228
100
AcDbEntity
  8
0
 62
7
100
AcDbPolyline
 90
2
 70
0
 10
7.406995
 20
4.750102
 30
0.0
 10
6.028264
 20
4.993210
 30
0.0
  0
LWPOLYLINE
  5
229
100
AcDbEntity
  8
0
 62
7
100
AcDbPolyline
 90
2
 70
0
 10
9.537501
 20
4.057434
 30
0.0
 10
9.058673
 20
2.741864
 30
0.0
  0
LWPOLYLINE
  5
22a
100
AcDbEntity
  8
0
 62
7
100
AcDbPolyline
 90
2
 70
0
 10
7.743103
 20
3.220692
 30
0.0
 10
8.221931
 20
4.536262
 30
0.0
  0
LWPOLYLINE
  5
22b
100
AcDbEntity
  8
0
 62
7
100
AcDbPolyline
 90
2
 70
0
 10
9.537501
 20
4.057434
 30
0.0
 10
8.221931
 20
4.536262
 30
0.0
  0
LWPOLYLINE
  5
22c
100
AcDbEntity
  8
0
 62
7
100
AcDbPolyline
 90
2
 70
0
 10
7.743103
 20
3.220692
 30
0.0
 10
9.058673
 20
2.741864
 30
0.0
  0
LWPOLYLINE
  5
22d
100
AcDbEntity
  8
0
 62
7
100
AcDbPolyline
 90
2
 70
0
 10
19.239225
 20
0.551170
 30
0.0
 10
20.311688
 20
1.451072
 30
0.0
  0
LWPOLYLINE
  5
22e
100
AcDbEntity
  8
0
 62
7
100
AcDbPolyline
 90
2
 70
0
 10
19.411785
 20
2.523535
 30
0.0
 10
18.339323
 20
1.623632
 30
0.0
  0
LWPOLYLINE
  5
22f
100
AcDbEntity
  8
0
 62
7
100
AcDbPolyline
 90
2
 70
0
 10
19.411785
 20
2.523535
 30
0.0
 10
20.311688
 20
1.451072
 30
0.0
  0
LWPOLYLINE
  5
230
100
AcDbEntity
  8
0
 62
7
100
AcDbPolyline
 90
2
 70
0
 10
19.239225
 20
0.551170
 30
0.0
 10
18.339323
 20
1.623632
 30
0.0
  0
LWPOLYLINE
  5
231
100
AcDbEntity
  8
0
 62
7
100
AcDbPolyline
 90
2
 70
0
 10
20.789507
 20
1.785645
 30
0.0
 10
22.001943
 20
2.485645
 30
0.0
  0
LWPOLYLINE
  5
232
100
AcDbEntity
  8
0
 62
7
100
AcDbPolyline
 90
2
 70
0
 10
21.301943
 20
3.698080
 30
0.0
 10
22.001943
 20
2.485645
 30
0.0
  0
LWPOLYLINE
  5
233
100
AcDbEntity
  8
0
 62
7
100
AcDbPolyline
 90
2
 70
0
 10
21.301943
 20
3.698080
 30
0.0
 10
20.089507
 20
2.998080
 30
0.0
  0
LWPOLYLINE
  5
234
100
AcDbEntity
  8
0
 62
7
100
AcDbPolyline
 90
2
 70
0
 10
20.789507
 20
1.785645
 30
0.0
 10
20.089507
 20
2.998080
 30
0.0
  0
LWPOLYLINE
  5
235
100
AcDbEntity
  8
0
 62
7
100
AcDbPolyline
 90
2
 70
0
 10
22.531946
 20
2.732522
 30
0.0
 10
22.053118
 20
4.048092
 30
0.0
  0
LWPOLYLINE
  5
236
100
AcDbEntity
  8
0
 62
7
100
AcDbPolyline
 90
2
 70
0
 10
23.368688
 20
4.526920
 30
0.0
 10
22.053118
 20
4.048092
 30
0.0
  0
LWPOLYLINE
  5
237
100
AcDbEntity
  8
0
 62
7
100
AcDbPolyline
 90
2
 70
0
 10
22.531946
 20
2.732522
 30
0.0
 10
23.847516
 20
3.211350
 30
0.0
  0
LWPOLYLINE
  5
238
100
AcDbEntity
  8
0
 62
7
100
AcDbPolyline
 90
2
 70
0
 10
23.368688
 20
4.526920
 30
0.0
 10
23.847516
 20
3.211350
 30
0.0
  0
LWPOLYLINE
  5
239
100
AcDbEntity
  8
0
 62
7
100
AcDbPolyline
 90
2
 70
0
 10
25.581913
 20
4.993629
 30
0.0
 10
24.203182
 20
4.750522
 30
0.0
  0
LWPOLYLINE
  5
23a
100
AcDbEntity
  8
0
 62
7
100
AcDbPolyline
 90
2
 70
0
 10
25.581913
 20
4.993629
 30
0.0
 10
25.825021
 20
3.614898
 30
0.0
  0
LWPOLYLINE
  5
23b
100
AcDbEntity
  8
0
 62
7
100
AcDbPolyline
 90
2
 70
0
 10
24.446290
 20
3.371791
 30
0.0
 10
25.825021
 20
3.614898
 30
0.0
  0
LWPOLYLINE
  5
23c
100
AcDbEntity
  8
0
 62
7
100
AcDbPolyline
 90
2
 70
0
 10
24.446290
 20
3.371791
 30
0.0
 10
24.203182
 20
4.750522
 30
0.0
  0
LWPOLYLINE
  5
23d
100
AcDbEntity
  8
0
 62
7
100
AcDbPolyline
 90
2
 70
0
 10
26.317425
 20
3.701723
 30
0.0
 10
26.074317
 20
5.080454
 30
0.0
  0
LWPOLYLINE
  5
23e
100
AcDbEntity
  8
0
 62
7
100
AcDbPolyline
 90
2
 70
0
 10
27.453048
 20
5.323561
 30
0.0
 10
26.074317
 20
5.080454
 30
0.0
  0
LWPOLYLINE
  5
23f
100
AcDbEntity
  8
0
 62
7
100
AcDbPolyline
 90
2
 70
0
 10
27.453048
 20
5.323561
 30
0.0
 10
27.696156
 20
3.944830
 30
0.0
  0
LWPOLYLINE
  5
240
100
AcDbEntity
  8
0
 62
7
100
AcDbPolyline
 90
2
 70
0
 10
26.317425
 20
3.701723
 30
0.0
 10
27.696156
 20
3.944830
 30
0.0
  0
LWPOLYLINE
  5
241
100
AcDbEntity
  8
0
 62
7
100
AcDbPolyline
 90
2
 70
0
 10
4.665981
 20
11.088368
 30
0.0
 10
4.422874
 20
9.709637
 30
0.0
  0
LWPOLYLINE
  5
242
100
AcDbEntity
  8
0
 62
7
100
AcDbPolyline
 90
2
 70
0
 10
4.665981
 20
11.088368
 30
0.0
 10
3.287250
 20
11.331475
 30
0.0
  0
LWPOLYLINE
  5
243
100
AcDbEntity
  8
0
 62
7
100
AcDbPolyline
 90
2
 70
0
 10
3.044143
 20
9.952744
 30
0.0
 10
3.287250
 20
11.331475
 30
0.0
  0
LWPOLYLINE
  5
244
100
AcDbEntity
  8
0
 62
7
100
AcDbPolyline
 90
2
 70
0
 10
3.044143
 20
9.952744
 30
0.0
 10
4.422874
 20
9.709637
 30
0.0
  0
LWPOLYLINE
  5
245
100
AcDbEntity
  8
0
 62
7
100
AcDbPolyline
 90
2
 70
0
 10
4.995913
 20
12.959502
 30
0.0
 10
3.617182
 20
13.202609
 30
0.0
  0
LWPOLYLINE
  5
246
100
AcDbEntity
  8
0
 62
7
100
AcDbPolyline
 90
2
 70
0
 10
4.995913
 20
12.959502
 30
0.0
 10
4.752805
 20
11.580771
 30
0.0
  0
LWPOLYLINE
  5
247
100
AcDbEntity
  8
0
 62
7
100
AcDbPolyline
 90
2
 70
0
 10
3.374074
 20
11.823878
 30
0.0
 10
3.617182
 20
13.202609
 30
0.0
  0
LWPOLYLINE
  5
248
100
AcDbEntity
  8
0
 62
7
100
AcDbPolyline
 90
2
 70
0
 10
3.374074
 20
11.823878
 30
0.0
 10
4.752805
 20
11.580771
 30
0.0
  0
LWPOLYLINE
  5
249
100
AcDbEntity
  8
0
 62
7
100
AcDbPolyline
 90
2
 70
0
 10
5.279939
 20
11.690908
 30
0.0
 10
5.523046
 20
13.069639
 30
0.0
  0
LWPOLYLINE
  5
24a
100
AcDbEntity
  8
0
 62
7
100
AcDbPolyline
 90
2
 70
0
 10
6.901777
 20
12.826531
 30
0.0
 10
5.523046
 20
13.069639
 30
0.0
  0
LWPOLYLINE
  5
24b
100
AcDbEntity
  8
0
 62
7
100
AcDbPolyline
 90
2
 70
0
 10
6.901777
 20
12.826531
 30
0.0
 10
6.658670
 20
11.447800
 30
0.0
  0
LWPOLYLINE
  5
24c
100
AcDbEntity
  8
0
 62
7
100
AcDbPolyline
 90
2
 70
0
 10
5.279939
 20
11.690908
 30
0.0
 10
6.658670
 20
11.447800
 30
0.0
  0
LWPOLYLINE
  5
24d
100
AcDbEntity
  8
0
 62
7
100
AcDbPolyline
 90
2
 70
0
 10
7.220533
 20
11.754900
 30
0.0
 10
7.463640
 20
13.133631
 30
0.0
  0
LWPOLYLINE
  5
24e
100
AcDbEntity
  8
0
 62
7
100
AcDbPolyline
 90
2
 70
0
 10
8.842371
 20
12.890523
 30
0.0
 10
7.463640
 20
13.133631
 30
0.0
  0
LWPOLYLINE
  5
24f
100
AcDbEntity
  8
0
 62
7
100
AcDbPolyline
 90
2
 70
0
 10
8.842371
 20
12.890523
 30
0.0
 10
8.599264
 20
11.511792
 30
0.0
  0
LWPOLYLINE
  5
250
100
AcDbEntity
  8
0
 62
7
100
AcDbPolyline
 90
2
 70
0
 10
7.220533
 20
11.754900
 30
0.0
 10
8.599264
 20
11.511792
 30
0.0
  0
LWPOLYLINE
  5
251
100
AcDbEntity
  8
0
 62
7
100
AcDbPolyline
 90
2
 70
0
 10
18.745529
 20
2.876741
 30
0.0
 10
19.892342
 20
3.679748
 30
0.0
  0
LWPOLYLINE
  5
252
100
AcDbEntity
  8
0
 62
7
100
AcDbPolyline
 90
2
 70
0
 10
19.089335
 20
4.826561
 30
0.0
 10
17.942522
 20
4.023554
 30
0.0
  0
LWPOLYLINE
  5
253
100
AcDbEntity
  8
0
 62
7
100
AcDbPolyline
 90
2
 70
0
 10
18.745529
 20
2.876741
 30
0.0
 10
17.942522
 20
4.023554
 30
0.0
  0
LWPOLYLINE
  5
254
100
AcDbEntity
  8
0
 62
7
100
AcDbPolyline
 90
2
 70
0
 10
19.089335
 20
4.826561
 30
0.0
 10
19.892342
 20
3.679748
 30
0.0
  0
LWPOLYLINE
  5
255
100
AcDbEntity
  8
0
 62
7
100
AcDbPolyline
 90
2
 70
0
 10
9.022207
 20
11.031045
 30
0.0
 10
10.400938
 20
10.787938
 30
0.0
  0
LWPOLYLINE
  5
256
100
AcDbEntity
  8
0
 62
7
100
AcDbPolyline
 90
2
 70
0
 10
10.644046
 20
12.166668
 30
0.0
 10
10.400938
 20
10.787938
 30
0.0
  0
LWPOLYLINE
  5
257
100
AcDbEntity
  8
0
 62
7
100
AcDbPolyline
 90
2
 70
0
 10
9.022207
 20
11.031045
 30
0.0
 10
9.265315
 20
12.409776
 30
0.0
  0
LWPOLYLINE
  5
258
100
AcDbEntity
  8
0
 62
7
100
AcDbPolyline
 90
2
 70
0
 10
10.644046
 20
12.166668
 30
0.0
 10
9.265315
 20
12.409776
 30
0.0
  0
LWPOLYLINE
  5
259
100
AcDbEntity
  8
0
 62
7
100
AcDbPolyline
 90
2
 70
0
 10
26.857373
 20
11.581191
 30
0.0
 10
26.614265
 20
12.959922
 30
0.0
  0
LWPOLYLINE
  5
25a
100
AcDbEntity
  8
0
 62
7
100
AcDbPolyline
 90
2
 70
0
 10
26.857373
 20
11.581191
 30
0.0
 10
28.236104
 20
11.824298
 30
0.0
  0
LWPOLYLINE
  5
25b
100
AcDbEntity
  8
0
 62
7
100
AcDbPolyline
 90
2
 70
0
 10
27.992996
 20
13.203029
 30
0.0
 10
26.614265
 20
12.959922
 30
0.0
  0
LWPOLYLINE
  5
25c
100
AcDbEntity
  8
0
 62
7
100
AcDbPolyline
 90
2
 70
0
 10
27.992996
 20
13.203029
 30
0.0
 10
28.236104
 20
11.824298
 30
0.0
  0
LWPOLYLINE
  5
25d
100
AcDbEntity
  8
0
 62
7
100
AcDbPolyline
 90
2
 70
0
 10
20.543187
 20
11.686342
 30
0.0
 10
19.164456
 20
11.443234
 30
0.0
  0
LWPOLYLINE
  5
25e
100
AcDbEntity
  8
0
 62
7
100
AcDbPolyline
 90
2
 70
0
 10
19.407564
 20
10.064503
 30
0.0
 10
20.786295
 20
10.307611
 30
0.0
  0
LWPOLYLINE
  5
25f
100
AcDbEntity
  8
0
 62
7
100
AcDbPolyline
 90
2
 70
0
 10
20.543187
 20
11.686342
 30
0.0
 10
20.786295
 20
10.307611
 30
0.0
  0
LWPOLYLINE
  5
260
100
AcDbEntity
  8
0
 62
7
100
AcDbPolyline
 90
2
 70
0
 10
19.407564
 20
10.064503
 30
0.0
 10
19.164456
 20
11.443234
 30
0.0
  0
LWPOLYLINE
  5
261
100
AcDbEntity
  8
0
 62
7
100
AcDbPolyline
 90
2
 70
0
 10
22.344863
 20
12.410196
 30
0.0
 10
22.587970
 20
11.031465
 30
0.0
  0
LWPOLYLINE
  5
262
100
AcDbEntity
  8
0
 62
7
100
AcDbPolyline
 90
2
 70
0
 10
21.209240
 20
10.788357
 30
0.0
 10
20.966132
 20
12.167088
 30
0.0
  0
LWPOLYLINE
  5
263
100
AcDbEntity
  8
0
 62
7
100
AcDbPolyline
 90
2
 70
0
 10
22.344863
 20
12.410196
 30
0.0
 10
20.966132
 20
12.167088
 30
0.0
  0
LWPOLYLINE
  5
264
100
AcDbEntity
  8
0
 62
7
100
AcDbPolyline
 90
2
 70
0
 10
21.209240
 20
10.788357
 30
0.0
 10
22.587970
 20
11.031465
 30
0.0
  0
LWPOLYLINE
  5
265
100
AcDbEntity
  8
0
 62
7
100
AcDbPolyline
 90
2
 70
0
 10
24.146537
 20
13.134050
 30
0.0
 10
22.767806
 20
12.890942
 30
0.0
  0
LWPOLYLINE
  5
266
100
AcDbEntity
  8
0
 62
7
100
AcDbPolyline
 90
2
 70
0
 10
23.010914
 20
11.512211
 30
0.0
 10
22.767806
 20
12.890942
 30
0.0
  0
LWPOLYLINE
  5
267
100
AcDbEntity
  8
0
 62
7
100
AcDbPolyline
 90
2
 70
0
 10
24.146537
 20
13.134050
 30
0.0
 10
24.389645
 20
11.755319
 30
0.0
  0
LWPOLYLINE
  5
268
100
AcDbEntity
  8
0
 62
7
100
AcDbPolyline
 90
2
 70
0
 10
23.010914
 20
11.512211
 30
0.0
 10
24.389645
 20
11.755319
 30
0.0
  0
LWPOLYLINE
  5
269
100
AcDbEntity
  8
0
 62
7
100
AcDbPolyline
 90
2
 70
0
 10
26.087132
 20
13.070058
 30
0.0
 10
24.708401
 20
12.826951
 30
0.0
  0
LWPOLYLINE
  5
26a
100
AcDbEntity
  8
0
 62
7
100
AcDbPolyline
 90
2
 70
0
 10
26.087132
 20
13.070058
 30
0.0
 10
26.330239
 20
11.691327
 30
0.0
  0
LWPOLYLINE
  5
26b
100
AcDbEntity
  8
0
 62
7
100
AcDbPolyline
 90
2
 70
0
 10
24.951508
 20
11.448220
 30
0.0
 10
26.330239
 20
11.691327
 30
0.0
  0
LWPOLYLINE
  5
26c
100
AcDbEntity
  8
0
 62
7
100
AcDbPolyline
 90
2
 70
0
 10
24.951508
 20
11.448220
 30
0.0
 10
24.708401
 20
12.826951
 30
0.0
  0
LWPOLYLINE
  5
26d
100
AcDbEntity
  8
0
 62
7
100
AcDbPolyline
 90
2
 70
0
 10
10.823883
 20
10.307191
 30
0.0
 10
11.066991
 20
11.685921
 30
0.0
  0
LWPOLYLINE
  5
26e
100
AcDbEntity
  8
0
 62
7
100
AcDbPolyline
 90
2
 70
0
 10
12.445722
 20
11.442814
 30
0.0
 10
11.066991
 20
11.685921
 30
0.0
  0
LWPOLYLINE
  5
26f
100
AcDbEntity
  8
0
 62
7
100
AcDbPolyline
 90
2
 70
0
 10
10.823883
 20
10.307191
 30
0.0
 10
12.202614
 20
10.064083
 30
0.0
  0
LWPOLYLINE
  5
270
100
AcDbEntity
  8
0
 62
7
100
AcDbPolyline
 90
2
 70
0
 10
12.445722
 20
11.442814
 30
0.0
 10
12.202614
 20
10.064083
 30
0.0
  0
LWPOLYLINE
  5
271
100
AcDbEntity
  8
0
 62
7
100
AcDbPolyline
 90
2
 70
0
 10
1.502940
 20
12.153810
 30
0.0
 10
2.881671
 20
11.910702
 30
0.0
  0
LWPOLYLINE
  5
272
100
AcDbEntity
  8
0
 62
7
100
AcDbPolyline
 90
2
 70
0
 10
3.124778
 20
13.289433
 30
0.0
 10
1.746047
 20
13.532541
 30
0.0
  0
LWPOLYLINE
  5
273
100
AcDbEntity
  8
0
 62
7
100
AcDbPolyline
 90
2
 70
0
 10
3.124778
 20
13.289433
 30
0.0
 10
2.881671
 20
11.910702
 30
0.0
  0
LWPOLYLINE
  5
274
100
AcDbEntity
  8
0
 62
7
100
AcDbPolyline
 90
2
 70
0
 10
1.502940
 20
12.153810
 30
0.0
 10
1.746047
 20
13.532541
 30
0.0
  0
LWPOLYLINE
  5
275
100
AcDbEntity
  8
0
 62
7
100
AcDbPolyline
 90
2
 70
0
 10
1.173008
 20
10.282676
 30
0.0
 10
2.551739
 20
10.039568
 30
0.0
  0
LWPOLYLINE
  5
276
100
AcDbEntity
  8
0
 62
7
100
AcDbPolyline
 90
2
 70
0
 10
2.794847
 20
11.418299
 30
0.0
 10
2.551739
 20
10.039568
 30
0.0
  0
LWPOLYLINE
  5
277
100
AcDbEntity
  8
0
 62
7
100
AcDbPolyline
 90
2
 70
0
 10
1.173008
 20
10.282676
 30
0.0
 10
1.416116
 20
11.661407
 30
0.0
  0
LWPOLYLINE
  5
278
100
AcDbEntity
  8
0
 62
7
100
AcDbPolyline
 90
2
 70
0
 10
2.794847
 20
11.418299
 30
0.0
 10
1.416116
 20
11.661407
 30
0.0
  0
LWPOLYLINE
  5
279
100
AcDbEntity
  8
0
 62
7
100
AcDbPolyline
 90
2
 70
0
 10
0.843077
 20
8.411540
 30
0.0
 10
1.086185
 20
9.790271
 30
0.0
  0
LWPOLYLINE
  5
27a
100
AcDbEntity
  8
0
 62
7
100
AcDbPolyline
 90
2
 70
0
 10
2.464916
 20
9.547164
 30
0.0
 10
1.086185
 20
9.790271
 30
0.0
  0
LWPOLYLINE
  5
27b
100
AcDbEntity
  8
0
 62
7
100
AcDbPolyline
 90
2
 70
0
 10
0.843077
 20
8.411540
 30
0.0
 10
2.221808
 20
8.168433
 30
0.0
  0
LWPOLYLINE
  5
27c
100
AcDbEntity
  8
0
 62
7
100
AcDbPolyline
 90
2
 70
0
 10
2.464916
 20
9.547164
 30
0.0
 10
2.221808
 20
8.168433
 30
0.0
  0
LWPOLYLINE
  5
27d
100
AcDbEntity
  8
0
 62
7
100
AcDbPolyline
 90
2
 70
0
 10
0.513144
 20
6.540406
 30
0.0
 10
0.756252
 20
7.919137
 30
0.0
  0
LWPOLYLINE
  5
27e
100
AcDbEntity
  8
0
 62
7
100
AcDbPolyline
 90
2
 70
0
 10
2.134983
 20
7.676029
 30
0.0
 10
0.756252
 20
7.919137
 30
0.0
  0
LWPOLYLINE
  5
27f
100
AcDbEntity
  8
0
 62
7
100
AcDbPolyline
 90
2
 70
0
 10
2.134983
 20
7.676029
 30
0.0
 10
1.891875
 20
6.297299
 30
0.0
  0
LWPOLYLINE
  5
280
100
AcDbEntity
  8
0
 62
7
100
AcDbPolyline
 90
2
 70
0
 10
0.513144
 20
6.540406
 30
0.0
 10
1.891875
 20
6.297299
 30
0.0
  0
LWPOLYLINE
  5
281
100
AcDbEntity
  8
0
 62
7
100
AcDbPolyline
 90
2
 70
0
 10
12.625558
 20
9.583335
 30
0.0
 10
14.004289
 20
9.340227
 30
0.0
  0
LWPOLYLINE
  5
282
100
AcDbEntity
  8
0
 62
7
100
AcDbPolyline
 90
2
 70
0
 10
14.247396
 20
10.718958
 30
0.0
 10
14.004289
 20
9.340227
 30
0.0
  0
LWPOLYLINE
  5
283
100
AcDbEntity
  8
0
 62
7
100
AcDbPolyline
 90
2
 70
0
 10
14.247396
 20
10.718958
 30
0.0
 10
12.868665
 20
10.962066
 30
0.0
  0
LWPOLYLINE
  5
284
100
AcDbEntity
  8
0
 62
7
100
AcDbPolyline
 90
2
 70
0
 10
12.625558
 20
9.583335
 30
0.0
 10
12.868665
 20
10.962066
 30
0.0
  0
LWPOLYLINE
  5
285
100
AcDbEntity
  8
0
 62
7
100
AcDbPolyline
 90
2
 70
0
 10
12.295627
 20
7.712201
 30
0.0
 10
13.674358
 20
7.469094
 30
0.0
  0
LWPOLYLINE
  5
286
100
AcDbEntity
  8
0
 62
7
100
AcDbPolyline
 90
2
 70
0
 10
13.917465
 20
8.847824
 30
0.0
 10
13.674358
 20
7.469094
 30
0.0
  0
LWPOLYLINE
  5
287
100
AcDbEntity
  8
0
 62
7
100
AcDbPolyline
 90
2
 70
0
 10
13.917465
 20
8.847824
 30
0.0
 10
12.538735
 20
9.090932
 30
0.0
  0
LWPOLYLINE
  5
288
100
AcDbEntity
  8
0
 62
7
100
AcDbPolyline
 90
2
 70
0
 10
12.295627
 20
7.712201
 30
0.0
 10
12.538735
 20
9.090932
 30
0.0
  0
LWPOLYLINE
  5
289
100
AcDbEntity
  8
0
 62
7
100
AcDbPolyline
 90
2
 70
0
 10
13.587535
 20
6.976690
 30
0.0
 10
13.344428
 20
5.597959
 30
0.0
  0
LWPOLYLINE
  5
28a
100
AcDbEntity
  8
0
 62
7
100
AcDbPolyline
 90
2
 70
0
 10
11.965697
 20
5.841066
 30
0.0
 10
12.208804
 20
7.219797
 30
0.0
  0
LWPOLYLINE
  5
28b
100
AcDbEntity
  8
0
 62
7
100
AcDbPolyline
 90
2
 70
0
 10
11.965697
 20
5.841066
 30
0.0
 10
13.344428
 20
5.597959
 30
0.0
  0
LWPOLYLINE
  5
28c
100
AcDbEntity
  8
0
 62
7
100
AcDbPolyline
 90
2
 70
0
 10
13.587535
 20
6.976690
 30
0.0
 10
12.208804
 20
7.219797
 30
0.0
  0
LWPOLYLINE
  5
28d
100
AcDbEntity
  8
0
 62
7
100
AcDbPolyline
 90
2
 70
0
 10
17.605888
 20
9.340648
 30
0.0
 10
17.362781
 20
10.719379
 30
0.0
  0
LWPOLYLINE
  5
28e
100
AcDbEntity
  8
0
 62
7
100
AcDbPolyline
 90
2
 70
0
 10
17.605888
 20
9.340648
 30
0.0
 10
18.984619
 20
9.583756
 30
0.0
  0
LWPOLYLINE
  5
28f
100
AcDbEntity
  8
0
 62
7
100
AcDbPolyline
 90
2
 70
0
 10
18.741511
 20
10.962487
 30
0.0
 10
18.984619
 20
9.583756
 30
0.0
  0
LWPOLYLINE
  5
290
100
AcDbEntity
  8
0
 62
7
100
AcDbPolyline
 90
2
 70
0
 10
18.741511
 20
10.962487
 30
0.0
 10
17.362781
 20
10.719379
 30
0.0
  0
LWPOLYLINE
  5
291
100
AcDbEntity
  8
0
 62
7
100
AcDbPolyline
 90
2
 70
0
 10
17.935820
 20
7.469514
 30
0.0
 10
19.314551
 20
7.712621
 30
0.0
  0
LWPOLYLINE
  5
292
100
AcDbEntity
  8
0
 62
7
100
AcDbPolyline
 90
2
 70
0
 10
17.935820
 20
7.469514
 30
0.0
 10
17.692712
 20
8.848244
 30
0.0
  0
LWPOLYLINE
  5
293
100
AcDbEntity
  8
0
 62
7
100
AcDbPolyline
 90
2
 70
0
 10
19.071443
 20
9.091352
 30
0.0
 10
19.314551
 20
7.712621
 30
0.0
  0
LWPOLYLINE
  5
294
100
AcDbEntity
  8
0
 62
7
100
AcDbPolyline
 90
2
 70
0
 10
19.071443
 20
9.091352
 30
0.0
 10
17.692712
 20
8.848244
 30
0.0
  0
LWPOLYLINE
  5
295
100
AcDbEntity
  8
0
 62
7
100
AcDbPolyline
 90
2
 70
0
 10
19.401374
 20
7.220217
 30
0.0
 10
19.644482
 20
5.841486
 30
0.0
  0
LWPOLYLINE
  5
296
100
AcDbEntity
  8
0
 62
7
100
AcDbPolyline
 90
2
 70
0
 10
18.265751
 20
5.598379
 30
0.0
 10
18.022643
 20
6.977110
 30
0.0
  0
LWPOLYLINE
  5
297
100
AcDbEntity
  8
0
 62
7
100
AcDbPolyline
 90
2
 70
0
 10
19.401374
 20
7.220217
 30
0.0
 10
18.022643
 20
6.977110
 30
0.0
  0
LWPOLYLINE
  5
298
100
AcDbEntity
  8
0
 62
7
100
AcDbPolyline
 90
2
 70
0
 10
18.265751
 20
5.598379
 30
0.0
 10
19.644482
 20
5.841486
 30
0.0
  0
LWPOLYLINE
  5
299
100
AcDbEntity
  8
0
 62
7
100
AcDbPolyline
 90
2
 70
0
 10
30.523993
 20
9.790691
 30
0.0
 10
29.145262
 20
9.547584
 30
0.0
  0
LWPOLYLINE
  5
29a
100
AcDbEntity
  8
0
 62
7
100
AcDbPolyline
 90
2
 70
0
 10
29.388370
 20
8.168853
 30
0.0
 10
29.145262
 20
9.547584
 30
0.0
  0
LWPOLYLINE
  5
29b
100
AcDbEntity
  8
0
 62
7
100
AcDbPolyline
 90
2
 70
0
 10
30.523993
 20
9.790691
 30
0.0
 10
30.767101
 20
8.411960
 30
0.0
  0
LWPOLYLINE
  5
29c
100
AcDbEntity
  8
0
 62
7
100
AcDbPolyline
 90
2
 70
0
 10
29.388370
 20
8.168853
 30
0.0
 10
30.767101
 20
8.411960
 30
0.0
  0
LWPOLYLINE
  5
29d
100
AcDbEntity
  8
0
 62
7
100
AcDbPolyline
 90
2
 70
0
 10
29.718301
 20
6.297718
 30
0.0
 10
31.097032
 20
6.540826
 30
0.0
  0
LWPOLYLINE
  5
29e
100
AcDbEntity
  8
0
 62
7
100
AcDbPolyline
 90
2
 70
0
 10
30.853925
 20
7.919557
 30
0.0
 10
29.475194
 20
7.676449
 30
0.0
  0
LWPOLYLINE
  5
29f
100
AcDbEntity
  8
0
 62
7
100
AcDbPolyline
 90
2
 70
0
 10
30.853925
 20
7.919557
 30
0.0
 10
31.097032
 20
6.540826
 30
0.0
  0
LWPOLYLINE
  5
2a0
100
AcDbEntity
  8
0
 62
7
100
AcDbPolyline
 90
2
 70
0
 10
29.718301
 20
6.297718
 30
0.0
 10
29.475194
 20
7.676449
 30
0.0
  0
LWPOLYLINE
  5
2a1
100
AcDbEntity
  8
0
 62
7
100
AcDbPolyline
 90
2
 70
0
 10
28.728508
 20
11.911122
 30
0.0
 10
30.107239
 20
12.154230
 30
0.0
  0
LWPOLYLINE
  5
2a2
100
AcDbEntity
  8
0
 62
7
100
AcDbPolyline
 90
2
 70
0
 10
29.864131
 20
13.532961
 30
0.0
 10
30.107239
 20
12.154230
 30
0.0
  0
LWPOLYLINE
  5
2a3
100
AcDbEntity
  8
0
 62
7
100
AcDbPolyline
 90
2
 70
0
 10
29.864131
 20
13.532961
 30
0.0
 10
28.485400
 20
13.289853
 30
0.0
  0
LWPOLYLINE
  5
2a4
100
AcDbEntity
  8
0
 62
7
100
AcDbPolyline
 90
2
 70
0
 10
28.728508
 20
11.911122
 30
0.0
 10
28.485400
 20
13.289853
 30
0.0
  0
LWPOLYLINE
  5
2a5
100
AcDbEntity
  8
0
 62
7
100
AcDbPolyline
 90
2
 70
0
 10
29.058438
 20
10.039988
 30
0.0
 10
28.815331
 20
11.418719
 30
0.0
  0
LWPOLYLINE
  5
2a6
100
AcDbEntity
  8
0
 62
7
100
AcDbPolyline
 90
2
 70
0
 10
30.194062
 20
11.661826
 30
0.0
 10
28.815331
 20
11.418719
 30
0.0
  0
LWPOLYLINE
  5
2a7
100
AcDbEntity
  8
0
 62
7
100
AcDbPolyline
 90
2
 70
0
 10
29.058438
 20
10.039988
 30
0.0
 10
30.437169
 20
10.283095
 30
0.0
  0
LWPOLYLINE
  5
2a8
100
AcDbEntity
  8
0
 62
7
100
AcDbPolyline
 90
2
 70
0
 10
30.194062
 20
11.661826
 30
0.0
 10
30.437169
 20
10.283095
 30
0.0
  0
LWPOLYLINE
  5
2a9
100
AcDbEntity
  8
0
 62
7
100
AcDbPolyline
 90
2
 70
0
 10
9.588657
 20
2.495800
 30
0.0
 10
10.801093
 20
1.795800
 30
0.0
  0
LWPOLYLINE
  5
2aa
100
AcDbEntity
  8
0
 62
7
100
AcDbPolyline
 90
2
 70
0
 10
11.501093
 20
3.008236
 30
0.0
 10
10.288657
 20
3.708236
 30
0.0
  0
LWPOLYLINE
  5
2ab
100
AcDbEntity
  8
0
 62
7
100
AcDbPolyline
 90
2
 70
0
 10
9.588657
 20
2.495800
 30
0.0
 10
10.288657
 20
3.708236
 30
0.0
  0
LWPOLYLINE
  5
2ac
100
AcDbEntity
  8
0
 62
7
100
AcDbPolyline
 90
2
 70
0
 10
11.501093
 20
3.008236
 30
0.0
 10
10.801093
 20
1.795800
 30
0.0
  0
LWPOLYLINE
  5
2ad
100
AcDbEntity
  8
0
 62
7
100
AcDbPolyline
 90
2
 70
0
 10
13.254017
 20
1.631983
 30
0.0
 10
12.354115
 20
0.559521
 30
0.0
  0
LWPOLYLINE
  5
2ae
100
AcDbEntity
  8
0
 62
7
100
AcDbPolyline
 90
2
 70
0
 10
13.254017
 20
1.631983
 30
0.0
 10
12.181555
 20
2.531885
 30
0.0
  0
LWPOLYLINE
  5
2af
100
AcDbEntity
  8
0
 62
7
100
AcDbPolyline
 90
2
 70
0
 10
11.281653
 20
1.459423
 30
0.0
 10
12.181555
 20
2.531885
 30
0.0
  0
LWPOLYLINE
  5
2b0
100
AcDbEntity
  8
0
 62
7
100
AcDbPolyline
 90
2
 70
0
 10
11.281653
 20
1.459423
 30
0.0
 10
12.354115
 20
0.559521
 30
0.0
  0
LWPOLYLINE
  5
2b1
100
AcDbEntity
  8
0
 62
7
100
AcDbPolyline
 90
2
 70
0
 10
13.650818
 20
4.031904
 30
0.0
 10
12.504005
 20
4.834911
 30
0.0
  0
LWPOLYLINE
  5
2b2
100
AcDbEntity
  8
0
 62
7
100
AcDbPolyline
 90
2
 70
0
 10
11.700998
 20
3.688099
 30
0.0
 10
12.847811
 20
2.885092
 30
0.0
  0
LWPOLYLINE
  5
2b3
100
AcDbEntity
  8
0
 62
7
100
AcDbPolyline
 90
2
 70
0
 10
11.700998
 20
3.688099
 30
0.0
 10
12.504005
 20
4.834911
 30
0.0
  0
LWPOLYLINE
  5
2b4
100
AcDbEntity
  8
0
 62
7
100
AcDbPolyline
 90
2
 70
0
 10
13.650818
 20
4.031904
 30
0.0
 10
12.847811
 20
2.885092
 30
0.0
  0
LWPOLYLINE
  5
2b5
100
AcDbEntity
  8
0
 62
7
100
AcDbPolyline
 90
3
 70
0
 10
17.565505
 20
1.323352
 30
0.0
 10
16.145505
 20
1.323352
 30
0.0
 10
16.145505
 20
3.043352
 30
0.0
  0
LWPOLYLINE
  5
2b6
100
AcDbEntity
  8
0
 62
7
100
AcDbPolyline
 90
3
 70
0
 10
17.565505
 20
1.323352
 30
0.0
 10
17.565505
 20
3.043352
 30
0.0
 10
16.145505
 20
3.043352
 30
0.0
  0
LWPOLYLINE
  5
2b7
100
AcDbEntity
  8
0
 62
7
100
AcDbPolyline
 90
2
 70
0
 10
14.086835
 20
1.330703
 30
0.0
 10
14.086835
 20
3.050703
 30
0.0
  0
LWPOLYLINE
  5
2b8
100
AcDbEntity
  8
0
 62
7
100
AcDbPolyline
 90
2
 70
0
 10
15.506835
 20
1.330703
 30
0.0
 10
14.086835
 20
1.330703
 30
0.0
  0
LWPOLYLINE
  5
2b9
100
AcDbEntity
  8
0
 62
7
100
AcDbPolyline
 90
3
 70
0
 10
15.506835
 20
1.330703
 30
0.0
 10
15.506835
 20
3.050703
 30
0.0
 10
14.086835
 20
3.050703
 30
0.0
  0
ENDSEC
  0
SECTION
  2
OBJECTS
  0
DICTIONARY
  5
C
330
0
100
AcDbDictionary
  3
ACAD_GROUP
350
D
  3
ACAD_MLINESTYLE
350
17
  0
DICTIONARY
  5
D
330
C
100
AcDbDictionary
  0
DICTIONARY
  5
1A
330
C
100
AcDbDictionary
  0
DICTIONARY
  5
17
330
C
100
AcDbDictionary
  3
STANDARD
350
18
  0
DICTIONARY
  5
19
330
C
100
AcDbDictionary
  0
ENDSEC
  0
EOF
