999
"DXF R12 Output" (www.mydxf.blogspot.com)
 0 
SECTION
 2 
HEADER
 9 
$ACADVER
 1 
AC1009
 9 
$EXTMIN
 10 
 0 
 20 
 0 
 9 
$EXTMAX
 10 
 8.5 
 20 
 11 
 0 
ENDSEC
 0 
SECTION
 2 
ENTITIES
0
LINE
8
Layer 1
10
0.846666
20
224.847000
11
-0.846666
21
223.153000
0
LINE
8
Layer 1
10
0.000000
20
225.411000
11
0.000000
21
222.589000
0
LINE
8
Layer 1
10
2.257780
20
222.871000
11
1.128890
21
221.742110
0
LINE
8
Layer 1
10
1.693330
20
223.436000
11
0.564440
21
222.307110
0
LINE
8
Layer 1
10
1.128890
20
224.000000
11
0.000000
21
222.871110
0
LINE
8
0
10
63.549000
20
141.939000
11
62.897132
21
141.741257
0
LINE
8
0
10
62.897132
20
141.741257
11
62.464980
21
141.214680
0
LINE
8
0
10
62.465000
20
141.214000
11
62.398231
21
140.536079
0
LINE
8
0
10
62.398231
20
140.536079
11
62.719347
21
139.935310
0
LINE
8
0
10
62.719300
20
139.936000
11
63.320066
21
139.614884
0
LINE
8
0
10
63.320066
20
139.614884
11
63.997990
21
139.681653
0
LINE
8
0
10
63.998000
20
139.681000
11
64.524576
21
140.113150
0
LINE
8
0
10
64.524576
20
140.113150
11
64.722317
21
140.765020
0
LINE
8
0
10
64.722300
20
140.765000
11
64.632986
21
141.214017
0
LINE
8
0
10
64.632986
20
141.214017
11
64.378638
21
141.594673
0
LINE
8
0
10
64.378600
20
141.595000
11
63.997945
21
141.849346
0
LINE
8
0
10
63.997945
20
141.849346
11
63.548929
21
141.938662
0
LINE
8
0
10
222.662000
20
68.401100
11
222.010131
21
68.203359
0
LINE
8
0
10
222.010131
20
68.203359
11
221.577980
21
67.676783
0
LINE
8
0
10
221.578000
20
67.676800
11
221.511231
21
66.998880
0
LINE
8
0
10
221.511231
20
66.998880
11
221.832347
21
66.398110
0
LINE
8
0
10
221.832000
20
66.398100
11
222.432766
21
66.076984
0
LINE
8
0
10
222.432766
20
66.076984
11
223.110690
21
66.143753
0
LINE
8
0
10
223.111000
20
66.143800
11
223.637576
21
66.575950
0
LINE
8
0
10
223.637576
20
66.575950
11
223.835317
21
67.227820
0
LINE
8
0
10
223.835000
20
67.227800
11
223.745686
21
67.676817
0
LINE
8
0
10
223.745686
20
67.676817
11
223.491338
21
68.057473
0
LINE
8
0
10
223.491000
20
68.057500
11
223.110346
21
68.311846
0
LINE
8
0
10
223.110346
20
68.311846
11
222.661329
21
68.401159
0
LINE
8
0
10
115.533000
20
110.827000
11
114.881132
21
110.629259
0
LINE
8
0
10
114.881132
20
110.629259
11
114.448980
21
110.102683
0
LINE
8
0
10
114.449000
20
110.102000
11
114.382231
21
109.424079
0
LINE
8
0
10
114.382231
20
109.424079
11
114.703347
21
108.823310
0
LINE
8
0
10
114.703000
20
108.824000
11
115.303766
21
108.502884
0
LINE
8
0
10
115.303766
20
108.502884
11
115.981690
21
108.569653
0
LINE
8
0
10
115.982000
20
108.569000
11
116.508577
21
109.001150
0
LINE
8
0
10
116.508577
20
109.001150
11
116.706320
21
109.653020
0
LINE
8
0
10
116.706000
20
109.653000
11
116.616685
21
110.102014
0
LINE
8
0
10
116.616685
20
110.102014
11
116.362338
21
110.482673
0
LINE
8
0
10
116.362000
20
110.483000
11
115.981343
21
110.737346
0
LINE
8
0
10
115.981343
20
110.737346
11
115.532327
21
110.826659
0
LINE
8
0
10
176.801000
20
35.316400
11
176.300568
21
35.241464
0
LINE
8
0
10
176.300568
20
35.241464
11
175.852830
21
35.028775
0
LINE
8
0
10
175.852830
20
35.028775
11
175.484989
21
34.696511
0
LINE
8
0
10
175.484989
20
34.696511
11
175.224250
21
34.262850
0
LINE
8
0
10
175.224000
20
34.262900
11
175.101724
21
33.771884
0
LINE
8
0
10
175.101724
20
33.771884
11
175.126881
21
33.276835
0
LINE
8
0
10
175.126881
20
33.276835
11
175.293087
21
32.809841
0
LINE
8
0
10
175.293087
20
32.809841
11
175.593959
21
32.402990
0
LINE
8
0
10
175.594000
20
32.403000
11
176.000847
21
32.102128
0
LINE
8
0
10
176.000847
20
32.102128
11
176.467841
21
31.935922
0
LINE
8
0
10
176.467841
20
31.935922
11
176.962892
21
31.910765
0
LINE
8
0
10
176.962892
20
31.910765
11
177.453910
21
32.033041
0
LINE
8
0
10
177.454000
20
32.033000
11
177.887662
21
32.293739
0
LINE
8
0
10
177.887662
20
32.293739
11
178.219926
21
32.661581
0
LINE
8
0
10
178.219926
20
32.661581
11
178.432615
21
33.109320
0
LINE
8
0
10
178.432615
20
33.109320
11
178.507550
21
33.609750
0
LINE
8
0
10
178.508000
20
33.609800
11
178.378088
21
34.262913
0
LINE
8
0
10
178.378088
20
34.262913
11
178.008128
21
34.816600
0
LINE
8
0
10
178.008000
20
34.816500
11
177.454317
21
35.186459
0
LINE
8
0
10
177.454317
20
35.186459
11
176.801200
21
35.316372
0
LINE
8
0
10
205.407000
20
108.653000
11
204.755130
21
108.455258
0
LINE
8
0
10
204.755130
20
108.455258
11
204.322980
21
107.928683
0
LINE
8
0
10
204.323000
20
107.928000
11
204.256232
21
107.250078
0
LINE
8
0
10
204.256232
20
107.250078
11
204.577347
21
106.649310
0
LINE
8
0
10
204.578000
20
106.650000
11
205.178766
21
106.328886
0
LINE
8
0
10
205.178766
20
106.328886
11
205.856690
21
106.395656
0
LINE
8
0
10
205.856000
20
106.395000
11
206.382575
21
106.827149
0
LINE
8
0
10
206.382575
20
106.827149
11
206.580317
21
107.479020
0
LINE
8
0
10
206.581000
20
107.479000
11
206.491685
21
107.928014
0
LINE
8
0
10
206.491685
20
107.928014
11
206.237338
21
108.308671
0
LINE
8
0
10
206.237000
20
108.309000
11
205.856343
21
108.563347
0
LINE
8
0
10
205.856343
20
108.563347
11
205.407329
21
108.652662
0
LINE
8
0
10
186.912000
20
33.758800
11
186.260130
21
33.561058
0
LINE
8
0
10
186.260130
20
33.561058
11
185.827980
21
33.034483
0
LINE
8
0
10
185.828000
20
33.034500
11
185.761229
21
32.356580
0
LINE
8
0
10
185.761229
20
32.356580
11
186.082344
21
31.755810
0
LINE
8
0
10
186.083000
20
31.755800
11
186.683767
21
31.434683
0
LINE
8
0
10
186.683767
20
31.434683
11
187.361690
21
31.501453
0
LINE
8
0
10
187.361000
20
31.501400
11
187.887575
21
31.933549
0
LINE
8
0
10
187.887575
20
31.933549
11
188.085317
21
32.585420
0
LINE
8
0
10
188.086000
20
32.585400
11
187.996685
21
33.034416
0
LINE
8
0
10
187.996685
20
33.034416
11
187.742338
21
33.415073
0
LINE
8
0
10
187.742000
20
33.415100
11
187.361343
21
33.669445
0
LINE
8
0
10
187.361343
20
33.669445
11
186.912329
21
33.758759
0
LINE
8
0
10
115.400000
20
158.721000
11
114.748130
21
158.523258
0
LINE
8
0
10
114.748130
20
158.523258
11
114.315980
21
157.996683
0
LINE
8
0
10
114.316000
20
157.997000
11
114.249229
21
157.319078
0
LINE
8
0
10
114.249229
20
157.319078
11
114.570344
21
156.718310
0
LINE
8
0
10
114.571000
20
156.718000
11
115.171767
21
156.396881
0
LINE
8
0
10
115.171767
20
156.396881
11
115.849690
21
156.463650
0
LINE
8
0
10
115.849000
20
156.463000
11
116.375575
21
156.895151
0
LINE
8
0
10
116.375575
20
156.895151
11
116.573317
21
157.547020
0
LINE
8
0
10
116.574000
20
157.547000
11
116.484685
21
157.996014
0
LINE
8
0
10
116.484685
20
157.996014
11
116.230338
21
158.376671
0
LINE
8
0
10
116.230000
20
158.377000
11
115.849344
21
158.631347
0
LINE
8
0
10
115.849344
20
158.631347
11
115.400329
21
158.720662
0
LINE
8
0
10
45.629500
20
104.392000
11
44.977632
21
104.194258
0
LINE
8
0
10
44.977632
20
104.194258
11
44.545480
21
103.667683
0
LINE
8
0
10
44.545500
20
103.668000
11
44.478731
21
102.990078
0
LINE
8
0
10
44.478731
20
102.990078
11
44.799847
21
102.389310
0
LINE
8
0
10
44.799800
20
102.389000
11
45.400566
21
102.067885
0
LINE
8
0
10
45.400566
20
102.067885
11
46.078490
21
102.134656
0
LINE
8
0
10
46.078500
20
102.135000
11
46.605076
21
102.567148
0
LINE
8
0
10
46.605076
20
102.567148
11
46.802817
21
103.219020
0
LINE
8
0
10
46.802800
20
103.219000
11
46.713486
21
103.668014
0
LINE
8
0
10
46.713486
20
103.668014
11
46.459138
21
104.048671
0
LINE
8
0
10
46.459200
20
104.049000
11
46.078546
21
104.303347
0
LINE
8
0
10
46.078546
20
104.303347
11
45.629529
21
104.392662
0
LINE
8
0
10
204.136000
20
159.201000
11
203.484131
21
159.003259
0
LINE
8
0
10
203.484131
20
159.003259
11
203.051980
21
158.476683
0
LINE
8
0
10
203.052000
20
158.477000
11
202.985231
21
157.799080
0
LINE
8
0
10
202.985231
20
157.799080
11
203.306347
21
157.198310
0
LINE
8
0
10
203.307000
20
157.198000
11
203.907766
21
156.876884
0
LINE
8
0
10
203.907766
20
156.876884
11
204.585690
21
156.943653
0
LINE
8
0
10
204.585000
20
156.943000
11
205.111577
21
157.375150
0
LINE
8
0
10
205.111577
20
157.375150
11
205.309320
21
158.027020
0
LINE
8
0
10
205.310000
20
158.028000
11
205.220685
21
158.477015
0
LINE
8
0
10
205.220685
20
158.477015
11
204.966338
21
158.857673
0
LINE
8
0
10
204.966000
20
158.857000
11
204.585343
21
159.111344
0
LINE
8
0
10
204.585343
20
159.111344
11
204.136327
21
159.200659
0
LINE
8
0
10
256.087000
20
149.621000
11
255.435131
21
149.423258
0
LINE
8
0
10
255.435131
20
149.423258
11
255.002980
21
148.896683
0
LINE
8
0
10
255.003000
20
148.897000
11
254.936231
21
148.219078
0
LINE
8
0
10
254.936231
20
148.219078
11
255.257347
21
147.618310
0
LINE
8
0
10
255.258000
20
147.618000
11
255.858766
21
147.296886
0
LINE
8
0
10
255.858766
20
147.296886
11
256.536690
21
147.363656
0
LINE
8
0
10
256.536000
20
147.364000
11
257.062577
21
147.796149
0
LINE
8
0
10
257.062577
20
147.796149
11
257.260320
21
148.448020
0
LINE
8
0
10
257.261000
20
148.448000
11
257.171685
21
148.897014
0
LINE
8
0
10
257.171685
20
148.897014
11
256.917338
21
149.277671
0
LINE
8
0
10
256.917000
20
149.278000
11
256.536343
21
149.532347
0
LINE
8
0
10
256.536343
20
149.532347
11
256.087327
21
149.621662
0
LINE
8
0
10
97.916900
20
70.107800
11
97.265031
21
69.910057
0
LINE
8
0
10
97.265031
20
69.910057
11
96.832880
21
69.383480
0
LINE
8
0
10
96.832900
20
69.383500
11
96.766129
21
68.705579
0
LINE
8
0
10
96.766129
20
68.705579
11
97.087244
21
68.104810
0
LINE
8
0
10
97.087200
20
68.104800
11
97.687967
21
67.783684
0
LINE
8
0
10
97.687967
20
67.783684
11
98.365890
21
67.850453
0
LINE
8
0
10
98.365900
20
67.850500
11
98.892475
21
68.282650
0
LINE
8
0
10
98.892475
20
68.282650
11
99.090217
21
68.934520
0
LINE
8
0
10
99.090200
20
68.934500
11
99.000885
21
69.383514
0
LINE
8
0
10
99.000885
20
69.383514
11
98.746538
21
69.764171
0
LINE
8
0
10
98.746600
20
69.764200
11
98.365944
21
70.018547
0
LINE
8
0
10
98.365944
20
70.018547
11
97.916929
21
70.107862
0
LINE
8
0
10
131.757000
20
33.332100
11
131.105131
21
33.134357
0
LINE
8
0
10
131.105131
20
33.134357
11
130.672980
21
32.607780
0
LINE
8
0
10
130.673000
20
32.607800
11
130.606231
21
31.929879
0
LINE
8
0
10
130.606231
20
31.929879
11
130.927347
21
31.329110
0
LINE
8
0
10
130.927000
20
31.329100
11
131.527766
21
31.007984
0
LINE
8
0
10
131.527766
20
31.007984
11
132.205690
21
31.074753
0
LINE
8
0
10
132.206000
20
31.074800
11
132.732577
21
31.506950
0
LINE
8
0
10
132.732577
20
31.506950
11
132.930320
21
32.158820
0
LINE
8
0
10
132.930000
20
32.158800
11
132.840685
21
32.607817
0
LINE
8
0
10
132.840685
20
32.607817
11
132.586338
21
32.988473
0
LINE
8
0
10
132.586000
20
32.988400
11
132.205343
21
33.242747
0
LINE
8
0
10
132.205343
20
33.242747
11
131.756327
21
33.332062
0
LINE
8
0
10
273.133000
20
112.853000
11
272.481132
21
112.655258
0
LINE
8
0
10
272.481132
20
112.655258
11
272.048980
21
112.128683
0
LINE
8
0
10
272.049000
20
112.129000
11
271.982231
21
111.451078
0
LINE
8
0
10
271.982231
20
111.451078
11
272.303347
21
110.850310
0
LINE
8
0
10
272.303000
20
110.850000
11
272.903766
21
110.528884
0
LINE
8
0
10
272.903766
20
110.528884
11
273.581690
21
110.595653
0
LINE
8
0
10
273.582000
20
110.596000
11
274.108576
21
111.028150
0
LINE
8
0
10
274.108576
20
111.028150
11
274.306317
21
111.680020
0
LINE
8
0
10
274.306000
20
111.680000
11
274.216687
21
112.129014
0
LINE
8
0
10
274.216687
20
112.129014
11
273.962341
21
112.509671
0
LINE
8
0
10
273.962000
20
112.510000
11
273.581343
21
112.764347
0
LINE
8
0
10
273.581343
20
112.764347
11
273.132327
21
112.853662
0
LINE
8
0
10
63.549000
20
141.939000
11
62.897131
21
141.741257
0
LINE
8
0
10
62.897131
20
141.741257
11
62.464980
21
141.214680
0
LINE
8
0
10
62.465000
20
141.214000
11
62.398229
21
140.536079
0
LINE
8
0
10
62.398229
20
140.536079
11
62.719344
21
139.935310
0
LINE
8
0
10
62.719300
20
139.936000
11
63.320068
21
139.614883
0
LINE
8
0
10
63.320068
20
139.614883
11
63.997990
21
139.681653
0
LINE
8
0
10
63.998000
20
139.681000
11
64.524577
21
140.113150
0
LINE
8
0
10
64.524577
20
140.113150
11
64.722320
21
140.765020
0
LINE
8
0
10
64.722300
20
140.765000
11
64.632985
21
141.214017
0
LINE
8
0
10
64.632985
20
141.214017
11
64.378638
21
141.594673
0
LINE
8
0
10
64.378600
20
141.595000
11
63.997942
21
141.849347
0
LINE
8
0
10
63.997942
20
141.849347
11
63.548927
21
141.938662
0
LINE
8
0
10
222.662000
20
68.401200
11
222.010131
21
68.203457
0
LINE
8
0
10
222.010131
20
68.203457
11
221.577980
21
67.676880
0
LINE
8
0
10
221.578000
20
67.676800
11
221.511230
21
66.998880
0
LINE
8
0
10
221.511230
20
66.998880
11
221.832347
21
66.398110
0
LINE
8
0
10
221.832000
20
66.398100
11
222.432766
21
66.076983
0
LINE
8
0
10
222.432766
20
66.076983
11
223.110690
21
66.143753
0
LINE
8
0
10
223.111000
20
66.143800
11
223.637577
21
66.575950
0
LINE
8
0
10
223.637577
20
66.575950
11
223.835320
21
67.227820
0
LINE
8
0
10
223.835000
20
67.227800
11
223.745685
21
67.676817
0
LINE
8
0
10
223.745685
20
67.676817
11
223.491338
21
68.057473
0
LINE
8
0
10
223.491000
20
68.057500
11
223.110343
21
68.311847
0
LINE
8
0
10
223.110343
20
68.311847
11
222.661327
21
68.401162
0
LINE
8
0
10
115.533000
20
110.827000
11
114.881132
21
110.629257
0
LINE
8
0
10
114.881132
20
110.629257
11
114.448980
21
110.102680
0
LINE
8
0
10
114.449000
20
110.102000
11
114.382231
21
109.424079
0
LINE
8
0
10
114.382231
20
109.424079
11
114.703347
21
108.823310
0
LINE
8
0
10
114.703000
20
108.824000
11
115.303766
21
108.502885
0
LINE
8
0
10
115.303766
20
108.502885
11
115.981690
21
108.569656
0
LINE
8
0
10
115.982000
20
108.569000
11
116.508577
21
109.001149
0
LINE
8
0
10
116.508577
20
109.001149
11
116.706320
21
109.653020
0
LINE
8
0
10
116.706000
20
109.653000
11
116.616685
21
110.102016
0
LINE
8
0
10
116.616685
20
110.102016
11
116.362338
21
110.482673
0
LINE
8
0
10
116.362000
20
110.483000
11
115.981343
21
110.737347
0
LINE
8
0
10
115.981343
20
110.737347
11
115.532327
21
110.826662
0
LINE
8
0
10
176.801000
20
35.316400
11
176.300567
21
35.241464
0
LINE
8
0
10
176.300567
20
35.241464
11
175.852828
21
35.028775
0
LINE
8
0
10
175.852828
20
35.028775
11
175.484988
21
34.696511
0
LINE
8
0
10
175.484988
20
34.696511
11
175.224250
21
34.262850
0
LINE
8
0
10
175.224000
20
34.262900
11
175.101724
21
33.771884
0
LINE
8
0
10
175.101724
20
33.771884
11
175.126881
21
33.276835
0
LINE
8
0
10
175.126881
20
33.276835
11
175.293087
21
32.809841
0
LINE
8
0
10
175.293087
20
32.809841
11
175.593959
21
32.402990
0
LINE
8
0
10
175.594000
20
32.403000
11
176.000847
21
32.102128
0
LINE
8
0
10
176.000847
20
32.102128
11
176.467841
21
31.935922
0
LINE
8
0
10
176.467841
20
31.935922
11
176.962892
21
31.910765
0
LINE
8
0
10
176.962892
20
31.910765
11
177.453910
21
32.033041
0
LINE
8
0
10
177.454000
20
32.033000
11
177.887662
21
32.293739
0
LINE
8
0
10
177.887662
20
32.293739
11
178.219926
21
32.661581
0
LINE
8
0
10
178.219926
20
32.661581
11
178.432615
21
33.109320
0
LINE
8
0
10
178.432615
20
33.109320
11
178.507550
21
33.609750
0
LINE
8
0
10
178.508000
20
33.609800
11
178.378088
21
34.262913
0
LINE
8
0
10
178.378088
20
34.262913
11
178.008128
21
34.816600
0
LINE
8
0
10
178.008000
20
34.816500
11
177.454317
21
35.186459
0
LINE
8
0
10
177.454317
20
35.186459
11
176.801200
21
35.316372
0
LINE
8
0
10
205.407000
20
108.653000
11
204.755130
21
108.455258
0
LINE
8
0
10
204.755130
20
108.455258
11
204.322980
21
107.928683
0
LINE
8
0
10
204.323000
20
107.928000
11
204.256232
21
107.250078
0
LINE
8
0
10
204.256232
20
107.250078
11
204.577347
21
106.649310
0
LINE
8
0
10
204.578000
20
106.650000
11
205.178766
21
106.328884
0
LINE
8
0
10
205.178766
20
106.328884
11
205.856690
21
106.395653
0
LINE
8
0
10
205.856000
20
106.395000
11
206.382575
21
106.827151
0
LINE
8
0
10
206.382575
20
106.827151
11
206.580317
21
107.479020
0
LINE
8
0
10
206.581000
20
107.479000
11
206.491685
21
107.928015
0
LINE
8
0
10
206.491685
20
107.928015
11
206.237338
21
108.308671
0
LINE
8
0
10
206.237000
20
108.309000
11
205.856343
21
108.563347
0
LINE
8
0
10
205.856343
20
108.563347
11
205.407329
21
108.652662
0
LINE
8
0
10
186.912000
20
33.758800
11
186.260130
21
33.561058
0
LINE
8
0
10
186.260130
20
33.561058
11
185.827980
21
33.034483
0
LINE
8
0
10
185.828000
20
33.034500
11
185.761231
21
32.356580
0
LINE
8
0
10
185.761231
20
32.356580
11
186.082347
21
31.755810
0
LINE
8
0
10
186.083000
20
31.755800
11
186.683767
21
31.434683
0
LINE
8
0
10
186.683767
20
31.434683
11
187.361690
21
31.501450
0
LINE
8
0
10
187.361000
20
31.501400
11
187.887575
21
31.933551
0
LINE
8
0
10
187.887575
20
31.933551
11
188.085317
21
32.585420
0
LINE
8
0
10
188.086000
20
32.585400
11
187.996685
21
33.034416
0
LINE
8
0
10
187.996685
20
33.034416
11
187.742338
21
33.415073
0
LINE
8
0
10
187.742000
20
33.415100
11
187.361343
21
33.669445
0
LINE
8
0
10
187.361343
20
33.669445
11
186.912329
21
33.758759
0
LINE
8
0
10
115.400000
20
158.721000
11
114.748130
21
158.523258
0
LINE
8
0
10
114.748130
20
158.523258
11
114.315980
21
157.996683
0
LINE
8
0
10
114.316000
20
157.997000
11
114.249231
21
157.319077
0
LINE
8
0
10
114.249231
20
157.319077
11
114.570347
21
156.718310
0
LINE
8
0
10
114.571000
20
156.718000
11
115.171767
21
156.396884
0
LINE
8
0
10
115.171767
20
156.396884
11
115.849690
21
156.463653
0
LINE
8
0
10
115.849000
20
156.463000
11
116.375575
21
156.895150
0
LINE
8
0
10
116.375575
20
156.895150
11
116.573317
21
157.547020
0
LINE
8
0
10
116.574000
20
157.547000
11
116.484685
21
157.996014
0
LINE
8
0
10
116.484685
20
157.996014
11
116.230338
21
158.376671
0
LINE
8
0
10
116.230000
20
158.377000
11
115.849344
21
158.631347
0
LINE
8
0
10
115.849344
20
158.631347
11
115.400329
21
158.720662
0
LINE
8
0
10
45.629500
20
104.392000
11
44.977632
21
104.194258
0
LINE
8
0
10
44.977632
20
104.194258
11
44.545480
21
103.667683
0
LINE
8
0
10
44.545500
20
103.668000
11
44.478729
21
102.990078
0
LINE
8
0
10
44.478729
20
102.990078
11
44.799844
21
102.389310
0
LINE
8
0
10
44.799800
20
102.389000
11
45.400568
21
102.067884
0
LINE
8
0
10
45.400568
20
102.067884
11
46.078490
21
102.134653
0
LINE
8
0
10
46.078500
20
102.135000
11
46.605077
21
102.567150
0
LINE
8
0
10
46.605077
20
102.567150
11
46.802820
21
103.219020
0
LINE
8
0
10
46.802800
20
103.219000
11
46.713485
21
103.668014
0
LINE
8
0
10
46.713485
20
103.668014
11
46.459138
21
104.048671
0
LINE
8
0
10
46.459200
20
104.049000
11
46.078543
21
104.303347
0
LINE
8
0
10
46.078543
20
104.303347
11
45.629527
21
104.392662
0
LINE
8
0
10
204.136000
20
159.201000
11
203.484131
21
159.003257
0
LINE
8
0
10
203.484131
20
159.003257
11
203.051980
21
158.476680
0
LINE
8
0
10
203.052000
20
158.477000
11
202.985231
21
157.799080
0
LINE
8
0
10
202.985231
20
157.799080
11
203.306347
21
157.198310
0
LINE
8
0
10
203.307000
20
157.198000
11
203.907766
21
156.876884
0
LINE
8
0
10
203.907766
20
156.876884
11
204.585690
21
156.943650
0
LINE
8
0
10
204.585000
20
156.943000
11
205.111577
21
157.375152
0
LINE
8
0
10
205.111577
20
157.375152
11
205.309320
21
158.027020
0
LINE
8
0
10
205.310000
20
158.028000
11
205.220685
21
158.477015
0
LINE
8
0
10
205.220685
20
158.477015
11
204.966338
21
158.857673
0
LINE
8
0
10
204.966000
20
158.857000
11
204.585343
21
159.111346
0
LINE
8
0
10
204.585343
20
159.111346
11
204.136327
21
159.200662
0
LINE
8
0
10
256.087000
20
149.621000
11
255.435131
21
149.423259
0
LINE
8
0
10
255.435131
20
149.423259
11
255.002980
21
148.896683
0
LINE
8
0
10
255.003000
20
148.897000
11
254.936231
21
148.219078
0
LINE
8
0
10
254.936231
20
148.219078
11
255.257347
21
147.618310
0
LINE
8
0
10
255.258000
20
147.618000
11
255.858766
21
147.296886
0
LINE
8
0
10
255.858766
20
147.296886
11
256.536690
21
147.363656
0
LINE
8
0
10
256.536000
20
147.364000
11
257.062575
21
147.796148
0
LINE
8
0
10
257.062575
20
147.796148
11
257.260317
21
148.448020
0
LINE
8
0
10
257.261000
20
148.448000
11
257.168793
21
148.904713
0
LINE
8
0
10
257.168793
20
148.904713
11
256.917338
21
149.277670
0
LINE
8
0
10
256.917338
20
149.277670
11
256.544378
21
149.529124
0
LINE
8
0
10
256.544378
20
149.529124
11
256.087660
21
149.621330
0
LINE
8
0
10
97.916900
20
70.107800
11
97.265030
21
69.910057
0
LINE
8
0
10
97.265030
20
69.910057
11
96.832880
21
69.383480
0
LINE
8
0
10
96.832900
20
69.383500
11
96.766129
21
68.705579
0
LINE
8
0
10
96.766129
20
68.705579
11
97.087244
21
68.104810
0
LINE
8
0
10
97.087200
20
68.104800
11
97.687967
21
67.783684
0
LINE
8
0
10
97.687967
20
67.783684
11
98.365890
21
67.850453
0
LINE
8
0
10
98.365900
20
67.850500
11
98.892476
21
68.282650
0
LINE
8
0
10
98.892476
20
68.282650
11
99.090217
21
68.934520
0
LINE
8
0
10
99.090200
20
68.934500
11
99.000886
21
69.383514
0
LINE
8
0
10
99.000886
20
69.383514
11
98.746538
21
69.764171
0
LINE
8
0
10
98.746600
20
69.764200
11
98.365944
21
70.018547
0
LINE
8
0
10
98.365944
20
70.018547
11
97.916929
21
70.107862
0
LINE
8
0
10
131.757000
20
33.332100
11
131.105131
21
33.134358
0
LINE
8
0
10
131.105131
20
33.134358
11
130.672980
21
32.607783
0
LINE
8
0
10
130.673000
20
32.607800
11
130.606231
21
31.929877
0
LINE
8
0
10
130.606231
20
31.929877
11
130.927347
21
31.329110
0
LINE
8
0
10
130.927000
20
31.329100
11
131.527766
21
31.007984
0
LINE
8
0
10
131.527766
20
31.007984
11
132.205690
21
31.074753
0
LINE
8
0
10
132.206000
20
31.074800
11
132.732575
21
31.506950
0
LINE
8
0
10
132.732575
20
31.506950
11
132.930317
21
32.158820
0
LINE
8
0
10
132.930000
20
32.158800
11
132.840685
21
32.607817
0
LINE
8
0
10
132.840685
20
32.607817
11
132.586338
21
32.988473
0
LINE
8
0
10
132.586000
20
32.988400
11
132.205343
21
33.242747
0
LINE
8
0
10
132.205343
20
33.242747
11
131.756327
21
33.332062
0
LINE
8
0
10
273.133000
20
112.853000
11
272.481132
21
112.655257
0
LINE
8
0
10
272.481132
20
112.655257
11
272.048980
21
112.128680
0
LINE
8
0
10
272.049000
20
112.129000
11
271.982230
21
111.451078
0
LINE
8
0
10
271.982230
20
111.451078
11
272.303347
21
110.850310
0
LINE
8
0
10
272.303000
20
110.850000
11
272.903766
21
110.528886
0
LINE
8
0
10
272.903766
20
110.528886
11
273.581690
21
110.595656
0
LINE
8
0
10
273.582000
20
110.596000
11
274.108577
21
111.028149
0
LINE
8
0
10
274.108577
20
111.028149
11
274.306320
21
111.680020
0
LINE
8
0
10
274.306000
20
111.680000
11
274.216685
21
112.129014
0
LINE
8
0
10
274.216685
20
112.129014
11
273.962338
21
112.509673
0
LINE
8
0
10
273.962000
20
112.510000
11
273.581343
21
112.764347
0
LINE
8
0
10
273.581343
20
112.764347
11
273.132327
21
112.853662
0
LINE
8
0
10
63.549000
20
141.939000
11
62.897132
21
141.741257
0
LINE
8
0
10
62.897132
20
141.741257
11
62.464980
21
141.214680
0
LINE
8
0
10
62.465000
20
141.214000
11
62.398231
21
140.536079
0
LINE
8
0
10
62.398231
20
140.536079
11
62.719347
21
139.935310
0
LINE
8
0
10
62.719300
20
139.936000
11
63.320066
21
139.614884
0
LINE
8
0
10
63.320066
20
139.614884
11
63.997990
21
139.681653
0
LINE
8
0
10
63.998000
20
139.681000
11
64.524576
21
140.113150
0
LINE
8
0
10
64.524576
20
140.113150
11
64.722317
21
140.765020
0
LINE
8
0
10
64.722300
20
140.765000
11
64.632986
21
141.214017
0
LINE
8
0
10
64.632986
20
141.214017
11
64.378638
21
141.594673
0
LINE
8
0
10
64.378600
20
141.595000
11
63.997945
21
141.849346
0
LINE
8
0
10
63.997945
20
141.849346
11
63.548929
21
141.938662
0
LINE
8
0
10
222.662000
20
68.401100
11
222.010131
21
68.203359
0
LINE
8
0
10
222.010131
20
68.203359
11
221.577980
21
67.676783
0
LINE
8
0
10
221.578000
20
67.676800
11
221.511231
21
66.998880
0
LINE
8
0
10
221.511231
20
66.998880
11
221.832347
21
66.398110
0
LINE
8
0
10
221.832000
20
66.398100
11
222.432766
21
66.076984
0
LINE
8
0
10
222.432766
20
66.076984
11
223.110690
21
66.143753
0
LINE
8
0
10
223.111000
20
66.143800
11
223.637576
21
66.575950
0
LINE
8
0
10
223.637576
20
66.575950
11
223.835317
21
67.227820
0
LINE
8
0
10
223.835000
20
67.227800
11
223.745686
21
67.676817
0
LINE
8
0
10
223.745686
20
67.676817
11
223.491338
21
68.057473
0
LINE
8
0
10
223.491000
20
68.057500
11
223.110346
21
68.311846
0
LINE
8
0
10
223.110346
20
68.311846
11
222.661329
21
68.401159
0
LINE
8
0
10
115.533000
20
110.827000
11
114.881132
21
110.629259
0
LINE
8
0
10
114.881132
20
110.629259
11
114.448980
21
110.102683
0
LINE
8
0
10
114.449000
20
110.102000
11
114.382231
21
109.424079
0
LINE
8
0
10
114.382231
20
109.424079
11
114.703347
21
108.823310
0
LINE
8
0
10
114.703000
20
108.824000
11
115.303766
21
108.502884
0
LINE
8
0
10
115.303766
20
108.502884
11
115.981690
21
108.569653
0
LINE
8
0
10
115.982000
20
108.569000
11
116.508577
21
109.001150
0
LINE
8
0
10
116.508577
20
109.001150
11
116.706320
21
109.653020
0
LINE
8
0
10
116.706000
20
109.653000
11
116.616685
21
110.102014
0
LINE
8
0
10
116.616685
20
110.102014
11
116.362338
21
110.482673
0
LINE
8
0
10
116.362000
20
110.483000
11
115.981343
21
110.737346
0
LINE
8
0
10
115.981343
20
110.737346
11
115.532327
21
110.826659
0
LINE
8
0
10
176.801000
20
35.316400
11
176.300568
21
35.241464
0
LINE
8
0
10
176.300568
20
35.241464
11
175.852830
21
35.028775
0
LINE
8
0
10
175.852830
20
35.028775
11
175.484989
21
34.696511
0
LINE
8
0
10
175.484989
20
34.696511
11
175.224250
21
34.262850
0
LINE
8
0
10
175.224000
20
34.262900
11
175.101724
21
33.771884
0
LINE
8
0
10
175.101724
20
33.771884
11
175.126881
21
33.276835
0
LINE
8
0
10
175.126881
20
33.276835
11
175.293087
21
32.809841
0
LINE
8
0
10
175.293087
20
32.809841
11
175.593959
21
32.402990
0
LINE
8
0
10
175.594000
20
32.403000
11
176.000847
21
32.102128
0
LINE
8
0
10
176.000847
20
32.102128
11
176.467841
21
31.935922
0
LINE
8
0
10
176.467841
20
31.935922
11
176.962892
21
31.910765
0
LINE
8
0
10
176.962892
20
31.910765
11
177.453910
21
32.033041
0
LINE
8
0
10
177.454000
20
32.033000
11
177.887662
21
32.293739
0
LINE
8
0
10
177.887662
20
32.293739
11
178.219926
21
32.661581
0
LINE
8
0
10
178.219926
20
32.661581
11
178.432615
21
33.109320
0
LINE
8
0
10
178.432615
20
33.109320
11
178.507550
21
33.609750
0
LINE
8
0
10
178.508000
20
33.609800
11
178.378088
21
34.262913
0
LINE
8
0
10
178.378088
20
34.262913
11
178.008128
21
34.816600
0
LINE
8
0
10
178.008000
20
34.816500
11
177.454317
21
35.186459
0
LINE
8
0
10
177.454317
20
35.186459
11
176.801200
21
35.316372
0
LINE
8
0
10
205.407000
20
108.653000
11
204.755130
21
108.455258
0
LINE
8
0
10
204.755130
20
108.455258
11
204.322980
21
107.928683
0
LINE
8
0
10
204.323000
20
107.928000
11
204.256232
21
107.250078
0
LINE
8
0
10
204.256232
20
107.250078
11
204.577347
21
106.649310
0
LINE
8
0
10
204.578000
20
106.650000
11
205.178766
21
106.328886
0
LINE
8
0
10
205.178766
20
106.328886
11
205.856690
21
106.395656
0
LINE
8
0
10
205.856000
20
106.395000
11
206.382575
21
106.827149
0
LINE
8
0
10
206.382575
20
106.827149
11
206.580317
21
107.479020
0
LINE
8
0
10
206.581000
20
107.479000
11
206.491685
21
107.928014
0
LINE
8
0
10
206.491685
20
107.928014
11
206.237338
21
108.308671
0
LINE
8
0
10
206.237000
20
108.309000
11
205.856343
21
108.563347
0
LINE
8
0
10
205.856343
20
108.563347
11
205.407329
21
108.652662
0
LINE
8
0
10
186.912000
20
33.758800
11
186.260130
21
33.561058
0
LINE
8
0
10
186.260130
20
33.561058
11
185.827980
21
33.034483
0
LINE
8
0
10
185.828000
20
33.034500
11
185.761229
21
32.356580
0
LINE
8
0
10
185.761229
20
32.356580
11
186.082344
21
31.755810
0
LINE
8
0
10
186.083000
20
31.755800
11
186.683767
21
31.434683
0
LINE
8
0
10
186.683767
20
31.434683
11
187.361690
21
31.501453
0
LINE
8
0
10
187.361000
20
31.501400
11
187.887575
21
31.933549
0
LINE
8
0
10
187.887575
20
31.933549
11
188.085317
21
32.585420
0
LINE
8
0
10
188.086000
20
32.585400
11
187.996685
21
33.034416
0
LINE
8
0
10
187.996685
20
33.034416
11
187.742338
21
33.415073
0
LINE
8
0
10
187.742000
20
33.415100
11
187.361343
21
33.669445
0
LINE
8
0
10
187.361343
20
33.669445
11
186.912329
21
33.758759
0
LINE
8
0
10
115.400000
20
158.721000
11
114.748130
21
158.523258
0
LINE
8
0
10
114.748130
20
158.523258
11
114.315980
21
157.996683
0
LINE
8
0
10
114.316000
20
157.997000
11
114.249229
21
157.319078
0
LINE
8
0
10
114.249229
20
157.319078
11
114.570344
21
156.718310
0
LINE
8
0
10
114.571000
20
156.718000
11
115.171767
21
156.396881
0
LINE
8
0
10
115.171767
20
156.396881
11
115.849690
21
156.463650
0
LINE
8
0
10
115.849000
20
156.463000
11
116.375575
21
156.895151
0
LINE
8
0
10
116.375575
20
156.895151
11
116.573317
21
157.547020
0
LINE
8
0
10
116.574000
20
157.547000
11
116.484685
21
157.996014
0
LINE
8
0
10
116.484685
20
157.996014
11
116.230338
21
158.376671
0
LINE
8
0
10
116.230000
20
158.377000
11
115.849344
21
158.631347
0
LINE
8
0
10
115.849344
20
158.631347
11
115.400329
21
158.720662
0
LINE
8
0
10
45.629500
20
104.392000
11
44.977632
21
104.194258
0
LINE
8
0
10
44.977632
20
104.194258
11
44.545480
21
103.667683
0
LINE
8
0
10
44.545500
20
103.668000
11
44.478731
21
102.990078
0
LINE
8
0
10
44.478731
20
102.990078
11
44.799847
21
102.389310
0
LINE
8
0
10
44.799800
20
102.389000
11
45.400566
21
102.067885
0
LINE
8
0
10
45.400566
20
102.067885
11
46.078490
21
102.134656
0
LINE
8
0
10
46.078500
20
102.135000
11
46.605076
21
102.567148
0
LINE
8
0
10
46.605076
20
102.567148
11
46.802817
21
103.219020
0
LINE
8
0
10
46.802800
20
103.219000
11
46.713486
21
103.668014
0
LINE
8
0
10
46.713486
20
103.668014
11
46.459138
21
104.048671
0
LINE
8
0
10
46.459200
20
104.049000
11
46.078546
21
104.303347
0
LINE
8
0
10
46.078546
20
104.303347
11
45.629529
21
104.392662
0
LINE
8
0
10
204.136000
20
159.201000
11
203.484131
21
159.003259
0
LINE
8
0
10
203.484131
20
159.003259
11
203.051980
21
158.476683
0
LINE
8
0
10
203.052000
20
158.477000
11
202.985231
21
157.799080
0
LINE
8
0
10
202.985231
20
157.799080
11
203.306347
21
157.198310
0
LINE
8
0
10
203.307000
20
157.198000
11
203.907766
21
156.876884
0
LINE
8
0
10
203.907766
20
156.876884
11
204.585690
21
156.943653
0
LINE
8
0
10
204.585000
20
156.943000
11
205.111577
21
157.375150
0
LINE
8
0
10
205.111577
20
157.375150
11
205.309320
21
158.027020
0
LINE
8
0
10
205.310000
20
158.028000
11
205.220685
21
158.477015
0
LINE
8
0
10
205.220685
20
158.477015
11
204.966338
21
158.857673
0
LINE
8
0
10
204.966000
20
158.857000
11
204.585343
21
159.111344
0
LINE
8
0
10
204.585343
20
159.111344
11
204.136327
21
159.200659
0
LINE
8
0
10
256.087000
20
149.621000
11
255.435131
21
149.423258
0
LINE
8
0
10
255.435131
20
149.423258
11
255.002980
21
148.896683
0
LINE
8
0
10
255.003000
20
148.897000
11
254.936231
21
148.219078
0
LINE
8
0
10
254.936231
20
148.219078
11
255.257347
21
147.618310
0
LINE
8
0
10
255.258000
20
147.618000
11
255.858766
21
147.296886
0
LINE
8
0
10
255.858766
20
147.296886
11
256.536690
21
147.363656
0
LINE
8
0
10
256.536000
20
147.364000
11
257.062577
21
147.796149
0
LINE
8
0
10
257.062577
20
147.796149
11
257.260320
21
148.448020
0
LINE
8
0
10
257.261000
20
148.448000
11
257.171685
21
148.897014
0
LINE
8
0
10
257.171685
20
148.897014
11
256.917338
21
149.277671
0
LINE
8
0
10
256.917000
20
149.278000
11
256.536343
21
149.532347
0
LINE
8
0
10
256.536343
20
149.532347
11
256.087327
21
149.621662
0
LINE
8
0
10
97.916900
20
70.107800
11
97.265031
21
69.910057
0
LINE
8
0
10
97.265031
20
69.910057
11
96.832880
21
69.383480
0
LINE
8
0
10
96.832900
20
69.383500
11
96.766129
21
68.705579
0
LINE
8
0
10
96.766129
20
68.705579
11
97.087244
21
68.104810
0
LINE
8
0
10
97.087200
20
68.104800
11
97.687967
21
67.783684
0
LINE
8
0
10
97.687967
20
67.783684
11
98.365890
21
67.850453
0
LINE
8
0
10
98.365900
20
67.850500
11
98.892475
21
68.282650
0
LINE
8
0
10
98.892475
20
68.282650
11
99.090217
21
68.934520
0
LINE
8
0
10
99.090200
20
68.934500
11
99.000885
21
69.383514
0
LINE
8
0
10
99.000885
20
69.383514
11
98.746538
21
69.764171
0
LINE
8
0
10
98.746600
20
69.764200
11
98.365944
21
70.018547
0
LINE
8
0
10
98.365944
20
70.018547
11
97.916929
21
70.107862
0
LINE
8
0
10
131.757000
20
33.332100
11
131.105131
21
33.134357
0
LINE
8
0
10
131.105131
20
33.134357
11
130.672980
21
32.607780
0
LINE
8
0
10
130.673000
20
32.607800
11
130.606231
21
31.929879
0
LINE
8
0
10
130.606231
20
31.929879
11
130.927347
21
31.329110
0
LINE
8
0
10
130.927000
20
31.329100
11
131.527766
21
31.007984
0
LINE
8
0
10
131.527766
20
31.007984
11
132.205690
21
31.074753
0
LINE
8
0
10
132.206000
20
31.074800
11
132.732577
21
31.506950
0
LINE
8
0
10
132.732577
20
31.506950
11
132.930320
21
32.158820
0
LINE
8
0
10
132.930000
20
32.158800
11
132.840685
21
32.607817
0
LINE
8
0
10
132.840685
20
32.607817
11
132.586338
21
32.988473
0
LINE
8
0
10
132.586000
20
32.988400
11
132.205343
21
33.242747
0
LINE
8
0
10
132.205343
20
33.242747
11
131.756327
21
33.332062
0
LINE
8
0
10
273.133000
20
112.853000
11
272.481132
21
112.655258
0
LINE
8
0
10
272.481132
20
112.655258
11
272.048980
21
112.128683
0
LINE
8
0
10
272.049000
20
112.129000
11
271.982231
21
111.451078
0
LINE
8
0
10
271.982231
20
111.451078
11
272.303347
21
110.850310
0
LINE
8
0
10
272.303000
20
110.850000
11
272.903766
21
110.528884
0
LINE
8
0
10
272.903766
20
110.528884
11
273.581690
21
110.595653
0
LINE
8
0
10
273.582000
20
110.596000
11
274.108576
21
111.028150
0
LINE
8
0
10
274.108576
20
111.028150
11
274.306317
21
111.680020
0
LINE
8
0
10
274.306000
20
111.680000
11
274.216687
21
112.129014
0
LINE
8
0
10
274.216687
20
112.129014
11
273.962341
21
112.509671
0
LINE
8
0
10
273.962000
20
112.510000
11
273.581343
21
112.764347
0
LINE
8
0
10
273.581343
20
112.764347
11
273.132327
21
112.853662
0
LINE
8
0
10
63.549000
20
141.939000
11
62.897132
21
141.741257
0
LINE
8
0
10
62.897132
20
141.741257
11
62.464980
21
141.214680
0
LINE
8
0
10
62.465000
20
141.214000
11
62.398231
21
140.536079
0
LINE
8
0
10
62.398231
20
140.536079
11
62.719347
21
139.935310
0
LINE
8
0
10
62.719300
20
139.936000
11
63.320066
21
139.614884
0
LINE
8
0
10
63.320066
20
139.614884
11
63.997990
21
139.681653
0
LINE
8
0
10
63.998000
20
139.681000
11
64.524576
21
140.113150
0
LINE
8
0
10
64.524576
20
140.113150
11
64.722317
21
140.765020
0
LINE
8
0
10
64.722300
20
140.765000
11
64.632986
21
141.214017
0
LINE
8
0
10
64.632986
20
141.214017
11
64.378638
21
141.594673
0
LINE
8
0
10
64.378600
20
141.595000
11
63.997945
21
141.849346
0
LINE
8
0
10
63.997945
20
141.849346
11
63.548929
21
141.938662
0
LINE
8
0
10
222.662000
20
68.401100
11
222.010131
21
68.203359
0
LINE
8
0
10
222.010131
20
68.203359
11
221.577980
21
67.676783
0
LINE
8
0
10
221.578000
20
67.676800
11
221.511231
21
66.998880
0
LINE
8
0
10
221.511231
20
66.998880
11
221.832347
21
66.398110
0
LINE
8
0
10
221.832000
20
66.398100
11
222.432766
21
66.076984
0
LINE
8
0
10
222.432766
20
66.076984
11
223.110690
21
66.143753
0
LINE
8
0
10
223.111000
20
66.143800
11
223.637576
21
66.575950
0
LINE
8
0
10
223.637576
20
66.575950
11
223.835317
21
67.227820
0
LINE
8
0
10
223.835000
20
67.227800
11
223.745686
21
67.676817
0
LINE
8
0
10
223.745686
20
67.676817
11
223.491338
21
68.057473
0
LINE
8
0
10
223.491000
20
68.057500
11
223.110346
21
68.311846
0
LINE
8
0
10
223.110346
20
68.311846
11
222.661329
21
68.401159
0
LINE
8
0
10
115.533000
20
110.827000
11
114.881132
21
110.629259
0
LINE
8
0
10
114.881132
20
110.629259
11
114.448980
21
110.102683
0
LINE
8
0
10
114.449000
20
110.102000
11
114.382231
21
109.424079
0
LINE
8
0
10
114.382231
20
109.424079
11
114.703347
21
108.823310
0
LINE
8
0
10
114.703000
20
108.824000
11
115.303766
21
108.502884
0
LINE
8
0
10
115.303766
20
108.502884
11
115.981690
21
108.569653
0
LINE
8
0
10
115.982000
20
108.569000
11
116.508577
21
109.001150
0
LINE
8
0
10
116.508577
20
109.001150
11
116.706320
21
109.653020
0
LINE
8
0
10
116.706000
20
109.653000
11
116.616685
21
110.102014
0
LINE
8
0
10
116.616685
20
110.102014
11
116.362338
21
110.482673
0
LINE
8
0
10
116.362000
20
110.483000
11
115.981343
21
110.737346
0
LINE
8
0
10
115.981343
20
110.737346
11
115.532327
21
110.826659
0
LINE
8
0
10
176.801000
20
35.316400
11
176.300568
21
35.241464
0
LINE
8
0
10
176.300568
20
35.241464
11
175.852830
21
35.028775
0
LINE
8
0
10
175.852830
20
35.028775
11
175.484989
21
34.696511
0
LINE
8
0
10
175.484989
20
34.696511
11
175.224250
21
34.262850
0
LINE
8
0
10
175.224000
20
34.262900
11
175.101724
21
33.771884
0
LINE
8
0
10
175.101724
20
33.771884
11
175.126881
21
33.276835
0
LINE
8
0
10
175.126881
20
33.276835
11
175.293087
21
32.809841
0
LINE
8
0
10
175.293087
20
32.809841
11
175.593959
21
32.402990
0
LINE
8
0
10
175.594000
20
32.403000
11
176.000847
21
32.102128
0
LINE
8
0
10
176.000847
20
32.102128
11
176.467841
21
31.935922
0
LINE
8
0
10
176.467841
20
31.935922
11
176.962892
21
31.910765
0
LINE
8
0
10
176.962892
20
31.910765
11
177.453910
21
32.033041
0
LINE
8
0
10
177.454000
20
32.033000
11
177.887662
21
32.293739
0
LINE
8
0
10
177.887662
20
32.293739
11
178.219926
21
32.661581
0
LINE
8
0
10
178.219926
20
32.661581
11
178.432615
21
33.109320
0
LINE
8
0
10
178.432615
20
33.109320
11
178.507550
21
33.609750
0
LINE
8
0
10
178.508000
20
33.609800
11
178.378088
21
34.262913
0
LINE
8
0
10
178.378088
20
34.262913
11
178.008128
21
34.816600
0
LINE
8
0
10
178.008000
20
34.816500
11
177.454317
21
35.186459
0
LINE
8
0
10
177.454317
20
35.186459
11
176.801200
21
35.316372
0
LINE
8
0
10
205.407000
20
108.653000
11
204.755130
21
108.455258
0
LINE
8
0
10
204.755130
20
108.455258
11
204.322980
21
107.928683
0
LINE
8
0
10
204.323000
20
107.928000
11
204.256232
21
107.250078
0
LINE
8
0
10
204.256232
20
107.250078
11
204.577347
21
106.649310
0
LINE
8
0
10
204.578000
20
106.650000
11
205.178766
21
106.328886
0
LINE
8
0
10
205.178766
20
106.328886
11
205.856690
21
106.395656
0
LINE
8
0
10
205.856000
20
106.395000
11
206.382575
21
106.827149
0
LINE
8
0
10
206.382575
20
106.827149
11
206.580317
21
107.479020
0
LINE
8
0
10
206.581000
20
107.479000
11
206.491685
21
107.928014
0
LINE
8
0
10
206.491685
20
107.928014
11
206.237338
21
108.308671
0
LINE
8
0
10
206.237000
20
108.309000
11
205.856343
21
108.563347
0
LINE
8
0
10
205.856343
20
108.563347
11
205.407329
21
108.652662
0
LINE
8
0
10
186.912000
20
33.758800
11
186.260130
21
33.561058
0
LINE
8
0
10
186.260130
20
33.561058
11
185.827980
21
33.034483
0
LINE
8
0
10
185.828000
20
33.034500
11
185.761229
21
32.356580
0
LINE
8
0
10
185.761229
20
32.356580
11
186.082344
21
31.755810
0
LINE
8
0
10
186.083000
20
31.755800
11
186.683767
21
31.434683
0
LINE
8
0
10
186.683767
20
31.434683
11
187.361690
21
31.501453
0
LINE
8
0
10
187.361000
20
31.501400
11
187.887575
21
31.933549
0
LINE
8
0
10
187.887575
20
31.933549
11
188.085317
21
32.585420
0
LINE
8
0
10
188.086000
20
32.585400
11
187.996685
21
33.034416
0
LINE
8
0
10
187.996685
20
33.034416
11
187.742338
21
33.415073
0
LINE
8
0
10
187.742000
20
33.415100
11
187.361343
21
33.669445
0
LINE
8
0
10
187.361343
20
33.669445
11
186.912329
21
33.758759
0
LINE
8
0
10
115.400000
20
158.721000
11
114.748130
21
158.523258
0
LINE
8
0
10
114.748130
20
158.523258
11
114.315980
21
157.996683
0
LINE
8
0
10
114.316000
20
157.997000
11
114.249229
21
157.319078
0
LINE
8
0
10
114.249229
20
157.319078
11
114.570344
21
156.718310
0
LINE
8
0
10
114.571000
20
156.718000
11
115.171767
21
156.396881
0
LINE
8
0
10
115.171767
20
156.396881
11
115.849690
21
156.463650
0
LINE
8
0
10
115.849000
20
156.463000
11
116.375575
21
156.895151
0
LINE
8
0
10
116.375575
20
156.895151
11
116.573317
21
157.547020
0
LINE
8
0
10
116.574000
20
157.547000
11
116.484685
21
157.996014
0
LINE
8
0
10
116.484685
20
157.996014
11
116.230338
21
158.376671
0
LINE
8
0
10
116.230000
20
158.377000
11
115.849344
21
158.631347
0
LINE
8
0
10
115.849344
20
158.631347
11
115.400329
21
158.720662
0
LINE
8
0
10
45.629500
20
104.392000
11
44.977632
21
104.194258
0
LINE
8
0
10
44.977632
20
104.194258
11
44.545480
21
103.667683
0
LINE
8
0
10
44.545500
20
103.668000
11
44.478731
21
102.990078
0
LINE
8
0
10
44.478731
20
102.990078
11
44.799847
21
102.389310
0
LINE
8
0
10
44.799800
20
102.389000
11
45.400566
21
102.067885
0
LINE
8
0
10
45.400566
20
102.067885
11
46.078490
21
102.134656
0
LINE
8
0
10
46.078500
20
102.135000
11
46.605076
21
102.567148
0
LINE
8
0
10
46.605076
20
102.567148
11
46.802817
21
103.219020
0
LINE
8
0
10
46.802800
20
103.219000
11
46.713486
21
103.668014
0
LINE
8
0
10
46.713486
20
103.668014
11
46.459138
21
104.048671
0
LINE
8
0
10
46.459200
20
104.049000
11
46.078546
21
104.303347
0
LINE
8
0
10
46.078546
20
104.303347
11
45.629529
21
104.392662
0
LINE
8
0
10
204.136000
20
159.201000
11
203.484131
21
159.003259
0
LINE
8
0
10
203.484131
20
159.003259
11
203.051980
21
158.476683
0
LINE
8
0
10
203.052000
20
158.477000
11
202.985231
21
157.799080
0
LINE
8
0
10
202.985231
20
157.799080
11
203.306347
21
157.198310
0
LINE
8
0
10
203.307000
20
157.198000
11
203.907766
21
156.876884
0
LINE
8
0
10
203.907766
20
156.876884
11
204.585690
21
156.943653
0
LINE
8
0
10
204.585000
20
156.943000
11
205.111577
21
157.375150
0
LINE
8
0
10
205.111577
20
157.375150
11
205.309320
21
158.027020
0
LINE
8
0
10
205.310000
20
158.028000
11
205.220685
21
158.477015
0
LINE
8
0
10
205.220685
20
158.477015
11
204.966338
21
158.857673
0
LINE
8
0
10
204.966000
20
158.857000
11
204.585343
21
159.111344
0
LINE
8
0
10
204.585343
20
159.111344
11
204.136327
21
159.200659
0
LINE
8
0
10
256.087000
20
149.621000
11
255.435131
21
149.423258
0
LINE
8
0
10
255.435131
20
149.423258
11
255.002980
21
148.896683
0
LINE
8
0
10
255.003000
20
148.897000
11
254.936231
21
148.219078
0
LINE
8
0
10
254.936231
20
148.219078
11
255.257347
21
147.618310
0
LINE
8
0
10
255.258000
20
147.618000
11
255.858766
21
147.296886
0
LINE
8
0
10
255.858766
20
147.296886
11
256.536690
21
147.363656
0
LINE
8
0
10
256.536000
20
147.364000
11
257.062577
21
147.796149
0
LINE
8
0
10
257.062577
20
147.796149
11
257.260320
21
148.448020
0
LINE
8
0
10
257.261000
20
148.448000
11
257.171685
21
148.897014
0
LINE
8
0
10
257.171685
20
148.897014
11
256.917338
21
149.277671
0
LINE
8
0
10
256.917000
20
149.278000
11
256.536343
21
149.532347
0
LINE
8
0
10
256.536343
20
149.532347
11
256.087327
21
149.621662
0
LINE
8
0
10
97.916900
20
70.107800
11
97.265031
21
69.910057
0
LINE
8
0
10
97.265031
20
69.910057
11
96.832880
21
69.383480
0
LINE
8
0
10
96.832900
20
69.383500
11
96.766129
21
68.705579
0
LINE
8
0
10
96.766129
20
68.705579
11
97.087244
21
68.104810
0
LINE
8
0
10
97.087200
20
68.104800
11
97.687967
21
67.783684
0
LINE
8
0
10
97.687967
20
67.783684
11
98.365890
21
67.850453
0
LINE
8
0
10
98.365900
20
67.850500
11
98.892475
21
68.282650
0
LINE
8
0
10
98.892475
20
68.282650
11
99.090217
21
68.934520
0
LINE
8
0
10
99.090200
20
68.934500
11
99.000885
21
69.383514
0
LINE
8
0
10
99.000885
20
69.383514
11
98.746538
21
69.764171
0
LINE
8
0
10
98.746600
20
69.764200
11
98.365944
21
70.018547
0
LINE
8
0
10
98.365944
20
70.018547
11
97.916929
21
70.107862
0
LINE
8
0
10
131.757000
20
33.332100
11
131.105131
21
33.134357
0
LINE
8
0
10
131.105131
20
33.134357
11
130.672980
21
32.607780
0
LINE
8
0
10
130.673000
20
32.607800
11
130.606231
21
31.929879
0
LINE
8
0
10
130.606231
20
31.929879
11
130.927347
21
31.329110
0
LINE
8
0
10
130.927000
20
31.329100
11
131.527766
21
31.007984
0
LINE
8
0
10
131.527766
20
31.007984
11
132.205690
21
31.074753
0
LINE
8
0
10
132.206000
20
31.074800
11
132.732577
21
31.506950
0
LINE
8
0
10
132.732577
20
31.506950
11
132.930320
21
32.158820
0
LINE
8
0
10
132.930000
20
32.158800
11
132.840685
21
32.607817
0
LINE
8
0
10
132.840685
20
32.607817
11
132.586338
21
32.988473
0
LINE
8
0
10
132.586000
20
32.988400
11
132.205343
21
33.242747
0
LINE
8
0
10
132.205343
20
33.242747
11
131.756327
21
33.332062
0
LINE
8
0
10
273.133000
20
112.853000
11
272.481132
21
112.655258
0
LINE
8
0
10
272.481132
20
112.655258
11
272.048980
21
112.128683
0
LINE
8
0
10
272.049000
20
112.129000
11
271.982231
21
111.451078
0
LINE
8
0
10
271.982231
20
111.451078
11
272.303347
21
110.850310
0
LINE
8
0
10
272.303000
20
110.850000
11
272.903766
21
110.528884
0
LINE
8
0
10
272.903766
20
110.528884
11
273.581690
21
110.595653
0
LINE
8
0
10
273.582000
20
110.596000
11
274.108576
21
111.028150
0
LINE
8
0
10
274.108576
20
111.028150
11
274.306317
21
111.680020
0
LINE
8
0
10
274.306000
20
111.680000
11
274.216687
21
112.129014
0
LINE
8
0
10
274.216687
20
112.129014
11
273.962341
21
112.509671
0
LINE
8
0
10
273.962000
20
112.510000
11
273.581343
21
112.764347
0
LINE
8
0
10
273.581343
20
112.764347
11
273.132327
21
112.853662
0
LINE
8
0
10
63.549000
20
141.939000
11
62.897131
21
141.741257
0
LINE
8
0
10
62.897131
20
141.741257
11
62.464980
21
141.214680
0
LINE
8
0
10
62.465000
20
141.214000
11
62.398229
21
140.536079
0
LINE
8
0
10
62.398229
20
140.536079
11
62.719344
21
139.935310
0
LINE
8
0
10
62.719300
20
139.936000
11
63.320068
21
139.614883
0
LINE
8
0
10
63.320068
20
139.614883
11
63.997990
21
139.681653
0
LINE
8
0
10
63.998000
20
139.681000
11
64.524577
21
140.113150
0
LINE
8
0
10
64.524577
20
140.113150
11
64.722320
21
140.765020
0
LINE
8
0
10
64.722300
20
140.765000
11
64.632985
21
141.214017
0
LINE
8
0
10
64.632985
20
141.214017
11
64.378638
21
141.594673
0
LINE
8
0
10
64.378600
20
141.595000
11
63.997942
21
141.849347
0
LINE
8
0
10
63.997942
20
141.849347
11
63.548927
21
141.938662
0
LINE
8
0
10
222.662000
20
68.401200
11
222.010131
21
68.203457
0
LINE
8
0
10
222.010131
20
68.203457
11
221.577980
21
67.676880
0
LINE
8
0
10
221.578000
20
67.676800
11
221.511230
21
66.998880
0
LINE
8
0
10
221.511230
20
66.998880
11
221.832347
21
66.398110
0
LINE
8
0
10
221.832000
20
66.398100
11
222.432766
21
66.076983
0
LINE
8
0
10
222.432766
20
66.076983
11
223.110690
21
66.143753
0
LINE
8
0
10
223.111000
20
66.143800
11
223.637577
21
66.575950
0
LINE
8
0
10
223.637577
20
66.575950
11
223.835320
21
67.227820
0
LINE
8
0
10
223.835000
20
67.227800
11
223.745685
21
67.676817
0
LINE
8
0
10
223.745685
20
67.676817
11
223.491338
21
68.057473
0
LINE
8
0
10
223.491000
20
68.057500
11
223.110343
21
68.311847
0
LINE
8
0
10
223.110343
20
68.311847
11
222.661327
21
68.401162
0
LINE
8
0
10
115.533000
20
110.827000
11
114.881132
21
110.629257
0
LINE
8
0
10
114.881132
20
110.629257
11
114.448980
21
110.102680
0
LINE
8
0
10
114.449000
20
110.102000
11
114.382231
21
109.424079
0
LINE
8
0
10
114.382231
20
109.424079
11
114.703347
21
108.823310
0
LINE
8
0
10
114.703000
20
108.824000
11
115.303766
21
108.502885
0
LINE
8
0
10
115.303766
20
108.502885
11
115.981690
21
108.569656
0
LINE
8
0
10
115.982000
20
108.569000
11
116.508577
21
109.001149
0
LINE
8
0
10
116.508577
20
109.001149
11
116.706320
21
109.653020
0
LINE
8
0
10
116.706000
20
109.653000
11
116.616685
21
110.102016
0
LINE
8
0
10
116.616685
20
110.102016
11
116.362338
21
110.482673
0
LINE
8
0
10
116.362000
20
110.483000
11
115.981343
21
110.737347
0
LINE
8
0
10
115.981343
20
110.737347
11
115.532327
21
110.826662
0
LINE
8
0
10
176.801000
20
35.316400
11
176.300567
21
35.241464
0
LINE
8
0
10
176.300567
20
35.241464
11
175.852828
21
35.028775
0
LINE
8
0
10
175.852828
20
35.028775
11
175.484988
21
34.696511
0
LINE
8
0
10
175.484988
20
34.696511
11
175.224250
21
34.262850
0
LINE
8
0
10
175.224000
20
34.262900
11
175.101724
21
33.771884
0
LINE
8
0
10
175.101724
20
33.771884
11
175.126881
21
33.276835
0
LINE
8
0
10
175.126881
20
33.276835
11
175.293087
21
32.809841
0
LINE
8
0
10
175.293087
20
32.809841
11
175.593959
21
32.402990
0
LINE
8
0
10
175.594000
20
32.403000
11
176.000847
21
32.102128
0
LINE
8
0
10
176.000847
20
32.102128
11
176.467841
21
31.935922
0
LINE
8
0
10
176.467841
20
31.935922
11
176.962892
21
31.910765
0
LINE
8
0
10
176.962892
20
31.910765
11
177.453910
21
32.033041
0
LINE
8
0
10
177.454000
20
32.033000
11
177.887662
21
32.293739
0
LINE
8
0
10
177.887662
20
32.293739
11
178.219926
21
32.661581
0
LINE
8
0
10
178.219926
20
32.661581
11
178.432615
21
33.109320
0
LINE
8
0
10
178.432615
20
33.109320
11
178.507550
21
33.609750
0
LINE
8
0
10
178.508000
20
33.609800
11
178.378088
21
34.262913
0
LINE
8
0
10
178.378088
20
34.262913
11
178.008128
21
34.816600
0
LINE
8
0
10
178.008000
20
34.816500
11
177.454317
21
35.186459
0
LINE
8
0
10
177.454317
20
35.186459
11
176.801200
21
35.316372
0
LINE
8
0
10
205.407000
20
108.653000
11
204.755130
21
108.455258
0
LINE
8
0
10
204.755130
20
108.455258
11
204.322980
21
107.928683
0
LINE
8
0
10
204.323000
20
107.928000
11
204.256232
21
107.250078
0
LINE
8
0
10
204.256232
20
107.250078
11
204.577347
21
106.649310
0
LINE
8
0
10
204.578000
20
106.650000
11
205.178766
21
106.328884
0
LINE
8
0
10
205.178766
20
106.328884
11
205.856690
21
106.395653
0
LINE
8
0
10
205.856000
20
106.395000
11
206.382575
21
106.827151
0
LINE
8
0
10
206.382575
20
106.827151
11
206.580317
21
107.479020
0
LINE
8
0
10
206.581000
20
107.479000
11
206.491685
21
107.928015
0
LINE
8
0
10
206.491685
20
107.928015
11
206.237338
21
108.308671
0
LINE
8
0
10
206.237000
20
108.309000
11
205.856343
21
108.563347
0
LINE
8
0
10
205.856343
20
108.563347
11
205.407329
21
108.652662
0
LINE
8
0
10
186.912000
20
33.758800
11
186.260130
21
33.561058
0
LINE
8
0
10
186.260130
20
33.561058
11
185.827980
21
33.034483
0
LINE
8
0
10
185.828000
20
33.034500
11
185.761231
21
32.356580
0
LINE
8
0
10
185.761231
20
32.356580
11
186.082347
21
31.755810
0
LINE
8
0
10
186.083000
20
31.755800
11
186.683767
21
31.434683
0
LINE
8
0
10
186.683767
20
31.434683
11
187.361690
21
31.501450
0
LINE
8
0
10
187.361000
20
31.501400
11
187.887575
21
31.933551
0
LINE
8
0
10
187.887575
20
31.933551
11
188.085317
21
32.585420
0
LINE
8
0
10
188.086000
20
32.585400
11
187.996685
21
33.034416
0
LINE
8
0
10
187.996685
20
33.034416
11
187.742338
21
33.415073
0
LINE
8
0
10
187.742000
20
33.415100
11
187.361343
21
33.669445
0
LINE
8
0
10
187.361343
20
33.669445
11
186.912329
21
33.758759
0
LINE
8
0
10
115.400000
20
158.721000
11
114.748130
21
158.523258
0
LINE
8
0
10
114.748130
20
158.523258
11
114.315980
21
157.996683
0
LINE
8
0
10
114.316000
20
157.997000
11
114.249231
21
157.319077
0
LINE
8
0
10
114.249231
20
157.319077
11
114.570347
21
156.718310
0
LINE
8
0
10
114.571000
20
156.718000
11
115.171767
21
156.396884
0
LINE
8
0
10
115.171767
20
156.396884
11
115.849690
21
156.463653
0
LINE
8
0
10
115.849000
20
156.463000
11
116.375575
21
156.895150
0
LINE
8
0
10
116.375575
20
156.895150
11
116.573317
21
157.547020
0
LINE
8
0
10
116.574000
20
157.547000
11
116.484685
21
157.996014
0
LINE
8
0
10
116.484685
20
157.996014
11
116.230338
21
158.376671
0
LINE
8
0
10
116.230000
20
158.377000
11
115.849344
21
158.631347
0
LINE
8
0
10
115.849344
20
158.631347
11
115.400329
21
158.720662
0
LINE
8
0
10
45.629500
20
104.392000
11
44.977632
21
104.194258
0
LINE
8
0
10
44.977632
20
104.194258
11
44.545480
21
103.667683
0
LINE
8
0
10
44.545500
20
103.668000
11
44.478729
21
102.990078
0
LINE
8
0
10
44.478729
20
102.990078
11
44.799844
21
102.389310
0
LINE
8
0
10
44.799800
20
102.389000
11
45.400568
21
102.067884
0
LINE
8
0
10
45.400568
20
102.067884
11
46.078490
21
102.134653
0
LINE
8
0
10
46.078500
20
102.135000
11
46.605077
21
102.567150
0
LINE
8
0
10
46.605077
20
102.567150
11
46.802820
21
103.219020
0
LINE
8
0
10
46.802800
20
103.219000
11
46.713485
21
103.668014
0
LINE
8
0
10
46.713485
20
103.668014
11
46.459138
21
104.048671
0
LINE
8
0
10
46.459200
20
104.049000
11
46.078543
21
104.303347
0
LINE
8
0
10
46.078543
20
104.303347
11
45.629527
21
104.392662
0
LINE
8
0
10
204.136000
20
159.201000
11
203.484131
21
159.003257
0
LINE
8
0
10
203.484131
20
159.003257
11
203.051980
21
158.476680
0
LINE
8
0
10
203.052000
20
158.477000
11
202.985231
21
157.799080
0
LINE
8
0
10
202.985231
20
157.799080
11
203.306347
21
157.198310
0
LINE
8
0
10
203.307000
20
157.198000
11
203.907766
21
156.876884
0
LINE
8
0
10
203.907766
20
156.876884
11
204.585690
21
156.943650
0
LINE
8
0
10
204.585000
20
156.943000
11
205.111577
21
157.375152
0
LINE
8
0
10
205.111577
20
157.375152
11
205.309320
21
158.027020
0
LINE
8
0
10
205.310000
20
158.028000
11
205.220685
21
158.477015
0
LINE
8
0
10
205.220685
20
158.477015
11
204.966338
21
158.857673
0
LINE
8
0
10
204.966000
20
158.857000
11
204.585343
21
159.111346
0
LINE
8
0
10
204.585343
20
159.111346
11
204.136327
21
159.200662
0
LINE
8
0
10
256.087000
20
149.621000
11
255.435131
21
149.423259
0
LINE
8
0
10
255.435131
20
149.423259
11
255.002980
21
148.896683
0
LINE
8
0
10
255.003000
20
148.897000
11
254.936231
21
148.219078
0
LINE
8
0
10
254.936231
20
148.219078
11
255.257347
21
147.618310
0
LINE
8
0
10
255.258000
20
147.618000
11
255.858766
21
147.296886
0
LINE
8
0
10
255.858766
20
147.296886
11
256.536690
21
147.363656
0
LINE
8
0
10
256.536000
20
147.364000
11
257.062575
21
147.796148
0
LINE
8
0
10
257.062575
20
147.796148
11
257.260317
21
148.448020
0
LINE
8
0
10
257.261000
20
148.448000
11
257.168793
21
148.904713
0
LINE
8
0
10
257.168793
20
148.904713
11
256.917338
21
149.277670
0
LINE
8
0
10
256.917338
20
149.277670
11
256.544378
21
149.529124
0
LINE
8
0
10
256.544378
20
149.529124
11
256.087660
21
149.621330
0
LINE
8
0
10
97.916900
20
70.107800
11
97.265030
21
69.910057
0
LINE
8
0
10
97.265030
20
69.910057
11
96.832880
21
69.383480
0
LINE
8
0
10
96.832900
20
69.383500
11
96.766129
21
68.705579
0
LINE
8
0
10
96.766129
20
68.705579
11
97.087244
21
68.104810
0
LINE
8
0
10
97.087200
20
68.104800
11
97.687967
21
67.783684
0
LINE
8
0
10
97.687967
20
67.783684
11
98.365890
21
67.850453
0
LINE
8
0
10
98.365900
20
67.850500
11
98.892476
21
68.282650
0
LINE
8
0
10
98.892476
20
68.282650
11
99.090217
21
68.934520
0
LINE
8
0
10
99.090200
20
68.934500
11
99.000886
21
69.383514
0
LINE
8
0
10
99.000886
20
69.383514
11
98.746538
21
69.764171
0
LINE
8
0
10
98.746600
20
69.764200
11
98.365944
21
70.018547
0
LINE
8
0
10
98.365944
20
70.018547
11
97.916929
21
70.107862
0
LINE
8
0
10
131.757000
20
33.332100
11
131.105131
21
33.134358
0
LINE
8
0
10
131.105131
20
33.134358
11
130.672980
21
32.607783
0
LINE
8
0
10
130.673000
20
32.607800
11
130.606231
21
31.929877
0
LINE
8
0
10
130.606231
20
31.929877
11
130.927347
21
31.329110
0
LINE
8
0
10
130.927000
20
31.329100
11
131.527766
21
31.007984
0
LINE
8
0
10
131.527766
20
31.007984
11
132.205690
21
31.074753
0
LINE
8
0
10
132.206000
20
31.074800
11
132.732575
21
31.506950
0
LINE
8
0
10
132.732575
20
31.506950
11
132.930317
21
32.158820
0
LINE
8
0
10
132.930000
20
32.158800
11
132.840685
21
32.607817
0
LINE
8
0
10
132.840685
20
32.607817
11
132.586338
21
32.988473
0
LINE
8
0
10
132.586000
20
32.988400
11
132.205343
21
33.242747
0
LINE
8
0
10
132.205343
20
33.242747
11
131.756327
21
33.332062
0
LINE
8
0
10
273.133000
20
112.853000
11
272.481132
21
112.655257
0
LINE
8
0
10
272.481132
20
112.655257
11
272.048980
21
112.128680
0
LINE
8
0
10
272.049000
20
112.129000
11
271.982230
21
111.451078
0
LINE
8
0
10
271.982230
20
111.451078
11
272.303347
21
110.850310
0
LINE
8
0
10
272.303000
20
110.850000
11
272.903766
21
110.528886
0
LINE
8
0
10
272.903766
20
110.528886
11
273.581690
21
110.595656
0
LINE
8
0
10
273.582000
20
110.596000
11
274.108577
21
111.028149
0
LINE
8
0
10
274.108577
20
111.028149
11
274.306320
21
111.680020
0
LINE
8
0
10
274.306000
20
111.680000
11
274.216685
21
112.129014
0
LINE
8
0
10
274.216685
20
112.129014
11
273.962338
21
112.509673
0
LINE
8
0
10
273.962000
20
112.510000
11
273.581343
21
112.764347
0
LINE
8
0
10
273.581343
20
112.764347
11
273.132327
21
112.853662
0
LINE
8
0
10
63.549000
20
141.939000
11
62.897132
21
141.741257
0
LINE
8
0
10
62.897132
20
141.741257
11
62.464980
21
141.214680
0
LINE
8
0
10
62.465000
20
141.214000
11
62.398231
21
140.536079
0
LINE
8
0
10
62.398231
20
140.536079
11
62.719347
21
139.935310
0
LINE
8
0
10
62.719300
20
139.936000
11
63.320066
21
139.614884
0
LINE
8
0
10
63.320066
20
139.614884
11
63.997990
21
139.681653
0
LINE
8
0
10
63.998000
20
139.681000
11
64.524576
21
140.113150
0
LINE
8
0
10
64.524576
20
140.113150
11
64.722317
21
140.765020
0
LINE
8
0
10
64.722300
20
140.765000
11
64.632986
21
141.214017
0
LINE
8
0
10
64.632986
20
141.214017
11
64.378638
21
141.594673
0
LINE
8
0
10
64.378600
20
141.595000
11
63.997945
21
141.849346
0
LINE
8
0
10
63.997945
20
141.849346
11
63.548929
21
141.938662
0
LINE
8
0
10
222.662000
20
68.401100
11
222.010131
21
68.203359
0
LINE
8
0
10
222.010131
20
68.203359
11
221.577980
21
67.676783
0
LINE
8
0
10
221.578000
20
67.676800
11
221.511231
21
66.998880
0
LINE
8
0
10
221.511231
20
66.998880
11
221.832347
21
66.398110
0
LINE
8
0
10
221.832000
20
66.398100
11
222.432766
21
66.076984
0
LINE
8
0
10
222.432766
20
66.076984
11
223.110690
21
66.143753
0
LINE
8
0
10
223.111000
20
66.143800
11
223.637576
21
66.575950
0
LINE
8
0
10
223.637576
20
66.575950
11
223.835317
21
67.227820
0
LINE
8
0
10
223.835000
20
67.227800
11
223.745686
21
67.676817
0
LINE
8
0
10
223.745686
20
67.676817
11
223.491338
21
68.057473
0
LINE
8
0
10
223.491000
20
68.057500
11
223.110346
21
68.311846
0
LINE
8
0
10
223.110346
20
68.311846
11
222.661329
21
68.401159
0
LINE
8
0
10
115.533000
20
110.827000
11
114.881132
21
110.629259
0
LINE
8
0
10
114.881132
20
110.629259
11
114.448980
21
110.102683
0
LINE
8
0
10
114.449000
20
110.102000
11
114.382231
21
109.424079
0
LINE
8
0
10
114.382231
20
109.424079
11
114.703347
21
108.823310
0
LINE
8
0
10
114.703000
20
108.824000
11
115.303766
21
108.502884
0
LINE
8
0
10
115.303766
20
108.502884
11
115.981690
21
108.569653
0
LINE
8
0
10
115.982000
20
108.569000
11
116.508577
21
109.001150
0
LINE
8
0
10
116.508577
20
109.001150
11
116.706320
21
109.653020
0
LINE
8
0
10
116.706000
20
109.653000
11
116.616685
21
110.102014
0
LINE
8
0
10
116.616685
20
110.102014
11
116.362338
21
110.482673
0
LINE
8
0
10
116.362000
20
110.483000
11
115.981343
21
110.737346
0
LINE
8
0
10
115.981343
20
110.737346
11
115.532327
21
110.826659
0
LINE
8
0
10
176.801000
20
35.316400
11
176.300568
21
35.241464
0
LINE
8
0
10
176.300568
20
35.241464
11
175.852830
21
35.028775
0
LINE
8
0
10
175.852830
20
35.028775
11
175.484989
21
34.696511
0
LINE
8
0
10
175.484989
20
34.696511
11
175.224250
21
34.262850
0
LINE
8
0
10
175.224000
20
34.262900
11
175.101724
21
33.771884
0
LINE
8
0
10
175.101724
20
33.771884
11
175.126881
21
33.276835
0
LINE
8
0
10
175.126881
20
33.276835
11
175.293087
21
32.809841
0
LINE
8
0
10
175.293087
20
32.809841
11
175.593959
21
32.402990
0
LINE
8
0
10
175.594000
20
32.403000
11
176.000847
21
32.102128
0
LINE
8
0
10
176.000847
20
32.102128
11
176.467841
21
31.935922
0
LINE
8
0
10
176.467841
20
31.935922
11
176.962892
21
31.910765
0
LINE
8
0
10
176.962892
20
31.910765
11
177.453910
21
32.033041
0
LINE
8
0
10
177.454000
20
32.033000
11
177.887662
21
32.293739
0
LINE
8
0
10
177.887662
20
32.293739
11
178.219926
21
32.661581
0
LINE
8
0
10
178.219926
20
32.661581
11
178.432615
21
33.109320
0
LINE
8
0
10
178.432615
20
33.109320
11
178.507550
21
33.609750
0
LINE
8
0
10
178.508000
20
33.609800
11
178.378088
21
34.262913
0
LINE
8
0
10
178.378088
20
34.262913
11
178.008128
21
34.816600
0
LINE
8
0
10
178.008000
20
34.816500
11
177.454317
21
35.186459
0
LINE
8
0
10
177.454317
20
35.186459
11
176.801200
21
35.316372
0
LINE
8
0
10
205.407000
20
108.653000
11
204.755130
21
108.455258
0
LINE
8
0
10
204.755130
20
108.455258
11
204.322980
21
107.928683
0
LINE
8
0
10
204.323000
20
107.928000
11
204.256232
21
107.250078
0
LINE
8
0
10
204.256232
20
107.250078
11
204.577347
21
106.649310
0
LINE
8
0
10
204.578000
20
106.650000
11
205.178766
21
106.328886
0
LINE
8
0
10
205.178766
20
106.328886
11
205.856690
21
106.395656
0
LINE
8
0
10
205.856000
20
106.395000
11
206.382575
21
106.827149
0
LINE
8
0
10
206.382575
20
106.827149
11
206.580317
21
107.479020
0
LINE
8
0
10
206.581000
20
107.479000
11
206.491685
21
107.928014
0
LINE
8
0
10
206.491685
20
107.928014
11
206.237338
21
108.308671
0
LINE
8
0
10
206.237000
20
108.309000
11
205.856343
21
108.563347
0
LINE
8
0
10
205.856343
20
108.563347
11
205.407329
21
108.652662
0
LINE
8
0
10
186.912000
20
33.758800
11
186.260130
21
33.561058
0
LINE
8
0
10
186.260130
20
33.561058
11
185.827980
21
33.034483
0
LINE
8
0
10
185.828000
20
33.034500
11
185.761229
21
32.356580
0
LINE
8
0
10
185.761229
20
32.356580
11
186.082344
21
31.755810
0
LINE
8
0
10
186.083000
20
31.755800
11
186.683767
21
31.434683
0
LINE
8
0
10
186.683767
20
31.434683
11
187.361690
21
31.501453
0
LINE
8
0
10
187.361000
20
31.501400
11
187.887575
21
31.933549
0
LINE
8
0
10
187.887575
20
31.933549
11
188.085317
21
32.585420
0
LINE
8
0
10
188.086000
20
32.585400
11
187.996685
21
33.034416
0
LINE
8
0
10
187.996685
20
33.034416
11
187.742338
21
33.415073
0
LINE
8
0
10
187.742000
20
33.415100
11
187.361343
21
33.669445
0
LINE
8
0
10
187.361343
20
33.669445
11
186.912329
21
33.758759
0
LINE
8
0
10
115.400000
20
158.721000
11
114.748130
21
158.523258
0
LINE
8
0
10
114.748130
20
158.523258
11
114.315980
21
157.996683
0
LINE
8
0
10
114.316000
20
157.997000
11
114.249229
21
157.319078
0
LINE
8
0
10
114.249229
20
157.319078
11
114.570344
21
156.718310
0
LINE
8
0
10
114.571000
20
156.718000
11
115.171767
21
156.396881
0
LINE
8
0
10
115.171767
20
156.396881
11
115.849690
21
156.463650
0
LINE
8
0
10
115.849000
20
156.463000
11
116.375575
21
156.895151
0
LINE
8
0
10
116.375575
20
156.895151
11
116.573317
21
157.547020
0
LINE
8
0
10
116.574000
20
157.547000
11
116.484685
21
157.996014
0
LINE
8
0
10
116.484685
20
157.996014
11
116.230338
21
158.376671
0
LINE
8
0
10
116.230000
20
158.377000
11
115.849344
21
158.631347
0
LINE
8
0
10
115.849344
20
158.631347
11
115.400329
21
158.720662
0
LINE
8
0
10
45.629500
20
104.392000
11
44.977632
21
104.194258
0
LINE
8
0
10
44.977632
20
104.194258
11
44.545480
21
103.667683
0
LINE
8
0
10
44.545500
20
103.668000
11
44.478731
21
102.990078
0
LINE
8
0
10
44.478731
20
102.990078
11
44.799847
21
102.389310
0
LINE
8
0
10
44.799800
20
102.389000
11
45.400566
21
102.067885
0
LINE
8
0
10
45.400566
20
102.067885
11
46.078490
21
102.134656
0
LINE
8
0
10
46.078500
20
102.135000
11
46.605076
21
102.567148
0
LINE
8
0
10
46.605076
20
102.567148
11
46.802817
21
103.219020
0
LINE
8
0
10
46.802800
20
103.219000
11
46.713486
21
103.668014
0
LINE
8
0
10
46.713486
20
103.668014
11
46.459138
21
104.048671
0
LINE
8
0
10
46.459200
20
104.049000
11
46.078546
21
104.303347
0
LINE
8
0
10
46.078546
20
104.303347
11
45.629529
21
104.392662
0
LINE
8
0
10
204.136000
20
159.201000
11
203.484131
21
159.003259
0
LINE
8
0
10
203.484131
20
159.003259
11
203.051980
21
158.476683
0
LINE
8
0
10
203.052000
20
158.477000
11
202.985231
21
157.799080
0
LINE
8
0
10
202.985231
20
157.799080
11
203.306347
21
157.198310
0
LINE
8
0
10
203.307000
20
157.198000
11
203.907766
21
156.876884
0
LINE
8
0
10
203.907766
20
156.876884
11
204.585690
21
156.943653
0
LINE
8
0
10
204.585000
20
156.943000
11
205.111577
21
157.375150
0
LINE
8
0
10
205.111577
20
157.375150
11
205.309320
21
158.027020
0
LINE
8
0
10
205.310000
20
158.028000
11
205.220685
21
158.477015
0
LINE
8
0
10
205.220685
20
158.477015
11
204.966338
21
158.857673
0
LINE
8
0
10
204.966000
20
158.857000
11
204.585343
21
159.111344
0
LINE
8
0
10
204.585343
20
159.111344
11
204.136327
21
159.200659
0
LINE
8
0
10
256.087000
20
149.621000
11
255.435131
21
149.423258
0
LINE
8
0
10
255.435131
20
149.423258
11
255.002980
21
148.896683
0
LINE
8
0
10
255.003000
20
148.897000
11
254.936231
21
148.219078
0
LINE
8
0
10
254.936231
20
148.219078
11
255.257347
21
147.618310
0
LINE
8
0
10
255.258000
20
147.618000
11
255.858766
21
147.296886
0
LINE
8
0
10
255.858766
20
147.296886
11
256.536690
21
147.363656
0
LINE
8
0
10
256.536000
20
147.364000
11
257.062577
21
147.796149
0
LINE
8
0
10
257.062577
20
147.796149
11
257.260320
21
148.448020
0
LINE
8
0
10
257.261000
20
148.448000
11
257.171685
21
148.897014
0
LINE
8
0
10
257.171685
20
148.897014
11
256.917338
21
149.277671
0
LINE
8
0
10
256.917000
20
149.278000
11
256.536343
21
149.532347
0
LINE
8
0
10
256.536343
20
149.532347
11
256.087327
21
149.621662
0
LINE
8
0
10
97.916900
20
70.107800
11
97.265031
21
69.910057
0
LINE
8
0
10
97.265031
20
69.910057
11
96.832880
21
69.383480
0
LINE
8
0
10
96.832900
20
69.383500
11
96.766129
21
68.705579
0
LINE
8
0
10
96.766129
20
68.705579
11
97.087244
21
68.104810
0
LINE
8
0
10
97.087200
20
68.104800
11
97.687967
21
67.783684
0
LINE
8
0
10
97.687967
20
67.783684
11
98.365890
21
67.850453
0
LINE
8
0
10
98.365900
20
67.850500
11
98.892475
21
68.282650
0
LINE
8
0
10
98.892475
20
68.282650
11
99.090217
21
68.934520
0
LINE
8
0
10
99.090200
20
68.934500
11
99.000885
21
69.383514
0
LINE
8
0
10
99.000885
20
69.383514
11
98.746538
21
69.764171
0
LINE
8
0
10
98.746600
20
69.764200
11
98.365944
21
70.018547
0
LINE
8
0
10
98.365944
20
70.018547
11
97.916929
21
70.107862
0
LINE
8
0
10
131.757000
20
33.332100
11
131.105131
21
33.134357
0
LINE
8
0
10
131.105131
20
33.134357
11
130.672980
21
32.607780
0
LINE
8
0
10
130.673000
20
32.607800
11
130.606231
21
31.929879
0
LINE
8
0
10
130.606231
20
31.929879
11
130.927347
21
31.329110
0
LINE
8
0
10
130.927000
20
31.329100
11
131.527766
21
31.007984
0
LINE
8
0
10
131.527766
20
31.007984
11
132.205690
21
31.074753
0
LINE
8
0
10
132.206000
20
31.074800
11
132.732577
21
31.506950
0
LINE
8
0
10
132.732577
20
31.506950
11
132.930320
21
32.158820
0
LINE
8
0
10
132.930000
20
32.158800
11
132.840685
21
32.607817
0
LINE
8
0
10
132.840685
20
32.607817
11
132.586338
21
32.988473
0
LINE
8
0
10
132.586000
20
32.988400
11
132.205343
21
33.242747
0
LINE
8
0
10
132.205343
20
33.242747
11
131.756327
21
33.332062
0
LINE
8
0
10
273.133000
20
112.853000
11
272.481132
21
112.655258
0
LINE
8
0
10
272.481132
20
112.655258
11
272.048980
21
112.128683
0
LINE
8
0
10
272.049000
20
112.129000
11
271.982231
21
111.451078
0
LINE
8
0
10
271.982231
20
111.451078
11
272.303347
21
110.850310
0
LINE
8
0
10
272.303000
20
110.850000
11
272.903766
21
110.528884
0
LINE
8
0
10
272.903766
20
110.528884
11
273.581690
21
110.595653
0
LINE
8
0
10
273.582000
20
110.596000
11
274.108576
21
111.028150
0
LINE
8
0
10
274.108576
20
111.028150
11
274.306317
21
111.680020
0
LINE
8
0
10
274.306000
20
111.680000
11
274.216687
21
112.129014
0
LINE
8
0
10
274.216687
20
112.129014
11
273.962341
21
112.509671
0
LINE
8
0
10
273.962000
20
112.510000
11
273.581343
21
112.764347
0
LINE
8
0
10
273.581343
20
112.764347
11
273.132327
21
112.853662
0
LINE
8
0
10
63.549000
20
143.379000
11
62.782714
21
143.264254
0
LINE
8
0
10
62.782714
20
143.264254
11
62.097113
21
142.938573
0
LINE
8
0
10
62.097113
20
142.938573
11
61.533855
21
142.429793
0
LINE
8
0
10
61.533855
20
142.429793
11
61.134600
21
141.765750
0
LINE
8
0
10
61.134600
20
141.765000
11
60.947365
21
141.013130
0
LINE
8
0
10
60.947365
20
141.013130
11
60.985885
21
140.255083
0
LINE
8
0
10
60.985885
20
140.255083
11
61.240388
21
139.539997
0
LINE
8
0
10
61.240388
20
139.539997
11
61.701099
21
138.917010
0
LINE
8
0
10
61.701100
20
138.917000
11
62.324086
21
138.456289
0
LINE
8
0
10
62.324086
20
138.456289
11
63.039170
21
138.201787
0
LINE
8
0
10
63.039170
20
138.201787
11
63.797214
21
138.163265
0
LINE
8
0
10
63.797214
20
138.163265
11
64.549080
21
138.350499
0
LINE
8
0
10
64.549000
20
138.351000
11
65.213046
21
138.750257
0
LINE
8
0
10
65.213046
20
138.750257
11
65.721826
21
139.313516
0
LINE
8
0
10
65.721826
20
139.313516
11
66.047505
21
139.999119
0
LINE
8
0
10
66.047505
20
139.999119
11
66.162250
21
140.765410
0
LINE
8
0
10
66.162300
20
140.765000
11
65.963372
21
141.765080
0
LINE
8
0
10
65.963372
20
141.765080
11
65.396874
21
142.612910
0
LINE
8
0
10
65.396900
20
142.613000
11
64.549072
21
143.179499
0
LINE
8
0
10
64.549072
20
143.179499
11
63.548990
21
143.378428
0
LINE
8
0
10
222.662000
20
69.841100
11
221.895714
21
69.726354
0
LINE
8
0
10
221.895714
20
69.726354
11
221.210113
21
69.400674
0
LINE
8
0
10
221.210113
20
69.400674
11
220.646855
21
68.891895
0
LINE
8
0
10
220.646855
20
68.891895
11
220.247600
21
68.227850
0
LINE
8
0
10
220.247000
20
68.227900
11
220.059765
21
67.476031
0
LINE
8
0
10
220.059765
20
67.476031
11
220.098286
21
66.717985
0
LINE
8
0
10
220.098286
20
66.717985
11
220.352788
21
66.002901
0
LINE
8
0
10
220.352788
20
66.002901
11
220.813499
21
65.379920
0
LINE
8
0
10
220.814000
20
65.379900
11
221.436986
21
64.919189
0
LINE
8
0
10
221.436986
20
64.919189
11
222.152070
21
64.664687
0
LINE
8
0
10
222.152070
20
64.664687
11
222.910114
21
64.626166
0
LINE
8
0
10
222.910114
20
64.626166
11
223.661980
21
64.813401
0
LINE
8
0
10
223.662000
20
64.813400
11
224.326046
21
65.212657
0
LINE
8
0
10
224.326046
20
65.212657
11
224.834826
21
65.775914
0
LINE
8
0
10
224.834826
20
65.775914
11
225.160505
21
66.461514
0
LINE
8
0
10
225.160505
20
66.461514
11
225.275250
21
67.227800
0
LINE
8
0
10
225.275000
20
67.227800
11
225.076072
21
68.227880
0
LINE
8
0
10
225.076072
20
68.227880
11
224.509574
21
69.075710
0
LINE
8
0
10
224.509000
20
69.075700
11
223.661172
21
69.642199
0
LINE
8
0
10
223.661172
20
69.642199
11
222.661090
21
69.841126
0
LINE
8
0
10
115.533000
20
112.267000
11
114.766714
21
112.152254
0
LINE
8
0
10
114.766714
20
112.152254
11
114.081112
21
111.826574
0
LINE
8
0
10
114.081112
20
111.826574
11
113.517855
21
111.317795
0
LINE
8
0
10
113.517855
20
111.317795
11
113.118600
21
110.653750
0
LINE
8
0
10
113.118000
20
110.654000
11
112.930765
21
109.902130
0
LINE
8
0
10
112.930765
20
109.902130
11
112.969285
21
109.144084
0
LINE
8
0
10
112.969285
20
109.144084
11
113.223788
21
108.429001
0
LINE
8
0
10
113.223788
20
108.429001
11
113.684499
21
107.806020
0
LINE
8
0
10
113.685000
20
107.806000
11
114.307986
21
107.345289
0
LINE
8
0
10
114.307986
20
107.345289
11
115.023071
21
107.090787
0
LINE
8
0
10
115.023071
20
107.090787
11
115.781118
21
107.052266
0
LINE
8
0
10
115.781118
20
107.052266
11
116.532990
21
107.239501
0
LINE
8
0
10
116.533000
20
107.239000
11
117.197045
21
107.638256
0
LINE
8
0
10
117.197045
20
107.638256
11
117.705825
21
108.201513
0
LINE
8
0
10
117.705825
20
108.201513
11
118.031505
21
108.887114
0
LINE
8
0
10
118.031505
20
108.887114
11
118.146250
21
109.653400
0
LINE
8
0
10
118.146000
20
109.653000
11
117.947073
21
110.653080
0
LINE
8
0
10
117.947073
20
110.653080
11
117.380574
21
111.500910
0
LINE
8
0
10
117.381000
20
111.501000
11
116.533172
21
112.067498
0
LINE
8
0
10
116.533172
20
112.067498
11
115.533090
21
112.266426
0
LINE
8
0
10
176.801000
20
37.289800
11
175.721942
21
37.128220
0
LINE
8
0
10
175.721942
20
37.128220
11
174.756503
21
36.669609
0
LINE
8
0
10
174.756503
20
36.669609
11
173.963342
21
35.953164
0
LINE
8
0
10
173.963342
20
35.953164
11
173.401120
21
35.018080
0
LINE
8
0
10
173.401000
20
35.018000
11
173.137343
21
33.959245
0
LINE
8
0
10
173.137343
20
33.959245
11
173.191587
21
32.891791
0
LINE
8
0
10
173.191587
20
32.891791
11
173.549968
21
31.884834
0
LINE
8
0
10
173.549968
20
31.884834
11
174.198723
21
31.007570
0
LINE
8
0
10
174.199000
20
31.007600
11
175.076264
21
30.358845
0
LINE
8
0
10
175.076264
20
30.358845
11
176.083221
21
30.000463
0
LINE
8
0
10
176.083221
20
30.000463
11
177.150675
21
29.946219
0
LINE
8
0
10
177.150675
20
29.946219
11
178.209430
21
30.209877
0
LINE
8
0
10
178.209000
20
30.209900
11
179.144085
21
30.772120
0
LINE
8
0
10
179.144085
20
30.772120
11
179.860530
21
31.565281
0
LINE
8
0
10
179.860530
20
31.565281
11
180.319140
21
32.530721
0
LINE
8
0
10
180.319140
20
32.530721
11
180.480720
21
33.609780
0
LINE
8
0
10
180.481000
20
33.609800
11
180.200877
21
35.018075
0
LINE
8
0
10
180.200877
20
35.018075
11
179.403150
21
36.211950
0
LINE
8
0
10
179.403000
20
36.211900
11
178.209125
21
37.009626
0
LINE
8
0
10
178.209125
20
37.009626
11
176.800850
21
37.289750
0
LINE
8
0
10
205.407000
20
110.093000
11
204.640714
21
109.978254
0
LINE
8
0
10
204.640714
20
109.978254
11
203.955111
21
109.652575
0
LINE
8
0
10
203.955111
20
109.652575
11
203.391851
21
109.143795
0
LINE
8
0
10
203.391851
20
109.143795
11
202.992590
21
108.479750
0
LINE
8
0
10
202.993000
20
108.479000
11
202.805765
21
107.727130
0
LINE
8
0
10
202.805765
20
107.727130
11
202.844285
21
106.969083
0
LINE
8
0
10
202.844285
20
106.969083
11
203.098788
21
106.253997
0
LINE
8
0
10
203.098788
20
106.253997
11
203.559499
21
105.631010
0
LINE
8
0
10
203.559000
20
105.631000
11
204.181986
21
105.170291
0
LINE
8
0
10
204.181986
20
105.170291
11
204.897071
21
104.915788
0
LINE
8
0
10
204.897071
20
104.915788
11
205.655118
21
104.877267
0
LINE
8
0
10
205.655118
20
104.877267
11
206.406990
21
105.064501
0
LINE
8
0
10
206.407000
20
105.065000
11
207.071046
21
105.464257
0
LINE
8
0
10
207.071046
20
105.464257
11
207.579826
21
106.027516
0
LINE
8
0
10
207.579826
20
106.027516
11
207.905505
21
106.713119
0
LINE
8
0
10
207.905505
20
106.713119
11
208.020250
21
107.479410
0
LINE
8
0
10
208.021000
20
107.479000
11
207.822072
21
108.479078
0
LINE
8
0
10
207.822072
20
108.479078
11
207.255572
21
109.326900
0
LINE
8
0
10
207.255000
20
109.327000
11
206.407173
21
109.893500
0
LINE
8
0
10
206.407173
20
109.893500
11
205.407100
21
110.092428
0
LINE
8
0
10
186.912000
20
35.198800
11
186.145714
21
35.084054
0
LINE
8
0
10
186.145714
20
35.084054
11
185.460111
21
34.758374
0
LINE
8
0
10
185.460111
20
34.758374
11
184.896851
21
34.249595
0
LINE
8
0
10
184.896851
20
34.249595
11
184.497590
21
33.585550
0
LINE
8
0
10
184.498000
20
33.585500
11
184.310765
21
32.833630
0
LINE
8
0
10
184.310765
20
32.833630
11
184.349287
21
32.075584
0
LINE
8
0
10
184.349287
20
32.075584
11
184.603790
21
31.360501
0
LINE
8
0
10
184.603790
20
31.360501
11
185.064499
21
30.737520
0
LINE
8
0
10
185.065000
20
30.737500
11
185.687986
21
30.276789
0
LINE
8
0
10
185.687986
20
30.276789
11
186.403071
21
30.022286
0
LINE
8
0
10
186.403071
20
30.022286
11
187.161118
21
29.983764
0
LINE
8
0
10
187.161118
20
29.983764
11
187.912990
21
30.170999
0
LINE
8
0
10
187.913000
20
30.171000
11
188.577046
21
30.570257
0
LINE
8
0
10
188.577046
20
30.570257
11
189.085826
21
31.133516
0
LINE
8
0
10
189.085826
20
31.133516
11
189.411505
21
31.819119
0
LINE
8
0
10
189.411505
20
31.819119
11
189.526250
21
32.585410
0
LINE
8
0
10
189.526000
20
32.585400
11
189.327072
21
33.585479
0
LINE
8
0
10
189.327072
20
33.585479
11
188.760572
21
34.433300
0
LINE
8
0
10
188.760000
20
34.433300
11
187.912173
21
34.999800
0
LINE
8
0
10
187.912173
20
34.999800
11
186.912100
21
35.198728
0
LINE
8
0
10
115.400000
20
160.161000
11
114.633714
21
160.046255
0
LINE
8
0
10
114.633714
20
160.046255
11
113.948111
21
159.720574
0
LINE
8
0
10
113.948111
20
159.720574
11
113.384851
21
159.211795
0
LINE
8
0
10
113.384851
20
159.211795
11
112.985590
21
158.547750
0
LINE
8
0
10
112.986000
20
158.548000
11
112.798765
21
157.796130
0
LINE
8
0
10
112.798765
20
157.796130
11
112.837287
21
157.038083
0
LINE
8
0
10
112.837287
20
157.038083
11
113.091790
21
156.322997
0
LINE
8
0
10
113.091790
20
156.322997
11
113.552501
21
155.700010
0
LINE
8
0
10
113.552000
20
155.700000
11
114.174984
21
155.239289
0
LINE
8
0
10
114.174984
20
155.239289
11
114.890068
21
154.984787
0
LINE
8
0
10
114.890068
20
154.984787
11
115.648114
21
154.946266
0
LINE
8
0
10
115.648114
20
154.946266
11
116.399980
21
155.133501
0
LINE
8
0
10
116.400000
20
155.133000
11
117.064046
21
155.532257
0
LINE
8
0
10
117.064046
20
155.532257
11
117.572826
21
156.095516
0
LINE
8
0
10
117.572826
20
156.095516
11
117.898505
21
156.781119
0
LINE
8
0
10
117.898505
20
156.781119
11
118.013250
21
157.547410
0
LINE
8
0
10
118.014000
20
157.547000
11
117.815072
21
158.547078
0
LINE
8
0
10
117.815072
20
158.547078
11
117.248572
21
159.394900
0
LINE
8
0
10
117.248000
20
159.395000
11
116.400173
21
159.961500
0
LINE
8
0
10
116.400173
20
159.961500
11
115.400100
21
160.160428
0
LINE
8
0
10
45.629500
20
105.832000
11
44.863214
21
105.717254
0
LINE
8
0
10
44.863214
20
105.717254
11
44.177613
21
105.391574
0
LINE
8
0
10
44.177613
20
105.391574
11
43.614355
21
104.882795
0
LINE
8
0
10
43.614355
20
104.882795
11
43.215100
21
104.218750
0
LINE
8
0
10
43.215100
20
104.219000
11
43.027865
21
103.467130
0
LINE
8
0
10
43.027865
20
103.467130
11
43.066385
21
102.709084
0
LINE
8
0
10
43.066385
20
102.709084
11
43.320888
21
101.994001
0
LINE
8
0
10
43.320888
20
101.994001
11
43.781599
21
101.371020
0
LINE
8
0
10
43.781600
20
101.371000
11
44.404586
21
100.910289
0
LINE
8
0
10
44.404586
20
100.910289
11
45.119670
21
100.655786
0
LINE
8
0
10
45.119670
20
100.655786
11
45.877714
21
100.617264
0
LINE
8
0
10
45.877714
20
100.617264
11
46.629580
21
100.804499
0
LINE
8
0
10
46.629600
20
100.805000
11
47.293646
21
101.204257
0
LINE
8
0
10
47.293646
20
101.204257
11
47.802426
21
101.767516
0
LINE
8
0
10
47.802426
20
101.767516
11
48.128105
21
102.453119
0
LINE
8
0
10
48.128105
20
102.453119
11
48.242850
21
103.219410
0
LINE
8
0
10
48.242800
20
103.219000
11
48.037431
21
104.236225
0
LINE
8
0
10
48.037431
20
104.236225
11
47.477373
21
105.066902
0
LINE
8
0
10
47.477373
20
105.066902
11
46.646695
21
105.626961
0
LINE
8
0
10
46.646695
20
105.626961
11
45.629470
21
105.832330
0
LINE
8
0
10
204.136000
20
160.641000
11
203.369714
21
160.526254
0
LINE
8
0
10
203.369714
20
160.526254
11
202.684112
21
160.200574
0
LINE
8
0
10
202.684112
20
160.200574
11
202.120855
21
159.691795
0
LINE
8
0
10
202.120855
20
159.691795
11
201.721600
21
159.027750
0
LINE
8
0
10
201.722000
20
159.028000
11
201.534765
21
158.276130
0
LINE
8
0
10
201.534765
20
158.276130
11
201.573286
21
157.518084
0
LINE
8
0
10
201.573286
20
157.518084
11
201.827788
21
156.803001
0
LINE
8
0
10
201.827788
20
156.803001
11
202.288499
21
156.180020
0
LINE
8
0
10
202.288000
20
156.180000
11
202.910986
21
155.719289
0
LINE
8
0
10
202.910986
20
155.719289
11
203.626071
21
155.464786
0
LINE
8
0
10
203.626071
20
155.464786
11
204.384118
21
155.426264
0
LINE
8
0
10
204.384118
20
155.426264
11
205.135990
21
155.613499
0
LINE
8
0
10
205.136000
20
155.613000
11
205.800046
21
156.012257
0
LINE
8
0
10
205.800046
20
156.012257
11
206.308826
21
156.575516
0
LINE
8
0
10
206.308826
20
156.575516
11
206.634505
21
157.261119
0
LINE
8
0
10
206.634505
20
157.261119
11
206.749250
21
158.027410
0
LINE
8
0
10
206.750000
20
158.028000
11
206.551073
21
159.028079
0
LINE
8
0
10
206.551073
20
159.028079
11
205.984574
21
159.875900
0
LINE
8
0
10
205.984000
20
159.875000
11
205.136172
21
160.441500
0
LINE
8
0
10
205.136172
20
160.441500
11
204.136090
21
160.640428
0
LINE
8
0
10
256.087000
20
151.061000
11
255.320714
21
150.946255
0
LINE
8
0
10
255.320714
20
150.946255
11
254.635112
21
150.620574
0
LINE
8
0
10
254.635112
20
150.620574
11
254.071855
21
150.111795
0
LINE
8
0
10
254.071855
20
150.111795
11
253.672600
21
149.447750
0
LINE
8
0
10
253.673000
20
149.448000
11
253.485765
21
148.696130
0
LINE
8
0
10
253.485765
20
148.696130
11
253.524285
21
147.938084
0
LINE
8
0
10
253.524285
20
147.938084
11
253.778788
21
147.223001
0
LINE
8
0
10
253.778788
20
147.223001
11
254.239499
21
146.600020
0
LINE
8
0
10
254.239000
20
146.600000
11
254.861986
21
146.139289
0
LINE
8
0
10
254.861986
20
146.139289
11
255.577071
21
145.884785
0
LINE
8
0
10
255.577071
20
145.884785
11
256.335118
21
145.846264
0
LINE
8
0
10
256.335118
20
145.846264
11
257.086990
21
146.033499
0
LINE
8
0
10
257.087000
20
146.034000
11
257.751046
21
146.433257
0
LINE
8
0
10
257.751046
20
146.433257
11
258.259826
21
146.996516
0
LINE
8
0
10
258.259826
20
146.996516
11
258.585505
21
147.682119
0
LINE
8
0
10
258.585505
20
147.682119
11
258.700250
21
148.448410
0
LINE
8
0
10
258.701000
20
148.448000
11
258.502072
21
149.448079
0
LINE
8
0
10
258.502072
20
149.448079
11
257.935572
21
150.295910
0
LINE
8
0
10
257.935000
20
150.296000
11
257.087172
21
150.862498
0
LINE
8
0
10
257.087172
20
150.862498
11
256.087090
21
151.061426
0
LINE
8
0
10
97.916900
20
71.547800
11
97.150614
21
71.433054
0
LINE
8
0
10
97.150614
20
71.433054
11
96.465011
21
71.107374
0
LINE
8
0
10
96.465011
20
71.107374
11
95.901751
21
70.598595
0
LINE
8
0
10
95.901751
20
70.598595
11
95.502490
21
69.934550
0
LINE
8
0
10
95.502500
20
69.934600
11
95.315265
21
69.182730
0
LINE
8
0
10
95.315265
20
69.182730
11
95.353787
21
68.424683
0
LINE
8
0
10
95.353787
20
68.424683
11
95.608290
21
67.709597
0
LINE
8
0
10
95.608290
20
67.709597
11
96.069001
21
67.086610
0
LINE
8
0
10
96.069000
20
67.086600
11
96.691986
21
66.625889
0
LINE
8
0
10
96.691986
20
66.625889
11
97.407070
21
66.371387
0
LINE
8
0
10
97.407070
20
66.371387
11
98.165114
21
66.332866
0
LINE
8
0
10
98.165114
20
66.332866
11
98.916980
21
66.520101
0
LINE
8
0
10
98.917000
20
66.520100
11
99.581046
21
66.919357
0
LINE
8
0
10
99.581046
20
66.919357
11
100.089826
21
67.482616
0
LINE
8
0
10
100.089826
20
67.482616
11
100.415505
21
68.168219
0
LINE
8
0
10
100.415505
20
68.168219
11
100.530250
21
68.934510
0
LINE
8
0
10
100.530000
20
68.934500
11
100.331072
21
69.934578
0
LINE
8
0
10
100.331072
20
69.934578
11
99.764572
21
70.782400
0
LINE
8
0
10
99.764800
20
70.782400
11
98.916973
21
71.348900
0
LINE
8
0
10
98.916973
20
71.348900
11
97.916900
21
71.547828
0
LINE
8
0
10
131.757000
20
34.772100
11
130.990714
21
34.657354
0
LINE
8
0
10
130.990714
20
34.657354
11
130.305113
21
34.331674
0
LINE
8
0
10
130.305113
20
34.331674
11
129.741855
21
33.822895
0
LINE
8
0
10
129.741855
20
33.822895
11
129.342600
21
33.158850
0
LINE
8
0
10
129.342000
20
33.158900
11
129.154765
21
32.407030
0
LINE
8
0
10
129.154765
20
32.407030
11
129.193286
21
31.648983
0
LINE
8
0
10
129.193286
20
31.648983
11
129.447788
21
30.933897
0
LINE
8
0
10
129.447788
20
30.933897
11
129.908499
21
30.310910
0
LINE
8
0
10
129.909000
20
30.310900
11
130.531986
21
29.850189
0
LINE
8
0
10
130.531986
20
29.850189
11
131.247071
21
29.595687
0
LINE
8
0
10
131.247071
20
29.595687
11
132.005118
21
29.557166
0
LINE
8
0
10
132.005118
20
29.557166
11
132.756990
21
29.744401
0
LINE
8
0
10
132.757000
20
29.744400
11
133.421046
21
30.143657
0
LINE
8
0
10
133.421046
20
30.143657
11
133.929826
21
30.706914
0
LINE
8
0
10
133.929826
20
30.706914
11
134.255505
21
31.392514
0
LINE
8
0
10
134.255505
20
31.392514
11
134.370250
21
32.158800
0
LINE
8
0
10
134.370000
20
32.158800
11
134.171072
21
33.158880
0
LINE
8
0
10
134.171072
20
33.158880
11
133.604572
21
34.006710
0
LINE
8
0
10
133.605000
20
34.006700
11
132.757172
21
34.573200
0
LINE
8
0
10
132.757172
20
34.573200
11
131.757090
21
34.772128
0
LINE
8
0
10
273.133000
20
114.293000
11
272.366714
21
114.178255
0
LINE
8
0
10
272.366714
20
114.178255
11
271.681113
21
113.852575
0
LINE
8
0
10
271.681113
20
113.852575
11
271.117855
21
113.343795
0
LINE
8
0
10
271.117855
20
113.343795
11
270.718600
21
112.679750
0
LINE
8
0
10
270.718000
20
112.680000
11
270.530765
21
111.928130
0
LINE
8
0
10
270.530765
20
111.928130
11
270.569286
21
111.170084
0
LINE
8
0
10
270.569286
20
111.170084
11
270.823788
21
110.455001
0
LINE
8
0
10
270.823788
20
110.455001
11
271.284499
21
109.832020
0
LINE
8
0
10
271.285000
20
109.832000
11
271.907986
21
109.371289
0
LINE
8
0
10
271.907986
20
109.371289
11
272.623070
21
109.116787
0
LINE
8
0
10
272.623070
20
109.116787
11
273.381114
21
109.078265
0
LINE
8
0
10
273.381114
20
109.078265
11
274.132980
21
109.265499
0
LINE
8
0
10
274.133000
20
109.266000
11
274.797046
21
109.665257
0
LINE
8
0
10
274.797046
20
109.665257
11
275.305826
21
110.228516
0
LINE
8
0
10
275.305826
20
110.228516
11
275.631505
21
110.914119
0
LINE
8
0
10
275.631505
20
110.914119
11
275.746250
21
111.680410
0
LINE
8
0
10
275.746000
20
111.680000
11
275.547073
21
112.680079
0
LINE
8
0
10
275.547073
20
112.680079
11
274.980574
21
113.527910
0
LINE
8
0
10
274.981000
20
113.528000
11
274.133172
21
114.094498
0
LINE
8
0
10
274.133172
20
114.094498
11
273.133090
21
114.293426
0
LINE
8
0
10
63.549000
20
143.112000
11
62.860904
21
143.008963
0
LINE
8
0
10
62.860904
20
143.008963
11
62.245261
21
142.716514
0
LINE
8
0
10
62.245261
20
142.716514
11
61.739477
21
142.259649
0
LINE
8
0
10
61.739477
20
142.259649
11
61.380960
21
141.663360
0
LINE
8
0
10
61.380900
20
141.663000
11
61.212771
21
140.987852
0
LINE
8
0
10
61.212771
20
140.987852
11
61.247362
21
140.307159
0
LINE
8
0
10
61.247362
20
140.307159
11
61.475895
21
139.665044
0
LINE
8
0
10
61.475895
20
139.665044
11
61.889594
21
139.105630
0
LINE
8
0
10
61.889600
20
139.106000
11
62.449015
21
138.692301
0
LINE
8
0
10
62.449015
20
138.692301
11
63.091133
21
138.463768
0
LINE
8
0
10
63.091133
20
138.463768
11
63.771826
21
138.429178
0
LINE
8
0
10
63.771826
20
138.429178
11
64.446970
21
138.597309
0
LINE
8
0
10
64.447000
20
138.597000
11
65.043288
21
138.955516
0
LINE
8
0
10
65.043288
20
138.955516
11
65.500153
21
139.461299
0
LINE
8
0
10
65.500153
20
139.461299
11
65.792603
21
140.076943
0
LINE
8
0
10
65.792603
20
140.076943
11
65.895640
21
140.765040
0
LINE
8
0
10
65.895600
20
140.765000
11
65.716970
21
141.663031
0
LINE
8
0
10
65.716970
20
141.663031
11
65.208277
21
142.424340
0
LINE
8
0
10
65.208300
20
142.425000
11
64.446987
21
142.933694
0
LINE
8
0
10
64.446987
20
142.933694
11
63.548960
21
143.112323
0
LINE
8
0
10
222.662000
20
69.574500
11
221.973904
21
69.471463
0
LINE
8
0
10
221.973904
20
69.471463
11
221.358261
21
69.179016
0
LINE
8
0
10
221.358261
20
69.179016
11
220.852477
21
68.722150
0
LINE
8
0
10
220.852477
20
68.722150
11
220.493960
21
68.125860
0
LINE
8
0
10
220.493000
20
68.125800
11
220.324871
21
67.450652
0
LINE
8
0
10
220.324871
20
67.450652
11
220.359462
21
66.769959
0
LINE
8
0
10
220.359462
20
66.769959
11
220.587995
21
66.127844
0
LINE
8
0
10
220.587995
20
66.127844
11
221.001694
21
65.568430
0
LINE
8
0
10
221.002000
20
65.568500
11
221.561415
21
65.154801
0
LINE
8
0
10
221.561415
20
65.154801
11
222.203533
21
64.926268
0
LINE
8
0
10
222.203533
20
64.926268
11
222.884226
21
64.891677
0
LINE
8
0
10
222.884226
20
64.891677
11
223.559370
21
65.059806
0
LINE
8
0
10
223.560000
20
65.059800
11
224.156288
21
65.418317
0
LINE
8
0
10
224.156288
20
65.418317
11
224.613153
21
65.924100
0
LINE
8
0
10
224.613153
20
65.924100
11
224.905603
21
66.539743
0
LINE
8
0
10
224.905603
20
66.539743
11
225.008640
21
67.227840
0
LINE
8
0
10
225.008000
20
67.227800
11
224.829370
21
68.125831
0
LINE
8
0
10
224.829370
20
68.125831
11
224.320677
21
68.887140
0
LINE
8
0
10
224.321000
20
68.887200
11
223.559688
21
69.395894
0
LINE
8
0
10
223.559688
20
69.395894
11
222.661660
21
69.574523
0
LINE
8
0
10
115.533000
20
112.000000
11
114.844904
21
111.896963
0
LINE
8
0
10
114.844904
20
111.896963
11
114.229261
21
111.604514
0
LINE
8
0
10
114.229261
20
111.604514
11
113.723477
21
111.147649
0
LINE
8
0
10
113.723477
20
111.147649
11
113.364960
21
110.551360
0
LINE
8
0
10
113.365000
20
110.551000
11
113.196870
21
109.875852
0
LINE
8
0
10
113.196870
20
109.875852
11
113.231460
21
109.195159
0
LINE
8
0
10
113.231460
20
109.195159
11
113.459994
21
108.553044
0
LINE
8
0
10
113.459994
20
108.553044
11
113.873694
21
107.993630
0
LINE
8
0
10
113.873000
20
107.994000
11
114.432414
21
107.580301
0
LINE
8
0
10
114.432414
20
107.580301
11
115.074529
21
107.351768
0
LINE
8
0
10
115.074529
20
107.351768
11
115.755222
21
107.317177
0
LINE
8
0
10
115.755222
20
107.317177
11
116.430370
21
107.485306
0
LINE
8
0
10
116.431000
20
107.485000
11
117.027289
21
107.843517
0
LINE
8
0
10
117.027289
20
107.843517
11
117.484154
21
108.349300
0
LINE
8
0
10
117.484154
20
108.349300
11
117.776603
21
108.964943
0
LINE
8
0
10
117.776603
20
108.964943
11
117.879640
21
109.653040
0
LINE
8
0
10
117.879000
20
109.653000
11
117.700372
21
110.551031
0
LINE
8
0
10
117.700372
20
110.551031
11
117.191677
21
111.312340
0
LINE
8
0
10
117.192000
20
111.313000
11
116.430688
21
111.821694
0
LINE
8
0
10
116.430688
20
111.821694
11
115.532660
21
112.000323
0
LINE
8
0
10
176.801000
20
37.023100
11
175.800131
21
36.873228
0
LINE
8
0
10
175.800131
20
36.873228
11
174.904651
21
36.447849
0
LINE
8
0
10
174.904651
20
36.447849
11
174.168968
21
35.783318
0
LINE
8
0
10
174.168968
20
35.783318
11
173.647490
21
34.915990
0
LINE
8
0
10
173.647000
20
34.916000
11
173.402448
21
33.933969
0
LINE
8
0
10
173.402448
20
33.933969
11
173.452761
21
32.943867
0
LINE
8
0
10
173.452761
20
32.943867
11
173.785173
21
32.009878
0
LINE
8
0
10
173.785173
20
32.009878
11
174.386918
21
31.196180
0
LINE
8
0
10
174.387000
20
31.196200
11
175.200694
21
30.594454
0
LINE
8
0
10
175.200694
20
30.594454
11
176.134682
21
30.262042
0
LINE
8
0
10
176.134682
20
30.262042
11
177.124784
21
30.211729
0
LINE
8
0
10
177.124784
20
30.211729
11
178.106820
21
30.456282
0
LINE
8
0
10
178.107000
20
30.456200
11
178.974325
21
30.977678
0
LINE
8
0
10
178.974325
20
30.977678
11
179.638856
21
31.713361
0
LINE
8
0
10
179.638856
20
31.713361
11
180.064237
21
32.608841
0
LINE
8
0
10
180.064237
20
32.608841
11
180.214110
21
33.609710
0
LINE
8
0
10
180.214000
20
33.609800
11
179.954175
21
34.916027
0
LINE
8
0
10
179.954175
20
34.916027
11
179.214257
21
36.023390
0
LINE
8
0
10
179.215000
20
36.023300
11
178.107636
21
36.763218
0
LINE
8
0
10
178.107636
20
36.763218
11
176.801410
21
37.023043
0
LINE
8
0
10
205.407000
20
109.826000
11
204.718903
21
109.722963
0
LINE
8
0
10
204.718903
20
109.722963
11
204.103260
21
109.430514
0
LINE
8
0
10
204.103260
20
109.430514
11
203.597477
21
108.973649
0
LINE
8
0
10
203.597477
20
108.973649
11
203.238960
21
108.377360
0
LINE
8
0
10
203.239000
20
108.377000
11
203.070870
21
107.701852
0
LINE
8
0
10
203.070870
20
107.701852
11
203.105460
21
107.021159
0
LINE
8
0
10
203.105460
20
107.021159
11
203.333994
21
106.379044
0
LINE
8
0
10
203.333994
20
106.379044
11
203.747694
21
105.819630
0
LINE
8
0
10
203.748000
20
105.820000
11
204.307415
21
105.406300
0
LINE
8
0
10
204.307415
20
105.406300
11
204.949533
21
105.177766
0
LINE
8
0
10
204.949533
20
105.177766
11
205.630226
21
105.143176
0
LINE
8
0
10
205.630226
20
105.143176
11
206.305370
21
105.311306
0
LINE
8
0
10
206.305000
20
105.311000
11
206.901286
21
105.669517
0
LINE
8
0
10
206.901286
20
105.669517
11
207.358148
21
106.175300
0
LINE
8
0
10
207.358148
20
106.175300
11
207.650594
21
106.790943
0
LINE
8
0
10
207.650594
20
106.790943
11
207.753630
21
107.479040
0
LINE
8
0
10
207.754000
20
107.479000
11
207.575372
21
108.377031
0
LINE
8
0
10
207.575372
20
108.377031
11
207.066679
21
109.138340
0
LINE
8
0
10
207.067000
20
109.139000
11
206.305687
21
109.647694
0
LINE
8
0
10
206.305687
20
109.647694
11
205.407660
21
109.826323
0
LINE
8
0
10
186.912000
20
34.932100
11
186.223904
21
34.829063
0
LINE
8
0
10
186.223904
20
34.829063
11
185.608261
21
34.536614
0
LINE
8
0
10
185.608261
20
34.536614
11
185.102477
21
34.079749
0
LINE
8
0
10
185.102477
20
34.079749
11
184.743960
21
33.483460
0
LINE
8
0
10
184.744000
20
33.483500
11
184.575870
21
32.808352
0
LINE
8
0
10
184.575870
20
32.808352
11
184.610460
21
32.127659
0
LINE
8
0
10
184.610460
20
32.127659
11
184.838994
21
31.485544
0
LINE
8
0
10
184.838994
20
31.485544
11
185.252694
21
30.926130
0
LINE
8
0
10
185.253000
20
30.926100
11
185.812415
21
30.512400
0
LINE
8
0
10
185.812415
20
30.512400
11
186.454533
21
30.283866
0
LINE
8
0
10
186.454533
20
30.283866
11
187.135226
21
30.249276
0
LINE
8
0
10
187.135226
20
30.249276
11
187.810370
21
30.417406
0
LINE
8
0
10
187.810000
20
30.417400
11
188.406288
21
30.775917
0
LINE
8
0
10
188.406288
20
30.775917
11
188.863153
21
31.281700
0
LINE
8
0
10
188.863153
20
31.281700
11
189.155603
21
31.897343
0
LINE
8
0
10
189.155603
20
31.897343
11
189.258640
21
32.585440
0
LINE
8
0
10
189.259000
20
32.585400
11
189.080370
21
33.483431
0
LINE
8
0
10
189.080370
20
33.483431
11
188.571677
21
34.244740
0
LINE
8
0
10
188.572000
20
34.244800
11
187.810687
21
34.753494
0
LINE
8
0
10
187.810687
20
34.753494
11
186.912660
21
34.932123
0
LINE
8
0
10
115.400000
20
159.894000
11
114.711904
21
159.790963
0
LINE
8
0
10
114.711904
20
159.790963
11
114.096261
21
159.498514
0
LINE
8
0
10
114.096261
20
159.498514
11
113.590477
21
159.041649
0
LINE
8
0
10
113.590477
20
159.041649
11
113.231960
21
158.445360
0
LINE
8
0
10
113.232000
20
158.446000
11
113.063870
21
157.770852
0
LINE
8
0
10
113.063870
20
157.770852
11
113.098461
21
157.090159
0
LINE
8
0
10
113.098461
20
157.090159
11
113.326994
21
156.448044
0
LINE
8
0
10
113.326994
20
156.448044
11
113.740694
21
155.888630
0
LINE
8
0
10
113.741000
20
155.888000
11
114.300415
21
155.474300
0
LINE
8
0
10
114.300415
20
155.474300
11
114.942533
21
155.245767
0
LINE
8
0
10
114.942533
20
155.245767
11
115.623226
21
155.211176
0
LINE
8
0
10
115.623226
20
155.211176
11
116.298370
21
155.379306
0
LINE
8
0
10
116.298000
20
155.379000
11
116.894288
21
155.737517
0
LINE
8
0
10
116.894288
20
155.737517
11
117.351153
21
156.243300
0
LINE
8
0
10
117.351153
20
156.243300
11
117.643603
21
156.858943
0
LINE
8
0
10
117.643603
20
156.858943
11
117.746640
21
157.547040
0
LINE
8
0
10
117.747000
20
157.547000
11
117.568370
21
158.445030
0
LINE
8
0
10
117.568370
20
158.445030
11
117.059677
21
159.206340
0
LINE
8
0
10
117.060000
20
159.207000
11
116.298687
21
159.715694
0
LINE
8
0
10
116.298687
20
159.715694
11
115.400660
21
159.894323
0
LINE
8
0
10
45.629500
20
105.566000
11
44.941404
21
105.462963
0
LINE
8
0
10
44.941404
20
105.462963
11
44.325761
21
105.170514
0
LINE
8
0
10
44.325761
20
105.170514
11
43.819977
21
104.713649
0
LINE
8
0
10
43.819977
20
104.713649
11
43.461460
21
104.117360
0
LINE
8
0
10
43.461500
20
104.117000
11
43.293371
21
103.441852
0
LINE
8
0
10
43.293371
20
103.441852
11
43.327962
21
102.761159
0
LINE
8
0
10
43.327962
20
102.761159
11
43.556495
21
102.119044
0
LINE
8
0
10
43.556495
20
102.119044
11
43.970194
21
101.559630
0
LINE
8
0
10
43.970200
20
101.560000
11
44.529615
21
101.146300
0
LINE
8
0
10
44.529615
20
101.146300
11
45.171733
21
100.917766
0
LINE
8
0
10
45.171733
20
100.917766
11
45.852426
21
100.883176
0
LINE
8
0
10
45.852426
20
100.883176
11
46.527570
21
101.051306
0
LINE
8
0
10
46.527500
20
101.051000
11
47.123788
21
101.409517
0
LINE
8
0
10
47.123788
20
101.409517
11
47.580653
21
101.915300
0
LINE
8
0
10
47.580653
20
101.915300
11
47.873103
21
102.530943
0
LINE
8
0
10
47.873103
20
102.530943
11
47.976140
21
103.219040
0
LINE
8
0
10
47.976200
20
103.219000
11
47.797570
21
104.117031
0
LINE
8
0
10
47.797570
20
104.117031
11
47.288877
21
104.878340
0
LINE
8
0
10
47.288900
20
104.878000
11
46.527586
21
105.386694
0
LINE
8
0
10
46.527586
20
105.386694
11
45.629560
21
105.565323
0
LINE
8
0
10
204.136000
20
160.374000
11
203.447904
21
160.270963
0
LINE
8
0
10
203.447904
20
160.270963
11
202.832261
21
159.978514
0
LINE
8
0
10
202.832261
20
159.978514
11
202.326477
21
159.521649
0
LINE
8
0
10
202.326477
20
159.521649
11
201.967960
21
158.925360
0
LINE
8
0
10
201.968000
20
158.926000
11
201.799870
21
158.250852
0
LINE
8
0
10
201.799870
20
158.250852
11
201.834460
21
157.570159
0
LINE
8
0
10
201.834460
20
157.570159
11
202.062994
21
156.928044
0
LINE
8
0
10
202.062994
20
156.928044
11
202.476694
21
156.368630
0
LINE
8
0
10
202.477000
20
156.368000
11
203.036414
21
155.954300
0
LINE
8
0
10
203.036414
20
155.954300
11
203.678529
21
155.725767
0
LINE
8
0
10
203.678529
20
155.725767
11
204.359222
21
155.691176
0
LINE
8
0
10
204.359222
20
155.691176
11
205.034370
21
155.859306
0
LINE
8
0
10
205.034000
20
155.859000
11
205.630289
21
156.217517
0
LINE
8
0
10
205.630289
20
156.217517
11
206.087154
21
156.723300
0
LINE
8
0
10
206.087154
20
156.723300
11
206.379603
21
157.338943
0
LINE
8
0
10
206.379603
20
157.338943
11
206.482640
21
158.027040
0
LINE
8
0
10
206.483000
20
158.028000
11
206.304372
21
158.926031
0
LINE
8
0
10
206.304372
20
158.926031
11
205.795677
21
159.687340
0
LINE
8
0
10
205.796000
20
159.687000
11
205.034688
21
160.195694
0
LINE
8
0
10
205.034688
20
160.195694
11
204.136660
21
160.374323
0
LINE
8
0
10
256.087000
20
150.795000
11
255.398905
21
150.691963
0
LINE
8
0
10
255.398905
20
150.691963
11
254.783262
21
150.399514
0
LINE
8
0
10
254.783262
20
150.399514
11
254.277478
21
149.942649
0
LINE
8
0
10
254.277478
20
149.942649
11
253.918960
21
149.346360
0
LINE
8
0
10
253.919000
20
149.346000
11
253.750870
21
148.670852
0
LINE
8
0
10
253.750870
20
148.670852
11
253.785460
21
147.990159
0
LINE
8
0
10
253.785460
20
147.990159
11
254.013993
21
147.348044
0
LINE
8
0
10
254.013993
20
147.348044
11
254.427691
21
146.788630
0
LINE
8
0
10
254.428000
20
146.789000
11
254.987417
21
146.375301
0
LINE
8
0
10
254.987417
20
146.375301
11
255.629535
21
146.146768
0
LINE
8
0
10
255.629535
20
146.146768
11
256.310231
21
146.112177
0
LINE
8
0
10
256.310231
20
146.112177
11
256.985380
21
146.280306
0
LINE
8
0
10
256.985000
20
146.280000
11
257.581288
21
146.638517
0
LINE
8
0
10
257.581288
20
146.638517
11
258.038153
21
147.144300
0
LINE
8
0
10
258.038153
20
147.144300
11
258.330603
21
147.759943
0
LINE
8
0
10
258.330603
20
147.759943
11
258.433640
21
148.448040
0
LINE
8
0
10
258.434000
20
148.448000
11
258.249587
21
149.361430
0
LINE
8
0
10
258.249587
20
149.361430
11
257.746676
21
150.107346
0
LINE
8
0
10
257.746676
20
150.107346
11
257.000760
21
150.610257
0
LINE
8
0
10
257.000760
20
150.610257
11
256.087330
21
150.794670
0
LINE
8
0
10
97.916900
20
71.281100
11
97.228804
21
71.178064
0
LINE
8
0
10
97.228804
20
71.178064
11
96.613161
21
70.885617
0
LINE
8
0
10
96.613161
20
70.885617
11
96.107377
21
70.428754
0
LINE
8
0
10
96.107377
20
70.428754
11
95.748860
21
69.832470
0
LINE
8
0
10
95.748900
20
69.832500
11
95.580771
21
69.157352
0
LINE
8
0
10
95.580771
20
69.157352
11
95.615362
21
68.476659
0
LINE
8
0
10
95.615362
20
68.476659
11
95.843895
21
67.834544
0
LINE
8
0
10
95.843895
20
67.834544
11
96.257594
21
67.275130
0
LINE
8
0
10
96.257600
20
67.275100
11
96.817015
21
66.861400
0
LINE
8
0
10
96.817015
20
66.861400
11
97.459133
21
66.632866
0
LINE
8
0
10
97.459133
20
66.632866
11
98.139826
21
66.598276
0
LINE
8
0
10
98.139826
20
66.598276
11
98.814970
21
66.766406
0
LINE
8
0
10
98.814900
20
66.766400
11
99.411188
21
67.124917
0
LINE
8
0
10
99.411188
20
67.124917
11
99.868053
21
67.630700
0
LINE
8
0
10
99.868053
20
67.630700
11
100.160503
21
68.246343
0
LINE
8
0
10
100.160503
20
68.246343
11
100.263540
21
68.934440
0
LINE
8
0
10
100.264000
20
68.934500
11
100.085370
21
69.832530
0
LINE
8
0
10
100.085370
20
69.832530
11
99.576677
21
70.593840
0
LINE
8
0
10
99.576300
20
70.593800
11
98.814987
21
71.102493
0
LINE
8
0
10
98.814987
20
71.102493
11
97.916960
21
71.281121
0
LINE
8
0
10
131.757000
20
34.505400
11
131.068905
21
34.402363
0
LINE
8
0
10
131.068905
20
34.402363
11
130.453262
21
34.109915
0
LINE
8
0
10
130.453262
20
34.109915
11
129.947478
21
33.653049
0
LINE
8
0
10
129.947478
20
33.653049
11
129.588960
21
33.056760
0
LINE
8
0
10
129.589000
20
33.056800
11
129.420870
21
32.381651
0
LINE
8
0
10
129.420870
20
32.381651
11
129.455460
21
31.700957
0
LINE
8
0
10
129.455460
20
31.700957
11
129.683993
21
31.058839
0
LINE
8
0
10
129.683993
20
31.058839
11
130.097691
21
30.499420
0
LINE
8
0
10
130.097000
20
30.499400
11
130.656417
21
30.085702
0
LINE
8
0
10
130.656417
20
30.085702
11
131.298535
21
29.857169
0
LINE
8
0
10
131.298535
20
29.857169
11
131.979231
21
29.822579
0
LINE
8
0
10
131.979231
20
29.822579
11
132.654380
21
29.990709
0
LINE
8
0
10
132.655000
20
29.990700
11
133.251288
21
30.349216
0
LINE
8
0
10
133.251288
20
30.349216
11
133.708153
21
30.854999
0
LINE
8
0
10
133.708153
20
30.854999
11
134.000603
21
31.470643
0
LINE
8
0
10
134.000603
20
31.470643
11
134.103640
21
32.158740
0
LINE
8
0
10
134.103000
20
32.158800
11
133.924369
21
33.056832
0
LINE
8
0
10
133.924369
20
33.056832
11
133.415677
21
33.818150
0
LINE
8
0
10
133.416000
20
33.818100
11
132.654685
21
34.326793
0
LINE
8
0
10
132.654685
20
34.326793
11
131.756650
21
34.505423
0
LINE
8
0
10
273.133000
20
114.027000
11
272.444904
21
113.923963
0
LINE
8
0
10
272.444904
20
113.923963
11
271.829261
21
113.631515
0
LINE
8
0
10
271.829261
20
113.631515
11
271.323477
21
113.174649
0
LINE
8
0
10
271.323477
20
113.174649
11
270.964960
21
112.578360
0
LINE
8
0
10
270.965000
20
112.578000
11
270.796871
21
111.902852
0
LINE
8
0
10
270.796871
20
111.902852
11
270.831462
21
111.222159
0
LINE
8
0
10
270.831462
20
111.222159
11
271.059995
21
110.580044
0
LINE
8
0
10
271.059995
20
110.580044
11
271.473694
21
110.020630
0
LINE
8
0
10
271.473000
20
110.021000
11
272.032417
21
109.607301
0
LINE
8
0
10
272.032417
20
109.607301
11
272.674534
21
109.378768
0
LINE
8
0
10
272.674534
20
109.378768
11
273.355227
21
109.344177
0
LINE
8
0
10
273.355227
20
109.344177
11
274.030370
21
109.512306
0
LINE
8
0
10
274.031000
20
109.512000
11
274.627288
21
109.870517
0
LINE
8
0
10
274.627288
20
109.870517
11
275.084153
21
110.376300
0
LINE
8
0
10
275.084153
20
110.376300
11
275.376603
21
110.991943
0
LINE
8
0
10
275.376603
20
110.991943
11
275.479640
21
111.680040
0
LINE
8
0
10
275.479000
20
111.680000
11
275.300370
21
112.578031
0
LINE
8
0
10
275.300370
20
112.578031
11
274.791677
21
113.339340
0
LINE
8
0
10
274.792000
20
113.339000
11
274.030688
21
113.847694
0
LINE
8
0
10
274.030688
20
113.847694
11
273.132660
21
114.026323
0
LINE
8
0
10
121.960000
20
26.187500
11
198.220700
21
26.232636
0
LINE
8
0
10
120.939000
20
164.872000
11
119.677450
21
162.112480
0
LINE
8
0
10
244.723000
20
160.727000
11
231.060500
21
154.368070
0
LINE
8
0
10
243.459000
20
115.503000
11
249.822160
21
101.878700
0
LINE
8
0
10
102.168000
20
176.216000
11
101.547401
21
176.362816
0
LINE
8
0
10
101.547401
20
176.362816
11
100.750622
21
176.362498
0
LINE
8
0
10
100.750622
20
176.362498
11
99.882254
21
176.039698
0
LINE
8
0
10
99.882254
20
176.039698
11
99.046890
21
175.219065
0
LINE
8
0
10
199.347000
20
114.241000
11
185.684500
21
107.882060
0
LINE
8
0
10
279.027000
20
87.244100
11
265.365000
21
80.885100
0
LINE
8
0
10
222.462000
20
172.481000
11
238.280700
21
179.937000
0
LINE
8
0
10
69.607200
20
64.699500
11
69.565073
21
63.521003
0
LINE
8
0
10
69.565073
20
63.521003
11
69.986016
21
62.456455
0
LINE
8
0
10
69.986016
20
62.456455
11
70.766573
21
61.598052
0
LINE
8
0
10
70.766573
20
61.598052
11
71.803290
21
61.037990
0
LINE
8
0
10
170.774000
20
139.892000
11
184.407800
21
146.233270
0
LINE
8
0
10
25.483600
20
102.132000
11
31.862300
21
115.754000
0
LINE
8
0
10
155.222000
20
139.274000
11
164.683340
21
139.231331
0
LINE
8
0
10
106.230000
20
95.743100
11
99.883330
21
82.111100
0
LINE
8
0
10
197.974000
20
54.057800
11
208.613200
21
43.431500
0
LINE
8
0
10
101.174000
20
120.479000
11
114.795300
21
114.111000
0
LINE
8
0
10
135.697000
20
154.685000
11
119.678000
21
162.113000
0
LINE
8
0
10
299.097000
20
98.260800
11
283.089100
21
90.781960
0
LINE
8
0
10
152.534000
20
97.972400
11
152.534000
21
82.975100
0
LINE
8
0
10
233.302000
20
149.642000
11
246.935800
21
155.983270
0
LINE
8
0
10
205.174000
20
114.122000
11
218.807800
21
120.463280
0
LINE
8
0
10
241.645000
20
179.044000
11
246.569710
21
169.087180
0
LINE
8
0
10
122.113000
20
53.919100
11
132.734900
21
43.276400
0
LINE
8
0
10
78.059700
20
131.252000
11
71.713030
21
117.620000
0
LINE
8
0
10
272.245000
20
114.090000
11
265.910000
21
127.732000
0
LINE
8
0
10
280.789000
20
95.733100
11
274.454000
21
109.375000
0
LINE
8
0
10
264.056000
20
119.247000
11
270.419160
21
105.622700
0
LINE
8
0
10
64.438300
20
137.620000
11
78.059600
21
131.252000
0
LINE
8
0
10
117.121000
20
71.124400
11
103.467700
21
77.503070
0
LINE
8
0
10
119.966000
20
168.001000
11
120.442227
21
167.576844
0
LINE
8
0
10
120.442227
20
167.576844
11
120.898981
21
166.923979
0
LINE
8
0
10
120.898981
20
166.923979
11
121.132633
21
166.027504
0
LINE
8
0
10
121.132633
20
166.027504
11
120.939556
21
164.872520
0
LINE
8
0
10
87.243700
20
138.644000
11
93.622300
21
152.266000
0
LINE
8
0
10
126.977000
20
127.860000
11
140.598300
21
121.492000
0
LINE
8
0
10
241.878000
20
131.263000
11
255.511800
21
137.604270
0
LINE
8
0
10
234.915000
20
133.860000
11
241.278160
21
120.235700
0
LINE
8
0
10
70.113000
20
101.908000
11
76.491670
21
115.529300
0
LINE
8
0
10
99.046500
20
175.219000
11
97.661480
21
172.491210
0
LINE
8
0
10
194.261000
20
89.503800
11
187.926000
21
103.146000
0
LINE
8
0
10
75.201000
20
77.161800
11
61.547700
21
83.540470
0
LINE
8
0
10
183.336000
20
154.237000
11
182.653007
21
153.560800
0
LINE
8
0
10
182.653007
20
153.560800
11
182.218228
21
152.712662
0
LINE
8
0
10
182.218228
20
152.712662
11
182.069472
21
151.774823
0
LINE
8
0
10
182.069472
20
151.774823
11
182.244550
21
150.829520
0
LINE
8
0
10
265.910000
20
127.732000
11
279.543800
21
134.073270
0
LINE
8
0
10
263.669000
20
132.469000
11
257.334000
21
146.111000
0
LINE
8
0
10
167.532000
20
82.975100
11
152.534000
21
82.975100
0
LINE
8
0
10
47.702300
20
114.122000
11
34.049000
21
120.500670
0
LINE
8
0
10
69.607200
20
64.699500
11
73.001300
21
72.183010
0
LINE
8
0
10
94.425900
20
55.884300
11
103.072980
21
68.191100
0
LINE
8
0
10
238.125000
20
78.916400
11
244.488160
21
65.292100
0
LINE
8
0
10
58.059600
20
123.999000
11
64.438270
21
137.620300
0
LINE
8
0
10
132.033000
20
103.124000
11
125.686000
21
89.492400
0
LINE
8
0
10
129.174000
20
132.607000
11
135.552670
21
146.228300
0
LINE
8
0
10
229.825000
20
109.162000
11
243.459000
21
115.503000
0
LINE
8
0
10
137.921000
20
150.781000
11
153.231500
21
143.661640
0
LINE
8
0
10
188.524000
20
76.233800
11
198.196000
21
64.720600
0
LINE
8
0
10
125.686000
20
89.492400
11
112.032700
21
95.871070
0
LINE
8
0
10
246.570000
20
169.087000
11
262.488800
21
176.456010
0
LINE
8
0
10
55.207400
20
74.799200
11
56.330652
21
74.654209
0
LINE
8
0
10
56.330652
20
74.654209
11
57.262700
21
74.925269
0
LINE
8
0
10
57.262700
20
74.925269
11
57.972613
21
75.463029
0
LINE
8
0
10
57.972613
20
75.463029
11
58.429460
21
76.118140
0
LINE
8
0
10
142.828000
20
126.228000
11
129.174700
21
132.606670
0
LINE
8
0
10
54.049000
20
127.754000
11
47.702330
21
114.122000
0
LINE
8
0
10
227.352000
20
102.106000
11
233.715160
21
88.481700
0
LINE
8
0
10
121.960000
20
26.187500
11
121.255215
21
26.351021
0
LINE
8
0
10
121.255215
20
26.351021
11
120.625036
21
26.650951
0
LINE
8
0
10
120.625036
20
26.650951
11
119.524146
21
27.537590
0
LINE
8
0
10
119.524146
20
27.537590
11
118.528633
21
28.602535
0
LINE
8
0
10
118.528633
20
28.602535
11
117.509800
21
29.600900
0
LINE
8
0
10
92.609000
20
102.111000
11
106.230300
21
95.743000
0
LINE
8
0
10
123.361000
20
132.479000
11
117.014330
21
118.847000
0
LINE
8
0
10
103.073000
20
68.191100
11
115.381600
21
59.554520
0
LINE
8
0
10
117.510000
20
29.600900
11
106.061500
21
41.059000
0
LINE
8
0
10
152.534000
20
97.972400
11
167.532000
21
97.972400
0
LINE
8
0
10
261.875000
20
123.980000
11
248.213000
21
117.621000
0
LINE
8
0
10
81.337300
20
180.038000
11
97.661500
21
172.491730
0
LINE
8
0
10
204.657000
20
59.664000
11
216.982500
21
68.276420
0
LINE
8
0
10
118.316000
20
157.215000
11
131.937300
21
150.847000
0
LINE
8
0
10
208.019000
20
143.585000
11
194.356500
21
137.226060
0
LINE
8
0
10
51.201000
20
157.215000
11
57.579670
21
170.836300
0
LINE
8
0
10
134.252000
20
107.860000
11
120.598700
21
114.238670
0
LINE
8
0
10
73.491900
20
169.101000
11
57.640200
21
176.396000
0
LINE
8
0
10
277.331000
20
138.828000
11
263.668500
21
132.469070
0
LINE
8
0
10
244.682000
20
77.173100
11
238.348000
21
90.815100
0
LINE
8
0
10
239.637000
20
136.000000
11
233.302000
21
149.642000
0
LINE
8
0
10
225.615000
20
55.964000
11
213.264200
21
47.329200
0
LINE
8
0
10
258.345000
20
83.532100
11
244.682500
21
77.173170
0
LINE
8
0
10
75.190300
20
160.746000
11
81.568970
21
174.367300
0
LINE
8
0
10
265.640000
20
75.403500
11
264.435674
21
75.269155
0
LINE
8
0
10
264.435674
20
75.269155
11
263.351823
21
75.579067
0
LINE
8
0
10
263.351823
20
75.579067
11
262.447810
21
76.275284
0
LINE
8
0
10
262.447810
20
76.275284
11
261.783000
21
77.299850
0
LINE
8
0
10
216.595000
20
125.217000
11
202.932500
21
118.858070
0
LINE
8
0
10
71.201000
20
164.468000
11
64.854340
21
150.836000
0
LINE
8
0
10
103.468000
20
77.503100
11
109.846670
21
91.124400
0
LINE
8
0
10
248.758000
20
164.479000
11
262.391800
21
170.820270
0
LINE
8
0
10
120.598000
20
114.239000
11
126.976670
21
127.860300
0
LINE
8
0
10
106.061000
20
41.059000
11
89.438900
21
52.726300
0
LINE
8
0
10
54.582300
20
80.895100
11
40.929000
21
87.273770
0
LINE
8
0
10
261.783000
20
77.299800
11
261.095995
21
78.763450
0
LINE
8
0
10
192.984000
20
127.866000
11
199.347160
21
114.241700
0
LINE
8
0
10
169.612000
20
82.697800
11
169.612000
21
100.842000
0
LINE
8
0
10
155.222000
20
143.658000
11
155.222000
21
139.274000
0
LINE
8
0
10
216.467000
20
77.505400
11
202.804500
21
71.146470
0
LINE
8
0
10
114.796000
20
114.111000
11
108.449330
21
100.479000
0
LINE
8
0
10
55.873000
20
119.252000
11
69.494300
21
112.884000
0
LINE
8
0
10
81.337300
20
180.038000
11
80.716701
21
180.184818
0
LINE
8
0
10
80.716701
20
180.184818
11
79.919922
21
180.184501
0
LINE
8
0
10
79.919922
20
180.184501
11
79.051554
21
179.861700
0
LINE
8
0
10
79.051554
20
179.861700
11
78.216190
21
179.041068
0
LINE
8
0
10
270.419000
20
105.623000
11
256.756500
21
99.264070
0
LINE
8
0
10
207.923000
20
95.862700
11
194.260500
21
89.503770
0
LINE
8
0
10
288.088000
20
115.716000
11
294.451150
21
102.091700
0
LINE
8
0
10
174.316000
20
95.177800
11
146.070000
21
95.209800
0
LINE
8
0
10
92.331700
20
113.898000
11
78.678400
21
120.276670
0
LINE
8
0
10
111.460000
20
43.300900
11
122.112800
21
53.919100
0
LINE
8
0
10
256.757000
20
99.263800
11
250.422000
21
112.906000
0
LINE
8
0
10
208.614000
20
43.431400
11
197.950300
21
32.783100
0
LINE
8
0
10
230.826000
20
58.933100
11
224.492000
21
72.575100
0
LINE
8
0
10
196.470000
20
84.788400
11
210.103800
21
91.129680
0
LINE
8
0
10
149.174000
20
139.860000
11
142.827330
21
126.228000
0
LINE
8
0
10
164.684000
20
143.615000
11
166.673540
21
143.593495
0
LINE
8
0
10
40.929000
20
87.273800
11
47.307670
21
100.895100
0
LINE
8
0
10
225.171000
20
106.839000
11
211.508500
21
100.480070
0
LINE
8
0
10
81.547700
20
90.793800
11
75.201030
21
77.161800
0
LINE
8
0
10
119.966000
20
168.001000
11
102.168000
21
176.216000
0
LINE
8
0
10
253.299000
20
142.359000
11
239.636500
21
136.000060
0
LINE
8
0
10
249.064000
20
61.426100
11
249.937178
21
62.230556
0
LINE
8
0
10
249.937178
20
62.230556
11
250.400248
21
63.290762
0
LINE
8
0
10
250.400248
20
63.290762
11
250.441477
21
64.456085
0
LINE
8
0
10
250.441477
20
64.456085
11
250.049133
21
65.575890
0
LINE
8
0
10
294.451000
20
102.092000
11
280.788500
21
95.733060
0
LINE
8
0
10
146.070000
20
77.449800
11
174.305000
21
77.449800
0
LINE
8
0
10
214.610000
20
41.524400
11
202.670700
21
29.646000
0
LINE
8
0
10
283.486000
20
83.510200
11
284.363044
21
84.346413
0
LINE
8
0
10
284.363044
20
84.346413
11
284.822319
21
85.375899
0
LINE
8
0
10
284.822319
20
85.375899
11
284.870066
21
86.515930
0
LINE
8
0
10
284.870066
20
86.515930
11
284.512530
21
87.683780
0
LINE
8
0
10
100.897000
20
132.266000
11
87.243700
21
138.644000
0
LINE
8
0
10
186.645000
20
55.042200
11
176.996000
21
66.579900
0
LINE
8
0
10
88.843700
20
154.367000
11
75.190400
21
160.745670
0
LINE
8
0
10
150.945000
20
100.842000
11
169.612000
21
100.842000
0
LINE
8
0
10
56.278300
20
132.468000
11
42.625000
21
138.847000
0
LINE
8
0
10
197.950000
20
32.783100
11
187.331800
21
43.435900
0
LINE
8
0
10
137.921000
20
150.781000
11
138.038693
21
151.407508
0
LINE
8
0
10
138.038693
20
151.407508
11
138.008317
21
152.015453
0
LINE
8
0
10
138.008317
20
152.015453
11
137.573345
21
153.133631
0
LINE
8
0
10
137.573345
20
153.133631
11
136.756062
21
154.051486
0
LINE
8
0
10
136.756062
20
154.051486
11
135.696450
21
154.684970
0
LINE
8
0
10
102.198000
20
170.634000
11
115.819300
21
164.266000
0
LINE
8
0
10
115.819300
20
164.266000
11
109.472640
21
150.634000
0
LINE
8
0
10
109.740000
20
138.847000
11
123.361300
21
132.479000
0
LINE
8
0
10
212.705000
20
145.898000
11
226.339000
21
152.239000
0
LINE
8
0
10
196.598000
20
132.500000
11
210.232000
21
138.842000
0
LINE
8
0
10
251.981000
20
97.156400
11
258.344160
21
83.532100
0
LINE
8
0
10
42.625000
20
138.847000
11
49.003600
21
152.468000
0
LINE
8
0
10
131.937000
20
150.847000
11
125.590330
21
137.215000
0
LINE
8
0
10
226.339000
20
152.239000
11
232.702160
21
138.614700
0
LINE
8
0
10
187.926000
20
103.146000
11
201.559800
21
109.487270
0
LINE
8
0
10
224.126000
20
156.983000
11
210.463000
21
150.624000
0
LINE
8
0
10
57.579600
20
170.836000
11
71.200900
21
164.468000
0
LINE
8
0
10
45.483600
20
109.386000
11
39.136930
21
95.754000
0
LINE
8
0
10
265.365000
20
80.885100
11
259.030000
21
94.527100
0
LINE
8
0
10
177.109000
20
126.250000
11
170.774000
21
139.892000
0
LINE
8
0
10
80.278300
20
135.999000
11
66.625000
21
142.378000
0
LINE
8
0
10
265.854000
20
175.564000
11
265.195645
21
176.444631
0
LINE
8
0
10
265.195645
20
176.444631
11
264.421679
21
176.821172
0
LINE
8
0
10
264.421679
20
176.821172
11
263.522638
21
176.792317
0
LINE
8
0
10
263.522638
20
176.792317
11
262.489060
21
176.456764
0
LINE
8
0
10
241.645000
20
179.044000
11
240.986645
21
179.924630
0
LINE
8
0
10
240.986645
20
179.924630
11
240.212679
21
180.301168
0
LINE
8
0
10
240.212679
20
180.301168
11
239.313638
21
180.272312
0
LINE
8
0
10
239.313638
20
180.272312
11
238.280060
21
179.936761
0
LINE
8
0
10
93.622300
20
152.266000
11
107.243600
21
145.898000
0
LINE
8
0
10
233.715000
20
88.481400
11
220.052500
21
82.122470
0
LINE
8
0
10
232.702000
20
138.615000
11
219.039500
21
132.256070
0
LINE
8
0
10
98.678300
20
127.530000
11
92.331630
21
113.898000
0
LINE
8
0
10
244.489000
20
65.292100
11
230.826000
21
58.933100
0
LINE
8
0
10
78.678300
20
120.276000
11
85.056970
21
133.897300
0
LINE
8
0
10
135.553000
20
146.228000
11
149.174300
21
139.860000
0
LINE
8
0
10
194.357000
20
137.226000
11
188.022000
21
150.868000
0
LINE
8
0
10
227.615000
20
113.877000
11
221.281000
21
127.519000
0
LINE
8
0
10
19.916100
20
102.017000
11
19.734362
21
101.363451
0
LINE
8
0
10
19.734362
20
101.363451
11
19.716479
21
100.717106
0
LINE
8
0
10
19.716479
20
100.717106
11
20.099395
21
99.504572
0
LINE
8
0
10
20.099395
20
99.504572
11
20.919091
21
98.496493
0
LINE
8
0
10
20.919091
20
98.496493
11
22.029810
21
97.809960
0
LINE
8
0
10
36.985600
20
90.804500
11
22.029900
21
97.809800
0
LINE
8
0
10
117.014000
20
118.847000
11
103.360700
21
125.225670
0
LINE
8
0
10
95.414300
20
72.564400
11
89.067630
21
58.932400
0
LINE
8
0
10
67.926300
20
97.161800
11
81.547600
21
90.793800
0
LINE
8
0
10
86.230300
20
88.489800
11
92.608970
21
102.111100
0
LINE
8
0
10
219.039000
20
132.256000
11
212.705000
21
145.898000
0
LINE
8
0
10
133.403000
20
54.893700
11
121.866000
21
64.588800
0
LINE
8
0
10
224.492000
20
72.575100
11
238.125800
21
78.916380
0
LINE
8
0
10
198.430000
20
164.193000
11
199.656660
21
161.686340
0
LINE
8
0
10
218.808000
20
120.463000
11
225.171160
21
106.838700
0
LINE
8
0
10
183.336000
20
154.237000
11
199.655800
21
161.686360
0
LINE
8
0
10
201.560000
20
109.487000
11
207.923160
21
95.862700
0
LINE
8
0
10
64.854300
20
150.836000
11
51.201000
21
157.214670
0
LINE
8
0
10
145.505000
20
103.092000
11
145.505000
21
73.929800
0
LINE
8
0
10
210.232000
20
138.842000
11
216.595160
21
125.217700
0
LINE
8
0
10
108.449000
20
100.479000
11
94.795700
21
106.857670
0
LINE
8
0
10
190.771000
20
132.609000
11
177.108500
21
126.250070
0
LINE
8
0
10
103.361000
20
125.226000
11
109.739670
21
138.847300
0
LINE
8
0
10
89.438900
20
52.726300
11
71.803300
21
61.038000
0
LINE
8
0
10
262.392000
20
170.820000
11
268.755160
21
157.195700
0
LINE
8
0
10
199.565000
20
167.684000
11
198.657914
21
167.093484
0
LINE
8
0
10
198.657914
20
167.093484
11
198.183247
21
166.268949
0
LINE
8
0
10
198.183247
20
166.268949
11
198.115528
21
165.279066
0
LINE
8
0
10
198.115528
20
165.279066
11
198.429280
21
164.192510
0
LINE
8
0
10
283.089000
20
90.781900
11
284.512020
21
87.683700
0
LINE
8
0
10
125.590000
20
137.215000
11
111.936700
21
143.593670
0
LINE
8
0
10
255.093000
20
150.837000
11
248.758000
21
164.479000
0
LINE
8
0
10
59.496200
20
78.411500
11
58.429530
21
76.118160
0
LINE
8
0
10
73.003600
20
155.999000
11
86.624900
21
149.631000
0
LINE
8
0
10
213.264000
20
47.329200
11
204.657000
21
59.664000
0
LINE
8
0
10
272.664000
20
100.868000
11
279.027160
21
87.243700
0
LINE
8
0
10
249.064000
20
61.426100
11
231.112900
21
53.003550
0
LINE
8
0
10
210.463000
20
150.624000
11
204.129000
21
164.266000
0
LINE
8
0
10
121.866000
20
64.588800
11
131.552780
21
76.095100
0
LINE
8
0
10
179.350000
20
121.524000
11
192.983800
21
127.865270
0
LINE
8
0
10
217.763000
20
170.607000
11
224.126160
21
156.982700
0
LINE
8
0
10
69.494300
20
112.884000
11
63.147600
21
99.252400
0
LINE
8
0
10
299.097000
20
98.260800
11
299.987187
21
99.049765
0
LINE
8
0
10
299.987187
20
99.049765
11
300.433064
21
99.999341
0
LINE
8
0
10
300.433064
20
99.999341
11
300.492066
21
100.978659
0
LINE
8
0
10
300.492066
20
100.978659
11
300.221630
21
101.856850
0
LINE
8
0
10
285.907000
20
120.449000
11
272.244500
21
114.090070
0
LINE
8
0
10
118.412000
20
109.492000
11
132.033300
21
103.124000
0
LINE
8
0
10
55.207400
20
74.799200
11
35.965500
21
83.542200
0
LINE
8
0
10
73.491900
20
169.101000
11
78.216130
21
179.041080
0
LINE
8
0
10
248.213000
20
117.621000
11
241.878000
21
131.263000
0
LINE
8
0
10
95.819700
20
157.012000
11
102.198370
21
170.633300
0
LINE
8
0
10
164.684000
20
143.615000
11
164.684000
21
139.231000
0
LINE
8
0
10
75.414300
20
65.311100
11
81.792970
21
78.932400
0
LINE
8
0
10
34.968600
20
86.663300
11
36.985650
21
90.804580
0
LINE
8
0
10
268.755000
20
157.196000
11
255.092500
21
150.837070
0
LINE
8
0
10
153.232000
20
143.662000
11
155.222710
21
143.658162
0
LINE
8
0
10
167.532000
20
97.972400
11
167.532000
21
82.975100
0
LINE
8
0
10
109.473000
20
150.634000
11
95.819700
21
157.012670
0
LINE
8
0
10
283.486000
20
83.510200
11
265.640700
21
75.403530
0
LINE
8
0
10
221.445000
20
174.676000
11
222.461070
21
172.480450
0
LINE
8
0
10
199.565000
20
167.684000
11
218.173300
21
176.341850
0
LINE
8
0
10
86.625000
20
149.631000
11
80.278330
21
135.999000
0
LINE
8
0
10
231.061000
20
154.368000
11
224.726000
21
168.010000
0
LINE
8
0
10
63.147600
20
99.252400
11
49.494300
21
105.631000
0
LINE
8
0
10
166.673000
20
143.594000
11
182.244700
21
150.829730
0
LINE
8
0
10
115.382000
20
59.554500
11
106.764580
21
47.231700
0
LINE
8
0
10
220.053000
20
82.122500
11
213.718000
21
95.764400
0
LINE
8
0
10
89.067700
20
58.932400
11
75.414400
21
65.311070
0
LINE
8
0
10
198.196000
20
64.720600
11
186.644800
21
55.042210
0
LINE
8
0
10
238.360000
20
174.351000
11
244.723160
21
160.726700
0
LINE
8
0
10
131.553000
20
76.095100
11
143.062000
21
66.418620
0
LINE
8
0
10
39.137000
20
95.753800
11
25.483600
21
102.132000
0
LINE
8
0
10
57.640200
20
176.396000
11
57.007115
21
176.542246
0
LINE
8
0
10
57.007115
20
176.542246
11
56.386495
21
176.542268
0
LINE
8
0
10
56.386495
20
176.542268
11
55.243484
21
176.193277
0
LINE
8
0
10
55.243484
20
176.193277
11
54.332828
21
175.528292
0
LINE
8
0
10
54.332828
20
175.528292
11
53.776190
21
174.726580
0
LINE
8
0
10
174.764000
20
103.092000
11
145.505000
21
103.092000
0
LINE
8
0
10
95.190300
20
167.999000
11
88.843630
21
154.367000
0
LINE
8
0
10
112.033000
20
95.871100
11
118.412000
21
109.492000
0
LINE
8
0
10
83.766300
20
95.529800
11
70.113000
21
101.908470
0
LINE
8
0
10
31.862300
20
115.754000
11
45.483600
21
109.386000
0
LINE
8
0
10
198.221000
20
26.232600
11
198.925788
21
26.396121
0
LINE
8
0
10
198.925788
20
26.396121
11
199.555968
21
26.696051
0
LINE
8
0
10
199.555968
20
26.696051
11
200.656858
21
27.582690
0
LINE
8
0
10
200.656858
20
27.582690
11
201.652368
21
28.647635
0
LINE
8
0
10
201.652368
20
28.647635
11
202.671200
21
29.646000
0
LINE
8
0
10
185.685000
20
107.882000
11
179.350000
21
121.524000
0
LINE
8
0
10
213.718000
20
95.764400
11
227.351800
21
102.105680
0
LINE
8
0
10
216.982000
20
68.276400
11
225.614330
21
55.964000
0
LINE
8
0
10
224.726000
20
168.010000
11
238.359800
21
174.351270
0
LINE
8
0
10
274.454000
20
109.375000
11
288.087800
21
115.716270
0
LINE
8
0
10
250.422000
20
112.906000
11
264.055800
21
119.247270
0
LINE
8
0
10
221.281000
20
127.519000
11
234.914800
21
133.860280
0
LINE
8
0
10
122.109000
20
32.637100
11
111.460700
21
43.300800
0
LINE
8
0
10
60.929000
20
94.527100
11
54.582330
21
80.895100
0
LINE
8
0
10
90.113000
20
109.162000
11
83.766330
21
95.530000
0
LINE
8
0
10
34.968600
20
86.663300
11
34.821784
21
86.042701
0
LINE
8
0
10
34.821784
20
86.042701
11
34.822101
21
85.245922
0
LINE
8
0
10
34.822101
20
85.245922
11
35.144901
21
84.377554
0
LINE
8
0
10
35.144901
20
84.377554
11
35.965535
21
83.542190
0
LINE
8
0
10
47.307600
20
100.895000
11
60.928900
21
94.527000
0
LINE
8
0
10
202.805000
20
71.146500
11
196.470000
21
84.788400
0
LINE
8
0
10
169.612000
20
82.697800
11
150.945000
21
82.697800
0
LINE
8
0
10
106.764000
20
47.231700
11
94.425700
21
55.884340
0
LINE
8
0
10
109.846000
20
91.124400
11
123.467300
21
84.756400
0
LINE
8
0
10
49.003600
20
152.468000
11
62.624900
21
146.100000
0
LINE
8
0
10
61.547600
20
83.540400
11
67.926270
21
97.161700
0
LINE
8
0
10
270.968000
20
152.452000
11
277.331160
21
138.827700
0
LINE
8
0
10
132.735000
20
43.276400
11
122.108700
21
32.637200
0
LINE
8
0
10
187.332000
20
43.435900
11
197.974700
21
54.057800
0
LINE
8
0
10
231.113000
20
53.003500
11
214.610000
21
41.524400
0
LINE
8
0
10
201.656000
20
157.210000
11
208.019160
21
143.585700
0
LINE
8
0
10
265.854000
20
175.564000
11
300.222000
21
101.857300
0
LINE
8
0
10
146.070000
20
95.209800
11
146.070000
21
77.449800
0
LINE
8
0
10
81.793000
20
78.932400
11
95.414300
21
72.564400
0
LINE
8
0
10
150.945000
20
82.697800
11
150.945000
21
100.842000
0
LINE
8
0
10
140.598000
20
121.492000
11
134.251330
21
107.860000
0
LINE
8
0
10
145.505000
20
73.929800
11
174.774000
21
73.929800
0
LINE
8
0
10
261.096000
20
78.763500
11
247.080100
21
72.174220
0
LINE
8
0
10
19.916100
20
102.017000
11
53.776200
21
174.726000
0
LINE
8
0
10
257.334000
20
146.111000
11
270.967800
21
152.452280
0
LINE
8
0
10
210.104000
20
91.129700
11
216.467000
21
77.505400
0
LINE
8
0
10
176.996000
20
66.579900
11
188.524000
21
76.233790
0
LINE
8
0
10
174.774000
20
73.929800
11
174.763332
21
103.092500
0
LINE
8
0
10
184.408000
20
146.234000
11
190.771160
21
132.609700
0
LINE
8
0
10
218.174000
20
176.342000
11
219.232968
21
176.565851
0
LINE
8
0
10
219.232968
20
176.565851
11
220.151644
21
176.318456
0
LINE
8
0
10
220.151644
20
176.318456
11
220.899483
21
175.666388
0
LINE
8
0
10
220.899483
20
175.666388
11
221.445940
21
174.676220
0
LINE
8
0
10
255.512000
20
137.604000
11
261.875160
21
123.979700
0
LINE
8
0
10
34.049000
20
120.500000
11
40.427670
21
134.121300
0
LINE
8
0
10
123.468000
20
84.756400
11
117.121330
21
71.124400
0
LINE
8
0
10
241.278000
20
120.236000
11
227.615500
21
113.877070
0
LINE
8
0
10
111.937000
20
143.594000
11
118.315670
21
157.215300
0
LINE
8
0
10
99.883700
20
82.111100
11
86.230400
21
88.489770
0
LINE
8
0
10
211.509000
20
100.480000
11
205.174000
21
114.122000
0
LINE
8
0
10
40.427600
20
134.122000
11
54.048900
21
127.754000
0
LINE
8
0
10
107.244000
20
145.898000
11
100.897330
21
132.266000
0
LINE
8
0
10
85.057000
20
133.898000
11
98.678300
21
127.530000
0
LINE
8
0
10
204.129000
20
164.266000
11
217.762800
21
170.607280
0
LINE
8
0
10
73.001300
20
72.183000
11
59.496200
21
78.411500
0
LINE
8
0
10
94.795700
20
106.858000
11
101.174370
21
120.479300
0
LINE
8
0
10
62.625000
20
146.100000
11
56.278300
21
132.468000
0
LINE
8
0
10
66.625000
20
142.378000
11
73.003670
21
155.999300
0
LINE
8
0
10
202.933000
20
118.858000
11
196.598000
21
132.500000
0
LINE
8
0
10
246.936000
20
155.983000
11
253.299160
21
142.358700
0
LINE
8
0
10
71.713000
20
117.620000
11
58.059700
21
123.998670
0
LINE
8
0
10
247.080000
20
72.174200
11
250.048440
21
65.575870
0
LINE
8
0
10
279.544000
20
134.074000
11
285.907170
21
120.449700
0
LINE
8
0
10
259.030000
20
94.527100
11
272.663800
21
100.868380
0
LINE
8
0
10
188.022000
20
150.868000
11
201.655800
21
157.209270
0
LINE
8
0
10
49.494300
20
105.631000
11
55.872970
21
119.252300
0
LINE
8
0
10
174.305000
20
77.449800
11
174.315668
21
95.177800
0
LINE
8
0
10
81.569000
20
174.367000
11
95.190300
21
167.999000
0
LINE
8
0
10
76.491700
20
115.530000
11
90.113000
21
109.162000
0
LINE
8
0
10
238.348000
20
90.815100
11
251.981800
21
97.156370
0
LINE
8
0
10
249.822000
20
101.879000
11
236.159500
21
95.520070
0
LINE
8
0
10
236.159500
20
95.520070
11
229.825080
21
109.162070
0
LINE
8
0
10
143.062000
20
66.418600
11
133.403370
21
54.893700
 0 
ENDSEC
 0 
EOF