<?xml version="1.0" standalone="no"?>
 <!DOCTYPE svg PUBLIC "-//W3C//DTD SVG 1.1//EN" 
 "http://www.w3.org/Graphics/SVG/1.1/DTD/svg11.dtd"> 
<svg
  xmlns:svg="http://www.w3.org/2000/svg"
  xmlns="http://www.w3.org/2000/svg"
  xmlns:xlink="http://www.w3.org/1999/xlink"
  version="1.1"
  width="252.7046mm" height="112.5728mm" viewBox="0.0000 0.0000 252.7046 112.5728">
<title>SVG Image created as 5col-ffkb-switchplate-template-brd.svg date 2024/04/08 14:15:22 </title>
  <desc>Image generated by PCBNEW </desc>
<g style="fill:#000000; fill-opacity:1.0000;stroke:#000000; stroke-opacity:1.0000;
stroke-linecap:round; stroke-linejoin:round;"
 transform="translate(0 0) scale(1 1)">
</g>
<g style="fill:#000000; fill-opacity:0.0; 
stroke:#000000; stroke-width:0.0000; stroke-opacity:1; 
stroke-linecap:round; stroke-linejoin:round;">
</g>
<g style="fill:#000000; fill-opacity:0.0; 
stroke:#000000; stroke-width:0.2500; stroke-opacity:1; 
stroke-linecap:round; stroke-linejoin:round;">
<circle cx="138.4017" cy="25.5539" r="1.1000" /> 
<circle cx="114.0877" cy="25.5520" r="1.1000" /> 
<circle cx="99.1927" cy="80.6000" r="1.1000" /> 
<circle cx="153.3005" cy="80.6023" r="1.1000" /> 
<circle cx="139.1140" cy="108.7883" r="1.1000" /> 
<circle cx="113.3793" cy="108.7880" r="1.1000" /> 
<path d="M146.0677 75.4420
L146.0477 71.4320
" />
<path d="M124.2777 93.4320
L128.2877 93.4020
" />
<path d="M106.2577 71.7020
L106.2577 75.3420
" />
<circle cx="79.2171" cy="77.0118" r="1.1000" /> 
<circle cx="164.7377" cy="39.0023" r="1.1000" /> 
<circle cx="126.3436" cy="108.7762" r="1.1000" /> 
<circle cx="173.2574" cy="77.0625" r="1.1000" /> 
<circle cx="246.6773" cy="69.8723" r="1.1000" /> 
<circle cx="218.4072" cy="18.8021" r="1.1000" /> 
<circle cx="87.4773" cy="39.6120" r="1.1000" /> 
<circle cx="34.2579" cy="18.5818" r="1.1000" /> 
<circle cx="5.8377" cy="69.9320" r="1.1000" /> 
<path d="M135.7577 22.6020
L139.1148 22.6025
" />
<path d="M146.9662,111.5946 C146.1716,112.1510 145.2250,112.4494 144.2550,112.4493" />
<path d="M59.1670,1.0272 C59.6931,0.7199 60.3202,0.6356 60.9087,0.7933" />
<path d="M213.9586 2.2373
L216.5859 12.1982
" />
<path d="M176.2271,5.6002 C176.5518,5.0294 177.0916,4.6125 177.7259,4.4425" />
<path d="M113.3160 22.5974
L116.9177 22.5920
" />
<path d="M116.9177 55.8020 A19.8244 19.8244 0.0 0 0 106.2577 71.7020" />
<path d="M233.0301,7.7920 C234.1106,7.5025 235.2214,8.1428 235.5125,9.2228" />
<path d="M35.8497 12.1956
L38.4616 2.2933
" />
<path d="M1.8246,74.0553 C1.2633,73.9050 0.7847,73.5378 0.4942,73.0345" />
<path d="M39.5078,0.9215 C40.0251,0.6215 40.6405,0.5399 41.2181,0.6946" />
<path d="M91.7263,14.2280 C92.3627,14.3985 92.9036,14.8179 93.2273,15.3917" />
<path d="M177.7259 4.4425
L191.4411 0.7676
" />
<path d="M41.2181 0.6946
L57.4371 5.0405
" />
<path d="M179.2683 93.1658
L161.3511 101.5224
" />
<path d="M139.1148 22.6025
L158.9598 17.2330
" />
<path d="M57.4371 5.0405
L58.1080 2.4296
" />
<path d="M194.3199 2.4423
L194.9985 5.0430
" />
<path d="M158.9584 17.2350
L158.9584 17.2350
" />
<path d="M191.4411,0.7676 C192.0450,0.6057 192.6886,0.6916 193.2290,1.0059" />
<path d="M106.2577 75.3420 A19.9796 19.9796 0.0 0 0 124.2777 93.4320" />
<path d="M116.9177 55.8020
L116.9177 22.5920
" />
<path d="M159.1832,15.3840 C159.5028,14.8219 160.0342,14.4113 160.6587,14.2440" />
<path d="M144.2550 112.4493
L108.1781 112.4469
" />
<path d="M128.2877 93.4020 A19.6672 19.6672 0.0 0 0 146.0677 75.4420" />
<path d="M60.9087 0.7933
L74.6630 4.4782
" />
<path d="M108.1781,112.4469 C107.2081,112.4468 106.2616,112.1483 105.4670,111.5919" />
<path d="M0.4942,73.0345 C0.2037,72.5313 0.1250,71.9332 0.2755,71.3719" />
<path d="M105.4670 111.5919
L91.0845 101.5197
" />
<path d="M175.9978,7.4801 C175.8198,6.8480 175.9024,6.1710 176.2271,5.6002" />
<path d="M135.7527 55.9820
L135.7527 22.6020
" />
<path d="M76.4108 7.5411
L75.7404 9.9452
" />
<path d="M160.6587 14.2440
L176.6927 9.9477
" />
<path d="M158.9584,17.2350 C158.7827,16.6128 158.8637,15.9461 159.1832,15.3840" />
<path d="M252.3112,71.5887 C252.5931,72.6224 251.9845,73.6847 250.9519,73.9613" />
<path d="M235.5125 9.2228
L252.3112 71.5887
" />
<path d="M74.6630,4.4782 C75.3028,4.6496 75.8475,5.0698 76.1758,5.6451" />
<path d="M73.1648 93.1631
L1.8246 74.0553
" />
<path d="M161.3511 101.5224
L146.9662 111.5946
" />
<path d="M146.0477 71.4320 A19.3084 19.3084 0.0 0 0 135.7527 55.9820" />
<path d="M93.4481 17.2761
L113.3160 22.5974
" />
<path d="M211.2760,0.6815 C211.8381,0.5309 212.4370,0.6103 212.9404,0.9023" />
<path d="M75.7404 9.9452
L91.7263 14.2280
" />
<path d="M176.6927 9.9477
L175.9978 7.4801
" />
<path d="M58.1080,2.4296 C58.2596,1.8395 58.6409,1.3346 59.1670,1.0272" />
<path d="M0.2755 71.3719
L16.8890 9.3486
" />
<path d="M194.9985 5.0430
L211.2760 0.6815
" />
<path d="M38.4616,2.2933 C38.6141,1.7151 38.9906,1.2215 39.5078,0.9215" />
<path d="M216.5859 12.1982
L233.0301 7.7920
" />
<path d="M250.9519,73.9613 C241.7466,76.4274 200.8566,87.3821 179.2683,93.1658" />
<path d="M212.9404,0.9023 C213.4438,1.1942 213.8102,1.6746 213.9586,2.2373" />
<path d="M76.1758,5.6451 C76.5041,6.2204 76.5887,6.9031 76.4108,7.5411" />
<path d="M93.2273,15.3917 C93.5509,15.9655 93.6300,16.6454 93.4467,17.2782" />
<path d="M19.5305 7.8236
L35.8497 12.1956
" />
<path d="M91.0845 101.5197
L73.1648 93.1631
" />
<path d="M193.2290,1.0059 C193.7694,1.3203 194.1621,1.8373 194.3199,2.4423" />
<path d="M16.8890,9.3486 C17.1974,8.1981 18.3800,7.5154 19.5305,7.8236" />
</g>
<g style="fill:#000000; fill-opacity:0.0; 
stroke:#000000; stroke-width:0.1200; stroke-opacity:1; 
stroke-linecap:round; stroke-linejoin:round;">
<path d="M233.2300 10.2806
L219.7070 13.9041
" />
<path d="M219.7070 13.9041
L223.3305 27.4271
" />
<path d="M223.3305 27.4271
L236.8535 23.8036
" />
<path d="M236.8535 23.8036
L233.2300 10.2806
" />
<path d="M45.9975 82.8672
L28.9006 78.2861
" />
<path d="M28.9006 78.2861
L32.6276 64.3768
" />
<path d="M32.6276 64.3768
L49.7245 68.9579
" />
<path d="M49.7245 68.9579
L45.9975 82.8672
" />
<path d="M202.7648 68.9576
L219.8617 64.3765
" />
<path d="M219.8617 64.3765
L223.5887 78.2859
" />
<path d="M223.5887 78.2859
L206.4918 82.8670
" />
<path d="M206.4918 82.8670
L202.7648 68.9576
" />
<path d="M44.5389 43.4505
L31.0159 39.8270
" />
<path d="M31.0159 39.8270
L27.3924 53.3500
" />
<path d="M27.3924 53.3500
L40.9154 56.9735
" />
<path d="M40.9154 56.9735
L44.5389 43.4505
" />
<path d="M75.0324 76.4678
L61.5094 72.8444
" />
<path d="M61.5094 72.8444
L57.8860 86.3673
" />
<path d="M57.8860 86.3673
L71.4089 89.9908
" />
<path d="M71.4089 89.9908
L75.0324 76.4678
" />
<path d="M64.1856 43.5384
L50.6626 39.9150
" />
<path d="M50.6626 39.9150
L47.0391 53.4379
" />
<path d="M47.0391 53.4379
L60.5621 57.0614
" />
<path d="M60.5621 57.0614
L64.1856 43.5384
" />
<path d="M114.1284 97.3810
L102.6602 89.3509
" />
<path d="M102.6602 89.3509
L94.6302 100.8190
" />
<path d="M94.6302 100.8190
L106.0983 108.8491
" />
<path d="M106.0983 108.8491
L114.1284 97.3810
" />
<path d="M98.9496 60.6180
L85.4266 56.9945
" />
<path d="M85.4266 56.9945
L81.8032 70.5175
" />
<path d="M81.8032 70.5175
L95.3261 74.1410
" />
<path d="M95.3261 74.1410
L98.9496 60.6180
" />
<path d="M22.9510 50.6070
L9.4281 46.9835
" />
<path d="M9.4281 46.9835
L5.8046 60.5065
" />
<path d="M5.8046 60.5065
L19.3276 64.1300
" />
<path d="M19.3276 64.1300
L22.9510 50.6070
" />
<path d="M86.1616 34.9330
L72.6387 31.3096
" />
<path d="M72.6387 31.3096
L69.0152 44.8325
" />
<path d="M69.0152 44.8325
L82.5382 48.4560
" />
<path d="M82.5382 48.4560
L86.1616 34.9330
" />
<path d="M95.4952 85.2142
L82.8069 79.2975
" />
<path d="M82.8069 79.2975
L76.8902 91.9858
" />
<path d="M76.8902 91.9858
L89.5785 97.9025
" />
<path d="M89.5785 97.9025
L95.4952 85.2142
" />
<path d="M91.0792 16.5804
L77.5562 12.9570
" />
<path d="M77.5562 12.9570
L73.9328 26.4799
" />
<path d="M73.9328 26.4799
L87.4557 30.1034
" />
<path d="M87.4557 30.1034
L91.0792 16.5804
" />
<path d="M81.2441 53.2856
L67.7211 49.6622
" />
<path d="M67.7211 49.6622
L64.0976 63.1851
" />
<path d="M64.0976 63.1851
L77.6206 66.8086
" />
<path d="M77.6206 66.8086
L81.2441 53.2856
" />
<path d="M49.4564 25.0979
L35.9335 21.4744
" />
<path d="M35.9335 21.4744
L32.3100 34.9974
" />
<path d="M32.3100 34.9974
L45.8330 38.6209
" />
<path d="M45.8330 38.6209
L49.4564 25.0979
" />
<path d="M74.0207 6.8332
L60.4977 3.2098
" />
<path d="M60.4977 3.2098
L56.8743 16.7327
" />
<path d="M56.8743 16.7327
L70.3972 20.3562
" />
<path d="M70.3972 20.3562
L74.0207 6.8332
" />
<path d="M103.8672 42.2654
L90.3442 38.6419
" />
<path d="M90.3442 38.6419
L86.7207 52.1649
" />
<path d="M86.7207 52.1649
L100.2437 55.7884
" />
<path d="M100.2437 55.7884
L103.8672 42.2654
" />
<path d="M108.7847 23.9128
L95.2618 20.2893
" />
<path d="M95.2618 20.2893
L91.6383 33.8123
" />
<path d="M91.6383 33.8123
L105.1613 37.4358
" />
<path d="M105.1613 37.4358
L108.7847 23.9128
" />
<path d="M69.1031 25.1858
L55.5802 21.5624
" />
<path d="M55.5802 21.5624
L51.9567 35.0853
" />
<path d="M51.9567 35.0853
L65.4796 38.7088
" />
<path d="M65.4796 38.7088
L69.1031 25.1858
" />
<path d="M32.7862 13.9018
L19.2632 10.2784
" />
<path d="M19.2632 10.2784
L15.6397 23.8013
" />
<path d="M15.6397 23.8013
L29.1627 27.4248
" />
<path d="M29.1627 27.4248
L32.7862 13.9018
" />
<path d="M54.3740 6.7453
L40.8510 3.1219
" />
<path d="M40.8510 3.1219
L37.2276 16.6448
" />
<path d="M37.2276 16.6448
L50.7505 20.2683
" />
<path d="M50.7505 20.2683
L54.3740 6.7453
" />
<path d="M27.8686 32.2544
L14.3456 28.6310
" />
<path d="M14.3456 28.6310
L10.7222 42.1539
" />
<path d="M10.7222 42.1539
L24.2451 45.7774
" />
<path d="M24.2451 45.7774
L27.8686 32.2544
" />
<path d="M149.8330 89.3532
L138.3649 97.3833
" />
<path d="M138.3649 97.3833
L146.3949 108.8514
" />
<path d="M146.3949 108.8514
L157.8631 100.8213
" />
<path d="M157.8631 100.8213
L149.8330 89.3532
" />
<path d="M221.4773 39.8293
L207.9543 43.4528
" />
<path d="M207.9543 43.4528
L211.5778 56.9757
" />
<path d="M211.5778 56.9757
L225.1008 53.3523
" />
<path d="M225.1008 53.3523
L221.4773 39.8293
" />
<path d="M169.6863 79.2998
L156.9980 85.2165
" />
<path d="M156.9980 85.2165
L162.9147 97.9048
" />
<path d="M162.9147 97.9048
L175.6030 91.9881
" />
<path d="M175.6030 91.9881
L169.6863 79.2998
" />
<path d="M190.9838 72.8467
L177.4608 76.4701
" />
<path d="M177.4608 76.4701
L181.0843 89.9931
" />
<path d="M181.0843 89.9931
L194.6072 86.3696
" />
<path d="M194.6072 86.3696
L190.9838 72.8467
" />
<path d="M243.0651 46.9858
L229.5422 50.6093
" />
<path d="M229.5422 50.6093
L233.1656 64.1323
" />
<path d="M233.1656 64.1323
L246.6886 60.5088
" />
<path d="M246.6886 60.5088
L243.0651 46.9858
" />
<path d="M167.0666 56.9968
L153.5436 60.6203
" />
<path d="M153.5436 60.6203
L157.1671 74.1432
" />
<path d="M157.1671 74.1432
L170.6900 70.5198
" />
<path d="M170.6900 70.5198
L167.0666 56.9968
" />
<path d="M184.7721 49.6644
L171.2492 53.2879
" />
<path d="M171.2492 53.2879
L174.8726 66.8109
" />
<path d="M174.8726 66.8109
L188.3956 63.1874
" />
<path d="M188.3956 63.1874
L184.7721 49.6644
" />
<path d="M201.8306 39.9172
L188.3077 43.5407
" />
<path d="M188.3077 43.5407
L191.9311 57.0637
" />
<path d="M191.9311 57.0637
L205.4541 53.4402
" />
<path d="M205.4541 53.4402
L201.8306 39.9172
" />
<path d="M238.1476 28.6332
L224.6246 32.2567
" />
<path d="M224.6246 32.2567
L228.2481 45.7797
" />
<path d="M228.2481 45.7797
L241.7710 42.1562
" />
<path d="M241.7710 42.1562
L238.1476 28.6332
" />
<path d="M174.9370 12.9593
L161.4140 16.5827
" />
<path d="M161.4140 16.5827
L165.0375 30.1057
" />
<path d="M165.0375 30.1057
L178.5605 26.4822
" />
<path d="M178.5605 26.4822
L174.9370 12.9593
" />
<path d="M211.6422 3.1241
L198.1192 6.7476
" />
<path d="M198.1192 6.7476
L201.7427 20.2706
" />
<path d="M201.7427 20.2706
L215.2656 16.6471
" />
<path d="M215.2656 16.6471
L211.6422 3.1241
" />
<path d="M191.9955 3.2121
L178.4725 6.8355
" />
<path d="M178.4725 6.8355
L182.0960 20.3585
" />
<path d="M182.0960 20.3585
L195.6190 16.7350
" />
<path d="M195.6190 16.7350
L191.9955 3.2121
" />
<path d="M162.1490 38.6442
L148.6261 42.2677
" />
<path d="M148.6261 42.2677
L152.2495 55.7907
" />
<path d="M152.2495 55.7907
L165.7725 52.1672
" />
<path d="M165.7725 52.1672
L162.1490 38.6442
" />
<path d="M216.5597 21.4767
L203.0368 25.1002
" />
<path d="M203.0368 25.1002
L206.6602 38.6232
" />
<path d="M206.6602 38.6232
L220.1832 34.9997
" />
<path d="M220.1832 34.9997
L216.5597 21.4767
" />
<path d="M179.8546 31.3118
L166.3316 34.9353
" />
<path d="M166.3316 34.9353
L169.9551 48.4583
" />
<path d="M169.9551 48.4583
L183.4780 44.8348
" />
<path d="M183.4780 44.8348
L179.8546 31.3118
" />
<path d="M196.9131 21.5647
L183.3901 25.1881
" />
<path d="M183.3901 25.1881
L187.0136 38.7111
" />
<path d="M187.0136 38.7111
L200.5365 35.0876
" />
<path d="M200.5365 35.0876
L196.9131 21.5647
" />
<path d="M157.2315 20.2916
L143.7085 23.9151
" />
<path d="M143.7085 23.9151
L147.3320 37.4381
" />
<path d="M147.3320 37.4381
L160.8549 33.8146
" />
<path d="M160.8549 33.8146
L157.2315 20.2916
" />
<g >
</g>
<g >
</g>
<g >
</g>
<g >
</g>
<g >
</g>
<g >
</g>
<g >
</g>
<g >
</g>
<g >
</g>
<g >
</g>
<g >
</g>
<g >
</g>
<g >
</g>
<g >
</g>
<g >
</g>
<g >
</g>
<g >
</g>
<g >
</g>
<g >
</g>
<g >
</g>
<g >
</g>
<g >
</g>
<g >
</g>
<g >
</g>
<g >
</g>
<g >
</g>
<g >
</g>
<g >
</g>
<g >
</g>
<g >
</g>
<g >
</g>
<g >
</g>
<g >
</g>
<g >
</g>
<g >
</g>
<g >
</g>
<g >
</g>
<g >
</g>
<g >
</g>
<g >
</g>
<g >
</g>
</g> 
</svg>
