<?xml version="1.0" standalone="no"?>
 <!DOCTYPE svg PUBLIC "-//W3C//DTD SVG 1.1//EN" 
 "http://www.w3.org/Graphics/SVG/1.1/DTD/svg11.dtd"> 
<svg
  xmlns:svg="http://www.w3.org/2000/svg"
  xmlns="http://www.w3.org/2000/svg"
  xmlns:xlink="http://www.w3.org/1999/xlink"
  version="1.1"
  width="252.7046mm" height="112.1664mm" viewBox="0.0000 0.0000 252.7046 112.1664">
<title>SVG Image created as 5col-ffkb-bottom-plate-brd.svg date 2024/04/08 14:06:15 </title>
  <desc>Image generated by PCBNEW </desc>
<g style="fill:#000000; fill-opacity:1.0000;stroke:#000000; stroke-opacity:1.0000;
stroke-linecap:round; stroke-linejoin:round;"
 transform="translate(0 0) scale(1 1)">
</g>
<g style="fill:#000000; fill-opacity:0.0; 
stroke:#000000; stroke-width:0.0000; stroke-opacity:1; 
stroke-linecap:round; stroke-linejoin:round;">
</g>
<g style="fill:#000000; fill-opacity:0.0; 
stroke:#000000; stroke-width:0.2500; stroke-opacity:1; 
stroke-linecap:round; stroke-linejoin:round;">
<path d="M159.1832,14.9781 C159.5028,14.4160 160.0342,14.0054 160.6587,13.8381" />
<path d="M158.9584,16.8291 C158.7827,16.2069 158.8637,15.5402 159.1832,14.9781" />
<path d="M139.1148 22.1966
L158.9598 16.8271
" />
<path d="M35.8497 11.7897
L38.4616 1.8874
" />
<path d="M19.5305 7.4177
L35.8497 11.7897
" />
<path d="M38.4616,1.8874 C38.6141,1.3092 38.9906,0.8156 39.5078,0.5156" />
<path d="M39.5078,0.5156 C40.0251,0.2156 40.6405,0.1340 41.2181,0.2887" />
<path d="M41.2181 0.2887
L57.4371 4.6346
" />
<path d="M57.4371 4.6346
L58.1080 2.0237
" />
<path d="M59.1670,0.6213 C59.6931,0.3140 60.3202,0.2297 60.9087,0.3874" />
<path d="M58.1080,2.0237 C58.2596,1.4336 58.6409,0.9287 59.1670,0.6213" />
<path d="M60.9087 0.3874
L74.6630 4.0723
" />
<path d="M76.1758,5.2392 C76.5041,5.8145 76.5887,6.4972 76.4108,7.1352" />
<path d="M74.6630,4.0723 C75.3028,4.2437 75.8475,4.6639 76.1758,5.2392" />
<path d="M76.4108 7.1352
L75.7404 9.5393
" />
<path d="M75.7404 9.5393
L91.7263 13.8221
" />
<path d="M91.7263,13.8221 C92.3627,13.9926 92.9036,14.4120 93.2273,14.9858" />
<path d="M93.2273,14.9858 C93.5509,15.5596 93.6300,16.2395 93.4467,16.8723" />
<path d="M191.4411,0.3617 C192.0450,0.1998 192.6886,0.2857 193.2290,0.6000" />
<path d="M193.2290,0.6000 C193.7694,0.9144 194.1621,1.4314 194.3199,2.0364" />
<path d="M176.2271,5.1943 C176.5518,4.6235 177.0916,4.2066 177.7259,4.0366" />
<path d="M175.9978,7.0742 C175.8198,6.4421 175.9024,5.7651 176.2271,5.1943" />
<path d="M177.7259 4.0366
L191.4411 0.3617
" />
<circle cx="173.2615" cy="76.6724" r="1.1000" /> 
<circle cx="246.6814" cy="69.4821" r="1.1000" /> 
<circle cx="218.4113" cy="18.4120" r="1.1000" /> 
<circle cx="164.7418" cy="38.6122" r="1.1000" /> 
<circle cx="87.4814" cy="39.2219" r="1.1000" /> 
<circle cx="34.2620" cy="18.1917" r="1.1000" /> 
<circle cx="5.8418" cy="69.5419" r="1.1000" /> 
<circle cx="79.2212" cy="76.6217" r="1.1000" /> 
<circle cx="126.3477" cy="108.3861" r="1.1000" /> 
<path d="M146.9662,111.1887 C146.1716,111.7451 145.2250,112.0435 144.2550,112.0434" />
<path d="M213.9586 1.8314
L216.5859 11.7923
" />
<path d="M113.3160 22.1915
L139.1148 22.1966
" />
<path d="M233.0301,7.3861 C234.1106,7.0966 235.2214,7.7369 235.5125,8.8169" />
<path d="M1.8246,73.6494 C1.2633,73.4991 0.7847,73.1319 0.4942,72.6286" />
<path d="M179.2683 92.7599
L161.3511 101.1165
" />
<path d="M194.3199 2.0364
L194.9985 4.6371
" />
<path d="M144.2550 112.0434
L108.1781 112.0410
" />
<path d="M108.1781,112.0410 C107.2081,112.0409 106.2616,111.7424 105.4670,111.1860" />
<path d="M0.4942,72.6286 C0.2037,72.1254 0.1250,71.5273 0.2755,70.9660" />
<path d="M105.4670 111.1860
L91.0845 101.1138
" />
<path d="M160.6587 13.8381
L176.6927 9.5418
" />
<path d="M252.3112,71.1828 C252.5931,72.2165 251.9845,73.2788 250.9519,73.5554" />
<path d="M235.5125 8.8169
L252.3112 71.1828
" />
<path d="M73.1648 92.7572
L1.8246 73.6494
" />
<path d="M161.3511 101.1165
L146.9662 111.1887
" />
<path d="M93.4481 16.8702
L113.3160 22.1915
" />
<path d="M211.2760,0.2756 C211.8381,0.1250 212.4370,0.2044 212.9404,0.4964" />
<path d="M176.6927 9.5418
L175.9978 7.0742
" />
<path d="M0.2755 70.9660
L16.8890 8.9427
" />
<path d="M194.9985 4.6371
L211.2760 0.2756
" />
<path d="M216.5859 11.7923
L233.0301 7.3861
" />
<path d="M250.9519,73.5554 C241.7466,76.0215 200.8566,86.9762 179.2683,92.7599" />
<path d="M212.9404,0.4964 C213.4438,0.7883 213.8102,1.2687 213.9586,1.8314" />
<path d="M91.0845 101.1138
L73.1648 92.7572
" />
<circle cx="135.1477" cy="105.8861" r="1.5000" /> 
<path d="M16.8890,8.9427 C17.1974,7.7922 18.3800,7.1095 19.5305,7.4177" />
<g >
</g>
<g >
</g>
<g >
</g>
</g> 
</svg>
