0
SECTION
2
HEADER
9
$INSUNITS
70
4
9
$ACADVER
1
AC1014
9
$HANDSEED
5
FFFF
0
ENDSEC
0
SECTION
2
TABLES
0
TABLE
2
VPORT
5
8
100
AcDbSymbolTable
0
ENDTAB
0
TABLE
2
LTYPE
5
5
100
AcDbSymbolTable
0
LTYPE
5
14
100
AcDbSymbolTableRecord
100
AcDbLinetypeTableRecord
2
BYBLOCK
70
0
0
LTYPE
5
15
100
AcDbSymbolTableRecord
100
AcDbLinetypeTableRecord
2
BYLAYER
70
0
0
ENDTAB
0
TABLE
2
LAYER
5
2
100
AcDbSymbolTable
70
2
0
LAYER
5
50
100
AcDbSymbolTableRecord
100
AcDbLayerTableRecord
2
0
70
0
6
CONTINUOUS
0
ENDTAB
0
TABLE
2
STYLE
5
3
100
AcDbSymbolTable
70
1
0
STYLE
5
11
100
AcDbSymbolTableRecord
100
AcDbTextStyleTableRecord
2
STANDARD
70
0
0
ENDTAB
0
TABLE
2
VIEW
5
6
100
AcDbSymbolTable
70
0
0
ENDTAB
0
TABLE
2
UCS
5
7
100
AcDbSymbolTable
70
0
0
ENDTAB
0
TABLE
2
APPID
5
9
100
AcDbSymbolTable
70
2
0
APPID
5
12
100
AcDbSymbolTableRecord
100
AcDbRegAppTableRecord
2
ACAD
70
0
0
ENDTAB
0
TABLE
2
DIMSTYLE
5
A
100
AcDbSymbolTable
70
1
0
ENDTAB
0
TABLE
2
BLOCK_RECORD
5
1
100
AcDbSymbolTable
70
1
0
BLOCK_RECORD
5
1F
100
AcDbSymbolTableRecord
100
AcDbBlockTableRecord
2
*MODEL_SPACE
0
BLOCK_RECORD
5
1B
100
AcDbSymbolTableRecord
100
AcDbBlockTableRecord
2
*PAPER_SPACE
0
ENDTAB
0
ENDSEC
0
SECTION
2
BLOCKS
0
BLOCK
5
20
100
AcDbEntity
100
AcDbBlockBegin
2
*MODEL_SPACE
0
ENDBLK
5
21
100
AcDbEntity
100
AcDbBlockEnd
0
BLOCK
5
1C
100
AcDbEntity
100
AcDbBlockBegin
2
*PAPER_SPACE
0
ENDBLK
5
1D
100
AcDbEntity
100
AcDbBlockEnd
0
ENDSEC
0
SECTION
2
ENTITIES
0
CIRCLE
5
100
100
AcDbEntity
8
0
100
AcDbCircle
10
141.46632
20
56.176073028605408
30
0
40
1.25
210
0
220
0
230
1
0
LINE
5
101
100
AcDbEntity
8
0
100
AcDbLine
10
30.191709821644395
20
103.46698044150408
30
0
11
30.192005184442614
21
104.96698041242432
31
0
0
LINE
5
102
100
AcDbEntity
8
0
100
AcDbLine
10
11.848237132649706
20
103.47055669080611
30
0
11
11.849332420220474
21
104.97058544167152
31
0
0
LINE
5
103
100
AcDbEntity
8
0
100
AcDbLine
10
11.785819692555693
20
69.970603978353097
30
0
11
11.848237132649706
21
103.47055669080611
31
0
0
LINE
5
104
100
AcDbEntity
8
0
100
AcDbLine
10
30.185113385802698
20
69.966981019509007
30
0
11
30.191709821644395
21
103.46698044150408
31
0
0
LINE
5
105
100
AcDbEntity
8
0
100
AcDbLine
10
-0.61575786566322677
20
13.250258202830807
30
0
11
-14.890688971011308
21
23.24712363195928
31
0
0
LINE
5
106
100
AcDbEntity
8
0
100
AcDbLine
10
39.032579941195742
20
12.121470003472009
30
0
11
2.9557155083655573
21
12.123911003433516
31
0
0
SPLINE
5
107
100
AcDbEntity
8
0
100
AcDbSpline
70
0
71
3
72
11
73
7
74
0
42
0.000000001
43
0.0000000001
44
0.0000000001
40
1.3794762625792924e-07
40
1.3794762625792924e-07
40
1.3794762625792924e-07
40
1.3794762625792924e-07
40
0.80042574430285784
40
0.80042574430285784
40
0.80042574430285784
40
1
40
1
40
1
40
1
10
148.15995258157838
20
118.06688648795216
30
0
10
149.82122576585638
20
118.5093586444323
30
0
10
151.54284166190126
20
117.80978331881364
30
0
10
152.44938784066568
20
116.4330799900347
30
0
10
152.67542168746607
20
116.08981942968364
30
0
10
152.8510509422928
20
115.70424470830164
30
0
10
152.96207681753754
20
115.29021853040207
30
0
0
LINE
5
108
100
AcDbEntity
8
0
100
AcDbLine
10
56.881707159052688
20
23.244478714235711
30
0
11
42.604229456652845
21
13.247457793001502
31
0
0
SPLINE
5
109
100
AcDbEntity
8
0
100
AcDbSpline
70
0
71
3
72
8
73
4
74
0
42
0.000000001
43
0.0000000001
44
0.0000000001
40
0
40
0
40
0
40
0
40
0.99915563704735144
40
0.99915563704735144
40
0.99915563704735144
40
0.99915563704735144
10
165.29794023501054
20
55.801800177735863
30
0
10
125.36583491127001
20
45.100380406233427
30
0
10
124.55396701877595
20
44.883516339582215
30
0
10
74.560980467360309
20
31.490126955190625
30
0
0
SPLINE
5
110
100
AcDbEntity
8
0
100
AcDbSpline
70
0
71
3
72
8
73
4
74
0
42
0.000000001
43
0.0000000001
44
0.0000000001
40
2.5556093487186731e-07
40
2.5556093487186731e-07
40
2.5556093487186731e-07
40
2.5556093487186731e-07
40
1
40
1
40
1
40
1
10
2.9557155083655573
20
12.123911003433275
30
0
10
1.6780164380236684
20
12.123996820529012
30
0
10
0.43082077572329069
20
12.517330315855467
30
0
10
-0.61575786566322677
20
13.250258202830807
30
0
0
LINE
5
111
100
AcDbEntity
8
0
100
AcDbLine
10
-14.890688971011308
20
23.24712363195928
30
0
11
-32.572137339203131
21
31.49261833519823
31
0
0
SPLINE
5
112
100
AcDbEntity
8
0
100
AcDbSpline
70
0
71
3
72
11
73
7
74
0
42
0.000000001
43
0.0000000001
44
0.0000000001
40
7.5777114084219554e-08
40
7.5777114084219554e-08
40
7.5777114084219554e-08
40
7.5777114084219554e-08
40
0.34121628457822856
40
0.34121628457822856
40
0.34121628457822856
40
0.35046890138311976
40
0.35046890138311976
40
0.35046890138311976
40
0.35046890138311976
10
131.73989372208291
20
117.24287689379936
30
0
10
132.17449213554011
20
115.64749018922873
30
0
10
132.47227514072162
20
114.60346682342121
30
0
10
132.68050400921089
20
113.9968204248936
30
0
10
132.68615046409246
20
113.98037024897327
30
0
10
132.69171372752356
20
113.96428240496138
30
0
10
132.69722371469936
20
113.94846880557579
30
0
0
SPLINE
5
113
100
AcDbEntity
8
0
100
AcDbSpline
70
0
71
3
72
11
73
7
74
0
42
0.000000001
43
0.0000000001
44
0.0000000001
40
5.3873209575981249e-09
40
5.3873209575981249e-09
40
5.3873209575981249e-09
40
5.3873209575981249e-09
40
0.80069287027666214
40
0.80069287027666214
40
0.80069287027666214
40
1
40
1
40
1
40
1
10
-122.79987807393766
20
55.646595523753781
30
0
10
-124.51945015317122
20
56.108459751946206
30
0
10
-125.7008930066791
20
57.627080990558603
30
0
10
-125.80038791309143
20
59.330638949701182
30
0
10
-125.8251540189088
20
59.754685749719805
30
0
10
-125.78298582774551
20
60.19052411621761
30
0
10
-125.66824655164517
20
60.61861701965433
30
0
0
LINE
5
114
100
AcDbEntity
8
0
100
AcDbLine
10
132.69722371469936
20
113.94846880557579
30
0
11
148.15995258157838
21
118.06688648795216
31
0
0
SPLINE
5
115
100
AcDbEntity
8
0
100
AcDbSpline
70
0
71
3
72
11
73
7
74
0
42
0.000000001
43
0.0000000001
44
0.0000000001
40
2.6467261329918786e-08
40
2.6467261329918786e-08
40
2.6467261329918786e-08
40
2.6467261329918786e-08
40
0.80083370402723697
40
0.80083370402723697
40
0.80083370402723697
40
1
40
1
40
1
40
1
10
-111.03078361707965
20
115.23111277551737
30
0
10
-110.57580746821273
20
116.92863306146592
30
0
10
-109.07827089606511
20
118.09686377356726
30
0
10
-107.39649459683437
20
118.19782138103604
30
0
10
-106.97823901448533
20
118.22292940695108
30
0
10
-106.54827535461791
20
118.18214770566782
30
0
10
-106.12584839551722
20
118.06995499156201
30
0
0
SPLINE
5
116
100
AcDbEntity
8
0
100
AcDbSpline
70
0
71
3
72
8
73
4
74
0
42
0.000000001
43
0.0000000001
44
0.0000000001
40
2.3695999141535631e-07
40
2.3695999141535631e-07
40
2.3695999141535631e-07
40
2.3695999141535631e-07
40
1
40
1
40
1
40
1
10
42.604229456652973
20
13.247457793001342
30
0
10
41.557572853327841
20
12.514593178143578
30
0
10
40.310303976379309
20
12.121383068147047
30
0
10
39.032579941195742
20
12.121470003472004
30
0
0
LINE
5
117
100
AcDbEntity
8
0
100
AcDbLine
10
152.96207681753754
20
115.29021853040207
30
0
11
167.76730490978912
21
60.080045186386819
31
0
0
SPLINE
5
118
100
AcDbEntity
8
0
100
AcDbSpline
70
0
71
3
72
11
73
7
74
0
42
0.000000001
43
0.0000000001
44
0.0000000001
40
0
40
0
40
0
40
0
40
0.79880413261615102
40
0.79880413261615102
40
0.79880413261615102
40
1
40
1
40
1
40
1
10
167.76730506180536
20
60.080044619502658
30
0
10
168.16275887014388
20
58.605355589418934
30
0
10
167.54502439921256
20
57.07280188702812
30
0
10
166.32335444874644
20
56.263455929013674
30
0
10
166.01565080112533
20
56.059604877939329
30
0
10
165.66938890254312
20
55.901344918458584
30
0
10
165.29794050441956
20
55.801800249934928
30
0
0
SPLINE
5
119
100
AcDbEntity
8
0
100
AcDbSpline
70
0
71
3
72
8
73
4
74
0
42
0.000000001
43
0.0000000001
44
0.0000000001
40
0.0006381126640817176
40
0.0006381126640817176
40
0.0006381126640817176
40
0.0006381126640817176
40
1
40
1
40
1
40
1
10
-32.572137339203131
20
31.492618335198131
30
0
10
-98.908321549254055
20
49.232832852581822
30
0
10
-101.2912002219646
20
49.869524810689079
30
0
10
-122.79987807393745
20
55.646595523753781
30
0
0
LINE
5
120
100
AcDbEntity
8
0
100
AcDbLine
10
-125.66824655164517
20
60.61861701965433
30
0
11
-111.03078361707965
21
115.23111277551737
31
0
0
LINE
5
121
100
AcDbEntity
8
0
100
AcDbLine
10
74.560980467360309
20
31.490126955190625
30
0
11
56.881707159052688
21
23.244478714235711
31
0
0
CIRCLE
5
122
100
AcDbEntity
8
0
100
AcDbCircle
10
-99.373432000000008
20
56.116144999999982
30
0
40
1.2499999999999964
210
0
220
0
230
1
0
LWPOLYLINE
5
123
100
AcDbEntity
8
0
100
AcDbPolyline
90
4
70
1
43
0.0
10
-57.154060000000015
20
59.210118999999999
10
-70.580500000000058
20
62.806758999999992
10
-74.928980000000038
20
46.578699000000007
10
-61.502540000000039
20
42.982058999999992
0
CIRCLE
5
124
100
AcDbEntity
8
0
100
AcDbCircle
10
-70.953626000000014
20
107.46606502860541
30
0
40
1.2500000000000009
210
0
220
0
230
1
0
LWPOLYLINE
5
125
100
AcDbEntity
8
0
100
AcDbPolyline
90
4
70
1
43
0.0
10
101.34702000000004
20
43.319879000000007
10
118.25072000000007
20
47.851239000000014
10
114.57533999999997
20
61.567239000000001
10
97.671639999999996
20
57.035879000000016
0
CIRCLE
5
126
100
AcDbEntity
8
0
100
AcDbCircle
10
-25.993598999999996
20
49.036133028605413
30
0
40
1.2499999999999973
210
0
220
0
230
1
0
CIRCLE
5
127
100
AcDbEntity
8
0
100
AcDbCircle
10
59.526436000000018
20
87.045963028572459
30
0
40
1.249999999999998
210
0
220
0
230
1
0
LWPOLYLINE
5
128
100
AcDbEntity
8
0
100
AcDbPolyline
90
4
70
1
43
0.0
10
117.08994000000001
20
46.192618999999993
10
112.74146000000002
20
62.420679000000014
10
99.315020000000061
20
58.824038999999999
10
103.66349999999998
20
42.595978999999993
0
CIRCLE
5
129
100
AcDbEntity
8
0
100
AcDbCircle
10
68.046609000000018
20
48.986097196296754
30
0
40
1.2499999999999889
210
0
220
0
230
1
0
LINE
5
130
100
AcDbEntity
8
0
100
AcDbLine
10
-106.12584839551722
20
118.06995499156201
30
0
11
-90.711285339048004
21
113.9759917821693
31
0
0
CIRCLE
5
131
100
AcDbEntity
8
0
100
AcDbCircle
10
113.19637900000004
20
107.24604919629677
30
0
40
1.25
210
0
220
0
230
1
0
SPLINE
5
132
100
AcDbEntity
8
0
100
AcDbSpline
70
0
71
3
72
8
73
4
74
0
42
0.000000001
43
0.0000000001
44
0.0000000001
40
1.6606396308237887e-07
40
1.6606396308237887e-07
40
1.6606396308237887e-07
40
1.6606396308237887e-07
40
1
40
1
40
1
40
1
10
-68.21107937757148
20
124.16013022255547
30
0
10
-67.957006967570024
20
125.12337902215265
30
0
10
-67.328754857217803
20
125.94712209739481
30
0
10
-66.466999738028676
20
126.44690421309721
30
0
0
LINE
5
133
100
AcDbEntity
8
0
100
AcDbLine
10
-70.4389490938064
20
115.71375423259116
30
0
11
-68.21107937757148
21
124.16013022255547
31
0
0
SPLINE
5
134
100
AcDbEntity
8
0
100
AcDbSpline
70
0
71
3
72
8
73
4
74
0
42
0.000000001
43
0.0000000001
44
0.0000000001
40
0
40
0
40
0
40
0
40
1
40
1
40
1
40
1
10
-46.811997704590773
20
126.33874692489785
30
0
10
-45.940651586437724
20
126.84783769871466
30
0
10
-44.900204033103499
20
126.987568724743
30
0
10
-43.925416065836984
20
126.72641591314544
30
0
0
LINE
5
135
100
AcDbEntity
8
0
100
AcDbLine
10
-43.925416065836984
20
126.72641591314544
30
0
11
-30.171084916752022
21
123.04150833738822
31
0
0
LINE
5
136
100
AcDbEntity
8
0
100
AcDbLine
10
-27.366620854797361
20
118.1267910525942
30
0
11
-27.629984461305277
21
117.18236611907706
31
0
0
LINE
5
137
100
AcDbEntity
8
0
100
AcDbLine
10
90.549025907188323
20
124.00722317914158
30
0
11
90.846400365750895
21
122.86748656932787
31
0
0
LINE
5
138
100
AcDbEntity
8
0
100
AcDbLine
10
90.846400365750895
20
122.86748656932787
30
0
11
105.66550692606724
21
126.83820494351507
31
0
0
SPLINE
5
139
100
AcDbEntity
8
0
100
AcDbSpline
70
0
71
3
72
8
73
4
74
0
42
0.000000001
43
0.0000000001
44
0.0000000001
40
1.0676018656512822e-06
40
1.0676018656512822e-06
40
1.0676018656512822e-06
40
1.0676018656512822e-06
40
1
40
1
40
1
40
1
10
88.760949842987529
20
126.361439536417
30
0
10
89.646211097501421
20
125.84644447451134
30
0
10
90.290463533351783
20
124.99820749229671
30
0
10
90.549025907188323
20
124.00722317914158
30
0
0
LWPOLYLINE
5
140
100
AcDbEntity
8
0
100
AcDbPolyline
90
4
70
1
43
0.0
10
-72.518520000000024
20
61.567239000000001
10
-76.193899999999985
20
47.848699000000003
10
-59.290200000000048
20
43.319879000000007
10
-55.614820000000016
20
57.035879000000016
0
SPLINE
5
141
100
AcDbEntity
8
0
100
AcDbSpline
70
0
71
3
72
11
73
7
74
0
42
0.000000001
43
0.0000000001
44
0.0000000001
40
0.62195931807789695
40
0.62195931807789695
40
0.62195931807789695
40
0.62195931807789695
40
0.73157883951764735
40
0.73157883951764735
40
0.73157883951764735
40
1
40
1
40
1
40
1
10
-90.711285339048004
20
113.97599178216929
30
0
10
-90.650285898140623
20
114.13969577280442
30
0
10
-90.581566290956701
20
114.34145973043437
30
0
10
-90.504677650286169
20
114.58427541888305
30
0
10
-90.316403354926962
20
115.17884897677378
30
0
10
-90.082371802922196
20
116.01071082160291
30
0
10
-89.782670794711308
20
117.11543843643418
30
0
0
SPLINE
5
142
100
AcDbEntity
8
0
100
AcDbSpline
70
0
71
3
72
11
73
7
74
0
42
0.000000001
43
0.0000000001
44
0.0000000001
40
1.7135009492641546e-08
40
1.7135009492641546e-08
40
1.7135009492641546e-08
40
1.7135009492641546e-08
40
0.80000814998994296
40
0.80000814998994296
40
0.80000814998994296
40
1
40
1
40
1
40
1
10
-89.782670794711308
20
117.115438436434
30
0
10
-89.364216610957385
20
118.65790227242985
30
0
10
-88.001682570166935
20
119.72304958436972
30
0
10
-86.467962496436314
20
119.81471064994189
30
0
10
-86.084552000535055
20
119.83762474959265
30
0
10
-85.690273777170091
20
119.79971969069248
30
0
10
-85.30358127081567
20
119.69612143224488
30
0
0
LINE
5
143
100
AcDbEntity
8
0
100
AcDbLine
10
55.048218690677558
20
113.27572961249693
30
0
11
69.614761481532966
21
117.17877523854163
31
0
0
SPLINE
5
144
100
AcDbEntity
8
0
100
AcDbSpline
70
0
71
3
72
8
73
4
74
0
42
0.000000001
43
0.0000000001
44
0.0000000001
40
0
40
0
40
0
40
0
40
1
40
1
40
1
40
1
10
-48.567103374683001
20
124.01447410964153
30
0
10
-48.315957882182801
20
124.99188865210346
30
0
10
-47.683343587724387
20
125.82965628839298
30
0
10
-46.811997704590738
20
126.33874692489785
30
0
0
LINE
5
145
100
AcDbEntity
8
0
100
AcDbLine
10
-10.204482498737413
20
109.92471246061717
30
0
11
8.2898620568351689
21
104.97129313136256
31
0
0
LINE
5
146
100
AcDbEntity
8
0
100
AcDbLine
10
72.115419950882398
20
123.07721095016419
30
0
11
85.830604013323466
21
126.75213696689502
31
0
0
SPLINE
5
147
100
AcDbEntity
8
0
100
AcDbSpline
70
0
71
3
72
8
73
4
74
0
42
0.000000001
43
0.0000000001
44
0.0000000001
40
6.0432407420255094e-07
40
6.0432407420255094e-07
40
6.0432407420255094e-07
40
6.0432407420255094e-07
40
1
40
1
40
1
40
1
10
69.33165281345336
20
118.18410014604945
30
0
10
69.04507743358073
20
119.20173232831189
30
0
10
69.178241176311104
20
120.29346768147113
30
0
10
69.70102462707473
20
121.21237881894348
30
0
0
LINE
5
148
100
AcDbEntity
8
0
100
AcDbLine
10
-48.860793330493486
20
122.871482063484
30
0
11
-48.56710352092918
21
124.01447354047642
31
0
0
LINE
5
149
100
AcDbEntity
8
0
100
AcDbLine
10
33.69189820089364
20
104.96629125361437
30
0
11
52.174068484406391
21
109.96709862329901
31
0
0
SPLINE
5
150
100
AcDbEntity
8
0
100
AcDbSpline
70
0
71
3
72
8
73
4
74
0
42
0.000000001
43
0.0000000001
44
0.0000000001
40
0.50077068828431581
40
0.50077068828431581
40
0.50077068828431581
40
0.50077068828431581
40
1
40
1
40
1
40
1
10
52.174068484406426
20
109.96709862329895
30
0
10
52.236252064985692
20
110.47645351663479
30
0
10
52.39855642021638
20
110.97360023523407
30
0
10
52.656935841452892
20
111.42811286893829
30
0
0
LINE
5
151
100
AcDbEntity
8
0
100
AcDbLine
10
-63.616014662652454
20
126.82508287293409
30
0
11
-48.860793330493486
21
122.871482063484
31
0
0
LINE
5
152
100
AcDbEntity
8
0
100
AcDbLine
10
110.18668560247832
20
124.21610336988017
30
0
11
112.42997493815008
21
115.71126467618599
31
0
0
SPLINE
5
153
100
AcDbEntity
8
0
100
AcDbSpline
70
0
71
3
72
8
73
4
74
0
42
0.000000001
43
0.0000000001
44
0.0000000001
40
1.5455748013829027e-07
40
1.5455748013829027e-07
40
1.5455748013829027e-07
40
1.5455748013829027e-07
40
1
40
1
40
1
40
1
10
105.66550692606727
20
126.83820494351514
30
0
10
106.61227560231674
20
127.09188788083937
30
0
10
107.62276185305362
20
126.95784811732796
30
0
10
108.47064997556588
20
126.46610807533548
30
0
0
SPLINE
5
154
100
AcDbEntity
8
0
100
AcDbSpline
70
0
71
3
72
8
73
4
74
0
42
0.000000001
43
0.0000000001
44
0.0000000001
40
0
40
0
40
0
40
0
40
0.50213441407767023
40
0.50213441407767023
40
0.50213441407767023
40
0.50213441407767023
10
-10.688522750639748
20
111.41605344158094
30
0
10
-10.426728462161066
20
110.95190683406285
30
0
10
-10.264033962205446
20
110.44424232783123
30
0
10
-10.204482498737413
20
109.9247124606172
30
0
0
SPLINE
5
155
100
AcDbEntity
8
0
100
AcDbSpline
70
0
71
3
72
8
73
4
74
0
42
0.000000001
43
0.0000000001
44
0.0000000001
40
0
40
0
40
0
40
0
40
1
40
1
40
1
40
1
10
108.47065190448619
20
126.46610695663958
30
0
10
109.31853944408323
20
125.97436556832187
30
0
10
109.936700995591
20
125.16385583476747
30
0
10
110.18668560247832
20
124.21610336988017
30
0
0
SPLINE
5
156
100
AcDbEntity
8
0
100
AcDbSpline
70
0
71
3
72
8
73
4
74
0
42
0.000000001
43
0.0000000001
44
0.0000000001
40
0
40
0
40
0
40
0
40
1
40
1
40
1
40
1
10
-30.171083069547855
20
123.04150784250452
30
0
10
-29.145011799340352
20
122.76661282653879
30
0
10
-28.270108648565113
20
122.09178052767506
30
0
10
-27.743639121009096
20
121.16916306367867
30
0
0
SPLINE
5
157
100
AcDbEntity
8
0
100
AcDbSpline
70
0
71
3
72
8
73
4
74
0
42
0.000000001
43
0.0000000001
44
0.0000000001
40
2.1762501056520343e-07
40
2.1762501056520343e-07
40
2.1762501056520343e-07
40
2.1762501056520343e-07
40
1
40
1
40
1
40
1
10
-13.107811854305638
20
113.29174632065832
30
0
10
-12.08271866791403
20
113.01711501143959
30
0
10
-11.209886870921579
20
112.34040157441315
30
0
10
-10.688523175398927
20
111.41605419465456
30
0
0
LINE
5
158
100
AcDbEntity
8
0
100
AcDbLine
10
69.614761481532966
20
117.17877523854163
30
0
11
69.33165281345336
21
118.18410014604945
31
0
0
SPLINE
5
159
100
AcDbEntity
8
0
100
AcDbSpline
70
0
71
3
72
11
73
7
74
0
42
0.000000001
43
0.0000000001
44
0.0000000001
40
0
40
0
40
0
40
0
40
0.80546705851722544
40
0.80546705851722544
40
0.80546705851722544
40
1
40
1
40
1
40
1
10
127.41961197639476
20
119.72767795700014
30
0
10
128.92024868123241
20
120.12976730595796
30
0
10
130.47766510678119
20
119.49273518990188
30
0
10
131.29142091512179
20
118.24366466376014
30
0
10
131.48795571983075
20
117.94199451971093
30
0
10
131.64141304829414
20
117.60439504463606
30
0
10
131.73989372208251
20
117.24287689379921
30
0
0
LINE
5
160
100
AcDbEntity
8
0
100
AcDbLine
10
8.2898620568351689
20
104.97129313136256
30
0
11
33.69189820089364
21
104.96629125361437
31
0
0
LINE
5
161
100
AcDbEntity
8
0
100
AcDbLine
10
-85.30358127081567
20
119.69612143224488
30
0
11
-70.4389490938064
21
115.71375423259116
31
0
0
SPLINE
5
162
100
AcDbEntity
8
0
100
AcDbSpline
70
0
71
3
72
8
73
4
74
0
42
0.000000001
43
0.0000000001
44
0.0000000001
40
1.1472423523870558e-06
40
1.1472423523870558e-06
40
1.1472423523870558e-06
40
1.1472423523870558e-06
40
1
40
1
40
1
40
1
10
-66.466999738030069
20
126.44690421309917
30
0
10
-65.605245898350475
20
126.94668716498497
30
0
10
-64.578263688450448
20
127.08291371113802
30
0
10
-63.616014662652454
20
126.82508287293409
30
0
0
SPLINE
5
163
100
AcDbEntity
8
0
100
AcDbSpline
70
0
71
3
72
8
73
4
74
0
42
0.000000001
43
0.0000000001
44
0.0000000001
40
0
40
0
40
0
40
0
40
1
40
1
40
1
40
1
10
-27.743639121009096
20
121.16916306367867
30
0
10
-27.217170021006041
20
120.24654634895207
30
0
10
-27.08128408014737
20
119.15000958607244
30
0
10
-27.366620854797361
20
118.1267910525942
30
0
0
LINE
5
164
100
AcDbEntity
8
0
100
AcDbLine
10
-27.629984461305277
20
117.18236611907706
30
0
11
-13.107811854305638
21
113.29174632065832
31
0
0
SPLINE
5
165
100
AcDbEntity
8
0
100
AcDbSpline
70
0
71
3
72
8
73
4
74
0
42
0.000000001
43
0.0000000001
44
0.0000000001
40
0
40
0
40
0
40
0
40
1
40
1
40
1
40
1
10
52.656935841452892
20
111.42811286893824
30
0
10
53.174491682904943
20
112.33854012921135
30
0
10
54.036646231179581
20
113.00468202708849
30
0
10
55.048218690677558
20
113.27572961249693
30
0
0
SPLINE
5
166
100
AcDbEntity
8
0
100
AcDbSpline
70
0
71
3
72
8
73
4
74
0
42
0.000000001
43
0.0000000001
44
0.0000000001
40
0
40
0
40
0
40
0
40
1
40
1
40
1
40
1
10
85.830604510497324
20
126.75213710011057
30
0
10
86.819870604071113
20
127.0172064348134
30
0
10
87.875689184446628
20
126.87643583174916
30
0
10
88.760949842986548
20
126.36143953641506
30
0
0
SPLINE
5
167
100
AcDbEntity
8
0
100
AcDbSpline
70
0
71
3
72
8
73
4
74
0
42
0.000000001
43
0.0000000001
44
0.0000000001
40
2.6985063581990102e-07
40
2.6985063581990102e-07
40
2.6985063581990102e-07
40
2.6985063581990102e-07
40
1
40
1
40
1
40
1
10
69.701024627074602
20
121.21237881894352
30
0
10
70.223806953113566
20
122.13128873645617
30
0
10
71.094227638289667
20
122.80358670804857
30
0
10
72.115419950882384
20
123.07721095016419
30
0
0
LINE
5
168
100
AcDbEntity
8
0
100
AcDbLine
10
112.42997493815008
20
115.71126467618599
30
0
11
127.41961174843475
21
119.72767789591916
31
0
0
CIRCLE
5
169
100
AcDbEntity
8
0
100
AcDbCircle
10
-17.733519000000015
20
86.436109028605415
30
0
40
1.25
210
0
220
0
230
1
0
LINE
5
170
100
AcDbEntity
8
0
100
AcDbLine
10
32.961491604170106
20
110.46643518353366
30
0
11
48.132192171117154
21
114.57124268366502
31
0
0
SPLINE
5
171
100
AcDbEntity
8
0
100
AcDbSpline
70
0
71
3
72
8
73
4
74
0
42
0.000000001
43
0.0000000001
44
0.0000000001
40
0.065910040625411156
40
0.065910040625411156
40
0.065910040625411156
40
0.065910040625411156
40
1
40
1
40
1
40
1
10
48.132192171117161
20
114.57124268366499
30
0
10
49.394023044771941
20
116.5414416307934
30
0
10
51.35419686125708
20
117.97994391139258
30
0
10
53.624725889828753
20
118.58832485831903
30
0
0
LINE
5
172
100
AcDbEntity
8
0
100
AcDbLine
10
53.624725889828746
20
118.58832485831904
30
0
11
63.917389871673905
21
121.34620211934886
31
0
0
SPLINE
5
173
100
AcDbEntity
8
0
100
AcDbSpline
70
0
71
3
72
8
73
4
74
0
42
0.000000001
43
0.0000000001
44
0.0000000001
40
0.62896613780928878
40
0.62896613780928878
40
0.62896613780928878
40
0.62896613780928878
40
1
40
1
40
1
40
1
10
63.917389871673933
20
121.34620211934876
30
0
10
64.121061510279191
20
122.24496538443867
30
0
10
64.457102606551999
20
123.11751843007826
30
0
10
64.920522259682144
20
123.93208415506977
30
0
0
SPLINE
5
174
100
AcDbEntity
8
0
100
AcDbSpline
70
0
71
3
72
8
73
4
74
0
42
0.000000001
43
0.0000000001
44
0.0000000001
40
5.2709799435070418e-07
40
5.2709799435070418e-07
40
5.2709799435070418e-07
40
5.2709799435070418e-07
40
1
40
1
40
1
40
1
10
64.920522259681775
20
123.93208415506969
30
0
10
66.169514784482089
20
126.12747410599953
30
0
10
68.25217464535244
20
127.73608463756034
30
0
10
70.691931770784578
20
128.38980743409948
30
0
0
LINE
5
175
100
AcDbEntity
8
0
100
AcDbLine
10
70.691931770784578
20
128.38980743409948
30
0
11
84.407116062176328
21
132.0647335121767
31
0
0
SPLINE
5
176
100
AcDbEntity
8
0
100
AcDbSpline
70
0
71
3
72
8
73
4
74
0
42
0.000000001
43
0.0000000001
44
0.0000000001
40
0
40
0
40
0
40
0
40
0.99999794828905686
40
0.99999794828905686
40
0.99999794828905686
40
0.99999794828905686
10
84.407118382321272
20
132.06473413384938
30
0
10
86.809337223663022
20
132.70839770851478
30
0
10
89.37692632482721
20
132.36606728622934
30
0
10
91.52659270243322
20
131.11551353395524
30
0
0
SPLINE
5
177
100
AcDbEntity
8
0
100
AcDbSpline
70
0
71
3
72
8
73
4
74
0
42
0.000000001
43
0.0000000001
44
0.0000000001
40
0
40
0
40
0
40
0
40
0.3853360938452432
40
0.3853360938452432
40
0.3853360938452432
40
0.3853360938452432
10
91.526592702431657
20
131.11551353395132
30
0
10
92.35494006985995
20
130.6336287070589
30
0
10
93.097602734365552
20
130.03102848478756
30
0
10
93.732565614789394
20
129.33483688324617
30
0
0
LINE
5
178
100
AcDbEntity
8
0
100
AcDbLine
10
93.732565614789394
20
129.33483688324617
30
0
11
104.24201865498028
21
132.1508014030702
31
0
0
SPLINE
5
179
100
AcDbEntity
8
0
100
AcDbSpline
70
0
71
3
72
8
73
4
74
0
42
0.000000001
43
0.0000000001
44
0.0000000001
40
2.8968697835481383e-07
40
2.8968697835481383e-07
40
2.8968697835481383e-07
40
2.8968697835481383e-07
40
1
40
1
40
1
40
1
10
104.24201865498011
20
132.1508014030702
30
0
10
106.59930147958397
20
132.78242577697117
30
0
10
109.11886398091711
20
132.44820888086358
30
0
10
111.22995221930752
20
131.22386501823226
30
0
0
ARC
5
180
100
AcDbEntity
8
0
100
AcDbCircle
10
107.71811299999999
20
125.168538
30
0
40
6.9999999999999973
210
0
220
-0
230
1
100
AcDbArc
50
59.887954964463567
51
59.888040138312718
0
SPLINE
5
181
100
AcDbEntity
8
0
100
AcDbSpline
70
0
71
3
72
8
73
4
74
0
42
0.000000001
43
0.0000000001
44
0.0000000001
40
0
40
0
40
0
40
0
40
1
40
1
40
1
40
1
10
111.22996122093542
20
131.22385979765144
30
0
10
113.34104673905523
20
129.99951331883554
30
0
10
114.8823816460914
20
127.9785755622481
30
0
10
115.50479914489877
20
125.61883939277413
30
0
0
LINE
5
182
100
AcDbEntity
8
0
100
AcDbLine
10
115.50479914489878
20
125.61883939277413
30
0
11
116.33986237803356
21
122.45291782220124
31
0
0
LINE
5
183
100
AcDbEntity
8
0
100
AcDbLine
10
116.33986237803356
20
122.45291782220124
30
0
11
125.99612282602889
21
125.04027418095605
31
0
0
SPLINE
5
184
100
AcDbEntity
8
0
100
AcDbSpline
70
0
71
3
72
11
73
7
74
0
42
0.000000001
43
0.0000000001
44
0.0000000001
40
0
40
0
40
0
40
0
40
0.42212641167822018
40
0.42212641167822018
40
0.42212641167822018
40
0.85834349958446254
40
0.85834349958446254
40
0.85834349958446254
40
0.85834349958446254
10
125.99612388984229
20
125.0402744660005
30
0
10
127.99455312047057
20
125.57574524696385
30
0
10
130.09359208496468
20
125.38507843359795
30
0
10
131.8794911791739
20
124.62173750794462
30
0
10
133.72500399386172
20
123.83291608749774
30
0
10
135.2976019060408
20
122.43190557255042
30
0
10
136.28540509128848
20
120.59590385321138
30
0
0
LINE
5
185
100
AcDbEntity
8
0
100
AcDbLine
10
136.28540509128848
20
120.59590385321138
30
0
11
146.74440504736603
21
123.38160427710932
31
0
0
SPLINE
5
186
100
AcDbEntity
8
0
100
AcDbSpline
70
0
71
3
72
14
73
10
74
0
42
0.000000001
43
0.0000000001
44
0.0000000001
40
2.7021590113919165e-07
40
2.7021590113919165e-07
40
2.7021590113919165e-07
40
2.7021590113919165e-07
40
0.4246472214333889
40
0.4246472214333889
40
0.4246472214333889
40
0.88413518335472174
40
0.88413518335472174
40
0.88413518335472174
40
1
40
1
40
1
40
1
10
146.74440504736592
20
123.38160427710962
30
0
10
148.844109807595
20
123.94085007900573
30
0
10
151.04627498294514
20
123.73405261277597
30
0
10
152.91976688184212
20
122.9214026745945
30
0
10
154.94697318070334
20
122.0420772425387
30
0
10
156.6573578059544
20
120.45058169404408
30
0
10
157.66111932870717
20
118.36717387668068
30
0
10
157.91422855991104
20
117.84182025534363
30
0
10
158.12082562831847
20
117.28741992523405
30
0
10
158.27438681517515
20
116.71477547520968
30
0
0
LINE
5
187
100
AcDbEntity
8
0
100
AcDbLine
10
158.27438681517515
20
116.71477547520968
30
0
11
173.07961524568256
21
61.504600869805152
31
0
0
SPLINE
5
188
100
AcDbEntity
8
0
100
AcDbSpline
70
0
71
3
72
14
73
10
74
0
42
0.000000001
43
0.0000000001
44
0.0000000001
40
0
40
0
40
0
40
0
40
0.42391583537147287
40
0.42391583537147287
40
0.42391583537147287
40
0.88306934290549721
40
0.88306934290549721
40
0.88306934290549721
40
1
40
1
40
1
40
1
10
173.07961595509167
20
61.504598224345798
30
0
10
173.61584448231125
20
59.504945395027931
30
0
10
173.42281482659888
20
57.402501951240303
30
0
10
172.65164518847502
20
55.614736850933042
30
0
10
171.8163726775106
20
53.678365175329823
30
0
10
170.300433728587
20
52.043152718394154
30
0
10
168.31352949324835
20
51.081550582531705
30
0
10
167.8075331020419
20
50.836663485373805
30
0
10
167.27325096356878
20
50.637086929013542
30
0
10
166.72165035395813
20
50.489263166363003
30
0
0
SPLINE
5
189
100
AcDbEntity
8
0
100
AcDbSpline
70
0
71
3
72
8
73
4
74
0
42
0.000000001
43
0.0000000001
44
0.0000000001
40
0
40
0
40
0
40
0
40
0.99604756827963992
40
0.99604756827963992
40
0.99604756827963992
40
0.99604756827963992
10
166.72164909671594
20
50.489262829434068
30
0
10
126.91370192334585
20
39.821116246870588
30
0
10
125.98264486238753
20
39.572306249493842
30
0
10
76.449381396134513
20
26.302083069087871
30
0
0
LINE
5
190
100
AcDbEntity
8
0
100
AcDbLine
10
76.449381396134498
20
26.302083069087864
30
0
11
59.642366742245798
21
18.463257999766789
31
0
0
LINE
5
191
100
AcDbEntity
8
0
100
AcDbLine
10
59.642366742245798
20
18.463257999766789
30
0
11
45.758862464379831
21
8.7420953673403634
31
0
0
SPLINE
5
192
100
AcDbEntity
8
0
100
AcDbSpline
70
0
71
3
72
8
73
4
74
0
42
0.000000001
43
0.0000000001
44
0.0000000001
40
5.8726498440689801e-07
40
5.8726498440689801e-07
40
5.8726498440689801e-07
40
5.8726498440689801e-07
40
1
40
1
40
1
40
1
10
45.758862464380165
20
8.7420953673399602
30
0
10
43.788020314022795
20
7.3621204975283918
30
0
10
41.43814488976993
20
6.6213063180195686
30
0
10
39.032205725580383
20
6.6214700162026681
30
0
0
LINE
5
193
100
AcDbEntity
8
0
100
AcDbLine
10
39.032205725580376
20
6.6214700162026681
30
0
11
2.9553433723729583
21
6.6239110160230794
31
0
0
SPLINE
5
194
100
AcDbEntity
8
0
100
AcDbSpline
70
0
71
3
72
8
73
4
74
0
42
0.000000001
43
0.0000000001
44
0.0000000001
40
6.3338633441544025e-07
40
6.3338633441544025e-07
40
6.3338633441544025e-07
40
6.3338633441544025e-07
40
1
40
1
40
1
40
1
10
2.9553433723730023
20
6.6239110160224755
30
0
10
0.54953537582871193
20
6.6240731629794016
30
0
10
-1.8001120466214968
20
7.3650928073233404
30
0
10
-3.7707333730947252
20
8.7451356132105147
30
0
0
LINE
5
195
100
AcDbEntity
8
0
100
AcDbLine
10
-3.7707333730947252
20
8.7451356132105147
30
0
11
-17.651417531385864
21
18.465906282476499
31
0
0
LINE
5
196
100
AcDbEntity
8
0
100
AcDbLine
10
-17.651417531385864
20
18.465906282476499
30
0
11
-34.459276525385775
21
26.304014870748592
31
0
0
SPLINE
5
197
100
AcDbEntity
8
0
100
AcDbSpline
70
0
71
3
72
8
73
4
74
0
42
0.000000001
43
0.0000000001
44
0.0000000001
40
0.0029846071028478706
40
0.0029846071028478706
40
0.0029846071028478706
40
0.0029846071028478706
40
1
40
1
40
1
40
1
10
-34.459276525385775
20
26.304014870748595
30
0
10
-100.34054512891005
20
43.922569318599045
30
0
10
-102.76788512993436
20
44.571215535398082
30
0
10
-124.226571011708
20
50.334858777517596
30
0
0
SPLINE
5
198
100
AcDbEntity
8
0
100
AcDbSpline
70
0
71
3
72
14
73
10
74
0
42
0.000000001
43
0.0000000001
44
0.0000000001
40
1.0759124371325682e-08
40
1.0759124371325682e-08
40
1.0759124371325682e-08
40
1.0759124371325682e-08
40
0.42386170928693256
40
0.42386170928693256
40
0.42386170928693256
40
0.88296400144345766
40
0.88296400144345766
40
0.88296400144345766
40
1
40
1
40
1
40
1
10
-124.22657101170812
20
50.33485877751761
30
0
10
-126.35363665421201
20
50.906172756689017
30
0
10
-128.18186464286975
20
52.20084110817298
30
0
10
-129.41650097687611
20
53.860825549546185
30
0
10
-130.7537871079202
20
55.658823964183803
30
0
10
-131.45258230991976
20
57.921718012188848
30
0
10
-131.28196363953319
20
60.260507192170046
30
0
10
-131.2384689177637
20
60.856719695938189
30
0
10
-131.1381768587793
20
61.455091851305362
30
0
10
-130.98073890767697
20
62.042493758386819
30
0
0
LINE
5
199
100
AcDbEntity
8
0
100
AcDbLine
10
-130.98073890767697
20
62.042493758386811
30
0
11
-116.34327621303834
21
116.65498861908108
31
0
0
SPLINE
5
200
100
AcDbEntity
8
0
100
AcDbSpline
70
0
71
3
72
14
73
10
74
0
42
0.000000001
43
0.0000000001
44
0.0000000001
40
5.2503945073621083e-08
40
5.2503945073621083e-08
40
5.2503945073621083e-08
40
5.2503945073621083e-08
40
0.42490153242032108
40
0.42490153242032108
40
0.42490153242032108
40
0.88450488933726557
40
0.88450488933726557
40
0.88450488933726557
40
1
40
1
40
1
40
1
10
-116.34327621303837
20
116.65498861908104
30
0
10
-115.77539353891063
20
118.77376383739902
30
0
10
-114.48588796822605
20
120.59575048827847
30
0
10
-112.83151107546783
20
121.82549170040264
30
0
10
-111.04202054776444
20
123.1556663784071
30
0
10
-108.78919381070475
20
123.85036450109251
30
0
10
-106.46194538610661
20
123.67950140645451
30
0
10
-105.87712412600601
20
123.63656470521768
30
0
10
-105.29031069578932
20
123.53871946780404
30
0
10
-104.714043845747
20
123.38566829395592
30
0
0
LINE
5
201
100
AcDbEntity
8
0
100
AcDbLine
10
-104.71404384574699
20
123.3856682939559
30
0
11
-94.25696050508563
21
120.60836514774368
31
0
0
SPLINE
5
202
100
AcDbEntity
8
0
100
AcDbSpline
70
0
71
3
72
14
73
10
74
0
42
0.000000001
43
0.0000000001
44
0.0000000001
40
0.15090985072751609
40
0.15090985072751609
40
0.15090985072751609
40
0.15090985072751609
40
0.4299159193380282
40
0.4299159193380282
40
0.4299159193380282
40
0.88414929906052198
40
0.88414929906052198
40
0.88414929906052198
40
1
40
1
40
1
40
1
10
-94.256960505085601
20
120.6083651477438
30
0
10
-93.602073722135444
20
121.78743018365873
30
0
10
-92.700281534486692
20
122.79216485531305
30
0
10
-91.648624188297845
20
123.55957717639519
30
0
10
-89.936482681669162
20
124.80895606618718
30
0
10
-87.788114167747182
20
125.46145914581386
30
0
10
-85.570068355544905
20
125.29579621398173
30
0
10
-85.004363205878235
20
125.2535444385086
30
0
10
-84.436907604292486
20
125.15789333143812
30
0
10
-83.88027759713944
20
125.00876735047625
30
0
0
LINE
5
203
100
AcDbEntity
8
0
100
AcDbLine
10
-83.88027759713944
20
125.00876735047623
30
0
11
-74.348884771096266
21
122.45522241875877
31
0
0
LINE
5
204
100
AcDbEntity
8
0
100
AcDbLine
10
-74.348884771096266
20
122.45522241875877
30
0
11
-73.52919209533367
21
125.56286937192604
31
0
0
SPLINE
5
205
100
AcDbEntity
8
0
100
AcDbSpline
70
0
71
3
72
8
73
4
74
0
42
0.000000001
43
0.0000000001
44
0.0000000001
40
3.1427915000488173e-07
40
3.1427915000488173e-07
40
3.1427915000488173e-07
40
3.1427915000488173e-07
40
0.99999782882573296
40
0.99999782882573296
40
0.99999782882573296
40
0.99999782882573296
10
-73.529192095333784
20
125.5628693719259
30
0
10
-72.902688874164411
20
127.93809061486795
30
0
10
-71.351270403836438
20
129.97226295473743
30
0
10
-69.226314951788993
20
131.2046536339069
30
0
0
SPLINE
5
206
100
AcDbEntity
8
0
100
AcDbSpline
70
0
71
3
72
8
73
4
74
0
42
0.000000001
43
0.0000000001
44
0.0000000001
40
0
40
0
40
0
40
0
40
1
40
1
40
1
40
1
10
-69.226314951786406
20
131.20465363390326
30
0
10
-67.101351855491686
20
132.4370503112668
30
0
10
-64.565291364461189
20
132.77345236568655
30
0
10
-62.192525425711231
20
132.13767907369251
30
0
0
LINE
5
207
100
AcDbEntity
8
0
100
AcDbLine
10
-62.192525425711231
20
132.13767907369251
30
0
11
-51.751264055017913
21
129.33998607556165
31
0
0
SPLINE
5
208
100
AcDbEntity
8
0
100
AcDbSpline
70
0
71
3
72
8
73
4
74
0
42
0.000000001
43
0.0000000001
44
0.0000000001
40
0.62015236722856437
40
0.62015236722856437
40
0.62015236722856437
40
0.62015236722856437
40
1
40
1
40
1
40
1
10
-51.751264055017884
20
129.33998607556177
30
0
10
-51.127050633310994
20
130.02202475174303
30
0
10
-50.398441814262995
20
130.61327261403275
30
0
10
-49.58656328809009
20
131.08761898285653
30
0
0
SPLINE
5
209
100
AcDbEntity
8
0
100
AcDbSpline
70
0
71
3
72
8
73
4
74
0
42
0.000000001
43
0.0000000001
44
0.0000000001
40
0
40
0
40
0
40
0
40
1
40
1
40
1
40
1
10
-49.586563288089934
20
131.08761898285661
30
0
10
-47.449182736709417
20
132.33640026066811
30
0
10
-44.893233821149423
20
132.67966071546726
30
0
10
-42.502118973906221
20
132.03906359467877
30
0
0
LINE
5
210
100
AcDbEntity
8
0
100
AcDbLine
10
-42.502118973906235
20
132.03906359467877
30
0
11
-28.74777994484311
21
128.35415390781159
31
0
0
SPLINE
5
211
100
AcDbEntity
8
0
100
AcDbSpline
70
0
71
3
72
8
73
4
74
0
42
0.000000001
43
0.0000000001
44
0.0000000001
40
0
40
0
40
0
40
0
40
1
40
1
40
1
40
1
10
-28.747771324556751
20
128.35415159835438
30
0
10
-26.305427063588102
20
127.69982252384779
30
0
10
-24.21980102663694
20
126.09113312914988
30
0
10
-22.96665123137587
20
123.8950366305003
30
0
0
SPLINE
5
212
100
AcDbEntity
8
0
100
AcDbSpline
70
0
71
3
72
8
73
4
74
0
42
0.000000001
43
0.0000000001
44
0.0000000001
40
0
40
0
40
0
40
0
40
0.36384101036204364
40
0.36384101036204364
40
0.36384101036204364
40
0.36384101036204364
10
-22.966651231376034
20
123.89503663050058
30
0
10
-22.51070466968568
20
123.09600793378297
30
0
10
-22.177077064934934
20
122.24103265520623
30
0
10
-21.970569433681288
20
121.36011995552506
30
0
0
LINE
5
213
100
AcDbEntity
8
0
100
AcDbLine
10
-21.970569433681288
20
121.36011995552506
30
0
11
-11.68450665342645
21
118.60439182973846
31
0
0
SPLINE
5
214
100
AcDbEntity
8
0
100
AcDbSpline
70
0
71
3
72
8
73
4
74
0
42
0.000000001
43
0.0000000001
44
0.0000000001
40
4.2484011691178505e-07
40
4.2484011691178505e-07
40
4.2484011691178505e-07
40
4.2484011691178505e-07
40
0.93659317280588794
40
0.93659317280588794
40
0.93659317280588794
40
0.93659317280588794
10
-11.684506653426194
20
118.60439182973862
30
0
10
-9.389392449223342
20
117.98951052013365
30
0
10
-7.4105685503971594
20
116.52963792233035
30
0
10
-6.1451840882445303
20
114.53134865849805
30
0
0
LINE
5
215
100
AcDbEntity
8
0
100
AcDbLine
10
-6.1451840882445303
20
114.53134865849805
30
0
11
9.0141829318975653
21
110.47115061302512
31
0
0
LINE
5
216
100
AcDbEntity
8
0
100
AcDbLine
10
9.0141829318975653
20
110.47115061302512
30
0
11
32.961491604170106
21
110.46643518353366
31
0
0
LINE
5
217
100
AcDbEntity
8
0
100
AcDbLine
10
26.992005246479387
20
104.96761051972727
30
0
11
26.993088243406312
21
110.46761041310161
31
0
0
LINE
5
218
100
AcDbEntity
8
0
100
AcDbLine
10
14.992005479117196
20
104.9699734221133
30
0
11
14.993088476044122
21
110.46997331548764
31
0
0
LINE
5
219
100
AcDbEntity
8
0
100
AcDbLine
10
-112.59313959149532
20
121.99701672084981
30
0
11
-109.31847648211316
21
117.56899838923259
31
0
0
LINE
5
220
100
AcDbEntity
8
0
100
AcDbLine
10
-129.83416080917215
20
54.470268960885619
30
0
11
-125.38163103539642
21
57.763059076387215
31
0
0
LINE
5
221
100
AcDbEntity
8
0
100
AcDbLine
10
167.58588633652889
20
57.763059076387215
30
0
11
172.53809212860011
21
55.362279004691359
31
0
0
LINE
5
222
100
AcDbEntity
8
0
100
AcDbLine
10
151.16229081209849
20
117.65396208773474
30
0
11
153.99106000000003
21
122.3728784403569
31
0
0
LINE
5
223
100
AcDbEntity
8
0
100
AcDbLine
10
-20.368898157805457
20
115.2370562198677
30
0
11
-18.945592956926326
21
120.54970172894781
31
0
0
LINE
5
224
100
AcDbEntity
8
0
100
AcDbLine
10
62.331490086105262
20
115.22725242551928
30
0
11
60.908001586907091
21
120.53984882395254
31
0
0
LINE
5
225
100
AcDbEntity
8
0
100
AcDbLine
10
-34.459276525385775
20
26.304014870748592
30
0
11
-32.572137339203131
21
31.49261833519823
31
0
0
LINE
5
226
100
AcDbEntity
8
0
100
AcDbLine
10
76.449381396134498
20
26.302083069087864
30
0
11
74.560980467360309
21
31.490126955190625
31
0
0
CIRCLE
5
227
100
AcDbEntity
8
0
100
AcDbCircle
10
-110.95580803680423
20
119.78300755504119
30
0
40
1.7500000000000053
210
0
220
0
230
1
0
CIRCLE
5
228
100
AcDbEntity
8
0
100
AcDbCircle
10
-19.657245557365894
20
117.89337897440774
30
0
40
1.750000000000004
210
0
220
0
230
1
0
CIRCLE
5
229
100
AcDbEntity
8
0
100
AcDbCircle
10
61.619745836506183
20
117.88355062473592
30
0
40
1.7500000000000016
210
0
220
0
230
1
0
CIRCLE
5
230
100
AcDbEntity
8
0
100
AcDbCircle
10
152.57667540604928
20
120.01342026404583
30
0
40
1.7499999999999933
210
0
220
0
230
1
0
CIRCLE
5
231
100
AcDbEntity
8
0
100
AcDbCircle
10
170.06198923256449
20
56.562669040539291
30
0
40
1.7499999999999982
210
0
220
0
230
1
0
CIRCLE
5
232
100
AcDbEntity
8
0
100
AcDbCircle
10
75.505180931747404
20
28.896105012139248
30
0
40
1.7500000000000022
210
0
220
0
230
1
0
CIRCLE
5
233
100
AcDbEntity
8
0
100
AcDbCircle
10
-33.515706932294449
20
28.898316602973413
30
0
40
1.7499999999999982
210
0
220
0
230
1
0
CIRCLE
5
234
100
AcDbEntity
8
0
100
AcDbCircle
10
-127.60789592228427
20
56.116664018636413
30
0
40
1.7499999999999982
210
0
220
0
230
1
0
CIRCLE
5
235
100
AcDbEntity
8
0
100
AcDbCircle
10
232.39210407771571
20
56.116664018636413
30
0
40
1.25
210
0
220
0
230
1
0
LINE
5
236
100
AcDbEntity
8
0
100
AcDbLine
10
518.27438681517515
20
116.71477547520968
30
0
11
533.07961524568259
21
61.504600869805152
31
0
0
CIRCLE
5
237
100
AcDbEntity
8
0
100
AcDbCircle
10
260.62656800000002
20
56.116144999999982
30
0
40
1.2499999999999964
210
0
220
0
230
1
0
LINE
5
238
100
AcDbEntity
8
0
100
AcDbLine
10
419.64236674224583
20
18.463257999766789
30
0
11
405.75886246437983
21
8.7420953673403634
31
0
0
LINE
5
239
100
AcDbEntity
8
0
100
AcDbLine
10
230.16583919082785
20
54.470268960885619
30
0
11
234.61836896460358
21
57.763059076387215
31
0
0
CIRCLE
5
240
100
AcDbEntity
8
0
100
AcDbCircle
10
435.50518093174736
20
28.896105012139248
30
0
40
1.25
210
0
220
0
230
1
0
LINE
5
241
100
AcDbEntity
8
0
100
AcDbLine
10
436.44938139613453
20
26.302083069087864
30
0
11
419.64236674224583
21
18.463257999766789
31
0
0
LINE
5
242
100
AcDbEntity
8
0
100
AcDbLine
10
317.49788102609375
20
132.03906359467877
30
0
11
331.2522200551569
21
128.35415390781159
31
0
0
LINE
5
243
100
AcDbEntity
8
0
100
AcDbLine
10
399.03220572558041
20
6.6214700162026681
30
0
11
362.95534337237302
21
6.6239110160230794
31
0
0
LINE
5
244
100
AcDbEntity
8
0
100
AcDbLine
10
369.01418293189755
20
110.47115061302512
30
0
11
392.96149160417008
21
110.46643518353366
31
0
0
SPLINE
5
245
100
AcDbEntity
8
0
100
AcDbSpline
70
0
71
3
72
8
73
4
74
0
42
0.000000001
43
0.0000000001
44
0.0000000001
40
5.8726498440689801e-07
40
5.8726498440689801e-07
40
5.8726498440689801e-07
40
5.8726498440689801e-07
40
1
40
1
40
1
40
1
10
405.75886246438017
20
8.7420953673399602
30
0
10
403.78802031402279
20
7.3621204975283918
30
0
10
401.43814488976994
20
6.6213063180195686
30
0
10
399.03220572558041
20
6.6214700162026681
30
0
0
LINE
5
246
100
AcDbEntity
8
0
100
AcDbLine
10
453.73256561478939
20
129.33483688324617
30
0
11
464.24201865498026
21
132.1508014030702
31
0
0
LINE
5
247
100
AcDbEntity
8
0
100
AcDbLine
10
342.34858246861415
20
18.465906282476499
30
0
11
325.5407234746142
21
26.304014870748592
31
0
0
SPLINE
5
248
100
AcDbEntity
8
0
100
AcDbSpline
70
0
71
3
72
8
73
4
74
0
42
0.000000001
43
0.0000000001
44
0.0000000001
40
0
40
0
40
0
40
0
40
0.99604756827963992
40
0.99604756827963992
40
0.99604756827963992
40
0.99604756827963992
10
526.72164909671596
20
50.489262829434068
30
0
10
486.91370192334591
20
39.821116246870588
30
0
10
485.98264486238753
20
39.572306249493842
30
0
10
436.44938139613453
20
26.302083069087871
30
0
0
CIRCLE
5
249
100
AcDbEntity
8
0
100
AcDbCircle
10
334.00640100000004
20
49.036133028605413
30
0
40
1.2499999999999973
210
0
220
0
230
1
0
SPLINE
5
250
100
AcDbEntity
8
0
100
AcDbSpline
70
0
71
3
72
11
73
7
74
0
42
0.000000001
43
0.0000000001
44
0.0000000001
40
0
40
0
40
0
40
0
40
0.42212641167822018
40
0.42212641167822018
40
0.42212641167822018
40
0.85834349958446254
40
0.85834349958446254
40
0.85834349958446254
40
0.85834349958446254
10
485.99612388984224
20
125.0402744660005
30
0
10
487.99455312047058
20
125.57574524696385
30
0
10
490.09359208496471
20
125.38507843359795
30
0
10
491.8794911791739
20
124.62173750794462
30
0
10
493.72500399386172
20
123.83291608749774
30
0
10
495.29760190604077
20
122.43190557255042
30
0
10
496.28540509128845
20
120.59590385321138
30
0
0
SPLINE
5
251
100
AcDbEntity
8
0
100
AcDbSpline
70
0
71
3
72
8
73
4
74
0
42
0.000000001
43
0.0000000001
44
0.0000000001
40
0
40
0
40
0
40
0
40
0.3853360938452432
40
0.3853360938452432
40
0.3853360938452432
40
0.3853360938452432
10
451.52659270243163
20
131.11551353395132
30
0
10
452.35494006985994
20
130.6336287070589
30
0
10
453.09760273436552
20
130.03102848478756
30
0
10
453.73256561478939
20
129.33483688324617
30
0
0
CIRCLE
5
252
100
AcDbEntity
8
0
100
AcDbCircle
10
473.19637900000004
20
107.24604919629677
30
0
40
1.25
210
0
220
0
230
1
0
SPLINE
5
253
100
AcDbEntity
8
0
100
AcDbSpline
70
0
71
3
72
14
73
10
74
0
42
0.000000001
43
0.0000000001
44
0.0000000001
40
1.0759124371325682e-08
40
1.0759124371325682e-08
40
1.0759124371325682e-08
40
1.0759124371325682e-08
40
0.42386170928693256
40
0.42386170928693256
40
0.42386170928693256
40
0.88296400144345766
40
0.88296400144345766
40
0.88296400144345766
40
1
40
1
40
1
40
1
10
235.77342898829187
20
50.33485877751761
30
0
10
233.64636334578796
20
50.906172756689017
30
0
10
231.81813535713025
20
52.20084110817298
30
0
10
230.58349902312389
20
53.860825549546185
30
0
10
229.24621289207977
20
55.658823964183803
30
0
10
228.54741769008024
20
57.921718012188848
30
0
10
228.71803636046681
20
60.260507192170046
30
0
10
228.76153108223633
20
60.856719695938189
30
0
10
228.8618231412207
20
61.455091851305362
30
0
10
229.01926109232303
20
62.042493758386819
30
0
0
LINE
5
254
100
AcDbEntity
8
0
100
AcDbLine
10
413.62472588982877
20
118.58832485831904
30
0
11
423.91738987167395
21
121.34620211934886
31
0
0
LINE
5
255
100
AcDbEntity
8
0
100
AcDbLine
10
476.33986237803356
20
122.45291782220124
30
0
11
485.99612282602891
21
125.04027418095605
31
0
0
CIRCLE
5
256
100
AcDbEntity
8
0
100
AcDbCircle
10
530.06198923256443
20
56.562669040539291
30
0
40
1.25
210
0
220
0
230
1
0
ARC
5
257
100
AcDbEntity
8
0
100
AcDbCircle
10
467.71812865807073
20
125.16852419117519
30
0
40
7.0000040901016778
210
0
220
-0
230
1
100
AcDbArc
50
59.887389199133906
51
59.888207709791303
0
LINE
5
258
100
AcDbEntity
8
0
100
AcDbLine
10
527.58588633652892
20
57.763059076387215
30
0
11
532.53809212860017
21
55.362279004691359
31
0
0
LINE
5
259
100
AcDbEntity
8
0
100
AcDbLine
10
475.50482199526346
20
125.61875276165522
30
0
11
476.33986237803356
21
122.45291782220124
31
0
0
CIRCLE
5
260
100
AcDbEntity
8
0
100
AcDbCircle
10
501.46632
20
56.176073028605408
30
0
40
1.25
210
0
220
0
230
1
0
SPLINE
5
261
100
AcDbEntity
8
0
100
AcDbSpline
70
0
71
3
72
8
73
4
74
0
42
0.000000001
43
0.0000000001
44
0.0000000001
40
0.065910040625411156
40
0.065910040625411156
40
0.065910040625411156
40
0.065910040625411156
40
1
40
1
40
1
40
1
10
408.13219217111714
20
114.57124268366499
30
0
10
409.39402304477193
20
116.5414416307934
30
0
10
411.35419686125709
20
117.97994391139258
30
0
10
413.62472588982877
20
118.58832485831903
30
0
0
LINE
5
262
100
AcDbEntity
8
0
100
AcDbLine
10
356.22926662690526
20
8.7451356132105147
30
0
11
342.34858246861415
21
18.465906282476499
31
0
0
LINE
5
263
100
AcDbEntity
8
0
100
AcDbLine
10
392.96149160417008
20
110.46643518353366
30
0
11
408.13219217111714
21
114.57124268366502
31
0
0
SPLINE
5
264
100
AcDbEntity
8
0
100
AcDbSpline
70
0
71
3
72
8
73
4
74
0
42
0.000000001
43
0.0000000001
44
0.0000000001
40
2.8968697835481383e-07
40
2.8968697835481383e-07
40
2.8968697835481383e-07
40
2.8968697835481383e-07
40
1
40
1
40
1
40
1
10
464.24201865498014
20
132.1508014030702
30
0
10
466.59930147958397
20
132.78242577697117
30
0
10
469.11886398091713
20
132.44820888086358
30
0
10
471.22995221930751
20
131.22386501823226
30
0
0
LINE
5
265
100
AcDbEntity
8
0
100
AcDbLine
10
229.01926109232303
20
62.042493758386811
30
0
11
243.65672378696166
21
116.65498861908108
31
0
0
SPLINE
5
266
100
AcDbEntity
8
0
100
AcDbSpline
70
0
71
3
72
8
73
4
74
0
42
0.000000001
43
0.0000000001
44
0.0000000001
40
0
40
0
40
0
40
0
40
1
40
1
40
1
40
1
10
471.23003870152252
20
131.22381484276713
30
0
10
473.34111228136118
20
129.99944777954155
30
0
10
474.88242748285597
20
127.97849499402429
30
0
10
475.50482197265899
20
125.61875275568381
30
0
0
CIRCLE
5
267
100
AcDbEntity
8
0
100
AcDbCircle
10
421.61974583650618
20
117.88355062473592
30
0
40
1.25
210
0
220
0
230
1
0
SPLINE
5
268
100
AcDbEntity
8
0
100
AcDbSpline
70
0
71
3
72
14
73
10
74
0
42
0.000000001
43
0.0000000001
44
0.0000000001
40
0
40
0
40
0
40
0
40
0.42391583537147287
40
0.42391583537147287
40
0.42391583537147287
40
0.88306934290549721
40
0.88306934290549721
40
0.88306934290549721
40
1
40
1
40
1
40
1
10
533.07961595509164
20
61.504598224345798
30
0
10
533.61584448231133
20
59.504945395027931
30
0
10
533.42281482659882
20
57.402501951240303
30
0
10
532.65164518847496
20
55.614736850933042
30
0
10
531.81637267751057
20
53.678365175329823
30
0
10
530.300433728587
20
52.043152718394154
30
0
10
528.31352949324832
20
51.081550582531705
30
0
10
527.80753310204193
20
50.836663485373805
30
0
10
527.27325096356878
20
50.637086929013542
30
0
10
526.72165035395813
20
50.489263166363003
30
0
0
LINE
5
269
100
AcDbEntity
8
0
100
AcDbLine
10
422.33149008610525
20
115.22725242551928
30
0
11
420.90800158690712
21
120.53984882395254
31
0
0
CIRCLE
5
270
100
AcDbEntity
8
0
100
AcDbCircle
10
419.52643599999999
20
87.045963028572459
30
0
40
1.249999999999998
210
0
220
0
230
1
0
CIRCLE
5
271
100
AcDbEntity
8
0
100
AcDbCircle
10
428.04660899999999
20
48.986097196296754
30
0
40
1.2499999999999889
210
0
220
0
230
1
0
SPLINE
5
272
100
AcDbEntity
8
0
100
AcDbSpline
70
0
71
3
72
14
73
10
74
0
42
0.000000001
43
0.0000000001
44
0.0000000001
40
2.7021590113919165e-07
40
2.7021590113919165e-07
40
2.7021590113919165e-07
40
2.7021590113919165e-07
40
0.4246472214333889
40
0.4246472214333889
40
0.4246472214333889
40
0.88413518335472174
40
0.88413518335472174
40
0.88413518335472174
40
1
40
1
40
1
40
1
10
506.74440504736594
20
123.38160427710962
30
0
10
508.84410980759498
20
123.94085007900573
30
0
10
511.04627498294514
20
123.73405261277597
30
0
10
512.91976688184218
20
122.9214026745945
30
0
10
514.94697318070337
20
122.0420772425387
30
0
10
516.65735780595446
20
120.45058169404408
30
0
10
517.66111932870717
20
118.36717387668068
30
0
10
517.91422855991095
20
117.84182025534363
30
0
10
518.12082562831847
20
117.28741992523405
30
0
10
518.27438681517515
20
116.71477547520968
30
0
0
LINE
5
273
100
AcDbEntity
8
0
100
AcDbLine
10
325.5407234746142
20
26.304014870748592
30
0
11
327.4278626607969
21
31.49261833519823
31
0
0
LINE
5
274
100
AcDbEntity
8
0
100
AcDbLine
10
511.16229081209849
20
117.65396208773474
30
0
11
513.99106000000006
21
122.3728784403569
31
0
0
CIRCLE
5
275
100
AcDbEntity
8
0
100
AcDbCircle
10
512.57667540604928
20
120.01342026404583
30
0
40
1.25
210
0
220
0
230
1
0
SPLINE
5
276
100
AcDbEntity
8
0
100
AcDbSpline
70
0
71
3
72
8
73
4
74
0
42
0.000000001
43
0.0000000001
44
0.0000000001
40
0
40
0
40
0
40
0
40
0.99999794828905686
40
0.99999794828905686
40
0.99999794828905686
40
0.99999794828905686
10
444.40711838232124
20
132.06473413384938
30
0
10
446.80933722366308
20
132.70839770851478
30
0
10
449.3769263248272
20
132.36606728622934
30
0
10
451.52659270243316
20
131.11551353395524
30
0
0
CIRCLE
5
277
100
AcDbEntity
8
0
100
AcDbCircle
10
326.48429306770549
20
28.898316602973413
30
0
40
1.25
210
0
220
0
230
1
0
LINE
5
278
100
AcDbEntity
8
0
100
AcDbLine
10
496.28540509128845
20
120.59590385321138
30
0
11
506.744405047366
21
123.38160427710932
31
0
0
SPLINE
5
279
100
AcDbEntity
8
0
100
AcDbSpline
70
0
71
3
72
8
73
4
74
0
42
0.000000001
43
0.0000000001
44
0.0000000001
40
6.3338633441544025e-07
40
6.3338633441544025e-07
40
6.3338633441544025e-07
40
6.3338633441544025e-07
40
1
40
1
40
1
40
1
10
362.95534337237302
20
6.6239110160224755
30
0
10
360.54953537582867
20
6.6240731629794016
30
0
10
358.19988795337849
20
7.3650928073233404
30
0
10
356.22926662690526
20
8.7451356132105147
30
0
0
SPLINE
5
280
100
AcDbEntity
8
0
100
AcDbSpline
70
0
71
3
72
8
73
4
74
0
42
0.000000001
43
0.0000000001
44
0.0000000001
40
0.62896613780928878
40
0.62896613780928878
40
0.62896613780928878
40
0.62896613780928878
40
1
40
1
40
1
40
1
10
423.91738987167395
20
121.34620211934876
30
0
10
424.12106151027922
20
122.24496538443867
30
0
10
424.45710260655198
20
123.11751843007826
30
0
10
424.92052225968217
20
123.93208415506977
30
0
0
CIRCLE
5
281
100
AcDbEntity
8
0
100
AcDbCircle
10
381.11654499999997
20
17.275973028682792
30
0
40
1.2500000000000031
210
0
220
0
230
1
0
SPLINE
5
282
100
AcDbEntity
8
0
100
AcDbSpline
70
0
71
3
72
8
73
4
74
0
42
0.000000001
43
0.0000000001
44
0.0000000001
40
0.0029846071028478706
40
0.0029846071028478706
40
0.0029846071028478706
40
0.0029846071028478706
40
1
40
1
40
1
40
1
10
325.5407234746142
20
26.304014870748595
30
0
10
259.65945487108996
20
43.922569318599045
30
0
10
257.23211487006563
20
44.571215535398082
30
0
10
235.77342898829201
20
50.334858777517596
30
0
0
SPLINE
5
283
100
AcDbEntity
8
0
100
AcDbSpline
70
0
71
3
72
8
73
4
74
0
42
0.000000001
43
0.0000000001
44
0.0000000001
40
5.2709799435070418e-07
40
5.2709799435070418e-07
40
5.2709799435070418e-07
40
5.2709799435070418e-07
40
1
40
1
40
1
40
1
10
424.92052225968177
20
123.93208415506969
30
0
10
426.16951478448209
20
126.12747410599953
30
0
10
428.2521746453524
20
127.73608463756034
30
0
10
430.69193177078461
20
128.38980743409948
30
0
0
SPLINE
5
284
100
AcDbEntity
8
0
100
AcDbSpline
70
0
71
3
72
8
73
4
74
0
42
0.000000001
43
0.0000000001
44
0.0000000001
40
0
40
0
40
0
40
0
40
1
40
1
40
1
40
1
10
331.25222867544323
20
128.35415159835438
30
0
10
333.69457293641187
20
127.69982252384779
30
0
10
335.78019897336304
20
126.09113312914988
30
0
10
337.03334876862414
20
123.8950366305003
30
0
0
LINE
5
285
100
AcDbEntity
8
0
100
AcDbLine
10
353.85481591175551
20
114.53134865849805
30
0
11
369.01418293189755
21
110.47115061302512
31
0
0
LINE
5
286
100
AcDbEntity
8
0
100
AcDbLine
10
430.69193177078461
20
128.38980743409948
30
0
11
444.40711606217633
21
132.0647335121767
31
0
0
SPLINE
5
287
100
AcDbEntity
8
0
100
AcDbSpline
70
0
71
3
72
8
73
4
74
0
42
0.000000001
43
0.0000000001
44
0.0000000001
40
4.2484011691178505e-07
40
4.2484011691178505e-07
40
4.2484011691178505e-07
40
4.2484011691178505e-07
40
0.93659317280588794
40
0.93659317280588794
40
0.93659317280588794
40
0.93659317280588794
10
348.31549334657382
20
118.60439182973862
30
0
10
350.61060755077671
20
117.98951052013365
30
0
10
352.58943144960284
20
116.52963792233035
30
0
10
353.85481591175551
20
114.53134865849805
30
0
0
LINE
5
288
100
AcDbEntity
8
0
100
AcDbLine
10
339.63110184219454
20
115.2370562198677
30
0
11
341.0544070430737
21
120.54970172894781
31
0
0
CIRCLE
5
289
100
AcDbEntity
8
0
100
AcDbCircle
10
342.266481
20
86.436109028605415
30
0
40
1.25
210
0
220
0
230
1
0
LINE
5
290
100
AcDbEntity
8
0
100
AcDbLine
10
338.02943056631869
20
121.36011995552506
30
0
11
348.31549334657353
21
118.60439182973846
31
0
0
CIRCLE
5
291
100
AcDbEntity
8
0
100
AcDbCircle
10
340.34275444263409
20
117.89337897440774
30
0
40
1.25
210
0
220
0
230
1
0
CIRCLE
5
292
100
AcDbEntity
8
0
100
AcDbCircle
10
289.04637400000001
20
107.46606502860541
30
0
40
1.2500000000000009
210
0
220
0
230
1
0
SPLINE
5
293
100
AcDbEntity
8
0
100
AcDbSpline
70
0
71
3
72
14
73
10
74
0
42
0.000000001
43
0.0000000001
44
0.0000000001
40
0.15090985072751609
40
0.15090985072751609
40
0.15090985072751609
40
0.15090985072751609
40
0.4299159193380282
40
0.4299159193380282
40
0.4299159193380282
40
0.88414929906052198
40
0.88414929906052198
40
0.88414929906052198
40
1
40
1
40
1
40
1
10
265.7430394949144
20
120.6083651477438
30
0
10
266.39792627786454
20
121.78743018365873
30
0
10
267.29971846551331
20
122.79216485531305
30
0
10
268.35137581170216
20
123.55957717639519
30
0
10
270.06351731833087
20
124.80895606618718
30
0
10
272.21188583225279
20
125.46145914581386
30
0
10
274.42993164445511
20
125.29579621398173
30
0
10
274.99563679412176
20
125.2535444385086
30
0
10
275.56309239570749
20
125.15789333143812
30
0
10
276.11972240286059
20
125.00876735047625
30
0
0
LINE
5
294
100
AcDbEntity
8
0
100
AcDbLine
10
285.65111522890373
20
122.45522241875877
30
0
11
286.47080790466634
21
125.56286937192604
31
0
0
SPLINE
5
295
100
AcDbEntity
8
0
100
AcDbSpline
70
0
71
3
72
8
73
4
74
0
42
0.000000001
43
0.0000000001
44
0.0000000001
40
0
40
0
40
0
40
0
40
1
40
1
40
1
40
1
10
290.77368504821357
20
131.20465363390326
30
0
10
292.89864814450829
20
132.4370503112668
30
0
10
295.43470863553881
20
132.77345236568655
30
0
10
297.80747457428879
20
132.13767907369251
30
0
0
CIRCLE
5
296
100
AcDbEntity
8
0
100
AcDbCircle
10
249.04419196319577
20
119.78300755504119
30
0
40
1.25
210
0
220
0
230
1
0
SPLINE
5
297
100
AcDbEntity
8
0
100
AcDbSpline
70
0
71
3
72
8
73
4
74
0
42
0.000000001
43
0.0000000001
44
0.0000000001
40
0
40
0
40
0
40
0
40
0.36384101036204364
40
0.36384101036204364
40
0.36384101036204364
40
0.36384101036204364
10
337.03334876862402
20
123.89503663050058
30
0
10
337.48929533031429
20
123.09600793378297
30
0
10
337.82292293506509
20
122.24103265520623
30
0
10
338.02943056631869
20
121.36011995552506
30
0
0
SPLINE
5
298
100
AcDbEntity
8
0
100
AcDbSpline
70
0
71
3
72
8
73
4
74
0
42
0.000000001
43
0.0000000001
44
0.0000000001
40
3.1427915000488173e-07
40
3.1427915000488173e-07
40
3.1427915000488173e-07
40
3.1427915000488173e-07
40
0.99999782882573296
40
0.99999782882573296
40
0.99999782882573296
40
0.99999782882573296
10
286.47080790466623
20
125.5628693719259
30
0
10
287.09731112583557
20
127.93809061486795
30
0
10
288.64872959616355
20
129.97226295473743
30
0
10
290.77368504821101
20
131.2046536339069
30
0
0
LINE
5
299
100
AcDbEntity
8
0
100
AcDbLine
10
276.11972240286059
20
125.00876735047623
30
0
11
285.65111522890373
21
122.45522241875877
31
0
0
LINE
5
300
100
AcDbEntity
8
0
100
AcDbLine
10
247.40686040850471
20
121.99701672084981
30
0
11
250.68152351788683
21
117.56899838923259
31
0
0
SPLINE
5
301
100
AcDbEntity
8
0
100
AcDbSpline
70
0
71
3
72
8
73
4
74
0
42
0.000000001
43
0.0000000001
44
0.0000000001
40
0.62015236722856437
40
0.62015236722856437
40
0.62015236722856437
40
0.62015236722856437
40
1
40
1
40
1
40
1
10
308.24873594498212
20
129.33998607556177
30
0
10
308.872949366689
20
130.02202475174303
30
0
10
309.60155818573702
20
130.61327261403275
30
0
10
310.41343671190992
20
131.08761898285653
30
0
0
SPLINE
5
302
100
AcDbEntity
8
0
100
AcDbSpline
70
0
71
3
72
14
73
10
74
0
42
0.000000001
43
0.0000000001
44
0.0000000001
40
5.2503945073621083e-08
40
5.2503945073621083e-08
40
5.2503945073621083e-08
40
5.2503945073621083e-08
40
0.42490153242032108
40
0.42490153242032108
40
0.42490153242032108
40
0.88450488933726557
40
0.88450488933726557
40
0.88450488933726557
40
1
40
1
40
1
40
1
10
243.65672378696163
20
116.65498861908104
30
0
10
244.22460646108937
20
118.77376383739902
30
0
10
245.51411203177395
20
120.59575048827847
30
0
10
247.16848892453217
20
121.82549170040264
30
0
10
248.95797945223558
20
123.1556663784071
30
0
10
251.21080618929525
20
123.85036450109251
30
0
10
253.53805461389339
20
123.67950140645451
30
0
10
254.12287587399396
20
123.63656470521768
30
0
10
254.70968930421068
20
123.53871946780404
30
0
10
255.285956154253
20
123.38566829395592
30
0
0
LINE
5
303
100
AcDbEntity
8
0
100
AcDbLine
10
255.28595615425303
20
123.3856682939559
30
0
11
265.74303949491434
21
120.60836514774368
31
0
0
SPLINE
5
304
100
AcDbEntity
8
0
100
AcDbSpline
70
0
71
3
72
8
73
4
74
0
42
0.000000001
43
0.0000000001
44
0.0000000001
40
0
40
0
40
0
40
0
40
1
40
1
40
1
40
1
10
310.41343671191009
20
131.08761898285661
30
0
10
312.55081726329058
20
132.33640026066811
30
0
10
315.10676617885059
20
132.67966071546726
30
0
10
317.49788102609381
20
132.03906359467877
30
0
0
LINE
5
305
100
AcDbEntity
8
0
100
AcDbLine
10
297.80747457428879
20
132.13767907369251
30
0
11
308.24873594498206
21
129.33998607556165
31
0
0
CIRCLE
5
306
100
AcDbEntity
8
0
100
AcDbCircle
10
390.01654500000001
20
19.775973028682792
30
0
40
1.9999999999999931
210
0
220
0
230
1
0
LWPOLYLINE
5
307
100
AcDbEntity
8
0
100
AcDbPolyline
90
4
70
1
43
0.0
10
140.47743199106992
20
92.259991463226527
10
144.12630753677345
20
78.640290991069918
10
157.74600800893009
20
82.289166536773465
10
154.09713246322656
20
95.908867008930088
0
LWPOLYLINE
5
308
100
AcDbEntity
8
0
100
AcDbPolyline
90
4
70
1
43
0.0
10
124.26461199106997
20
75.490911463226539
10
127.91348753677349
20
61.871210991069901
10
141.53318800893007
20
65.520086536773462
10
137.88431246322654
20
79.139787008930085
0
LWPOLYLINE
5
309
100
AcDbEntity
8
0
100
AcDbPolyline
90
4
70
1
43
0.0
10
114.4297319910699
20
112.19645146322654
10
118.07860753677345
20
98.576750991069929
10
131.69830800893007
20
102.22562653677346
10
128.04943246322654
20
115.84532700893007
0
LWPOLYLINE
5
310
100
AcDbEntity
8
0
100
AcDbPolyline
90
4
70
1
43
0.0
10
97.759711991069935
20
101.00013146322654
10
101.40858753677348
20
87.3804309910699
10
115.0282880089301
20
91.029306536773476
10
111.37941246322654
20
104.6490070089301
0
LWPOLYLINE
5
311
100
AcDbEntity
8
0
100
AcDbPolyline
90
4
70
1
43
0.0
10
55.698968008930088
20
92.215486536773454
10
52.05009246322652
20
105.83518700893008
10
38.430391991069946
20
102.18631146322656
10
42.079267536773486
20
88.566610991069894
0
LWPOLYLINE
5
312
100
AcDbEntity
8
0
100
AcDbPolyline
90
4
70
1
43
0.0
10
-102.06698019793181
20
78.640272136484256
10
-98.415513136484293
20
92.259958802068226
10
-112.03519980206826
20
95.911425863515731
10
-115.68666686351578
20
82.291739197931776
0
LWPOLYLINE
5
313
100
AcDbEntity
8
0
100
AcDbPolyline
90
4
70
1
43
0.0
10
-80.936720198381096
20
80.227799741493001
10
-77.285246229845015
20
93.844916950383492
10
-90.904939802068242
20
97.496385863515741
10
-94.5564137697056
20
83.876673438383648
0
LWPOLYLINE
5
314
100
AcDbEntity
8
0
100
AcDbPolyline
90
4
70
1
43
0.0
10
-64.266695143185729
20
69.031470990291979
10
-60.615226230294475
20
82.651164561616326
10
-74.23495246322652
20
86.300047008930107
10
-77.883826159700348
20
72.680353439161692
0
LWPOLYLINE
5
315
100
AcDbEntity
8
0
100
AcDbPolyline
90
4
70
1
43
0.0
10
-39.702360197931789
20
87.294052136484268
10
-36.05089313648422
20
100.91373880206822
10
-49.670579802068232
20
104.56520586351574
10
-53.322046863515752
20
90.945519197931773
0
LWPOLYLINE
5
316
100
AcDbEntity
8
0
100
AcDbPolyline
90
4
70
1
43
0.0
10
-14.908172463226531
20
87.483687008930076
10
-18.557048008930099
20
73.863986536773453
10
-4.9373475367735082
20
70.215110991069892
10
-1.2884719910699771
20
83.834811463226544
0
LWPOLYLINE
5
317
100
AcDbEntity
8
0
100
AcDbPolyline
90
4
70
1
43
0.0
10
-32.611946707030398
20
94.816660108546742
10
-36.263413769705565
20
81.196973438383665
10
-22.64371329296965
20
77.548097891453253
10
-18.992246230294445
20
91.16778456161633
0
LWPOLYLINE
5
318
100
AcDbEntity
8
0
100
AcDbPolyline
90
4
70
1
43
0.0
10
-19.825612463226541
20
69.132187008930089
10
-23.474488008930109
20
55.512486536773451
10
-9.8547875367734825
20
51.863610991069905
10
-6.2059119910699492
20
65.483311463226542
0
LWPOLYLINE
5
319
100
AcDbEntity
8
0
100
AcDbPolyline
90
4
70
1
43
0.0
10
-34.784915143185657
20
105.64811099029198
10
-31.13344623029446
20
119.26780456161634
10
-44.753172463226534
20
122.9166870089301
10
-48.402046159700319
20
109.29699343916172
0
LWPOLYLINE
5
320
100
AcDbEntity
8
0
100
AcDbPolyline
90
4
70
1
43
0.0
10
-59.346687536773501
20
87.382970991069897
10
-55.697811991069926
20
101.00267146322656
10
-69.317512463226507
20
104.65154700893008
10
-72.966388008930124
20
91.031846536773458
0
LWPOLYLINE
5
321
100
AcDbEntity
8
0
100
AcDbPolyline
90
4
70
1
43
0.0
10
-106.98441329296963
20
60.288797891453278
10
-103.33294623029447
20
73.908484561616334
10
-116.95264670703041
20
77.557360108546732
10
-120.60411376970562
20
63.937673438383662
0
LWPOLYLINE
5
322
100
AcDbEntity
8
0
100
AcDbPolyline
90
4
70
1
43
0.0
10
65.971611991069906
20
72.813751463226524
10
69.620487536773481
20
59.194050991069915
10
83.24018800893009
20
62.842926536773476
10
79.591312463226572
20
76.462627008930085
0
LWPOLYLINE
5
323
100
AcDbEntity
8
0
100
AcDbPolyline
90
4
70
1
43
0.0
10
61.054171991069936
20
91.165251463226554
10
64.703047536773468
20
77.545550991069931
10
78.322748008930063
20
81.194426536773477
10
74.673872463226559
20
94.814127008930086
0
LWPOLYLINE
5
324
100
AcDbEntity
8
0
100
AcDbPolyline
90
4
70
1
43
0.0
10
56.136731990292006
20
109.51672385681431
10
59.785614439161741
20
95.899592840299704
10
73.405308008930064
20
99.548466536773446
10
69.756425561616325
20
113.1681927697056
0
LWPOLYLINE
5
325
100
AcDbEntity
8
0
100
AcDbPolyline
90
4
70
1
43
0.0
10
102.67715199106991
20
82.64863146322655
10
106.32602753677345
20
69.028930991069913
10
119.9457280089301
20
72.677806536773474
10
116.29685246322654
20
86.297507008930097
0
LWPOLYLINE
5
326
100
AcDbEntity
8
0
100
AcDbPolyline
90
4
70
1
43
0.0
10
92.842271991069921
20
119.35417146322652
10
96.491147536773497
20
105.73447099106993
10
110.11084800893008
20
109.38334653677347
10
106.46197246322654
20
123.00304700893007
0
LWPOLYLINE
5
327
100
AcDbEntity
8
0
100
AcDbPolyline
90
4
70
1
43
0.0
10
119.34717199106987
20
93.844951463226522
10
122.9960475367735
20
80.225250991069913
10
136.61574800893004
20
83.87412653677346
10
132.96687246322651
20
97.493827008930083
0
LWPOLYLINE
5
328
100
AcDbEntity
8
0
100
AcDbPolyline
90
4
70
1
43
0.0
10
135.55999199106995
20
110.61149146322654
10
139.20886753677348
20
96.991790991069934
10
152.82856800893009
20
100.64066653677347
10
149.17969246322656
20
114.26036700893009
0
LWPOLYLINE
5
329
100
AcDbEntity
8
0
100
AcDbPolyline
90
4
70
1
43
0.0
10
-110.76923376970562
20
100.64321343838367
10
-107.11776670703043
20
114.26290010854673
10
-93.498066230294441
20
110.61402456161636
10
-97.149533292969636
20
96.994337891453284
0
LWPOLYLINE
5
330
100
AcDbEntity
8
0
100
AcDbPolyline
90
4
70
1
43
0.0
10
-95.822386707030404
20
79.142320108546741
10
-82.202686230294404
20
75.493444561616329
10
-85.854153292969627
20
61.873757891453266
10
-99.473853769705585
20
65.52263343838365
0
LWPOLYLINE
5
331
100
AcDbEntity
8
0
100
AcDbPolyline
90
4
70
1
43
0.0
10
-85.987506707030406
20
115.84786010854671
10
-72.367806230294434
20
112.19898456161633
10
-76.019273292969643
20
98.57929789145328
10
-89.638973769705615
20
102.22817343838366
0
LWPOLYLINE
5
332
100
AcDbEntity
8
0
100
AcDbPolyline
90
4
70
1
43
0.0
10
-64.400065561616358
20
123.00561276970561
10
-50.780378891453225
20
119.35414570703037
10
-54.429254438383687
20
105.73444523029443
10
-68.048941108546742
20
109.38591229296962
0
LWPOLYLINE
5
333
100
AcDbEntity
8
0
100
AcDbPolyline
90
4
70
1
43
0.0
10
-54.588026707030394
20
86.211140108546715
10
-40.96832623029443
20
82.562264561616331
10
-44.619793292969632
20
68.942577891453269
10
-58.239493769705597
20
72.591453438383667
0
LWPOLYLINE
5
334
100
AcDbEntity
8
0
100
AcDbPolyline
90
4
70
1
43
0.0
10
-27.694499802068236
20
113.17072586351577
10
-14.074813136484266
20
109.51925880206821
10
-17.726280197931796
20
95.899572136484252
10
-31.345966863515777
20
99.5510391979318
0
LWPOLYLINE
5
335
100
AcDbEntity
8
0
100
AcDbPolyline
90
4
70
1
43
0.0
10
-37.529379802068213
20
76.465185863515742
10
-23.90968622984504
20
72.81371695038348
10
-27.561160198381142
20
59.196599741492989
10
-41.180853769705564
20
62.845473438383657
0
LWPOLYLINE
5
336
100
AcDbEntity
8
0
100
AcDbPolyline
90
4
70
1
43
0.0
10
-9.9907324632265642
20
105.83772700893009
10
3.6289680089300624
20
102.18885146322651
10
-0.019907536773465795
20
88.569150991069918
10
-13.639608008930091
20
92.218026536773493
0
LWPOLYLINE
5
337
100
AcDbEntity
8
0
100
AcDbPolyline
90
4
70
1
43
0.0
10
-43.742252463226563
20
53.282587008930086
10
-30.122551991069926
20
49.633711463226547
10
-33.771427536773473
20
36.014010991069895
10
-47.391128008930103
20
39.662886536773456
0
LWPOLYLINE
5
338
100
AcDbEntity
8
0
100
AcDbPolyline
90
4
70
1
43
0.0
10
-22.433696717781917
20
46.833916710192312
10
-9.6548422898077177
20
40.875295717781917
10
-15.613463282218108
20
28.096441289807682
10
-28.392317710192351
20
34.055062282218088
0
LWPOLYLINE
5
339
100
AcDbEntity
8
0
100
AcDbPolyline
90
4
70
1
43
0.0
10
-2.5681939324933269
20
36.785116310268293
10
8.9805367257580233
20
28.69581440874704
10
0.8938339327864453
20
17.147089303251647
10
-10.65489672605114
20
25.233795984810733
0
LWPOLYLINE
5
340
100
AcDbEntity
8
0
100
AcDbPolyline
90
4
70
1
43
0.0
10
33.078814191253009
20
28.693287380281308
10
44.630103016851734
20
36.782563333862839
10
52.71680580708459
20
25.231243013154753
10
41.165516984810743
20
17.144562273948893
0
LWPOLYLINE
5
341
100
AcDbEntity
8
0
100
AcDbPolyline
90
4
70
1
43
0.0
10
51.714179611386726
20
40.872745143116063
10
64.493034043143481
20
46.831366137290232
10
70.4542403886133
20
34.052532856883914
10
57.675385956856573
20
28.093911862709749
0
LWPOLYLINE
5
342
100
AcDbEntity
8
0
100
AcDbPolyline
90
4
70
1
43
0.0
10
48.265246230294437
20
65.48076456161634
10
61.884972463226553
20
69.129647008930107
10
65.533846159700317
20
55.50995343916172
10
51.916715143185698
20
51.861070990291999
0
LWPOLYLINE
5
343
100
AcDbEntity
8
0
100
AcDbPolyline
90
4
70
1
43
0.0
10
72.184451991069935
20
49.631171463226529
10
85.804152463226472
20
53.280047008930097
10
89.453028008930104
20
39.660346536773446
10
75.833327536773496
20
36.011470991069913
0
LWPOLYLINE
5
344
100
AcDbEntity
8
0
100
AcDbPolyline
90
4
70
1
43
0.0
10
60.616408008930122
20
73.861446536773443
10
46.996707536773449
20
70.212570991069938
10
43.34783199106991
20
83.832271463226519
10
56.96753246322659
20
87.481147008930108
0
LWPOLYLINE
5
345
100
AcDbEntity
8
0
100
AcDbPolyline
90
4
70
1
43
0.0
10
83.03025199106996
20
82.559731463226541
10
96.649952463226469
20
86.208607008930073
10
100.29882800893012
20
72.588906536773464
10
86.679127536773507
20
68.940030991069918
0
LWPOLYLINE
5
346
100
AcDbEntity
8
0
100
AcDbPolyline
90
4
70
1
43
0.0
10
78.112811990291959
20
100.91120385681432
10
91.732505561616321
20
104.56267276970559
10
95.381388008930074
20
90.942946536773491
10
81.76169443916173
20
87.294072840299719
0
LWPOLYLINE
5
347
100
AcDbEntity
8
0
100
AcDbPolyline
90
4
70
1
43
0.0
10
73.195371991069919
20
119.26527146322653
10
86.815072463226556
20
122.91414700893009
10
90.463948008930103
20
109.29444653677348
10
76.844247536773423
20
105.64557099106993
0
LWPOLYLINE
5
348
100
AcDbEntity
8
0
100
AcDbPolyline
90
4
70
1
43
0.0
10
145.39487199106992
20
73.905951463226558
10
159.01457246322653
20
77.554827008930076
10
162.66344800893006
20
63.935126536773453
10
149.04374753677354
20
60.286250991069927
0
LINE
5
349
100
AcDbEntity
8
0
100
AcDbLine
10
165.29794023501054
20
55.801800177735863
30
0
11
141.14999811102777
21
49.330564501595319
31
0
0
LINE
5
350
100
AcDbEntity
8
0
100
AcDbLine
10
141.14999811102777
20
49.330564501595319
30
0
11
124.72926738868287
21
44.93060966725438
31
0
0
LINE
5
351
100
AcDbEntity
8
0
100
AcDbLine
10
141.14999811102777
20
49.330564501595319
30
0
11
142.57366995929712
21
44.018017236116115
31
0
0
LINE
5
352
100
AcDbEntity
8
0
100
AcDbLine
10
124.72926738868287
20
44.93060966725438
30
0
11
126.15278218719708
21
39.618020319010292
31
0
0
LINE
5
353
100
AcDbEntity
8
0
100
AcDbLine
10
11.785819692555693
20
69.970603978353097
30
0
11
11.785311565156245
21
67.390065347254676
31
0
0
LINE
5
354
100
AcDbEntity
8
0
100
AcDbLine
10
30.185113385802698
20
69.966981019509007
30
0
11
30.18459777378386
21
67.348431548041361
31
0
0
CIRCLE
5
355
100
AcDbEntity
8
0
100
AcDbCircle
10
20.951269041868738
20
54.482509426343341
30
0
40
17.5
210
0
220
0
230
1
0
LINE
5
356
100
AcDbEntity
8
0
100
AcDbLine
10
7.1455871547106531
20
103.72489950337408
30
0
11
7.1458929118775929
21
105.2776872756739
31
0
0
LINE
5
357
100
AcDbEntity
8
0
100
AcDbLine
10
34.885285368616024
20
103.7352533911755
30
0
11
34.88559136861862
21
105.28927440433377
31
0
0
LINE
5
358
100
AcDbEntity
8
0
100
AcDbLine
10
7.1455871547106531
20
103.72489950337408
30
0
11
-8.6594310202963278
21
44.714459965308009
31
0
0
LINE
5
359
100
AcDbEntity
8
0
100
AcDbLine
10
-8.6594310202963278
20
44.714459965308009
30
0
11
13.159712165836122
21
29.431253378527067
31
0
0
LINE
5
360
100
AcDbEntity
8
0
100
AcDbLine
10
13.159712165836122
20
29.431253378527067
30
0
11
1.211511769844579
21
12.373347776293468
31
0
0
LINE
5
361
100
AcDbEntity
8
0
100
AcDbLine
10
40.834046105901834
20
12.387685859248631
30
0
11
28.900326034543813
21
29.429594490024819
31
0
0
LINE
5
362
100
AcDbEntity
8
0
100
AcDbLine
10
28.900326034543813
20
29.429594490024819
30
0
11
50.834415580779137
21
44.789863444330791
31
0
0
LINE
5
363
100
AcDbEntity
8
0
100
AcDbLine
10
50.834415580779137
20
44.789863444330791
30
0
11
34.885285368616024
21
103.7352533911755
31
0
0
LINE
5
364
100
AcDbEntity
8
0
100
AcDbLine
10
32.886099166845042
20
103.46644989324273
30
0
11
32.886394529643297
21
104.96644986416301
31
0
0
LINE
5
365
100
AcDbEntity
8
0
100
AcDbLine
10
11.785311565156245
20
67.390065347254676
30
0
11
11.785107964139748
21
66.356072122397393
31
0
0
LINE
5
366
100
AcDbEntity
8
0
100
AcDbLine
10
30.18459777378386
20
67.348431548041361
30
0
11
30.184392132362753
21
66.304076073610801
31
0
0
ENDSEC
0
SECTION
2
OBJECTS
0
DICTIONARY
5
C
100
AcDbDictionary
3
ACAD_GROUP
350
D
3
ACAD_MLINESTYLE
350
17
0
DICTIONARY
5
D
100
AcDbDictionary
0
DICTIONARY
5
1A
330
C
100
AcDbDictionary
0
DICTIONARY
5
17
100
AcDbDictionary
0
ENDSEC
0
EOF
