<?xml version="1.0" encoding="UTF-8" standalone="no"?>
<svg
   version="1.1"
   width="291.4142mm"
   height="109.2454mm"
   viewBox="0.0000 0.0000 291.4142 109.2454"
   id="svg1142"
   sodipodi:docname="ffkb-lite-min-y.svg"
   inkscape:version="1.2.2 (732a01da63, 2022-12-09)"
   xmlns:inkscape="http://www.inkscape.org/namespaces/inkscape"
   xmlns:sodipodi="http://sodipodi.sourceforge.net/DTD/sodipodi-0.dtd"
   xmlns="http://www.w3.org/2000/svg"
   xmlns:svg="http://www.w3.org/2000/svg">
  <defs
     id="defs1146" />
  <sodipodi:namedview
     id="namedview1144"
     pagecolor="#ffffff"
     bordercolor="#000000"
     borderopacity="0.25"
     inkscape:showpageshadow="2"
     inkscape:pageopacity="0.0"
     inkscape:pagecheckerboard="0"
     inkscape:deskcolor="#d1d1d1"
     inkscape:document-units="mm"
     showgrid="false"
     inkscape:zoom="1.5536462"
     inkscape:cx="652.98008"
     inkscape:cy="220.12734"
     inkscape:window-width="3440"
     inkscape:window-height="1369"
     inkscape:window-x="-8"
     inkscape:window-y="-8"
     inkscape:window-maximized="1"
     inkscape:current-layer="svg1142" />
  <title
     id="title2">SVG Image created as ffkb-brd.svg date 2023/10/02 21:05:10 </title>
  <desc
     id="desc4">Image generated by PCBNEW </desc>
  <g
     style="fill:#000000; fill-opacity:1.0000;stroke:#000000; stroke-opacity:1.0000; stroke-linecap:round; stroke-linejoin:round;"
     transform="translate(0 0) scale(1 1)"
     id="g6" />
  <g
     style="fill:#000000; fill-opacity:0.0;  stroke:#000000; stroke-width:0.0000; stroke-opacity:1;  stroke-linecap:round; stroke-linejoin:round;"
     id="g8" />
  <g
     style="fill:#000000; fill-opacity:0.0;  stroke:#000000; stroke-width:0.2000; stroke-opacity:1;  stroke-linecap:round; stroke-linejoin:round;"
     id="g26">
    <path
       d="M149.4137 20.8603 L149.4137 25.9403 "
       id="path10" />
    <path
       d="M142.0477 20.8603 L149.4137 20.8603 "
       id="path12" />
    <path
       d="M149.4137 25.9403 L142.0477 25.9403 "
       id="path14" />
    <path
       d="M142.0477 25.9403 L142.0477 20.8603 "
       id="path16" />
    <path
       d="M149.4237 20.8503 L149.4237 25.9303 "
       id="path18" />
    <path
       d="M142.0577 20.8503 L149.4237 20.8503 "
       id="path20" />
    <path
       d="M149.4237 25.9303 L142.0577 25.9303 "
       id="path22" />
    <path
       d="M142.0577 25.9303 L142.0577 20.8503 "
       id="path24" />
  </g>
  <g
     style="fill:#000000; fill-opacity:0.0;  stroke:#000000; stroke-width:0.1200; stroke-opacity:1;  stroke-linecap:round; stroke-linejoin:round;"
     id="g30">
    <circle
       cx="154.6399"
       cy="102.9846"
       r="1.7500"
       id="circle28" />
  </g>
  <g
     style="fill:#000000; fill-opacity:0.0;  stroke:#000000; stroke-width:0.1500; stroke-opacity:1;  stroke-linecap:round; stroke-linejoin:round;"
     id="g240" />
  <g
     style="fill:#000000; fill-opacity:0.0;  stroke:#000000; stroke-width:0.1200; stroke-opacity:1;  stroke-linecap:round; stroke-linejoin:round;"
     id="g764">
    <path
       d="M51.2807 33.6259 L47.6573 47.1489 "
       id="path242" />
    <path
       d="M47.6573 47.1489 L61.1802 50.7724 "
       id="path244" />
    <path
       d="M64.8037 37.2494 L51.2807 33.6259 "
       id="path246" />
    <path
       d="M61.1802 50.7724 L64.8037 37.2494 "
       id="path248" />
    <path
       d="M80.9978 69.5410 L77.3743 83.0640 "
       id="path250" />
    <path
       d="M77.3743 83.0640 L90.8973 86.6875 "
       id="path252" />
    <path
       d="M94.5208 73.1645 L80.9978 69.5410 "
       id="path254" />
    <path
       d="M90.8973 86.6875 L94.5208 73.1645 "
       id="path256" />
    <path
       d="M70.9274 33.7139 L67.3040 47.2368 "
       id="path258" />
    <path
       d="M67.3040 47.2368 L80.8269 50.8603 "
       id="path260" />
    <path
       d="M84.4504 37.3373 L70.9274 33.7139 "
       id="path262" />
    <path
       d="M80.8269 50.8603 L84.4504 37.3373 "
       id="path264" />
    <path
       d="M122.1486 86.0476 L114.1185 97.5157 "
       id="path266" />
    <path
       d="M114.1185 97.5157 L125.5867 105.5458 "
       id="path268" />
    <path
       d="M133.6167 94.0777 L122.1486 86.0476 "
       id="path270" />
    <path
       d="M125.5867 105.5458 L133.6167 94.0777 "
       id="path272" />
    <path
       d="M105.6915 50.7934 L102.0680 64.3164 "
       id="path274" />
    <path
       d="M102.0680 64.3164 L115.5910 67.9398 "
       id="path276" />
    <path
       d="M119.2144 54.4169 L105.6915 50.7934 "
       id="path278" />
    <path
       d="M115.5910 67.9398 L119.2144 54.4169 "
       id="path280" />
    <path
       d="M29.6929 40.7824 L26.0695 54.3054 "
       id="path282" />
    <path
       d="M26.0695 54.3054 L39.5924 57.9289 "
       id="path284" />
    <path
       d="M43.2159 44.4059 L29.6929 40.7824 "
       id="path286" />
    <path
       d="M39.5924 57.9289 L43.2159 44.4059 "
       id="path288" />
    <path
       d="M92.1270 28.0062 L88.5036 41.5292 "
       id="path290" />
    <path
       d="M88.5036 41.5292 L102.0265 45.1527 "
       id="path292" />
    <path
       d="M105.6500 31.6297 L92.1270 28.0062 "
       id="path294" />
    <path
       d="M102.0265 45.1527 L105.6500 31.6297 "
       id="path296" />
    <path
       d="M102.2953 75.9942 L96.3786 88.6825 "
       id="path298" />
    <path
       d="M96.3786 88.6825 L109.0669 94.5992 "
       id="path300" />
    <path
       d="M114.9836 81.9109 L102.2953 75.9942 "
       id="path302" />
    <path
       d="M109.0669 94.5992 L114.9836 81.9109 "
       id="path304" />
    <path
       d="M96.2681 12.5514 L92.6447 26.0744 "
       id="path306" />
    <path
       d="M92.6447 26.0744 L106.1676 29.6978 "
       id="path308" />
    <path
       d="M109.7911 16.1749 L96.2681 12.5514 "
       id="path310" />
    <path
       d="M106.1676 29.6978 L109.7911 16.1749 "
       id="path312" />
    <path
       d="M87.9859 43.4610 L84.3625 56.9840 "
       id="path314" />
    <path
       d="M84.3625 56.9840 L97.8854 60.6075 "
       id="path316" />
    <path
       d="M101.5089 47.0845 L87.9859 43.4610 "
       id="path318" />
    <path
       d="M97.8854 60.6075 L101.5089 47.0845 "
       id="path320" />
    <path
       d="M55.4218 18.1711 L51.7984 31.6941 "
       id="path322" />
    <path
       d="M51.7984 31.6941 L65.3213 35.3175 "
       id="path324" />
    <path
       d="M68.9448 21.7946 L55.4218 18.1711 "
       id="path326" />
    <path
       d="M65.3213 35.3175 L68.9448 21.7946 "
       id="path328" />
    <path
       d="M79.2096 2.8042 L75.5862 16.3272 "
       id="path330" />
    <path
       d="M75.5862 16.3272 L89.1091 19.9506 "
       id="path332" />
    <path
       d="M92.7326 6.4277 L79.2096 2.8042 "
       id="path334" />
    <path
       d="M89.1091 19.9506 L92.7326 6.4277 "
       id="path336" />
    <path
       d="M109.8326 35.3386 L106.2091 48.8616 "
       id="path338" />
    <path
       d="M106.2091 48.8616 L119.7321 52.4850 "
       id="path340" />
    <path
       d="M123.3555 38.9621 L109.8326 35.3386 "
       id="path342" />
    <path
       d="M119.7321 52.4850 L123.3555 38.9621 "
       id="path344" />
    <path
       d="M113.9737 19.8838 L110.3502 33.4068 "
       id="path346" />
    <path
       d="M110.3502 33.4068 L123.8732 37.0302 "
       id="path348" />
    <path
       d="M127.4966 23.5073 L113.9737 19.8838 "
       id="path350" />
    <path
       d="M123.8732 37.0302 L127.4966 23.5073 "
       id="path352" />
    <path
       d="M75.0685 18.2590 L71.4451 31.7820 "
       id="path354" />
    <path
       d="M71.4451 31.7820 L84.9680 35.4055 "
       id="path356" />
    <path
       d="M88.5915 21.8825 L75.0685 18.2590 "
       id="path358" />
    <path
       d="M84.9680 35.4055 L88.5915 21.8825 "
       id="path360" />
    <path
       d="M59.5630 2.7163 L55.9395 16.2393 "
       id="path362" />
    <path
       d="M55.9395 16.2393 L69.4624 19.8627 "
       id="path364" />
    <path
       d="M73.0859 6.3398 L59.5630 2.7163 "
       id="path366" />
    <path
       d="M69.4624 19.8627 L73.0859 6.3398 "
       id="path368" />
    <path
       d="M33.8340 25.3276 L30.2106 38.8506 "
       id="path370" />
    <path
       d="M30.2106 38.8506 L43.7335 42.4740 "
       id="path372" />
    <path
       d="M47.3570 28.9511 L33.8340 25.3276 "
       id="path374" />
    <path
       d="M43.7335 42.4740 L47.3570 28.9511 "
       id="path376" />
    <path
       d="M157.8532 94.0799 L165.8833 105.5480 "
       id="path378" />
    <path
       d="M165.8833 105.5480 L177.3514 97.5180 "
       id="path380" />
    <path
       d="M169.3214 86.0499 L157.8532 94.0799 "
       id="path382" />
    <path
       d="M177.3514 97.5180 L169.3214 86.0499 "
       id="path384" />
    <path
       d="M226.6663 37.2517 L230.2897 50.7746 "
       id="path386" />
    <path
       d="M230.2897 50.7746 L243.8127 47.1512 "
       id="path388" />
    <path
       d="M240.1892 33.6282 L226.6663 37.2517 "
       id="path390" />
    <path
       d="M243.8127 47.1512 L240.1892 33.6282 "
       id="path392" />
    <path
       d="M176.4864 81.9131 L182.4030 94.6014 "
       id="path394" />
    <path
       d="M182.4030 94.6014 L195.0913 88.6848 "
       id="path396" />
    <path
       d="M189.1747 75.9965 L176.4864 81.9131 "
       id="path398" />
    <path
       d="M195.0913 88.6848 L189.1747 75.9965 "
       id="path400" />
    <path
       d="M196.9492 73.1668 L200.5727 86.6897 "
       id="path402" />
    <path
       d="M200.5727 86.6897 L214.0956 83.0663 "
       id="path404" />
    <path
       d="M210.4721 69.5433 L196.9492 73.1668 "
       id="path406" />
    <path
       d="M214.0956 83.0663 L210.4721 69.5433 "
       id="path408" />
    <path
       d="M248.2541 44.4082 L251.8776 57.9311 "
       id="path410" />
    <path
       d="M251.8776 57.9311 L265.4005 54.3077 "
       id="path412" />
    <path
       d="M261.7770 40.7847 L248.2541 44.4082 "
       id="path414" />
    <path
       d="M265.4005 54.3077 L261.7770 40.7847 "
       id="path416" />
    <path
       d="M172.2555 54.4192 L175.8790 67.9421 "
       id="path418" />
    <path
       d="M175.8790 67.9421 L189.4020 64.3187 "
       id="path420" />
    <path
       d="M185.7785 50.7957 L172.2555 54.4192 "
       id="path422" />
    <path
       d="M189.4020 64.3187 L185.7785 50.7957 "
       id="path424" />
    <path
       d="M189.9611 47.0868 L193.5845 60.6098 "
       id="path426" />
    <path
       d="M193.5845 60.6098 L207.1075 56.9863 "
       id="path428" />
    <path
       d="M203.4840 43.4633 L189.9611 47.0868 "
       id="path430" />
    <path
       d="M207.1075 56.9863 L203.4840 43.4633 "
       id="path432" />
    <path
       d="M207.0196 37.3396 L210.6430 50.8626 "
       id="path434" />
    <path
       d="M210.6430 50.8626 L224.1660 47.2391 "
       id="path436" />
    <path
       d="M220.5425 33.7161 L207.0196 37.3396 "
       id="path438" />
    <path
       d="M224.1660 47.2391 L220.5425 33.7161 "
       id="path440" />
    <path
       d="M244.1130 28.9534 L247.7364 42.4763 "
       id="path442" />
    <path
       d="M247.7364 42.4763 L261.2594 38.8529 "
       id="path444" />
    <path
       d="M257.6359 25.3299 L244.1130 28.9534 "
       id="path446" />
    <path
       d="M261.2594 38.8529 L257.6359 25.3299 "
       id="path448" />
    <path
       d="M181.6789 16.1772 L185.3023 29.7001 "
       id="path450" />
    <path
       d="M185.3023 29.7001 L198.8253 26.0767 "
       id="path452" />
    <path
       d="M195.2018 12.5537 L181.6789 16.1772 "
       id="path454" />
    <path
       d="M198.8253 26.0767 L195.2018 12.5537 "
       id="path456" />
    <path
       d="M218.3841 6.3420 L222.0075 19.8650 "
       id="path458" />
    <path
       d="M222.0075 19.8650 L235.5305 16.2415 "
       id="path460" />
    <path
       d="M231.9070 2.7186 L218.3841 6.3420 "
       id="path462" />
    <path
       d="M235.5305 16.2415 L231.9070 2.7186 "
       id="path464" />
    <path
       d="M198.7374 6.4300 L202.3608 19.9529 "
       id="path466" />
    <path
       d="M202.3608 19.9529 L215.8838 16.3295 "
       id="path468" />
    <path
       d="M212.2603 2.8065 L198.7374 6.4300 "
       id="path470" />
    <path
       d="M215.8838 16.3295 L212.2603 2.8065 "
       id="path472" />
    <path
       d="M168.1144 38.9644 L171.7379 52.4873 "
       id="path474" />
    <path
       d="M171.7379 52.4873 L185.2609 48.8638 "
       id="path476" />
    <path
       d="M181.6374 35.3409 L168.1144 38.9644 "
       id="path478" />
    <path
       d="M185.2609 48.8638 L181.6374 35.3409 "
       id="path480" />
    <path
       d="M222.5252 21.7969 L226.1486 35.3198 "
       id="path482" />
    <path
       d="M226.1486 35.3198 L239.6716 31.6963 "
       id="path484" />
    <path
       d="M236.0481 18.1734 L222.5252 21.7969 "
       id="path486" />
    <path
       d="M239.6716 31.6963 L236.0481 18.1734 "
       id="path488" />
    <path
       d="M185.8200 31.6320 L189.4434 45.1549 "
       id="path490" />
    <path
       d="M189.4434 45.1549 L202.9664 41.5315 "
       id="path492" />
    <path
       d="M199.3429 28.0085 L185.8200 31.6320 "
       id="path494" />
    <path
       d="M202.9664 41.5315 L199.3429 28.0085 "
       id="path496" />
    <path
       d="M202.8785 21.8848 L206.5019 35.4077 "
       id="path498" />
    <path
       d="M206.5019 35.4077 L220.0249 31.7843 "
       id="path500" />
    <path
       d="M216.4014 18.2613 L202.8785 21.8848 "
       id="path502" />
    <path
       d="M220.0249 31.7843 L216.4014 18.2613 "
       id="path504" />
    <path
       d="M239.9719 13.4985 L243.5953 27.0215 "
       id="path506" />
    <path
       d="M243.5953 27.0215 L257.1183 23.3980 "
       id="path508" />
    <path
       d="M253.4948 9.8751 L239.9719 13.4985 "
       id="path510" />
    <path
       d="M257.1183 23.3980 L253.4948 9.8751 "
       id="path512" />
    <path
       d="M163.9733 23.5095 L167.5968 37.0325 "
       id="path514" />
    <path
       d="M167.5968 37.0325 L181.1198 33.4090 "
       id="path516" />
    <path
       d="M177.4963 19.8861 L163.9733 23.5095 "
       id="path518" />
    <path
       d="M181.1198 33.4090 L177.4963 19.8861 "
       id="path520" />
    <path
       d="M16.8449 11.4579 L13.2214 24.9809 "
       id="path522" />
    <path
       d="M13.2214 24.9809 L26.7444 28.6043 "
       id="path524" />
    <path
       d="M30.3678 15.0814 L16.8449 11.4579 "
       id="path526" />
    <path
       d="M26.7444 28.6043 L30.3678 15.0814 "
       id="path528" />
    <path
       d="M261.1021 15.0836 L264.7256 28.6066 "
       id="path530" />
    <path
       d="M264.7256 28.6066 L278.2485 24.9831 "
       id="path532" />
    <path
       d="M274.6251 11.4602 L261.1021 15.0836 "
       id="path534" />
    <path
       d="M278.2485 24.9831 L274.6251 11.4602 "
       id="path536" />
    <path
       d="M12.7038 26.9127 L9.0803 40.4357 "
       id="path538" />
    <path
       d="M9.0803 40.4357 L22.6033 44.0591 "
       id="path540" />
    <path
       d="M26.2267 30.5362 L12.7038 26.9127 "
       id="path542" />
    <path
       d="M22.6033 44.0591 L26.2267 30.5362 "
       id="path544" />
    <path
       d="M265.2432 30.5385 L268.8667 44.0614 "
       id="path546" />
    <path
       d="M268.8667 44.0614 L282.3897 40.4380 "
       id="path548" />
    <path
       d="M278.7662 26.9150 L265.2432 30.5385 "
       id="path550" />
    <path
       d="M282.3897 40.4380 L278.7662 26.9150 "
       id="path552" />
    <path
       d="M8.5627 42.3675 L4.9392 55.8905 "
       id="path554" />
    <path
       d="M4.9392 55.8905 L18.4622 59.5140 "
       id="path556" />
    <path
       d="M22.0856 45.9910 L8.5627 42.3675 "
       id="path558" />
    <path
       d="M18.4622 59.5140 L22.0856 45.9910 "
       id="path560" />
    <path
       d="M269.3843 45.9933 L273.0078 59.5162 "
       id="path562" />
    <path
       d="M273.0078 59.5162 L286.5308 55.8928 "
       id="path564" />
    <path
       d="M282.9073 42.3698 L269.3843 45.9933 "
       id="path566" />
    <path
       d="M286.5308 55.8928 L282.9073 42.3698 "
       id="path568" />
    <path
       d="M37.9751 9.8728 L34.3517 23.3958 "
       id="path570" />
    <path
       d="M34.3517 23.3958 L47.8746 27.0192 "
       id="path572" />
    <path
       d="M51.4981 13.4963 L37.9751 9.8728 "
       id="path574" />
    <path
       d="M47.8746 27.0192 L51.4981 13.4963 "
       id="path576" />
    <g
       id="g578" />
    <g
       id="g580" />
    <g
       id="g582" />
    <g
       id="g584" />
    <g
       id="g586" />
    <g
       id="g588" />
    <g
       id="g590" />
    <g
       id="g592" />
    <g
       id="g594" />
    <g
       id="g596" />
    <g
       id="g598" />
    <g
       id="g600" />
    <g
       id="g602" />
    <g
       id="g604" />
    <g
       id="g606" />
    <g
       id="g608" />
    <g
       id="g610" />
    <g
       id="g612" />
    <g
       id="g614" />
    <g
       id="g616" />
    <g
       id="g618" />
    <g
       id="g620" />
    <g
       id="g622" />
    <g
       id="g624" />
    <g
       id="g626" />
    <g
       id="g628" />
    <g
       id="g630" />
    <g
       id="g632" />
    <g
       id="g634" />
    <g
       id="g636" />
    <g
       id="g638" />
    <g
       id="g640" />
    <g
       id="g642" />
    <g
       id="g644" />
    <g
       id="g646" />
    <g
       id="g648" />
    <g
       id="g650" />
    <g
       id="g652" />
    <g
       id="g654" />
    <g
       id="g656" />
    <g
       id="g658" />
    <g
       id="g660" />
    <g
       id="g662" />
    <g
       id="g664" />
    <g
       id="g666" />
    <g
       id="g668" />
    <g
       id="g670" />
    <g
       id="g672" />
    <g
       id="g674" />
    <g
       id="g676" />
    <g
       id="g678" />
    <g
       id="g680" />
    <g
       id="g682" />
    <g
       id="g684" />
    <g
       id="g686" />
    <g
       id="g688" />
    <g
       id="g690" />
    <g
       id="g692" />
    <g
       id="g694" />
    <g
       id="g696" />
    <g
       id="g698" />
    <g
       id="g700" />
    <g
       id="g702" />
    <g
       id="g704" />
    <g
       id="g706" />
    <g
       id="g708" />
    <g
       id="g710" />
    <g
       id="g712" />
    <g
       id="g714" />
    <g
       id="g716" />
    <g
       id="g718" />
    <g
       id="g720" />
    <g
       id="g722" />
    <g
       id="g724" />
    <g
       id="g726" />
    <g
       id="g728" />
    <g
       id="g730" />
    <g
       id="g732" />
    <g
       id="g734" />
    <g
       id="g736" />
    <g
       id="g738" />
    <g
       id="g740" />
    <g
       id="g742" />
    <g
       id="g744" />
    <g
       id="g746" />
    <g
       id="g748" />
    <g
       id="g750" />
    <g
       id="g752" />
    <g
       id="g754" />
    <g
       id="g756" />
    <g
       id="g758" />
    <g
       id="g760" />
    <g
       id="g762" />
  </g>
  <g
     style="fill:#000000; fill-opacity:0.0;  stroke:#000000; stroke-width:0.1200; stroke-opacity:1;  stroke-linecap:round; stroke-linejoin:round;"
     id="g766" />
  <g
     style="fill:#000000; fill-opacity:0.0;  stroke:#000000; stroke-width:0.2500; stroke-opacity:1;  stroke-linecap:round; stroke-linejoin:round;"
     id="g1140">
    <path
       d="M213.4934,0.6000 C214.0338,0.9144 214.4265,1.4314 214.5843,2.0364"
       id="path768" />
    <path
       d="M159.3778 22.1987 L179.2228 16.8291 "
       id="path770" />
    <path
       d="M180.8391 98.2187 L166.4541 108.2909 "
       id="path772" />
    <path
       d="M94.8874,5.2392 C95.2157,5.8145 95.3002,6.4972 95.1223,7.1352"
       id="path774" />
    <path
       d="M198.7562 89.8621 L180.8391 98.2187 "
       id="path776" />
    <path
       d="M2.2995,65.6719 C0.9346,65.3053 0.1250,63.9020 0.4909,62.5369"
       id="path778" />
    <path
       d="M95.1223 7.1352 L94.4519 9.5393 "
       id="path780" />
    <path
       d="M23.4246 54.5180 L22.4433 54.2551 "
       id="path782" />
    <path
       d="M77.8785,0.6213 C78.4046,0.3140 79.0317,0.2297 79.6202,0.3874"
       id="path784" />
    <path
       d="M110.5725 98.2161 L92.6528 89.8595 "
       id="path786" />
    <path
       d="M76.8195,2.0237 C76.9711,1.4336 77.3525,0.9287 77.8785,0.6213"
       id="path788" />
    <path
       d="M273.5308,69.2498 C273.0806,68.9901 272.7520,68.5622 272.6175,68.0602"
       id="path790" />
    <path
       d="M127.6661,109.1432 C126.6961,109.1432 125.7495,108.8447 124.9550,108.2882"
       id="path792" />
    <path
       d="M197.9904 4.0366 L211.7056 0.3617 "
       id="path794" />
    <path
       d="M196.4915,5.1943 C196.8162,4.6235 197.3561,4.2066 197.9904,4.0366"
       id="path796" />
    <path
       d="M268.8477 53.9724 L267.9858 54.2033 "
       id="path798" />
    <path
       d="M260.0839 21.2807 L258.6544 15.9350 "
       id="path800" />
    <path
       d="M291.0288,63.0756 C291.3139,64.1389 290.6835,65.2322 289.6204,65.5181"
       id="path802" />
    <path
       d="M233.2048,0.4964 C233.7082,0.7883 234.0746,1.2687 234.2230,1.8314"
       id="path804" />
    <path
       d="M110.4378,13.8221 C111.0742,13.9926 111.6151,14.4120 111.9388,14.9858"
       id="path806" />
    <path
       d="M166.4541,108.2909 C165.6595,108.8473 164.7130,109.1457 163.7430,109.1457"
       id="path808" />
    <path
       d="M269.9419 58.0753 L269.0793 58.3064 "
       id="path810" />
    <path
       d="M94.4519 9.5393 L110.4378 13.8221 "
       id="path812" />
    <path
       d="M132.0275 22.1915 L159.3778 22.1987 "
       id="path814" />
    <path
       d="M261.0178 24.6931 L260.1034 24.9381 "
       id="path816" />
    <path
       d="M14.3519,10.8221 C14.7105,9.4843 16.0843,8.6892 17.4229,9.0447"
       id="path818" />
    <path
       d="M18.8036,67.8136 C18.6517,68.3804 18.2808,68.8635 17.7726,69.1568"
       id="path820" />
    <path
       d="M0.4909 62.5369 L14.3519 10.8221 "
       id="path822" />
    <path
       d="M32.8192 15.4990 L31.6098 20.0143 "
       id="path824" />
    <path
       d="M236.8504 11.7923 L253.2946 7.3861 "
       id="path826" />
    <path
       d="M19.7635 68.0683 L22.0713 59.4608 "
       id="path828" />
    <path
       d="M32.5899,13.7660 C32.8934,14.2903 32.9759,14.9138 32.8192,15.4990"
       id="path830" />
    <path
       d="M269.0787 58.3077 L271.7992 68.2850 "
       id="path832" />
    <path
       d="M31.4630 24.4520 L30.4898 24.1912 "
       id="path834" />
    <path
       d="M253.2946,7.3861 C254.3750,7.0966 255.4859,7.7369 255.7769,8.8170"
       id="path836" />
    <path
       d="M17.7726,69.1568 C17.2643,69.4500 16.6604,69.5292 16.0937,69.3770"
       id="path838" />
    <path
       d="M124.9550 108.2882 L110.5725 98.2161 "
       id="path840" />
    <path
       d="M275.0179,69.4446 C274.5160,69.5795 273.9810,69.5095 273.5308,69.2498"
       id="path842" />
    <path
       d="M59.9296 0.2887 L76.1487 4.6346 "
       id="path844" />
    <path
       d="M179.2228,16.8291 C179.0472,16.2069 179.1281,15.5402 179.4477,14.9781"
       id="path846" />
    <path
       d="M211.7056,0.3617 C212.3095,0.1998 212.9530,0.2857 213.4934,0.6000"
       id="path848" />
    <path
       d="M16.0937 69.3770 L2.2995 65.6719 "
       id="path850" />
    <path
       d="M215.2629 4.6371 L231.5405 0.2756 "
       id="path852" />
    <path
       d="M111.9388,14.9858 C112.2624,15.5596 112.3415,16.2395 112.1583,16.8723"
       id="path854" />
    <path
       d="M259.1996 21.5177 L260.0839 21.2807 "
       id="path856" />
    <path
       d="M57.1731,1.8874 C57.3256,1.3092 57.7021,0.8156 58.2193,0.5156"
       id="path858" />
    <path
       d="M179.4477,14.9781 C179.7672,14.4160 180.2986,14.0054 180.9232,13.8381"
       id="path860" />
    <path
       d="M231.5405,0.2756 C232.1025,0.1250 232.7015,0.2044 233.2048,0.4964"
       id="path862" />
    <path
       d="M22.0711 59.4586 L21.1117 59.2015 "
       id="path864" />
    <path
       d="M26.9797 41.1023 L26.0196 40.8451 "
       id="path866" />
    <path
       d="M272.6175 68.0602 L269.9423 58.0765 "
       id="path868" />
    <path
       d="M263.7980 35.1618 L262.9165 35.3980 "
       id="path870" />
    <path
       d="M260.5644 12.6347 L274.0327 9.0475 "
       id="path872" />
    <path
       d="M270.4399,70.6576 C261.2346,73.1237 220.3446,84.0785 198.7562,89.8621"
       id="path874" />
    <path
       d="M27.3179 35.9736 L30.4898 24.1912 "
       id="path876" />
    <path
       d="M54.5612 11.7897 L57.1731 1.8874 "
       id="path878" />
    <path
       d="M112.1596 16.8702 L132.0275 22.1915 "
       id="path880" />
    <path
       d="M274.0327,9.0475 C275.3257,8.7031 276.6534,9.4708 277.0000,10.7632"
       id="path882" />
    <path
       d="M32.5648 20.2683 L35.6006 8.9427 "
       id="path884" />
    <path
       d="M31.2012,12.7041 C31.7868,12.8596 32.2864,13.2416 32.5899,13.7660"
       id="path886" />
    <path
       d="M163.7430 109.1457 L127.6661 109.1432 "
       id="path888" />
    <path
       d="M21.1112 59.2018 L18.8036 67.8136 "
       id="path890" />
    <path
       d="M289.6204 65.5181 L275.0179 69.4446 "
       id="path892" />
    <path
       d="M93.3745,4.0723 C94.0144,4.2437 94.5591,4.6639 94.8874,5.2392"
       id="path894" />
    <path
       d="M267.9858 54.2033 L263.8935 39.0504 "
       id="path896" />
    <path
       d="M31.6098 20.0143 L32.5648 20.2683 "
       id="path898" />
    <path
       d="M38.2421 7.4177 L54.5612 11.7897 "
       id="path900" />
    <path
       d="M258.6544,15.9350 C258.4697,15.2440 258.5672,14.5080 258.9255,13.8890"
       id="path902" />
    <path
       d="M262.9165 35.3980 L260.1034 24.9381 "
       id="path904" />
    <path
       d="M79.6202 0.3874 L93.3745 4.0723 "
       id="path906" />
    <path
       d="M21.3126,70.7516 C20.7513,70.6013 20.2727,70.2341 19.9822,69.7308"
       id="path908" />
    <path
       d="M17.4229 9.0447 L31.2012 12.7041 "
       id="path910" />
    <path
       d="M28.2976 36.2361 L31.4630 24.4520 "
       id="path912" />
    <path
       d="M271.7992,68.2850 C272.0810,69.3188 271.4724,70.3810 270.4399,70.6576"
       id="path914" />
    <path
       d="M19.9822,69.7308 C19.6917,69.2276 19.6130,68.6295 19.7635,68.0683"
       id="path916" />
    <path
       d="M196.2622,7.0742 C196.0842,6.4421 196.1668,5.7651 196.4915,5.1943"
       id="path918" />
    <path
       d="M264.7901 38.8102 L263.8935 39.0504 "
       id="path920" />
    <path
       d="M180.9232 13.8381 L196.9571 9.5418 "
       id="path922" />
    <path
       d="M76.1487 4.6346 L76.8195 2.0237 "
       id="path924" />
    <path
       d="M234.2230 1.8314 L236.8504 11.7923 "
       id="path926" />
    <path
       d="M258.9255,13.8890 C259.2837,13.2700 259.8733,12.8188 260.5644,12.6347"
       id="path928" />
    <path
       d="M28.2976 36.2361 L27.3178 35.9736 "
       id="path930" />
    <path
       d="M255.7769 8.8170 L259.1996 21.5177 "
       id="path932" />
    <path
       d="M263.7980 35.1618 L261.0178 24.6931 "
       id="path934" />
    <path
       d="M23.4246 54.5180 L26.9797 41.1023 "
       id="path936" />
    <path
       d="M22.4433 54.2551 L26.0196 40.8451 "
       id="path938" />
    <path
       d="M268.8477 53.9724 L264.7901 38.8102 "
       id="path940" />
    <path
       d="M215.2629 4.6371 L214.5843 2.0364 "
       id="path942" />
    <path
       d="M92.6528 89.8595 L21.3126 70.7516 "
       id="path944" />
    <path
       d="M35.6006,8.9427 C35.9089,7.7922 37.0915,7.1095 38.2421,7.4177"
       id="path946" />
    <path
       d="M58.2193,0.5156 C58.7366,0.2156 59.3520,0.1340 59.9296,0.2887"
       id="path948" />
    <path
       d="M277.0000 10.7632 L291.0288 63.0756 "
       id="path950" />
    <path
       d="M196.2622 7.0742 L196.9571 9.5418 "
       id="path952" />
    <g
       id="g954" />
    <g
       id="g956" />
    <g
       id="g958" />
    <g
       id="g960" />
    <g
       id="g962" />
    <g
       id="g964" />
    <g
       id="g966" />
    <g
       id="g968" />
    <g
       id="g970" />
    <g
       id="g972" />
    <g
       id="g974" />
    <g
       id="g976" />
    <g
       id="g978" />
    <g
       id="g980" />
    <g
       id="g982" />
    <g
       id="g984" />
    <g
       id="g986" />
    <g
       id="g988" />
    <g
       id="g990" />
    <g
       id="g992" />
    <g
       id="g994" />
    <g
       id="g996" />
    <g
       id="g998" />
    <g
       id="g1000" />
    <g
       id="g1002" />
    <g
       id="g1004" />
    <g
       id="g1006" />
    <g
       id="g1008" />
    <g
       id="g1010" />
    <g
       id="g1012" />
    <g
       id="g1014" />
    <g
       id="g1016" />
    <g
       id="g1018" />
    <g
       id="g1020" />
    <g
       id="g1022" />
    <g
       id="g1024" />
    <g
       id="g1026" />
    <g
       id="g1028" />
    <g
       id="g1030" />
    <g
       id="g1032" />
    <g
       id="g1034" />
    <g
       id="g1036" />
    <g
       id="g1038" />
    <g
       id="g1040" />
    <g
       id="g1042" />
    <g
       id="g1044" />
    <g
       id="g1046" />
    <g
       id="g1048" />
    <g
       id="g1050" />
    <g
       id="g1052" />
    <g
       id="g1054" />
    <g
       id="g1056" />
    <g
       id="g1058" />
    <g
       id="g1060" />
    <g
       id="g1062" />
    <g
       id="g1064" />
    <g
       id="g1066" />
    <g
       id="g1068" />
    <g
       id="g1070" />
    <g
       id="g1072" />
    <g
       id="g1074" />
    <g
       id="g1076" />
    <g
       id="g1078" />
    <g
       id="g1080" />
    <g
       id="g1082" />
    <g
       id="g1084" />
    <g
       id="g1086" />
    <g
       id="g1088" />
    <g
       id="g1090" />
    <g
       id="g1092" />
    <g
       id="g1094" />
    <g
       id="g1096" />
    <g
       id="g1098" />
    <g
       id="g1100" />
    <g
       id="g1102" />
    <g
       id="g1104" />
    <g
       id="g1106" />
    <g
       id="g1108" />
    <g
       id="g1110" />
    <g
       id="g1112" />
    <g
       id="g1114" />
    <g
       id="g1116" />
    <g
       id="g1118" />
    <g
       id="g1120" />
    <g
       id="g1122" />
    <g
       id="g1124" />
    <g
       id="g1126" />
    <g
       id="g1128" />
    <g
       id="g1130" />
    <g
       id="g1132" />
    <g
       id="g1134" />
    <g
       id="g1136" />
    <g
       id="g1138" />
  </g>
</svg>
