  0
SECTION
  2
HEADER
  9
$ACADVER
  1
AC1014
  9
$HANDSEED
  5
FFFF
  9
$INSUNITS
 70
     4
  9
$MEASUREMENT
 70
     1
  0
ENDSEC
  0
SECTION
  2
TABLES
  0
TABLE
  2
VPORT
  5
8
330
0
100
AcDbSymbolTable
 70
     4
  0
VPORT
  5
2E
330
8
100
AcDbSymbolTableRecord
100
AcDbViewportTableRecord
  2
*ACTIVE
 70
     0
 10
0.0
 20
0.0
 11
1.0
 21
1.0
 12
210.0
 22
148.5
 13
0.0
 23
0.0
 14
10.0
 24
10.0
 15
10.0
 25
10.0
 16
0.0
 26
0.0
 36
1.0
 17
0.0
 27
0.0
 37
0.0
 40
341.0
 41
1.24
 42
50.0
 43
0.0
 44
0.0
 50
0.0
 51
0.0
 71
     0
 72
   100
 73
     1
 74
     3
 75
     0
 76
     0
 77
     0
 78
     0
  0
ENDTAB
  0
TABLE
  2
LTYPE
  5
5
330
0
100
AcDbSymbolTable
 70
     1
  0
LTYPE
  5
14
330
5
100
AcDbSymbolTableRecord
100
AcDbLinetypeTableRecord
  2
BYBLOCK
 70
     0
  3

 72
    65
 73
     0
 40
0.0
  0
LTYPE
  5
15
330
5
100
AcDbSymbolTableRecord
100
AcDbLinetypeTableRecord
  2
BYLAYER
 70
     0
  3

 72
    65
 73
     0
 40
0.0
  0
LTYPE
  5
16
330
5
100
AcDbSymbolTableRecord
100
AcDbLinetypeTableRecord
  2
CONTINUOUS
 70
     0
  3
Solid line
 72
    65
 73
     0
 40
0.0
  0
ENDTAB
  0
TABLE
  2
LAYER
  5
2
100
AcDbSymbolTable
 70
1
  0
LAYER
  5
50
100
AcDbSymbolTableRecord
100
AcDbLayerTableRecord
  2
0
 70
0
  6
CONTINUOUS
  0
ENDTAB
  0
TABLE
  2
STYLE
  5
3
330
0
100
AcDbSymbolTable
 70
     1
  0
STYLE
  5
11
330
3
100
AcDbSymbolTableRecord
100
AcDbTextStyleTableRecord
  2
STANDARD
 70
     0
 40
0.0
 41
1.0
 50
0.0
 71
     0
 42
2.5
  3
txt
  4

  0
ENDTAB
  0
TABLE
  2
VIEW
  5
6
330
0
100
AcDbSymbolTable
 70
     0
  0
ENDTAB
  0
TABLE
  2
UCS
  5
7
330
0
100
AcDbSymbolTable
 70
     0
  0
ENDTAB
  0
TABLE
  2
APPID
  5
9
330
0
100
AcDbSymbolTable
 70
     2
  0
APPID
  5
12
330
9
100
AcDbSymbolTableRecord
100
AcDbRegAppTableRecord
  2
ACAD
 70
     0
  0
ENDTAB
  0
TABLE
  2
DIMSTYLE
  5
A
330
0
100
AcDbSymbolTable
 70
     1
  0
DIMSTYLE
105
27
330
A
100
AcDbSymbolTableRecord
100
AcDbDimStyleTableRecord
  2
ISO-25
 70
     0
  3

  4

  5

  6

  7

 40
1.0
 41
2.5
 42
0.625
 43
3.75
 44
1.25
 45
0.0
 46
0.0
 47
0.0
 48
0.0
140
2.5
141
2.5
142
0.0
143
0.03937007874016
144
1.0
145
0.0
146
1.0
147
0.625
 71
     0
 72
     0
 73
     0
 74
     0
 75
     0
 76
     0
 77
     1
 78
     8
170
     0
171
     3
172
     1
173
     0
174
     0
175
     0
176
     0
177
     0
178
     0
270
     2
271
     2
272
     2
273
     2
274
     3
340
11
275
     0
280
     0
281
     0
282
     0
283
     0
284
     8
285
     0
286
     0
287
     3
288
     0
  0
ENDTAB
  0
TABLE
  2
BLOCK_RECORD
  5
1
330
0
100
AcDbSymbolTable
 70
     1
  0
BLOCK_RECORD
  5
1F
330
1
100
AcDbSymbolTableRecord
100
AcDbBlockTableRecord
  2
*MODEL_SPACE
  0
BLOCK_RECORD
  5
1B
330
1
100
AcDbSymbolTableRecord
100
AcDbBlockTableRecord
  2
*PAPER_SPACE
  0
ENDTAB
  0
ENDSEC
  0
SECTION
  2
BLOCKS
  0
BLOCK
  5
20
330
1F
100
AcDbEntity
  8
0
100
AcDbBlockBegin
  2
*MODEL_SPACE
 70
     0
 10
0.0
 20
0.0
 30
0.0
  3
*MODEL_SPACE
  1

  0
ENDBLK
  5
21
330
1F
100
AcDbEntity
  8
0
100
AcDbBlockEnd
  0
BLOCK
  5
1C
330
1B
100
AcDbEntity
 67
     1
  8
0
100
AcDbBlockBegin
  2
*PAPER_SPACE
  1

  0
ENDBLK
  5
1D
330
1B
100
AcDbEntity
 67
     1
  8
0
100
AcDbBlockEnd
  0
ENDSEC
  0
SECTION
  2
ENTITIES
  0
LWPOLYLINE
  5
100
100
AcDbEntity
  8
0
 62
7
100
AcDbPolyline
 90
2
 70
0
 10
149.413700
 20
88.385100
 30
0.0
 10
149.413700
 20
83.305100
 30
0.0
  0
LWPOLYLINE
  5
101
100
AcDbEntity
  8
0
 62
7
100
AcDbPolyline
 90
2
 70
0
 10
142.047700
 20
88.385100
 30
0.0
 10
149.413700
 20
88.385100
 30
0.0
  0
LWPOLYLINE
  5
102
100
AcDbEntity
  8
0
 62
7
100
AcDbPolyline
 90
3
 70
0
 10
149.413700
 20
83.305100
 30
0.0
 10
142.047700
 20
83.305100
 30
0.0
 10
142.047700
 20
88.385100
 30
0.0
  0
LWPOLYLINE
  5
103
100
AcDbEntity
  8
0
 62
7
100
AcDbPolyline
 90
2
 70
0
 10
149.423700
 20
88.395100
 30
0.0
 10
149.423700
 20
83.315100
 30
0.0
  0
LWPOLYLINE
  5
104
100
AcDbEntity
  8
0
 62
7
100
AcDbPolyline
 90
2
 70
0
 10
142.057700
 20
88.395100
 30
0.0
 10
149.423700
 20
88.395100
 30
0.0
  0
SPLINE
  5
105
100
AcDbEntity
  8
0
 62
7
100
AcDbSpline
 70
8
 71
3
 72
8
 73
4
 74
0
 40
0
 40
0
 40
0
 40
0
 40
1
 40
1
 40
1
 40
1
 10
154.639900
 20
8.010800
 30
0.0
 10
153.932091
 20
8.010800
 30
0.0
 10
153.293978
 20
7.584426
 30
0.0
 10
153.023111
 20
6.930496
 30
0.0
  0
SPLINE
  5
106
100
AcDbEntity
  8
0
 62
7
100
AcDbSpline
 70
8
 71
3
 72
8
 73
4
 74
0
 40
0
 40
0
 40
0
 40
0
 40
1
 40
1
 40
1
 40
1
 10
153.023111
 20
6.930496
 30
0.0
 10
152.752244
 20
6.276566
 30
0.0
 10
152.901967
 20
5.523860
 30
0.0
 10
153.402463
 20
5.023363
 30
0.0
  0
SPLINE
  5
107
100
AcDbEntity
  8
0
 62
7
100
AcDbSpline
 70
8
 71
3
 72
8
 73
4
 74
0
 40
0
 40
0
 40
0
 40
0
 40
1
 40
1
 40
1
 40
1
 10
153.402463
 20
5.023363
 30
0.0
 10
153.902960
 20
4.522867
 30
0.0
 10
154.655666
 20
4.373144
 30
0.0
 10
155.309596
 20
4.644011
 30
0.0
  0
SPLINE
  5
108
100
AcDbEntity
  8
0
 62
7
100
AcDbSpline
 70
8
 71
3
 72
8
 73
4
 74
0
 40
0
 40
0
 40
0
 40
0
 40
1
 40
1
 40
1
 40
1
 10
155.309596
 20
4.644011
 30
0.0
 10
155.963526
 20
4.914878
 30
0.0
 10
156.389900
 20
5.552991
 30
0.0
 10
156.389900
 20
6.260800
 30
0.0
  0
SPLINE
  5
109
100
AcDbEntity
  8
0
 62
7
100
AcDbSpline
 70
8
 71
3
 72
8
 73
4
 74
0
 40
0
 40
0
 40
0
 40
0
 40
1
 40
1
 40
1
 40
1
 10
156.389900
 20
6.260800
 30
0.0
 10
156.389900
 20
6.724929
 30
0.0
 10
156.205526
 20
7.170048
 30
0.0
 10
155.877337
 20
7.498237
 30
0.0
  0
SPLINE
  5
10a
100
AcDbEntity
  8
0
 62
7
100
AcDbSpline
 70
8
 71
3
 72
8
 73
4
 74
0
 40
0
 40
0
 40
0
 40
0
 40
1
 40
1
 40
1
 40
1
 10
155.877337
 20
7.498237
 30
0.0
 10
155.549148
 20
7.826426
 30
0.0
 10
155.104029
 20
8.010800
 30
0.0
 10
154.639900
 20
8.010800
 30
0.0
  0
LWPOLYLINE
  5
10b
100
AcDbEntity
  8
0
 62
7
100
AcDbPolyline
 90
3
 70
0
 10
149.423700
 20
83.315100
 30
0.0
 10
142.057700
 20
83.315100
 30
0.0
 10
142.057700
 20
88.395100
 30
0.0
  0
LWPOLYLINE
  5
10c
100
AcDbEntity
  8
0
 62
7
100
AcDbPolyline
 90
1
 70
1
 10
154.639900
 20
8.010800
 30
0.0
  0
LWPOLYLINE
  5
10d
100
AcDbEntity
  8
0
 62
7
100
AcDbPolyline
 90
3
 70
0
 10
51.280700
 20
75.619500
 30
0.0
 10
47.657300
 20
62.096500
 30
0.0
 10
61.180200
 20
58.473000
 30
0.0
  0
LWPOLYLINE
  5
10e
100
AcDbEntity
  8
0
 62
7
100
AcDbPolyline
 90
2
 70
0
 10
64.803700
 20
71.996000
 30
0.0
 10
51.280700
 20
75.619500
 30
0.0
  0
LWPOLYLINE
  5
10f
100
AcDbEntity
  8
0
 62
7
100
AcDbPolyline
 90
2
 70
0
 10
61.180200
 20
58.473000
 30
0.0
 10
64.803700
 20
71.996000
 30
0.0
  0
LWPOLYLINE
  5
110
100
AcDbEntity
  8
0
 62
7
100
AcDbPolyline
 90
3
 70
0
 10
80.997800
 20
39.704400
 30
0.0
 10
77.374300
 20
26.181400
 30
0.0
 10
90.897300
 20
22.557900
 30
0.0
  0
LWPOLYLINE
  5
111
100
AcDbEntity
  8
0
 62
7
100
AcDbPolyline
 90
2
 70
0
 10
94.520800
 20
36.080900
 30
0.0
 10
80.997800
 20
39.704400
 30
0.0
  0
LWPOLYLINE
  5
112
100
AcDbEntity
  8
0
 62
7
100
AcDbPolyline
 90
2
 70
0
 10
90.897300
 20
22.557900
 30
0.0
 10
94.520800
 20
36.080900
 30
0.0
  0
LWPOLYLINE
  5
113
100
AcDbEntity
  8
0
 62
7
100
AcDbPolyline
 90
3
 70
0
 10
70.927400
 20
75.531500
 30
0.0
 10
67.304000
 20
62.008600
 30
0.0
 10
80.826900
 20
58.385100
 30
0.0
  0
LWPOLYLINE
  5
114
100
AcDbEntity
  8
0
 62
7
100
AcDbPolyline
 90
2
 70
0
 10
84.450400
 20
71.908100
 30
0.0
 10
70.927400
 20
75.531500
 30
0.0
  0
LWPOLYLINE
  5
115
100
AcDbEntity
  8
0
 62
7
100
AcDbPolyline
 90
2
 70
0
 10
80.826900
 20
58.385100
 30
0.0
 10
84.450400
 20
71.908100
 30
0.0
  0
LWPOLYLINE
  5
116
100
AcDbEntity
  8
0
 62
7
100
AcDbPolyline
 90
3
 70
0
 10
122.148600
 20
23.197800
 30
0.0
 10
114.118500
 20
11.729700
 30
0.0
 10
125.586700
 20
3.699600
 30
0.0
  0
LWPOLYLINE
  5
117
100
AcDbEntity
  8
0
 62
7
100
AcDbPolyline
 90
2
 70
0
 10
133.616700
 20
15.167700
 30
0.0
 10
122.148600
 20
23.197800
 30
0.0
  0
LWPOLYLINE
  5
118
100
AcDbEntity
  8
0
 62
7
100
AcDbPolyline
 90
2
 70
0
 10
125.586700
 20
3.699600
 30
0.0
 10
133.616700
 20
15.167700
 30
0.0
  0
LWPOLYLINE
  5
119
100
AcDbEntity
  8
0
 62
7
100
AcDbPolyline
 90
3
 70
0
 10
105.691500
 20
58.452000
 30
0.0
 10
102.068000
 20
44.929000
 30
0.0
 10
115.591000
 20
41.305600
 30
0.0
  0
LWPOLYLINE
  5
11a
100
AcDbEntity
  8
0
 62
7
100
AcDbPolyline
 90
2
 70
0
 10
119.214400
 20
54.828500
 30
0.0
 10
105.691500
 20
58.452000
 30
0.0
  0
LWPOLYLINE
  5
11b
100
AcDbEntity
  8
0
 62
7
100
AcDbPolyline
 90
2
 70
0
 10
115.591000
 20
41.305600
 30
0.0
 10
119.214400
 20
54.828500
 30
0.0
  0
LWPOLYLINE
  5
11c
100
AcDbEntity
  8
0
 62
7
100
AcDbPolyline
 90
3
 70
0
 10
29.692900
 20
68.463000
 30
0.0
 10
26.069500
 20
54.940000
 30
0.0
 10
39.592400
 20
51.316500
 30
0.0
  0
LWPOLYLINE
  5
11d
100
AcDbEntity
  8
0
 62
7
100
AcDbPolyline
 90
2
 70
0
 10
43.215900
 20
64.839500
 30
0.0
 10
29.692900
 20
68.463000
 30
0.0
  0
LWPOLYLINE
  5
11e
100
AcDbEntity
  8
0
 62
7
100
AcDbPolyline
 90
2
 70
0
 10
39.592400
 20
51.316500
 30
0.0
 10
43.215900
 20
64.839500
 30
0.0
  0
LWPOLYLINE
  5
11f
100
AcDbEntity
  8
0
 62
7
100
AcDbPolyline
 90
3
 70
0
 10
92.127000
 20
81.239200
 30
0.0
 10
88.503600
 20
67.716200
 30
0.0
 10
102.026500
 20
64.092700
 30
0.0
  0
LWPOLYLINE
  5
120
100
AcDbEntity
  8
0
 62
7
100
AcDbPolyline
 90
2
 70
0
 10
105.650000
 20
77.615700
 30
0.0
 10
92.127000
 20
81.239200
 30
0.0
  0
LWPOLYLINE
  5
121
100
AcDbEntity
  8
0
 62
7
100
AcDbPolyline
 90
2
 70
0
 10
102.026500
 20
64.092700
 30
0.0
 10
105.650000
 20
77.615700
 30
0.0
  0
LWPOLYLINE
  5
122
100
AcDbEntity
  8
0
 62
7
100
AcDbPolyline
 90
3
 70
0
 10
102.295300
 20
33.251200
 30
0.0
 10
96.378600
 20
20.562900
 30
0.0
 10
109.066900
 20
14.646200
 30
0.0
  0
LWPOLYLINE
  5
123
100
AcDbEntity
  8
0
 62
7
100
AcDbPolyline
 90
2
 70
0
 10
114.983600
 20
27.334500
 30
0.0
 10
102.295300
 20
33.251200
 30
0.0
  0
LWPOLYLINE
  5
124
100
AcDbEntity
  8
0
 62
7
100
AcDbPolyline
 90
2
 70
0
 10
109.066900
 20
14.646200
 30
0.0
 10
114.983600
 20
27.334500
 30
0.0
  0
LWPOLYLINE
  5
125
100
AcDbEntity
  8
0
 62
7
100
AcDbPolyline
 90
3
 70
0
 10
96.268100
 20
96.694000
 30
0.0
 10
92.644700
 20
83.171000
 30
0.0
 10
106.167600
 20
79.547600
 30
0.0
  0
LWPOLYLINE
  5
126
100
AcDbEntity
  8
0
 62
7
100
AcDbPolyline
 90
2
 70
0
 10
109.791100
 20
93.070500
 30
0.0
 10
96.268100
 20
96.694000
 30
0.0
  0
LWPOLYLINE
  5
127
100
AcDbEntity
  8
0
 62
7
100
AcDbPolyline
 90
2
 70
0
 10
106.167600
 20
79.547600
 30
0.0
 10
109.791100
 20
93.070500
 30
0.0
  0
LWPOLYLINE
  5
128
100
AcDbEntity
  8
0
 62
7
100
AcDbPolyline
 90
3
 70
0
 10
87.985900
 20
65.784400
 30
0.0
 10
84.362500
 20
52.261400
 30
0.0
 10
97.885400
 20
48.637900
 30
0.0
  0
LWPOLYLINE
  5
129
100
AcDbEntity
  8
0
 62
7
100
AcDbPolyline
 90
2
 70
0
 10
101.508900
 20
62.160900
 30
0.0
 10
87.985900
 20
65.784400
 30
0.0
  0
LWPOLYLINE
  5
12a
100
AcDbEntity
  8
0
 62
7
100
AcDbPolyline
 90
2
 70
0
 10
97.885400
 20
48.637900
 30
0.0
 10
101.508900
 20
62.160900
 30
0.0
  0
LWPOLYLINE
  5
12b
100
AcDbEntity
  8
0
 62
7
100
AcDbPolyline
 90
3
 70
0
 10
55.421800
 20
91.074300
 30
0.0
 10
51.798400
 20
77.551300
 30
0.0
 10
65.321300
 20
73.927900
 30
0.0
  0
LWPOLYLINE
  5
12c
100
AcDbEntity
  8
0
 62
7
100
AcDbPolyline
 90
2
 70
0
 10
68.944800
 20
87.450800
 30
0.0
 10
55.421800
 20
91.074300
 30
0.0
  0
LWPOLYLINE
  5
12d
100
AcDbEntity
  8
0
 62
7
100
AcDbPolyline
 90
2
 70
0
 10
65.321300
 20
73.927900
 30
0.0
 10
68.944800
 20
87.450800
 30
0.0
  0
LWPOLYLINE
  5
12e
100
AcDbEntity
  8
0
 62
7
100
AcDbPolyline
 90
3
 70
0
 10
79.209600
 20
106.441200
 30
0.0
 10
75.586200
 20
92.918200
 30
0.0
 10
89.109100
 20
89.294800
 30
0.0
  0
LWPOLYLINE
  5
12f
100
AcDbEntity
  8
0
 62
7
100
AcDbPolyline
 90
2
 70
0
 10
92.732600
 20
102.817700
 30
0.0
 10
79.209600
 20
106.441200
 30
0.0
  0
LWPOLYLINE
  5
130
100
AcDbEntity
  8
0
 62
7
100
AcDbPolyline
 90
2
 70
0
 10
89.109100
 20
89.294800
 30
0.0
 10
92.732600
 20
102.817700
 30
0.0
  0
LWPOLYLINE
  5
131
100
AcDbEntity
  8
0
 62
7
100
AcDbPolyline
 90
3
 70
0
 10
109.832600
 20
73.906800
 30
0.0
 10
106.209100
 20
60.383800
 30
0.0
 10
119.732100
 20
56.760400
 30
0.0
  0
LWPOLYLINE
  5
132
100
AcDbEntity
  8
0
 62
7
100
AcDbPolyline
 90
2
 70
0
 10
123.355500
 20
70.283300
 30
0.0
 10
109.832600
 20
73.906800
 30
0.0
  0
LWPOLYLINE
  5
133
100
AcDbEntity
  8
0
 62
7
100
AcDbPolyline
 90
2
 70
0
 10
119.732100
 20
56.760400
 30
0.0
 10
123.355500
 20
70.283300
 30
0.0
  0
LWPOLYLINE
  5
134
100
AcDbEntity
  8
0
 62
7
100
AcDbPolyline
 90
3
 70
0
 10
113.973700
 20
89.361600
 30
0.0
 10
110.350200
 20
75.838600
 30
0.0
 10
123.873200
 20
72.215200
 30
0.0
  0
LWPOLYLINE
  5
135
100
AcDbEntity
  8
0
 62
7
100
AcDbPolyline
 90
2
 70
0
 10
127.496600
 20
85.738100
 30
0.0
 10
113.973700
 20
89.361600
 30
0.0
  0
LWPOLYLINE
  5
136
100
AcDbEntity
  8
0
 62
7
100
AcDbPolyline
 90
2
 70
0
 10
123.873200
 20
72.215200
 30
0.0
 10
127.496600
 20
85.738100
 30
0.0
  0
LWPOLYLINE
  5
137
100
AcDbEntity
  8
0
 62
7
100
AcDbPolyline
 90
3
 70
0
 10
75.068500
 20
90.986400
 30
0.0
 10
71.445100
 20
77.463400
 30
0.0
 10
84.968000
 20
73.839900
 30
0.0
  0
LWPOLYLINE
  5
138
100
AcDbEntity
  8
0
 62
7
100
AcDbPolyline
 90
2
 70
0
 10
88.591500
 20
87.362900
 30
0.0
 10
75.068500
 20
90.986400
 30
0.0
  0
LWPOLYLINE
  5
139
100
AcDbEntity
  8
0
 62
7
100
AcDbPolyline
 90
2
 70
0
 10
84.968000
 20
73.839900
 30
0.0
 10
88.591500
 20
87.362900
 30
0.0
  0
LWPOLYLINE
  5
13a
100
AcDbEntity
  8
0
 62
7
100
AcDbPolyline
 90
3
 70
0
 10
59.563000
 20
106.529100
 30
0.0
 10
55.939500
 20
93.006100
 30
0.0
 10
69.462400
 20
89.382700
 30
0.0
  0
LWPOLYLINE
  5
13b
100
AcDbEntity
  8
0
 62
7
100
AcDbPolyline
 90
2
 70
0
 10
73.085900
 20
102.905600
 30
0.0
 10
59.563000
 20
106.529100
 30
0.0
  0
LWPOLYLINE
  5
13c
100
AcDbEntity
  8
0
 62
7
100
AcDbPolyline
 90
2
 70
0
 10
69.462400
 20
89.382700
 30
0.0
 10
73.085900
 20
102.905600
 30
0.0
  0
LWPOLYLINE
  5
13d
100
AcDbEntity
  8
0
 62
7
100
AcDbPolyline
 90
3
 70
0
 10
33.834000
 20
83.917800
 30
0.0
 10
30.210600
 20
70.394800
 30
0.0
 10
43.733500
 20
66.771400
 30
0.0
  0
LWPOLYLINE
  5
13e
100
AcDbEntity
  8
0
 62
7
100
AcDbPolyline
 90
2
 70
0
 10
47.357000
 20
80.294300
 30
0.0
 10
33.834000
 20
83.917800
 30
0.0
  0
LWPOLYLINE
  5
13f
100
AcDbEntity
  8
0
 62
7
100
AcDbPolyline
 90
2
 70
0
 10
43.733500
 20
66.771400
 30
0.0
 10
47.357000
 20
80.294300
 30
0.0
  0
LWPOLYLINE
  5
140
100
AcDbEntity
  8
0
 62
7
100
AcDbPolyline
 90
3
 70
0
 10
157.853200
 20
15.165500
 30
0.0
 10
165.883300
 20
3.697400
 30
0.0
 10
177.351400
 20
11.727400
 30
0.0
  0
LWPOLYLINE
  5
141
100
AcDbEntity
  8
0
 62
7
100
AcDbPolyline
 90
2
 70
0
 10
169.321400
 20
23.195500
 30
0.0
 10
157.853200
 20
15.165500
 30
0.0
  0
LWPOLYLINE
  5
142
100
AcDbEntity
  8
0
 62
7
100
AcDbPolyline
 90
2
 70
0
 10
177.351400
 20
11.727400
 30
0.0
 10
169.321400
 20
23.195500
 30
0.0
  0
LWPOLYLINE
  5
143
100
AcDbEntity
  8
0
 62
7
100
AcDbPolyline
 90
3
 70
0
 10
226.666300
 20
71.993700
 30
0.0
 10
230.289700
 20
58.470800
 30
0.0
 10
243.812700
 20
62.094200
 30
0.0
  0
LWPOLYLINE
  5
144
100
AcDbEntity
  8
0
 62
7
100
AcDbPolyline
 90
2
 70
0
 10
240.189200
 20
75.617200
 30
0.0
 10
226.666300
 20
71.993700
 30
0.0
  0
LWPOLYLINE
  5
145
100
AcDbEntity
  8
0
 62
7
100
AcDbPolyline
 90
2
 70
0
 10
243.812700
 20
62.094200
 30
0.0
 10
240.189200
 20
75.617200
 30
0.0
  0
LWPOLYLINE
  5
146
100
AcDbEntity
  8
0
 62
7
100
AcDbPolyline
 90
3
 70
0
 10
176.486400
 20
27.332300
 30
0.0
 10
182.403000
 20
14.644000
 30
0.0
 10
195.091300
 20
20.560600
 30
0.0
  0
LWPOLYLINE
  5
147
100
AcDbEntity
  8
0
 62
7
100
AcDbPolyline
 90
2
 70
0
 10
189.174700
 20
33.248900
 30
0.0
 10
176.486400
 20
27.332300
 30
0.0
  0
LWPOLYLINE
  5
148
100
AcDbEntity
  8
0
 62
7
100
AcDbPolyline
 90
2
 70
0
 10
195.091300
 20
20.560600
 30
0.0
 10
189.174700
 20
33.248900
 30
0.0
  0
LWPOLYLINE
  5
149
100
AcDbEntity
  8
0
 62
7
100
AcDbPolyline
 90
3
 70
0
 10
196.949200
 20
36.078600
 30
0.0
 10
200.572700
 20
22.555700
 30
0.0
 10
214.095600
 20
26.179100
 30
0.0
  0
LWPOLYLINE
  5
14a
100
AcDbEntity
  8
0
 62
7
100
AcDbPolyline
 90
2
 70
0
 10
210.472100
 20
39.702100
 30
0.0
 10
196.949200
 20
36.078600
 30
0.0
  0
LWPOLYLINE
  5
14b
100
AcDbEntity
  8
0
 62
7
100
AcDbPolyline
 90
2
 70
0
 10
214.095600
 20
26.179100
 30
0.0
 10
210.472100
 20
39.702100
 30
0.0
  0
LWPOLYLINE
  5
14c
100
AcDbEntity
  8
0
 62
7
100
AcDbPolyline
 90
3
 70
0
 10
248.254100
 20
64.837200
 30
0.0
 10
251.877600
 20
51.314300
 30
0.0
 10
265.400500
 20
54.937700
 30
0.0
  0
LWPOLYLINE
  5
14d
100
AcDbEntity
  8
0
 62
7
100
AcDbPolyline
 90
2
 70
0
 10
261.777000
 20
68.460700
 30
0.0
 10
248.254100
 20
64.837200
 30
0.0
  0
LWPOLYLINE
  5
14e
100
AcDbEntity
  8
0
 62
7
100
AcDbPolyline
 90
2
 70
0
 10
265.400500
 20
54.937700
 30
0.0
 10
261.777000
 20
68.460700
 30
0.0
  0
LWPOLYLINE
  5
14f
100
AcDbEntity
  8
0
 62
7
100
AcDbPolyline
 90
3
 70
0
 10
172.255500
 20
54.826200
 30
0.0
 10
175.879000
 20
41.303300
 30
0.0
 10
189.402000
 20
44.926700
 30
0.0
  0
LWPOLYLINE
  5
150
100
AcDbEntity
  8
0
 62
7
100
AcDbPolyline
 90
2
 70
0
 10
185.778500
 20
58.449700
 30
0.0
 10
172.255500
 20
54.826200
 30
0.0
  0
LWPOLYLINE
  5
151
100
AcDbEntity
  8
0
 62
7
100
AcDbPolyline
 90
2
 70
0
 10
189.402000
 20
44.926700
 30
0.0
 10
185.778500
 20
58.449700
 30
0.0
  0
LWPOLYLINE
  5
152
100
AcDbEntity
  8
0
 62
7
100
AcDbPolyline
 90
3
 70
0
 10
189.961100
 20
62.158600
 30
0.0
 10
193.584500
 20
48.635600
 30
0.0
 10
207.107500
 20
52.259100
 30
0.0
  0
LWPOLYLINE
  5
153
100
AcDbEntity
  8
0
 62
7
100
AcDbPolyline
 90
2
 70
0
 10
203.484000
 20
65.782100
 30
0.0
 10
189.961100
 20
62.158600
 30
0.0
  0
LWPOLYLINE
  5
154
100
AcDbEntity
  8
0
 62
7
100
AcDbPolyline
 90
2
 70
0
 10
207.107500
 20
52.259100
 30
0.0
 10
203.484000
 20
65.782100
 30
0.0
  0
LWPOLYLINE
  5
155
100
AcDbEntity
  8
0
 62
7
100
AcDbPolyline
 90
3
 70
0
 10
207.019600
 20
71.905800
 30
0.0
 10
210.643000
 20
58.382800
 30
0.0
 10
224.166000
 20
62.006300
 30
0.0
  0
LWPOLYLINE
  5
156
100
AcDbEntity
  8
0
 62
7
100
AcDbPolyline
 90
2
 70
0
 10
220.542500
 20
75.529300
 30
0.0
 10
207.019600
 20
71.905800
 30
0.0
  0
LWPOLYLINE
  5
157
100
AcDbEntity
  8
0
 62
7
100
AcDbPolyline
 90
2
 70
0
 10
224.166000
 20
62.006300
 30
0.0
 10
220.542500
 20
75.529300
 30
0.0
  0
LWPOLYLINE
  5
158
100
AcDbEntity
  8
0
 62
7
100
AcDbPolyline
 90
3
 70
0
 10
244.113000
 20
80.292000
 30
0.0
 10
247.736400
 20
66.769100
 30
0.0
 10
261.259400
 20
70.392500
 30
0.0
  0
LWPOLYLINE
  5
159
100
AcDbEntity
  8
0
 62
7
100
AcDbPolyline
 90
2
 70
0
 10
257.635900
 20
83.915500
 30
0.0
 10
244.113000
 20
80.292000
 30
0.0
  0
LWPOLYLINE
  5
15a
100
AcDbEntity
  8
0
 62
7
100
AcDbPolyline
 90
2
 70
0
 10
261.259400
 20
70.392500
 30
0.0
 10
257.635900
 20
83.915500
 30
0.0
  0
LWPOLYLINE
  5
15b
100
AcDbEntity
  8
0
 62
7
100
AcDbPolyline
 90
3
 70
0
 10
181.678900
 20
93.068200
 30
0.0
 10
185.302300
 20
79.545300
 30
0.0
 10
198.825300
 20
83.168700
 30
0.0
  0
LWPOLYLINE
  5
15c
100
AcDbEntity
  8
0
 62
7
100
AcDbPolyline
 90
2
 70
0
 10
195.201800
 20
96.691700
 30
0.0
 10
181.678900
 20
93.068200
 30
0.0
  0
LWPOLYLINE
  5
15d
100
AcDbEntity
  8
0
 62
7
100
AcDbPolyline
 90
2
 70
0
 10
198.825300
 20
83.168700
 30
0.0
 10
195.201800
 20
96.691700
 30
0.0
  0
LWPOLYLINE
  5
15e
100
AcDbEntity
  8
0
 62
7
100
AcDbPolyline
 90
3
 70
0
 10
218.384100
 20
102.903400
 30
0.0
 10
222.007500
 20
89.380400
 30
0.0
 10
235.530500
 20
93.003900
 30
0.0
  0
LWPOLYLINE
  5
15f
100
AcDbEntity
  8
0
 62
7
100
AcDbPolyline
 90
2
 70
0
 10
231.907000
 20
106.526800
 30
0.0
 10
218.384100
 20
102.903400
 30
0.0
  0
LWPOLYLINE
  5
160
100
AcDbEntity
  8
0
 62
7
100
AcDbPolyline
 90
2
 70
0
 10
235.530500
 20
93.003900
 30
0.0
 10
231.907000
 20
106.526800
 30
0.0
  0
LWPOLYLINE
  5
161
100
AcDbEntity
  8
0
 62
7
100
AcDbPolyline
 90
3
 70
0
 10
198.737400
 20
102.815400
 30
0.0
 10
202.360800
 20
89.292500
 30
0.0
 10
215.883800
 20
92.915900
 30
0.0
  0
LWPOLYLINE
  5
162
100
AcDbEntity
  8
0
 62
7
100
AcDbPolyline
 90
2
 70
0
 10
212.260300
 20
106.438900
 30
0.0
 10
198.737400
 20
102.815400
 30
0.0
  0
LWPOLYLINE
  5
163
100
AcDbEntity
  8
0
 62
7
100
AcDbPolyline
 90
2
 70
0
 10
215.883800
 20
92.915900
 30
0.0
 10
212.260300
 20
106.438900
 30
0.0
  0
LWPOLYLINE
  5
164
100
AcDbEntity
  8
0
 62
7
100
AcDbPolyline
 90
3
 70
0
 10
168.114400
 20
70.281000
 30
0.0
 10
171.737900
 20
56.758100
 30
0.0
 10
185.260900
 20
60.381600
 30
0.0
  0
LWPOLYLINE
  5
165
100
AcDbEntity
  8
0
 62
7
100
AcDbPolyline
 90
2
 70
0
 10
181.637400
 20
73.904500
 30
0.0
 10
168.114400
 20
70.281000
 30
0.0
  0
LWPOLYLINE
  5
166
100
AcDbEntity
  8
0
 62
7
100
AcDbPolyline
 90
2
 70
0
 10
185.260900
 20
60.381600
 30
0.0
 10
181.637400
 20
73.904500
 30
0.0
  0
LWPOLYLINE
  5
167
100
AcDbEntity
  8
0
 62
7
100
AcDbPolyline
 90
3
 70
0
 10
222.525200
 20
87.448500
 30
0.0
 10
226.148600
 20
73.925600
 30
0.0
 10
239.671600
 20
77.549100
 30
0.0
  0
LWPOLYLINE
  5
168
100
AcDbEntity
  8
0
 62
7
100
AcDbPolyline
 90
2
 70
0
 10
236.048100
 20
91.072000
 30
0.0
 10
222.525200
 20
87.448500
 30
0.0
  0
LWPOLYLINE
  5
169
100
AcDbEntity
  8
0
 62
7
100
AcDbPolyline
 90
2
 70
0
 10
239.671600
 20
77.549100
 30
0.0
 10
236.048100
 20
91.072000
 30
0.0
  0
LWPOLYLINE
  5
16a
100
AcDbEntity
  8
0
 62
7
100
AcDbPolyline
 90
3
 70
0
 10
185.820000
 20
77.613400
 30
0.0
 10
189.443400
 20
64.090500
 30
0.0
 10
202.966400
 20
67.713900
 30
0.0
  0
LWPOLYLINE
  5
16b
100
AcDbEntity
  8
0
 62
7
100
AcDbPolyline
 90
2
 70
0
 10
199.342900
 20
81.236900
 30
0.0
 10
185.820000
 20
77.613400
 30
0.0
  0
LWPOLYLINE
  5
16c
100
AcDbEntity
  8
0
 62
7
100
AcDbPolyline
 90
2
 70
0
 10
202.966400
 20
67.713900
 30
0.0
 10
199.342900
 20
81.236900
 30
0.0
  0
LWPOLYLINE
  5
16d
100
AcDbEntity
  8
0
 62
7
100
AcDbPolyline
 90
3
 70
0
 10
202.878500
 20
87.360600
 30
0.0
 10
206.501900
 20
73.837700
 30
0.0
 10
220.024900
 20
77.461100
 30
0.0
  0
LWPOLYLINE
  5
16e
100
AcDbEntity
  8
0
 62
7
100
AcDbPolyline
 90
2
 70
0
 10
216.401400
 20
90.984100
 30
0.0
 10
202.878500
 20
87.360600
 30
0.0
  0
LWPOLYLINE
  5
16f
100
AcDbEntity
  8
0
 62
7
100
AcDbPolyline
 90
2
 70
0
 10
220.024900
 20
77.461100
 30
0.0
 10
216.401400
 20
90.984100
 30
0.0
  0
LWPOLYLINE
  5
170
100
AcDbEntity
  8
0
 62
7
100
AcDbPolyline
 90
3
 70
0
 10
239.971900
 20
95.746900
 30
0.0
 10
243.595300
 20
82.223900
 30
0.0
 10
257.118300
 20
85.847400
 30
0.0
  0
LWPOLYLINE
  5
171
100
AcDbEntity
  8
0
 62
7
100
AcDbPolyline
 90
2
 70
0
 10
253.494800
 20
99.370300
 30
0.0
 10
239.971900
 20
95.746900
 30
0.0
  0
LWPOLYLINE
  5
172
100
AcDbEntity
  8
0
 62
7
100
AcDbPolyline
 90
2
 70
0
 10
257.118300
 20
85.847400
 30
0.0
 10
253.494800
 20
99.370300
 30
0.0
  0
LWPOLYLINE
  5
173
100
AcDbEntity
  8
0
 62
7
100
AcDbPolyline
 90
3
 70
0
 10
163.973300
 20
85.735900
 30
0.0
 10
167.596800
 20
72.212900
 30
0.0
 10
181.119800
 20
75.836400
 30
0.0
  0
LWPOLYLINE
  5
174
100
AcDbEntity
  8
0
 62
7
100
AcDbPolyline
 90
2
 70
0
 10
177.496300
 20
89.359300
 30
0.0
 10
163.973300
 20
85.735900
 30
0.0
  0
LWPOLYLINE
  5
175
100
AcDbEntity
  8
0
 62
7
100
AcDbPolyline
 90
2
 70
0
 10
181.119800
 20
75.836400
 30
0.0
 10
177.496300
 20
89.359300
 30
0.0
  0
LWPOLYLINE
  5
176
100
AcDbEntity
  8
0
 62
7
100
AcDbPolyline
 90
3
 70
0
 10
16.844900
 20
97.787500
 30
0.0
 10
13.221400
 20
84.264500
 30
0.0
 10
26.744400
 20
80.641100
 30
0.0
  0
LWPOLYLINE
  5
177
100
AcDbEntity
  8
0
 62
7
100
AcDbPolyline
 90
2
 70
0
 10
30.367800
 20
94.164000
 30
0.0
 10
16.844900
 20
97.787500
 30
0.0
  0
LWPOLYLINE
  5
178
100
AcDbEntity
  8
0
 62
7
100
AcDbPolyline
 90
2
 70
0
 10
26.744400
 20
80.641100
 30
0.0
 10
30.367800
 20
94.164000
 30
0.0
  0
LWPOLYLINE
  5
179
100
AcDbEntity
  8
0
 62
7
100
AcDbPolyline
 90
3
 70
0
 10
261.102100
 20
94.161800
 30
0.0
 10
264.725600
 20
80.638800
 30
0.0
 10
278.248500
 20
84.262300
 30
0.0
  0
LWPOLYLINE
  5
17a
100
AcDbEntity
  8
0
 62
7
100
AcDbPolyline
 90
2
 70
0
 10
274.625100
 20
97.785200
 30
0.0
 10
261.102100
 20
94.161800
 30
0.0
  0
LWPOLYLINE
  5
17b
100
AcDbEntity
  8
0
 62
7
100
AcDbPolyline
 90
2
 70
0
 10
278.248500
 20
84.262300
 30
0.0
 10
274.625100
 20
97.785200
 30
0.0
  0
LWPOLYLINE
  5
17c
100
AcDbEntity
  8
0
 62
7
100
AcDbPolyline
 90
3
 70
0
 10
12.703800
 20
82.332700
 30
0.0
 10
9.080300
 20
68.809700
 30
0.0
 10
22.603300
 20
65.186300
 30
0.0
  0
LWPOLYLINE
  5
17d
100
AcDbEntity
  8
0
 62
7
100
AcDbPolyline
 90
2
 70
0
 10
26.226700
 20
78.709200
 30
0.0
 10
12.703800
 20
82.332700
 30
0.0
  0
LWPOLYLINE
  5
17e
100
AcDbEntity
  8
0
 62
7
100
AcDbPolyline
 90
2
 70
0
 10
22.603300
 20
65.186300
 30
0.0
 10
26.226700
 20
78.709200
 30
0.0
  0
LWPOLYLINE
  5
17f
100
AcDbEntity
  8
0
 62
7
100
AcDbPolyline
 90
3
 70
0
 10
265.243200
 20
78.706900
 30
0.0
 10
268.866700
 20
65.184000
 30
0.0
 10
282.389700
 20
68.807400
 30
0.0
  0
LWPOLYLINE
  5
180
100
AcDbEntity
  8
0
 62
7
100
AcDbPolyline
 90
2
 70
0
 10
278.766200
 20
82.330400
 30
0.0
 10
265.243200
 20
78.706900
 30
0.0
  0
LWPOLYLINE
  5
181
100
AcDbEntity
  8
0
 62
7
100
AcDbPolyline
 90
2
 70
0
 10
282.389700
 20
68.807400
 30
0.0
 10
278.766200
 20
82.330400
 30
0.0
  0
LWPOLYLINE
  5
182
100
AcDbEntity
  8
0
 62
7
100
AcDbPolyline
 90
3
 70
0
 10
8.562700
 20
66.877900
 30
0.0
 10
4.939200
 20
53.354900
 30
0.0
 10
18.462200
 20
49.731400
 30
0.0
  0
LWPOLYLINE
  5
183
100
AcDbEntity
  8
0
 62
7
100
AcDbPolyline
 90
2
 70
0
 10
22.085600
 20
63.254400
 30
0.0
 10
8.562700
 20
66.877900
 30
0.0
  0
LWPOLYLINE
  5
184
100
AcDbEntity
  8
0
 62
7
100
AcDbPolyline
 90
2
 70
0
 10
18.462200
 20
49.731400
 30
0.0
 10
22.085600
 20
63.254400
 30
0.0
  0
LWPOLYLINE
  5
185
100
AcDbEntity
  8
0
 62
7
100
AcDbPolyline
 90
3
 70
0
 10
269.384300
 20
63.252100
 30
0.0
 10
273.007800
 20
49.729200
 30
0.0
 10
286.530800
 20
53.352600
 30
0.0
  0
LWPOLYLINE
  5
186
100
AcDbEntity
  8
0
 62
7
100
AcDbPolyline
 90
2
 70
0
 10
282.907300
 20
66.875600
 30
0.0
 10
269.384300
 20
63.252100
 30
0.0
  0
LWPOLYLINE
  5
187
100
AcDbEntity
  8
0
 62
7
100
AcDbPolyline
 90
2
 70
0
 10
286.530800
 20
53.352600
 30
0.0
 10
282.907300
 20
66.875600
 30
0.0
  0
LWPOLYLINE
  5
188
100
AcDbEntity
  8
0
 62
7
100
AcDbPolyline
 90
3
 70
0
 10
37.975100
 20
99.372600
 30
0.0
 10
34.351700
 20
85.849600
 30
0.0
 10
47.874600
 20
82.226200
 30
0.0
  0
LWPOLYLINE
  5
189
100
AcDbEntity
  8
0
 62
7
100
AcDbPolyline
 90
2
 70
0
 10
51.498100
 20
95.749100
 30
0.0
 10
37.975100
 20
99.372600
 30
0.0
  0
SPLINE
  5
18a
100
AcDbEntity
  8
0
 62
7
100
AcDbSpline
 70
8
 71
3
 72
8
 73
4
 74
0
 40
0
 40
0
 40
0
 40
0
 40
1
 40
1
 40
1
 40
1
 10
213.493400
 20
108.645400
 30
0.0
 10
214.033800
 20
108.331000
 30
0.0
 10
214.426500
 20
107.814000
 30
0.0
 10
214.584300
 20
107.209000
 30
0.0
  0
LWPOLYLINE
  5
18b
100
AcDbEntity
  8
0
 62
7
100
AcDbPolyline
 90
2
 70
0
 10
47.874600
 20
82.226200
 30
0.0
 10
51.498100
 20
95.749100
 30
0.0
  0
LWPOLYLINE
  5
18c
100
AcDbEntity
  8
0
 62
7
100
AcDbPolyline
 90
2
 70
0
 10
159.377800
 20
87.046700
 30
0.0
 10
179.222800
 20
92.416300
 30
0.0
  0
SPLINE
  5
18d
100
AcDbEntity
  8
0
 62
7
100
AcDbSpline
 70
8
 71
3
 72
8
 73
4
 74
0
 40
0
 40
0
 40
0
 40
0
 40
1
 40
1
 40
1
 40
1
 10
94.887400
 20
104.006200
 30
0.0
 10
95.215700
 20
103.430900
 30
0.0
 10
95.300200
 20
102.748200
 30
0.0
 10
95.122300
 20
102.110200
 30
0.0
  0
LWPOLYLINE
  5
18e
100
AcDbEntity
  8
0
 62
7
100
AcDbPolyline
 90
2
 70
0
 10
180.839100
 20
11.026700
 30
0.0
 10
166.454100
 20
0.954500
 30
0.0
  0
SPLINE
  5
18f
100
AcDbEntity
  8
0
 62
7
100
AcDbSpline
 70
8
 71
3
 72
8
 73
4
 74
0
 40
0
 40
0
 40
0
 40
0
 40
1
 40
1
 40
1
 40
1
 10
2.299500
 20
43.573500
 30
0.0
 10
0.934600
 20
43.940100
 30
0.0
 10
0.125000
 20
45.343400
 30
0.0
 10
0.490900
 20
46.708500
 30
0.0
  0
LWPOLYLINE
  5
190
100
AcDbEntity
  8
0
 62
7
100
AcDbPolyline
 90
2
 70
0
 10
198.756200
 20
19.383300
 30
0.0
 10
180.839100
 20
11.026700
 30
0.0
  0
LWPOLYLINE
  5
191
100
AcDbEntity
  8
0
 62
7
100
AcDbPolyline
 90
2
 70
0
 10
95.122300
 20
102.110200
 30
0.0
 10
94.451900
 20
99.706100
 30
0.0
  0
SPLINE
  5
192
100
AcDbEntity
  8
0
 62
7
100
AcDbSpline
 70
8
 71
3
 72
8
 73
4
 74
0
 40
0
 40
0
 40
0
 40
0
 40
1
 40
1
 40
1
 40
1
 10
77.878500
 20
108.624100
 30
0.0
 10
78.404600
 20
108.931400
 30
0.0
 10
79.031700
 20
109.015700
 30
0.0
 10
79.620200
 20
108.858000
 30
0.0
  0
LWPOLYLINE
  5
193
100
AcDbEntity
  8
0
 62
7
100
AcDbPolyline
 90
2
 70
0
 10
23.424600
 20
54.727400
 30
0.0
 10
22.443300
 20
54.990300
 30
0.0
  0
SPLINE
  5
194
100
AcDbEntity
  8
0
 62
7
100
AcDbSpline
 70
8
 71
3
 72
8
 73
4
 74
0
 40
0
 40
0
 40
0
 40
0
 40
1
 40
1
 40
1
 40
1
 10
76.819500
 20
107.221700
 30
0.0
 10
76.971100
 20
107.811800
 30
0.0
 10
77.352500
 20
108.316700
 30
0.0
 10
77.878500
 20
108.624100
 30
0.0
  0
SPLINE
  5
195
100
AcDbEntity
  8
0
 62
7
100
AcDbSpline
 70
8
 71
3
 72
8
 73
4
 74
0
 40
0
 40
0
 40
0
 40
0
 40
1
 40
1
 40
1
 40
1
 10
273.530800
 20
39.995600
 30
0.0
 10
273.080600
 20
40.255300
 30
0.0
 10
272.752000
 20
40.683200
 30
0.0
 10
272.617500
 20
41.185200
 30
0.0
  0
SPLINE
  5
196
100
AcDbEntity
  8
0
 62
7
100
AcDbSpline
 70
8
 71
3
 72
8
 73
4
 74
0
 40
0
 40
0
 40
0
 40
0
 40
1
 40
1
 40
1
 40
1
 10
127.666100
 20
0.102200
 30
0.0
 10
126.696100
 20
0.102200
 30
0.0
 10
125.749500
 20
0.400700
 30
0.0
 10
124.955000
 20
0.957200
 30
0.0
  0
LWPOLYLINE
  5
197
100
AcDbEntity
  8
0
 62
7
100
AcDbPolyline
 90
2
 70
0
 10
110.572500
 20
11.029300
 30
0.0
 10
92.652800
 20
19.385900
 30
0.0
  0
SPLINE
  5
198
100
AcDbEntity
  8
0
 62
7
100
AcDbSpline
 70
8
 71
3
 72
8
 73
4
 74
0
 40
0
 40
0
 40
0
 40
0
 40
1
 40
1
 40
1
 40
1
 10
196.491500
 20
104.051100
 30
0.0
 10
196.816200
 20
104.621900
 30
0.0
 10
197.356100
 20
105.038800
 30
0.0
 10
197.990400
 20
105.208800
 30
0.0
  0
LWPOLYLINE
  5
199
100
AcDbEntity
  8
0
 62
7
100
AcDbPolyline
 90
2
 70
0
 10
197.990400
 20
105.208800
 30
0.0
 10
211.705600
 20
108.883700
 30
0.0
  0
LWPOLYLINE
  5
19a
100
AcDbEntity
  8
0
 62
7
100
AcDbPolyline
 90
2
 70
0
 10
268.847700
 20
55.273000
 30
0.0
 10
267.985800
 20
55.042100
 30
0.0
  0
SPLINE
  5
19b
100
AcDbEntity
  8
0
 62
7
100
AcDbSpline
 70
8
 71
3
 72
8
 73
4
 74
0
 40
0
 40
0
 40
0
 40
0
 40
1
 40
1
 40
1
 40
1
 10
291.028800
 20
46.169800
 30
0.0
 10
291.313900
 20
45.106500
 30
0.0
 10
290.683500
 20
44.013200
 30
0.0
 10
289.620400
 20
43.727300
 30
0.0
  0
SPLINE
  5
19c
100
AcDbEntity
  8
0
 62
7
100
AcDbSpline
 70
8
 71
3
 72
8
 73
4
 74
0
 40
0
 40
0
 40
0
 40
0
 40
1
 40
1
 40
1
 40
1
 10
233.204800
 20
108.749000
 30
0.0
 10
233.708200
 20
108.457100
 30
0.0
 10
234.074600
 20
107.976700
 30
0.0
 10
234.223000
 20
107.414000
 30
0.0
  0
SPLINE
  5
19d
100
AcDbEntity
  8
0
 62
7
100
AcDbSpline
 70
8
 71
3
 72
8
 73
4
 74
0
 40
0
 40
0
 40
0
 40
0
 40
1
 40
1
 40
1
 40
1
 10
110.437800
 20
95.423300
 30
0.0
 10
111.074200
 20
95.252800
 30
0.0
 10
111.615100
 20
94.833400
 30
0.0
 10
111.938800
 20
94.259600
 30
0.0
  0
SPLINE
  5
19e
100
AcDbEntity
  8
0
 62
7
100
AcDbSpline
 70
8
 71
3
 72
8
 73
4
 74
0
 40
0
 40
0
 40
0
 40
0
 40
1
 40
1
 40
1
 40
1
 10
166.454100
 20
0.954500
 30
0.0
 10
165.659500
 20
0.398100
 30
0.0
 10
164.713000
 20
0.099700
 30
0.0
 10
163.743000
 20
0.099700
 30
0.0
  0
LWPOLYLINE
  5
19f
100
AcDbEntity
  8
0
 62
7
100
AcDbPolyline
 90
2
 70
0
 10
260.083900
 20
87.964700
 30
0.0
 10
258.654400
 20
93.310400
 30
0.0
  0
LWPOLYLINE
  5
1a0
100
AcDbEntity
  8
0
 62
7
100
AcDbPolyline
 90
2
 70
0
 10
269.941900
 20
51.170100
 30
0.0
 10
269.079300
 20
50.939000
 30
0.0
  0
LWPOLYLINE
  5
1a1
100
AcDbEntity
  8
0
 62
7
100
AcDbPolyline
 90
2
 70
0
 10
94.451900
 20
99.706100
 30
0.0
 10
110.437800
 20
95.423300
 30
0.0
  0
LWPOLYLINE
  5
1a2
100
AcDbEntity
  8
0
 62
7
100
AcDbPolyline
 90
2
 70
0
 10
132.027500
 20
87.053900
 30
0.0
 10
159.377800
 20
87.046700
 30
0.0
  0
SPLINE
  5
1a3
100
AcDbEntity
  8
0
 62
7
100
AcDbSpline
 70
8
 71
3
 72
8
 73
4
 74
0
 40
0
 40
0
 40
0
 40
0
 40
1
 40
1
 40
1
 40
1
 10
14.351900
 20
98.423300
 30
0.0
 10
14.710500
 20
99.761100
 30
0.0
 10
16.084300
 20
100.556200
 30
0.0
 10
17.422900
 20
100.200700
 30
0.0
  0
SPLINE
  5
1a4
100
AcDbEntity
  8
0
 62
7
100
AcDbSpline
 70
8
 71
3
 72
8
 73
4
 74
0
 40
0
 40
0
 40
0
 40
0
 40
1
 40
1
 40
1
 40
1
 10
18.803600
 20
41.431800
 30
0.0
 10
18.651700
 20
40.865000
 30
0.0
 10
18.280800
 20
40.381900
 30
0.0
 10
17.772600
 20
40.088600
 30
0.0
  0
LWPOLYLINE
  5
1a5
100
AcDbEntity
  8
0
 62
7
100
AcDbPolyline
 90
2
 70
0
 10
261.017800
 20
84.552300
 30
0.0
 10
260.103400
 20
84.307300
 30
0.0
  0
LWPOLYLINE
  5
1a6
100
AcDbEntity
  8
0
 62
7
100
AcDbPolyline
 90
2
 70
0
 10
0.490900
 20
46.708500
 30
0.0
 10
14.351900
 20
98.423300
 30
0.0
  0
LWPOLYLINE
  5
1a7
100
AcDbEntity
  8
0
 62
7
100
AcDbPolyline
 90
2
 70
0
 10
32.819200
 20
93.746400
 30
0.0
 10
31.609800
 20
89.231100
 30
0.0
  0
LWPOLYLINE
  5
1a8
100
AcDbEntity
  8
0
 62
7
100
AcDbPolyline
 90
2
 70
0
 10
236.850400
 20
97.453100
 30
0.0
 10
253.294600
 20
101.859300
 30
0.0
  0
SPLINE
  5
1a9
100
AcDbEntity
  8
0
 62
7
100
AcDbSpline
 70
8
 71
3
 72
8
 73
4
 74
0
 40
0
 40
0
 40
0
 40
0
 40
1
 40
1
 40
1
 40
1
 10
32.589900
 20
95.479400
 30
0.0
 10
32.893400
 20
94.955100
 30
0.0
 10
32.975900
 20
94.331600
 30
0.0
 10
32.819200
 20
93.746400
 30
0.0
  0
LWPOLYLINE
  5
1aa
100
AcDbEntity
  8
0
 62
7
100
AcDbPolyline
 90
2
 70
0
 10
19.763500
 20
41.177100
 30
0.0
 10
22.071300
 20
49.784600
 30
0.0
  0
LWPOLYLINE
  5
1ab
100
AcDbEntity
  8
0
 62
7
100
AcDbPolyline
 90
2
 70
0
 10
269.078700
 20
50.937700
 30
0.0
 10
271.799200
 20
40.960400
 30
0.0
  0
SPLINE
  5
1ac
100
AcDbEntity
  8
0
 62
7
100
AcDbSpline
 70
8
 71
3
 72
8
 73
4
 74
0
 40
0
 40
0
 40
0
 40
0
 40
1
 40
1
 40
1
 40
1
 10
253.294600
 20
101.859300
 30
0.0
 10
254.375000
 20
102.148800
 30
0.0
 10
255.485900
 20
101.508500
 30
0.0
 10
255.776900
 20
100.428400
 30
0.0
  0
SPLINE
  5
1ad
100
AcDbEntity
  8
0
 62
7
100
AcDbSpline
 70
8
 71
3
 72
8
 73
4
 74
0
 40
0
 40
0
 40
0
 40
0
 40
1
 40
1
 40
1
 40
1
 10
17.772600
 20
40.088600
 30
0.0
 10
17.264300
 20
39.795400
 30
0.0
 10
16.660400
 20
39.716200
 30
0.0
 10
16.093700
 20
39.868400
 30
0.0
  0
LWPOLYLINE
  5
1ae
100
AcDbEntity
  8
0
 62
7
100
AcDbPolyline
 90
2
 70
0
 10
31.463000
 20
84.793400
 30
0.0
 10
30.489800
 20
85.054200
 30
0.0
  0
SPLINE
  5
1af
100
AcDbEntity
  8
0
 62
7
100
AcDbSpline
 70
8
 71
3
 72
8
 73
4
 74
0
 40
0
 40
0
 40
0
 40
0
 40
1
 40
1
 40
1
 40
1
 10
275.017900
 20
39.800800
 30
0.0
 10
274.516000
 20
39.665900
 30
0.0
 10
273.981000
 20
39.735900
 30
0.0
 10
273.530800
 20
39.995600
 30
0.0
  0
LWPOLYLINE
  5
1b0
100
AcDbEntity
  8
0
 62
7
100
AcDbPolyline
 90
2
 70
0
 10
124.955000
 20
0.957200
 30
0.0
 10
110.572500
 20
11.029300
 30
0.0
  0
SPLINE
  5
1b1
100
AcDbEntity
  8
0
 62
7
100
AcDbSpline
 70
8
 71
3
 72
8
 73
4
 74
0
 40
0
 40
0
 40
0
 40
0
 40
1
 40
1
 40
1
 40
1
 10
179.222800
 20
92.416300
 30
0.0
 10
179.047200
 20
93.038500
 30
0.0
 10
179.128100
 20
93.705200
 30
0.0
 10
179.447700
 20
94.267300
 30
0.0
  0
SPLINE
  5
1b2
100
AcDbEntity
  8
0
 62
7
100
AcDbSpline
 70
8
 71
3
 72
8
 73
4
 74
0
 40
0
 40
0
 40
0
 40
0
 40
1
 40
1
 40
1
 40
1
 10
211.705600
 20
108.883700
 30
0.0
 10
212.309500
 20
109.045600
 30
0.0
 10
212.953000
 20
108.959700
 30
0.0
 10
213.493400
 20
108.645400
 30
0.0
  0
LWPOLYLINE
  5
1b3
100
AcDbEntity
  8
0
 62
7
100
AcDbPolyline
 90
2
 70
0
 10
59.929600
 20
108.956700
 30
0.0
 10
76.148700
 20
104.610800
 30
0.0
  0
LWPOLYLINE
  5
1b4
100
AcDbEntity
  8
0
 62
7
100
AcDbPolyline
 90
2
 70
0
 10
16.093700
 20
39.868400
 30
0.0
 10
2.299500
 20
43.573500
 30
0.0
  0
SPLINE
  5
1b5
100
AcDbEntity
  8
0
 62
7
100
AcDbSpline
 70
8
 71
3
 72
8
 73
4
 74
0
 40
0
 40
0
 40
0
 40
0
 40
1
 40
1
 40
1
 40
1
 10
111.938800
 20
94.259600
 30
0.0
 10
112.262400
 20
93.685800
 30
0.0
 10
112.341500
 20
93.005900
 30
0.0
 10
112.158300
 20
92.373100
 30
0.0
  0
LWPOLYLINE
  5
1b6
100
AcDbEntity
  8
0
 62
7
100
AcDbPolyline
 90
2
 70
0
 10
215.262900
 20
104.608300
 30
0.0
 10
231.540500
 20
108.969800
 30
0.0
  0
SPLINE
  5
1b7
100
AcDbEntity
  8
0
 62
7
100
AcDbSpline
 70
8
 71
3
 72
8
 73
4
 74
0
 40
0
 40
0
 40
0
 40
0
 40
1
 40
1
 40
1
 40
1
 10
57.173100
 20
107.358000
 30
0.0
 10
57.325600
 20
107.936200
 30
0.0
 10
57.702100
 20
108.429800
 30
0.0
 10
58.219300
 20
108.729800
 30
0.0
  0
SPLINE
  5
1b8
100
AcDbEntity
  8
0
 62
7
100
AcDbSpline
 70
8
 71
3
 72
8
 73
4
 74
0
 40
0
 40
0
 40
0
 40
0
 40
1
 40
1
 40
1
 40
1
 10
179.447700
 20
94.267300
 30
0.0
 10
179.767200
 20
94.829400
 30
0.0
 10
180.298600
 20
95.240000
 30
0.0
 10
180.923200
 20
95.407300
 30
0.0
  0
SPLINE
  5
1b9
100
AcDbEntity
  8
0
 62
7
100
AcDbSpline
 70
8
 71
3
 72
8
 73
4
 74
0
 40
0
 40
0
 40
0
 40
0
 40
1
 40
1
 40
1
 40
1
 10
231.540500
 20
108.969800
 30
0.0
 10
232.102500
 20
109.120400
 30
0.0
 10
232.701500
 20
109.041000
 30
0.0
 10
233.204800
 20
108.749000
 30
0.0
  0
LWPOLYLINE
  5
1ba
100
AcDbEntity
  8
0
 62
7
100
AcDbPolyline
 90
2
 70
0
 10
259.199600
 20
87.727700
 30
0.0
 10
260.083900
 20
87.964700
 30
0.0
  0
LWPOLYLINE
  5
1bb
100
AcDbEntity
  8
0
 62
7
100
AcDbPolyline
 90
2
 70
0
 10
22.071100
 20
49.786800
 30
0.0
 10
21.111700
 20
50.043900
 30
0.0
  0
LWPOLYLINE
  5
1bc
100
AcDbEntity
  8
0
 62
7
100
AcDbPolyline
 90
2
 70
0
 10
26.979700
 20
68.143100
 30
0.0
 10
26.019600
 20
68.400300
 30
0.0
  0
LWPOLYLINE
  5
1bd
100
AcDbEntity
  8
0
 62
7
100
AcDbPolyline
 90
2
 70
0
 10
272.617500
 20
41.185200
 30
0.0
 10
269.942300
 20
51.168900
 30
0.0
  0
LWPOLYLINE
  5
1be
100
AcDbEntity
  8
0
 62
7
100
AcDbPolyline
 90
2
 70
0
 10
263.798000
 20
74.083600
 30
0.0
 10
262.916500
 20
73.847400
 30
0.0
  0
SPLINE
  5
1bf
100
AcDbEntity
  8
0
 62
7
100
AcDbSpline
 70
8
 71
3
 72
8
 73
4
 74
0
 40
0
 40
0
 40
0
 40
0
 40
1
 40
1
 40
1
 40
1
 10
270.439900
 20
38.587800
 30
0.0
 10
261.234600
 20
36.121700
 30
0.0
 10
220.344600
 20
25.166900
 30
0.0
 10
198.756200
 20
19.383300
 30
0.0
  0
LWPOLYLINE
  5
1c0
100
AcDbEntity
  8
0
 62
7
100
AcDbPolyline
 90
2
 70
0
 10
260.564400
 20
96.610700
 30
0.0
 10
274.032700
 20
100.197900
 30
0.0
  0
LWPOLYLINE
  5
1c1
100
AcDbEntity
  8
0
 62
7
100
AcDbPolyline
 90
2
 70
0
 10
27.317900
 20
73.271800
 30
0.0
 10
30.489800
 20
85.054200
 30
0.0
  0
LWPOLYLINE
  5
1c2
100
AcDbEntity
  8
0
 62
7
100
AcDbPolyline
 90
2
 70
0
 10
54.561200
 20
97.455700
 30
0.0
 10
57.173100
 20
107.358000
 30
0.0
  0
SPLINE
  5
1c3
100
AcDbEntity
  8
0
 62
7
100
AcDbSpline
 70
8
 71
3
 72
8
 73
4
 74
0
 40
0
 40
0
 40
0
 40
0
 40
1
 40
1
 40
1
 40
1
 10
274.032700
 20
100.197900
 30
0.0
 10
275.325700
 20
100.542300
 30
0.0
 10
276.653400
 20
99.774600
 30
0.0
 10
277.000000
 20
98.482200
 30
0.0
  0
LWPOLYLINE
  5
1c4
100
AcDbEntity
  8
0
 62
7
100
AcDbPolyline
 90
2
 70
0
 10
112.159600
 20
92.375200
 30
0.0
 10
132.027500
 20
87.053900
 30
0.0
  0
SPLINE
  5
1c5
100
AcDbEntity
  8
0
 62
7
100
AcDbSpline
 70
8
 71
3
 72
8
 73
4
 74
0
 40
0
 40
0
 40
0
 40
0
 40
1
 40
1
 40
1
 40
1
 10
31.201200
 20
96.541300
 30
0.0
 10
31.786800
 20
96.385800
 30
0.0
 10
32.286400
 20
96.003800
 30
0.0
 10
32.589900
 20
95.479400
 30
0.0
  0
LWPOLYLINE
  5
1c6
100
AcDbEntity
  8
0
 62
7
100
AcDbPolyline
 90
2
 70
0
 10
32.564800
 20
88.977100
 30
0.0
 10
35.600600
 20
100.302700
 30
0.0
  0
LWPOLYLINE
  5
1c7
100
AcDbEntity
  8
0
 62
7
100
AcDbPolyline
 90
2
 70
0
 10
163.743000
 20
0.099700
 30
0.0
 10
127.666100
 20
0.102200
 30
0.0
  0
LWPOLYLINE
  5
1c8
100
AcDbEntity
  8
0
 62
7
100
AcDbPolyline
 90
2
 70
0
 10
21.111200
 20
50.043600
 30
0.0
 10
18.803600
 20
41.431800
 30
0.0
  0
SPLINE
  5
1c9
100
AcDbEntity
  8
0
 62
7
100
AcDbSpline
 70
8
 71
3
 72
8
 73
4
 74
0
 40
0
 40
0
 40
0
 40
0
 40
1
 40
1
 40
1
 40
1
 10
93.374500
 20
105.173100
 30
0.0
 10
94.014400
 20
105.001700
 30
0.0
 10
94.559100
 20
104.581500
 30
0.0
 10
94.887400
 20
104.006200
 30
0.0
  0
LWPOLYLINE
  5
1ca
100
AcDbEntity
  8
0
 62
7
100
AcDbPolyline
 90
2
 70
0
 10
289.620400
 20
43.727300
 30
0.0
 10
275.017900
 20
39.800800
 30
0.0
  0
LWPOLYLINE
  5
1cb
100
AcDbEntity
  8
0
 62
7
100
AcDbPolyline
 90
2
 70
0
 10
267.985800
 20
55.042100
 30
0.0
 10
263.893500
 20
70.195000
 30
0.0
  0
LWPOLYLINE
  5
1cc
100
AcDbEntity
  8
0
 62
7
100
AcDbPolyline
 90
2
 70
0
 10
31.609800
 20
89.231100
 30
0.0
 10
32.564800
 20
88.977100
 30
0.0
  0
SPLINE
  5
1cd
100
AcDbEntity
  8
0
 62
7
100
AcDbSpline
 70
8
 71
3
 72
8
 73
4
 74
0
 40
0
 40
0
 40
0
 40
0
 40
1
 40
1
 40
1
 40
1
 10
258.654400
 20
93.310400
 30
0.0
 10
258.469700
 20
94.001400
 30
0.0
 10
258.567200
 20
94.737400
 30
0.0
 10
258.925500
 20
95.356400
 30
0.0
  0
LWPOLYLINE
  5
1ce
100
AcDbEntity
  8
0
 62
7
100
AcDbPolyline
 90
2
 70
0
 10
38.242100
 20
101.827700
 30
0.0
 10
54.561200
 20
97.455700
 30
0.0
  0
LWPOLYLINE
  5
1cf
100
AcDbEntity
  8
0
 62
7
100
AcDbPolyline
 90
2
 70
0
 10
262.916500
 20
73.847400
 30
0.0
 10
260.103400
 20
84.307300
 30
0.0
  0
SPLINE
  5
1d0
100
AcDbEntity
  8
0
 62
7
100
AcDbSpline
 70
8
 71
3
 72
8
 73
4
 74
0
 40
0
 40
0
 40
0
 40
0
 40
1
 40
1
 40
1
 40
1
 10
21.312600
 20
38.493800
 30
0.0
 10
20.751300
 20
38.644100
 30
0.0
 10
20.272700
 20
39.011300
 30
0.0
 10
19.982200
 20
39.514600
 30
0.0
  0
LWPOLYLINE
  5
1d1
100
AcDbEntity
  8
0
 62
7
100
AcDbPolyline
 90
2
 70
0
 10
79.620200
 20
108.858000
 30
0.0
 10
93.374500
 20
105.173100
 30
0.0
  0
LWPOLYLINE
  5
1d2
100
AcDbEntity
  8
0
 62
7
100
AcDbPolyline
 90
2
 70
0
 10
17.422900
 20
100.200700
 30
0.0
 10
31.201200
 20
96.541300
 30
0.0
  0
SPLINE
  5
1d3
100
AcDbEntity
  8
0
 62
7
100
AcDbSpline
 70
8
 71
3
 72
8
 73
4
 74
0
 40
0
 40
0
 40
0
 40
0
 40
1
 40
1
 40
1
 40
1
 10
271.799200
 20
40.960400
 30
0.0
 10
272.081000
 20
39.926600
 30
0.0
 10
271.472400
 20
38.864400
 30
0.0
 10
270.439900
 20
38.587800
 30
0.0
  0
SPLINE
  5
1d4
100
AcDbEntity
  8
0
 62
7
100
AcDbSpline
 70
8
 71
3
 72
8
 73
4
 74
0
 40
0
 40
0
 40
0
 40
0
 40
1
 40
1
 40
1
 40
1
 10
19.982200
 20
39.514600
 30
0.0
 10
19.691700
 20
40.017800
 30
0.0
 10
19.613000
 20
40.615900
 30
0.0
 10
19.763500
 20
41.177100
 30
0.0
  0
SPLINE
  5
1d5
100
AcDbEntity
  8
0
 62
7
100
AcDbSpline
 70
8
 71
3
 72
8
 73
4
 74
0
 40
0
 40
0
 40
0
 40
0
 40
1
 40
1
 40
1
 40
1
 10
196.262200
 20
102.171200
 30
0.0
 10
196.084200
 20
102.803300
 30
0.0
 10
196.166800
 20
103.480300
 30
0.0
 10
196.491500
 20
104.051100
 30
0.0
  0
LWPOLYLINE
  5
1d6
100
AcDbEntity
  8
0
 62
7
100
AcDbPolyline
 90
2
 70
0
 10
28.297600
 20
73.009300
 30
0.0
 10
31.463000
 20
84.793400
 30
0.0
  0
LWPOLYLINE
  5
1d7
100
AcDbEntity
  8
0
 62
7
100
AcDbPolyline
 90
2
 70
0
 10
264.790100
 20
70.435200
 30
0.0
 10
263.893500
 20
70.195000
 30
0.0
  0
LWPOLYLINE
  5
1d8
100
AcDbEntity
  8
0
 62
7
100
AcDbPolyline
 90
2
 70
0
 10
180.923200
 20
95.407300
 30
0.0
 10
196.957100
 20
99.703600
 30
0.0
  0
LWPOLYLINE
  5
1d9
100
AcDbEntity
  8
0
 62
7
100
AcDbPolyline
 90
2
 70
0
 10
76.148700
 20
104.610800
 30
0.0
 10
76.819500
 20
107.221700
 30
0.0
  0
SPLINE
  5
1da
100
AcDbEntity
  8
0
 62
7
100
AcDbSpline
 70
8
 71
3
 72
8
 73
4
 74
0
 40
0
 40
0
 40
0
 40
0
 40
1
 40
1
 40
1
 40
1
 10
258.925500
 20
95.356400
 30
0.0
 10
259.283700
 20
95.975400
 30
0.0
 10
259.873300
 20
96.426600
 30
0.0
 10
260.564400
 20
96.610700
 30
0.0
  0
LWPOLYLINE
  5
1db
100
AcDbEntity
  8
0
 62
7
100
AcDbPolyline
 90
2
 70
0
 10
234.223000
 20
107.414000
 30
0.0
 10
236.850400
 20
97.453100
 30
0.0
  0
LWPOLYLINE
  5
1dc
100
AcDbEntity
  8
0
 62
7
100
AcDbPolyline
 90
2
 70
0
 10
28.297600
 20
73.009300
 30
0.0
 10
27.317800
 20
73.271800
 30
0.0
  0
LWPOLYLINE
  5
1dd
100
AcDbEntity
  8
0
 62
7
100
AcDbPolyline
 90
2
 70
0
 10
255.776900
 20
100.428400
 30
0.0
 10
259.199600
 20
87.727700
 30
0.0
  0
LWPOLYLINE
  5
1de
100
AcDbEntity
  8
0
 62
7
100
AcDbPolyline
 90
2
 70
0
 10
263.798000
 20
74.083600
 30
0.0
 10
261.017800
 20
84.552300
 30
0.0
  0
LWPOLYLINE
  5
1df
100
AcDbEntity
  8
0
 62
7
100
AcDbPolyline
 90
2
 70
0
 10
23.424600
 20
54.727400
 30
0.0
 10
26.979700
 20
68.143100
 30
0.0
  0
LWPOLYLINE
  5
1e0
100
AcDbEntity
  8
0
 62
7
100
AcDbPolyline
 90
2
 70
0
 10
22.443300
 20
54.990300
 30
0.0
 10
26.019600
 20
68.400300
 30
0.0
  0
LWPOLYLINE
  5
1e1
100
AcDbEntity
  8
0
 62
7
100
AcDbPolyline
 90
2
 70
0
 10
268.847700
 20
55.273000
 30
0.0
 10
264.790100
 20
70.435200
 30
0.0
  0
LWPOLYLINE
  5
1e2
100
AcDbEntity
  8
0
 62
7
100
AcDbPolyline
 90
2
 70
0
 10
215.262900
 20
104.608300
 30
0.0
 10
214.584300
 20
107.209000
 30
0.0
  0
SPLINE
  5
1e3
100
AcDbEntity
  8
0
 62
7
100
AcDbSpline
 70
8
 71
3
 72
8
 73
4
 74
0
 40
0
 40
0
 40
0
 40
0
 40
1
 40
1
 40
1
 40
1
 10
35.600600
 20
100.302700
 30
0.0
 10
35.908900
 20
101.453200
 30
0.0
 10
37.091500
 20
102.135900
 30
0.0
 10
38.242100
 20
101.827700
 30
0.0
  0
SPLINE
  5
1e4
100
AcDbEntity
  8
0
 62
7
100
AcDbSpline
 70
8
 71
3
 72
8
 73
4
 74
0
 40
0
 40
0
 40
0
 40
0
 40
1
 40
1
 40
1
 40
1
 10
58.219300
 20
108.729800
 30
0.0
 10
58.736600
 20
109.029800
 30
0.0
 10
59.352000
 20
109.111400
 30
0.0
 10
59.929600
 20
108.956700
 30
0.0
  0
LWPOLYLINE
  5
1e5
100
AcDbEntity
  8
0
 62
7
100
AcDbPolyline
 90
2
 70
0
 10
92.652800
 20
19.385900
 30
0.0
 10
21.312600
 20
38.493800
 30
0.0
  0
LWPOLYLINE
  5
1e6
100
AcDbEntity
  8
0
 62
7
100
AcDbPolyline
 90
2
 70
0
 10
277.000000
 20
98.482200
 30
0.0
 10
291.028800
 20
46.169800
 30
0.0
  0
LWPOLYLINE
  5
1e7
100
AcDbEntity
  8
0
 62
7
100
AcDbPolyline
 90
2
 70
0
 10
196.262200
 20
102.171200
 30
0.0
 10
196.957100
 20
99.703600
 30
0.0
  0
ENDSEC
  0
SECTION
  2
OBJECTS
  0
DICTIONARY
  5
C
330
0
100
AcDbDictionary
  3
ACAD_GROUP
350
D
  3
ACAD_MLINESTYLE
350
17
  0
DICTIONARY
  5
D
330
C
100
AcDbDictionary
  0
DICTIONARY
  5
1A
330
C
100
AcDbDictionary
  0
DICTIONARY
  5
17
330
C
100
AcDbDictionary
  3
STANDARD
350
18
  0
DICTIONARY
  5
19
330
C
100
AcDbDictionary
  0
ENDSEC
  0
EOF
