0
SECTION
2
HEADER
9
$INSUNITS
70
4
9
$ACADVER
1
AC1014
9
$HANDSEED
5
FFFF
0
ENDSEC
0
SECTION
2
TABLES
0
TABLE
2
VPORT
5
8
100
AcDbSymbolTable
0
ENDTAB
0
TABLE
2
LTYPE
5
5
100
AcDbSymbolTable
0
LTYPE
5
14
100
AcDbSymbolTableRecord
100
AcDbLinetypeTableRecord
2
BYBLOCK
70
0
0
LTYPE
5
15
100
AcDbSymbolTableRecord
100
AcDbLinetypeTableRecord
2
BYLAYER
70
0
0
ENDTAB
0
TABLE
2
LAYER
5
2
100
AcDbSymbolTable
70
2
0
LAYER
5
50
100
AcDbSymbolTableRecord
100
AcDbLayerTableRecord
2
0
70
0
6
CONTINUOUS
0
ENDTAB
0
TABLE
2
STYLE
5
3
100
AcDbSymbolTable
70
1
0
STYLE
5
11
100
AcDbSymbolTableRecord
100
AcDbTextStyleTableRecord
2
STANDARD
70
0
0
ENDTAB
0
TABLE
2
VIEW
5
6
100
AcDbSymbolTable
70
0
0
ENDTAB
0
TABLE
2
UCS
5
7
100
AcDbSymbolTable
70
0
0
ENDTAB
0
TABLE
2
APPID
5
9
100
AcDbSymbolTable
70
2
0
APPID
5
12
100
AcDbSymbolTableRecord
100
AcDbRegAppTableRecord
2
ACAD
70
0
0
ENDTAB
0
TABLE
2
DIMSTYLE
5
A
100
AcDbSymbolTable
70
1
0
ENDTAB
0
TABLE
2
BLOCK_RECORD
5
1
100
AcDbSymbolTable
70
1
0
BLOCK_RECORD
5
1F
100
AcDbSymbolTableRecord
100
AcDbBlockTableRecord
2
*MODEL_SPACE
0
BLOCK_RECORD
5
1B
100
AcDbSymbolTableRecord
100
AcDbBlockTableRecord
2
*PAPER_SPACE
0
ENDTAB
0
ENDSEC
0
SECTION
2
BLOCKS
0
BLOCK
5
20
100
AcDbEntity
100
AcDbBlockBegin
2
*MODEL_SPACE
0
ENDBLK
5
21
100
AcDbEntity
100
AcDbBlockEnd
0
BLOCK
5
1C
100
AcDbEntity
100
AcDbBlockBegin
2
*PAPER_SPACE
0
ENDBLK
5
1D
100
AcDbEntity
100
AcDbBlockEnd
0
ENDSEC
0
SECTION
2
ENTITIES
0
CIRCLE
5
100
100
AcDbEntity
8
0
100
AcDbCircle
10
-75.116980736304882
20
178.65947102388319
30
0
40
1.25
210
0
220
-0
230
1
0
CIRCLE
5
101
100
AcDbEntity
8
0
100
AcDbCircle
10
76.508055466874794
20
178.66217737281585
30
0
40
1.25
210
0
220
-0
230
1
0
CIRCLE
5
102
100
AcDbEntity
8
0
100
AcDbCircle
10
58.812700900212455
20
89.090052828223463
30
0
40
1.25
210
0
220
-0
230
1
0
CIRCLE
5
103
100
AcDbEntity
8
0
100
AcDbCircle
10
-131.48314794175599
20
96.592120957763981
30
0
40
1.25
210
0
220
-0
230
1
0
CIRCLE
5
104
100
AcDbEntity
8
0
100
AcDbCircle
10
-147.71755582925704
20
157.23162903149662
30
0
40
1.25
210
0
220
-0
230
1
0
CIRCLE
5
105
100
AcDbEntity
8
0
100
AcDbCircle
10
0.70448070358020587
20
203.89905000742436
30
0
40
1.25
210
0
220
-0
230
1
0
CIRCLE
5
106
100
AcDbEntity
8
0
100
AcDbCircle
10
0.7004480300738456
20
108.9496992742757
30
0
40
1.25
210
0
220
-0
230
1
0
CIRCLE
5
107
100
AcDbEntity
8
0
100
AcDbCircle
10
132.87282635249198
20
96.584402270768578
30
0
40
1.25
210
0
220
-0
230
1
0
CIRCLE
5
108
100
AcDbEntity
8
0
100
AcDbCircle
10
9.6399000000000257
20
193.73922550562696
30
0
40
2.0000000000000018
210
0
220
-0
230
1
0
CIRCLE
5
109
100
AcDbEntity
8
0
100
AcDbCircle
10
-57.467567439509246
20
89.120694811723652
30
0
40
1.25
210
0
220
-0
230
1
0
CIRCLE
5
110
100
AcDbEntity
8
0
100
AcDbCircle
10
149.29428086747694
20
157.34048499751702
30
0
40
1.25
210
0
220
-0
230
1
0
ARC
5
111
100
AcDbEntity
8
0
100
AcDbCircle
10
-35.196612697353459
20
106.94488149327796
30
0
40
9.4516857579362696
210
0
220
0
230
1
100
AcDbArc
50
284.99726121320037
51
327.65157895931929
0
LINE
5
112
100
AcDbEntity
8
0
100
AcDbLine
10
-27.211734555586773
20
101.88760112455093
30
0
11
-12.050819009406148
21
105.94634239109631
31
0
0
LINE
5
113
100
AcDbEntity
8
0
100
AcDbLine
10
-12.050819009406148
20
105.94634239109631
30
0
11
13.448412114678954
21
105.95305509494577
31
0
0
LINE
5
114
100
AcDbEntity
8
0
100
AcDbLine
10
13.448412114678954
20
105.95305509494577
30
0
11
28.618950270330625
21
101.84825682431904
31
0
0
ARC
5
115
100
AcDbEntity
8
0
100
AcDbCircle
10
36.548688298917014
20
106.92713693864212
30
0
40
9.4167812132211974
210
0
220
0
230
1
100
AcDbArc
50
212.63896194009976
51
255.0003336443169
0
LINE
5
116
100
AcDbEntity
8
0
100
AcDbLine
10
34.111498944654805
20
97.831210571902631
30
0
11
44.404111745954779
21
95.07329438305166
31
0
0
ARC
5
117
100
AcDbEntity
8
0
100
AcDbCircle
10
53.625901084894707
20
97.16317704599517
30
0
40
9.4556336729305439
210
0
220
0
230
1
100
AcDbArc
50
192.76894028938565
51
255.00095757926414
0
LINE
5
118
100
AcDbEntity
8
0
100
AcDbLine
10
51.17875565355213
20
88.029695377183572
30
0
11
64.893695074027733
21
84.354865200287676
31
0
0
ARC
5
119
100
AcDbEntity
8
0
100
AcDbCircle
10
67.313197720921551
20
93.383377883073507
30
0
40
9.3470869430828998
210
0
220
0
230
1
100
AcDbArc
50
254.99810551060537
51
317.63369237449325
0
LINE
5
120
100
AcDbEntity
8
0
100
AcDbLine
10
74.219309094569425
20
87.08467484067485
30
0
11
84.728944533042053
21
84.268671563622561
31
0
0
ARC
5
121
100
AcDbEntity
8
0
100
AcDbCircle
10
87.106835233438161
20
93.144202880384483
30
0
40
9.1885483259246072
210
0
220
0
230
1
100
AcDbArc
50
255.00181143488612
51
345.22343308072431
0
LINE
5
122
100
AcDbEntity
8
0
100
AcDbLine
10
95.991497877528161
20
90.800660681369607
30
0
11
96.826583671096188
21
93.966606514396716
31
0
0
LINE
5
123
100
AcDbEntity
8
0
100
AcDbLine
10
96.826583671096188
20
93.966606514396716
30
0
11
106.48282176725586
21
91.379231251617398
31
0
0
SPLINE
5
124
100
AcDbEntity
8
0
100
AcDbSpline
70
0
71
3
72
11
73
7
74
0
42
0.000000001
43
0.0000000001
44
0.0000000001
40
0
40
0
40
0
40
0
40
0.42447590968195537
40
0.42447590968195537
40
0.42447590968195537
40
0.8573369552255462
40
0.8573369552255462
40
0.8573369552255462
40
0.8573369552255462
10
106.48282176725586
20
91.379231251617398
30
0
10
108.49129261233713
20
90.841048810252119
30
0
10
110.60210979029853
20
91.035667823760775
30
0
10
112.39699572421515
20
91.810760742419873
30
0
10
114.22733799868901
20
92.601164917336661
30
0
10
115.78919771658789
20
93.997353991618539
30
0
10
116.77084246313798
20
95.824078181491771
30
0
0
LINE
5
125
100
AcDbEntity
8
0
100
AcDbLine
10
116.77084246313798
20
95.824078181491771
30
0
11
127.2310151460801
21
93.037934738332027
31
0
0
SPLINE
5
126
100
AcDbEntity
8
0
100
AcDbSpline
70
0
71
3
72
17
73
13
74
0
42
0.000000001
43
0.0000000001
44
0.0000000001
40
0
40
0
40
0
40
0
40
0.4246035457197862
40
0.4246035457197862
40
0.4246035457197862
40
0.88411697784980969
40
0.88411697784980969
40
0.88411697784980969
40
1
40
1
40
1
40
1.0000082645546995
40
1.0000082645546995
40
1.0000082645546995
40
1.0000082645546995
10
127.2310151460801
20
93.037934738332027
30
0
10
129.33055227900124
20
92.478707678333549
30
0
10
131.53251024842558
20
92.685418016217071
30
0
10
133.40585657622464
20
93.497845869389607
30
0
10
135.43322495157778
20
94.377069594515334
30
0
10
137.14375428427277
20
95.9685046565032
30
0
10
138.14766513005094
20
98.051958558467476
30
0
10
138.40083775710312
20
98.577377224796905
30
0
10
138.60748739629872
20
99.131856420110424
30
0
10
138.76108504431338
20
99.704590408264323
30
0
10
138.76108790828457
20
99.704601087422901
30
0
10
138.76109077277926
20
99.704611768533411
30
0
10
138.76109363914935
20
99.704622456637097
30
0
0
LINE
5
127
100
AcDbEntity
8
0
100
AcDbLine
10
138.76109363914935
20
99.704622456637097
30
0
11
152.78997925171331
21
152.01734172473374
31
0
0
SPLINE
5
128
100
AcDbEntity
8
0
100
AcDbSpline
70
0
71
3
72
14
73
10
74
0
42
0.000000001
43
0.0000000001
44
0.0000000001
40
0
40
0
40
0
40
0
40
0.42420793938212631
40
0.42420793938212631
40
0.42420793938212631
40
0.88343150911507728
40
0.88343150911507728
40
0.88343150911507728
40
1
40
1
40
1
40
1
10
152.78997925171331
20
152.01734172473374
30
0
10
153.32635480602937
20
154.01779113513101
30
0
10
153.1330174831175
20
156.12068041329604
30
0
10
152.36149505559462
20
157.908810902064
30
0
10
151.52628842600595
20
159.84454003385815
30
0
10
150.01094786265273
20
161.47948346950145
30
0
10
148.02450715963468
20
162.44136972714153
30
0
10
147.52027259885668
20
162.68553321709749
30
0
10
146.98792932930277
20
162.88471332842232
30
0
10
146.43832157486872
20
163.03251960910401
30
0
0
LINE
5
129
100
AcDbEntity
8
0
100
AcDbLine
10
146.43832157486872
20
163.03251960910401
30
0
11
56.159656595237934
21
187.21964847749905
31
0
0
LINE
5
130
100
AcDbEntity
8
0
100
AcDbLine
10
56.159656595237934
20
187.21964847749905
30
0
11
39.352654541950145
21
195.05849479517909
31
0
0
LINE
5
131
100
AcDbEntity
8
0
100
AcDbLine
10
39.352654541950145
20
195.05849479517909
30
0
11
25.46913341514994
21
204.77956545817045
31
0
0
SPLINE
5
132
100
AcDbEntity
8
0
100
AcDbSpline
70
0
71
3
72
8
73
4
74
0
42
0.000000001
43
0.0000000001
44
0.0000000001
40
1.2635848165063663e-05
40
1.2635848165063663e-05
40
1.2635848165063663e-05
40
1.2635848165063663e-05
40
1
40
1
40
1
40
1
10
25.46913341514994
20
204.77956545817045
30
0
10
23.49836247659578
20
206.15952869118064
30
0
10
21.148570977756762
20
206.90030000000002
30
0
10
18.743000000000016
20
206.90030000000002
30
0
0
LINE
5
133
100
AcDbEntity
8
0
100
AcDbLine
10
18.743000000000016
20
206.90030000000002
30
0
11
-17.33414253748419
21
206.89779999749217
31
0
0
SPLINE
5
134
100
AcDbEntity
8
0
100
AcDbSpline
70
0
71
3
72
8
73
4
74
0
42
0.000000001
43
0.0000000001
44
0.0000000001
40
3.3600629706893166e-05
40
3.3600629706893166e-05
40
3.3600629706893166e-05
40
3.3600629706893166e-05
40
1
40
1
40
1
40
1
10
-17.33414253748419
20
206.89779999749217
30
0
10
-19.740140390867765
20
206.89775020519335
30
0
10
-22.089961041826854
20
206.1567840973002
30
0
10
-24.060931364695715
20
204.7762366024273
30
0
0
LINE
5
135
100
AcDbEntity
8
0
100
AcDbLine
10
-24.060931364695715
20
204.7762366024273
30
0
11
-37.941140080460009
21
195.05589245650947
31
0
0
LINE
5
136
100
AcDbEntity
8
0
100
AcDbLine
10
-37.941140080460009
20
195.05589245650947
30
0
11
-54.749822860538956
21
187.21739970718846
31
0
0
LINE
5
137
100
AcDbEntity
8
0
100
AcDbLine
10
-54.749822860538956
20
187.21739970718846
30
0
11
-144.51628187995598
21
163.18689467519636
31
0
0
SPLINE
5
138
100
AcDbEntity
8
0
100
AcDbSpline
70
0
71
3
72
14
73
10
74
0
42
0.000000001
43
0.0000000001
44
0.0000000001
40
0
40
0
40
0
40
0
40
0.42417875540486605
40
0.42417875540486605
40
0.42417875540486605
40
0.88338660550454406
40
0.88338660550454406
40
0.88338660550454406
40
1
40
1
40
1
40
1
10
-144.51628187995598
20
163.18689467519636
30
0
10
-146.64443870297737
20
162.61529068126299
30
0
10
-148.47399941566621
20
161.31943042996824
30
0
10
-149.70895573956619
20
159.65745496101758
30
0
10
-151.04589595931816
20
157.85823193937711
30
0
10
-151.74358406321642
20
155.5936724476781
30
0
10
-151.57120473669983
20
153.2544742272849
30
0
10
-151.52742992230679
20
152.66044726363745
30
0
10
-151.42727518425869
20
152.06436217773705
30
0
10
-151.27042900384112
20
151.47920032781082
30
0
0
LINE
5
139
100
AcDbEntity
8
0
100
AcDbLine
10
-151.27042900384109
20
151.47920032781082
30
0
11
-137.40940693089829
21
99.764317980064106
31
0
0
SPLINE
5
140
100
AcDbEntity
8
0
100
AcDbSpline
70
0
71
3
72
14
73
10
74
0
42
0.000000001
43
0.0000000001
44
0.0000000001
40
0
40
0
40
0
40
0
40
0.4249110652376768
40
0.4249110652376768
40
0.4249110652376768
40
0.88451958115296314
40
0.88451958115296314
40
0.88451958115296314
40
1
40
1
40
1
40
1
10
-137.40940693089829
20
99.764317980064106
30
0
10
-136.84146782763835
20
97.645553528471368
30
0
10
-135.55191831767254
20
95.823608051368552
30
0
10
-133.8975198325758
20
94.593909493915618
30
0
10
-132.1080262310324
20
93.263796029588775
30
0
10
-129.85522712680103
20
92.569141779002393
30
0
10
-127.52799938906242
20
92.740032685971485
30
0
10
-126.94326428385816
20
92.782970431532277
30
0
10
-126.35653722197642
20
92.880800748193124
30
0
10
-125.78035153750291
20
93.033821823070113
30
0
0
LINE
5
141
100
AcDbEntity
8
0
100
AcDbLine
10
-125.78035153750291
20
93.033821823070113
30
0
11
-115.3225676697017
21
95.811157969046135
31
0
0
SPLINE
5
142
100
AcDbEntity
8
0
100
AcDbSpline
70
0
71
3
72
14
73
10
74
0
42
0.000000001
43
0.0000000001
44
0.0000000001
40
0.15181774164432973
40
0.15181774164432973
40
0.15181774164432973
40
0.15181774164432973
40
0.4238120964222124
40
0.4238120964222124
40
0.4238120964222124
40
0.88319827089857972
40
0.88319827089857972
40
0.88319827089857972
40
1
40
1
40
1
40
1
10
-115.3225676697017
20
95.811157969046135
30
0
10
-114.68232317791316
20
94.657305767084679
30
0
10
-113.80557608210904
20
93.671015429505346
30
0
10
-112.78532403871461
20
92.91148755922552
30
0
10
-111.06216444005526
20
91.62867930748456
30
0
10
-108.89215549817465
20
90.958587600148178
30
0
10
-106.64995291957797
20
91.122702652854173
30
0
10
-106.0798592756535
20
91.164429903243189
30
0
10
-105.50785896522524
20
91.260364158006894
30
0
10
-104.94672782059905
20
91.410668884909228
30
0
0
LINE
5
143
100
AcDbEntity
8
0
100
AcDbLine
10
-104.94672782059907
20
91.410668884909228
30
0
11
-95.415080871996253
21
93.964263160763849
31
0
0
LINE
5
144
100
AcDbEntity
8
0
100
AcDbLine
10
-95.415080871996253
20
93.964263160763849
30
0
11
-94.595419335586953
21
90.856742034200437
31
0
0
ARC
5
145
100
AcDbEntity
8
0
100
AcDbCircle
10
-85.652419410921269
20
93.215521469816423
30
0
40
9.2488425264167589
210
0
220
0
230
1
100
AcDbArc
50
194.77566472457016
51
284.99961529526581
0
LINE
5
146
100
AcDbEntity
8
0
100
AcDbLine
10
-83.258702804072641
20
84.281809537783218
30
0
11
-72.817481368413567
21
87.07952977107692
31
0
0
ARC
5
147
100
AcDbEntity
8
0
100
AcDbCircle
10
-65.970341681325806
20
93.346222332769543
30
0
40
9.281958713400206
210
0
220
0
230
1
100
AcDbArc
50
222.46561669659798
51
284.99793914351721
0
LINE
5
148
100
AcDbEntity
8
0
100
AcDbLine
10
-63.568316476259881
20
84.380452289349179
30
0
11
-49.814194054726705
21
88.065304716262858
31
0
0
ARC
5
149
100
AcDbEntity
8
0
100
AcDbCircle
10
-52.267388731051348
20
97.223313121267921
30
0
40
9.4808903625182346
210
0
220
0
230
1
100
AcDbArc
50
284.99599392868868
51
346.80662904838192
0
LINE
5
150
100
AcDbEntity
8
0
100
AcDbLine
10
-43.036743471222096
20
95.059411516923859
30
0
11
-32.75077282159274
21
97.815137194070331
31
0
0
ENDSEC
0
SECTION
2
OBJECTS
0
DICTIONARY
5
C
100
AcDbDictionary
3
ACAD_GROUP
350
D
3
ACAD_MLINESTYLE
350
17
0
DICTIONARY
5
D
100
AcDbDictionary
0
DICTIONARY
5
1A
330
C
100
AcDbDictionary
0
DICTIONARY
5
17
100
AcDbDictionary
0
ENDSEC
0
EOF
